<svg xmlns="http://www.w3.org/2000/svg" xmlns:xlink="http://www.w3.org/1999/xlink" fill="none" version="1.1" width="25.16666603088379" height="25.16666603088379" viewBox="0 0 25.16666603088379 25.16666603088379"><defs><clipPath id="master_svg0_48879_081931"><rect x="0" y="0" width="25.16666603088379" height="25.16666603088379" rx="0"/></clipPath></defs><g clip-path="url(#master_svg0_48879_081931)"><g><ellipse cx="16.700739830732346" cy="10.127497643232346" rx="0.4575757682323456" ry="0.4575757682323456" fill="#121212" fill-opacity="1"/></g><g><path d="M15.6618015625,5.6796875L9.5053615625,5.6796875Q9.462391562499999,6.7875175,8.6664615625,7.5834475Q7.8251115625,8.4248075,6.6352515625,8.4248075L6.5166015625,8.4248075Q5.4810715625,8.4248075,4.7488315624999995,9.157037500000001Q4.0166015625,9.889267499999999,4.0166015625,10.9248075L4.0166015625,16.6520875Q4.0166015625,17.6875875,4.7488315624999995,18.4198875Q5.4810715625,19.1520875,6.5166015625,19.1520875L18.6499015625,19.1520875Q19.6855015625,19.1520875,20.4177015625,18.4198875Q21.1499015625,17.6875875,21.1499015625,16.6520875L21.1499015625,10.9248075Q21.1499015625,9.889267499999999,20.4177015625,9.157037500000001Q19.6855015625,8.4248075,18.6499015625,8.4248075L18.5319015625,8.4248075Q17.342001562500002,8.4248075,16.500701562499998,7.5834475Q15.7047015625,6.7875175,15.6618015625,5.6796875ZM9.380371562499999,4.1796875L15.7868015625,4.1796875C16.5448015625,4.1796875,17.159301562499998,4.7942025,17.159301562499998,5.5522475C17.159301562499998,6.310287499999999,17.773801562499997,6.9248075,18.5319015625,6.9248075L18.6499015625,6.9248075C20.8591015625,6.9248075,22.6499015625,8.7156675,22.6499015625,10.9248075L22.6499015625,16.6520875C22.6499015625,18.8611875,20.8591015625,20.6520875,18.6499015625,20.6520875L6.5166015625,20.6520875C4.3074615625,20.6520875,2.5166015625,18.8611875,2.5166015625,16.6520875L2.5166015625,10.9248075C2.5166015625,8.7156675,4.3074615625,6.9248075,6.5166015625,6.9248075L6.6352515625,6.9248075C7.3933015625,6.9248075,8.007811562499999,6.310287499999999,8.007811562499999,5.5522475C8.007811562499999,4.7942025,8.622331562500001,4.1796875,9.380371562499999,4.1796875Z" fill-rule="evenodd" fill="#121212" fill-opacity="1"/></g><g><path d="M12.58359375,16.80146484375Q12.76904375,16.80146484375,12.95360375,16.78328484375Q13.13817375,16.76510484375,13.32006375,16.72892484375Q13.50195375,16.69274484375,13.67941375,16.63891484375Q13.85688375,16.58507484375,14.02822375,16.51410484375Q14.19956375,16.443134843750002,14.36311375,16.35571484375Q14.52667375,16.26829484375,14.68087375,16.165264843750002Q14.83507375,16.062234843749998,14.978423750000001,15.94457484375Q15.121783749999999,15.82692484375,15.25292375,15.69579484375Q15.38405375,15.564654843749999,15.50170375,15.421294843750001Q15.61936375,15.27794484375,15.72239375,15.12374484375Q15.825423749999999,14.96954484375,15.91284375,14.80598484375Q16.000263750000002,14.64243484375,16.07123375,14.47109484375Q16.14220375,14.29975484375,16.19604375,14.12228484375Q16.24987375,13.94482484375,16.28605375,13.76293484375Q16.32223375,13.58104484375,16.34041375,13.39647484375Q16.35859375,13.21191484375,16.35859375,13.02646484375Q16.35859375,12.84101484375,16.34041375,12.65645484375Q16.32223375,12.47188484375,16.28605375,12.28999484375Q16.24987375,12.10810484375,16.19604375,11.93064484375Q16.14220375,11.75317484375,16.07123375,11.58183484375Q16.000263750000002,11.41049484375,15.91284375,11.24694484375Q15.825423749999999,11.08338484375,15.72239375,10.92918484375Q15.61936375,10.77498484375,15.50170375,10.63163484375Q15.38405375,10.48827484375,15.25292375,10.35713484375Q15.121783749999999,10.22600084375,14.978423750000001,10.10834984375Q14.83507375,9.99069984375,14.68087375,9.88766684375Q14.52667375,9.78463484375,14.36311375,9.69721184375Q14.19956375,9.60978984375,14.02822375,9.53881984375Q13.85688375,9.46784984375,13.67941375,9.41401484375Q13.50195375,9.36018084375,13.32006375,9.32400044375Q13.13817375,9.28782014375,12.95360375,9.26964254375Q12.76904375,9.25146484375,12.58359375,9.25146484375Q12.39814375,9.25146484375,12.21358375,9.26964254375Q12.02901375,9.28782014375,11.84712375,9.32400044375Q11.66523375,9.36018084375,11.48777375,9.41401484375Q11.31030375,9.46784984375,11.13896375,9.53881984375Q10.96762375,9.60978984375,10.80407375,9.69721184375Q10.64051375,9.78463484375,10.48631375,9.88766684375Q10.33211375,9.99069984375,10.18876375,10.10834984375Q10.04540375,10.22600084375,9.91426375,10.35713484375Q9.78312975,10.48827484375,9.66547875,10.63163484375Q9.54782875,10.77498484375,9.44479575,10.92918484375Q9.34176375,11.08338484375,9.25434075,11.24694484375Q9.16691875,11.41049484375,9.09594875,11.58183484375Q9.02497875,11.75317484375,8.97114375,11.93064484375Q8.91730975,12.10810484375,8.88112935,12.28999484375Q8.84494905,12.47188484375,8.82677145,12.65645484375Q8.80859375,12.84101484375,8.80859375,13.02646484375Q8.80859375,13.21191484375,8.82677145,13.39647484375Q8.84494905,13.58104484375,8.88112935,13.76293484375Q8.91730975,13.94482484375,8.97114375,14.12228484375Q9.02497875,14.29975484375,9.09594875,14.47109484375Q9.16691875,14.64243484375,9.25434075,14.80598484375Q9.34176375,14.96954484375,9.44479575,15.12374484375Q9.54782875,15.27794484375,9.66547875,15.421294843750001Q9.78312975,15.564654843749999,9.91426375,15.69579484375Q10.04540375,15.82692484375,10.18876375,15.94457484375Q10.33211375,16.062234843749998,10.48631375,16.165264843750002Q10.64051375,16.26829484375,10.80407375,16.35571484375Q10.96762375,16.443134843750002,11.13896375,16.51410484375Q11.31030375,16.58507484375,11.48777375,16.63891484375Q11.66523375,16.69274484375,11.84712375,16.72892484375Q12.02901375,16.76510484375,12.21358375,16.78328484375Q12.39814375,16.80146484375,12.58359375,16.80146484375ZM12.58307375,15.54261484375Q12.70671375,15.54261484375,12.82975375,15.530494843749999Q12.95279375,15.51837484375,13.074053750000001,15.49425484375Q13.19531375,15.47013484375,13.31362375,15.434244843750001Q13.431933749999999,15.398354843749999,13.54616375,15.35104484375Q13.660383750000001,15.30372484375,13.76942375,15.24544484375Q13.87845375,15.18716484375,13.98125375,15.11847484375Q14.084053749999999,15.04978484375,14.17963375,14.97135484375Q14.27520375,14.892914843749999,14.362623750000001,14.805494843750001Q14.450043749999999,14.71807484375,14.52848375,14.62250484375Q14.60691375,14.526924843749999,14.67560375,14.42412484375Q14.74429375,14.32132484375,14.80257375,14.21229484375Q14.86085375,14.103254843750001,14.90817375,13.98903484375Q14.955483749999999,13.874804843749999,14.991373750000001,13.75649484375Q15.02726375,13.63818484375,15.05138375,13.516924843750001Q15.07550375,13.39566484375,15.087623749999999,13.27262484375Q15.09974375,13.14958484375,15.09974375,13.02594484375Q15.09974375,12.90230484375,15.087623749999999,12.77926484375Q15.07550375,12.65622484375,15.05138375,12.53496484375Q15.02726375,12.41370484375,14.991373750000001,12.29539484375Q14.955483749999999,12.17708484375,14.90817375,12.06285484375Q14.86085375,11.94863484375,14.80257375,11.83959484375Q14.74429375,11.73055484375,14.67560375,11.627754843750001Q14.60691375,11.524954843749999,14.52848375,11.42938484375Q14.450043749999999,11.33381484375,14.362623750000001,11.24639484375Q14.27520375,11.15896484375,14.17963375,11.08053484375Q14.084053749999999,11.00210484375,13.98125375,10.93341484375Q13.87845375,10.86472484375,13.76942375,10.80644484375Q13.660383750000001,10.74816484375,13.54616375,10.70084484375Q13.431933749999999,10.65353484375,13.31362375,10.61764484375Q13.19531375,10.58175484375,13.074053750000001,10.55763484375Q12.95279375,10.53351484375,12.82975375,10.52139484375Q12.70671375,10.50927484375,12.58307375,10.50927484375Q12.45943375,10.50927484375,12.33639375,10.52139484375Q12.21335375,10.53351484375,12.09209375,10.55763484375Q11.97083375,10.58175484375,11.85252375,10.61764484375Q11.73421375,10.65353484375,11.61998375,10.70084484375Q11.50576375,10.74816484375,11.39672375,10.80644484375Q11.28768375,10.86472484375,11.184883750000001,10.93341484375Q11.082083749999999,11.00210484375,10.98651375,11.08053484375Q10.89094375,11.15896484375,10.80352375,11.24639484375Q10.71609375,11.33381484375,10.63766375,11.42938484375Q10.55923375,11.524954843749999,10.49054375,11.627754843750001Q10.42185375,11.73055484375,10.36357375,11.83959484375Q10.30529375,11.94863484375,10.25797375,12.06285484375Q10.21066375,12.17708484375,10.17477375,12.29539484375Q10.13888375,12.41370484375,10.11476375,12.53496484375Q10.09064375,12.65622484375,10.07852375,12.77926484375Q10.06640375,12.90230484375,10.06640375,13.02594484375Q10.06640375,13.14958484375,10.07852375,13.27262484375Q10.09064375,13.39566484375,10.11476375,13.516924843750001Q10.13888375,13.63818484375,10.17477375,13.75649484375Q10.21066375,13.874804843749999,10.25797375,13.98903484375Q10.30529375,14.103254843750001,10.36357375,14.21229484375Q10.42185375,14.32132484375,10.49054375,14.42412484375Q10.55923375,14.526924843749999,10.63766375,14.62250484375Q10.71609375,14.71807484375,10.80352375,14.805494843750001Q10.89094375,14.892914843749999,10.98651375,14.97135484375Q11.082083749999999,15.04978484375,11.184883750000001,15.11847484375Q11.28768375,15.18716484375,11.39672375,15.24544484375Q11.50576375,15.30372484375,11.61998375,15.35104484375Q11.73421375,15.398354843749999,11.85252375,15.434244843750001Q11.97083375,15.47013484375,12.09209375,15.49425484375Q12.21335375,15.51837484375,12.33639375,15.530494843749999Q12.45943375,15.54261484375,12.58307375,15.54261484375Z" fill-rule="evenodd" fill="#006DE2" fill-opacity="1"/></g></g></svg>