<svg xmlns="http://www.w3.org/2000/svg" xmlns:xlink="http://www.w3.org/1999/xlink" fill="none" version="1.1" width="16" height="16" viewBox="0 0 16 16"><g><g><rect x="1" y="1" width="14" height="13.999999046325684" rx="3" fill="#F1A63A" fill-opacity="1"/><g></g><g><g><g><path d="M3.5,11.395906256103515L3.5,7.182085256103516C3.5,6.703210256103516,3.888204,6.315006256103516,4.367079,6.315006256103516L4.79586,6.315006256103516C5.27473,6.315006256103516,5.66294,6.703210256103516,5.66294,7.182085256103516L5.66294,11.395906256103515C5.66294,11.874786256103516,5.27473,12.262986256103517,4.79586,12.262986256103517L4.367079,12.262986256103517C3.888204,12.262986256103517,3.5,11.874786256103516,3.5,11.395906256103515Z" fill="#FFFFFF" fill-opacity="1"/></g><g><path d="M6.291568756103516,7.126868994140625L6.291568756103516,11.472128994140625C6.291568756103516,11.740438994140625,6.4761957561035155,11.973478994140626,6.737392756103516,12.034848994140624L7.382098756103516,12.186348994140625C7.598798756103515,12.237258994140625,7.820648756103516,12.262978994140624,8.043238756103516,12.262978994140624L10.352718756103515,12.262978994140624C10.880668756103516,12.262978994140624,11.341548756103515,11.905318994140625,11.472618756103515,11.393898994140624L12.481608756103515,7.457128994140625C12.575318756103517,7.091468994140625,12.299128756103515,6.735558994140625,11.921648756103515,6.735558994140625L9.549018756103516,6.735558994140625C9.345288756103516,6.735558994140625,9.205498756103516,6.530428994140625,9.280018756103516,6.3408189941406246L9.493768756103515,5.796918994140626C9.810718756103515,4.990388994140625,9.408768756103516,4.080206994140625,8.599168756103516,3.771189894140625C8.358608756103516,3.679371194140625,8.087088756103515,3.777650494140625,7.961038756103516,4.002169994140625L6.365577556103515,6.843878994140625C6.317054256103516,6.930298994140625,6.291568756103516,7.027748994140625,6.291568756103516,7.126868994140625Z" fill="#FFFFFF" fill-opacity="1"/></g></g></g></g></g></svg>