<svg xmlns="http://www.w3.org/2000/svg" xmlns:xlink="http://www.w3.org/1999/xlink" fill="none" version="1.1" width="16" height="16" viewBox="0 0 16 16"><g><g><rect x="1" y="1" width="14" height="14" rx="3" fill="#F25643" fill-opacity="1"/></g><g><path d="M7.31079,4.61795919140625Q6.8788800000000005,4.27379219140625,6.59978,4.15167619140625Q6.10707,3.93609619140625,5.663679999999999,3.93609619140625Q4.56229,3.93609619140625,3.782706,4.76161319140625Q3.000000233553,5.5904361914062495,3,6.76413619140625Q3,7.12209619140625,3.0489995,7.35811619140625Q3.136859,7.78133619140625,3.409913,8.26387619140625Q4.20874,9.67558619140625,6.57391,11.622686191406249Q7.22938,12.06393619140625,7.99993,12.06393619140625Q8.783570000000001,12.06393619140625,9.45162,11.60807619140625Q9.98422,11.25821619140625,10.33441,10.96692619140625Q10.69508,10.66691619140625,11.24431,10.11321619140625Q11.80105,9.551926191406249,12.15586,9.00122619140625L9.5546,6.44950619140625L8.6263,7.449486191406249Q8.2274,7.88922619140625,7.63052,7.91672619140625Q7.03637,7.94409619140625,6.59582,7.54354619140625Q6.14874,7.14096619140625,6.11553,6.53240619140625Q6.08229,5.92333619140625,6.48261,5.4846261914062495L6.48602,5.48088619140625L7.31079,4.61795919140625ZM12.60881,8.22124619140625Q13,7.43156619140625,13,6.76412619140625Q13,5.5904361914062495,12.2173,4.76161319140625Q11.43771,3.93609619140625,10.33633,3.93609643388725Q9.732800000000001,3.93609631264625,9.166419999999999,4.20123419140625Q8.60924,4.46205819140625,8.240490000000001,4.90705219140625L8.230550000000001,4.91904219140625L7.10193,6.09987619140625Q6.95911,6.25877619140625,6.971299999999999,6.4820661914062505Q6.98402,6.71511619140625,7.16052,6.87406619140625Q7.34217,7.03922619140625,7.59252,7.02768619140625Q7.84193,7.01619619140625,8.00916,6.8319161914062505L8.94608,5.8227661914062505Q9.176870000000001,5.5672761914062505,9.530000000000001,5.55425619140625Q9.88159,5.54217619140625,10.12802,5.78770619140625L12.60881,8.22124619140625ZM9.566130000000001,6.43708619140625Q9.56839,6.43473619140625,9.57127,6.43154619140625L9.566130000000001,6.43708619140625Z" fill-rule="evenodd" fill="#FFFFFF" fill-opacity="1"/></g></g></svg>