<svg xmlns="http://www.w3.org/2000/svg" xmlns:xlink="http://www.w3.org/1999/xlink" fill="none" version="1.1" width="70" height="70" viewBox="0 0 70 70"><g><g><ellipse cx="35" cy="35" rx="35" ry="35" fill="#FFFFFF" fill-opacity="1"/></g><g><g><rect x="16" y="16" width="28" height="28" rx="0" fill="#FFFFFF" fill-opacity="1"/></g><g><g transform="matrix(0.3156803548336029,0.9488655924797058,-0.9488655924797058,0.3156803548336029,46.25031161341303,-28.872728106010072)"><rect x="44.142364501953125" y="18.628570556640625" width="13.141127586364746" height="21.101224899291992" rx="2" fill-opacity="0" stroke-opacity="1" stroke="#121212" fill="none" stroke-width="2"/></g><g><path d="M49.928602957153316,26.708282470703125L49.928602957153316,30.908682470703127C49.928602957153316,31.338762470703124,49.64770295715332,31.709772470703125,49.26940295715332,31.914302470703127C48.01820295715332,32.59075247070312,47.21450295715332,33.864282470703124,47.21450295715332,35.25868247070312C47.21450295715332,36.653082470703126,48.01820295715332,37.926582470703124,49.26940295715332,38.60308247070313C49.64770295715332,38.807582470703124,49.928602957153316,39.17858247070313,49.928602957153316,39.60868247070312L49.928602957153316,43.809482470703124C49.928602957153316,45.466382470703124,48.585502957153324,46.809482470703124,46.928602957153316,46.809482470703124L23.07149295715332,46.809482470703124C21.41463295715332,46.809482470703124,20.07149124115332,45.466382470703124,20.07149124115332,43.809482470703124L20.07149124115332,39.60868247070312C20.07149124115332,39.17858247070313,20.35238995715332,38.807582470703124,20.73071495715332,38.60308247070313C21.98192295715332,37.926582470703124,22.78557295715332,36.653082470703126,22.78557295715332,35.25868247070312C22.78557295715332,33.864282470703124,21.98192295715332,32.59079247070312,20.73071495715332,31.914332470703123C20.35238995715332,31.709792470703125,20.07149124115332,31.338792470703126,20.07149124115332,30.908712470703126L20.07149124115332,26.708282470703125C20.07149124115332,25.051432470703126,21.41463295715332,23.708282470703125,23.07149295715332,23.708282470703125L46.928602957153316,23.708282470703125C48.585502957153324,23.708282470703125,49.928602957153316,25.051432470703126,49.928602957153316,26.708282470703125Z" fill-rule="evenodd" fill="#FFFFFF" fill-opacity="1"/><path d="M50.928602957153316,26.708282470703125L50.928602957153316,30.908682470703127Q50.928602957153316,31.530042470703126,50.566702957153325,32.06003247070312Q50.25300295715332,32.519302470703124,49.74500295715332,32.79398247070313Q49.03520295715332,33.17769247070312,48.62300295715332,33.843582470703126Q48.21450295715332,34.50358247070312,48.21450295715332,35.25868247070312Q48.21450295715332,36.01378247070313,48.62300295715332,36.673782470703124Q49.03520295715332,37.339682470703124,49.74500295715332,37.72338247070313Q50.25300295715332,37.998082470703125,50.566702957153325,38.45738247070312Q50.928602957153316,38.98728247070312,50.928602957153316,39.60868247070312L50.928602957153316,43.809482470703124Q50.928602957153316,45.466382470703124,49.75710295715332,46.63798247070312Q48.585502957153324,47.809482470703124,46.928602957153316,47.809482470703124L23.07149295715332,47.809482470703124Q21.41463295715332,47.80958247070312,20.24306395715332,46.63798247070312Q19.07149295715332,45.466382470703124,19.07149295715332,43.809482470703124L19.07149295715332,39.60868247070312Q19.07149295715332,38.98728247070312,19.43342795715332,38.45728247070313Q19.74706795715332,37.998082470703125,20.25512795715332,37.72338247070313Q20.96485895715332,37.339682470703124,21.37706295715332,36.673782470703124Q21.78557295715332,36.01378247070313,21.78557295715332,35.25868247070312Q21.78557295715332,34.50358247070312,21.37706295715332,33.843582470703126Q20.96485895715332,33.17771247070313,20.25512695715332,32.79400247070313Q19.74706895715332,32.51932247070312,19.43342695715332,32.06006247070312Q19.07149295715332,31.530072470703125,19.07149295715332,30.908712470703126L19.07149295715332,26.708282470703125Q19.07149295715332,25.051432470703126,20.24306395715332,23.879855470703124Q21.41463295715332,22.708282470703125,23.07149295715332,22.708282470703125L46.928602957153316,22.708282470703125Q48.585502957153324,22.708282470703125,49.75710295715332,23.879855470703124Q50.928602957153316,25.051422470703123,50.928602957153316,26.708282470703125ZM48.928602957153316,26.708282470703125Q48.928602957153316,25.879852470703124,48.342802957153324,25.294072470703124Q47.75710295715332,24.708282470703125,46.928602957153316,24.708282470703125L23.07149295715332,24.708282470703125Q22.24306295715332,24.708282470703125,21.65727295715332,25.294072470703124Q21.07149095715332,25.879852470703124,21.07149095715332,26.708282470703125L21.07149095715332,30.908712470703126Q21.07149095715332,30.961782470703124,21.20630295715332,31.034662470703125Q22.38489295715332,31.671862470703125,23.07762295715332,32.79096247070312Q23.78557295715332,33.93468247070312,23.78557295715332,35.25868247070312Q23.78557295715332,36.582682470703126,23.07762295715332,37.72638247070313Q22.38489295715332,38.845482470703125,21.20630295715332,39.482682470703125Q21.07149095715332,39.55558247070313,21.07149095715332,39.60868247070312L21.07149095715332,43.809482470703124Q21.07149095715332,44.63798247070312,21.65727295715332,45.22378247070313Q22.24306295715332,45.809482470703124,23.07149295715332,45.809482470703124L46.928602957153316,45.809482470703124Q47.75710295715332,45.809482470703124,48.342802957153324,45.22378247070313Q48.928602957153316,44.63798247070312,48.928602957153316,43.809482470703124L48.928602957153316,39.60868247070312Q48.928602957153316,39.55558247070313,48.79380295715332,39.48278247070313Q47.61520295715332,38.84558247070312,46.92250295715332,37.726482470703125Q46.21450295715332,36.58278247070312,46.21450295715332,35.25868247070312Q46.21450295715332,33.93458247070313,46.92250295715332,32.790932470703126Q47.61520295715332,31.671822470703127,48.79380295715332,31.034632470703123Q48.928602957153316,30.961742470703125,48.928602957153316,30.908682470703127L48.928602957153316,26.708282470703125Z" fill="#121212" fill-opacity="1"/></g></g><g><g transform="matrix(0.7071067690849304,0.7071067690849304,-0.7071067690849304,0.7071067690849304,33.364942122980565,-18.828596668361925)"><g transform="matrix(0,1,1,0,8.54984974861145,-8.54984974861145)"><path d="M39.41059875488281,29.860749006271362L51.624898754882814,29.860749006271362Q51.72339875488281,29.860749006271362,51.81999875488281,29.87996400627136Q51.91659875488281,29.89917900627136,52.007598754882814,29.936870006271363Q52.098598754882815,29.97456100627136,52.18049875488281,30.029279006271363Q52.26229875488281,30.08399800627136,52.33199875488281,30.15364200627136Q52.40159875488281,30.223286006271362,52.45639875488281,30.305179006271363Q52.51109875488281,30.387071006271363,52.54879875488281,30.478066006271362Q52.58649875488281,30.56906000627136,52.60569875488281,30.665659006271362Q52.624898754882814,30.762257606271362,52.624898754882814,30.860749006271362Q52.624898754882814,30.959240406271363,52.60569875488281,31.055839006271363Q52.58649875488281,31.152438006271364,52.54879875488281,31.243432006271362Q52.51109875488281,31.334427006271362,52.45639875488281,31.41631900627136Q52.40159875488281,31.498212006271363,52.33199875488281,31.567856006271363Q52.26229875488281,31.637500006271363,52.18049875488281,31.692219006271362Q52.098598754882815,31.746937006271363,52.007598754882814,31.78462800627136Q51.91659875488281,31.822319006271364,51.81999875488281,31.841534006271363Q51.72339875488281,31.860749006271362,51.624898754882814,31.860749006271362L39.41059875488281,31.860749006271362Q39.31210735488281,31.860749006271362,39.21550875488281,31.841534006271363Q39.118909754882814,31.822319006271364,39.02791575488281,31.78462800627136Q38.93692075488281,31.746937006271363,38.85502875488281,31.692219006271362Q38.773135754882816,31.637500006271363,38.70349175488281,31.567856006271363Q38.633847754882815,31.498212006271363,38.57912875488281,31.41631900627136Q38.524410754882815,31.334427006271362,38.48671975488281,31.243432006271362Q38.44902875488281,31.152438006271364,38.429813754882815,31.055839006271363Q38.41059875488281,30.959240406271363,38.41059875488281,30.860749006271362Q38.41059875488281,30.762257606271362,38.429813754882815,30.665659006271362Q38.44902875488281,30.56906000627136,38.48671975488281,30.478066006271362Q38.524410754882815,30.387071006271363,38.57912875488281,30.305179006271363Q38.633847754882815,30.223286006271362,38.70349175488281,30.15364200627136Q38.773135754882816,30.08399800627136,38.85502875488281,30.029279006271363Q38.93692075488281,29.97456100627136,39.02791575488281,29.936870006271363Q39.118909754882814,29.89917900627136,39.21550875488281,29.87996400627136Q39.31210735488281,29.860749006271362,39.41059875488281,29.860749006271362Z" fill-rule="evenodd" fill="#121212" fill-opacity="1"/></g></g><g><ellipse cx="30.92843198776245" cy="31.200007915496826" rx="1.3571429252624512" ry="1.3571429252624512" fill="#121212" fill-opacity="1"/></g><g><ellipse cx="39.34298276901245" cy="39.34286069869995" rx="1.3571429252624512" ry="1.3571429252624512" fill="#121212" fill-opacity="1"/></g></g></g></g></svg>