<svg xmlns="http://www.w3.org/2000/svg" xmlns:xlink="http://www.w3.org/1999/xlink" fill="none" version="1.1" width="24" height="24" viewBox="0 0 24 24"><defs><clipPath id="master_svg0_56929_153486"><rect x="2" y="2" width="20" height="20" rx="0"/></clipPath></defs><g><g clip-path="url(#master_svg0_56929_153486)"><g><g><path d="M11.450678203125001,15.65064375L11.450668203125,18.65674375Q11.450668203125,19.60734375,12.334258203125,19.95804375Q13.217838203125,20.30864375,13.869708203125,19.61674375L20.786708203125,12.27455375Q20.845108203125,12.21248375,20.890908203125,12.14054375Q20.936708203125,12.06859375,20.968108203125,11.98934375Q20.999608203125,11.91008375,21.015608203125,11.82632375Q21.031608203125,11.74256375,21.031608203125,11.65729375Q21.031608203125,11.57202375,21.015508203125,11.48827375Q20.999508203125,11.40452375,20.968108203125,11.325263750000001Q20.936608203125,11.24601375,20.890808203125,11.174083750000001Q20.845008203125,11.10215375,20.786508203125,11.04010375L13.869408203125,3.70152275Q13.217508203125,3.00985475,12.334088203125,3.36057425Q11.450668203125,3.71129275,11.450668203125,4.66178375L11.450668203125,7.94820375Q9.806708203125,7.99156375,8.295268203125,8.63085375Q6.729838203125,9.29297375,5.523088203125,10.499723750000001Q4.316332203125,11.70648375,3.654212203125,13.27191375Q2.968408203125,14.89334375,2.968408203125,16.66724375L2.968408203125,18.237043749999998Q2.968408203125,18.750443750000002,3.334660203125,19.10804375Q3.618933203125,19.38554375,4.025262203125,19.45824375Q4.410611203125,19.52724375,4.765593203125,19.386143750000002Q5.212308203125,19.20874375,5.420418203125,18.786043749999997Q6.220318203125,17.222043749999997,7.843218203125,16.423043749999998Q9.363728203125,15.67454375,11.450678203125001,15.65064375ZM13.250668203125,17.648843749999997L13.250678203125,14.74994375Q13.250668203125,14.66124375,13.233378203125,14.57434375Q13.216088203125,14.48734375,13.182168203125,14.40544375Q13.148238203125,14.32364375,13.098998203125,14.24984375Q13.049748203125,14.17614375,12.987068203125,14.11354375Q12.924388203125,14.05084375,12.850688203125,14.00154375Q12.776978203125,13.95234375,12.695088203125,13.91844375Q12.613198203125,13.88444375,12.526258203125,13.86724375Q12.439318203125,13.84994375,12.350678203125,13.84994375L11.588578203125,13.84994375Q8.994678203125,13.84994375,7.048188203125,14.80814375Q5.695258203125,15.47424375,4.769322203125,16.54594375Q4.811434203125,13.75694375,6.795878203125,11.77252375Q8.823348203125,9.74504375,11.690628203125,9.74505375L12.350668203125,9.74505375Q12.439318203125,9.74504375,12.526258203125,9.72775375Q12.613188203125,9.710463749999999,12.695088203125,9.67654375Q12.776978203125,9.642613749999999,12.850688203125,9.59337375Q12.924388203125,9.54412375,12.987068203125,9.48144375Q13.049748203125,9.41876375,13.098998203125,9.34506375Q13.148238203125,9.27135375,13.182168203125,9.18946375Q13.216088203125,9.10757375,13.233378203125,9.02063375Q13.250668203125,8.93369375,13.250668203125,8.84505375L13.250668203125,5.66933375L18.895008203125002,11.65756375L13.250668203125,17.648843749999997ZM3.816226203125,17.96954375Q3.809899703125,17.98184375,3.803774603125,17.99454375Q3.808412203125,17.98494375,3.813278803125,17.97534375Q3.814751503125,17.97244375,3.816226203125,17.96954375Z" fill-rule="evenodd" fill="#121212" fill-opacity="1"/></g></g></g></g></svg>