<svg xmlns="http://www.w3.org/2000/svg" xmlns:xlink="http://www.w3.org/1999/xlink" fill="none" version="1.1" width="20.000001907348633" height="20" viewBox="0 0 20.000001907348633 20"><defs><clipPath id="master_svg0_826_45026"><rect x="0" y="0" width="20.000001907348633" height="20" rx="0"/></clipPath></defs><g clip-path="url(#master_svg0_826_45026)"><g><path d="M15.5604296875,4.10078125L15.5604296875,15.90078125C15.5604296875,16.62078125,14.9737296875,17.20078125,14.2604296875,17.20078125L5.7404296875,17.20078125C5.0204296875,17.20078125,4.4404296875,16.614081249999998,4.4404296875,15.90078125L4.4404296875,4.10078125C4.4404296875,3.38078125,5.0270966875,2.80078125,5.7404296875,2.80078125L14.2604296875,2.80078125C14.9804296875,2.80078125,15.5604296875,3.38078125,15.5604296875,4.10078125Z" fill="#F46566" fill-opacity="1"/></g><g><path d="M15.5604296875,4.10078125L15.5604296875,7.20078125C14.1604296875,7.94078125,12.1870996875,8.39411125,10.000429687499999,8.39411125C7.8137596875,8.39411125,5.8404296875,7.93411125,4.4404296875,7.20078125L4.4404296875,4.10078125C4.4404296875,3.38078125,5.0270966875,2.80078125,5.7404296875,2.80078125L14.2604296875,2.80078125C14.9804296875,2.80078125,15.5604296875,3.38078125,15.5604296875,4.10078125Z" fill="#F33B3D" fill-opacity="1"/></g><g><path d="M12.0064940625,8.19417Q12.0064940625,8.29275,11.9968340625,8.39085Q11.9871740625,8.48896,11.967944062499999,8.58565Q11.9487040625,8.68233,11.9200940625,8.77667Q11.8914740625,8.87101,11.8537440625,8.96208Q11.8160240625,9.05316,11.7695540625,9.1401Q11.7230840625,9.22704,11.6683140625,9.30901Q11.6135440625,9.390979999999999,11.5510040625,9.467179999999999Q11.4884640625,9.54339,11.4187540625,9.61309Q11.3490540625,9.6828,11.272844062499999,9.74534Q11.196644062499999,9.80788,11.1146740625,9.86265Q11.0327040625,9.91742,10.9457640625,9.96389Q10.8588240625,10.01036,10.7677440625,10.04809Q10.6766740625,10.08581,10.5823340625,10.11443Q10.4879940625,10.14304,10.3913140625,10.162279999999999Q10.2946240625,10.18151,10.1965140625,10.19117Q10.0984140625,10.20083,9.9998340625,10.20083Q9.9012540625,10.20083,9.8031440625,10.19117Q9.7050340625,10.18151,9.6083540625,10.162279999999999Q9.5116640625,10.14304,9.4173240625,10.11443Q9.3229940625,10.08581,9.2319140625,10.04809Q9.1408340625,10.01036,9.0538940625,9.96389Q8.9669540625,9.91742,8.8849860625,9.86265Q8.8030190625,9.80788,8.7268150625,9.74534Q8.6506100625,9.6828,8.5809030625,9.61309Q8.5111960625,9.54339,8.4486560625,9.467179999999999Q8.3861170625,9.390979999999999,8.3313480625,9.30901Q8.2765800625,9.22704,8.2301090625,9.1401Q8.1836380625,9.05316,8.1459120625,8.96208Q8.1081870625,8.87101,8.0795704625,8.77667Q8.0509538625,8.68233,8.0317215625,8.58565Q8.0124893625,8.48896,8.0028267125,8.39085Q7.9931640625,8.29275,7.9931640625,8.19417Q7.9931640625,8.09559,8.0028267125,7.9974799999999995Q8.0124893625,7.89937,8.0317215625,7.80269Q8.0509538625,7.7059999999999995,8.0795704625,7.6116600000000005Q8.1081870625,7.51733,8.1459120625,7.42625Q8.1836380625,7.33517,8.2301090625,7.2482299999999995Q8.2765800625,7.16129,8.3313480625,7.079322Q8.3861170625,6.997355,8.4486560625,6.921151Q8.5111960625,6.844947,8.5809030625,6.775239Q8.6506100625,6.705532,8.7268150625,6.642992Q8.8030190625,6.580453,8.8849860625,6.525684Q8.9669540625,6.470916,9.0538940625,6.424445Q9.1408340625,6.377974,9.2319140625,6.340248Q9.3229940625,6.302523,9.4173240625,6.2739063999999996Q9.5116640625,6.2452898,9.6083540625,6.2260575Q9.7050340625,6.2068253,9.8031440625,6.19716265Q9.9012540625,6.1875,9.9998340625,6.1875Q10.0984140625,6.1875,10.1965140625,6.19716265Q10.2946240625,6.2068253,10.3913140625,6.2260575Q10.4879940625,6.2452898,10.5823340625,6.2739063999999996Q10.6766740625,6.302523,10.7677440625,6.340248Q10.8588240625,6.377974,10.9457640625,6.424445Q11.0327040625,6.470916,11.1146740625,6.525684Q11.196644062499999,6.580453,11.272844062499999,6.642992Q11.3490540625,6.705532,11.4187540625,6.775239Q11.4884640625,6.844947,11.5510040625,6.921151Q11.6135440625,6.997355,11.6683140625,7.079322Q11.7230840625,7.16129,11.7695540625,7.2482299999999995Q11.8160240625,7.33517,11.8537440625,7.42625Q11.8914740625,7.51733,11.9200940625,7.6116600000000005Q11.9487040625,7.7059999999999995,11.967944062499999,7.80269Q11.9871740625,7.89937,11.9968340625,7.9974799999999995Q12.0064940625,8.09559,12.0064940625,8.19417Z" fill="#FFFFFF" fill-opacity="1"/></g><g><path d="M10.7605078125,8.432998125C10.8205078125,8.432998125,10.8738378125,8.459658125,10.9138378125,8.492998125C10.9538378125,8.526328125,10.9738378125,8.586328125,10.9738378125,8.646328125C10.9738378125,8.766328125,10.8738378125,8.859658125,10.7605078125,8.859658125L10.2205078125,8.859658125L10.2205078125,9.306328125C10.2205078125,9.426328125,10.1205078125,9.519658125,10.0071748125,9.519658125L9.9738408125,9.519658125C9.8538418125,9.519658125,9.7605078125,9.419658125,9.7605078125,9.306328125L9.7605078125,8.866328124999999L9.2338408125,8.866328124999999C9.1738408125,8.866328124999999,9.1205078125,8.839658125,9.0805076125,8.806328125C9.0405075125,8.766328125,9.0205078125,8.712998125,9.0205078125,8.652998125C9.0205078125,8.532998125,9.1205078125,8.439658125,9.2338408125,8.439658125L9.7605068125,8.439658125L9.7605068125,8.192998124999999L9.2338408125,8.192998124999999C9.1738408125,8.192998124999999,9.1205078125,8.166328125,9.0805076125,8.132998125C9.0405075125,8.092998125,9.0205078125,8.039658125,9.0205078125,7.979658125C9.0205078125,7.859661125,9.1205078125,7.766328125,9.2338408125,7.766328125L9.6871738125,7.766328125L9.1738408125,7.252994125C9.0871742125,7.166328125,9.0871742125,7.032995125,9.1738408125,6.946328025L9.1938408125,6.926328325C9.2805078125,6.839661425,9.4138408125,6.839661425,9.5005078125,6.926328325L9.9938408125,7.419662125L10.4871778125,6.926328325C10.5738378125,6.839661425,10.7071778125,6.839661425,10.7938378125,6.926328325L10.813837812500001,6.946328025C10.900507812499999,7.032995125,10.900507812499999,7.166328125,10.813837812500001,7.252994125L10.3005078125,7.766328125L10.7671778125,7.766328125C10.8871778125,7.766328125,10.9805078125,7.866328125,10.9805078125,7.979658125C10.9805078125,8.099658125,10.8805078125,8.192998124999999,10.7671778125,8.192998124999999L10.227177812499999,8.192998124999999L10.227177812499999,8.439658125L10.7605078125,8.439658125L10.7605078125,8.432998125Z" fill="#F33B3D" fill-opacity="1"/></g></g></svg>