<svg xmlns="http://www.w3.org/2000/svg" xmlns:xlink="http://www.w3.org/1999/xlink" fill="none" version="1.1" width="16" height="16" viewBox="0 0 16 16"><defs><clipPath id="master_svg0_29442_072360"><rect x="0" y="0" width="16" height="16" rx="0"/></clipPath></defs><g clip-path="url(#master_svg0_29442_072360)"><g><g><path d="M2.9448995625,11.44803109375L2.9447585625,11.44818109375Q2.8216875625,11.57125109375,2.7550815625,11.73205109375Q2.6884765625,11.89285109375,2.6884765625,12.06689109375Q2.6884765625,12.24094109375,2.7550815625,12.401741093750001Q2.8216875625,12.56254109375,2.9447585625,12.685611093750001Q3.0678285625,12.80868109375,3.2286285625,12.87529109375Q3.3894285625,12.94189109375,3.5634765625,12.94189109375Q3.7375245625,12.94189109375,3.8983245625,12.87529109375Q4.0591245625,12.80868109375,4.1821945625,12.685611093750001L7.9999965625,8.86781109375L11.8175665625,12.68537109375L11.8178065625,12.685611093750001Q11.9408765625,12.80868109375,12.1016765625,12.87529109375Q12.2624765625,12.94189109375,12.4365265625,12.94189109375Q12.6105765625,12.94189109375,12.7713765625,12.87529109375Q12.9321665625,12.80868109375,13.0552465625,12.685611093750001Q13.1783165625,12.56254109375,13.2449165625,12.401741093750001Q13.3115265625,12.24094109375,13.3115265625,12.06689109375Q13.3115265625,11.89285109375,13.2449165625,11.73205109375Q13.1783165625,11.57125109375,13.0552465625,11.44817109375L13.0547865625,11.44772109375L8.618716562500001,7.01165309375Q8.557776562499999,6.95071409375,8.4861265625,6.90283509375Q8.4144665625,6.85495609375,8.334846562500001,6.82197709375Q8.255226562499999,6.78899709375,8.170706562500001,6.77218409375Q8.0861765625,6.75537109375,7.9999965625,6.75537109375Q7.9138165625,6.75537109375,7.8292965625,6.77218409375Q7.7447665625,6.78899709375,7.6651565625,6.82197709375Q7.5855365625,6.85495609375,7.5138765625,6.90283509375Q7.4422165625000005,6.95071409375,7.3812865625,7.01165309375L2.9448995625,11.44803109375Z" fill-rule="evenodd" fill="#121212" fill-opacity="1"/></g><g><path d="M2.86328125,4.80810546875L13.13668125,4.80810546875Q13.22288125,4.80810546875,13.30738125,4.79129246875Q13.39198125,4.77447946875,13.47158125,4.74149946875Q13.55118125,4.70852046875,13.62288125,4.66064146875Q13.69448125,4.61276246875,13.75548125,4.55182346875Q13.81638125,4.49088546875,13.86428125,4.41922946875Q13.91218125,4.34757346875,13.94508125,4.26795346875Q13.97808125,4.18833346875,13.99488125,4.10380946875Q14.01168125,4.01928546875,14.01168125,3.93310546875Q14.01168125,3.84692546875,13.99488125,3.76240146875Q13.97808125,3.67787746875,13.94508125,3.59825746875Q13.91218125,3.51863746875,13.86428125,3.4469814687499998Q13.81638125,3.37532546875,13.75548125,3.31438746875Q13.69448125,3.2534484687500003,13.62288125,3.2055694687500003Q13.55118125,3.1576904687500003,13.47158125,3.12471146875Q13.39198125,3.09173146875,13.30738125,3.07491846875Q13.22288125,3.05810546875,13.13668125,3.05810546875L2.86328125,3.05810546875Q2.77710125,3.05810546875,2.69257725,3.07491846875Q2.60805325,3.09173146875,2.52843325,3.12471146875Q2.44881325,3.1576904687500003,2.3771572499999998,3.2055694687500003Q2.30550125,3.2534484687500003,2.24456325,3.31438746875Q2.1836242500000003,3.37532546875,2.1357452500000003,3.4469814687499998Q2.0878662500000003,3.51863746875,2.05488725,3.59825746875Q2.02190725,3.67787746875,2.00509425,3.76240146875Q1.98828125,3.84692546875,1.98828125,3.93310546875Q1.98828125,4.01928546875,2.00509425,4.10380946875Q2.02190725,4.18833346875,2.05488725,4.26795346875Q2.0878662500000003,4.34757346875,2.1357452500000003,4.41922946875Q2.1836242500000003,4.49088546875,2.24456325,4.55182346875Q2.30550125,4.61276246875,2.3771572499999998,4.66064146875Q2.44881325,4.70852046875,2.52843325,4.74149946875Q2.60805325,4.77447946875,2.69257725,4.79129246875Q2.77710125,4.80810546875,2.86328125,4.80810546875Z" fill-rule="evenodd" fill="#121212" fill-opacity="1"/></g></g></g></svg>