<svg xmlns="http://www.w3.org/2000/svg" xmlns:xlink="http://www.w3.org/1999/xlink" fill="none" version="1.1" width="16" height="16" viewBox="0 0 16 16"><defs><clipPath id="master_svg0_29442_072355"><rect x="0" y="0" width="16" height="16" rx="0"/></clipPath></defs><g clip-path="url(#master_svg0_29442_072355)"><g><g><path d="M2.75,5.625L13.25,5.625Q13.3362,5.625,13.4207,5.608187Q13.5052,5.591374,13.5848,5.558394Q13.6645,5.525415,13.7361,5.477536Q13.8078,5.429657,13.8687,5.368718Q13.9297,5.30778,13.9775,5.236124Q14.0254,5.164468,14.0584,5.084848Q14.0914,5.005228,14.1082,4.920704Q14.125,4.83618,14.125,4.75Q14.125,4.66382,14.1082,4.579296Q14.0914,4.494772,14.0584,4.415152Q14.0254,4.335532,13.9775,4.263876Q13.9297,4.19222,13.8687,4.131282Q13.8078,4.070343,13.7361,4.022464Q13.6645,3.9745850000000003,13.5848,3.941606Q13.5052,3.908626,13.4207,3.891813Q13.3362,3.875,13.25,3.875L2.75,3.875Q2.66382,3.875,2.579296,3.891813Q2.494772,3.908626,2.415152,3.941606Q2.335532,3.9745850000000003,2.2638759999999998,4.022464Q2.19222,4.070343,2.131282,4.131282Q2.0703430000000003,4.19222,2.0224640000000003,4.263876Q1.974585,4.335532,1.9416060000000002,4.415152Q1.908626,4.494772,1.891813,4.579296Q1.875,4.66382,1.875,4.75Q1.875,4.83618,1.891813,4.920704Q1.908626,5.005228,1.9416060000000002,5.084848Q1.974585,5.164468,2.0224640000000003,5.236124Q2.0703430000000003,5.30778,2.131282,5.368718Q2.19222,5.429657,2.2638759999999998,5.477536Q2.335532,5.525415,2.415152,5.558394Q2.494772,5.591374,2.579296,5.608187Q2.66382,5.625,2.75,5.625Z" fill-rule="evenodd" fill="#121212" fill-opacity="1"/></g><g><path d="M2.75,12.125L13.25,12.125Q13.3362,12.125,13.4207,12.108187000000001Q13.5052,12.091374,13.5848,12.058394Q13.6645,12.025415,13.7361,11.977536Q13.8078,11.929657,13.8687,11.868718Q13.9297,11.80778,13.9775,11.736124Q14.0254,11.664468,14.0584,11.584848Q14.0914,11.505228,14.1082,11.420704Q14.125,11.33618,14.125,11.25Q14.125,11.16382,14.1082,11.079296Q14.0914,10.994772,14.0584,10.915152Q14.0254,10.835532,13.9775,10.763876Q13.9297,10.69222,13.8687,10.631282Q13.8078,10.570343,13.7361,10.522464Q13.6645,10.474585,13.5848,10.441606Q13.5052,10.408626,13.4207,10.391812999999999Q13.3362,10.375,13.25,10.375L2.75,10.375Q2.66382,10.375,2.579296,10.391812999999999Q2.494772,10.408626,2.415152,10.441606Q2.335532,10.474585,2.2638759999999998,10.522464Q2.19222,10.570343,2.131282,10.631282Q2.0703430000000003,10.69222,2.0224640000000003,10.763876Q1.974585,10.835532,1.9416060000000002,10.915152Q1.908626,10.994772,1.891813,11.079296Q1.875,11.16382,1.875,11.25Q1.875,11.33618,1.891813,11.420704Q1.908626,11.505228,1.9416060000000002,11.584848Q1.974585,11.664468,2.0224640000000003,11.736124Q2.0703430000000003,11.80778,2.131282,11.868718Q2.19222,11.929657,2.2638759999999998,11.977536Q2.335532,12.025415,2.415152,12.058394Q2.494772,12.091374,2.579296,12.108187000000001Q2.66382,12.125,2.75,12.125Z" fill-rule="evenodd" fill="#121212" fill-opacity="1"/></g></g></g></svg>