<svg xmlns="http://www.w3.org/2000/svg" xmlns:xlink="http://www.w3.org/1999/xlink" fill="none" version="1.1" width="24" height="24" viewBox="0 0 24 24"><g><g><ellipse cx="12" cy="12" rx="10" ry="10" fill="#F1A63A" fill-opacity="1"/></g><g><g><path d="M7.968740165733338,8.69435375L16.031261165733337,8.69435375C16.236001165733338,8.69435375,16.364101165733338,8.47287375,16.262001165733338,8.29540375L15.850671165733337,7.58043175Q15.514501165733337,6.99609375,14.827281165733337,6.99609375L9.172721165733337,6.99609375Q8.485501165733337,6.99609375,8.149328165733337,7.58043175L7.737997465733337,8.29540375C7.635898765733337,8.47287375,7.763998365733338,8.69435375,7.968740165733338,8.69435375Z" fill="#FFFFFF" fill-opacity="1"/></g><g><path d="M7.28802490234375,10.168892530303955L7.28802490234375,14.897236530303955Q7.28802490234375,15.594036530303956,7.78073890234375,16.086746530303955Q8.27345290234375,16.579466530303954,8.97025490234375,16.579466530303954L15.02976490234375,16.579466530303954Q15.72656490234375,16.579466530303954,16.21928490234375,16.086746530303955Q16.71199490234375,15.594036530303956,16.71199490234375,14.897236530303955L16.71199490234375,10.168892530303955C16.71199490234375,9.874852530303954,16.47363490234375,9.636486530303955,16.17959490234375,9.636486530303955L7.82043090234375,9.636486530303955C7.52639090234375,9.636486530303955,7.28802490234375,9.874852530303954,7.28802490234375,10.168892530303955ZM13.41154490234375,12.843266530303955L14.96080490234375,12.843266530303955C15.22094490234375,12.843266530303955,15.43182490234375,13.054156530303956,15.43182490234375,13.314296530303956C15.43182490234375,13.574436530303956,15.22094490234375,13.785316530303955,14.96080490234375,13.785316530303955L13.41154490234375,13.785316530303955C13.15140490234375,13.785316530303955,12.94051490234375,13.574436530303956,12.94051490234375,13.314296530303956C12.94051490234375,13.054156530303956,13.15140490234375,12.843266530303955,13.41154490234375,12.843266530303955ZM14.96080490234375,14.421646530303956L13.41154490234375,14.421646530303956C13.15140490234375,14.421646530303956,12.94051490234375,14.632526530303956,12.94051490234375,14.892666530303956C12.94051490234375,15.152806530303955,13.15140490234375,15.363686530303955,13.41154490234375,15.363686530303955L14.96080490234375,15.363686530303955C15.22094490234375,15.363686530303955,15.43182490234375,15.152806530303955,15.43182490234375,14.892666530303956C15.43182490234375,14.632526530303956,15.22094490234375,14.421646530303956,14.96080490234375,14.421646530303956Z" fill-rule="evenodd" fill="#FFFFFF" fill-opacity="1"/></g></g></g></svg>