<svg xmlns="http://www.w3.org/2000/svg" xmlns:xlink="http://www.w3.org/1999/xlink" fill="none" version="1.1" width="24" height="24" viewBox="0 0 24 24"><g><g><ellipse cx="12" cy="12" rx="10" ry="10" fill="#F1A63A" fill-opacity="1"/></g><g><g></g><g><g><g><path d="M6.56292724609375,15.96466151664734L6.56292724609375,10.963931516647339C6.56292724609375,10.395630516647339,7.02362624609375,9.934931516647339,7.59192724609375,9.934931516647339L8.10077724609375,9.934931516647339C8.66907724609375,9.934931516647339,9.12977724609375,10.395630516647339,9.12977724609375,10.963931516647339L9.12977724609375,15.96466151664734C9.12977724609375,16.53296151664734,8.66907724609375,16.99366151664734,8.10077724609375,16.99366151664734L7.59192724609375,16.99366151664734C7.02362624609375,16.99366151664734,6.56292724609375,16.53296151664734,6.56292724609375,15.96466151664734Z" fill="#FFFFFF" fill-opacity="1"/></g><g><path d="M9.87591552734375,10.898301204147339L9.87591552734375,16.055001204147338C9.87591552734375,16.37342120414734,10.09502052734375,16.649981204147338,10.40499452734375,16.722821204147337L11.17009552734375,16.90256120414734C11.42725552734375,16.963061204147337,11.69053552734375,16.99356120414734,11.95469552734375,16.99356120414734L14.69545552734375,16.99356120414734C15.32199552734375,16.99356120414734,15.868945527343751,16.569101204147337,16.02449552734375,15.962171204147339L17.22189552734375,11.29023120414734C17.33311552734375,10.85629120414734,17.00534552734375,10.433921204147339,16.55737552734375,10.433921204147339L13.74167552734375,10.433921204147339C13.49989552734375,10.433921204147339,13.33400552734375,10.19048120414734,13.422435527343751,9.965461204147338L13.67610552734375,9.319991204147339C14.05224552734375,8.362851204147338,13.57523552734375,7.282696204147339,12.61444552734375,6.915972704147339C12.328965527343751,6.807007504147339,12.00673552734375,6.923639604147339,11.85714552734375,7.190086204147339L9.96374492734375,10.56246120414734C9.90616032734375,10.66503120414734,9.87591552734375,10.780681204147339,9.87591552734375,10.898301204147339Z" fill="#FFFFFF" fill-opacity="1"/></g></g></g></g></g></svg>