<svg xmlns="http://www.w3.org/2000/svg" xmlns:xlink="http://www.w3.org/1999/xlink" fill="none" version="1.1" width="14" height="14" viewBox="0 0 14 14"><g><g><g><g><path d="M7.0702440625000005,7.45510734375C7.0702440625000005,7.45510734375,7.0083740625,7.88821734375,7.0083740625,7.88821734375C7.0337940625,7.89184734375,7.0594940625,7.89322734375,7.0851540625,7.89235734375C7.0851540625,7.89235734375,7.0702440625000005,7.45510734375,7.0702440625000005,7.45510734375C7.0702440625000005,7.45510734375,7.0702440625000005,7.45510734375,7.0702440625000005,7.45510734375ZM6.9302440625,7.45510734375C6.9302440625,7.45510734375,6.9153440625,7.89235734375,6.9153440625,7.89235734375C6.9384440625,7.89313734375,6.9615740625,7.89209734375,6.984514062500001,7.88923734375C6.984514062500001,7.88923734375,6.9302440625,7.45510734375,6.9302440625,7.45510734375C6.9302440625,7.45510734375,6.9302440625,7.45510734375,6.9302440625,7.45510734375ZM8.9135840625,5.54760734375C8.9135840625,5.54760734375,9.3510840625,5.5500873437500005,9.3510840625,5.5500873437500005C9.3510840625,5.5500873437500005,9.3510840625,5.54760734375,9.3510840625,5.54760734375C9.3510840625,5.54760734375,8.9135840625,5.54760734375,8.9135840625,5.54760734375C8.9135840625,5.54760734375,8.9135840625,5.54760734375,8.9135840625,5.54760734375ZM7.1321240625,7.0220073437499995C7.047844062499999,7.0099673437500005,6.9559440625,7.010997343750001,6.875984062500001,7.02098734375C6.875984062500001,7.02098734375,6.984514062500001,7.88923734375,6.984514062500001,7.88923734375C6.9886540625,7.88871734375,6.9952640625,7.88823734375,7.0024340625,7.88823734375C7.0057440625,7.88823734375,7.0082540625,7.88833734375,7.0097640625,7.88843734375C7.0113840624999995,7.88853734375,7.010884062500001,7.88857734375,7.0083740625,7.88821734375C7.0083740625,7.88821734375,7.1321240625,7.0220073437499995,7.1321240625,7.0220073437499995C7.1321240625,7.0220073437499995,7.1321240625,7.0220073437499995,7.1321240625,7.0220073437499995ZM6.9451540625,7.01786734375C6.1534740625,6.99087734375,5.5244140625,6.34359734375,5.5244140625,5.54760734375C5.5244140625,5.54760734375,4.6494140625,5.54760734375,4.6494140625,5.54760734375C4.6494140625,6.81662734375,5.6536840625,7.84934734375,6.9153440625,7.89235734375C6.9153440625,7.89235734375,6.9451540625,7.01786734375,6.9451540625,7.01786734375C6.9451540625,7.01786734375,6.9451540625,7.01786734375,6.9451540625,7.01786734375ZM5.5244140625,5.54760734375C5.5244140625,4.73252734375,6.1810740625000005,4.07177734375,7.0002440625,4.07177734375C7.0002440625,4.07177734375,7.0002440625,3.19677734375,7.0002440625,3.19677734375C5.6960840625,3.19677734375,4.6494140625,4.25102734375,4.6494140625,5.54760734375C4.6494140625,5.54760734375,5.5244140625,5.54760734375,5.5244140625,5.54760734375C5.5244140625,5.54760734375,5.5244140625,5.54760734375,5.5244140625,5.54760734375ZM7.0002440625,4.07177734375C7.814454062499999,4.07177734375,8.4760840625,4.73339734375,8.4760840625,5.54760734375C8.4760840625,5.54760734375,9.3510840625,5.54760734375,9.3510840625,5.54760734375C9.3510840625,4.25015734375,8.2977040625,3.19677734375,7.0002440625,3.19677734375C7.0002440625,3.19677734375,7.0002440625,4.07177734375,7.0002440625,4.07177734375C7.0002440625,4.07177734375,7.0002440625,4.07177734375,7.0002440625,4.07177734375ZM8.4760840625,5.54513734375C8.4715640625,6.34525734375,7.8448040625,6.99095734375,7.0553440625,7.01786734375C7.0553440625,7.01786734375,7.0851540625,7.89235734375,7.0851540625,7.89235734375C8.3490140625,7.84926734375,9.3439340625,6.814957343750001,9.3510740625,5.5500873437500005C9.3510740625,5.5500873437500005,8.4760840625,5.54513734375,8.4760840625,5.54513734375C8.4760840625,5.54513734375,8.4760840625,5.54513734375,8.4760840625,5.54513734375Z" fill="#8A8A8E" fill-opacity="1"/></g><g><path d="M10.93121109375,11.30515625C10.93121109375,11.30515625,11.22667109375,11.627806249999999,11.22667109375,11.627806249999999C11.32916109375,11.53397625,11.38096109375,11.397046249999999,11.36626109375,11.25887625C11.36626109375,11.25887625,10.93121109375,11.30515625,10.93121109375,11.30515625C10.93121109375,11.30515625,10.93121109375,11.30515625,10.93121109375,11.30515625ZM3.06787509375,11.30515625C3.06787509375,11.30515625,2.63282927375,11.25887625,2.63282927375,11.25887625C2.61813099375,11.397046249999999,2.66993689375,11.53397625,2.77240909375,11.627806249999999C2.77240909375,11.627806249999999,3.06787509375,11.30515625,3.06787509375,11.30515625C3.06787509375,11.30515625,3.06787509375,11.30515625,3.06787509375,11.30515625ZM4.10037109375,9.80015625C4.10037109375,9.80015625,3.8583010937499997,9.43571925,3.8583010937499997,9.43571925C3.8583010937499997,9.43571925,3.85613109375,9.43718125,3.85613109375,9.43718125C3.85613109375,9.43718125,4.10037109375,9.80015625,4.10037109375,9.80015625C4.10037109375,9.80015625,4.10037109375,9.80015625,4.10037109375,9.80015625ZM9.89871109375,9.80015625C9.89871109375,9.80015625,10.14295109375,9.43718025,10.14295109375,9.43718025C10.14295109375,9.43718025,10.14202109375,9.43654625,10.14202109375,9.43654625C10.14202109375,9.43654625,9.89871109375,9.80015625,9.89871109375,9.80015625C9.89871109375,9.80015625,9.89871109375,9.80015625,9.89871109375,9.80015625ZM10.63575109375,10.98250625C9.674821093750001,11.86242625,8.40252109375,12.39598625,6.99954109375,12.39598625C6.99954109375,12.39598625,6.99954109375,13.27098625,6.99954109375,13.27098625C8.62989109375,13.27098625,10.110921093750001,12.64955625,11.22667109375,11.627806249999999C11.22667109375,11.627806249999999,10.63575109375,10.98250625,10.63575109375,10.98250625C10.63575109375,10.98250625,10.63575109375,10.98250625,10.63575109375,10.98250625ZM6.99954109375,12.39598625C5.59656109375,12.39598625,4.32423109375,11.86242625,3.3633400937499998,10.98250625C3.3633400937499998,10.98250625,2.77240909375,11.627806249999999,2.77240909375,11.627806249999999C3.88818109375,12.64955625,5.3691910937500005,13.27098625,6.99954109375,13.27098625C6.99954109375,13.27098625,6.99954109375,12.39598625,6.99954109375,12.39598625C6.99954109375,12.39598625,6.99954109375,12.39598625,6.99954109375,12.39598625ZM3.5029200937500002,11.351436249999999C3.54417409375,10.96364625,3.79784109375,10.53105625,4.34462109375,10.16312625C4.34462109375,10.16312625,3.85613109375,9.43718125,3.85613109375,9.43718125C3.15457509375,9.90925625,2.70824139375,10.55000625,2.63282927375,11.25887625C2.63282927375,11.25887625,3.5029200937500002,11.351436249999999,3.5029200937500002,11.351436249999999C3.5029200937500002,11.351436249999999,3.5029200937500002,11.351436249999999,3.5029200937500002,11.351436249999999ZM4.34244109375,10.16458625C5.054951093750001,9.69131625,6.01872109375,9.44140625,7.00392109375,9.44140625C7.98925109375,9.44140625,8.94939109375,9.69136625,9.655401093750001,10.16376625C9.655401093750001,10.16376625,10.14202109375,9.43654625,10.14202109375,9.43654625C9.26136109375,8.84727925,8.12150109375,8.56640625,7.00392109375,8.56640625C5.88619109375,8.56640625,4.74413109375,8.84732925,3.8583110937500003,9.43572625C3.8583110937500003,9.43572625,4.34244109375,10.16458625,4.34244109375,10.16458625C4.34244109375,10.16458625,4.34244109375,10.16458625,4.34244109375,10.16458625ZM9.65447109375,10.16312625C10.20122109375,10.53105625,10.454911093749999,10.96364625,10.49616109375,11.351436249999999C10.49616109375,11.351436249999999,11.36626109375,11.25887625,11.36626109375,11.25887625C11.29083109375,10.55000625,10.84452109375,9.90925625,10.14295109375,9.43718125C10.14295109375,9.43718125,9.65447109375,10.16312625,9.65447109375,10.16312625C9.65447109375,10.16312625,9.65447109375,10.16312625,9.65447109375,10.16312625Z" fill="#8A8A8E" fill-opacity="1"/></g><g><path d="M12.3961921875,6.99983390625C12.3961921875,9.97985390625,9.9803421875,12.39570390625,7.0003221875,12.39570390625C7.0003221875,12.39570390625,7.0003221875,13.27070390625,7.0003221875,13.27070390625C10.4636321875,13.27070390625,13.2711921875,10.46314390625,13.2711921875,6.99983390625C13.2711921875,6.99983390625,12.3961921875,6.99983390625,12.3961921875,6.99983390625C12.3961921875,6.99983390625,12.3961921875,6.99983390625,12.3961921875,6.99983390625ZM7.0003221875,12.39570390625C4.0202921875,12.39570390625,1.6044921875,9.97985390625,1.6044921875,6.99983390625C1.6044921875,6.99983390625,0.7294921875,6.99983390625,0.7294921875,6.99983390625C0.7294921875,10.46314390625,3.5370421875,13.27070390625,7.0003221875,13.27070390625C7.0003221875,13.27070390625,7.0003221875,12.39570390625,7.0003221875,12.39570390625C7.0003221875,12.39570390625,7.0003221875,12.39570390625,7.0003221875,12.39570390625ZM1.6044921875,6.99983390625C1.6044921875,4.01980390625,4.0202921875,1.60400390625,7.0003221875,1.60400390625C7.0003221875,1.60400390625,7.0003221875,0.72900390625,7.0003221875,0.72900390625C3.5370421875,0.72900390625,0.7294921875,3.53655390625,0.7294921875,6.99983390625C0.7294921875,6.99983390625,1.6044921875,6.99983390625,1.6044921875,6.99983390625C1.6044921875,6.99983390625,1.6044921875,6.99983390625,1.6044921875,6.99983390625ZM7.0003221875,1.60400390625C9.9803421875,1.60400390625,12.3961921875,4.01980390625,12.3961921875,6.99983390625C12.3961921875,6.99983390625,13.2711921875,6.99983390625,13.2711921875,6.99983390625C13.2711921875,3.53655390625,10.4636321875,0.72900390625,7.0003221875,0.72900390625C7.0003221875,0.72900390625,7.0003221875,1.60400390625,7.0003221875,1.60400390625C7.0003221875,1.60400390625,7.0003221875,1.60400390625,7.0003221875,1.60400390625Z" fill="#8A8A8E" fill-opacity="1"/></g><g transform="matrix(-1,0,0,-1,28,28)" style="opacity:0;"></g></g></g></g></svg>