<svg xmlns="http://www.w3.org/2000/svg" xmlns:xlink="http://www.w3.org/1999/xlink" fill="none" version="1.1" width="14" height="14" viewBox="0 0 14 14"><g><g><g><g><g><path d="M9.794783260192872,5.462173140258789C9.794783260192872,5.462173140258789,9.403943260192872,5.337203140258789,9.403943260192872,5.337203140258789C9.403943260192872,5.337203140258789,9.402903260192872,5.340553140258789,9.402903260192872,5.340553140258789C9.402903260192872,5.340553140258789,9.794783260192872,5.462173140258789,9.794783260192872,5.462173140258789C9.794783260192872,5.462173140258789,9.794783260192872,5.462173140258789,9.794783260192872,5.462173140258789ZM8.514573260192872,9.58729314025879C8.514573260192872,9.58729314025879,8.90617326019287,9.709793140258789,8.90617326019287,9.709793140258789C8.90617326019287,9.709793140258789,8.90645326019287,9.70891314025879,8.90645326019287,9.70891314025879C8.90645326019287,9.70891314025879,8.514573260192872,9.58729314025879,8.514573260192872,9.58729314025879C8.514573260192872,9.58729314025879,8.514573260192872,9.58729314025879,8.514573260192872,9.58729314025879ZM6.512203260192871,9.60918314025879C6.512203260192871,9.60918314025879,6.9016932601928715,9.480073140258789,6.9016932601928715,9.480073140258789C6.9016932601928715,9.480073140258789,6.900893260192872,9.477733140258788,6.900893260192872,9.477733140258788C6.900893260192872,9.477733140258788,6.512203260192871,9.60918314025879,6.512203260192871,9.60918314025879C6.512203260192871,9.60918314025879,6.512203260192871,9.60918314025879,6.512203260192871,9.60918314025879ZM6.129233260192871,8.47667314025879C6.129233260192871,8.47667314025879,5.739963260192871,8.60643314025879,5.739963260192871,8.60643314025879C5.739963260192871,8.60643314025879,5.740533260192871,8.608113140258789,5.740533260192871,8.608113140258789C5.740533260192871,8.608113140258789,6.129233260192871,8.47667314025879,6.129233260192871,8.47667314025879C6.129233260192871,8.47667314025879,6.129233260192871,8.47667314025879,6.129233260192871,8.47667314025879ZM5.467253260192871,7.814693140258789C5.467253260192871,7.814693140258789,5.336343260192871,8.203653140258789,5.336343260192871,8.203653140258789C5.336343260192871,8.203653140258789,5.343693260192872,8.205963140258788,5.343693260192872,8.205963140258788C5.343693260192872,8.205963140258788,5.467253260192871,7.814693140258789,5.467253260192871,7.814693140258789C5.467253260192871,7.814693140258789,5.467253260192871,7.814693140258789,5.467253260192871,7.814693140258789ZM4.3292932601928715,7.43171314025879C4.3292932601928715,7.43171314025879,4.460173260192871,7.042823140258789,4.460173260192871,7.042823140258789C4.460173260192871,7.042823140258789,4.459043260192871,7.0424531402587895,4.459043260192871,7.0424531402587895C4.459043260192871,7.0424531402587895,4.3292932601928715,7.43171314025879,4.3292932601928715,7.43171314025879C4.3292932601928715,7.43171314025879,4.3292932601928715,7.43171314025879,4.3292932601928715,7.43171314025879ZM4.356643260192871,5.429353140258789C4.356643260192871,5.429353140258789,4.475163260192871,5.8222031402587895,4.475163260192871,5.8222031402587895C4.475163260192871,5.8222031402587895,4.478733260192871,5.821083140258789,4.478733260192871,5.821083140258789C4.478733260192871,5.821083140258789,4.356643260192871,5.429353140258789,4.356643260192871,5.429353140258789C4.356643260192871,5.429353140258789,4.356643260192871,5.429353140258789,4.356643260192871,5.429353140258789ZM8.481743260192872,4.143665140258789C8.481743260192872,4.143665140258789,8.362383260192871,3.751078340258789,8.362383260192871,3.751078340258789C8.362383260192871,3.751078340258789,8.359653260192871,3.7519279402587893,8.359653260192871,3.7519279402587893C8.359653260192871,3.7519279402587893,8.481743260192872,4.143665140258789,8.481743260192872,4.143665140258789C8.481743260192872,4.143665140258789,8.481743260192872,4.143665140258789,8.481743260192872,4.143665140258789ZM9.402903260192872,5.340553140258789C9.402903260192872,5.340553140258789,8.122683260192872,9.465663140258789,8.122683260192872,9.465663140258789C8.122683260192872,9.465663140258789,8.90645326019287,9.70891314025879,8.90645326019287,9.70891314025879C8.90645326019287,9.70891314025879,10.18667326019287,5.5837931402587895,10.18667326019287,5.5837931402587895C10.18667326019287,5.5837931402587895,9.402903260192872,5.340553140258789,9.402903260192872,5.340553140258789C9.402903260192872,5.340553140258789,9.402903260192872,5.340553140258789,9.402903260192872,5.340553140258789ZM8.122963260192872,9.464763140258789C7.934033260192871,10.068683140258788,7.097443260192871,10.070653140258788,6.901683260192871,9.480073140258789C6.901683260192871,9.480073140258789,6.1227232601928705,9.73829314025879,6.1227232601928705,9.73829314025879C6.572533260192872,11.09537314025879,8.482353260192872,11.06451314025879,8.90617326019287,9.709793140258789C8.90617326019287,9.709793140258789,8.122963260192872,9.464763140258789,8.122963260192872,9.464763140258789C8.122963260192872,9.464763140258789,8.122963260192872,9.464763140258789,8.122963260192872,9.464763140258789ZM6.900893260192872,9.477733140258788C6.900893260192872,9.477733140258788,6.517933260192871,8.345233140258788,6.517933260192871,8.345233140258788C6.517933260192871,8.345233140258788,5.740533260192871,8.608113140258789,5.740533260192871,8.608113140258789C5.740533260192871,8.608113140258789,6.123503260192871,9.740593140258788,6.123503260192871,9.740593140258788C6.123503260192871,9.740593140258788,6.900893260192872,9.477733140258788,6.900893260192872,9.477733140258788C6.900893260192872,9.477733140258788,6.900893260192872,9.477733140258788,6.900893260192872,9.477733140258788ZM6.518503260192871,8.346923140258788C6.375133260192872,7.916813140258789,6.034333260192871,7.563483140258789,5.590813260192871,7.4234131402587895C5.590813260192871,7.4234131402587895,5.343693260192872,8.205963140258788,5.343693260192872,8.205963140258788C5.523853260192871,8.262863140258789,5.675443260192871,8.41284314025879,5.739973260192871,8.60643314025879C5.739973260192871,8.60643314025879,6.518503260192871,8.346923140258788,6.518503260192871,8.346923140258788C6.518503260192871,8.346923140258788,6.518503260192871,8.346923140258788,6.518503260192871,8.346923140258788ZM5.598123260192871,7.42580314025879C5.598123260192871,7.42580314025879,4.460173260192871,7.042823140258789,4.460173260192871,7.042823140258789C4.460173260192871,7.042823140258789,4.198410260192871,7.820613140258789,4.198410260192871,7.820613140258789C4.198410260192871,7.820613140258789,5.336373260192872,8.20358314025879,5.336373260192872,8.20358314025879C5.336373260192872,8.20358314025879,5.598123260192871,7.42580314025879,5.598123260192871,7.42580314025879C5.598123260192871,7.42580314025879,5.598123260192871,7.42580314025879,5.598123260192871,7.42580314025879ZM4.459043260192871,7.0424531402587895C3.867979260192871,6.845433140258789,3.8816442601928713,6.001233140258789,4.475153260192871,5.8221831402587885C4.475153260192871,5.8221831402587885,4.238133260192871,5.036513140258789,4.238133260192871,5.036513140258789C2.873045260192871,5.448333140258789,2.853886260192871,7.372433140258789,4.199537260192871,7.8209831402587895C4.199537260192871,7.8209831402587895,4.459043260192871,7.0424531402587895,4.459043260192871,7.0424531402587895C4.459043260192871,7.0424531402587895,4.459043260192871,7.0424531402587895,4.459043260192871,7.0424531402587895ZM4.478733260192871,5.821083140258789C4.478733260192871,5.821083140258789,8.603833260192872,4.535403140258789,8.603833260192872,4.535403140258789C8.603833260192872,4.535403140258789,8.359653260192871,3.7519279402587893,8.359653260192871,3.7519279402587893C8.359653260192871,3.7519279402587893,4.234553260192871,5.037613140258789,4.234553260192871,5.037613140258789C4.234553260192871,5.037613140258789,4.478733260192871,5.821083140258789,4.478733260192871,5.821083140258789C4.478733260192871,5.821083140258789,4.478733260192871,5.821083140258789,4.478733260192871,5.821083140258789ZM8.601113260192871,4.536242140258789C9.10085326019287,4.384288140258789,9.558223260192872,4.854603140258789,9.403943260192872,5.337213140258789C9.403943260192872,5.337213140258789,10.185583260192871,5.587133140258789,10.185583260192871,5.587133140258789C10.545563260192871,4.461270140258789,9.482013260192872,3.410653140258789,8.362383260192871,3.751087640258789C8.362383260192871,3.751087640258789,8.601113260192871,4.536242140258789,8.601113260192871,4.536242140258789C8.601113260192871,4.536242140258789,8.601113260192871,4.536242140258789,8.601113260192871,4.536242140258789Z" fill="#8A8A8E" fill-opacity="1"/></g></g><g style="opacity:0;"></g><g><path d="M12.3961921875,6.99983390625C12.3961921875,9.97822390625,9.9787121875,12.39570390625,7.0003221875,12.39570390625C7.0003221875,12.39570390625,7.0003221875,13.27070390625,7.0003221875,13.27070390625C10.4619421875,13.27070390625,13.2711921875,10.46145390625,13.2711921875,6.99983390625C13.2711921875,6.99983390625,12.3961921875,6.99983390625,12.3961921875,6.99983390625C12.3961921875,6.99983390625,12.3961921875,6.99983390625,12.3961921875,6.99983390625ZM7.0003221875,12.39570390625C4.0219521875,12.39570390625,1.6044921875,9.97822390625,1.6044921875,6.99983390625C1.6044921875,6.99983390625,0.7294921875,6.99983390625,0.7294921875,6.99983390625C0.7294921875,10.46145390625,3.5387021875,13.27070390625,7.0003221875,13.27070390625C7.0003221875,13.27070390625,7.0003221875,12.39570390625,7.0003221875,12.39570390625C7.0003221875,12.39570390625,7.0003221875,12.39570390625,7.0003221875,12.39570390625ZM1.6044921875,6.99983390625C1.6044921875,4.02146390625,4.0219521875,1.60400390625,7.0003221875,1.60400390625C7.0003221875,1.60400390625,7.0003221875,0.72900390625,7.0003221875,0.72900390625C3.5387021875,0.72900390625,0.7294921875,3.53821390625,0.7294921875,6.99983390625C0.7294921875,6.99983390625,1.6044921875,6.99983390625,1.6044921875,6.99983390625C1.6044921875,6.99983390625,1.6044921875,6.99983390625,1.6044921875,6.99983390625ZM7.0003221875,1.60400390625C9.9787121875,1.60400390625,12.3961921875,4.02146390625,12.3961921875,6.99983390625C12.3961921875,6.99983390625,13.2711921875,6.99983390625,13.2711921875,6.99983390625C13.2711921875,3.53821390625,10.4619421875,0.72900390625,7.0003221875,0.72900390625C7.0003221875,0.72900390625,7.0003221875,1.60400390625,7.0003221875,1.60400390625C7.0003221875,1.60400390625,7.0003221875,1.60400390625,7.0003221875,1.60400390625Z" fill="#8A8A8E" fill-opacity="1"/></g></g></g></g></svg>