<svg xmlns="http://www.w3.org/2000/svg" xmlns:xlink="http://www.w3.org/1999/xlink" fill="none" version="1.1" width="12" height="12" viewBox="0 0 12 12"><g><g><ellipse cx="6" cy="6" rx="5.5" ry="5.5" fill-opacity="0" stroke-opacity="1" stroke="#BABAC4" fill="none" stroke-width="1"/></g><g><g><path d="M5.5,6.5L5.5,8.5Q5.5,8.549240000000001,5.50961,8.59754Q5.51921,8.64584,5.53806,8.69134Q5.55691,8.73684,5.5842600000000004,8.77778Q5.61162,8.81873,5.64645,8.85355Q5.68127,8.88837,5.7222100000000005,8.91573Q5.76316,8.94309,5.80866,8.96194Q5.854150000000001,8.98078,5.90245,8.99039Q5.95075,9,6,9Q6.04925,9,6.09754,8.99039Q6.14584,8.98078,6.19134,8.96194Q6.23684,8.94309,6.27778,8.91573Q6.31873,8.88837,6.35355,8.85355Q6.38837,8.81873,6.41573,8.77778Q6.44309,8.73684,6.46194,8.69134Q6.48078,8.64584,6.49039,8.59754Q6.5,8.549240000000001,6.5,8.5L6.5,6.5L8.5,6.5Q8.549240000000001,6.5,8.59754,6.49039Q8.64584,6.48078,8.69134,6.46194Q8.73684,6.44309,8.77778,6.41573Q8.81873,6.38837,8.85355,6.35355Q8.88837,6.31873,8.91573,6.27778Q8.94309,6.23684,8.96194,6.19134Q8.98078,6.14584,8.99039,6.09754Q9,6.04925,9,6Q9,5.95075,8.99039,5.90245Q8.98078,5.854150000000001,8.96194,5.80866Q8.94309,5.76316,8.91573,5.7222100000000005Q8.88837,5.68127,8.85355,5.64645Q8.81873,5.61162,8.77778,5.5842600000000004Q8.73684,5.55691,8.69134,5.53806Q8.64584,5.51921,8.59754,5.50961Q8.549240000000001,5.5,8.5,5.5L6.5,5.5L6.5,3.5Q6.5,3.450754,6.49039,3.402455Q6.48078,3.354155,6.46194,3.308658Q6.44309,3.263161,6.41573,3.222215Q6.38837,3.181269,6.35355,3.146447Q6.31873,3.111625,6.27778,3.0842652Q6.23684,3.0569057,6.19134,3.0380602Q6.14584,3.0192147,6.09754,3.00960736Q6.04925,3,6,3Q5.95075,3,5.90245,3.00960736Q5.854150000000001,3.0192147,5.80866,3.0380602Q5.76316,3.0569057,5.7222100000000005,3.0842652Q5.68127,3.111625,5.64645,3.146447Q5.61162,3.181269,5.5842600000000004,3.222215Q5.55691,3.263161,5.53806,3.308658Q5.51921,3.354155,5.50961,3.402455Q5.5,3.450754,5.5,3.5L5.5,5.5L3.5,5.5Q3.450754,5.5,3.402455,5.50961Q3.354155,5.51921,3.308658,5.53806Q3.263161,5.55691,3.222215,5.5842600000000004Q3.181269,5.61162,3.146447,5.64645Q3.111625,5.68127,3.0842652,5.7222100000000005Q3.0569057,5.76316,3.0380602,5.80866Q3.0192147,5.854150000000001,3.00960736,5.90245Q3,5.95075,3,6Q3,6.04925,3.00960736,6.09754Q3.0192147,6.14584,3.0380602,6.19134Q3.0569057,6.23684,3.0842652,6.27778Q3.111625,6.31873,3.146447,6.35355Q3.181269,6.38837,3.222215,6.41573Q3.263161,6.44309,3.308658,6.46194Q3.354155,6.48078,3.402455,6.49039Q3.450754,6.5,3.5,6.5L5.5,6.5Z" fill-rule="evenodd" fill="#BABAC4" fill-opacity="1"/></g></g></g></svg>