<svg xmlns="http://www.w3.org/2000/svg" xmlns:xlink="http://www.w3.org/1999/xlink" fill="none" version="1.1" width="24" height="24" viewBox="0 0 24 24"><defs><clipPath id="master_svg0_55659_121111"><rect x="0" y="0" width="24" height="24" rx="0"/></clipPath></defs><g clip-path="url(#master_svg0_55659_121111)"><g><g><path d="M3,11.5L21,11.5Q21.0985,11.5,21.1951,11.519214999999999Q21.2917,11.53843,21.3827,11.576121Q21.4737,11.613812,21.5556,11.66853Q21.6375,11.723249,21.7071,11.792893Q21.7767,11.862537,21.8315,11.94443Q21.8862,12.026322,21.9239,12.117317Q21.9616,12.208311,21.9808,12.30491Q22,12.4015086,22,12.5Q22,12.5984914,21.9808,12.69509Q21.9616,12.791689,21.9239,12.882683Q21.8862,12.973678,21.8315,13.05557Q21.7767,13.137463,21.7071,13.207107Q21.6375,13.276751,21.5556,13.33147Q21.4737,13.386188,21.3827,13.423879Q21.2917,13.46157,21.1951,13.480785000000001Q21.0985,13.5,21,13.5L3,13.5Q2.9015086,13.5,2.80491,13.480785000000001Q2.708311,13.46157,2.617317,13.423879Q2.526322,13.386188,2.44443,13.33147Q2.362537,13.276751,2.292893,13.207107Q2.223249,13.137463,2.16853,13.05557Q2.1138120000000002,12.973678,2.076121,12.882683Q2.03843,12.791689,2.019215,12.69509Q2,12.5984914,2,12.5Q2,12.4015086,2.019215,12.30491Q2.03843,12.208311,2.076121,12.117317Q2.1138120000000002,12.026322,2.16853,11.94443Q2.223249,11.862537,2.292893,11.792893Q2.362537,11.723249,2.44443,11.66853Q2.526322,11.613812,2.617317,11.576121Q2.708311,11.53843,2.80491,11.519214999999999Q2.9015086,11.5,3,11.5Z" fill-rule="evenodd" fill="#BABAC4" fill-opacity="1"/></g><g transform="matrix(0,1,-1,0,15.5009765625,-8.5009765625)"><path d="M12.0009765625,2.5L30.0009765625,2.5Q30.0994765625,2.5,30.1960765625,2.519215Q30.2926765625,2.53843,30.3836765625,2.576121Q30.4746765625,2.6138120000000002,30.5565765625,2.66853Q30.6384765625,2.723249,30.7080765625,2.792893Q30.7776765625,2.862537,30.8324765625,2.94443Q30.8871765625,3.026322,30.9248765625,3.117317Q30.9625765625,3.208311,30.9817765625,3.30491Q31.0009765625,3.4015086,31.0009765625,3.5Q31.0009765625,3.5984914,30.9817765625,3.69509Q30.9625765625,3.791689,30.9248765625,3.882683Q30.8871765625,3.973678,30.8324765625,4.05557Q30.7776765625,4.137463,30.7080765625,4.207107Q30.6384765625,4.276751,30.5565765625,4.33147Q30.4746765625,4.386188,30.3836765625,4.423879Q30.2926765625,4.46157,30.1960765625,4.480785Q30.0994765625,4.5,30.0009765625,4.5L12.0009765625,4.5Q11.9024851625,4.5,11.8058865625,4.480785Q11.7092875625,4.46157,11.6182935625,4.423879Q11.5272985625,4.386188,11.4454065625,4.33147Q11.3635135625,4.276751,11.2938695625,4.207107Q11.2242255625,4.137463,11.1695065625,4.05557Q11.1147885625,3.973678,11.0770975625,3.882683Q11.0394065625,3.791689,11.020191562499999,3.69509Q11.0009765625,3.5984914,11.0009765625,3.5Q11.0009765625,3.4015086,11.020191562499999,3.30491Q11.0394065625,3.208311,11.0770975625,3.117317Q11.1147885625,3.026322,11.1695065625,2.94443Q11.2242255625,2.862537,11.2938695625,2.792893Q11.3635135625,2.723249,11.4454065625,2.66853Q11.5272985625,2.6138120000000002,11.6182935625,2.576121Q11.7092875625,2.53843,11.8058865625,2.519215Q11.9024851625,2.5,12.0009765625,2.5Z" fill-rule="evenodd" fill="#BABAC4" fill-opacity="1"/></g></g></g></svg>