<svg xmlns="http://www.w3.org/2000/svg" xmlns:xlink="http://www.w3.org/1999/xlink" fill="none" version="1.1" width="24" height="24" viewBox="0 0 24 24"><defs><clipPath id="master_svg0_58026_248747"><rect x="0" y="0" width="24" height="24" rx="0"/></clipPath></defs><g clip-path="url(#master_svg0_58026_248747)"><g><path d="M16.942465625,16.942709765625Q18.989765625,14.895429765625,18.989765625,12.000009765625Q18.989765625,9.104579765625001,16.942465625,7.057299765625Q14.895185625,5.010009765625,11.999765625,5.010009765625Q9.104345625,5.010009765625,7.057055625,7.057299765625Q5.009765625,9.104589765625,5.009764625,12.000009765625Q5.009764625,14.895429765625,7.057055625,16.942709765625Q9.104335625000001,18.990009765625,11.999765625,18.990009765625Q14.895185625,18.990009765625,16.942465625,16.942709765625ZM15.881865625,8.117959765625Q17.489765625,9.725909765625,17.489765625,12.000009765625Q17.489765625,14.274109765625,15.881865625,15.882109765625Q14.273865625,17.490009765625,11.999765625,17.490009765625Q9.725655625,17.490009765625,8.117715625,15.882109765625Q6.509764625,14.274109765625,6.509764625,12.000009765625Q6.509765625,9.725909765625,8.117715625,8.117959765625Q9.725665625,6.510009765625,11.999765625,6.510009765625Q14.273865625,6.510009765625,15.881865625,8.117959765625Z" fill-rule="evenodd" fill="#006DE2" fill-opacity="1"/></g><g><g><path d="M9.219078838825226,10.148360859375L9.219078838825226,10.716180859375001C9.219078838825226,10.992330859375,9.442936838825226,11.216180859375001,9.719078838825226,11.216180859375001L14.294388838825226,11.216180859375001C14.706408838825226,11.216180859375001,14.941598838825225,10.745800859375,14.694388838825226,10.416180859375L13.254718838825227,8.496630859375C12.966418838825225,8.112225859375,12.354718838825226,8.316120859375,12.354718838825226,8.796630859375L12.354718838825226,9.648360859375L9.719078838825226,9.648360859375C9.442936838825226,9.648360859375,9.219078838825226,9.872220859375,9.219078838825226,10.148360859375Z" fill="#006DE2" fill-opacity="1"/></g><g><path d="M9.705078125,12.784031867980957C9.293055125,12.784031867980957,9.057864125,13.254413867980958,9.305078125,13.584031867980958L10.744748125000001,15.503581867980957C11.033048125,15.887991867980958,11.644748125,15.684091867980957,11.644748125,15.203581867980958L11.644748125,14.351851867980956L14.280388125,14.351851867980956C14.556528125,14.351851867980956,14.780388125,14.127991867980956,14.780388125,13.851851867980956L14.780388125,13.284031867980957C14.780388125,13.007889867980957,14.556528125,12.784031867980957,14.280388125,12.784031867980957L9.705078125,12.784031867980957Z" fill="#006DE2" fill-opacity="1"/></g></g></g></svg>