<svg xmlns="http://www.w3.org/2000/svg" xmlns:xlink="http://www.w3.org/1999/xlink" fill="none" version="1.1" width="16" height="16" viewBox="0 0 16 16"><defs><clipPath id="master_svg0_57178_183649"><rect x="0" y="0" width="16" height="16" rx="0"/></clipPath></defs><g clip-path="url(#master_svg0_57178_183649)"><g><path d="M4.157314375,4.3021660937499995C2.4053843749999997,6.12051609375,2.168657375,8.91823609375,3.590154375,11.00510609375C5.011654375,13.09199609375,7.701784375,13.89599609375,10.035314375,12.93149609375C10.111984375,12.43149609375,9.943984375,11.95149609375,9.875314375,11.78349609375C9.721984375,11.41019609375,9.216654375000001,10.77216609375,8.373314375,9.88749609375C8.147984375,9.65082609375,8.162654374999999,9.46882609375,8.243314375,8.92949609375L8.251984375,8.86882609375C8.306654375,8.49949609375,8.398654375,8.280826093750001,9.641984375,8.08349609375C10.273984375,7.98349609375,10.439984375,8.235496093750001,10.669984375,8.585496093749999L10.747314375,8.70016609375C10.965984375,9.02016609375,11.127984375,9.09349609375,11.372684375,9.20416609375C11.482684375,9.254166093750001,11.619284375,9.31749609375,11.802684375,9.42082609375C12.237284375,9.66949609375,12.237284375,9.95016609375,12.237284375,10.56482609375L12.237284375,10.63482609375C12.237284375,10.89549609375,12.211984375,11.12482609375,12.171984375,11.32416609375C14.365984375,8.57056609375,13.337884375,4.48425609375,10.101984375,3.09682609375C9.733314375,3.34549609375,9.227314374999999,3.69816609375,9.050654375,3.94016609375C8.960654375,4.06349609375,8.832654375,4.694826093750001,8.417314375,4.74682609375C8.309314375,4.76016609375,8.163314374999999,4.75082609375,8.008654374999999,4.74082609375C7.593984375,4.71416609375,7.027314375,4.677496093749999,6.845984375,5.17016609375C6.730654375,5.48216609375,6.710654375,6.33016609375,7.083314375,6.77016609375C7.143314375,6.84016609375,7.154654375,6.97016609375,7.113984375,7.11616609375C7.060654375,7.30749609375,6.953314375,7.42416609375,6.919314375,7.44816609375C6.855314375,7.41082609375,6.727314375,7.26216609375,6.639984375,7.16149609375C6.431314375,6.91816609375,6.169984375,6.61482609375,5.832654375,6.52149609375C5.709984375,6.48749609375,5.575314375,6.45949609375,5.443984375,6.43149609375C5.077984375,6.35482609375,4.663984375,6.26749609375,4.5673143750000005,6.06216609375C4.496654375,5.91149609375,4.497314375,5.70416609375,4.497314375,5.48549609375C4.497314375,5.2074960937500006,4.497314375,4.8934960937500005,4.361314375,4.58882609375C4.314034375,4.480096093749999,4.244554375,4.38245609375,4.157314375,4.3021660937499995ZM8.000654375,14.66679609375C4.3186543749999995,14.66679609375,1.333984375,11.68219609375,1.333984375,8.00016609375C1.333984375,4.3181660937499995,4.3186543749999995,1.33349609375,8.000654375,1.33349609375C11.682684375,1.33349609375,14.667284375,4.3181660937499995,14.667284375,8.00016609375C14.667284375,11.68219609375,11.682684375,14.66679609375,8.000654375,14.66679609375Z" fill="#006DE2" fill-opacity="1"/></g></g></svg>