<svg xmlns="http://www.w3.org/2000/svg" xmlns:xlink="http://www.w3.org/1999/xlink" fill="none" version="1.1" width="16" height="16" viewBox="0 0 16 16"><defs><clipPath id="master_svg0_41277_145540"><rect x="0" y="0" width="16" height="16" rx="0"/></clipPath></defs><g clip-path="url(#master_svg0_41277_145540)"><g><g><path d="M4.1923828125,3.7923828125L7.4658228125,3.7923828125Q7.5249128125,3.7923828125,7.5828728125,3.7808538125Q7.6408328125,3.7693248125,7.6954328125,3.7467108125Q7.7500228125,3.7240958125,7.7991628125,3.6912648125Q7.8482928125,3.6584328125,7.8900828125,3.6166468125Q7.9318728125,3.5748608125,7.9647028125,3.5257248125Q7.9975328125,3.4765898125,8.0201428125,3.4219928125Q8.042762812500001,3.3673968125,8.0542928125,3.3094368125Q8.0658228125,3.2514776125,8.0658228125,3.1923828125Q8.0658228125,3.1332880125,8.0542928125,3.0753288125Q8.042762812500001,3.0173688125,8.0201428125,2.9627728125Q7.9975328125,2.9081758125,7.9647028125,2.8590408125Q7.9318728125,2.8099048125,7.8900828125,2.7681188125Q7.8482928125,2.7263328125,7.7991628125,2.6935008125Q7.7500228125,2.6606698125,7.6954328125,2.6380548125Q7.6408328125,2.6154408125,7.5828728125,2.6039118125Q7.5249128125,2.5923828125,7.4658228125,2.5923828125L4.1923828125,2.5923828125Q3.5296408125,2.5923828125,3.0610118125,3.0610118125Q2.5923828125,3.5296408125,2.5923828125,4.1923828125L2.5923828125,11.8076128125Q2.5923828125,13.4075828125,4.1923828125,13.4075828125L11.8076128125,13.4075828125Q13.4075828125,13.4075828125,13.4075828125,11.8076128125L13.4075828125,8.5341828125Q13.4075828125,8.4750828125,13.3960828125,8.4171228125Q13.3845828125,8.3591628125,13.3619828125,8.3045728125Q13.3392828125,8.249972812500001,13.3064828125,8.2008328125Q13.2736828125,8.1517028125,13.2318828125,8.1099128125Q13.1900928125,8.0681328125,13.1409628125,8.0352928125Q13.0918228125,8.0024628125,13.0372228125,7.9798528125Q12.9826328125,7.9572328125,12.9246728125,7.9457028125Q12.8667128125,7.9341828125,12.8076128125,7.9341828125Q12.7485228125,7.9341828125,12.6905628125,7.9457028125Q12.6326028125,7.9572328125,12.5780028125,7.9798528125Q12.5234128125,8.0024628125,12.4742728125,8.0352928125Q12.4251328125,8.0681328125,12.3833528125,8.1099128125Q12.3415628125,8.1517028125,12.3087328125,8.2008328125Q12.2759028125,8.249972812500001,12.2532828125,8.3045728125Q12.2306728125,8.3591628125,12.2191428125,8.4171228125Q12.2076128125,8.4750828125,12.2076128125,8.5341828125L12.2076128125,11.8076128125Q12.2076128125,12.2076128125,11.8076128125,12.2076128125L4.1923828125,12.2076128125Q4.0266968125,12.2076128125,3.9095398125000003,12.0904628125Q3.7923828125,11.9733028125,3.7923828125,11.8076128125L3.7923828125,4.1923828125Q3.7923828125,4.0266978125,3.9095398125000003,3.9095398125000003Q4.0266978125,3.7923828125,4.1923828125,3.7923828125Z" fill-rule="evenodd" fill="#BABAC4" fill-opacity="1"/></g><g><path d="M10.8907795703125,2.7680258125L10.8904295703125,2.7683728125L6.6615415703125,7.002332812500001Q6.5772665703125,7.0867128125,6.5316625703125,7.1969028125Q6.4860595703125,7.3070928125,6.4860595703125,7.4263428125L6.4860595703125,8.913972812499999Q6.4860595703125,8.9730728125,6.4975885703125,9.031032812500001Q6.5091175703125,9.088992812499999,6.5317315703125,9.1435828125Q6.5543465703125,9.1981828125,6.5871775703125,9.247312812499999Q6.6200095703125,9.2964528125,6.6617955703125,9.338242812499999Q6.7035815703125,9.3800228125,6.7527175703125,9.412852812499999Q6.8018525703125,9.445692812499999,6.8564495703125,9.4683028125Q6.9110455703125,9.4909128125,6.9690055703125,9.5024428125Q7.0269647703124996,9.5139728125,7.0860595703125,9.5139728125L8.5812795703125,9.5139728125Q8.7006595703125,9.5139728125,8.8109495703125,9.4682828125Q8.9212395703125,9.4225828125,9.0056295703125,9.3381428125L13.2320095703125,5.1099128125Q13.273779570312499,5.0681228125,13.3065895703125,5.0190028125Q13.3393995703125,4.9698728125,13.3620095703125,4.9152928125Q13.384609570312499,4.8607028125,13.3961295703125,4.8027628125Q13.4076495703125,4.7448128125,13.4076495703125,4.6857428125Q13.4076495703125,4.6266628125,13.3961295703125,4.5687128125Q13.384609570312499,4.5107728125,13.3620095703125,4.4561928125Q13.3393995703125,4.4016028125,13.3065895703125,4.3524828125Q13.273779570312499,4.3033528125,13.2320095703125,4.2615728125L11.7393095703125,2.7682118125Q11.6549295703125,2.6838018125,11.5446795703125,2.6381058125Q11.4344295703125,2.5924088125,11.3150795703125,2.5923828125Q11.195729570312501,2.5923568125000003,11.0854595703125,2.6380048125Q10.9751895703125,2.6836528125,10.8907795703125,2.7680258125ZM11.3151095703125,4.0412588125L7.6860595703125,7.6746628125L7.6860595703125,8.313972812500001L8.3326695703125,8.313972812500001L11.959309570312499,4.6857428125L11.3151095703125,4.0412588125Z" fill-rule="evenodd" fill="#BABAC4" fill-opacity="1"/></g></g></g></svg>