<svg xmlns="http://www.w3.org/2000/svg" xmlns:xlink="http://www.w3.org/1999/xlink" fill="none" version="1.1" width="20" height="20" viewBox="0 0 20 20"><defs><clipPath id="master_svg0_57178_183641"><rect x="0" y="0" width="20" height="20" rx="0"/></clipPath></defs><g clip-path="url(#master_svg0_57178_183641)"><g><path d="M18.6930171875,10.000093046875Q18.6930171875,10.213493046875,18.6826171875,10.426633046875Q18.6721171875,10.639763046875,18.6512171875,10.852133046875Q18.6303171875,11.064503046875,18.5990171875,11.275583046875Q18.5676171875,11.486673046875,18.5260171875,11.695973046875Q18.4844171875,11.905273046875,18.4325171875,12.112273046875Q18.3807171875,12.319273046875,18.3187171875,12.523473046875Q18.2568171875,12.727673046875,18.1849171875,12.928573046875Q18.1130171875,13.129473046875,18.0314171875,13.326673046875Q17.9497171875,13.523773046875,17.8585171875,13.716673046875Q17.7672171875,13.909573046875,17.6666171875,14.097773046875Q17.5660171875,14.285973046875,17.4563171875,14.469073046875Q17.3466171875,14.652073046875,17.2281171875,14.829473046875Q17.1095171875,15.006973046875,16.982417187499998,15.178373046875Q16.8553171875,15.349773046875,16.719917187500002,15.514673046875Q16.584517187499998,15.679673046875,16.4412171875,15.837773046875Q16.297917187499998,15.995873046875,16.147017187499998,16.146773046874998Q15.9961171875,16.297673046874998,15.8380171875,16.440973046875Q15.6799171875,16.584273046874998,15.5149171875,16.719673046875002Q15.3500171875,16.855073046875,15.1786171875,16.982173046874998Q15.0072171875,17.109273046875,14.8297171875,17.227873046875Q14.6523171875,17.346373046875,14.4693171875,17.456073046875Q14.2862171875,17.565773046875,14.0980171875,17.666373046875Q13.9098171875,17.766973046875,13.7169171875,17.858173046875Q13.5240171875,17.949473046875,13.3269171875,18.031173046875Q13.1297171875,18.112773046875,12.9288171875,18.184673046875Q12.7279171875,18.256573046875,12.5237171875,18.318473046875Q12.3195171875,18.380473046875,12.1125171875,18.432273046875Q11.9055171875,18.484173046875,11.6962171875,18.525773046875Q11.4869171875,18.567373046875,11.2758271875,18.598773046875Q11.0647471875,18.630073046875,10.8523771875,18.650973046875Q10.6400071875,18.671873046875,10.4268771875,18.682373046875Q10.2137371875,18.692773046875,10.0003371875,18.692773046875Q9.7869471875,18.692773046875,9.5738071875,18.682373046875Q9.3606671875,18.671873046875,9.1483071875,18.650973046875Q8.9359371875,18.630073046875,8.7248571875,18.598773046875Q8.513767187500001,18.567373046875,8.3044771875,18.525773046875Q8.0951771875,18.484173046875,7.8881771875,18.432273046875Q7.6811771875,18.380473046875,7.4769771875,18.318473046875Q7.2727671875,18.256573046875,7.0718471875,18.184673046875Q6.8709271875,18.112773046875,6.6737771875,18.031173046875Q6.4766271875,17.949473046875,6.2837171875,17.858273046875Q6.0908171875,17.766973046875,5.9026171875,17.666373046875Q5.7144271875,17.565773046875,5.5313871875,17.456073046875Q5.3483571875,17.346373046875,5.170917187500001,17.227873046875Q4.9934871874999995,17.109273046875,4.8220871875,16.982173046874998Q4.6506871875,16.855073046875,4.4857371875,16.719673046875002Q4.3207771875,16.584273046874998,4.1626671875,16.440973046875Q4.0045471875,16.297673046874998,3.8536571875,16.146773046874998Q3.7027671875,15.995873046875,3.5594571875,15.837773046875Q3.4161471875,15.679673046875,3.2807771875,15.514673046875Q3.1453971875,15.349773046875,3.0182771875,15.178373046875Q2.8911571875,15.006973046875,2.7726071875000002,14.829473046875Q2.6540471875,14.652073046875,2.5443471875,14.469073046875Q2.4346371875,14.285973046875,2.3340471875,14.097773046875Q2.2334491874999998,13.909573046875,2.1422111875,13.716673046875Q2.0509741875,13.523773046875,1.9693111875,13.326673046875Q1.8876491875,13.129473046875,1.8157581875,12.928573046875Q1.7438681875,12.727673046875,1.6819231875,12.523473046875Q1.6199781875,12.319273046875,1.5681271875,12.112273046875Q1.5162761875,11.905273046875,1.4746451875,11.695973046875Q1.4330141875,11.486673046875,1.4017027875,11.275583046875Q1.3703912875,11.064503046875,1.3494749875,10.852133046875Q1.3285586875,10.639763046875,1.3180879875,10.426633046875Q1.3076171875,10.213493046875,1.3076171875,10.000093046875Q1.3076171875,9.786703046875,1.3180879875,9.573563046875Q1.3285586875,9.360423046875,1.3494749875,9.148063046875Q1.3703912875,8.935693046875,1.4017027875,8.724613046875Q1.4330141875,8.513523046875001,1.4746451875,8.304233046875Q1.5162761875,8.094933046875,1.5681271875,7.887933046875Q1.6199781875,7.680933046875,1.6819231875,7.476733046875Q1.7438681875,7.272523046875,1.8157581875,7.071603046875Q1.8876491875,6.870683046875,1.9693111875,6.673533046875Q2.0509741875,6.476383046875,2.1422111875,6.283473046875Q2.2334491874999998,6.090573046875,2.3340471875,5.902373046875Q2.4346371875,5.714183046875,2.5443471875,5.531143046875Q2.6540471875,5.348113046875,2.7726071875000002,5.170673046875001Q2.8911571875,4.9932430468749995,3.0182771875,4.821843046875Q3.1453971875,4.650443046875,3.2807771875,4.485493046875Q3.4161471875,4.320533046875,3.5594571875,4.162423046875Q3.7027671875,4.004303046875,3.8536571875,3.853413046875Q4.0045471875,3.702523046875,4.1626671875,3.559213046875Q4.3207771875,3.415903046875,4.4857371875,3.280533046875Q4.6506871875,3.145153046875,4.8220871875,3.018033046875Q4.9934871874999995,2.890913046875,5.170917187500001,2.7723630468750002Q5.3483571875,2.653803046875,5.5313871875,2.544103046875Q5.7144271875,2.434393046875,5.9026171875,2.333803046875Q6.0908171875,2.2332050468749998,6.2837171875,2.141967046875Q6.4766271875,2.050730046875,6.6737771875,1.969067046875Q6.8709271875,1.887405046875,7.0718471875,1.815514046875Q7.2727671875,1.743624046875,7.4769771875,1.681679046875Q7.6811771875,1.619734046875,7.8881771875,1.567883046875Q8.0951771875,1.516032046875,8.3044771875,1.474401046875Q8.513767187500001,1.432770046875,8.7248571875,1.401458646875Q8.9359371875,1.370147146875,9.1483071875,1.349230846875Q9.3606671875,1.328314546875,9.5738071875,1.317843846875Q9.7869471875,1.307373046875,10.0003371875,1.307373046875Q10.2137371875,1.307373046875,10.4268771875,1.317843846875Q10.6400071875,1.328314546875,10.8523771875,1.349230846875Q11.0647471875,1.370147146875,11.2758271875,1.401458646875Q11.4869171875,1.432770046875,11.6962171875,1.474401046875Q11.9055171875,1.516032046875,12.1125171875,1.567883046875Q12.3195171875,1.619734046875,12.5237171875,1.681679046875Q12.7279171875,1.743624046875,12.9288171875,1.815514046875Q13.1297171875,1.887405046875,13.3269171875,1.969067046875Q13.5240171875,2.050730046875,13.7169171875,2.141967046875Q13.9098171875,2.2332050468749998,14.0980171875,2.333803046875Q14.2862171875,2.434393046875,14.4693171875,2.544103046875Q14.6523171875,2.653803046875,14.8297171875,2.7723630468750002Q15.0072171875,2.890913046875,15.1786171875,3.018033046875Q15.3500171875,3.145153046875,15.5149171875,3.280533046875Q15.6799171875,3.415903046875,15.8380171875,3.559213046875Q15.9961171875,3.702523046875,16.147017187499998,3.853413046875Q16.297917187499998,4.004303046875,16.4412171875,4.162423046875Q16.584517187499998,4.320533046875,16.719917187500002,4.485493046875Q16.8553171875,4.650443046875,16.982417187499998,4.821843046875Q17.1095171875,4.9932430468749995,17.2281171875,5.170673046875001Q17.3466171875,5.348113046875,17.4563171875,5.531143046875Q17.5660171875,5.714183046875,17.6666171875,5.902373046875Q17.7672171875,6.090573046875,17.8584171875,6.283473046875Q17.9497171875,6.476383046875,18.0314171875,6.673533046875Q18.1130171875,6.870683046875,18.1849171875,7.071603046875Q18.2568171875,7.272523046875,18.3187171875,7.476733046875Q18.3807171875,7.680933046875,18.4325171875,7.887933046875Q18.4844171875,8.094933046875,18.5260171875,8.304233046875Q18.5676171875,8.513523046875001,18.5990171875,8.724613046875Q18.6303171875,8.935693046875,18.6512171875,9.148063046875Q18.6721171875,9.360423046875,18.6826171875,9.573563046875Q18.6930171875,9.786703046875,18.6930171875,10.000093046875ZM17.1930171875,10.000093046875Q17.1930171875,9.823523046875,17.1844171875,9.647163046875Q17.1757171875,9.470803046875,17.1584171875,9.295083046875Q17.1411171875,9.119363046875,17.1152171875,8.944703046875Q17.0893171875,8.770043046875,17.0548171875,8.596863046875Q17.0204171875,8.423683046875,16.9775171875,8.252403046875Q16.934617187500002,8.081123046875,16.883317187499998,7.912163046875Q16.8321171875,7.743193046875,16.7726171875,7.576943046875Q16.7131171875,7.410693046875,16.645517187499998,7.247563046875Q16.578017187500002,7.084433046875,16.5025171875,6.924813046875Q16.4270171875,6.765193046875,16.343717187499998,6.609473046875Q16.2605171875,6.453743046875,16.169717187499998,6.302293046875Q16.0790171875,6.150843046875,15.9809171875,6.004033046875Q15.8828171875,5.857223046875,15.7776171875,5.715393046875Q15.6724171875,5.573573046875,15.5604171875,5.437083046875Q15.4484171875,5.300593046875,15.3298171875,5.1697630468749995Q15.2112171875,5.038923046875,15.0863171875,4.914073046875Q14.9615171875,4.789213046875,14.8307171875,4.670643046875Q14.6998171875,4.552063046875,14.5633171875,4.440043046875Q14.4268171875,4.3280330468749995,14.2850171875,4.222843046875Q14.1432171875,4.117663046875,13.9964171875,4.019563046875Q13.8496171875,3.921463046875,13.6981171875,3.830693046875Q13.5467171875,3.739913046875,13.3909171875,3.656683046875Q13.2352171875,3.573443046875,13.0756171875,3.497953046875Q12.9160171875,3.422453046875,12.7529171875,3.354883046875Q12.5897171875,3.287313046875,12.4235171875,3.2278330468750003Q12.2572171875,3.168343046875,12.0883171875,3.117093046875Q11.9193171875,3.065833046875,11.7480171875,3.022933046875Q11.5767171875,2.980023046875,11.4036171875,2.945583046875Q11.2303871875,2.9111330468750003,11.0557271875,2.8852230468749998Q10.8810671875,2.859313046875,10.7053471875,2.842003046875Q10.5296271875,2.8247030468750003,10.3532671875,2.816033046875Q10.1769071875,2.807373046875,10.0003371875,2.807373046875Q9.8237671875,2.807373046875,9.6474071875,2.816033046875Q9.4710471875,2.8247030468750003,9.2953271875,2.842003046875Q9.1196071875,2.859313046875,8.9449471875,2.8852230468749998Q8.7702871875,2.9111330468750003,8.5971071875,2.945583046875Q8.4239271875,2.980023046875,8.2526471875,3.022933046875Q8.0813671875,3.065833046875,7.9124071875,3.117093046875Q7.7434371875,3.168343046875,7.5771871875,3.2278330468750003Q7.4109371875,3.287313046875,7.2478071875,3.354883046875Q7.0846771875,3.422453046875,6.9250571875,3.497953046875Q6.7654371875,3.573443046875,6.6097171875,3.656683046875Q6.4539871875,3.739913046875,6.3025371875,3.830693046875Q6.1510871875,3.921463046875,6.0042771875,4.019563046875Q5.8574671875,4.117663046875,5.7156371875,4.222843046875Q5.5738171875,4.3280330468749995,5.4373271875,4.440043046875Q5.3008371875,4.552063046875,5.1700071874999995,4.670643046875Q5.0391671875,4.789213046875,4.9143171875,4.914073046875Q4.7894571875,5.038923046875,4.6708871875,5.1697630468749995Q4.5523071875,5.300593046875,4.4402871875,5.437083046875Q4.3282771874999995,5.573573046875,4.2230871875,5.715393046875Q4.1179071875,5.857223046875,4.0198071875,6.004033046875Q3.9217071875,6.150843046875,3.8309371875,6.302293046875Q3.7401571875,6.453743046875,3.6569271875,6.609473046875Q3.5736871875,6.765193046875,3.4981971875,6.924813046875Q3.4226971875,7.084423046875,3.3551271875,7.247563046875Q3.2875571875,7.410693046875,3.2280771875000003,7.576943046875Q3.1685871875,7.743193046875,3.1173371875,7.912163046875Q3.0660771875,8.081123046875,3.0231771875,8.252403046875Q2.9802671875,8.423683046875,2.9458271875,8.596863046875Q2.9113771875000003,8.770043046875,2.8854671874999998,8.944703046875Q2.8595571875,9.119363046875,2.8422471875,9.295083046875Q2.8249471875000003,9.470803046875,2.8162771875,9.647163046875Q2.8076171875,9.823523046875,2.8076171875,10.000093046875Q2.8076171875,10.176663046875,2.8162771875,10.353023046875Q2.8249471875000003,10.529383046875,2.8422471875,10.705103046875Q2.8595571875,10.880823046875,2.8854671874999998,11.055483046875Q2.9113771875000003,11.230143046875,2.9458271875,11.403373046875Q2.9802671875,11.576473046875,3.0231771875,11.747773046875Q3.0660771875,11.919073046875,3.1173371875,12.088073046875Q3.1685871875,12.256973046875,3.2280771875000003,12.423273046875Q3.2875571875,12.589473046875,3.3551271875,12.752673046875Q3.4226971875,12.915773046875,3.4981971875,13.075373046875Q3.5736871875,13.234973046875,3.6569271875,13.390673046875Q3.7401571875,13.546473046875,3.8309371875,13.697873046875Q3.9217071875,13.849373046875,4.0198071875,13.996173046875Q4.1179071875,14.142973046875,4.2230871875,14.284773046875Q4.3282771874999995,14.426573046875,4.4402871875,14.563073046875Q4.5523071875,14.699573046875,4.6708871875,14.830473046875Q4.7894571875,14.961273046875,4.9143171875,15.086073046875Q5.0391671875,15.210973046875,5.1700071874999995,15.329573046875Q5.3008371875,15.448173046875,5.4373271875,15.560173046875Q5.5738171875,15.672173046875,5.7156371875,15.777373046875Q5.8574671875,15.882573046875,6.0042771875,15.980673046875Q6.1510871875,16.078773046875,6.3025371875,16.169473046874998Q6.4539871875,16.260273046875,6.6097171875,16.343473046874998Q6.7654371875,16.426773046875,6.9250571875,16.502273046875Q7.0846671875,16.577773046875002,7.2478071875,16.645273046874998Q7.4109371875,16.712873046875,7.5771871875,16.772373046875Q7.7434371875,16.831873046875,7.9124071875,16.883073046874998Q8.0813671875,16.934373046875002,8.2526471875,16.977273046875Q8.4239271875,17.020173046875,8.5971071875,17.054573046875Q8.7702871875,17.089073046875,8.9449471875,17.114973046875Q9.1196071875,17.140873046875,9.2953271875,17.158173046875Q9.4710471875,17.175473046875,9.6474071875,17.184173046875Q9.8237671875,17.192773046875,10.0003371875,17.192773046875Q10.1769071875,17.192773046875,10.3532671875,17.184173046875Q10.5296271875,17.175473046875,10.7053471875,17.158173046875Q10.8810671875,17.140873046875,11.0557271875,17.114973046875Q11.2303871875,17.089073046875,11.4036171875,17.054573046875Q11.5767171875,17.020173046875,11.7480171875,16.977273046875Q11.9193171875,16.934373046875002,12.0883171875,16.883073046874998Q12.2572171875,16.831873046875,12.4235171875,16.772373046875Q12.5897171875,16.712873046875,12.7529171875,16.645273046874998Q12.9160171875,16.577773046875002,13.0756171875,16.502273046875Q13.2352171875,16.426773046875,13.3909171875,16.343473046874998Q13.5467171875,16.260273046875,13.6981171875,16.169473046874998Q13.8496171875,16.078773046875,13.9964171875,15.980673046875Q14.1432171875,15.882573046875,14.2850171875,15.777373046875Q14.4268171875,15.672173046875,14.5633171875,15.560173046875Q14.6998171875,15.448173046875,14.8307171875,15.329573046875Q14.9615171875,15.210973046875,15.0863171875,15.086073046875Q15.2112171875,14.961273046875,15.3298171875,14.830473046875Q15.4484171875,14.699573046875,15.5604171875,14.563073046875Q15.6724171875,14.426573046875,15.7776171875,14.284773046875Q15.8828171875,14.142973046875,15.9809171875,13.996173046875Q16.0790171875,13.849373046875,16.169717187499998,13.697873046875Q16.2605171875,13.546473046875,16.343717187499998,13.390673046875Q16.4270171875,13.234973046875,16.5025171875,13.075373046875Q16.578017187500002,12.915773046875,16.645517187499998,12.752673046875Q16.7131171875,12.589473046875,16.7726171875,12.423273046875Q16.8321171875,12.256973046875,16.883317187499998,12.088073046875Q16.934617187500002,11.919073046875,16.9775171875,11.747773046875Q17.0204171875,11.576473046875,17.0548171875,11.403373046875Q17.0893171875,11.230143046875,17.1152171875,11.055483046875Q17.1411171875,10.880823046875,17.1584171875,10.705103046875Q17.1757171875,10.529383046875,17.1844171875,10.353023046875Q17.1930171875,10.176663046875,17.1930171875,10.000093046875Z" fill-rule="evenodd" fill="#FFFFFF" fill-opacity="1"/></g><g><g><path d="M6.453125,8L6.453125,8.66667C6.453125,8.94281,6.676983,9.16667,6.953125,9.16667L13.080445000000001,9.16667C13.513325,9.16667,13.741675,8.65395,13.452095,8.332180000000001L11.324774999999999,5.968497C11.018225000000001,5.6278880000000004,10.453125,5.844737,10.453125,6.30298L10.453125,7.5L6.953125,7.5C6.676983,7.5,6.453125,7.72386,6.453125,8Z" fill="#FFFFFF" fill-opacity="1"/></g><g><path d="M6.919555,10.833251953125C6.486671,10.833251953125,6.258324,11.345972953124999,6.547909,11.667733953125L8.675225000000001,14.031421953125001C8.981774999999999,14.372031953125,9.546875,14.155181953125,9.546875,13.696941953125L9.546875,12.499921953125L13.046875,12.499921953125C13.323015,12.499921953125,13.546875,12.276061953125,13.546875,11.999921953125L13.546875,11.333251953125C13.546875,11.057109953125,13.323015,10.833251953125,13.046875,10.833251953125L6.919555,10.833251953125Z" fill="#FFFFFF" fill-opacity="1"/></g></g></g></svg>