<svg xmlns="http://www.w3.org/2000/svg" xmlns:xlink="http://www.w3.org/1999/xlink" fill="none" version="1.1" width="20" height="20" viewBox="0 0 20 20"><defs><clipPath id="master_svg0_57403_180118"><rect x="0" y="0" width="20" height="20" rx="0"/></clipPath></defs><g clip-path="url(#master_svg0_57403_180118)"><g><path d="M5.197138750000001,5.3778221875C3.00721875,7.6507621875,2.7113087499999997,11.1479221875,4.48818875,13.7564921875C6.26505875,16.3650921875,9.62772875,17.370192187500002,12.54466875,16.164492187500002C12.64046875,15.5394921875,12.43046875,14.9394921875,12.34466875,14.7294921875C12.15296875,14.2627921875,11.52129875,13.4652921875,10.46713875,12.3594921875C10.18546875,12.0636921875,10.20379875,11.8361921875,10.30463875,11.1619921875L10.31546875,11.0861621875C10.38379875,10.6244921875,10.49879875,10.3511621875,12.05296875,10.1044921875C12.84296875,9.9794921875,13.05046875,10.2944921875,13.33796875,10.7319921875L13.43466875,10.8753221875C13.70796875,11.2753221875,13.91046875,11.3669921875,14.21626875,11.5053221875C14.35376875,11.5678221875,14.52466875,11.6469921875,14.75376875,11.7761921875C15.29716875,12.0869921875,15.29716875,12.4377921875,15.29716875,13.2061921875L15.29716875,13.2936921875C15.29716875,13.6194921875,15.26546875,13.9061921875,15.21546875,14.1552921875C17.95796875,10.7133321875,16.67286875,5.6054421875,12.62796875,3.8711621875C12.16716875,4.181992187500001,11.53463875,4.622822187500001,11.31379875,4.9253221875C11.20129875,5.0794921875,11.04129875,5.8686621875,10.52213875,5.9336621875C10.38713875,5.9503221875,10.20463875,5.9386621875,10.01129875,5.9261621875C9.49296875,5.8928221875,8.78463875,5.8469921875,8.55796875,6.4628221875C8.41379875,6.8528221875,8.38879875,7.9128221875,8.85463875,8.462822187499999C8.929638749999999,8.5503221875,8.943808749999999,8.712822187499999,8.89296875,8.8953221875C8.82629875,9.134492187500001,8.69213875,9.280322187500001,8.649638750000001,9.310322187499999C8.56963875,9.2636621875,8.40963875,9.0778221875,8.30046875,8.9519921875C8.03963875,8.647822187500001,7.71296875,8.2686621875,7.29129875,8.1519921875C7.13796875,8.109492187499999,6.96963875,8.074492187499999,6.80546875,8.039492187499999C6.34796875,7.9436621875,5.83046875,7.8344921875,5.70963875,7.5778221875C5.621298749999999,7.3894921875,5.6221387499999995,7.1303221875,5.6221387499999995,6.8569921875C5.6221387499999995,6.5094921875,5.6221387499999995,6.1169921875,5.45213875,5.7361621875C5.3930387500000005,5.600252187500001,5.30617875,5.4781921874999995,5.197138750000001,5.3778221875ZM10.00129875,18.3336921875C5.39879875,18.3336921875,1.66796875,14.6027921875,1.66796875,10.0003221875C1.66796875,5.3978221875,5.39879875,1.6669921875,10.00129875,1.6669921875C14.60376875,1.6669921875,18.33466875,5.3978221875,18.33466875,10.0003221875C18.33466875,14.6027921875,14.60376875,18.3336921875,10.00129875,18.3336921875Z" fill="#BABAC4" fill-opacity="1"/></g></g></svg>