<svg xmlns="http://www.w3.org/2000/svg" xmlns:xlink="http://www.w3.org/1999/xlink" fill="none" version="1.1" width="24" height="24" viewBox="0 0 24 24"><g><g></g><g><g><path d="M6,6.125L18,6.125Q18.086199999999998,6.125,18.1707,6.141813Q18.255200000000002,6.158626,18.3348,6.191606Q18.4145,6.224585,18.4861,6.272464Q18.5578,6.320343,18.6187,6.381282Q18.6797,6.44222,18.7275,6.513876Q18.775399999999998,6.585532,18.8084,6.665152Q18.8414,6.744772,18.8582,6.829296Q18.875,6.91382,18.875,7Q18.875,7.08618,18.8582,7.170704Q18.8414,7.255228,18.8084,7.334848Q18.775399999999998,7.414468,18.7275,7.486124Q18.6797,7.55778,18.6187,7.618718Q18.5578,7.679657,18.4861,7.727536Q18.4145,7.775415,18.3348,7.808394Q18.255200000000002,7.841374,18.1707,7.858187Q18.086199999999998,7.875,18,7.875L6,7.875Q5.91382,7.875,5.829296,7.858187Q5.744772,7.841374,5.665152,7.808394Q5.585532,7.775415,5.513876,7.727536Q5.44222,7.679657,5.381282,7.618718Q5.320343,7.55778,5.272464,7.486124Q5.224585,7.414468,5.191606,7.334848Q5.158626,7.255228,5.141813,7.170704Q5.125,7.08618,5.125,7Q5.125,6.91382,5.141813,6.829296Q5.158626,6.744772,5.191606,6.665152Q5.224585,6.585532,5.272464,6.513876Q5.320343,6.44222,5.381282,6.381282Q5.44222,6.320343,5.513876,6.272464Q5.585532,6.224585,5.665152,6.191606Q5.744772,6.158626,5.829296,6.141813Q5.91382,6.125,6,6.125Z" fill-rule="evenodd" fill="#006DE2" fill-opacity="1"/></g><g><path d="M6,11.125L18,11.125Q18.086199999999998,11.125,18.1707,11.141812999999999Q18.255200000000002,11.158626,18.3348,11.191606Q18.4145,11.224585,18.4861,11.272464Q18.5578,11.320343,18.6187,11.381282Q18.6797,11.44222,18.7275,11.513876Q18.775399999999998,11.585532,18.8084,11.665152Q18.8414,11.744772,18.8582,11.829296Q18.875,11.91382,18.875,12Q18.875,12.08618,18.8582,12.170704Q18.8414,12.255228,18.8084,12.334848Q18.775399999999998,12.414468,18.7275,12.486124Q18.6797,12.55778,18.6187,12.618718Q18.5578,12.679657,18.4861,12.727536Q18.4145,12.775415,18.3348,12.808394Q18.255200000000002,12.841374,18.1707,12.858187000000001Q18.086199999999998,12.875,18,12.875L6,12.875Q5.91382,12.875,5.829296,12.858187000000001Q5.744772,12.841374,5.665152,12.808394Q5.585532,12.775415,5.513876,12.727536Q5.44222,12.679657,5.381282,12.618718Q5.320343,12.55778,5.272464,12.486124Q5.224585,12.414468,5.191606,12.334848Q5.158626,12.255228,5.141813,12.170704Q5.125,12.08618,5.125,12Q5.125,11.91382,5.141813,11.829296Q5.158626,11.744772,5.191606,11.665152Q5.224585,11.585532,5.272464,11.513876Q5.320343,11.44222,5.381282,11.381282Q5.44222,11.320343,5.513876,11.272464Q5.585532,11.224585,5.665152,11.191606Q5.744772,11.158626,5.829296,11.141812999999999Q5.91382,11.125,6,11.125Z" fill-rule="evenodd" fill="#006DE2" fill-opacity="1"/></g><g><path d="M6,16.125L18,16.125Q18.086199999999998,16.125,18.1707,16.141813Q18.255200000000002,16.158626,18.3348,16.191606Q18.4145,16.224585,18.4861,16.272464Q18.5578,16.320343,18.6187,16.381282Q18.6797,16.44222,18.7275,16.513876Q18.775399999999998,16.585532,18.8084,16.665152Q18.8414,16.744772,18.8582,16.829296Q18.875,16.91382,18.875,17Q18.875,17.08618,18.8582,17.170704Q18.8414,17.255228,18.8084,17.334848Q18.775399999999998,17.414468,18.7275,17.486124Q18.6797,17.55778,18.6187,17.618718Q18.5578,17.679657,18.4861,17.727536Q18.4145,17.775415,18.3348,17.808394Q18.255200000000002,17.841374,18.1707,17.858187Q18.086199999999998,17.875,18,17.875L6,17.875Q5.91382,17.875,5.829296,17.858187Q5.744772,17.841374,5.665152,17.808394Q5.585532,17.775415,5.513876,17.727536Q5.44222,17.679657,5.381282,17.618718Q5.320343,17.55778,5.272464,17.486124Q5.224585,17.414468,5.191606,17.334848Q5.158626,17.255228,5.141813,17.170704Q5.125,17.08618,5.125,17Q5.125,16.91382,5.141813,16.829296Q5.158626,16.744772,5.191606,16.665152Q5.224585,16.585532,5.272464,16.513876Q5.320343,16.44222,5.381282,16.381282Q5.44222,16.320343,5.513876,16.272464Q5.585532,16.224585,5.665152,16.191606Q5.744772,16.158626,5.829296,16.141813Q5.91382,16.125,6,16.125Z" fill-rule="evenodd" fill="#006DE2" fill-opacity="1"/></g></g></g></svg>