<svg xmlns="http://www.w3.org/2000/svg" xmlns:xlink="http://www.w3.org/1999/xlink" fill="none" version="1.1" width="12" height="12" viewBox="0 0 12 12"><g><g transform="matrix(-1,0,0,-1,22,21.999774932861328)"><path d="M11.000392374,16.874777466430665L10.999613156,16.874777466430665Q10.825565,16.874697466430664,10.664795,16.808017466430663Q10.504024,16.741347466430664,10.381008,16.618217466430664Q10.257992,16.495097466430664,10.191457,16.334267466430664Q10.124923,16.173437466430663,10.125,15.999387466430665Q10.125038,15.913257466430665,10.141869,15.828787466430665Q10.158701,15.744317466430665,10.191679,15.664747466430665Q10.224657,15.585177466430665,10.272517,15.513567466430665Q10.320376,15.441957466430665,10.38128,15.381057466430665Q10.442183,15.320157466430665,10.513793,15.272297466430665Q10.585402,15.224437466430665,10.664969,15.191457466430663Q10.744537,15.158477466430664,10.829007,15.141647466430664Q10.9134768,15.124817466430663,10.999607626,15.124777466430665L11.000386843,15.124777466430665L15.123059999999999,15.122927466430664L15.125,11.000254482430664L15.125,10.999475264430664Q15.12508,10.825427466430664,15.19176,10.664658466430664Q15.25844,10.503890466430665,15.38157,10.380877466430665Q15.5047,10.257864466430664,15.66553,10.191335466430663Q15.826360000000001,10.124805466430663,16.00041,10.124887466430664Q16.08654,10.124928466430664,16.17101,10.141761466430664Q16.25548,10.158595466430665,16.33505,10.191576466430664Q16.41462,10.224556466430665,16.48622,10.272418466430665Q16.55783,10.320279466430664,16.61873,10.381185466430663Q16.67964,10.442090466430663,16.72749,10.513701466430664Q16.77535,10.585312466430665,16.808329999999998,10.664880466430665Q16.84131,10.744448466430663,16.85813,10.828919466430664Q16.87496,10.913389666430664,16.875,10.999520450430664L16.875,11.000299667430664L16.876730000000002,15.122927466430664L20.99961,15.124777466430665L21.0004,15.124777466430665Q21.0866,15.124817466430663,21.1711,15.141667466430665Q21.2556,15.158517466430663,21.3352,15.191527466430664Q21.4148,15.224547466430664,21.4864,15.272457466430664Q21.5581,15.320367466430664,21.619,15.381337466430665Q21.6799,15.442297466430663,21.727800000000002,15.513977466430664Q21.7756,15.585657466430664,21.808500000000002,15.665287466430664Q21.8415,15.744927466430664,21.8583,15.829457466430664Q21.875,15.913987466430665,21.875,16.000167466430664Q21.875,16.086297466430665,21.8581,16.170767466430664Q21.8413,16.255237466430664,21.8083,16.334807466430664Q21.7753,16.414367466430665,21.7275,16.485977466430665Q21.6796,16.557587466430665,21.6187,16.618497466430664Q21.5578,16.679397466430665,21.4862,16.727257466430665Q21.4146,16.775117466430665,21.335,16.808097466430663Q21.255499999999998,16.841077466430665,21.171,16.857907466430664Q21.0865,16.874737466430666,21.0004,16.874777466430665L20.99961,16.874777466430665L16.876730000000002,16.876597466430663L16.875,20.999247466430663L16.875,20.999987466430664Q16.87493,21.174087466430663,16.80825,21.334887466430665Q16.74158,21.495587466430663,16.61846,21.618687466430664Q16.49534,21.741687466430662,16.33451,21.808187466430663Q16.17368,21.874687466430665,15.99963,21.874687466430665Q15.913499999999999,21.874587466430665,15.82903,21.857787466430665Q15.74456,21.840987466430665,15.66499,21.807987466430664Q15.585429999999999,21.774987466430666,15.51381,21.727187466430664Q15.4422,21.679287466430665,15.3813,21.61838746643066Q15.32039,21.557487466430665,15.27253,21.485887466430665Q15.22467,21.414287466430665,15.191690000000001,21.334687466430665Q15.15871,21.255187466430662,15.14187,21.170687466430664Q15.12504,21.086187466430665,15.125,21.000087466430664L15.125,20.99929746643066L15.123059999999999,16.876597466430663L11.000392374,16.874777466430665Z" fill-rule="evenodd" fill="#006DE2" fill-opacity="1"/></g></g></svg>