<svg xmlns="http://www.w3.org/2000/svg" xmlns:xlink="http://www.w3.org/1999/xlink" fill="none" version="1.1" width="48" height="48" viewBox="0 0 48 48"><defs><clipPath id="master_svg0_57640_215078"><rect x="0" y="0" width="48" height="48" rx="0"/></clipPath></defs><g clip-path="url(#master_svg0_57640_215078)"><g><path d="M5.71484375,16L5.71484375,32Q5.71484375,32.1473,5.72207101,32.294399999999996Q5.72929825,32.441500000000005,5.74373535,32.5881Q5.75817255,32.734700000000004,5.77978465,32.8804Q5.80139685,33.0261,5.83013175,33.170500000000004Q5.85886675,33.315,5.89465575,33.457899999999995Q5.93044475,33.6008,5.97320175,33.7417Q6.01595775,33.8827,6.06557975,34.0213Q6.11520075,34.16,6.17156675,34.296099999999996Q6.22793275,34.4322,6.29090775,34.5653Q6.35388375,34.698499999999996,6.42331575,34.8284Q6.49274875,34.9583,6.5684717500000005,35.084599999999995Q6.6441947500000005,35.210899999999995,6.7260237499999995,35.3334Q6.80785375,35.4559,6.89559375,35.574200000000005Q6.9833437499999995,35.692499999999995,7.07678375,35.8064Q7.17022375,35.9202,7.26913375,36.029399999999995Q7.36805375,36.1385,7.47220375,36.242599999999996Q7.57635375,36.3468,7.68549375,36.4457Q7.7946237499999995,36.5446,7.90848375,36.6381Q8.022343750000001,36.7315,8.14064375,36.819199999999995Q8.25895375,36.907,8.38142375,36.9888Q8.50389375,37.0706,8.630223749999999,37.1464Q8.75656375,37.2221,8.88646375,37.2915Q9.01636375,37.361000000000004,9.14951375,37.4239Q9.282663750000001,37.4869,9.41874375,37.5433Q9.55482375,37.599599999999995,9.69350375,37.6493Q9.83218375,37.698899999999995,9.973133749999999,37.7416Q10.114083749999999,37.784400000000005,10.25696375,37.8202Q10.399843749999999,37.856,10.544303750000001,37.884699999999995Q10.68876375,37.913399999999996,10.834463750000001,37.9351Q10.98016375,37.9567,11.12674375,37.9711Q11.27332375,37.9855,11.42043375,37.9928Q11.56755375,38,11.71484375,38L36.28514375,38Q36.432443750000004,38,36.57954375,37.9928Q36.72664375,37.9855,36.87324375,37.9711Q37.01984375,37.9567,37.16554375,37.9351Q37.31124375,37.913399999999996,37.455743749999996,37.884699999999995Q37.60014375,37.856,37.74304375,37.8202Q37.88594375,37.784400000000005,38.02684375,37.7416Q38.16784375,37.698899999999995,38.30644375,37.6493Q38.44514375,37.599599999999995,38.58124375,37.5433Q38.71734375,37.4869,38.85044375,37.4239Q38.98364375,37.361000000000004,39.11354375,37.2915Q39.24344375,37.2221,39.36974375,37.1464Q39.49614375,37.0706,39.61854375,36.9888Q39.74104375,36.907,39.85934375,36.819199999999995Q39.97764375,36.7315,40.09154375,36.6381Q40.20534375,36.5446,40.31454375,36.4457Q40.42364375,36.3468,40.52784375,36.242599999999996Q40.63194375,36.1385,40.73084375,36.029399999999995Q40.82974375,35.9202,40.92324375,35.8064Q41.01664375,35.692499999999995,41.10444375,35.574200000000005Q41.19214375,35.4559,41.27394375,35.3334Q41.35584375,35.210899999999995,41.43154375,35.084599999999995Q41.50724375,34.9583,41.57664375,34.8284Q41.64614375,34.698499999999996,41.70904375,34.5653Q41.77204375,34.4322,41.82844375,34.296099999999996Q41.88484375,34.16,41.93444375,34.0213Q41.98404375,33.8827,42.02684375,33.7417Q42.06954375,33.6008,42.10534375,33.457899999999995Q42.14114375,33.315,42.16984375,33.170500000000004Q42.19864375,33.0261,42.22024375,32.8804Q42.24184375,32.734700000000004,42.25624375,32.5881Q42.27074375,32.441500000000005,42.27794375,32.294399999999996Q42.28514375,32.1473,42.28514375,32L42.28514375,16Q42.28514375,15.85271,42.27794375,15.70559Q42.27074375,15.55848,42.25624375,15.4119Q42.24184375,15.26531,42.22024375,15.119620000000001Q42.19864375,14.97392,42.16984375,14.829460000000001Q42.14114375,14.684999999999999,42.10534375,14.54212Q42.06954375,14.399239999999999,42.02684375,14.258289999999999Q41.98404375,14.11734,41.93444375,13.97866Q41.88484375,13.83998,41.82844375,13.7039Q41.77204375,13.567820000000001,41.70904375,13.43467Q41.64614375,13.30152,41.57664375,13.17162Q41.50724375,13.04172,41.43154375,12.915379999999999Q41.35584375,12.78905,41.27394375,12.66658Q41.19214375,12.54411,41.10444375,12.4258Q41.01664375,12.307500000000001,40.92324375,12.19364Q40.82974375,12.07978,40.73084375,11.97065Q40.63194375,11.861509999999999,40.52784375,11.75736Q40.42364375,11.65321,40.31454375,11.55429Q40.20534375,11.45538,40.09154375,11.36194Q39.97764375,11.2685,39.85934375,11.18075Q39.74104375,11.09301,39.61854375,11.01118Q39.49614375,10.929351,39.36974375,10.853628Q39.24344375,10.777905,39.11354375,10.708472Q38.98364375,10.63904,38.85044375,10.576064Q38.71734375,10.513089,38.58124375,10.456723Q38.44514375,10.400357,38.30644375,10.350736Q38.16784375,10.301114,38.02684375,10.258358Q37.88594375,10.215601,37.74304375,10.179812Q37.60014375,10.144023,37.455743749999996,10.115288Q37.31124375,10.0865531,37.16554375,10.0649409Q37.01984375,10.0433288,36.87324375,10.0288916Q36.72664375,10.0144545,36.57954375,10.00722726Q36.432443750000004,10,36.28514375,10L11.71484375,10Q11.56755375,10,11.42043375,10.00722726Q11.27332375,10.0144545,11.12674375,10.0288916Q10.98015375,10.0433288,10.834463750000001,10.0649409Q10.68876375,10.0865531,10.544303750000001,10.115288Q10.399843749999999,10.144023,10.25696375,10.179812Q10.114083749999999,10.215601,9.973133749999999,10.258358Q9.83218375,10.301114,9.69350375,10.350736Q9.55482375,10.400357,9.41874375,10.456723Q9.282663750000001,10.513089,9.14951375,10.576064Q9.01636375,10.63904,8.88646375,10.708472Q8.75656375,10.777905,8.630223749999999,10.853628Q8.50389375,10.929351,8.38142375,11.01118Q8.25895375,11.09301,8.14064375,11.18075Q8.022343750000001,11.2685,7.90848375,11.36194Q7.7946237499999995,11.45538,7.68549375,11.55429Q7.57635375,11.65321,7.47220375,11.75736Q7.36805375,11.861509999999999,7.26913375,11.97065Q7.17022375,12.07978,7.07678375,12.19364Q6.9833437499999995,12.307500000000001,6.89559375,12.4258Q6.80785375,12.54411,6.7260237499999995,12.66658Q6.6441947500000005,12.78905,6.5684717500000005,12.915379999999999Q6.49274875,13.04172,6.42331575,13.17162Q6.35388375,13.30152,6.29090775,13.43467Q6.22793275,13.567820000000001,6.17156675,13.7039Q6.11520075,13.83998,6.06557975,13.97866Q6.01595775,14.11734,5.97320175,14.258289999999999Q5.93044475,14.399239999999999,5.89465575,14.54212Q5.85886675,14.684999999999999,5.83013175,14.829460000000001Q5.80139685,14.97392,5.77978465,15.119620000000001Q5.75817255,15.26532,5.74373535,15.4119Q5.72929825,15.55848,5.72207101,15.70559Q5.71484375,15.85271,5.71484375,16ZM24.93104375,30.5819L30.63554375,21.2651C31.57104375,19.73779,29.62674375,18.08467,28.21434375,19.207720000000002L24.68344375,22.0108C24.28904375,22.3253,23.71124375,22.3253,23.31694375,22.0108L19.786043749999997,19.207720000000002C18.37364375,18.08467,16.42934375,19.73779,17.36484375,21.2651L23.06934375,30.5819C23.49114375,31.2737,24.50914375,31.2737,24.93104375,30.5819Z" fill-rule="evenodd" fill="#F1A63A" fill-opacity="1"/></g></g></svg>