<svg xmlns="http://www.w3.org/2000/svg" xmlns:xlink="http://www.w3.org/1999/xlink" fill="none" version="1.1" width="48" height="48" viewBox="0 0 48 48"><defs><clipPath id="master_svg0_57640_193558"><rect x="0" y="0" width="48" height="48" rx="0"/></clipPath></defs><g clip-path="url(#master_svg0_57640_193558)"><g><g><path d="M24.908231572265628,10.49721333984375Q22.716901572265627,12.83210333984375,22.716911572265623,16.13129333984375Q22.716901572265627,19.48492333984375,24.887371572265625,21.85322333984375Q27.089911572265628,24.25652333984375,30.210111572265625,24.25652333984375Q33.34031157226563,24.25652333984375,35.543611572265625,21.84972333984375Q37.715011572265624,19.47772333984375,37.715011572265624,16.10785333984375Q37.715011572265624,12.79244333984375,35.51761157226562,10.47186333984375Q33.31571157226563,8.14642333984375,30.210111572265625,8.14642333984375Q27.114411572265624,8.14642333984375,24.908231572265628,10.49721333984375ZM17.100001572265626,32.61442333984375Q16.033111572265625,34.55292333984375,16.033111572265625,36.42202333984375Q16.033111572265625,39.85342333984375,20.541391572265624,39.85342333984375L39.85531157226562,39.85342333984375Q44.363611572265626,39.85342333984375,44.363611572265626,36.42202333984375Q44.363611572265626,34.55292333984375,43.29671157226562,32.61442333984375Q42.252511572265625,30.71722333984375,40.41931157226563,29.18892333984375Q36.203911572265625,25.67472333984375,30.198311572265624,25.67472333984375Q24.192681572265627,25.67472333984375,19.977381572265624,29.18892333984375Q18.144151572265624,30.71722333984375,17.100001572265626,32.61442333984375Z" fill-rule="evenodd" fill="#C8A57A" fill-opacity="1"/></g><g><path d="M18.267327197265622,27.268193359374997Q16.107527197265625,29.086993359375,14.848327197265625,31.374793359375Q13.462797197265624,33.892193359375,13.462797197265624,36.422293359375004Q13.462797197265624,38.450993359375005,14.448427197265625,39.853393359375005L7.751747197265625,39.853393359375005Q5.908307197265625,39.853393359375005,4.909687197265625,39.191693359375Q3.636627197265625,38.348093359375,3.636627197265625,36.674393359375Q3.636627197265625,34.999193359375,4.588377197265625,33.269893359375004Q5.513887197265625,31.588293359375,7.135917197265625,30.236093359375Q10.854837197265624,27.135693359375,16.146627197265623,27.135693359375Q17.240527197265624,27.135693359375,18.267327197265622,27.268193359374997ZM20.436827197265625,13.518903359375Q20.146627197265627,14.762883359375,20.146627197265627,16.131493359375Q20.146627197265627,19.731833359375,22.092927197265624,22.478593359374997Q21.644027197265626,23.367593359375,20.937927197265626,24.138993359375Q18.964227197265625,26.294893359375,16.156827197265628,26.294893359375Q13.358177197265626,26.294893359375,11.385217197265625,24.142093359375Q9.446897197265624,22.027093359375,9.446897197265624,19.035533359375002Q9.446897197265624,16.089943359375,11.404927197265625,14.003633359375Q13.380897197265625,11.898193359375,16.156827197265628,11.898193359375Q18.612727197265627,11.898193359375,20.436827197265625,13.518903359375Z" fill-rule="evenodd" fill="#C8A57A" fill-opacity="1"/></g></g></g></svg>