<svg xmlns="http://www.w3.org/2000/svg" xmlns:xlink="http://www.w3.org/1999/xlink" fill="none" version="1.1" width="48" height="48" viewBox="0 0 48 48"><defs><clipPath id="master_svg0_57640_193648"><rect x="0" y="0" width="48" height="48" rx="0"/></clipPath></defs><g clip-path="url(#master_svg0_57640_193648)"><g><path d="M24.003875,40.5192466796875C14.880135,40.5192466796875,7.484375,33.1235466796875,7.484375,23.9998466796875C7.484375,14.8761066796875,14.880135,7.4803466796875,24.003875,7.4803466796875C33.127575,7.4803466796875,40.523275,14.8761066796875,40.523275,23.9998466796875C40.523275,33.1235466796875,33.127575,40.5192466796875,24.003875,40.5192466796875ZM19.581075,19.3368466796875L16.451214999999998,22.4667466796875C16.060685,22.8572466796875,16.060685,23.4904466796875,16.451214999999998,23.8809466796875L23.296775,30.7264466796875C23.687275,31.1169466796875,24.320375,31.1169466796875,24.710975,30.7264466796875L31.556475,23.8809466796875C31.946975,23.4904466796875,31.946975,22.8572466796875,31.556475,22.4667466796875L28.426575,19.3368466796875C28.239075,19.1493466796875,27.984675,19.0439466796875,27.719475,19.0439466796875L20.288175000000003,19.0439466796875C20.022975000000002,19.0439466796875,19.768575,19.1493466796875,19.581075,19.3368466796875" fill="#EA6757" fill-opacity="1"/></g></g></svg>