<svg xmlns="http://www.w3.org/2000/svg" xmlns:xlink="http://www.w3.org/1999/xlink" fill="none" version="1.1" width="48" height="48" viewBox="0 0 48 48"><defs><clipPath id="master_svg0_57640_193615"><rect x="0" y="0" width="48" height="48" rx="0"/></clipPath><clipPath id="master_svg1_57640_193637"><rect x="4.234375" y="4.2353515625" width="39.52941131591797" height="39.52941131591797" rx="0"/></clipPath></defs><g clip-path="url(#master_svg0_57640_193615)"><g></g><g clip-path="url(#master_svg1_57640_193637)"><g><path d="M7.925761875,11.02976578125Q6.732421875,12.22310578125,6.732421875,13.91073578125L6.732421875,15.92715578125L41.267121875,15.92715578125L41.267121875,13.91073578125Q41.267121875,12.22310578125,40.073721875,11.02976578125Q38.880421875,9.83642578125,37.192721875000004,9.83642578125L10.806731875,9.83642578125Q9.119101875,9.83642578125,7.925761875,11.02976578125ZM41.267721875,18.73157578125L6.732421875,18.73157578125L6.732421875,31.76052578125Q6.732421875,34.41252578125,8.607671875,36.28772578125Q10.482911875,38.16302578125,13.134911875,38.16302578125L34.864621875,38.16302578125Q37.516621875,38.16302578125,39.391821875,36.28772578125Q41.267121875,34.41252578125,41.267121875,31.76052578125L41.267721875,18.73157578125ZM11.790391875000001,30.60912578125C10.896511875,30.60912578125,10.171871875,29.88442578125,10.171871875,28.99062578125C10.171871875,28.09672578125,10.896511875,27.37202578125,11.790391875000001,27.37202578125L12.959311875000001,27.37202578125C13.853191875,27.37202578125,14.577821875,28.09672578125,14.577821875,28.99062578125C14.577821875,29.88442578125,13.853191875,30.60912578125,12.959311875000001,30.60912578125L11.790391875000001,30.60912578125ZM17.952521875000002,30.60922578125C17.058621875,30.60922578125,16.333741875,29.88452578125,16.333741875,28.99062578125C16.333741875,28.09672578125,17.058621875,27.37202578125,17.952521875000002,27.37202578125L19.121521875,27.37202578125C20.015321874999998,27.37202578125,20.740321875,28.09672578125,20.740321875,28.99062578125C20.740321875,29.88452578125,20.015321874999998,30.60922578125,19.121521875,30.60922578125L17.952521875000002,30.60922578125ZM24.114421875,30.60922578125C23.220521875,30.60922578125,22.495621874999998,29.88452578125,22.495621874999998,28.99062578125C22.495621874999998,28.09672578125,23.220521875,27.37202578125,24.114421875,27.37202578125L25.283321875,27.37202578125C26.177221875,27.37202578125,26.902121875,28.09672578125,26.902121875,28.99062578125C26.902121875,29.88452578125,26.177221875,30.60922578125,25.283321875,30.60922578125L24.114421875,30.60922578125Z" fill-rule="evenodd" fill="#006DE2" fill-opacity="1"/></g></g></g></svg>