<svg xmlns="http://www.w3.org/2000/svg" xmlns:xlink="http://www.w3.org/1999/xlink" fill="none" version="1.1" width="28" height="28" viewBox="0 0 28 28"><defs><clipPath id="master_svg0_57273_203009"><rect x="0" y="0" width="28" height="28" rx="0"/></clipPath></defs><g clip-path="url(#master_svg0_57273_203009)"><g><g><path d="M5.7138532421875,6.45218521484375L4.1438472421875,11.63907521484375Q4.1228172421875,11.708545214843749,4.1135242421875,11.78054521484375Q4.1042302421875,11.852535214843751,4.1069272421875,11.925075214843751Q4.1096232421875,11.99760521484375,4.1242362421875,12.068715214843749Q4.1388492421875,12.13981521484375,4.1649792421875,12.20753521484375Q4.1911082421875,12.275265214843749,4.2280402421875,12.33775521484375Q4.2649722421875005,12.40024521484375,4.3116972421875,12.45579521484375Q4.3584222421875,12.51134521484375,4.4136622421875,12.558435214843751Q4.4689022421875,12.60553521484375,4.5311462421875,12.64287521484375L5.1617752421875,13.02124521484375Q6.1193132421875,13.59578521484375,7.2359932421875,13.59578521484375Q8.3526732421875,13.59578521484375,9.310213242187501,13.02125521484375L9.4906632421875,12.91298521484375L9.671103242187499,13.02124521484375Q10.6286532421875,13.59578521484375,11.745333242187499,13.59578521484375Q12.862013242187501,13.59578521484375,13.8195532421875,13.02125521484375L14.0000032421875,12.91298521484375L14.1804432421875,13.02124521484375Q15.1380232421875,13.59578521484375,16.2546232421875,13.59578521484375Q17.3713232421875,13.59578521484375,18.3289232421875,13.02125521484375L18.5093232421875,12.91298521484375L18.6898232421875,13.02124521484375Q19.6473232421875,13.59578521484375,20.7640232421875,13.59578521484375Q21.8807232421875,13.59578521484375,22.8382232421875,13.02125521484375L23.4688232421875,12.64287521484375Q23.5311232421875,12.60552521484375,23.5863232421875,12.558435214843751Q23.6416232421875,12.51134521484375,23.6883232421875,12.45578521484375Q23.7350232421875,12.40023521484375,23.7719232421875,12.33774521484375Q23.8089232421875,12.27525521484375,23.8350232421875,12.20753521484375Q23.8611232421875,12.13981521484375,23.8757232421875,12.06870521484375Q23.8904232421875,11.99760521484375,23.8930232421875,11.92506521484375Q23.8957232421875,11.85252521484375,23.8865232421875,11.78053521484375Q23.8772232421875,11.708545214843749,23.8561232421875,11.63907521484375L22.2861232421875,6.45218521484375Q22.0108232421875,5.54268521484375,21.2477232421875,4.97639021484375Q20.4847232421875,4.41009521484375,19.5344232421875,4.41009521484375L8.4655632421875,4.41009521484375Q7.5153032421875,4.41009521484375,6.7522232421875,4.97639021484375Q5.9891532421875,5.54268621484375,5.7138532421875,6.45218521484375ZM6.0164132421875,11.49319521484375L6.0621632421875,11.52064521484375Q7.2359932421875,12.224965214843749,8.409843242187499,11.52063521484375L9.040473242187499,11.14225521484375Q9.1424732421875,11.08106521484375,9.2570932421875,11.04931521484375Q9.3717232421875,11.01756521484375,9.4906632421875,11.01756521484375Q9.6096032421875,11.01756521484375,9.7242332421875,11.04931521484375Q9.8388532421875,11.08106521484375,9.940843242187501,11.14225521484375L10.571483242187501,11.52064521484375Q11.745333242187499,12.224965214843749,12.9191832421875,11.52063521484375L13.5498132421875,11.14225521484375Q13.6518032421875,11.08106521484375,13.7664332421875,11.04931521484375Q13.8810632421875,11.01756521484375,14.0000032421875,11.01756521484375Q14.1189432421875,11.01756521484375,14.2335632421875,11.04931521484375Q14.3481932421875,11.08106521484375,14.4501832421875,11.14225521484375L15.0808232421875,11.52064521484375Q16.2546232421875,12.224965214843749,17.428523242187502,11.52063521484375L18.0591232421875,11.14226521484375Q18.1611232421875,11.08106521484375,18.2757232421875,11.04931521484375Q18.390423242187502,11.01756521484375,18.5093232421875,11.01756521484375Q18.6283232421875,11.01756521484375,18.7429232421875,11.04931521484375Q18.8575232421875,11.08106521484375,18.9595232421875,11.14225521484375L19.590123242187502,11.52064521484375Q20.7640232421875,12.224965214843749,21.9378232421875,11.52063521484375L21.9836232421875,11.49320521484375L20.6112232421875,6.95917521484375Q20.369323242187498,6.16009521484375,19.5344232421875,6.16009521484375L8.4655632421875,6.16009521484375Q7.6306732421875,6.16009521484375,7.3888032421875,6.95917521484375L6.0164132421875,11.49319521484375Z" fill-rule="evenodd" fill="#8A8A8E" fill-opacity="1"/></g><g><path d="M20.3409107421875,12.794434070587158Q20.3409107421875,12.708254070587158,20.3577107421875,12.623730070587158Q20.3745107421875,12.539206070587158,20.407510742187497,12.459586070587159Q20.4405107421875,12.379966070587159,20.4883107421875,12.308310070587158Q20.5362107421875,12.236654070587159,20.5972107421875,12.175716070587159Q20.6581107421875,12.114777070587158,20.7298107421875,12.066898070587158Q20.8014107421875,12.019019070587158,20.8810107421875,11.986040070587158Q20.9607107421875,11.953060070587158,21.0452107421875,11.936247070587157Q21.1297107421875,11.919434070587158,21.2159107421875,11.919434070587158Q21.3021107421875,11.919434070587158,21.3866107421875,11.936247070587157Q21.4711107421875,11.953060070587158,21.550710742187498,11.986040070587158Q21.6303107421875,12.019019070587158,21.7020107421875,12.066898070587158Q21.7737107421875,12.114777070587158,21.8346107421875,12.175716070587159Q21.8955107421875,12.236654070587159,21.943410742187503,12.308310070587158Q21.9913107421875,12.379966070587159,22.024310742187502,12.459586070587159Q22.0573107421875,12.539206070587158,22.0741107421875,12.623730070587158Q22.0909107421875,12.708254070587158,22.0909107421875,12.794434070587158L22.0909107421875,20.714974070587157Q22.0909107421875,21.905844070587158,21.2488107421875,22.747914070587157Q20.4067107421875,23.58993407058716,19.2159107421875,23.58993407058716L8.7860107421875,23.58993407058716Q7.5951477421875,23.58993407058716,6.7530787421875,22.747914070587157Q5.9110107421875,21.905844070587158,5.9110107421875,20.714974070587157L5.9110107421875,13.014895070587158Q5.9110107421875,12.928715070587158,5.9278237421875,12.844191270587158Q5.9446367421875,12.759667170587159,5.9776167421875,12.680047070587158Q6.0105957421875,12.600427070587159,6.0584747421875,12.528771070587158Q6.1063537421875,12.457115070587157,6.1672927421875,12.396177070587159Q6.2282307421875,12.335238070587158,6.2998867421875,12.287359070587158Q6.3715427421875,12.239480070587158,6.4511627421875,12.206501070587159Q6.5307827421875,12.173521070587158,6.6153067421875,12.156708070587158Q6.6998307421875,12.139895070587158,6.7860107421875,12.139895070587158Q6.8721907421875,12.139895070587158,6.9567147421875,12.156708070587158Q7.0412387421875,12.173521070587158,7.1208587421875,12.206501070587159Q7.2004787421875,12.239480070587158,7.2721347421875,12.287359070587158Q7.3437907421875,12.335238070587158,7.4047287421875,12.396177070587159Q7.4656677421875,12.457115070587157,7.5135467421875,12.528771070587158Q7.5614257421875,12.600427070587159,7.5944047421875,12.680047070587158Q7.6273847421875,12.759667270587158,7.6441977421875,12.844191270587158Q7.6610107421875,12.928715070587158,7.6610107421875,13.014895070587158L7.6610107421875,20.714974070587157Q7.6610107421875,21.18096407058716,7.9905207421875,21.510474070587158Q8.3200207421875,21.83997407058716,8.7860107421875,21.83997407058716L19.2159107421875,21.83997407058716Q19.681910742187497,21.83997407058716,20.0114107421875,21.510474070587158Q20.3409107421875,21.18096407058716,20.3409107421875,20.714974070587157L20.3409107421875,12.794434070587158L20.3409107421875,12.794434070587158Z" fill-rule="evenodd" fill="#8A8A8E" fill-opacity="1"/></g></g></g></svg>