<svg xmlns="http://www.w3.org/2000/svg" xmlns:xlink="http://www.w3.org/1999/xlink" fill="none" version="1.1" width="48" height="48" viewBox="0 0 48 48"><defs><clipPath id="master_svg0_57640_193530"><rect x="0" y="0" width="48" height="48" rx="0"/></clipPath></defs><g clip-path="url(#master_svg0_57640_193530)"><g></g><g><g><path d="M21.084805468749998,8.208602905273438C16.440395468749998,8.208602905273438,12.67535546875,11.908862905273438,12.67535546875,16.47336290527344C12.67535546875,21.037902905273437,16.440395468749998,24.738102905273436,21.084805468749998,24.738102905273436C25.72920546875,24.738102905273436,29.49420546875,21.037902905273437,29.49420546875,16.47336290527344C29.49420546875,11.908862905273438,25.72920546875,8.208602905273438,21.084805468749998,8.208602905273438ZM40.67850546875,31.618902905273437C41.02780546875,32.20650290527344,41.02780546875,32.93060290527344,40.67850546875,33.51830290527344L37.896405468750004,38.19860290527343C37.547105468750004,38.78630290527344,36.90150546875,39.14830290527344,36.20280546875,39.14830290527344L30.63870546875,39.14830290527344C29.94000546875,39.14830290527344,29.29440546875,38.78630290527344,28.94510546875,38.19860290527343L26.16300546875,33.51830290527344C25.81370546875,32.93060290527344,25.81370546875,32.20650290527344,26.16300546875,31.618902905273437L28.94510546875,26.938502905273438C29.29440546875,26.350802905273436,29.94000546875,25.988802905273438,30.63870546875,25.988802905273438L36.20280546875,25.988802905273438C36.90150546875,25.988802905273438,37.547105468750004,26.350802905273436,37.896405468750004,26.938502905273438L40.67850546875,31.618902905273437ZM22.64630546875,27.315702905273437C22.13340546875,27.268002905273438,21.61250546875,27.243602905273438,21.085005468749998,27.243602905273438C14.50213546875,27.243602905273438,8.94596546875,31.05560290527344,7.19190246875,36.27290290527344C6.56511346875,38.13730290527344,8.23493546875,39.79130290527344,10.23278546875,39.79130290527344L25.74180546875,39.79130290527344C26.19990546875,39.79130290527344,26.47220546875,39.14120290527344,26.23890546875,38.74700290527343Q26.23510546875,38.74050290527344,26.23130546875,38.73410290527344L24.73070546875,36.17960290527344L24.64050546875,36.02610290527343L23.65810546875,34.353902905273436Q22.613905468749998,32.57630290527344,23.65810546875,30.798702905273437L23.98480546875,30.242602905273436C24.70340546875,29.019502905273438,24.05870546875,27.447102905273436,22.64630546875,27.315702905273437ZM36.24350546875,32.56860290527344C36.24350546875,34.08280290527344,34.97970546875,35.31030290527344,33.42070546875,35.31030290527344C31.86180546875,35.31030290527344,30.59800546875,34.08280290527344,30.59800546875,32.56860290527344C30.59800546875,31.054402905273438,31.86180546875,29.82690290527344,33.42070546875,29.82690290527344C34.97970546875,29.82690290527344,36.24350546875,31.054402905273438,36.24350546875,32.56860290527344Z" fill-rule="evenodd" fill="#087CCE" fill-opacity="1"/></g></g></g></svg>