<svg xmlns="http://www.w3.org/2000/svg" xmlns:xlink="http://www.w3.org/1999/xlink" fill="none" version="1.1" width="24" height="24" viewBox="0 0 24 24"><g><g></g><g><g transform="matrix(-1,0,0,-1,30.7689208984375,30.784027099609375)"><path d="M19.65678044921875,15.391394408804688L19.659180449218752,18.78631354980469L18.78418044921875,18.786933549804687L18.78480044921875,17.911933549804687L22.17972044921875,17.914333549804688Q22.265900449218748,17.914393549804686,22.35042044921875,17.931273549804686Q22.43493044921875,17.948143549804687,22.51452044921875,17.981173549804687Q22.59412044921875,18.014213549804687,22.66574044921875,18.062143549804688Q22.737360449218748,18.11007354980469,22.798260449218752,18.17105354980469Q22.85915044921875,18.232033549804687,22.90698044921875,18.303723549804687Q22.95481044921875,18.375413549804687,22.987730449218752,18.455063549804688Q23.02066044921875,18.53470354980469,23.03741044921875,18.619243549804686Q23.05416044921875,18.703773549804687,23.05410044921875,18.789953549804686Q23.05404044921875,18.876053549804688,23.03720044921875,18.96049354980469Q23.02036044921875,19.04493354980469,22.98738044921875,19.124473549804687Q22.95440044921875,19.20400354980469,22.90655044921875,19.275593549804686Q22.858710449218748,19.347173549804687,22.79782044921875,19.408053549804688Q22.73694044921875,19.46893354980469,22.66536044921875,19.516783549804686Q22.593780449218748,19.56463354980469,22.51424044921875,19.597613549804688Q22.43470044921875,19.630593549804686,22.35026044921875,19.64743354980469Q22.26583044921875,19.664273549804687,22.17972044921875,19.664333549804688L18.78480044921875,19.66673354980469L18.78418044921875,18.791733549804686L19.659180449218752,18.792353549804687L19.65678044921875,22.187273549804686Q19.65672044921875,22.273453549804685,19.63985044921875,22.357973549804687Q19.62298044921875,22.442483549804688,19.58994044921875,22.522073549804688Q19.55690044921875,22.601673549804687,19.50897044921875,22.673293549804686Q19.46104044921875,22.744913549804686,19.40006044921875,22.80581354980469Q19.33908044921875,22.866703549804686,19.26739044921875,22.914533549804688Q19.19570044921875,22.96236354980469,19.11606044921875,22.99528354980469Q19.03641044921875,23.028213549804686,18.95188044921875,23.044963549804688Q18.86734044921875,23.061713549804686,18.78116044921875,23.06165354980469Q18.69506044921875,23.061593549804687,18.61062044921875,23.04475354980469Q18.52618044921875,23.027913549804687,18.44665044921875,22.99493354980469Q18.36711044921875,22.961953549804687,18.29553044921875,22.914103549804686Q18.22395044921875,22.866263549804685,18.16306044921875,22.80537354980469Q18.10218044921875,22.744493549804687,18.05433044921875,22.672913549804687Q18.00648044921875,22.601333549804686,17.97351044921875,22.521793549804688Q17.94053044921875,22.442253549804686,17.92369044921875,22.35781354980469Q17.90684044921875,22.273383549804688,17.90678044921875,22.187273549804686L17.90438044921875,18.792353549804687L18.77938044921875,18.791733549804686L18.77876044921875,19.66673354980469L15.38384130821875,19.664333549804688Q15.29766134921875,19.664273549804687,15.21314944921875,19.647403549804686Q15.12863744921875,19.63053354980469,15.04904044921875,19.59749354980469Q14.96944444921875,19.56445354980469,14.89782144921875,19.51652354980469Q14.82619944921875,19.468593549804687,14.76530444921875,19.407613549804687Q14.70440944921875,19.346633549804686,14.65658044921875,19.27494354980469Q14.60875244921875,19.20325354980469,14.57582944921875,19.123613549804688Q14.54290544921875,19.043963549804687,14.52615244921875,18.959433549804686Q14.50939944921875,18.87489354980469,14.50946044921875,18.788713549804687Q14.50952144921875,18.70261354980469,14.52636344921875,18.618173549804688Q14.54320644921875,18.533733549804687,14.57618444921875,18.45420354980469Q14.60916244921875,18.374663549804687,14.65701044921875,18.303083549804686Q14.70485844921875,18.23150354980469,14.76574144921875,18.17061354980469Q14.82662544921875,18.109733549804687,14.89820744921875,18.061883549804687Q14.96979044921875,18.014033549804687,15.04932644921875,17.981063549804688Q15.128862449218751,17.948083549804686,15.21330144921875,17.931243549804687Q15.29773944921875,17.914393549804686,15.38384130821875,17.914333549804688L18.77876044921875,17.911933549804687L18.77938044921875,18.786933549804687L17.90438044921875,18.78631354980469L17.90678044921875,15.391394408804688Q17.90684044921875,15.305214449804687,17.92372044921875,15.220702549804688Q17.94059044921875,15.136190549804688,17.97362044921875,15.056593549804688Q18.00666044921875,14.976997549804688,18.05459044921875,14.905374549804687Q18.10252044921875,14.833752549804688,18.163500449218752,14.772857549804687Q18.22448044921875,14.711962549804687,18.29617044921875,14.664133549804687Q18.36786044921875,14.616305549804688,18.44751044921875,14.583382549804687Q18.52715044921875,14.550458549804688,18.61169044921875,14.533705549804688Q18.69622044921875,14.516952549804687,18.78240044921875,14.517013549804688Q18.86850044921875,14.517074549804688,18.95294044921875,14.533916549804687Q19.03738044921875,14.550759549804688,19.11692044921875,14.583737549804688Q19.19645044921875,14.616715549804688,19.26804044921875,14.664563549804688Q19.33962044921875,14.712411549804688,19.40050044921875,14.773294549804687Q19.46138044921875,14.834178549804687,19.509230449218748,14.905760549804688Q19.557080449218752,14.977343549804688,19.59006044921875,15.056879549804687Q19.62304044921875,15.136415549804688,19.63988044921875,15.220854549804688Q19.65672044921875,15.305292549804687,19.65678044921875,15.391394408804688ZM17.90678044921875,15.392632690804687L18.78178044921875,15.392013549804688L19.65678044921875,15.392632690804687L19.65438044921875,18.787553549804688Q19.65432044921875,18.873653549804686,19.63748044921875,18.958093549804687Q19.62063044921875,19.042533549804688,19.58766044921875,19.122063549804686Q19.55468044921875,19.201603549804688,19.50683044921875,19.27318354980469Q19.45898044921875,19.34477354980469,19.39810044921875,19.405653549804686Q19.33722044921875,19.466533549804687,19.26563044921875,19.514383549804688Q19.19405044921875,19.562233549804688,19.11451044921875,19.595213549804686Q19.03498044921875,19.62818354980469,18.95054044921875,19.645033549804687Q18.86610044921875,19.66187354980469,18.78000044921875,19.661933549804687L15.38507959021875,19.664333549804688L15.384460449218752,18.789333549804688L15.38507959021875,17.914333549804688L18.78000044921875,17.916733549804686Q18.86610044921875,17.916803549804687,18.95054044921875,17.93364354980469Q19.03498044921875,17.950483549804687,19.11451044921875,17.98346354980469Q19.19405044921875,18.016443549804688,19.26563044921875,18.06428354980469Q19.33722044921875,18.11213354980469,19.39810044921875,18.17302354980469Q19.45898044921875,18.233903549804687,19.50683044921875,18.305483549804688Q19.55468044921875,18.37706354980469,19.58766044921875,18.456603549804687Q19.62063044921875,18.536143549804688,19.63748044921875,18.62058354980469Q19.65432044921875,18.705013549804686,19.65438044921875,18.791123549804688L19.65678044921875,22.186043549804687L18.78178044921875,22.18665354980469L17.90678044921875,22.186043549804687L17.90918044921875,18.791123549804688Q17.90925044921875,18.705013549804686,17.92609044921875,18.62058354980469Q17.94293044921875,18.536143549804688,17.975910449218752,18.456603549804687Q18.00889044921875,18.37706354980469,18.05673044921875,18.305483549804688Q18.10458044921875,18.233903549804687,18.165470449218752,18.17302354980469Q18.22635044921875,18.11213354980469,18.29793044921875,18.064293549804688Q18.36951044921875,18.016443549804688,18.44905044921875,17.98346354980469Q18.52859044921875,17.950483549804687,18.61303044921875,17.93364354980469Q18.69746044921875,17.916803549804687,18.78357044921875,17.916733549804686L22.17849044921875,17.914333549804688L22.17910044921875,18.789333549804688L22.17849044921875,19.664333549804688L18.78357044921875,19.661933549804687Q18.69746044921875,19.66187354980469,18.61303044921875,19.645033549804687Q18.52859044921875,19.62818354980469,18.44905044921875,19.595213549804686Q18.36951044921875,19.562233549804688,18.29793044921875,19.514383549804688Q18.22635044921875,19.466533549804687,18.165470449218752,19.405653549804686Q18.10458044921875,19.34477354980469,18.05674044921875,19.27318354980469Q18.00889044921875,19.201603549804688,17.975910449218752,19.122063549804686Q17.94293044921875,19.042533549804688,17.92609044921875,18.958093549804687Q17.90925044921875,18.873653549804686,17.90918044921875,18.787553549804688L17.90678044921875,15.392632690804687Z" fill="#8A8A8E" fill-opacity="1"/></g><g><ellipse cx="11.987468719482422" cy="11.99453353881836" rx="9.020000457763672" ry="9.020000457763672" fill-opacity="0" stroke-opacity="1" stroke="#8A8A8E" fill="none" stroke-width="1.75"/></g></g></g></svg>