<svg xmlns="http://www.w3.org/2000/svg" xmlns:xlink="http://www.w3.org/1999/xlink" fill="none" version="1.1" width="24" height="24" viewBox="0 0 24 24"><g><g><g><path d="M13.560546875,12.78955078125L20.322386875,12.78955078125Q20.408566874999998,12.78955078125,20.493086875,12.806363781249999Q20.577616875,12.82317678125,20.657236875,12.85615678125Q20.736856875,12.88913578125,20.808506875,12.93701478125Q20.880166875,12.98489378125,20.941106875,13.04583278125Q21.002046874999998,13.10677078125,21.049926875,13.17842678125Q21.097796875,13.25008278125,21.130776875,13.32970278125Q21.163756875,13.40932278125,21.180576875,13.49384678125Q21.197386875,13.57837078125,21.197386875,13.66455078125Q21.197386875,13.75073078125,21.180576875,13.83525478125Q21.163756875,13.91977878125,21.130776875,13.99939878125Q21.097796875,14.07901878125,21.049926875,14.15067478125Q21.002046874999998,14.22233078125,20.941106875,14.28326878125Q20.880166875,14.34420778125,20.808506875,14.39208678125Q20.736856875,14.43996578125,20.657236875,14.47294478125Q20.577616875,14.50592478125,20.493086875,14.522737781250001Q20.408566874999998,14.53955078125,20.322386875,14.53955078125L13.560546875,14.53955078125Q13.474366875,14.53955078125,13.389842875,14.522737781250001Q13.305318875,14.50592478125,13.225698875,14.47294478125Q13.146078875,14.43996578125,13.074422875,14.39208678125Q13.002766875,14.34420778125,12.941828875,14.28326878125Q12.880889875,14.22233078125,12.833010875,14.15067478125Q12.785131875,14.07901878125,12.752152875,13.99939878125Q12.719172875,13.91977878125,12.702359874999999,13.83525478125Q12.685546875,13.75073078125,12.685546875,13.66455078125Q12.685546875,13.57837078125,12.702359874999999,13.49384678125Q12.719172875,13.40932278125,12.752152875,13.32970278125Q12.785131875,13.25008278125,12.833010875,13.17842678125Q12.880889875,13.10677078125,12.941828875,13.04583278125Q13.002766875,12.98489378125,13.074422875,12.93701478125Q13.146078875,12.88913578125,13.225698875,12.85615678125Q13.305318875,12.82317678125,13.389842875,12.806363781249999Q13.474366875,12.78955078125,13.560546875,12.78955078125Z" fill-rule="evenodd" fill="#121212" fill-opacity="1"/></g><g><path d="M13.560546875,16.16793155670166L18.637126875,16.16793155670166Q18.723306875,16.16793155670166,18.807836875,16.18474455670166Q18.892356875,16.201557556701662,18.971976875,16.23453755670166Q19.051596875,16.26751655670166,19.123256875,16.31539555670166Q19.194906875,16.36327455670166,19.255846875,16.42421355670166Q19.316786875,16.48515155670166,19.364666875,16.55680755670166Q19.412546875,16.62846355670166,19.445526875,16.70808355670166Q19.478506875,16.78770355670166,19.495316875,16.87222755670166Q19.512126875,16.95675155670166,19.512126875,17.04293155670166Q19.512126875,17.12911155670166,19.495316875,17.21363555670166Q19.478506875,17.29815955670166,19.445526875,17.37777955670166Q19.412546875,17.45739955670166,19.364666875,17.52905555670166Q19.316786875,17.60071155670166,19.255846875,17.66164955670166Q19.194906875,17.72258855670166,19.123256875,17.77046755670166Q19.051596875,17.81834655670166,18.971976875,17.85132555670166Q18.892356875,17.88430555670166,18.807836875,17.90111855670166Q18.723306875,17.91793155670166,18.637126875,17.91793155670166L13.560546875,17.91793155670166Q13.474366875,17.91793155670166,13.389842875,17.90111855670166Q13.305318875,17.88430555670166,13.225698875,17.85132555670166Q13.146078875,17.81834655670166,13.074422875,17.77046755670166Q13.002766875,17.72258855670166,12.941828875,17.66164955670166Q12.880889875,17.60071155670166,12.833010875,17.52905555670166Q12.785131875,17.45739955670166,12.752152875,17.37777955670166Q12.719172875,17.29815955670166,12.702359874999999,17.21363555670166Q12.685546875,17.12911155670166,12.685546875,17.04293155670166Q12.685546875,16.95675155670166,12.702359874999999,16.87222755670166Q12.719172875,16.78770355670166,12.752152875,16.70808355670166Q12.785131875,16.62846355670166,12.833010875,16.55680755670166Q12.880889875,16.48515155670166,12.941828875,16.42421355670166Q13.002766875,16.36327455670166,13.074422875,16.31539555670166Q13.146078875,16.26751655670166,13.225698875,16.23453755670166Q13.305318875,16.201557556701662,13.389842875,16.18474455670166Q13.474366875,16.16793155670166,13.560546875,16.16793155670166Z" fill-rule="evenodd" fill="#121212" fill-opacity="1"/></g><g><path d="M13.560546875,19.54631233215332L16.941466875,19.54631233215332Q17.027646875,19.54631233215332,17.112166875,19.56312533215332Q17.196696875,19.579938332153322,17.276316875,19.61291833215332Q17.355936875,19.64589733215332,17.427586875,19.69377633215332Q17.499246875,19.74165533215332,17.560186875,19.80259433215332Q17.621126875,19.86353233215332,17.669006875,19.93518833215332Q17.716876875,20.00684433215332,17.749856875,20.08646433215332Q17.782836875,20.16608433215332,17.799656875,20.25060833215332Q17.816466875,20.33513233215332,17.816466875,20.42131233215332Q17.816466875,20.50749233215332,17.799656875,20.59201633215332Q17.782836875,20.67654033215332,17.749856875,20.75616033215332Q17.716876875,20.83578033215332,17.669006875,20.90743633215332Q17.621126875,20.97909233215332,17.560186875,21.04003033215332Q17.499246875,21.10096933215332,17.427586875,21.14884833215332Q17.355936875,21.19672733215332,17.276316875,21.22970633215332Q17.196696875,21.26268633215332,17.112166875,21.27949933215332Q17.027646875,21.29631233215332,16.941466875,21.29631233215332L13.560546875,21.29631233215332Q13.474366875,21.29631233215332,13.389842875,21.27949933215332Q13.305318875,21.26268633215332,13.225698875,21.22970633215332Q13.146078875,21.19672733215332,13.074422875,21.14884833215332Q13.002766875,21.10096933215332,12.941828875,21.04003033215332Q12.880889875,20.97909233215332,12.833010875,20.90743633215332Q12.785131875,20.83578033215332,12.752152875,20.75616033215332Q12.719172875,20.67654033215332,12.702359874999999,20.59201633215332Q12.685546875,20.50749233215332,12.685546875,20.42131233215332Q12.685546875,20.33513233215332,12.702359874999999,20.25060833215332Q12.719172875,20.16608433215332,12.752152875,20.08646433215332Q12.785131875,20.00684433215332,12.833010875,19.93518833215332Q12.880889875,19.86353233215332,12.941828875,19.80259433215332Q13.002766875,19.74165533215332,13.074422875,19.69377633215332Q13.146078875,19.64589733215332,13.225698875,19.61291833215332Q13.305318875,19.579938332153322,13.389842875,19.56312533215332Q13.474366875,19.54631233215332,13.560546875,19.54631233215332Z" fill-rule="evenodd" fill="#121212" fill-opacity="1"/></g></g><g><rect x="3.677734375" y="3.58349609375" width="6.7618408203125" height="6.7618408203125" rx="1" fill-opacity="0" stroke-opacity="1" stroke="#121212" fill="none" stroke-width="1.75" stroke-linecap="ROUND"/></g><g><rect x="3.677734375" y="13.66455078125" width="6.7618408203125" height="6.7618408203125" rx="1" fill-opacity="0" stroke-opacity="1" stroke="#121212" fill="none" stroke-width="1.75" stroke-linecap="ROUND"/></g><g><rect x="13.560546875" y="3.58349609375" width="6.7618408203125" height="6.7618408203125" rx="1" fill-opacity="0" stroke-opacity="1" stroke="#121212" fill="none" stroke-width="1.75" stroke-linecap="ROUND"/></g></g></svg>