<svg xmlns="http://www.w3.org/2000/svg" xmlns:xlink="http://www.w3.org/1999/xlink" fill="none" version="1.1" width="24" height="24" viewBox="0 0 24 24"><g><g><g><g><path d="M11.0380859375,3.0299072265625L21.0380859375,3.0299072265625Q21.124285937499998,3.0299072265625,21.2087859375,3.0467202265625Q21.293285937500002,3.0635332265625,21.3728859375,3.0965132265625Q21.4525859375,3.1294922265625003,21.5241859375,3.1773712265625003Q21.5958859375,3.2252502265625003,21.6567859375,3.2861892265625Q21.7177859375,3.3471272265625,21.7655859375,3.4187832265624998Q21.813485937499998,3.4904392265625,21.8464859375,3.5700592265625Q21.8794859375,3.6496792265625,21.8962859375,3.7342032265625Q21.9130859375,3.8187272265625,21.9130859375,3.9049072265625Q21.9130859375,3.9910872265625,21.8962859375,4.0756112265625Q21.8794859375,4.1601352265625,21.8464859375,4.2397552265625Q21.813485937499998,4.3193752265625,21.7655859375,4.3910312265625Q21.7177859375,4.4626872265625,21.6567859375,4.5236252265625Q21.5958859375,4.5845642265625,21.5241859375,4.6324432265625Q21.4525859375,4.6803222265625,21.3728859375,4.7133012265625Q21.293285937500002,4.7462812265625,21.2087859375,4.7630942265625Q21.124285937499998,4.7799072265625,21.0380859375,4.7799072265625L11.0380859375,4.7799072265625Q10.9519059375,4.7799072265625,10.8673819375,4.7630942265625Q10.7828579375,4.7462812265625,10.7032379375,4.7133012265625Q10.6236179375,4.6803222265625,10.5519619375,4.6324432265625Q10.4803059375,4.5845642265625,10.4193679375,4.5236252265625Q10.3584289375,4.4626872265625,10.3105499375,4.3910312265625Q10.2626709375,4.3193752265625,10.2296919375,4.2397552265625Q10.1967119375,4.1601352265625,10.179898937499999,4.0756112265625Q10.1630859375,3.9910872265625,10.1630859375,3.9049072265625Q10.1630859375,3.8187272265625,10.179898937499999,3.7342032265625Q10.1967119375,3.6496792265625,10.2296919375,3.5700592265625Q10.2626709375,3.4904392265625,10.3105499375,3.4187832265624998Q10.3584289375,3.3471272265625,10.4193679375,3.2861892265625Q10.4803059375,3.2252502265625003,10.5519619375,3.1773712265625003Q10.6236179375,3.1294922265625003,10.7032379375,3.0965132265625Q10.7828579375,3.0635332265625,10.8673819375,3.0467202265625Q10.9519059375,3.0299072265625,11.0380859375,3.0299072265625Z" fill-rule="evenodd" fill="#121212" fill-opacity="1"/></g><g><path d="M11.0380859375,8.4268798828125L18.5380859375,8.4268798828125Q18.6242659375,8.4268798828125,18.7087859375,8.443692882812499Q18.7933159375,8.4605058828125,18.8729359375,8.4934858828125Q18.9525559375,8.5264648828125,19.0242059375,8.5743438828125Q19.0958659375,8.6222228828125,19.1568059375,8.6831618828125Q19.2177459375,8.7440998828125,19.265625937499998,8.8157558828125Q19.3134959375,8.8874118828125,19.3464759375,8.9670318828125Q19.379455937499998,9.0466518828125,19.3962759375,9.1311758828125Q19.4130859375,9.2156998828125,19.4130859375,9.3018798828125Q19.4130859375,9.3880598828125,19.3962759375,9.4725838828125Q19.379455937499998,9.5571078828125,19.3464759375,9.6367278828125Q19.3134959375,9.7163478828125,19.2656159375,9.7880038828125Q19.2177459375,9.8596598828125,19.1568059375,9.9205978828125Q19.0958659375,9.9815368828125,19.0242059375,10.0294158828125Q18.9525559375,10.0772948828125,18.8729359375,10.1102738828125Q18.7933159375,10.1432538828125,18.7087859375,10.160066882812501Q18.6242659375,10.1768798828125,18.5380859375,10.1768798828125L11.0380859375,10.1768798828125Q10.9519059375,10.1768798828125,10.8673819375,10.160066882812501Q10.7828579375,10.1432538828125,10.7032379375,10.1102738828125Q10.6236179375,10.0772948828125,10.5519619375,10.0294158828125Q10.4803059375,9.9815368828125,10.4193679375,9.9205978828125Q10.3584289375,9.8596598828125,10.3105499375,9.7880038828125Q10.2626709375,9.7163478828125,10.2296919375,9.6367278828125Q10.1967119375,9.5571078828125,10.179898937499999,9.4725838828125Q10.1630859375,9.3880598828125,10.1630859375,9.3018798828125Q10.1630859375,9.2156998828125,10.179898937499999,9.1311758828125Q10.1967119375,9.0466518828125,10.2296919375,8.9670318828125Q10.2626709375,8.8874118828125,10.3105499375,8.8157558828125Q10.3584289375,8.7440998828125,10.4193679375,8.6831618828125Q10.4803059375,8.6222228828125,10.5519619375,8.5743438828125Q10.6236179375,8.5264648828125,10.7032379375,8.4934858828125Q10.7828579375,8.4605058828125,10.8673819375,8.443692882812499Q10.9519059375,8.4268798828125,11.0380859375,8.4268798828125Z" fill-rule="evenodd" fill="#121212" fill-opacity="1"/></g><g><path d="M11.0380859375,13.823407173156738L16.0380859375,13.823407173156738Q16.1242659375,13.823407173156738,16.2087859375,13.840220173156737Q16.2933159375,13.857033173156738,16.3729359375,13.890013173156738Q16.4525559375,13.922992173156738,16.5242059375,13.970871173156738Q16.5958659375,14.018750173156738,16.6568059375,14.079689173156739Q16.7177459375,14.140627173156739,16.7656259375,14.212283173156738Q16.8134959375,14.283939173156739,16.8464759375,14.36355917315674Q16.8794559375,14.443179173156738,16.8962759375,14.527703173156738Q16.9130859375,14.612227173156738,16.9130859375,14.698407173156738Q16.9130859375,14.784587173156739,16.8962759375,14.869111173156739Q16.8794559375,14.953635173156739,16.8464759375,15.033255173156737Q16.8134959375,15.112875173156738,16.7656259375,15.184531173156739Q16.7177459375,15.256187173156738,16.6568059375,15.317125173156738Q16.5958659375,15.378064173156739,16.5242059375,15.425943173156739Q16.4525559375,15.473822173156739,16.3729359375,15.506801173156738Q16.2933159375,15.539781173156738,16.2087859375,15.55659417315674Q16.1242659375,15.573407173156738,16.0380859375,15.573407173156738L11.0380859375,15.573407173156738Q10.9519059375,15.573407173156738,10.8673819375,15.55659417315674Q10.7828579375,15.539781173156738,10.7032379375,15.506801173156738Q10.6236179375,15.473822173156739,10.5519619375,15.425943173156739Q10.4803059375,15.378064173156739,10.4193679375,15.317125173156738Q10.3584289375,15.256187173156738,10.3105499375,15.184531173156739Q10.2626709375,15.112875173156738,10.2296919375,15.033255173156737Q10.1967119375,14.953635173156739,10.179898937499999,14.869111173156739Q10.1630859375,14.784587173156739,10.1630859375,14.698407173156738Q10.1630859375,14.612227173156738,10.179898937499999,14.527703173156738Q10.1967119375,14.443179173156738,10.2296919375,14.36355917315674Q10.2626709375,14.283939173156739,10.3105499375,14.212283173156738Q10.3584289375,14.140627173156739,10.4193679375,14.079689173156739Q10.4803059375,14.018750173156738,10.5519619375,13.970871173156738Q10.6236179375,13.922992173156738,10.7032379375,13.890013173156738Q10.7828579375,13.857033173156738,10.8673819375,13.840220173156737Q10.9519059375,13.823407173156738,11.0380859375,13.823407173156738Z" fill-rule="evenodd" fill="#121212" fill-opacity="1"/></g><g><path d="M11.0380859375,19.2203369140625L13.5380859375,19.2203369140625Q13.6242659375,19.2203369140625,13.7087859375,19.2371499140625Q13.793315937500001,19.2539629140625,13.8729359375,19.2869429140625Q13.9525559375,19.3199219140625,14.0242059375,19.3678009140625Q14.095865937500001,19.4156799140625,14.1568059375,19.4766189140625Q14.2177459375,19.5375569140625,14.2656259375,19.6092129140625Q14.3134959375,19.6808689140625,14.3464759375,19.7604889140625Q14.3794559375,19.8401089140625,14.3962759375,19.9246329140625Q14.4130859375,20.0091569140625,14.4130859375,20.0953369140625Q14.4130859375,20.1815169140625,14.3962759375,20.2660409140625Q14.3794559375,20.3505649140625,14.3464759375,20.4301849140625Q14.3134959375,20.5098049140625,14.2656259375,20.5814609140625Q14.2177459375,20.6531169140625,14.1568059375,20.7140549140625Q14.095865937500001,20.7749939140625,14.0242059375,20.8228729140625Q13.9525559375,20.8707519140625,13.8729359375,20.9037309140625Q13.793315937500001,20.9367109140625,13.7087859375,20.9535239140625Q13.6242659375,20.9703369140625,13.5380859375,20.9703369140625L11.0380859375,20.9703369140625Q10.9519059375,20.9703369140625,10.8673819375,20.9535239140625Q10.7828579375,20.9367109140625,10.7032379375,20.9037309140625Q10.6236179375,20.8707519140625,10.5519619375,20.8228729140625Q10.4803059375,20.7749939140625,10.4193679375,20.7140549140625Q10.3584289375,20.6531169140625,10.3105499375,20.5814609140625Q10.2626709375,20.5098049140625,10.2296919375,20.4301849140625Q10.1967119375,20.3505649140625,10.179898937499999,20.2660409140625Q10.1630859375,20.1815169140625,10.1630859375,20.0953369140625Q10.1630859375,20.0091569140625,10.179898937499999,19.9246329140625Q10.1967119375,19.8401089140625,10.2296919375,19.7604889140625Q10.2626709375,19.6808689140625,10.3105499375,19.6092129140625Q10.3584289375,19.5375569140625,10.4193679375,19.4766189140625Q10.4803059375,19.4156799140625,10.5519619375,19.3678009140625Q10.6236179375,19.3199219140625,10.7032379375,19.2869429140625Q10.7828579375,19.2539629140625,10.8673819375,19.2371499140625Q10.9519059375,19.2203369140625,11.0380859375,19.2203369140625Z" fill-rule="evenodd" fill="#121212" fill-opacity="1"/></g></g><g transform="matrix(0,1,-1,0,11.00433349609375,-4.75347900390625)"><path d="M22.555006249999998,3.74347724609375Q22.43220625,3.6204472460937502,22.36580625,3.4598382460937502Q22.29940625,3.29923024609375,22.29940625,3.12542724609375Q22.29940625,3.03924724609375,22.31620625,2.95472324609375Q22.33300625,2.87019924609375,22.366006249999998,2.79057924609375Q22.39900625,2.71095924609375,22.44680625,2.6393032460937498Q22.49470625,2.56764724609375,22.55570625,2.50670924609375Q22.61660625,2.4457702460937503,22.68820625,2.3978912460937503Q22.75990625,2.3500122460937503,22.83950625,2.31703324609375Q22.91910625,2.28405324609375,23.00370625,2.26724024609375Q23.08820625,2.25042724609375,23.17440625,2.25042724609375Q23.34870625,2.25042724609375,23.50970625,2.31721424609375Q23.67060625,2.38400024609375,23.79380625,2.50737824609375L26.24740625,4.96636724609375Q26.30820625,5.02727724609375,26.35600625,5.09887724609375Q26.40370625,5.17047724609375,26.43660625,5.24999724609375Q26.46950625,5.32952724609375,26.48630625,5.4139372460937505Q26.50300625,5.498347246093751,26.50300625,5.58440724609375Q26.50300625,5.67047724609375,26.48630625,5.75488724609375Q26.46950625,5.83929724609375,26.43660625,5.91882724609375Q26.40370625,5.998347246093751,26.35600625,6.06994724609375Q26.30820625,6.141537246093749,26.24740625,6.202457246093751L23.79380625,8.66144724609375Q23.67060625,8.78482724609375,23.50970625,8.85160724609375Q23.34870625,8.91839724609375,23.17440625,8.91839724609375Q23.08820625,8.91839724609375,23.00370625,8.901577246093751Q22.91910625,8.88476724609375,22.83950625,8.85178724609375Q22.75990625,8.818807246093751,22.68820625,8.77092724609375Q22.61660625,8.72304724609375,22.55570625,8.66211724609375Q22.49470625,8.60117724609375,22.44680625,8.52951724609375Q22.39900625,8.45786724609375,22.366006249999998,8.37824724609375Q22.33300625,8.29862724609375,22.31620625,8.21409724609375Q22.29940625,8.12957724609375,22.29940625,8.04339724609375Q22.29940625,7.86959724609375,22.36580625,7.70898724609375Q22.43220625,7.54837724609375,22.555006249999998,7.42534724609375L22.55590625,7.42445724609375L23.51880625,6.45940724609375L7.87890625,6.45940724609375Q7.79272625,6.45940724609375,7.70820225,6.44259724609375Q7.62367825,6.4257872460937495,7.54405825,6.39280724609375Q7.46443825,6.35982724609375,7.39278225,6.31194724609375Q7.32112625,6.2640672460937505,7.26018825,6.20312724609375Q7.19924925,6.14218724609375,7.15137025,6.07053724609375Q7.10349125,5.99887724609375,7.07051225,5.91925724609375Q7.03753225,5.83963724609375,7.02071925,5.75511724609375Q7.00390625,5.67058724609375,7.00390625,5.58440724609375Q7.00390625,5.49822724609375,7.02071925,5.41370724609375Q7.03753225,5.32918724609375,7.07051225,5.249567246093751Q7.10349125,5.16994724609375,7.15137025,5.09828724609375Q7.19924925,5.02662724609375,7.26018825,4.96569724609375Q7.32112625,4.90475724609375,7.39278225,4.85687724609375Q7.46443825,4.80899724609375,7.54405825,4.77601724609375Q7.62367825,4.74303724609375,7.70820225,4.72622724609375Q7.79272625,4.70940724609375,7.87890625,4.70940724609375L7.879362995,4.70940724609375L23.51880625,4.70940724609375L22.55580625,3.74432324609375L22.555006249999998,3.74347624609375L22.555006249999998,3.74347724609375Z" fill-rule="evenodd" fill="#121212" fill-opacity="1"/></g></g></g></svg>