<svg xmlns="http://www.w3.org/2000/svg" xmlns:xlink="http://www.w3.org/1999/xlink" fill="none" version="1.1" width="20" height="20" viewBox="0 0 20 20"><defs><clipPath id="master_svg0_41292_143591"><rect x="3.5" y="3.5" width="13" height="13" rx="0"/></clipPath></defs><g><g><path d="M9.86369,0L10.1363,0L10,0C4.47715,0,0,4.47715,0,10C0,15.5228,4.47715,20,10,20L10.1363,20L9.86368,20L10,20C15.5228,20,20,15.5228,20,10C20,4.47715,15.5228,0,10,0L9.86369,0Z" fill="#80D8D0" fill-opacity="1"/></g><g clip-path="url(#master_svg0_41292_143591)"><g><path d="M3.983343505859375,7.02099609375L3.983343505859375,13.52099609375Q3.983343505859375,13.580086093750001,3.994872505859375,13.638046093749999Q4.006401505859375,13.69600609375,4.029015505859375,13.750606093750001Q4.051630505859375,13.80520609375,4.084461505859375,13.85433609375Q4.117293505859375,13.903476093750001,4.159079505859375,13.94525609375Q4.200865505859375,13.98704609375,4.250001505859375,14.01987609375Q4.299136505859375,14.05270609375,4.353733505859375,14.07532609375Q4.408329505859375,14.09793609375,4.466289505859375,14.109466093750001Q4.5242487058593746,14.12099609375,4.583343505859375,14.12099609375L15.416643505859374,14.12099609375Q15.475743505859375,14.12099609375,15.533743505859375,14.109466093750001Q15.591643505859375,14.09793609375,15.646243505859376,14.07532609375Q15.700843505859375,14.05270609375,15.750043505859376,14.01987609375Q15.799143505859375,13.98704609375,15.840943505859375,13.94525609375Q15.882743505859375,13.903476093750001,15.915543505859375,13.85433609375Q15.948343505859375,13.80520609375,15.971043505859376,13.750606093750001Q15.993643505859374,13.69600609375,16.005143505859373,13.638046093749999Q16.016643505859374,13.580086093750001,16.016643505859374,13.52099609375L16.016643505859374,7.02099609375Q16.016643505859374,6.9619012937499996,16.005143505859373,6.90394209375Q15.993643505859374,6.84598209375,15.971043505859376,6.79138609375Q15.948343505859375,6.73678909375,15.915543505859375,6.68765409375Q15.882743505859375,6.63851809375,15.840943505859375,6.59673209375Q15.799143505859375,6.55494609375,15.750043505859376,6.52211409375Q15.700843505859375,6.48928309375,15.646243505859376,6.46666809375Q15.591643505859375,6.44405409375,15.533743505859375,6.43252509375Q15.475743505859375,6.42099609375,15.416643505859374,6.42099609375L4.583343505859375,6.42099609375Q4.5242487058593746,6.42099609375,4.466289505859375,6.43252509375Q4.408329505859375,6.44405409375,4.353733505859375,6.46666809375Q4.299136505859375,6.48928309375,4.250001505859375,6.52211409375Q4.200865505859375,6.55494609375,4.159079505859375,6.59673209375Q4.117293505859375,6.63851809375,4.084461505859375,6.68765409375Q4.051630505859375,6.73678909375,4.029015505859375,6.79138609375Q4.006401505859375,6.84598209375,3.994872505859375,6.90394209375Q3.983343505859375,6.9619012937499996,3.983343505859375,7.02099609375ZM5.183343505859375,12.92099609375L5.183343505859375,7.62099609375L14.816643505859375,7.62099609375L14.816643505859375,12.92099609375L5.183343505859375,12.92099609375Z" fill-rule="evenodd" fill="#FFFFFF" fill-opacity="1"/></g><g><path d="M4.583343505859375,6.42099609375Q4.5242487058593746,6.42099609375,4.466289505859375,6.43252509375Q4.408329505859375,6.44405409375,4.353733505859375,6.46666809375Q4.299136505859375,6.48928309375,4.250001505859375,6.52211409375Q4.200865505859375,6.55494609375,4.159079505859375,6.59673209375Q4.117293505859375,6.63851809375,4.084461505859375,6.68765409375Q4.051630505859375,6.73678909375,4.029015505859375,6.79138609375Q4.006401505859375,6.84598209375,3.994872505859375,6.90394209375Q3.983343505859375,6.9619012937499996,3.983343505859375,7.02099609375L3.983343505859375,9.18766609375Q3.983343505859375,9.246756093750001,3.994872505859375,9.30471609375Q4.006401505859375,9.36267609375,4.029015505859375,9.41727609375Q4.051630505859375,9.47186609375,4.084461505859375,9.52100609375Q4.117293505859375,9.57013609375,4.159079505859375,9.61192609375Q4.200865505859375,9.653716093749999,4.250001505859375,9.68654609375Q4.299136505859375,9.71937609375,4.353733505859375,9.74198609375Q4.408329505859375,9.76460609375,4.466289505859375,9.77613609375Q4.5242487058593746,9.78766609375,4.583343505859375,9.78766609375Q5.729333505859375,9.78766609375,6.5396735058593745,8.97732609375Q7.3500135058593745,8.16698609375,7.3500135058593745,7.02099609375Q7.3500135058593745,6.9619012937499996,7.338483505859375,6.90394209375Q7.326953505859375,6.84598209375,7.3043335058593755,6.79138609375Q7.281723505859375,6.73678909375,7.248893505859375,6.68765409375Q7.216063505859375,6.63851809375,7.174273505859375,6.59673209375Q7.1324835058593745,6.55494609375,7.083353505859375,6.52211409375Q7.034213505859375,6.48928309375,6.979623505859375,6.46666809375Q6.925023505859375,6.44405409375,6.867063505859376,6.43252509375Q6.809103505859375,6.42099609375,6.750013505859375,6.42099609375L4.583343505859375,6.42099609375ZM5.183343505859375,7.62099609375L5.183343505859375,8.473536093749999Q5.461124505859375,8.35881609375,5.691143505859375,8.12879609375Q5.921163505859375,7.89877909375,6.035883505859375,7.62099609375L5.183343505859375,7.62099609375Z" fill-rule="evenodd" fill="#FFFFFF" fill-opacity="1"/></g><g><path d="M3.983343505859375,11.354248046875L3.983343505859375,13.520918046875Q3.983343505859375,13.580008046875001,3.994872505859375,13.637968046875Q4.006401505859375,13.695928046875,4.029015505859375,13.750528046875Q4.051630505859375,13.805118046875,4.084461505859375,13.854258046875Q4.117293505859375,13.903388046875,4.159079505859375,13.945178046875Q4.200865505859375,13.986968046874999,4.250001505859375,14.019798046875Q4.299136505859375,14.052628046875,4.353733505859375,14.075238046875Q4.408329505859375,14.097858046875,4.466289505859375,14.109388046875Q4.5242487058593746,14.120918046875,4.583343505859375,14.120918046875L6.750013505859375,14.120918046875Q6.809103505859375,14.120918046875,6.867063505859376,14.109388046875Q6.925023505859375,14.097858046875,6.979623505859375,14.075238046875Q7.034213505859375,14.052628046875,7.083353505859375,14.019798046875Q7.1324835058593745,13.986968046874999,7.174273505859375,13.945178046875Q7.216063505859375,13.903388046875,7.248893505859375,13.854258046875Q7.281723505859375,13.805118046875,7.3043335058593755,13.750528046875Q7.326953505859375,13.695928046875,7.338483505859375,13.637968046875Q7.3500135058593745,13.580008046875001,7.3500135058593745,13.520918046875Q7.3500135058593745,12.374918046874999,6.5396735058593745,11.564583046875Q5.729333505859375,10.754248046875,4.583343505859375,10.754248046875Q4.5242487058593746,10.754248046875,4.466289505859375,10.765777046875Q4.408329505859375,10.777306046875,4.353733505859375,10.799920046875Q4.299136505859375,10.822535046875,4.250001505859375,10.855366046875Q4.200865505859375,10.888198046875,4.159079505859375,10.929984046875Q4.117293505859375,10.971770046875,4.084461505859375,11.020906046875Q4.051630505859375,11.070041046875,4.029015505859375,11.124638046875Q4.006401505859375,11.179234046874999,3.994872505859375,11.237194046875Q3.983343505859375,11.295153246875,3.983343505859375,11.354248046875ZM5.183343505859375,12.920918046875L6.035883505859375,12.920918046875Q5.921163505859375,12.643128046875,5.691143505859375,12.413108046875Q5.461125505859375,12.183093046875,5.183343505859375,12.068377046875L5.183343505859375,12.920918046875Z" fill-rule="evenodd" fill="#FFFFFF" fill-opacity="1"/></g><g><path d="M13.460336,11.564584046875Q12.65,12.374918046874999,12.65,13.520918046875Q12.65,13.580008046875001,12.661529,13.637968046875Q12.673058,13.695928046875,12.695672,13.750528046875Q12.718287,13.805118046875,12.751118,13.854258046875Q12.78395,13.903388046875,12.825736,13.945178046875Q12.867522,13.986968046874999,12.916658,14.019798046875Q12.965793,14.052628046875,13.02039,14.075238046875Q13.074985999999999,14.097858046875,13.132946,14.109388046875Q13.1909052,14.120918046875,13.25,14.120918046875L15.41667,14.120918046875Q15.475760000000001,14.120918046875,15.53372,14.109388046875Q15.59168,14.097858046875,15.64628,14.075238046875Q15.70087,14.052628046875,15.75001,14.019798046875Q15.79914,13.986968046874999,15.84093,13.945178046875Q15.882719999999999,13.903388046875,15.91555,13.854258046875Q15.94838,13.805118046875,15.97099,13.750528046875Q15.99361,13.695928046875,16.00514,13.637968046875Q16.01667,13.580008046875001,16.01667,13.520918046875L16.01667,11.354248046875Q16.01667,11.234901046875,15.97099,11.124638046875Q15.92532,11.014375046875,15.84093,10.929984046875Q15.756540000000001,10.845593046875,15.64628,10.799920046875Q15.536010000000001,10.754248046875,15.41667,10.754248046875Q14.270669999999999,10.754248046875,13.460336,11.564584046875ZM13.964129,12.920918046875L14.81667,12.920918046875L14.81667,12.068377046875Q14.53888,12.183092046875,14.30886,12.413108046875Q14.078844,12.643128046875,13.964129,12.920918046875Z" fill-rule="evenodd" fill="#FFFFFF" fill-opacity="1"/></g><g><path d="M16.01667,9.18766609375L16.01667,7.02099609375Q16.01667,6.9619012937499996,16.00514,6.90394209375Q15.99361,6.84598209375,15.97099,6.79138609375Q15.94838,6.73678909375,15.91555,6.68765409375Q15.882719999999999,6.63851809375,15.84093,6.59673209375Q15.79914,6.55494609375,15.75001,6.52211409375Q15.70087,6.48928309375,15.64628,6.46666809375Q15.59168,6.44405409375,15.53372,6.43252509375Q15.475760000000001,6.42099609375,15.41667,6.42099609375L13.25,6.42099609375Q13.130653,6.42099609375,13.02039,6.46666809375Q12.910127,6.51234109375,12.825736,6.59673209375Q12.741345,6.68112309375,12.695672,6.79138609375Q12.65,6.90164909375,12.65,7.02099609375Q12.65,8.16699609375,13.460336,8.97732609375Q14.270669999999999,9.78766609375,15.41667,9.78766609375Q15.475760000000001,9.78766609375,15.53372,9.77613609375Q15.59168,9.76460609375,15.64628,9.74198609375Q15.70087,9.71937609375,15.75001,9.68654609375Q15.79914,9.653716093749999,15.84093,9.61192609375Q15.882719999999999,9.57013609375,15.91555,9.52100609375Q15.94838,9.47186609375,15.97099,9.41727609375Q15.99361,9.36267609375,16.00514,9.30471609375Q16.01667,9.246756093750001,16.01667,9.18766609375ZM14.81667,7.62099609375L14.81667,8.473536093749999Q14.53888,8.35881609375,14.30886,8.12879609375Q14.078844,7.89877909375,13.964129,7.62099609375L14.81667,7.62099609375Z" fill-rule="evenodd" fill="#FFFFFF" fill-opacity="1"/></g><g><path d="M8.581539705859376,8.737593153125Q8.045843505859375,9.380426953125,8.045843505859375,10.270751953125Q8.045843505859375,11.161071953125,8.581539805859375,11.803911953125Q9.158075505859376,12.495751953125,10.000013505859375,12.495751953125Q10.841943505859374,12.495751953125,11.418483505859374,11.803911953125Q11.954173505859375,11.161071953125,11.954173505859375,10.270751953125Q11.954173505859375,9.380426953125,11.418483505859374,8.737593153125Q10.841943505859374,8.045751953125,10.000013505859375,8.045751953125Q9.158075505859376,8.045751953125,8.581539705859376,8.737593153125ZM9.503404505859375,11.035691953125Q9.245843505859375,10.726611953125,9.245843505859375,10.270751953125Q9.245843505859375,9.814891953125,9.503404505859375,9.505815953125Q9.720123505859375,9.245751953125,10.000013505859375,9.245751953125Q10.279893505859375,9.245751953125,10.496613505859376,9.505815953125Q10.754173505859375,9.814891953125,10.754173505859375,10.270751953125Q10.754173505859375,10.726611953125,10.496613505859376,11.035691953125Q10.279893505859375,11.295751953125,10.000013505859375,11.295751953125Q9.720123505859375,11.295751953125,9.503404505859375,11.035691953125Z" fill-rule="evenodd" fill="#FFFFFF" fill-opacity="1"/></g></g></g></svg>