<svg xmlns="http://www.w3.org/2000/svg" xmlns:xlink="http://www.w3.org/1999/xlink" fill="none" version="1.1" width="20" height="20" viewBox="0 0 20 20"><g><g><path d="M9.86369,0L10.1363,0L10,0C4.47715,0,0,4.47715,0,10C0,15.5228,4.47715,20,10,20L10.1363,20L9.86368,20L10,20C15.5228,20,20,15.5228,20,10C20,4.47715,15.5228,0,10,0L9.86369,0Z" fill="#02D900" fill-opacity="1"/></g><g><path d="M3.904881477355957,10.054787812499999C3.904881477355957,11.7279578125,4.741473477355957,13.2816078125,6.175671477355957,14.2377078125L5.936611477355957,15.6718578125Q5.879771477355957,15.8991578125,5.958001477355957,15.9643578125Q6.044331477355957,16.0362578125,6.295121477355957,15.9108578125C6.534181477355958,15.7913578125,7.251251477355957,15.1937578125,7.729291477355957,14.9547578125C8.446361477355957,15.1937578125,9.163491477355958,15.3133578125,10.000081477355957,15.3133578125C13.346401477355958,15.3133578125,16.095181477355958,12.8035678125,16.095081477355958,9.9352778125C16.095081477355958,9.0986978125,15.856081477355957,8.2621178125,15.497581477355958,7.5450378125C13.585391477355957,8.6206478125,9.163491477355958,11.3694178125,8.565891477355958,11.6084478125Q8.130821477355957,11.8259778125,7.915721477355957,11.6915478125Q7.776301477355958,11.6044178125,7.729301477355957,11.3694178125L6.773171477355957,9.218207812500001Q6.5853114773559565,8.7172178125,6.6927814773559575,8.6428178125Q6.790401477355957,8.5752378125,7.131721477355957,8.8596678125L8.087841477355957,9.576747812499999Q8.565891477355958,9.9352778125,9.043961477355957,9.6962578125L15.019581477355956,6.9474878125C13.943881477355957,5.6328528125,12.031741477355958,4.6767578125,10.000061477355956,4.6767578125C6.653621477355957,4.6767578125,3.904881477355957,7.0669978125,3.904881477355957,10.054787812499999Z" fill="#FFFFFF" fill-opacity="1"/></g></g></svg>