<svg xmlns="http://www.w3.org/2000/svg" xmlns:xlink="http://www.w3.org/1999/xlink" fill="none" version="1.1" width="20" height="20" viewBox="0 0 20 20"><defs><clipPath id="master_svg0_41292_143474"><rect x="3.5" y="3.5" width="13" height="13" rx="0"/></clipPath></defs><g><g><path d="M9.86369,0L10.1363,0L10,0C4.47715,0,0,4.47715,0,10C0,15.5228,4.47715,20,10,20L10.1363,20L9.86368,20L10,20C15.5228,20,20,15.5228,20,10C20,4.47715,15.5228,0,10,0L9.86369,0Z" fill="#C8A57A" fill-opacity="1"/></g><g clip-path="url(#master_svg0_41292_143474)"><g><path d="M4.425506591796875,6.74258609375Q4.425506591796875,6.19775109375,4.810759591796875,5.81249909375Q5.196011591796875,5.42724609375,5.740836591796875,5.42724609375L14.259206591796875,5.42724609375Q14.804006591796876,5.42724609375,15.189306591796875,5.81249909375Q15.574506591796874,6.19775209375,15.574506591796874,6.74258609375L15.574506591796874,7.39379609375L4.425506591796875,7.39379609375L4.425506591796875,6.74258609375ZM4.425506591796875,8.89379609375L15.574506591796874,8.89379609375L15.574506591796874,12.50512609375Q15.574506591796874,13.36128609375,14.969106591796875,13.96667609375Q14.363746591796875,14.57207609375,13.507586591796874,14.57207609375L6.492466591796875,14.57207609375Q5.636296591796875,14.57207609375,5.030903591796875,13.96667609375Q4.425506591796875,13.36128609375,4.425506591796875,12.50512609375L4.425506591796875,8.89379609375ZM6.285366591796875,12.10424609375Q6.211496591796875,12.10424609375,6.139056591796875,12.08983609375Q6.066606591796875,12.07542609375,5.998356591796875,12.04715609375Q5.930106591796875,12.01888609375,5.8686965917968745,11.97784609375Q5.8072765917968745,11.93680609375,5.755036591796875,11.884576093749999Q5.702806591796875,11.832346093750001,5.661766591796875,11.770926093749999Q5.620726591796875,11.70950609375,5.592456591796875,11.64125609375Q5.564196591796875,11.573016093749999,5.549776591796875,11.500566093749999Q5.535366591796875,11.428116093749999,5.535366591796875,11.35424609375Q5.535366591796875,11.28037609375,5.549776591796875,11.20792609375Q5.564196591796875,11.13547609375,5.592456591796875,11.067236093750001Q5.620726591796875,10.99898609375,5.661766591796875,10.93756609375Q5.702806591796875,10.87614609375,5.755036591796875,10.82391609375Q5.8072765917968745,10.771686093749999,5.8686965917968745,10.73064609375Q5.930106591796875,10.689606093750001,5.998356591796875,10.66133609375Q6.066606591796875,10.63306609375,6.139056591796875,10.618656093750001Q6.211496591796875,10.60424609375,6.285366591796875,10.60424609375L6.827036591796875,10.60424609375Q6.9009065917968755,10.60424609375,6.973356591796875,10.618656093750001Q7.045806591796875,10.63306609375,7.114046591796875,10.66133609375Q7.1822965917968755,10.689606093750001,7.2437165917968755,10.73064609375Q7.305136591796876,10.771686093749999,7.357366591796875,10.82391609375Q7.409596591796875,10.87614609375,7.450636591796875,10.93756609375Q7.491676591796875,10.99898609375,7.5199465917968755,11.067236093750001Q7.548216591796875,11.13547609375,7.5626265917968745,11.20792609375Q7.577036591796875,11.28037609375,7.577036591796875,11.35424609375Q7.577036591796875,11.428116093749999,7.5626265917968745,11.500566093749999Q7.548216591796875,11.573016093749999,7.5199465917968755,11.64125609375Q7.491676591796875,11.70950609375,7.450636591796875,11.770926093749999Q7.409596591796875,11.832346093750001,7.357366591796875,11.884576093749999Q7.305136591796876,11.93680609375,7.2437165917968755,11.97784609375Q7.1822965917968755,12.01888609375,7.114046591796875,12.04715609375Q7.045806591796875,12.07542609375,6.973356591796875,12.08983609375Q6.9009065917968755,12.10424609375,6.827036591796875,12.10424609375L6.285366591796875,12.10424609375ZM7.934296591796874,11.35424609375Q7.934296591796874,11.428116093749999,7.948706591796875,11.500566093749999Q7.963116591796875,11.573016093749999,7.991386591796875,11.64125609375Q8.019656591796874,11.70950609375,8.060696591796875,11.770926093749999Q8.101736591796875,11.832346093750001,8.153966591796875,11.884576093749999Q8.206196591796875,11.93680609375,8.267616591796875,11.97784609375Q8.329036591796875,12.01888609375,8.397286591796874,12.04715609375Q8.465526591796875,12.07542609375,8.537976591796875,12.08983609375Q8.610426591796875,12.10424609375,8.684296591796876,12.10424609375L9.225966591796876,12.10424609375Q9.299826591796876,12.10424609375,9.372276591796876,12.08983609375Q9.444726591796876,12.07542609375,9.512976591796875,12.04715609375Q9.581216591796874,12.01888609375,9.642636591796876,11.97784609375Q9.704056591796874,11.93680609375,9.756296591796875,11.884576093749999Q9.808526591796875,11.832346093750001,9.849566591796876,11.770926093749999Q9.890606591796875,11.70950609375,9.918876591796874,11.64125609375Q9.947136591796875,11.573016093749999,9.961556591796874,11.500566093749999Q9.975966591796876,11.428116093749999,9.975966591796876,11.35424609375Q9.975966591796876,11.28037609375,9.961556591796874,11.20792609375Q9.947136591796875,11.13547609375,9.918876591796874,11.067236093750001Q9.890606591796875,10.99898609375,9.849566591796876,10.93756609375Q9.808526591796875,10.87614609375,9.756296591796875,10.82391609375Q9.704056591796874,10.771686093749999,9.642636591796876,10.73064609375Q9.581216591796874,10.689606093750001,9.512976591796875,10.66133609375Q9.444726591796876,10.63306609375,9.372276591796876,10.618656093750001Q9.299826591796876,10.60424609375,9.225966591796876,10.60424609375L8.684296591796876,10.60424609375Q8.610426591796875,10.60424609375,8.537976591796875,10.618656093750001Q8.465526591796875,10.63306609375,8.397286591796874,10.66133609375Q8.329036591796875,10.689606093750001,8.267616591796875,10.73064609375Q8.206196591796875,10.771686093749999,8.153966591796875,10.82391609375Q8.101736591796875,10.87614609375,8.060696591796875,10.93756609375Q8.019656591796874,10.99898609375,7.991386591796875,11.067236093750001Q7.963116591796875,11.13547609375,7.948706591796875,11.20792609375Q7.934296591796874,11.28037609375,7.934296591796874,11.35424609375ZM11.083466591796874,12.10424609375Q11.009596591796875,12.10424609375,10.937146591796875,12.08983609375Q10.864696591796875,12.07542609375,10.796456591796876,12.04715609375Q10.728206591796875,12.01888609375,10.666786591796875,11.97784609375Q10.605366591796875,11.93680609375,10.553136591796875,11.884576093749999Q10.500906591796875,11.832346093750001,10.459866591796875,11.770926093749999Q10.418826591796876,11.70950609375,10.390556591796875,11.64125609375Q10.362286591796874,11.573016093749999,10.347876591796876,11.500566093749999Q10.333466591796874,11.428116093749999,10.333466591796874,11.35424609375Q10.333466591796874,11.28037609375,10.347876591796876,11.20792609375Q10.362286591796874,11.13547609375,10.390556591796875,11.067236093750001Q10.418826591796876,10.99898609375,10.459866591796875,10.93756609375Q10.500906591796875,10.87614609375,10.553136591796875,10.82391609375Q10.605366591796875,10.771686093749999,10.666786591796875,10.73064609375Q10.728206591796875,10.689606093750001,10.796456591796876,10.66133609375Q10.864696591796875,10.63306609375,10.937146591796875,10.618656093750001Q11.009596591796875,10.60424609375,11.083466591796874,10.60424609375L11.625136591796874,10.60424609375Q11.698996591796874,10.60424609375,11.771446591796874,10.618656093750001Q11.843896591796874,10.63306609375,11.912146591796876,10.66133609375Q11.980386591796876,10.689606093750001,12.041806591796874,10.73064609375Q12.103226591796876,10.771686093749999,12.155466591796875,10.82391609375Q12.207696591796875,10.87614609375,12.248736591796874,10.93756609375Q12.289776591796876,10.99898609375,12.318036591796876,11.067236093750001Q12.346306591796875,11.13547609375,12.360716591796875,11.20792609375Q12.375136591796874,11.28037609375,12.375136591796874,11.35424609375Q12.375136591796874,11.428116093749999,12.360716591796875,11.500566093749999Q12.346306591796875,11.573016093749999,12.318036591796876,11.64125609375Q12.289776591796876,11.70950609375,12.248736591796874,11.770926093749999Q12.207696591796875,11.832346093750001,12.155466591796875,11.884576093749999Q12.103226591796876,11.93680609375,12.041806591796874,11.97784609375Q11.980386591796876,12.01888609375,11.912146591796876,12.04715609375Q11.843896591796874,12.07542609375,11.771446591796874,12.08983609375Q11.698996591796874,12.10424609375,11.625136591796874,12.10424609375L11.083466591796874,12.10424609375Z" fill-rule="evenodd" fill="#FFFFFF" fill-opacity="1"/></g></g></g></svg>