<svg xmlns="http://www.w3.org/2000/svg" xmlns:xlink="http://www.w3.org/1999/xlink" fill="none" version="1.1" width="12" height="12" viewBox="0 0 12 12"><g><g><g><path d="M6.780029296875,6.332275390625L10.160949296875,6.332275390625Q10.210199296875,6.332275390625,10.258499296875,6.341882390625Q10.306789296875,6.351490390625,10.352289296875,6.370335390625Q10.397789296875,6.389181390625,10.438729296875,6.416540390625Q10.479679296875,6.443900390625,10.514499296875,6.478722390625Q10.549329296875,6.513544390625,10.576679296875,6.554490390625Q10.604039296875,6.595436390625,10.622889296875,6.640933390625Q10.641739296875,6.686430390625,10.651339296875,6.734730290625Q10.660949296875,6.783029690625,10.660949296875,6.832275390625Q10.660949296875,6.881521090625,10.651339296875,6.929820490625Q10.641739296875,6.978120390625,10.622889296875,7.023617390625Q10.604039296875,7.069114390625,10.576679296875,7.110060390625Q10.549329296875,7.151006390625,10.514499296875,7.185828390625Q10.479679296875,7.220650390625,10.438739296875,7.248010390625Q10.397789296875,7.275369390625,10.352289296875,7.294215390625Q10.306789296875,7.313060390625,10.258499296875,7.322668390625Q10.210199296875,7.332275390625,10.160949296875,7.332275390625L6.780029296875,7.332275390625Q6.730783596875,7.332275390625,6.682484196875,7.322668390625Q6.634184296875,7.313060390625,6.588687296875,7.294215390625Q6.543190296875,7.275369390625,6.502244296875,7.248010390625Q6.461298296875,7.220650390625,6.426476296875,7.185828390625Q6.391654296875,7.151006390625,6.364294296875,7.110060390625Q6.336935296875,7.069114390625,6.318089296875,7.023617390625Q6.299244296875,6.978120390625,6.289636296875,6.929820490625Q6.280029296875,6.881521090625,6.280029296875,6.832275390625Q6.280029296875,6.783029690625,6.289636296875,6.734730290625Q6.299244296875,6.686430390625,6.318089296875,6.640933390625Q6.336935296875,6.595436390625,6.364294296875,6.554490390625Q6.391654296875,6.513544390625,6.426476296875,6.478722390625Q6.461298296875,6.443900390625,6.502244296875,6.416540390625Q6.543190296875,6.389181390625,6.588687296875,6.370335390625Q6.634184296875,6.351490390625,6.682484196875,6.341882390625Q6.730783596875,6.332275390625,6.780029296875,6.332275390625Z" fill-rule="evenodd" fill="#8A8A8E" fill-opacity="1"/></g><g><path d="M6.780029296875,8.021484375L9.318319296875,8.021484375Q9.367569296875,8.021484375,9.415869296875,8.031091375Q9.464169296875,8.040699374999999,9.509659296875,8.059544375Q9.555159296875,8.078390375,9.596109296875,8.105749375Q9.637049296875,8.133109375,9.671869296875,8.167931375Q9.706699296875,8.202753375,9.734059296875,8.243699375Q9.761409296875,8.284645375,9.780259296875,8.330142375Q9.799109296875,8.375639375,9.808709296875,8.423939275Q9.818319296875,8.472238675,9.818319296875,8.521484375Q9.818319296875,8.570730075,9.808709296875,8.619029475Q9.799109296875,8.667329375,9.780259296875,8.712826375Q9.761409296875,8.758323375,9.734059296875,8.799269375Q9.706699296875,8.840215375,9.671869296875,8.875037375Q9.637049296875,8.909859375,9.596109296875,8.937219375Q9.555159296875,8.964578375,9.509659296875,8.983424375Q9.464169296875,9.002269375000001,9.415869296875,9.011877375Q9.367569296875,9.021484375,9.318319296875,9.021484375L6.780029296875,9.021484375Q6.730783596875,9.021484375,6.682484196875,9.011877375Q6.634184296875,9.002269375000001,6.588687296875,8.983424375Q6.543190296875,8.964578375,6.502244296875,8.937219375Q6.461298296875,8.909859375,6.426476296875,8.875037375Q6.391654296875,8.840215375,6.364294296875,8.799269375Q6.336935296875,8.758323375,6.318089296875,8.712826375Q6.299244296875,8.667329375,6.289636296875,8.619029475Q6.280029296875,8.570730075,6.280029296875,8.521484375Q6.280029296875,8.472238675,6.289636296875,8.423939275Q6.299244296875,8.375639375,6.318089296875,8.330142375Q6.336935296875,8.284645375,6.364294296875,8.243699375Q6.391654296875,8.202753375,6.426476296875,8.167931375Q6.461298296875,8.133109375,6.502244296875,8.105749375Q6.543190296875,8.078390375,6.588687296875,8.059544375Q6.634184296875,8.040699374999999,6.682484196875,8.031091375Q6.730783596875,8.021484375,6.780029296875,8.021484375Z" fill-rule="evenodd" fill="#8A8A8E" fill-opacity="1"/></g><g><path d="M6.780029296875,9.710693359375L8.470489296875,9.710693359375Q8.519739296875,9.710693359375,8.568039296875,9.720300359375Q8.616329296875,9.729908359374999,8.661829296875,9.748753359375Q8.707329296875,9.767599359375,8.748279296875,9.794958359375Q8.789219296875,9.822318359375,8.824039296875,9.857140359375Q8.858869296875,9.891962359375,8.886219296875,9.932908359375Q8.913579296875,9.973854359375,8.932429296875,10.019351359375Q8.951279296875,10.064848359375,8.960879296875,10.113148259375Q8.970489296875,10.161447659375,8.970489296875,10.210693359375Q8.970489296875,10.259939059375,8.960879296875,10.308238459375Q8.951279296875,10.356538359375,8.932429296875,10.402035359375Q8.913579296875,10.447532359375,8.886219296875,10.488478359375Q8.858869296875,10.529424359375,8.824039296875,10.564246359375Q8.789219296875,10.599068359375,8.748279296875,10.626428359375Q8.707329296875,10.653787359375,8.661829296875,10.672633359375Q8.616329296875,10.691478359375001,8.568039296875,10.701086359375Q8.519739296875,10.710693359375,8.470489296875,10.710693359375L6.780029296875,10.710693359375Q6.730783596875,10.710693359375,6.682484196875,10.701086359375Q6.634184296875,10.691478359375001,6.588687296875,10.672633359375Q6.543190296875,10.653787359375,6.502244296875,10.626428359375Q6.461298296875,10.599068359375,6.426476296875,10.564246359375Q6.391654296875,10.529424359375,6.364294296875,10.488478359375Q6.336935296875,10.447532359375,6.318089296875,10.402035359375Q6.299244296875,10.356538359375,6.289636296875,10.308238459375Q6.280029296875,10.259939059375,6.280029296875,10.210693359375Q6.280029296875,10.161447659375,6.289636296875,10.113148259375Q6.299244296875,10.064848359375,6.318089296875,10.019351359375Q6.336935296875,9.973854359375,6.364294296875,9.932908359375Q6.391654296875,9.891962359375,6.426476296875,9.857140359375Q6.461298296875,9.822318359375,6.502244296875,9.794958359375Q6.543190296875,9.767599359375,6.588687296875,9.748753359375Q6.634184296875,9.729908359374999,6.682484196875,9.720300359375Q6.730783596875,9.710693359375,6.780029296875,9.710693359375Z" fill-rule="evenodd" fill="#8A8A8E" fill-opacity="1"/></g></g><g><rect x="1.8388671875" y="1.791748046875" width="3.38092041015625" height="3.38092041015625" rx="0.5" fill-opacity="0" stroke-opacity="1" stroke="#8A8A8E" fill="none" stroke-width="1" stroke-linecap="ROUND"/></g><g><rect x="1.8388671875" y="6.832275390625" width="3.38092041015625" height="3.38092041015625" rx="0.5" fill-opacity="0" stroke-opacity="1" stroke="#8A8A8E" fill="none" stroke-width="1" stroke-linecap="ROUND"/></g><g><rect x="6.780029296875" y="1.791748046875" width="3.38092041015625" height="3.38092041015625" rx="0.5" fill-opacity="0" stroke-opacity="1" stroke="#8A8A8E" fill="none" stroke-width="1" stroke-linecap="ROUND"/></g></g></svg>