<svg xmlns="http://www.w3.org/2000/svg" xmlns:xlink="http://www.w3.org/1999/xlink" fill="none" version="1.1" width="24" height="24" viewBox="0 0 24 24"><defs><clipPath id="master_svg0_41292_151251"><rect x="4.514923095703125" y="4.514892578125" width="14.97015380859375" height="14.97015380859375" rx="0"/></clipPath></defs><g><g></g><g clip-path="url(#master_svg0_41292_151251)"><g><path d="M7.076771689453125,7.0766191015625Q5.037481689453125,9.1158991015625,5.037481689453125,11.9998891015625Q5.037481689453125,14.8838791015625,7.076771689453125,16.923129101562502Q9.116051689453124,18.9624291015625,12.000041689453125,18.9624291015625Q14.884031689453124,18.9624291015625,16.923281689453127,16.923129101562502Q18.962581689453124,14.8838791015625,18.962581689453124,11.9998891015625Q18.962581689453124,9.1158991015625,16.923281689453127,7.0766191015625Q14.884031689453124,5.0373291015625,12.000041689453125,5.0373291015625Q9.116051689453124,5.0373291015625,7.076771689453125,7.0766191015625ZM8.102071689453124,15.8978291015625Q6.487481689453125,14.2832691015625,6.487481689453125,11.9998891015625Q6.487481689453125,9.716509101562501,8.102071689453124,8.1019191015625Q9.716661689453126,6.4873291015625,12.000041689453125,6.4873291015625Q14.283421689453125,6.4873291015625,15.897981689453125,8.1019191015625Q17.512581689453125,9.716509101562501,17.512581689453125,11.9998891015625Q17.512581689453125,14.2832691015625,15.897981689453125,15.8978291015625Q14.283421689453125,17.5124291015625,12.000041689453125,17.5124291015625Q9.716661689453126,17.5124291015625,8.102071689453124,15.8978291015625Z" fill-rule="evenodd" fill="#121212" fill-opacity="1"/></g><g><path d="M10.384789745703126,8.5132992671875Q9.715704345703125,9.1823848671875,9.715704345703125,10.1286038671875Q9.715704345703125,11.0748238671875,10.384789745703126,11.7439138671875Q11.053875345703124,12.4129938671875,12.000094345703125,12.4129938671875Q12.946314345703126,12.4129938671875,13.615404345703125,11.7439138671875Q14.284484345703126,11.0748238671875,14.284484345703126,10.1286038671875Q14.284484345703126,9.1823848671875,13.615404345703125,8.5132992671875Q12.946314345703126,7.8442138671875,12.000094345703125,7.8442138671875Q11.053875345703124,7.8442138671875,10.384789745703126,8.5132992671875ZM11.410094345703126,10.7186038671875Q11.165704345703125,10.4742138671875,11.165704345703125,10.1286038671875Q11.165704345703125,9.7829938671875,11.410094345703126,9.5386038671875Q11.654484345703125,9.2942138671875,12.000094345703125,9.2942138671875Q12.345704345703124,9.2942138671875,12.590094345703125,9.5386038671875Q12.834484345703125,9.7829938671875,12.834484345703125,10.1286038671875Q12.834484345703125,10.4742138671875,12.590094345703125,10.7186038671875Q12.345704345703124,10.9629938671875,12.000094345703125,10.9629938671875Q11.654484345703125,10.9629938671875,11.410094345703126,10.7186038671875Z" fill-rule="evenodd" fill="#121212" fill-opacity="1"/></g><g><path d="M15.635511376953126,16.5121182421875L15.635541376953125,16.5126382421875Q15.640181376953125,16.5807782421875,15.657461376953124,16.6468582421875Q15.674741376953126,16.7129382421875,15.704051376953124,16.7746282421875Q15.733371376953125,16.8363182421875,15.773691376953124,16.8914482421875Q15.814011376953125,16.9465682421875,15.863921376953124,16.9931982421875Q15.913831376953125,17.0398282421875,15.971561376953124,17.0763182421875Q16.029301376953125,17.112798242187502,16.092841376953125,17.1378682421875Q16.156371376953125,17.1629282421875,16.223471376953125,17.1756882421875Q16.290571376953125,17.1884382421875,16.358871376953125,17.1884382421875Q16.430281376953126,17.1884382421875,16.500311376953125,17.1745082421875Q16.570351376953127,17.1605782421875,16.636321376953127,17.1332482421875Q16.702291376953127,17.1059282421875,16.761661376953125,17.0662582421875Q16.821031376953123,17.0265782421875,16.871521376953126,16.9760882421875Q16.922021376953126,16.9255982421875,16.961691376953127,16.8662282421875Q17.001361376953128,16.8068582421875,17.028681376953124,16.7408882421875Q17.056011376953123,16.6749082421875,17.069941376953125,16.6048782421875Q17.083871376953127,16.5348482421875,17.083871376953127,16.4634382421875Q17.083871376953127,16.4385582421875,17.082171376953127,16.4137382421875L17.082041376953125,16.4119382421875Q16.978991376953125,14.9083582421875,15.876581376953125,13.8743102421875Q14.767981376953125,12.8344482421875,13.247361376953126,12.8344482421875L10.752331376953125,12.8344482421875Q9.229551376953125,12.8344482421875,8.120386376953125,13.8768762421875Q7.016422376953125,14.9144082421875,6.916982376953125,16.4221882421875Q6.915411376953125,16.4460182421875,6.915411376953125,16.4698982421875Q6.915411376953125,16.5412982421875,6.929342376953125,16.6113382421875Q6.943272376953125,16.6813682421875,6.9705983769531255,16.7473382421875Q6.997924376953125,16.8133082421875,7.037596376953125,16.8726882421875Q7.077267376953125,16.9320582421875,7.127759376953125,16.982548242187498Q7.178251376953125,17.0330382421875,7.237623376953125,17.0727082421875Q7.296995376953125,17.1123782421875,7.362966376953125,17.1397082421875Q7.428936376953125,17.167038242187502,7.498971376953125,17.1809682421875Q7.569005076953125,17.1948982421875,7.640411376953125,17.1948982421875Q7.708805776953125,17.1948982421875,7.775993376953125,17.1821082421875Q7.843181376953125,17.1693182421875,7.906791376953125,17.1441882421875Q7.970402376953125,17.1190582421875,8.028191376953124,17.0824782421875Q8.085980376953126,17.0458882421875,8.135908376953125,16.999148242187502Q8.185836376953125,16.9524082421875,8.226142376953124,16.897148242187498Q8.266447376953124,16.8418882421875,8.295709376953125,16.7800682421875Q8.324970376953125,16.7182582421875,8.342154376953125,16.6520582421875Q8.359339376953125,16.5858582421875,8.363839376953125,16.5176082421875L8.363887376953125,16.5168882421875Q8.425952376953125,15.5795682421875,9.113411376953126,14.9334782421875Q9.803991376953125,14.2844482421875,10.752331376953125,14.2844482421875L13.247361376953126,14.2844482421875Q14.194361376953125,14.2844482421875,14.884591376953125,14.9318782421875Q15.571681376953125,15.5763582421875,15.635511376953126,16.5121182421875Z" fill-rule="evenodd" fill="#121212" fill-opacity="1"/></g></g></g></svg>