<svg xmlns="http://www.w3.org/2000/svg" xmlns:xlink="http://www.w3.org/1999/xlink" fill="none" version="1.1" width="24" height="24" viewBox="0 0 24 24"><g><g><path d="M6.28720703125,15.860671640625L6.28720703125,7.867431640625Q6.28720703125,6.738699640625,7.08534093125,5.940565540625Q7.88347503125,5.142431640625,9.01220703125,5.142431640625L14.98788703125,5.142431640625Q16.11661703125,5.142431640625,16.914747031250002,5.940565540625Q17.712907031249998,6.738700640625,17.712907031249998,7.867431640625L17.712907031249998,15.860671640625Q17.712907031249998,16.989431640625,16.914747031250002,17.787531640624998Q16.11661703125,18.585631640625,14.98788703125,18.585631640625L9.01220703125,18.585631640625Q7.88347703125,18.585631640625,7.08534093125,17.787531640624998Q6.28720703125,16.989431640625,6.28720703125,15.860671640625ZM7.73720703125,15.860671640625Q7.73720703125,16.388831640625,8.11064703125,16.762231640625Q8.48408703125,17.135631640625,9.01220703125,17.135631640625L14.98788703125,17.135631640625Q15.51600703125,17.135631640625,15.88944703125,16.762231640625Q16.26288703125,16.388831640625,16.26288703125,15.860671640625L16.26288703125,7.867431640625Q16.26288703125,7.3393116406250005,15.88944703125,6.965871640625Q15.51600703125,6.592431640625,14.98788703125,6.592431640625L9.01220703125,6.592431640625Q8.48408703125,6.592431640625,8.11064703125,6.965871640625Q7.73720703125,7.3393116406250005,7.73720703125,7.867431640625L7.73720703125,15.860671640625Z" fill="#121212" fill-opacity="1"/></g><g></g><g><path d="M6.0322265625 16.40576171875C6.0322265625 16.1296193438346 6.256084187584603 15.90576171875 6.5322265625 15.90576171875L17.467529296875 15.90576171875C17.7436716717904 15.90576171875 17.967529296875 16.1296193438346 17.967529296875 16.40576171875L17.967529296875 18.16552734375C17.967529296875 18.16552734375 17.967529296875 18.16552734375 17.967529296875 18.16552734375L6.0322265625 18.16552734375C6.0322265625 18.16552734375 6.0322265625 18.16552734375 6.0322265625 18.16552734375Z" fill="#FFFFFF" fill-opacity="1"/><path d="M5.3072265625,16.40576171875Q5.3072265625,15.89835008875,5.6660205625,15.53955571875Q6.0248148925,15.18076171875,6.5322265625,15.18076171875L17.467526562499998,15.18076171875Q17.974926562500002,15.18076171875,18.3337265625,15.53955571875Q18.6925265625,15.89835005875,18.6925265625,16.40576171875L18.6925265625,18.16553171875Q18.6925265625,18.23693171875,18.6786265625,18.30697171875Q18.6646265625,18.37700171875,18.6373265625,18.44297171875Q18.6100265625,18.508941718750002,18.5703265625,18.56831171875Q18.5306265625,18.62769171875,18.4802265625,18.67818171875Q18.4297265625,18.72867171875,18.3703265625,18.76834171875Q18.3109265625,18.80801171875,18.244926562499998,18.83534171875Q18.1790265625,18.86266171875,18.108926562500002,18.87659171875Q18.038926562500002,18.89053171875,17.967526562499998,18.89053171875L6.0322265625,18.89053171875Q5.9608202625,18.89053171875,5.8907865625,18.87659171875Q5.8207515625,18.86266171875,5.7547815625,18.83534171875Q5.6888105625,18.80801171875,5.6294385625,18.76834171875Q5.5700665625,18.72867171875,5.5195745625,18.67818171875Q5.4690825625,18.62769171875,5.4294115625,18.56831171875Q5.3897395625,18.508941718750002,5.3624135625000005,18.44297171875Q5.3350875625,18.37700171875,5.3211575625,18.30697171875Q5.3072265625,18.23693171875,5.3072265625,18.16553171875L5.3072265625,16.40576171875ZM6.7572265625,16.40576171875L6.7572265625,18.16553171875L6.0322265625,18.16553171875L6.0322265625,17.44053171875L17.967526562499998,17.44053171875L17.967526562499998,18.16553171875L17.2425265625,18.16553171875L17.2425265625,16.40576171875Q17.2425265625,16.63076171875,17.467526562499998,16.63076171875L6.5322265625,16.63076171875Q6.6254245625,16.63076171875,6.6913255625,16.56486071875Q6.7572265625,16.49895971875,6.7572265625,16.40576171875Z" fill="#121212" fill-opacity="1"/></g><g transform="matrix(0.7071067690849304,-0.7071067690849304,0.7071067690849304,0.7071067690849304,-5.001176971214591,10.357242466823664)"><path d="M9.276708984375,11.215576171875Q9.276708984375,11.144169871875,9.290639984375,11.074136171875Q9.304569984375,11.004101171875,9.331895984375,10.938131171875Q9.359221984375,10.872160171875,9.398893984375,10.812788171875Q9.438564984375,10.753416171875,9.489056984375,10.702924171875Q9.539548984375,10.652432171875,9.598920984375,10.612761171875Q9.658292984375,10.573089171875,9.724263984375,10.545763171875Q9.790233984375,10.518437171875,9.860268984375,10.504507171875Q9.930302684375,10.490576171875,10.001708984375,10.490576171875Q10.073115284375,10.490576171875,10.143148984375,10.504507171875Q10.213183984375,10.518437171875,10.279153984375,10.545763171875Q10.345124984375,10.573089171875,10.404496984375,10.612761171875Q10.463868984375,10.652432171875,10.514360984375,10.702924171875Q10.564852984375,10.753416171875,10.604523984375,10.812788171875Q10.644195984375,10.872160171875,10.671521984375,10.938131171875Q10.698847984375,11.004101171875,10.712777984375,11.074136171875Q10.726708984375,11.144169871875,10.726708984375,11.215576171875L10.726708984375,12.275476171875L13.868738984375,12.275476171875Q13.940148984375,12.275476171875,14.010178984374999,12.289406171875001Q14.080208984375,12.303336171875,14.146188984375,12.330666171875Q14.212158984375,12.357996171875,14.271528984375,12.397666171875Q14.330898984375,12.437336171875,14.381388984375,12.487826171875Q14.431878984375,12.538316171875,14.471558984375001,12.597686171875Q14.511228984375,12.657066171875,14.538548984375,12.723036171875Q14.565878984375,12.789006171875,14.579808984375,12.859036171875Q14.593738984375001,12.929076171875,14.593738984375001,13.000476171875Q14.593738984375001,13.071886171875,14.579808984375,13.141916171875Q14.565878984375,13.211956171875,14.538548984375,13.277926171875Q14.511228984375,13.343896171875,14.471558984375001,13.403266171875Q14.431878984375,13.462636171875,14.381388984375,13.513136171875Q14.330898984375,13.563626171875,14.271528984375,13.603296171875Q14.212158984375,13.642966171874999,14.146188984375,13.670296171875Q14.080208984375,13.697616171875,14.010178984374999,13.711546171875Q13.940148984375,13.725476171875,13.868738984375,13.725476171875L10.001708984375,13.725476171875Q9.930302684375,13.725476171875,9.860268984375,13.711546171875Q9.790233984375,13.697616171875,9.724263984375,13.670296171875Q9.658292984375,13.642966171874999,9.598920984375,13.603296171875Q9.539548984375,13.563626171875,9.489056984375,13.513136171875Q9.438564984375,13.462636171875,9.398893984375,13.403266171875Q9.359221984375,13.343896171875,9.331895984375,13.277926171875Q9.304569984375,13.211956171875,9.290639984375,13.141916171875Q9.276708984375,13.071886171875,9.276708984375,13.000476171875L9.276708984375,11.215576171875Z" fill-rule="evenodd" fill="#121212" fill-opacity="1"/></g></g></svg>