<svg xmlns="http://www.w3.org/2000/svg" xmlns:xlink="http://www.w3.org/1999/xlink" fill="none" version="1.1" width="24" height="24" viewBox="0 0 24 24"><g><g></g><g><g><path d="M6,6.1250081062316895L18,6.1250081062316895Q18.086199999999998,6.1250081062316895,18.1707,6.141821106231689Q18.255200000000002,6.158634106231689,18.3348,6.19161410623169Q18.4145,6.22459310623169,18.4861,6.27247210623169Q18.5578,6.32035110623169,18.6187,6.381290106231689Q18.6797,6.442228106231689,18.7275,6.513884106231689Q18.775399999999998,6.585540106231689,18.8084,6.665160106231689Q18.8414,6.74478010623169,18.8582,6.82930410623169Q18.875,6.91382810623169,18.875,7.0000081062316895Q18.875,7.086188106231689,18.8582,7.170712106231689Q18.8414,7.255236106231689,18.8084,7.3348561062316895Q18.775399999999998,7.41447610623169,18.7275,7.48613210623169Q18.6797,7.55778810623169,18.6187,7.61872610623169Q18.5578,7.679665106231689,18.4861,7.727544106231689Q18.4145,7.775423106231689,18.3348,7.808402106231689Q18.255200000000002,7.8413821062316895,18.1707,7.8581951062316895Q18.086199999999998,7.8750081062316895,18,7.8750081062316895L6,7.8750081062316895Q5.91382,7.8750081062316895,5.829296,7.8581951062316895Q5.744772,7.8413821062316895,5.665152,7.808402106231689Q5.585532,7.775423106231689,5.513876,7.727544106231689Q5.44222,7.679665106231689,5.381282,7.61872610623169Q5.320343,7.55778810623169,5.272464,7.48613210623169Q5.224585,7.41447610623169,5.191606,7.3348561062316895Q5.158626,7.255236106231689,5.141813,7.170712106231689Q5.125,7.086188106231689,5.125,7.0000081062316895Q5.125,6.91382810623169,5.141813,6.82930410623169Q5.158626,6.74478010623169,5.191606,6.665160106231689Q5.224585,6.585540106231689,5.272464,6.513884106231689Q5.320343,6.442228106231689,5.381282,6.381290106231689Q5.44222,6.32035110623169,5.513876,6.27247210623169Q5.585532,6.22459310623169,5.665152,6.19161410623169Q5.744772,6.158634106231689,5.829296,6.141821106231689Q5.91382,6.1250081062316895,6,6.1250081062316895Z" fill-rule="evenodd" fill="#121212" fill-opacity="1"/></g><g><path d="M6,11.12499189376831L18,11.12499189376831Q18.086199999999998,11.12499189376831,18.1707,11.14180489376831Q18.255200000000002,11.15861789376831,18.3348,11.19159789376831Q18.4145,11.22457689376831,18.4861,11.27245589376831Q18.5578,11.32033489376831,18.6187,11.381273893768311Q18.6797,11.442211893768311,18.7275,11.51386789376831Q18.775399999999998,11.585523893768311,18.8084,11.665143893768311Q18.8414,11.74476389376831,18.8582,11.82928789376831Q18.875,11.91381189376831,18.875,11.99999189376831Q18.875,12.086171893768311,18.8582,12.170695893768311Q18.8414,12.255219893768311,18.8084,12.33483989376831Q18.775399999999998,12.41445989376831,18.7275,12.48611589376831Q18.6797,12.55777189376831,18.6187,12.61870989376831Q18.5578,12.679648893768311,18.4861,12.727527893768311Q18.4145,12.775406893768311,18.3348,12.80838589376831Q18.255200000000002,12.84136589376831,18.1707,12.858178893768311Q18.086199999999998,12.87499189376831,18,12.87499189376831L6,12.87499189376831Q5.91382,12.87499189376831,5.829296,12.858178893768311Q5.744772,12.84136589376831,5.665152,12.80838589376831Q5.585532,12.775406893768311,5.513876,12.727527893768311Q5.44222,12.679648893768311,5.381282,12.61870989376831Q5.320343,12.55777189376831,5.272464,12.48611589376831Q5.224585,12.41445989376831,5.191606,12.33483989376831Q5.158626,12.255219893768311,5.141813,12.170695893768311Q5.125,12.086171893768311,5.125,11.99999189376831Q5.125,11.91381189376831,5.141813,11.82928789376831Q5.158626,11.74476389376831,5.191606,11.665143893768311Q5.224585,11.585523893768311,5.272464,11.51386789376831Q5.320343,11.442211893768311,5.381282,11.381273893768311Q5.44222,11.32033489376831,5.513876,11.27245589376831Q5.585532,11.22457689376831,5.665152,11.19159789376831Q5.744772,11.15861789376831,5.829296,11.14180489376831Q5.91382,11.12499189376831,6,11.12499189376831Z" fill-rule="evenodd" fill="#121212" fill-opacity="1"/></g><g><path d="M6,16.125L18,16.125Q18.086199999999998,16.125,18.1707,16.141813Q18.255200000000002,16.158626,18.3348,16.191606Q18.4145,16.224585,18.4861,16.272464Q18.5578,16.320343,18.6187,16.381282Q18.6797,16.44222,18.7275,16.513876Q18.775399999999998,16.585532,18.8084,16.665152Q18.8414,16.744772,18.8582,16.829296Q18.875,16.91382,18.875,17Q18.875,17.08618,18.8582,17.170704Q18.8414,17.255228,18.8084,17.334848Q18.775399999999998,17.414468,18.7275,17.486124Q18.6797,17.55778,18.6187,17.618718Q18.5578,17.679657,18.4861,17.727536Q18.4145,17.775415,18.3348,17.808394Q18.255200000000002,17.841374,18.1707,17.858187Q18.086199999999998,17.875,18,17.875L6,17.875Q5.91382,17.875,5.829296,17.858187Q5.744772,17.841374,5.665152,17.808394Q5.585532,17.775415,5.513876,17.727536Q5.44222,17.679657,5.381282,17.618718Q5.320343,17.55778,5.272464,17.486124Q5.224585,17.414468,5.191606,17.334848Q5.158626,17.255228,5.141813,17.170704Q5.125,17.08618,5.125,17Q5.125,16.91382,5.141813,16.829296Q5.158626,16.744772,5.191606,16.665152Q5.224585,16.585532,5.272464,16.513876Q5.320343,16.44222,5.381282,16.381282Q5.44222,16.320343,5.513876,16.272464Q5.585532,16.224585,5.665152,16.191606Q5.744772,16.158626,5.829296,16.141813Q5.91382,16.125,6,16.125Z" fill-rule="evenodd" fill="#121212" fill-opacity="1"/></g></g></g></svg>