<svg xmlns="http://www.w3.org/2000/svg" xmlns:xlink="http://www.w3.org/1999/xlink" fill="none" version="1.1" width="24" height="24" viewBox="0 0 24 24"><g><g><g><ellipse cx="12" cy="12" rx="9.625" ry="9.625" fill-opacity="0" stroke-opacity="1" stroke="#000000" fill="none" stroke-width="1.75"/></g><g><g><path d="M11.032471445312499,12.967865234375001L11.032471445312499,15.870055234375Q11.032471445312499,15.965355234375,11.0510614453125,16.058825234375Q11.0696514453125,16.152295234375,11.1061214453125,16.240335234375Q11.142591445312501,16.328375234375002,11.1955314453125,16.407615234375Q11.2484814453125,16.486855234375,11.3158714453125,16.554235234375Q11.3832514453125,16.621625234375,11.4624914453125,16.674565234375002Q11.5417314453125,16.727515234374998,11.6297714453125,16.763985234375Q11.717811445312499,16.800455234375,11.811281445312499,16.819045234375Q11.904751445312499,16.837635234375,12.0000514453125,16.837635234375Q12.0953414453125,16.837635234375,12.1888114453125,16.819045234375Q12.282281445312499,16.800455234375,12.3703214453125,16.763985234375Q12.458371445312501,16.727515234374998,12.5376014453125,16.674565234375002Q12.616841445312499,16.621625234375,12.6842314453125,16.554235234375Q12.7516114453125,16.486855234375,12.804561445312501,16.407615234375Q12.8575014453125,16.328375234375002,12.8939714453125,16.240335234375Q12.9304414453125,16.152295234375,12.9490314453125,16.058825234375Q12.9676214453125,15.965355234375,12.9676214453125,15.870055234375L12.9676214453125,12.967865234375001L15.8704214453125,12.967865234375001Q15.9657214453125,12.967865234375001,16.0591914453125,12.949275234375001Q16.1526614453125,12.930685234375,16.2407014453125,12.894215234375Q16.328741445312502,12.857745234374999,16.4079814453125,12.804805234375Q16.4872214453125,12.751855234375,16.5546014453125,12.684475234375Q16.6219914453125,12.617085234375,16.674931445312502,12.537845234375Q16.727881445312498,12.458615234375,16.7643514453125,12.370565234375Q16.8008214453125,12.282525234375,16.8194114453125,12.189055234375001Q16.8380014453125,12.095585234375001,16.8380014453125,12.000295234374999Q16.8380014453125,11.904995234375,16.8194114453125,11.811525234375Q16.8008214453125,11.718055234375,16.7643514453125,11.630015234375Q16.727881445312498,11.541975234375,16.674931445312502,11.462735234375Q16.6219914453125,11.383495234375001,16.5546014453125,11.316115234375001Q16.4872214453125,11.248725234375,16.4079814453125,11.195785234375Q16.328741445312502,11.142835234375,16.2407014453125,11.106365234375Q16.1526614453125,11.069895234375,16.0591914453125,11.051305234375Q15.9657214453125,11.032715234375,15.8704214453125,11.032715234375L12.9676214453125,11.032715234375L12.9676214453125,8.129442234375Q12.9676214453125,8.034144234375,12.9490314453125,7.940677234375Q12.9304414453125,7.847210234375,12.8939714453125,7.759166234375Q12.8575014453125,7.671122234375,12.804561445312501,7.591885234375Q12.7516114453125,7.512648234375,12.6842314453125,7.445262234375Q12.616841445312499,7.377876234375,12.5376014453125,7.324931234375Q12.458371445312501,7.271986234375,12.3703214453125,7.235517634375Q12.282281445312499,7.199048634375,12.1888114453125,7.180456934375Q12.0953414453125,7.161865234375,12.0000514453125,7.161865234375Q11.904751445312499,7.161865234375,11.811281445312499,7.180456934375Q11.717811445312499,7.199048634375,11.6297714453125,7.235517634375Q11.5417314453125,7.271986234375,11.4624914453125,7.324931234375Q11.3832514453125,7.377876234375,11.3158714453125,7.445262234375Q11.2484814453125,7.512648234375,11.1955314453125,7.591885234375Q11.142591445312501,7.671122234375,11.1061214453125,7.759166234375Q11.0696514453125,7.847210234375,11.0510614453125,7.940677234375Q11.032471445312499,8.034144234375,11.032471445312499,8.129442234375L11.032471445312499,11.032715234375L8.1298084453125,11.032715234375Q8.0345104453125,11.032715234375,7.9410434453125,11.051305234375Q7.8475764453125,11.069895234375,7.7595324453125,11.106365234375Q7.6714884453125,11.142835234375,7.5922514453125,11.195785234375Q7.5130144453125,11.248725234375,7.4456284453125,11.316115234375001Q7.3782424453125,11.383495234375001,7.3252974453125,11.462735234375Q7.2723524453125,11.541975234375,7.2358838453125,11.630015234375Q7.1994148453125,11.718055234375,7.1808231453125,11.811525234375Q7.1622314453125,11.904995234375,7.1622314453125,12.000295234374999Q7.1622314453125,12.095585234375001,7.1808231453125,12.189055234375001Q7.1994148453125,12.282525234375,7.2358838453125,12.370565234375Q7.2723524453125,12.458615234375,7.3252974453125,12.537845234375Q7.3782424453125,12.617085234375,7.4456284453125,12.684475234375Q7.5130144453125,12.751855234375,7.5922514453125,12.804805234375Q7.6714884453125,12.857745234374999,7.7595324453125,12.894215234375Q7.8475764453125,12.930685234375,7.9410434453125,12.949275234375001Q8.0345104453125,12.967865234375001,8.1298084453125,12.967865234375001L11.032471445312499,12.967865234375001Z" fill-rule="evenodd" fill="#302A2A" fill-opacity="1"/></g></g></g></g></svg>