<svg xmlns="http://www.w3.org/2000/svg" xmlns:xlink="http://www.w3.org/1999/xlink" fill="none" version="1.1" width="24" height="24" viewBox="0 0 24 24"><g><g><g><rect x="3.63427734375" y="1.805908203125" width="16.731386184692383" height="20.388368606567383" rx="3" fill-opacity="0" stroke-opacity="1" stroke="#000000" fill="none" stroke-width="1.75"/></g><g><g><path d="M6.7969970703125,11.99993478345871Q6.7969970703125,14.15509478345871,8.3209210703125,15.67901478345871Q8.4439920703125,15.80208478345871,8.6047920703125,15.868694783458709Q8.7655870703125,15.93529478345871,8.9396370703125,15.93529478345871Q9.1136870703125,15.93529478345871,9.2744870703125,15.868694783458709Q9.4352870703125,15.80208478345871,9.5583570703125,15.67901478345871Q9.6814270703125,15.55594478345871,9.748037070312499,15.39514478345871Q9.8146370703125,15.23434478345871,9.8146370703125,15.060294783458708Q9.8146370703125,15.03764478345871,9.8134670703125,15.01502478345871Q9.8050670703125,14.85293478345871,9.7390970703125,14.70464478345871Q9.6731270703125,14.556344783458709,9.5583570703125,14.441574783458709Q8.5469970703125,13.430214783458709,8.5469970703125,11.99993478345871Q8.5469970703125,10.56965478345871,9.5583570703125,9.55829478345871Q10.5697170703125,8.54693478345871,11.9999970703125,8.54693478345871Q12.0861770703125,8.54693478345871,12.170707070312499,8.53012178345871Q12.2552270703125,8.51330878345871,12.334847070312499,8.48032878345871Q12.4144670703125,8.44734978345871,12.486127070312499,8.39947078345871Q12.5577770703125,8.35159178345871,12.6187170703125,8.29065278345871Q12.6796570703125,8.229714783458709,12.7275370703125,8.15805878345871Q12.7754170703125,8.086402783458709,12.8083970703125,8.006782783458709Q12.8413770703125,7.9271627834587095,12.8581870703125,7.8426387834587095Q12.8749970703125,7.758114783458709,12.8749970703125,7.67193478345871Q12.8749970703125,7.58575478345871,12.8581870703125,7.50123078345871Q12.8413770703125,7.41670678345871,12.8083970703125,7.33708678345871Q12.7754170703125,7.257466783458709,12.7275370703125,7.1858107834587095Q12.6796570703125,7.1141547834587096,12.6187170703125,7.053216783458709Q12.5577770703125,6.99227778345871,12.486127070312499,6.94439878345871Q12.4144670703125,6.89651978345871,12.334847070312499,6.86354078345871Q12.2552270703125,6.83056078345871,12.170707070312499,6.81374778345871Q12.0861770703125,6.79693478345871,11.9999970703125,6.79693478345871Q9.8448470703125,6.79693478345871,8.3209210703125,8.320858783458709Q6.7969970703125,9.84478478345871,6.7969970703125,11.99993478345871ZM17.203007070312502,11.99993478345871Q17.203007070312502,9.84478478345871,15.6790770703125,8.320858783458709Q15.5560070703125,8.19778878345871,15.3952070703125,8.13118278345871Q15.2344070703125,8.06457778345871,15.060357070312499,8.06457778345871Q15.0393370703125,8.06457778345871,15.0183270703125,8.06558778345871Q14.8553670703125,8.07342478345871,14.706187070312499,8.13946078345871Q14.557007070312501,8.20549678345871,14.4416470703125,8.320858783458709Q14.3185670703125,8.44392978345871,14.2519670703125,8.60472878345871Q14.185357070312499,8.76552478345871,14.185357070312499,8.93957478345871Q14.185357070312499,9.11362478345871,14.2519670703125,9.27442478345871Q14.3185670703125,9.43522478345871,14.441637070312499,9.55829478345871Q15.4530070703125,10.56965478345871,15.4530070703125,11.99993478345871Q15.4530070703125,13.430214783458709,14.441637070312499,14.441574783458709Q13.4302770703125,15.45294478345871,11.9999970703125,15.45294478345871Q11.9138170703125,15.45294478345871,11.8292970703125,15.46975478345871Q11.7447670703125,15.48656478345871,11.6651470703125,15.51954478345871Q11.5855270703125,15.55252478345871,11.5138770703125,15.60040478345871Q11.4422170703125,15.64828478345871,11.3812770703125,15.70922478345871Q11.3203470703125,15.77015478345871,11.2724670703125,15.841814783458709Q11.2245870703125,15.91347478345871,11.1916070703125,15.99309478345871Q11.1586270703125,16.072714783458707,11.1418170703125,16.157234783458712Q11.1249970703125,16.24176478345871,11.1249970703125,16.32794478345871Q11.1249970703125,16.41412478345871,11.1418170703125,16.498644783458708Q11.1586270703125,16.58316478345871,11.1916070703125,16.66278478345871Q11.2245870703125,16.74240478345871,11.2724670703125,16.81406478345871Q11.3203470703125,16.88572478345871,11.3812770703125,16.946654783458712Q11.4422170703125,17.00759478345871,11.5138770703125,17.05547478345871Q11.5855270703125,17.10335478345871,11.6651470703125,17.136334783458707Q11.7447670703125,17.16931478345871,11.8292970703125,17.18612478345871Q11.9138170703125,17.20294478345871,11.9999970703125,17.20294478345871Q14.1551570703125,17.20294478345871,15.6790770703125,15.67901478345871Q17.203007070312502,14.15509478345871,17.203007070312502,11.99993478345871Z" fill-rule="evenodd" fill="#121212" fill-opacity="1"/></g><g><path d="M12.164982,15.468634940856933L14.76163,15.966622940856933Q14.836,15.980885940856934,14.90682,16.007714940856932Q14.977640000000001,16.034544940856932,15.04279,16.073141940856935Q15.10795,16.111738940856934,15.1655,16.160956940856934Q15.22305,16.210173940856933,15.2713,16.268548140856932Q15.31954,16.326922020856934,15.35704,16.392716440856933Q15.39453,16.458510940856932,15.42017,16.529768940856933Q15.4458,16.601026940856933,15.45881,16.675629940856933Q15.471820000000001,16.750232940856932,15.471820000000001,16.825961940856935Q15.471820000000001,16.912141940856934,15.45501,16.996665940856932Q15.4382,17.081189940856934,15.40522,17.160809940856932Q15.37224,17.240429940856934,15.32436,17.312085940856935Q15.27648,17.383740940856935,15.21554,17.444680940856934Q15.1546,17.505620940856932,15.08295,17.553500940856935Q15.011289999999999,17.601380940856934,14.93167,17.634360940856933Q14.85205,17.667340940856935,14.76753,17.684150940856934Q14.683,17.700960940856934,14.596820000000001,17.700960940856934Q14.51368,17.700960940856934,14.43202,17.685300940856933L11.835372,17.187313940856935L11.835195,17.187279940856932Q11.760822,17.173016940856932,11.690004,17.146187940856933Q11.619187,17.119357940856933,11.554033,17.080760940856933Q11.488878,17.042163940856934,11.431324,16.992945940856934Q11.373769,16.943728940856932,11.325526,16.885354940856935Q11.277284,16.826980940856934,11.239787,16.761186940856934Q11.202291,16.695391940856933,11.176656,16.624133940856932Q11.151022,16.552875940856932,11.138011,16.478272940856932Q11.125,16.403669940856933,11.125,16.327940940856934Q11.125,16.241760940856935,11.141812999999999,16.157236940856933Q11.158626,16.072712940856935,11.191606,15.993092940856934Q11.224585,15.913472940856934,11.272464,15.841816940856933Q11.320343,15.770160940856934,11.381282,15.709222940856934Q11.44222,15.648283940856933,11.513876,15.600404940856933Q11.585532,15.552525940856933,11.665152,15.519546940856934Q11.744772,15.486566940856934,11.829296,15.469753940856933Q11.91382,15.452940940856934,12,15.452940940856934Q12.0831465,15.452940940856934,12.164805,15.468601940856933L12.164982,15.468634940856933Z" fill-rule="evenodd" fill="#121212" fill-opacity="1"/></g><g><path d="M9.5679542421875,6.314723265625L12.1647582421875,6.812586265625Q12.2391382421875,6.826845265625,12.3099582421875,6.853672265625Q12.3807782421875,6.880499265625,12.4459382421875,6.919095265625Q12.5110982421875,6.957691265625,12.5686482421875,7.006909265625Q12.6262082421875,7.056126265625,12.6744582421875,7.114501465625Q12.722708242187501,7.172876425625,12.760208242187499,7.238672765625Q12.7976982421875,7.304469265625,12.8233382421875,7.375730265625Q12.8489782421875,7.446991265625,12.8619882421875,7.521596265625Q12.8749982421875,7.596202265625,12.8749982421875,7.671935265625Q12.8749982421875,7.758114265625,12.8581882421875,7.842639265625Q12.8413782421875,7.9271632656249995,12.8083982421875,8.006782265625Q12.7754182421875,8.086402265625,12.7275382421875,8.158058265625Q12.6796582421875,8.229712265625,12.6187182421875,8.290652265624999Q12.5577782421875,8.351592265625,12.486128242187501,8.399472265625Q12.4144682421875,8.447352265625,12.3348482421875,8.480332265625Q12.2552282421875,8.513312265625,12.1707082421875,8.530122265625Q12.0861782421875,8.546932265625,11.9999982421875,8.546932265625Q11.9168782421875,8.546932265625,11.8352482421875,8.531282265625L11.8349782421875,8.531232265625L9.2384422421875,8.033421265625Q9.1640652421875,8.019161265625,9.0932432421875,7.992334265625Q9.022422242187499,7.965508265625,8.9572632421875,7.926911265625Q8.8921042421875,7.888315265625,8.8345452421875,7.839098265625Q8.7769872421875,7.789880265625,8.7287402421875,7.731505265625Q8.6804942421875,7.673130265625,8.6429952421875,7.607334265625Q8.6054952421875,7.541538265625,8.5798592421875,7.470277265625Q8.5542222421875,7.399016265625,8.5412102421875,7.324410265625Q8.5281982421875,7.249804365625,8.5281982421875,7.174072265625Q8.5281982421875,7.087892265625,8.545011242187499,7.003368265625Q8.5618242421875,6.918844265625,8.5948042421875,6.839224265625Q8.6277832421875,6.759604265625,8.6756622421875,6.687948265625Q8.7235412421875,6.616292265625,8.7844802421875,6.555354265625Q8.8454182421875,6.494415265625,8.9170742421875,6.446536265625Q8.9887302421875,6.398657265625,9.0683502421875,6.365678265625Q9.1479702421875,6.332698265625,9.2324942421875,6.315885265625Q9.3170182421875,6.299072265625,9.4031982421875,6.299072265625Q9.4863194421875,6.299072265625,9.5679542421875,6.314723265625Z" fill-rule="evenodd" fill="#121212" fill-opacity="1"/></g></g></g></g></svg>