<svg xmlns="http://www.w3.org/2000/svg" xmlns:xlink="http://www.w3.org/1999/xlink" fill="none" version="1.1" width="10" height="10" viewBox="0 0 10 10"><g><g><path d="M4,6L4,9Q4,9.09849,4.01921,9.19509Q4.03843,9.29169,4.07612,9.38268Q4.11381,9.47368,4.16853,9.55557Q4.22325,9.63746,4.29289,9.70711Q4.36254,9.77675,4.44443,9.83147Q4.52632,9.88619,4.61732,9.92388Q4.70831,9.96157,4.80491,9.98078Q4.90151,10,5,10Q5.09849,10,5.19509,9.98078Q5.29169,9.96157,5.38268,9.92388Q5.47368,9.88619,5.55557,9.83147Q5.63746,9.77675,5.70711,9.70711Q5.77675,9.63746,5.83147,9.55557Q5.88619,9.47368,5.92388,9.38268Q5.96157,9.29169,5.98078,9.19509Q6,9.09849,6,9L6,6L9,6Q9.09849,6,9.19509,5.98078Q9.29169,5.96157,9.38268,5.92388Q9.47368,5.88619,9.55557,5.83147Q9.63746,5.77675,9.70711,5.70711Q9.77675,5.63746,9.83147,5.55557Q9.88619,5.47368,9.92388,5.38268Q9.96157,5.29169,9.98078,5.19509Q10,5.09849,10,5Q10,4.90151,9.98078,4.80491Q9.96157,4.70831,9.92388,4.61732Q9.88619,4.52632,9.83147,4.44443Q9.77675,4.36254,9.70711,4.29289Q9.63746,4.22325,9.55557,4.16853Q9.47368,4.11381,9.38268,4.07612Q9.29169,4.03843,9.19509,4.01921Q9.09849,4,9,4L6,4L6,1Q6,0.901509,5.98078,0.80491Q5.96157,0.708311,5.92388,0.617316Q5.88619,0.526322,5.83147,0.44443Q5.77675,0.362537,5.70711,0.292893Q5.63746,0.223249,5.55557,0.16853Q5.47368,0.113811,5.38268,0.0761205Q5.29169,0.0384294,5.19509,0.0192147Q5.09849,0,5,0Q4.90151,0,4.80491,0.0192147Q4.70831,0.0384294,4.61732,0.0761205Q4.52632,0.113811,4.44443,0.16853Q4.36254,0.223249,4.29289,0.292893Q4.22325,0.362537,4.16853,0.44443Q4.11381,0.526322,4.07612,0.617316Q4.03843,0.708311,4.01921,0.80491Q4,0.901509,4,1L4,4L1,4Q0.901509,4,0.80491,4.01921Q0.708311,4.03843,0.617316,4.07612Q0.526322,4.11381,0.44443,4.16853Q0.362537,4.22325,0.292893,4.29289Q0.223249,4.36254,0.16853,4.44443Q0.113811,4.52632,0.0761205,4.61732Q0.0384294,4.70831,0.0192147,4.80491Q0,4.90151,0,5Q0,5.09849,0.0192147,5.19509Q0.0384294,5.29169,0.0761205,5.38268Q0.113811,5.47368,0.16853,5.55557Q0.223249,5.63746,0.292893,5.70711Q0.362537,5.77675,0.44443,5.83147Q0.526322,5.88619,0.617316,5.92388Q0.708311,5.96157,0.80491,5.98078Q0.901509,6,1,6L4,6Z" fill-rule="evenodd" fill="#121212" fill-opacity="1"/></g></g></svg>