<svg xmlns="http://www.w3.org/2000/svg" xmlns:xlink="http://www.w3.org/1999/xlink" fill="none" version="1.1" width="160" height="62.490966796875" viewBox="0 0 160 62.490966796875"><g><g><path d="M0,0L0,12.1686L15.7183,12.1686L15.7183,48.8402L27.887,48.8402L27.887,12.1686L36.4389,12.1686C40.4004,12.1686,43.6121,8.95782,43.6132,4.99636L43.6132,0L0,0Z" fill="#FFFFFF" fill-opacity="1" style="mix-blend-mode:passthrough"/></g><g><path d="M158.94157685546875,31.11542828979492C158.27467685546875,29.80722828979492,157.31247685546876,28.672228289794923,156.13097685546876,27.800228289794923C154.90907685546875,26.91682828979492,153.54437685546876,26.250128289794922,152.09647685546875,25.829328289794923C150.55057685546876,25.36582828979492,148.97297685546874,25.016028289794924,147.37607685546874,24.78272828979492L140.81867685546874,23.84652828979492Q138.51267685546875,23.47602828979492,137.35177685546876,22.96752828979492C136.63177685546876,22.70342828979492,136.16587685546875,22.003128289794923,136.20077685546875,21.23702828979492Q136.20077685546875,20.01303828979492,137.46017685546875,19.256198289794924Q138.71967685546875,18.499348289794924,141.96377685546875,18.499348289794924C143.69087685546876,18.482488289794922,145.41567685546875,18.626998289794923,147.11587685546874,18.93098828979492C148.43287685546875,19.169318289794923,149.73257685546875,19.494578289794923,151.00657685546875,19.904638289794924C151.90707685546874,20.18672828979492,152.77617685546875,20.560528289794924,153.60027685546873,21.02022828979492C154.01757685546875,21.24662828979492,154.41337685546875,21.51052828979492,154.78287685546874,21.80862828979492C154.87747685546876,21.759328289794922,155.10607685546876,21.611528289794922,155.46677685546877,21.374928289794923C156.40877685546874,20.71562828979492,157.17537685546876,19.836008289794922,157.69987685546874,18.812728289794922C158.02157685546877,18.176738289794923,158.18267685546874,17.47161828979492,158.16897685546874,16.75899828979492C158.19747685546875,15.834898289794921,157.90497685546876,14.929478289794922,157.34117685546875,14.196758289794921C156.73997685546874,13.459068289794923,155.99147685546876,12.854908289794922,155.14357685546875,12.422908289794922C153.35887685546874,11.542648289794922,151.45207685546876,10.935392289794923,149.48687685546875,10.621452289794922Q146.22107685546874,10.075501169794922,141.68787685546874,10.073528289794922Q137.22167685546876,10.073528289794922,133.97757685546875,11.047178289794921Q130.73334685546874,12.020828289794922,128.64611685546876,13.713878289794922C127.31487685546875,14.762418289794923,126.26285685546875,16.123148289794923,125.58326685546875,17.67548828979492C124.92548685546875,19.237568289794922,124.59478685546875,20.917928289794922,124.61158685546874,22.612728289794923Q124.61158685546874,25.782028289794923,125.76262685546875,27.873228289794923C126.51641685546875,29.250128289794922,127.59230685546875,30.424028289794922,128.89840685546875,31.29472828979492C130.29940685546876,32.21902828979492,131.84580685546874,32.90132828979492,133.47297685546874,33.31302828979492C135.24977685546875,33.77852828979492,137.05507685546874,34.127528289794924,138.87737685546875,34.35762828979492L142.62217685546875,34.78922828979492Q145.28887685546874,35.14992828979492,146.55027685546875,35.690028289794924Q147.81167685546876,36.23002828979492,147.80967685546875,37.67272828979492Q147.80967685546875,39.04252828979492,146.29797685546876,39.58062828979492Q144.78627685546874,40.11872828979492,141.82787685546876,40.114728289794925C140.17727685546876,40.121128289794925,138.52907685546876,39.989328289794926,136.90047685546875,39.72062828979492C135.48977685546876,39.490128289794924,134.09387685546875,39.176828289794926,132.72006685546876,38.78242828979492C131.51374685546875,38.43632828979492,130.33510685546875,38.00012828979492,129.19403685546874,37.47762828979492C128.50222685546876,37.14452828979492,127.76311685546875,36.77792828979492,127.02598685546874,36.385728289794926C126.28268685546875,39.164828289794926,125.02154685546876,41.77882828979492,123.30877685546875,44.09022828979492C124.09715685546875,44.56712828979492,124.86188685546875,44.986928289794925,125.59311685546875,45.33972828979492C126.83715685546875,45.96052828979492,128.12579685546876,46.48762828979492,129.44829685546875,46.916528289794925C133.71777685546874,48.23352828979492,138.16627685546874,48.87782828979492,142.63397685546875,48.82642828979492Q150.77597685546874,48.82642828979492,155.38797685546876,45.44032828979492Q159.99997685546876,42.05422828979492,159.99997685546876,36.00142828979492Q159.98617685546876,33.13362828979492,158.94157685546875,31.11542828979492Z" fill="#FFFFFF" fill-opacity="1" style="mix-blend-mode:passthrough"/></g><g><path d="M80.98259735107422,29.455819580078124C81.21911435107423,3.606839580078125,121.83449735107422,3.6127595800781247,122.07689735107422,29.455819580078124C121.84039735107422,55.30091958007812,81.22304735107421,55.30091958007812,80.98259735107422,29.455819580078124ZM101.52979735107422,38.563619580078125C112.75039735107421,38.79621958007813,112.75039735107421,20.115519580078125,101.52979735107422,20.348119580078126C90.31701735107421,20.085919580078127,90.31701735107421,38.827719580078124,101.53759735107423,38.563619580078125L101.52979735107422,38.563619580078125Z" fill="#FFFFFF" fill-opacity="1" style="mix-blend-mode:passthrough"/></g><g><path d="M36.84906005859375,29.455860859680175C36.96731805859375,16.530370859680175,47.18076005859375,10.069587979680175,57.39426005859375,10.071560859680176C67.60776005859375,10.073533739680176,77.82906005859374,16.534300859680176,77.94336005859375,29.455860859680175C77.82116005859375,42.377360859680174,67.60776005859375,48.83816085968017,57.396260058593754,48.840160859680175C43.43992005859375,48.84216085968018,36.89636695859375,34.759660859680174,36.84906005859375,29.455860859680175ZM57.396260058593754,38.563660859680176C68.61686005859374,38.79616085968017,68.61686005859374,20.115560859680176,57.396260058593754,20.348060859680174C46.17560005859375,20.085960859680178,46.17560005859375,38.827760859680176,57.396260058593754,38.563660859680176Z" fill="#FFFFFF" fill-opacity="1" style="mix-blend-mode:passthrough"/></g><g><rect x="36.84906005859375" y="29.45586395263672" width="12.13120174407959" height="33.03511047363281" rx="0" fill="#FFFFFF" fill-opacity="1" style="mix-blend-mode:passthrough"/></g></g></svg>