<svg xmlns="http://www.w3.org/2000/svg" xmlns:xlink="http://www.w3.org/1999/xlink" fill="none" version="1.1" width="25.697021484375" height="25.697265625" viewBox="0 0 25.697021484375 25.697265625"><g><g><g transform="matrix(0.7071067690849304,0.7071067690849304,-0.7071067690849304,0.7071067690849304,4.638320977166586,-8.722799243776535)"><rect x="12.8485107421875" y="1.237548828125" width="16.420555114746094" height="16.420555114746094" rx="3" fill-opacity="0" stroke-opacity="1" stroke="#000000" fill="none" stroke-width="1.75"/></g><g><g transform="matrix(0.7071067690849304,0.7071067690849304,-0.7071067690849304,0.7071067690849304,10.94882070618769,-3.4098420228765463)"><path d="M9.5904541015625,14.265464609375L11.4694441015625,14.265464609375Q11.5556241015625,14.265464609375,11.6401441015625,14.248654609375Q11.7246741015625,14.231834609375,11.8042941015625,14.198854609375001Q11.8839141015625,14.165874609374999,11.9555641015625,14.117994609375Q12.0272241015625,14.070124609375,12.0881641015625,14.009184609375Q12.1491041015625,13.948244609375,12.1969741015625,13.876584609375Q12.244854101562499,13.804934609375,12.277834101562501,13.725314609375Q12.3108141015625,13.645694609375,12.3276341015625,13.561164609375Q12.3444441015625,13.476644609375,12.3444441015625,13.390464609375Q12.3444441015625,13.304284609375,12.3276341015625,13.219754609375Q12.3108141015625,13.135234609375,12.277834101562501,13.055614609375Q12.244854101562499,12.975994609375,12.1969741015625,12.904334609375Q12.1491041015625,12.832684609375,12.0881641015625,12.771744609375Q12.0272241015625,12.710804609375,11.9555641015625,12.662924609375Q11.8839141015625,12.615044609375,11.8042941015625,12.582064609375Q11.7246741015625,12.549084609375,11.6401441015625,12.532274609375Q11.5556241015625,12.515464609375,11.4694441015625,12.515464609375L10.4654541015625,12.515464609375L10.4654541015625,11.511474609375Q10.4654541015625,11.425294609375,10.448641101562501,11.340770609375Q10.4318281015625,11.256246609375,10.3988481015625,11.176626609375Q10.3658691015625,11.097006609375,10.3179901015625,11.025350609375Q10.2701111015625,10.953694609375,10.2091721015625,10.892756609375Q10.1482341015625,10.831817609375,10.0765781015625,10.783938609375Q10.0049221015625,10.736059609375,9.9253021015625,10.703080609375Q9.8456821015625,10.670100609375,9.7611581015625,10.653287609374999Q9.6766341015625,10.636474609375,9.5904541015625,10.636474609375Q9.5042741015625,10.636474609375,9.4197501015625,10.653287609374999Q9.3352261015625,10.670100609375,9.2556061015625,10.703080609375Q9.1759861015625,10.736059609375,9.1043301015625,10.783938609375Q9.0326741015625,10.831817609375,8.9717361015625,10.892756609375Q8.9107971015625,10.953694609375,8.8629181015625,11.025350609375Q8.8150391015625,11.097006609375,8.7820601015625,11.176626609375Q8.7490801015625,11.256246609375,8.732267101562499,11.340770609375Q8.7154541015625,11.425294609375,8.7154541015625,11.511474609375L8.7154541015625,13.390464609375Q8.7154541015625,13.476644609375,8.732267101562499,13.561164609375Q8.7490801015625,13.645694609375,8.7820601015625,13.725314609375Q8.8150391015625,13.804934609375,8.8629181015625,13.876584609375Q8.9107971015625,13.948244609375,8.9717361015625,14.009184609375Q9.0326741015625,14.070124609375,9.1043301015625,14.117994609375Q9.1759861015625,14.165874609374999,9.2556061015625,14.198854609375001Q9.3352261015625,14.231834609375,9.4197501015625,14.248654609375Q9.5042741015625,14.265464609375,9.5904541015625,14.265464609375Z" fill-rule="evenodd" fill="#000000" fill-opacity="1"/></g><g transform="matrix(-0.7071067690849304,0.7071067690849304,0.7071067690849304,0.7071067690849304,19.355996974540176,-8.017516148916911)"><path d="M16.106689453125,14.265464609375L17.985679453125,14.265464609375Q18.071859453125,14.265464609375,18.156379453125,14.248654609375Q18.240909453125,14.231834609375,18.320529453125,14.198854609375001Q18.400149453125,14.165874609374999,18.471799453125,14.117994609375Q18.543459453125,14.070124609375,18.604399453125,14.009184609375Q18.665339453125,13.948244609375,18.713209453125,13.876584609375Q18.761089453125,13.804934609375,18.794069453125,13.725314609375Q18.827049453125,13.645694609375,18.843869453125,13.561164609375Q18.860679453125,13.476644609375,18.860679453125,13.390464609375Q18.860679453125,13.304284609375,18.843869453125,13.219754609375Q18.827049453125,13.135234609375,18.794069453125,13.055614609375Q18.761089453125,12.975994609375,18.713209453125,12.904334609375Q18.665339453125,12.832684609375,18.604399453125,12.771744609375Q18.543459453125,12.710804609375,18.471799453125,12.662924609375Q18.400149453125,12.615044609375,18.320529453125,12.582064609375Q18.240909453125,12.549084609375,18.156379453125,12.532274609375Q18.071859453125,12.515464609375,17.985679453125,12.515464609375L16.981689453125,12.515464609375L16.981689453125,11.511474609375Q16.981689453125,11.425294609375,16.964876453125,11.340770609375Q16.948063453125,11.256246609375,16.915083453125,11.176626609375Q16.882104453125,11.097006609375,16.834225453125,11.025350609375Q16.786346453125,10.953694609375,16.725407453125,10.892756609375Q16.664469453125,10.831817609375,16.592813453125,10.783938609375Q16.521157453125,10.736059609375,16.441537453125,10.703080609375Q16.361917453125,10.670100609375,16.277393453125,10.653287609374999Q16.192869453125,10.636474609375,16.106689453125,10.636474609375Q16.020509453125,10.636474609375,15.935985453125,10.653287609374999Q15.851461453125,10.670100609375,15.771841453125,10.703080609375Q15.692221453125,10.736059609375,15.620565453125,10.783938609375Q15.548909453125,10.831817609375,15.487971453125,10.892756609375Q15.427032453125,10.953694609375,15.379153453125,11.025350609375Q15.331274453125,11.097006609375,15.298295453125,11.176626609375Q15.265315453125,11.256246609375,15.248502453124999,11.340770609375Q15.231689453125,11.425294609375,15.231689453125,11.511474609375L15.231689453125,13.390464609375Q15.231689453125,13.476644609375,15.248502453124999,13.561164609375Q15.265315453125,13.645694609375,15.298295453125,13.725314609375Q15.331274453125,13.804934609375,15.379153453125,13.876584609375Q15.427032453125,13.948244609375,15.487971453125,14.009184609375Q15.548909453125,14.070124609375,15.620565453125,14.117994609375Q15.692221453125,14.165874609374999,15.771841453125,14.198854609375001Q15.851461453125,14.231834609375,15.935985453125,14.248654609375Q16.020509453125,14.265464609375,16.106689453125,14.265464609375Z" fill-rule="evenodd" fill="#000000" fill-opacity="1"/></g><g><path d="M8.5093994140625,13.712646484375L17.4352994140625,13.712646484375Q17.521479414062497,13.712646484375,17.6060094140625,13.695833484375001Q17.6905294140625,13.679020484375,17.7701494140625,13.646040484375Q17.8497694140625,13.613061484375,17.9214294140625,13.565182484375Q17.9930794140625,13.517303484375,18.054019414062502,13.456364484375Q18.1149594140625,13.395426484375,18.1628394140625,13.323770484375Q18.210719414062503,13.252114484375,18.243699414062498,13.172494484375Q18.2766794140625,13.092874484375,18.2934894140625,13.008350484375Q18.3102994140625,12.923826484375,18.3102994140625,12.837646484375Q18.3102994140625,12.751466484375,18.2934894140625,12.666942484375Q18.2766794140625,12.582418484375,18.243699414062498,12.502798484375Q18.210719414062503,12.423178484375,18.1628394140625,12.351522484375Q18.1149594140625,12.279866484375,18.054019414062502,12.218928484375Q17.9930794140625,12.157989484375,17.9214294140625,12.110110484375Q17.8497694140625,12.062231484375,17.7701494140625,12.029252484375Q17.6905294140625,11.996272484375,17.6060094140625,11.979459484374999Q17.521479414062497,11.962646484375,17.4352994140625,11.962646484375L8.5093994140625,11.962646484375Q8.4232194140625,11.962646484375,8.3386954140625,11.979459484374999Q8.2541714140625,11.996272484375,8.1745514140625,12.029252484375Q8.0949314140625,12.062231484375,8.0232754140625,12.110110484375Q7.9516194140625,12.157989484375,7.8906814140625,12.218928484375Q7.8297424140625,12.279866484375,7.7818634140625,12.351522484375Q7.7339844140625,12.423178484375,7.7010054140625,12.502798484375Q7.6680254140625,12.582418484375,7.6512124140625,12.666942484375Q7.6343994140625,12.751466484375,7.6343994140625,12.837646484375Q7.6343994140625,12.923826484375,7.6512124140625,13.008350484375Q7.6680254140625,13.092874484375,7.7010054140625,13.172494484375Q7.7339844140625,13.252114484375,7.7818634140625,13.323770484375Q7.8297424140625,13.395426484375,7.8906814140625,13.456364484375Q7.9516194140625,13.517303484375,8.0232754140625,13.565182484375Q8.0949314140625,13.613061484375,8.1745514140625,13.646040484375Q8.2541714140625,13.679020484375,8.3386954140625,13.695833484375001Q8.4232194140625,13.712646484375,8.5093994140625,13.712646484375Z" fill-rule="evenodd" fill="#121212" fill-opacity="1"/></g></g></g></g></svg>