<svg xmlns="http://www.w3.org/2000/svg" xmlns:xlink="http://www.w3.org/1999/xlink" fill="none" version="1.1" width="24" height="24" viewBox="0 0 24 24"><defs><clipPath id="master_svg0_41795_056403"><rect x="0" y="0" width="24" height="24" rx="0"/></clipPath></defs><g><g clip-path="url(#master_svg0_41795_056403)"><g><path d="M1.1251220703125,5.999755859375L1.1251220703125,8.999755859375Q1.1251220703125,9.085935859374999,1.1419350703125,9.170455859375Q1.1587480703125,9.254985859375001,1.1917280703125002,9.334605859375Q1.2247070703125,9.414225859375,1.2725860703125,9.485875859375Q1.3204650703125,9.557535859375001,1.3814040703125001,9.618475859375Q1.4423420703124998,9.679415859375,1.5139980703125,9.727295859375001Q1.5856540703125,9.775165859375,1.6652740703125,9.808145859375Q1.7448940703125,9.841125859375001,1.8294180703125,9.857945859375Q1.9139420703125,9.874755859375,2.0001220703125,9.874755859375Q2.0863020703125,9.874755859375,2.1708260703125,9.857945859375Q2.2553500703125,9.841125859375001,2.3349700703125,9.808145859375Q2.4145900703125,9.775165859375,2.4862460703125002,9.727295859375001Q2.5579020703125,9.679415859375,2.6188400703125,9.618475859375Q2.6797790703124997,9.557535859375001,2.7276580703124997,9.485875859375Q2.7755370703124997,9.414225859375,2.8085160703125,9.334605859375Q2.8414960703125,9.254985859375001,2.8583090703125,9.170455859375Q2.8751220703125,9.085935859374999,2.8751220703125,8.999755859375L2.8751220703125,5.999755859375Q2.8751220703125,5.533765859375,3.2046220703125,5.2042558593749995Q3.5341320703125003,4.874755859375,4.0001220703125,4.874755859375L20.0001220703125,4.874755859375Q20.4661220703125,4.874755859375,20.7956220703125,5.2042558593749995Q21.1251220703125,5.533765859375,21.1251220703125,5.999755859375L21.1251220703125,8.999755859375Q21.1251220703125,9.085935859374999,21.1419220703125,9.170455859375Q21.1587220703125,9.254985859375001,21.1917220703125,9.334605859375Q21.2247220703125,9.414225859375,21.2726220703125,9.485875859375Q21.3204220703125,9.557535859375001,21.3814220703125,9.618475859375Q21.4423220703125,9.679415859375,21.5140220703125,9.727295859375001Q21.5856220703125,9.775165859375,21.6652220703125,9.808145859375Q21.7449220703125,9.841125859375001,21.8294220703125,9.857945859375Q21.9139220703125,9.874755859375,22.0001220703125,9.874755859375Q22.0863220703125,9.874755859375,22.1708220703125,9.857945859375Q22.2553220703125,9.841125859375001,22.3349220703125,9.808145859375Q22.4146220703125,9.775165859375,22.4862220703125,9.727295859375001Q22.5579220703125,9.679415859375,22.6188220703125,9.618475859375Q22.6798220703125,9.557535859375001,22.7276220703125,9.485875859375Q22.7755220703125,9.414225859375,22.8085220703125,9.334605859375Q22.8415220703125,9.254985859375001,22.8583220703125,9.170455859375Q22.8751220703125,9.085935859374999,22.8751220703125,8.999755859375L22.8751220703125,5.999755859375Q22.8751220703125,4.808890859375,22.0330220703125,3.966823959375Q21.1910220703125,3.124755859375,20.0001220703125,3.124755859375L4.0001220703125,3.124755859375Q2.8092580703125,3.124755859375,1.9671900703125,3.966823859375Q1.1251220703125,4.808891859375,1.1251220703125,5.999755859375Z" fill-rule="evenodd" fill="#121212" fill-opacity="1"/></g><g><path d="M1.1251220703125,9L1.1251220703125,16Q1.1251220703125,18.019289999999998,2.5529760703125,19.4471Q3.9808320703125,20.875,6.0001220703125,20.875L18.0001220703125,20.875Q20.0194220703125,20.875,21.4472220703125,19.4471Q22.8751220703125,18.019289999999998,22.8751220703125,16L22.8751220703125,9Q22.8751220703125,8.91382,22.8583220703125,8.829296Q22.8415220703125,8.744772,22.8085220703125,8.665152Q22.7755220703125,8.585532,22.7276220703125,8.513876Q22.6798220703125,8.44222,22.6188220703125,8.381282Q22.5579220703125,8.320343,22.4862220703125,8.272464Q22.4146220703125,8.224585,22.3349220703125,8.191606Q22.2553220703125,8.158626,22.1708220703125,8.141812999999999Q22.0863220703125,8.125,22.0001220703125,8.125L2.0001220703125,8.125Q1.9139420703125,8.125,1.8294180703125,8.141812999999999Q1.7448940703125,8.158626,1.6652740703125,8.191606Q1.5856540703125,8.224585,1.5139980703125,8.272464Q1.4423420703124998,8.320343,1.3814040703125001,8.381282Q1.3204650703125,8.44222,1.2725860703125,8.513876Q1.2247070703125,8.585532,1.1917280703125002,8.665152Q1.1587480703125,8.744772,1.1419350703125,8.829296Q1.1251220703125,8.91382,1.1251220703125,9ZM2.8751220703125,16L2.8751220703125,9.875L21.1251220703125,9.875L21.1251220703125,16Q21.1251220703125,17.294420000000002,20.2098220703125,18.20971Q19.2945220703125,19.125,18.0001220703125,19.125L6.0001220703125,19.125Q4.705702070312499,19.125,3.7904120703124997,18.20971Q2.8751220703125,17.294420000000002,2.8751220703125,16Z" fill-rule="evenodd" fill="#121212" fill-opacity="1"/></g><g><rect x="5.4310302734375" y="13.96826171875" width="2.572509765625" height="2.572509765625" rx="1" fill="#121212" fill-opacity="1"/></g></g></g></svg>