<svg xmlns="http://www.w3.org/2000/svg" xmlns:xlink="http://www.w3.org/1999/xlink" fill="none" version="1.1" width="32" height="32" viewBox="0 0 32 32"><g><g></g><g></g><g><g><path d="M24.032590141601563,17.22376618249512L24.032590141601563,20.876475182495117C24.032590141601563,21.042155182495115,23.89828014160156,21.176475182495118,23.732590141601563,21.176475182495118L20.09730014160156,21.176475182495118C19.931610141601563,21.176475182495118,19.79730014160156,21.042155182495115,19.79730014160156,20.876475182495117L19.79730014160156,18.652475182495117C19.79730014160156,18.48678518249512,19.66299014160156,18.352475182495116,19.497300141601563,18.352475182495116L18.685540141601564,18.352475182495116C18.519850141601562,18.352475182495116,18.385540141601563,18.48678518249512,18.385540141601563,18.652475182495117L18.385540141601563,23.76541518249512C18.385540141601563,23.931095182495117,18.251220141601564,24.065415182495116,18.085540141601562,24.065415182495116L17.273770141601563,24.065415182495116C17.108085141601563,24.065415182495116,16.973770141601562,23.931095182495117,16.973770141601562,23.76541518249512L16.973770141601562,17.241178182495116C16.973770141601562,17.075493182495116,17.108085141601563,16.941178282495116,17.273770141601563,16.941178282495116L20.909060141601564,16.941178282495116C21.074750141601562,16.941178282495116,21.20906014160156,17.075493182495116,21.20906014160156,17.241178182495116L21.20906014160156,19.464235182495116C21.20906014160156,19.629925182495118,21.343380141601564,19.764235182495117,21.509060141601562,19.764235182495117L22.32083014160156,19.764235182495117C22.486510141601563,19.764235182495117,22.620830141601562,19.629925182495118,22.620830141601562,19.464235182495116L22.620830141601562,17.223765182495118C22.620830141601562,17.058080182495118,22.75514014160156,16.923765273227318,22.920830141601563,16.923765385151118L23.732590141601563,16.92376593351412C23.89828014160156,16.923766045437116,24.032590141601563,17.058080182495118,24.032590141601563,17.22376618249512M24.032590141601563,22.888235182495116L24.032590141601563,23.70000518249512C24.032590141601563,23.865685182495117,23.89828014160156,24.000005182495116,23.732590141601563,24.000005182495116L20.09730014160156,24.000005182495116C19.931610141601563,24.000005182495116,19.79730014160156,23.865685182495117,19.79730014160156,23.70000518249512L19.79730014160156,22.888235182495116C19.79730014160156,22.722555182495118,19.931610141601563,22.58823518249512,20.09730014160156,22.58823518249512L23.732590141601563,22.58823518249512C23.89828014160156,22.58823518249512,24.032590141601563,22.722555182495118,24.032590141601563,22.888235182495116" fill="#121212" fill-opacity="1"/></g><g><rect x="8.875" y="8.875" width="5.25" height="5.25" rx="-0.574999988079071" fill-opacity="0" stroke-opacity="1" stroke="#121212" fill="none" stroke-width="1.75"/></g><g><rect x="10.9609375" y="10.9609375" width="1.078125" height="1.078125" rx="0.30000001192092896" fill="#121212" fill-opacity="1"/></g><g><rect x="8.875" y="17.875" width="5.25" height="5.25" rx="-0.574999988079071" fill-opacity="0" stroke-opacity="1" stroke="#121212" fill="none" stroke-width="1.75"/></g><g><rect x="10.9534912109375" y="19.953506469726562" width="1.093017578125" height="1.092987060546875" rx="0.30000001192092896" fill="#121212" fill-opacity="1"/></g><g><rect x="17.875" y="8.875" width="5.25" height="5.25" rx="-0.574999988079071" fill-opacity="0" stroke-opacity="1" stroke="#121212" fill="none" stroke-width="1.75"/></g><g><rect x="19.95965576171875" y="10.95965576171875" width="1.0806884765625" height="1.0806884765625" rx="0.30000001192092896" fill="#121212" fill-opacity="1"/></g></g></g></svg>