<svg xmlns="http://www.w3.org/2000/svg" xmlns:xlink="http://www.w3.org/1999/xlink" fill="none" version="1.1" width="32" height="32" viewBox="0 0 32 32"><defs><clipPath id="master_svg0_40584_149181"><rect x="4" y="4" width="24" height="24" rx="0"/></clipPath></defs><g><g></g><g clip-path="url(#master_svg0_40584_149181)"><g><g><path d="M10.78857421875,9.66357421875L15.198734218750001,9.66357421875Q15.28491421875,9.66357421875,15.369434218750001,9.646761218750001Q15.453954218749999,9.62994821875,15.533574218750001,9.59696821875Q15.61319421875,9.56398921875,15.68485421875,9.51611021875Q15.756514218749999,9.46823121875,15.817444218750001,9.40729221875Q15.87838421875,9.34635421875,15.92626421875,9.27469821875Q15.97414421875,9.20304221875,16.00712421875,9.12342221875Q16.04010421875,9.04380221875,16.056914218750002,8.95927821875Q16.07373421875,8.87475421875,16.07373421875,8.78857421875Q16.07373421875,8.70239421875,16.056914218750002,8.61787021875Q16.04010421875,8.53334621875,16.00712421875,8.45372621875Q15.97414421875,8.37410621875,15.92626421875,8.30245021875Q15.87838421875,8.23079421875,15.817444218750001,8.16985621875Q15.756514218749999,8.10891721875,15.68485421875,8.06103821875Q15.61319421875,8.01315921875,15.533574218750001,7.98018021875Q15.453954218749999,7.94720021875,15.369434218750001,7.93038721875Q15.28491421875,7.91357421875,15.198734218750001,7.91357421875L10.78857421875,7.91357421875Q9.59771021875,7.91357421875,8.75564221875,8.75564221875Q7.91357421875,9.59771021875,7.91357421875,10.78857421875L7.91357421875,21.21147421875Q7.91357421875,22.40227421875,8.75564231875,23.24437421875Q9.59771121875,24.08647421875,10.78857421875,24.08647421875L21.21147421875,24.08647421875Q22.40227421875,24.08647421875,23.24437421875,23.24437421875Q24.08647421875,22.40227421875,24.08647421875,21.21147421875L24.08647421875,16.80126421875Q24.08647421875,16.71508421875,24.06957421875,16.63056421875Q24.052774218750002,16.546044218749998,24.01977421875,16.46642421875Q23.98687421875,16.38680421875,23.938974218749998,16.31514421875Q23.89107421875,16.243484218749998,23.830174218750003,16.18255421875Q23.769174218750003,16.12161421875,23.69757421875,16.07373421875Q23.62587421875,16.02585421875,23.54627421875,15.99287421875Q23.46667421875,15.95989421875,23.382174218750002,15.94308421875Q23.29757421875,15.92626421875,23.21147421875,15.92626421875Q23.12527421875,15.92626421875,23.04067421875,15.94308421875Q22.95617421875,15.95989421875,22.87657421875,15.99287421875Q22.79697421875,16.02585421875,22.725274218750002,16.07373421875Q22.653674218749998,16.12161421875,22.59267421875,16.18255421875Q22.53177421875,16.243484218749998,22.48387421875,16.31514421875Q22.435974218749998,16.38680421875,22.40307421875,16.46642421875Q22.37007421875,16.546044218749998,22.353274218750002,16.63056421875Q22.33647421875,16.71508421875,22.33647421875,16.80126421875L22.33647421875,21.21147421875Q22.33647421875,21.67737421875,22.00687421875,22.00687421875Q21.67737421875,22.33647421875,21.21147421875,22.33647421875L10.78857421875,22.33647421875Q10.32258421875,22.33647421875,9.99307421875,22.00687421875Q9.66357421875,21.67737421875,9.66357421875,21.21147421875L9.66357421875,10.78857421875Q9.66357421875,10.32258421875,9.99307421875,9.99307421875Q10.32258421875,9.66357421875,10.78857421875,9.66357421875Z" fill-rule="evenodd" fill="#121212" fill-opacity="1"/></g><g><path d="M20.353769260406494,8.16972021875L20.353269260406492,8.17022621875L14.009930260406493,14.52116421875Q13.887029260406495,14.644214218750001,13.820524260406494,14.80490421875Q13.754019260406494,14.96560421875,13.754019260406494,15.13951421875L13.754019260406494,17.37096421875Q13.754019260406494,17.457144218750003,13.770832260406493,17.54166421875Q13.787645260406494,17.62619421875,13.820625260406494,17.70581421875Q13.853604260406494,17.785434218749998,13.901483260406494,17.85708421875Q13.949362260406494,17.928744218749998,14.010301260406495,17.98968421875Q14.071239260406495,18.050624218750002,14.142895260406494,18.09850421875Q14.214551260406495,18.146374218749997,14.294171260406495,18.17935421875Q14.373791260406493,18.21233421875,14.458315260406494,18.22915421875Q14.542839260406494,18.24596421875,14.629019260406494,18.24596421875L16.871839260406496,18.24596421875Q17.045939260406495,18.24596421875,17.206779260406496,18.17932421875Q17.367619260406492,18.112684218749997,17.490699260406494,17.989544218749998L23.830269260406496,11.64719421875Q23.891169260406492,11.58625421875,23.939029260406492,11.51461421875Q23.986879260406496,11.44296421875,24.019839260406492,11.36336421875Q24.052799260406495,11.283764218750001,24.069609260406494,11.19926421875Q24.086409260406494,11.11476421875,24.086409260406494,11.02860421875Q24.086409260406494,10.942454218750001,24.069609260406494,10.85795421875Q24.052799260406495,10.77345421875,24.019839260406492,10.69385421875Q23.986879260406496,10.61424421875,23.939029260406492,10.54260421875Q23.891169260406492,10.47096421875,23.830259260406493,10.41002421875L21.591209260406494,8.16999121875Q21.530289260406494,8.10903921875,21.458639260406493,8.06114521875Q21.386989260406494,8.01325021875,21.307379260406492,7.98025321875Q21.227769260406493,7.94725621875,21.143249260406495,7.93042421875Q21.058729260406494,7.91359321875,20.972549260406495,7.91357421875Q20.886369260406493,7.91355521875,20.801839260406496,7.93035021875Q20.717309260406495,7.94714421875,20.637689260406496,7.9801062187500005Q20.558059260406495,8.01306821875,20.486389260406494,8.06093221875Q20.414729260406496,8.10879521875,20.353769260406494,8.16972021875ZM20.972589260406494,10.02651421875L15.504019260406494,15.50164421875L15.504019260406494,16.49596421875L16.509289260406494,16.49596421875L21.974249260406495,11.02861421875L20.972589260406494,10.02651421875Z" fill-rule="evenodd" fill="#121212" fill-opacity="1"/></g></g></g></g></svg>