<svg xmlns="http://www.w3.org/2000/svg" xmlns:xlink="http://www.w3.org/1999/xlink" fill="none" version="1.1" width="24" height="24" viewBox="0 0 24 24"><g><g><path d="M0,24L24,24L24,0L0,24Z" fill="#006DE2" fill-opacity="1"/></g><g><path d="M15.20916458984375,17.178496250000002C15.20916458984375,17.178496250000002,14.49973458984375,16.49257625,13.97831458984375,15.98841625C13.67613458984375,15.69625625,13.20276658984375,15.704476249999999,12.91027758984375,16.00633625C12.90764958984375,16.00904625,12.90502158984375,16.01175625,12.90239458984375,16.014466249999998C12.61293858984375,16.31319625,12.63065158984375,16.794686249999998,12.92477958984375,17.08881625C13.60368458984375,17.76771625,14.68130458984375,18.84533625,14.68130458984375,18.84533625C14.92656458984375,19.09059625,15.324204589843749,19.09059625,15.56946458984375,18.84533625C15.56946458984375,18.84533625,18.68984458984375,15.72494625,19.90679458984375,14.50798625C20.176894589843748,14.23788625,20.18113458984375,13.814195250000001,19.919104589843748,13.53626225C19.91789458984375,13.53498025,19.91668458984375,13.53369825,19.91547458984375,13.53241625C19.64306458984375,13.24347325,19.18855458984375,13.23082025,18.90663458984375,13.51049425C17.78579458984375,14.62239625,15.20916458984375,17.178496250000002,15.20916458984375,17.178496250000002C15.20916458984375,17.178496250000002,15.20916458984375,17.178496250000002,15.20916458984375,17.178496250000002Z" fill-rule="evenodd" fill="#FFFFFF" fill-opacity="1"/></g></g></svg>