<svg xmlns="http://www.w3.org/2000/svg" xmlns:xlink="http://www.w3.org/1999/xlink" fill="none" version="1.1" width="16" height="16" viewBox="0 0 16 16"><defs><clipPath id="master_svg0_57347_223380"><rect x="0" y="0" width="16" height="16" rx="0"/></clipPath></defs><g clip-path="url(#master_svg0_57347_223380)"><g><path d="M11.333984375,4.00016609375L14.000684375,4.00016609375C14.368884375,4.00016609375,14.667284375,4.29863609375,14.667284375,4.66682609375C14.667284375,5.03501609375,14.368884375,5.33349609375,14.000684375,5.33349609375L13.333984375,5.33349609375L13.333984375,14.00019609375C13.333984375,14.36839609375,13.035484375,14.66679609375,12.667284375,14.66679609375L3.333984375,14.66679609375C2.9657943749999998,14.66679609375,2.667314375,14.36839609375,2.667314375,14.00019609375L2.667314375,5.33349609375L2.000651375,5.33349609375C1.632461375,5.33349609375,1.333984375,5.03501609375,1.333984375,4.66682609375C1.333984375,4.29863609375,1.632461375,4.00016609375,2.000651375,4.00016609375L4.667314375,4.00016609375L4.667314375,2.00016309375C4.667314375,1.63197309375,4.965794375,1.33349609375,5.333984375,1.33349609375L10.667314375,1.33349609375C11.035504375,1.33349609375,11.333984375,1.63197309375,11.333984375,2.00016309375L11.333984375,4.00016609375ZM12.000684375,5.33349609375L4.000654375,5.33349609375L4.000654375,13.33349609375L12.000684375,13.33349609375L12.000684375,5.33349609375ZM6.667314375,7.33349609375C7.035504375,7.33349609375,7.333984375,7.63197609375,7.333984375,8.00016609375L7.333984375,10.66682609375C7.333984375,11.03501609375,7.035504375,11.33349609375,6.667314375,11.33349609375C6.299124375,11.33349609375,6.000654375,11.03501609375,6.000654375,10.66682609375L6.000654375,8.00016609375C6.000654375,7.63197609375,6.299124375,7.33349609375,6.667314375,7.33349609375M9.333984375,7.33349609375C9.702174375,7.33349609375,10.000654375,7.63197609375,10.000654375,8.00016609375L10.000654375,10.66682609375C10.000654375,11.03501609375,9.702174375,11.33349609375,9.333984375,11.33349609375C8.965794375,11.33349609375,8.667314375,11.03501609375,8.667314375,10.66682609375L8.667314375,8.00016609375C8.667314375,7.63197609375,8.965794375,7.33349609375,9.333984375,7.33349609375M6.000654375,2.66682609375L6.000654375,4.00016609375L10.000654375,4.00016609375L10.000654375,2.66682609375L6.000654375,2.66682609375Z" fill="#BABAC4" fill-opacity="1"/></g></g></svg>