<svg xmlns="http://www.w3.org/2000/svg" xmlns:xlink="http://www.w3.org/1999/xlink" fill="none" version="1.1" width="10.285714149475098" height="12" viewBox="0 0 10.285714149475098 12"><defs><clipPath id="master_svg0_45835_065972"><rect x="0" y="0" width="10.285714149475098" height="12" rx="0"/></clipPath><filter id="master_svg1_45835_065977" filterUnits="objectBoundingBox" color-interpolation-filters="sRGB" x="0" y="0" width="8.571428298950195" height="8.571428298950195"><feFlood flood-opacity="0" result="BackgroundImageFix"/><feBlend mode="normal" in="SourceGraphic" in2="BackgroundImageFix" result="shape"/><feColorMatrix in="SourceAlpha" type="matrix" result="hardAlpha" values="0 0 0 0 0 0 0 0 0 0 0 0 0 0 0 0 0 0 127 0"/><feOffset dy="1" dx="0"/><feGaussianBlur stdDeviation="0.5"/><feComposite in2="hardAlpha" operator="arithmetic" k2="-1" k3="1"/><feColorMatrix type="matrix" values="0 0 0 0 1 0 0 0 0 1 0 0 0 0 1 0 0 0 0.3019607961177826 0"/><feBlend mode="normal" in2="shape" result="effect1_innerShadow"/></filter><linearGradient x1="0.10770539194345474" y1="0.19641506671905518" x2="0.8313066959381104" y2="0.8785912394523621" id="master_svg2_40202_145680"><stop offset="0%" stop-color="#D3E3EB" stop-opacity="1"/><stop offset="94.9999988079071%" stop-color="#87D0F5" stop-opacity="1"/></linearGradient><linearGradient x1="0.1684727817773819" y1="0.12460622191429138" x2="0.8451045751571655" y2="0.8564925789833069" id="master_svg3_22253_026869"><stop offset="0%" stop-color="#FFFFFF" stop-opacity="0.5"/><stop offset="100%" stop-color="#FFFFFF" stop-opacity="0.20000000298023224"/></linearGradient><filter id="master_svg4_45835_065974" filterUnits="objectBoundingBox" color-interpolation-filters="sRGB" x="-18" y="-18" width="45.14285707473755" height="45.14285707473755"><feFlood flood-opacity="0" result="BackgroundImageFix"/><feColorMatrix in="SourceAlpha" type="matrix" values="0 0 0 0 0 0 0 0 0 0 0 0 0 0 0 0 0 0 127 0"/><feOffset dy="2" dx="2"/><feGaussianBlur stdDeviation="5"/><feColorMatrix type="matrix" values="0 0 0 0 0 0 0 0 0 0 0 0 0 0 0 0 0 0 0.20000000298023224 0"/><feBlend mode="normal" in2="BackgroundImageFix" result="effect1_dropShadow"/><feBlend mode="normal" in="SourceGraphic" in2="effect1_dropShadow" result="shape"/></filter><linearGradient x1="0.26806640625" y1="0.18569335341453552" x2="0.748730480670929" y2="0.8645995855331421" id="master_svg5_22824_022543"><stop offset="0%" stop-color="#FFFFFF" stop-opacity="1"/><stop offset="99.99988675117493%" stop-color="#FFFFFF" stop-opacity="0.699999988079071"/></linearGradient></defs><g clip-path="url(#master_svg0_45835_065972)"><g filter="url(#master_svg1_45835_065977)"><path d="M3.0270628656578062,0C1.8583228656578064,0,0.9386009656578064,0.997861,1.0336918656578065,2.16272L1.4068698656578063,6.73415C1.4916058656578064,7.77217,2.3587628656578064,8.57143,3.4002428656578063,8.57143L6.885472865657807,8.57143C7.926952865657807,8.57143,8.794102865657806,7.77217,8.878842865657806,6.73415L9.252022865657807,2.16272C9.347112865657806,0.997861,8.427392865657806,0,7.258652865657806,0L3.0270628656578062,0Z" fill="#FF5E5F" fill-opacity="1"/></g><g style="opacity:0.5;"><rect x="3.4285714626312256" y="0" width="3.4285714626312256" height="6.857142925262451" rx="0" fill="#FFFFFF" fill-opacity="1"/></g><g><ellipse cx="5.142857074737549" cy="6.857142806053162" rx="5.142857074737549" ry="5.142857074737549" fill="url(#master_svg2_40202_145680)" fill-opacity="1"/><ellipse cx="5.142857074737549" cy="6.857142806053162" rx="4.642857074737549" ry="4.642857074737549" stroke="url(#master_svg3_22253_026869)" fill-opacity="0" fill="none" stroke-width="1"/></g><g filter="url(#master_svg4_45835_065974)"><path d="M6.005718537368774,5.806204149475097Q6.0738185373687745,5.926184149475098,6.1937985373687745,5.994274149475098L6.948008537368774,6.4222841494750975Q6.976718537368774,6.438574149475098,7.003028537368775,6.458494149475097Q7.0293385373687745,6.478414149475098,7.052808537368774,6.501624149475098Q7.076278537368775,6.524834149475097,7.096488537368774,6.550924149475097Q7.116708537368774,6.577014149475097,7.133308537368775,6.605534149475098Q7.149918537368775,6.634054149475098,7.162638537368775,6.664514149475098Q7.175348537368774,6.694974149475097,7.183948537368774,6.726834149475097Q7.192548537368775,6.758704149475097,7.196888537368775,6.791424149475098Q7.201228537368775,6.824134149475098,7.201228537368775,6.857144149475097Q7.201228537368775,6.8901441494750975,7.196888537368775,6.922864149475098Q7.192548537368775,6.955584149475097,7.183948537368774,6.987444149475097Q7.175348537368774,7.019314149475098,7.162638537368775,7.049774149475098Q7.149918537368775,7.0802241494750975,7.133308537368775,7.108744149475098Q7.116698537368775,7.137274149475098,7.096488537368774,7.163364149475098Q7.076278537368775,7.189454149475098,7.052808537368774,7.212654149475098Q7.0293385373687745,7.2358641494750975,7.003028537368775,7.255784149475097Q6.976718537368774,7.275714149475098,6.948008537368774,7.292004149475098L6.1937985373687745,7.7200041494750975Q6.0738185373687745,7.788104149475098,6.005718537368774,7.908084149475098L5.577718537368774,8.662294149475098Q5.561428537368775,8.691004149475098,5.541498537368774,8.717314149475097Q5.521578537368774,8.743624149475098,5.4983685373687745,8.767094149475097Q5.475168537368774,8.790564149475099,5.4490785373687745,8.810774149475098Q5.4229885373687745,8.830994149475098,5.394458537368775,8.847594149475098Q5.365938537368774,8.864204149475098,5.335488537368775,8.876924149475098Q5.305028537368774,8.889634149475096,5.273158537368774,8.898234149475098Q5.241298537368774,8.906844149475099,5.2085785373687745,8.911174149475098Q5.175858537368774,8.915514149475097,5.142858537368774,8.915514149475097Q5.109848537368775,8.915514149475097,5.077138537368775,8.911174149475098Q5.044418537368774,8.906834149475099,5.012548537368774,8.898234149475098Q4.980688537368774,8.889634149475096,4.950228537368774,8.876924149475098Q4.919768537368775,8.864204149475098,4.891248537368774,8.847594149475098Q4.862728537368774,8.830994149475098,4.836638537368774,8.810774149475098Q4.810548537368774,8.790564149475099,4.7873385373687745,8.767094149475097Q4.764128537368775,8.743624149475098,4.744208537368774,8.717314149475097Q4.724288537368775,8.690994149475099,4.707998537368774,8.662294149475098L4.279988537368775,7.908084149475098Q4.211898537368775,7.788104149475098,4.091918537368774,7.7200041494750975L3.3377055373687745,7.292004149475098Q3.3090005373687745,7.275714149475098,3.2826865373687744,7.255784149475097Q3.2563715373687745,7.2358641494750975,3.2329045373687744,7.212654149475098Q3.2094365373687745,7.189454149475098,3.1892235373687745,7.163364149475098Q3.1690105373687745,7.137274149475098,3.1524015373687746,7.108744149475098Q3.1357935373687744,7.0802241494750975,3.1230785373687744,7.049774149475098Q3.1103635373687744,7.019314149475098,3.1017615373687746,6.987444149475097Q3.0931605373687745,6.955584149475097,3.0888215373687746,6.922864149475098Q3.0844835373687745,6.8901441494750975,3.0844835373687745,6.857144149475097Q3.0844835373687745,6.824134149475098,3.0888215373687746,6.791424149475098Q3.0931605373687745,6.758704149475097,3.1017615373687746,6.726834149475097Q3.1103635373687744,6.694974149475097,3.1230785373687744,6.664514149475098Q3.1357935373687744,6.634054149475098,3.1524015373687746,6.605534149475098Q3.1690105373687745,6.577014149475097,3.1892235373687745,6.550924149475097Q3.2094365373687745,6.524834149475097,3.2329045373687744,6.501624149475098Q3.2563715373687745,6.478414149475098,3.2826865373687744,6.458494149475097Q3.3090005373687745,6.438574149475098,3.3377055373687745,6.4222841494750975L4.0919085373687745,5.994274149475098Q4.211898537368775,5.926184149475098,4.279988537368775,5.806204149475097L4.707998537368774,5.051991149475097Q4.724288537368775,5.023286149475098,4.744208537368774,4.996972149475098Q4.764128537368775,4.970657149475097,4.7873385373687745,4.947190149475098Q4.810548537368774,4.923722149475098,4.836638537368774,4.903509149475098Q4.862728537368774,4.883296149475098,4.891248537368774,4.866687149475098Q4.919768537368775,4.850079149475098,4.950228537368774,4.837364149475098Q4.980688537368774,4.824648149475098,5.012548537368774,4.816047149475097Q5.044418537368774,4.807446149475098,5.077138537368775,4.803107149475098Q5.109848537368775,4.798769149475097,5.142858537368774,4.798769149475097Q5.175858537368774,4.798769149475097,5.2085785373687745,4.803107149475098Q5.241298537368774,4.807446149475098,5.273158537368774,4.816047149475097Q5.305028537368774,4.824648149475098,5.335488537368775,4.837364149475098Q5.365938537368774,4.850079149475098,5.394458537368775,4.866687149475098Q5.4229885373687745,4.883296149475098,5.4490785373687745,4.903509149475098Q5.475168537368774,4.923722149475098,5.4983685373687745,4.947190149475098Q5.521578537368774,4.970657149475097,5.541498537368774,4.996972149475098Q5.561428537368775,5.023286149475098,5.577718537368774,5.051991149475097L6.005718537368774,5.806204149475097Z" fill="url(#master_svg5_22824_022543)" fill-opacity="1"/></g></g></svg>