<svg xmlns="http://www.w3.org/2000/svg" xmlns:xlink="http://www.w3.org/1999/xlink" fill="none" version="1.1" width="20" height="20" viewBox="0 0 20 20"><g><g><path d="M18.032696953125,11.223766182495117L18.032696953125,14.876475182495117C18.032696953125,15.042155182495117,17.898386953124998,15.176475182495118,17.732696953125,15.176475182495118L14.097406953125,15.176475182495118C13.931716953125001,15.176475182495118,13.797406953125,15.042155182495117,13.797406953125,14.876475182495117L13.797406953125,12.652475182495117C13.797406953125,12.486785182495117,13.663096953125,12.352475182495118,13.497406953125001,12.352475182495118L12.685646953125,12.352475182495118C12.519956953125,12.352475182495118,12.385646953125,12.486785182495117,12.385646953125,12.652475182495117L12.385646953125,17.76541518249512C12.385646953125,17.931095182495117,12.251326953125,18.065415182495116,12.085646953125,18.065415182495116L11.273876953125,18.065415182495116C11.108191953125,18.065415182495116,10.973876953125,17.931095182495117,10.973876953125,17.76541518249512L10.973876953125,11.241178182495117C10.973876953125,11.075493182495117,11.108191953125,10.941178282495118,11.273876953125,10.941178282495118L14.909166953125,10.941178282495118C15.074856953125,10.941178282495118,15.209166953124999,11.075493182495117,15.209166953124999,11.241178182495117L15.209166953124999,13.464235182495116C15.209166953124999,13.629925182495118,15.343486953125,13.764235182495117,15.509166953125,13.764235182495117L16.320936953125,13.764235182495117C16.486616953125,13.764235182495117,16.620936953125,13.629925182495118,16.620936953125,13.464235182495116L16.620936953125,11.223765182495118C16.620936953125,11.058080182495118,16.755246953125,10.923765273227318,16.920936953125,10.923765385151118L17.732696953125,10.923765933514117C17.898386953124998,10.923766045437118,18.032696953125,11.058080182495118,18.032696953125,11.223766182495117M18.032696953125,16.888235182495116L18.032696953125,17.70000518249512C18.032696953125,17.865685182495117,17.898386953124998,18.000005182495116,17.732696953125,18.000005182495116L14.097406953125,18.000005182495116C13.931716953125001,18.000005182495116,13.797406953125,17.865685182495117,13.797406953125,17.70000518249512L13.797406953125,16.888235182495116C13.797406953125,16.722555182495118,13.931716953125001,16.58823518249512,14.097406953125,16.58823518249512L17.732696953125,16.58823518249512C17.898386953124998,16.58823518249512,18.032696953125,16.722555182495118,18.032696953125,16.888235182495116" fill="#8A8A8E" fill-opacity="1"/></g><g><rect x="2.875" y="2.875" width="5.25" height="5.25" rx="-0.574999988079071" fill-opacity="0" stroke-opacity="1" stroke="#8A8A8E" fill="none" stroke-width="1.75"/></g><g><rect x="4.9609375" y="4.9609375" width="1.078125" height="1.078125" rx="0.30000001192092896" fill="#8A8A8E" fill-opacity="1"/></g><g><rect x="2.875" y="11.875" width="5.25" height="5.25" rx="-0.574999988079071" fill-opacity="0" stroke-opacity="1" stroke="#8A8A8E" fill="none" stroke-width="1.75"/></g><g><rect x="4.953369140625" y="13.9534912109375" width="1.093017578125" height="1.092987060546875" rx="0.30000001192092896" fill="#8A8A8E" fill-opacity="1"/></g><g><rect x="11.875" y="2.875" width="5.25" height="5.25" rx="-0.574999988079071" fill-opacity="0" stroke-opacity="1" stroke="#8A8A8E" fill="none" stroke-width="1.75"/></g><g><rect x="13.959716796875" y="4.95965576171875" width="1.0806884765625" height="1.0806884765625" rx="0.30000001192092896" fill="#8A8A8E" fill-opacity="1"/></g></g></svg>