<svg xmlns="http://www.w3.org/2000/svg" xmlns:xlink="http://www.w3.org/1999/xlink" fill="none" version="1.1" width="34" height="34" viewBox="0 0 34 34"><defs><clipPath id="master_svg0_56872_156156"><rect x="0" y="0" width="34" height="34" rx="17"/></clipPath><clipPath id="master_svg1_56872_148092"><rect x="5" y="5" width="24" height="24" rx="0"/></clipPath><clipPath id="master_svg2_56872_148118"><rect x="5" y="5" width="24" height="24" rx="0"/></clipPath></defs><g clip-path="url(#master_svg0_56872_156156)"><rect x="0" y="0" width="34" height="34" rx="17" fill="#42C2B7" fill-opacity="0.10000000149011612"/><g></g><g clip-path="url(#master_svg1_56872_148092)"><g clip-path="url(#master_svg2_56872_148118)"><g><path d="M12.206872578125001,25.588699658203126C9.520872578125001,25.382499658203123,7.271572578125,23.473499658203124,6.631348578125,20.856799658203123C5.991125578125,18.240099658203125,7.104976578125,15.508259658203125,9.392332578125,14.085199658203125C9.883212578125,10.257739658203125,13.141202578125,7.390899658203125,16.999992578125,7.390899658203125C20.858792578124998,7.390899429648125,24.116792578125,10.257739658203125,24.607692578125,14.085199658203125C26.895092578125,15.508259658203125,28.008892578125,18.240099658203125,27.368692578125,20.856799658203123C26.728492578125,23.473499658203124,24.479192578125,25.382499658203123,21.793192578125,25.588699658203126L21.793192578125,25.606999658203126L12.206872578125001,25.606999658203126L12.206872578125001,25.588699658203126Z" fill="#42C2B7" fill-opacity="1"/></g><g><path d="M16.119729375,13.514307244921875C16.700049375,13.392616244921875,17.299269375,13.392323244921876,17.879699375,13.513446844921875C17.958029375,14.030487044921875,18.267609375,14.483691044921875,18.720759375,14.744701044921875C19.173549375,15.006611044921875,19.720999374999998,15.047941044921874,20.207979375,14.856981044921875C20.603029375,15.299261044921876,20.902269375,15.818511044921875,21.086889375,16.382061044921876C20.678469375,16.708501044921874,20.440939375,17.203181044921877,20.441579375,17.726031044921875C20.441579375,18.269811044921873,20.693679375000002,18.754651044921875,21.087749375,19.069991044921874C20.902049375,19.633081044921873,20.602429375,20.151921044921874,20.207549375,20.594211044921874C19.720689375,20.403391044921875,19.173429375,20.444721044921874,18.720759375,20.706501044921875C18.267989375,20.967411044921874,17.958609375,21.420241044921873,17.880129375,21.936891044921875C17.299869375,22.058861044921876,16.700649375,22.059451044921875,16.120159375,21.938611044921878C16.042199375,21.421091044921873,15.732569375,20.967341044921874,15.279109375,20.706071044921874C14.826249375,20.444301044921875,14.278799375,20.403121044921875,13.791881374999999,20.594211044921874C13.396779375,20.151811044921875,13.097530375,19.632411044921874,12.912969725,19.068701044921873C13.321158375,18.742451044921875,13.558654375,18.248141044921873,13.558279375,17.725601044921873C13.558707375000001,17.202601044921874,13.320856375,16.707901044921876,12.912109375,16.381631044921875C13.097815375,15.818541044921876,13.397432375,15.299711044921875,13.792311375,14.857411044921875C14.279169375,15.048231044921875,14.826429375,15.006901044921875,15.279109375,14.745131044921875C15.731869375,14.484211044921874,16.041249375,14.031380044921875,16.119729375,13.514737544921875L16.119729375,13.514307244921875ZM16.999929375,19.016641044921876C17.712719375,19.016641044921876,18.290549375,18.438821044921873,18.290549375,17.726031044921875C18.290549375,17.013241044921877,17.712719375,16.435411044921874,16.999929375,16.435411044921874C16.287139375,16.435411044921874,15.709309375,17.013241044921877,15.709309375,17.726031044921875C15.709309375,18.438821044921873,16.287139375,19.016641044921876,16.999929375,19.016641044921876Z" fill="#FFFFFF" fill-opacity="1"/></g></g></g></g></svg>