<svg xmlns="http://www.w3.org/2000/svg" xmlns:xlink="http://www.w3.org/1999/xlink" fill="none" version="1.1" width="34" height="34" viewBox="0 0 34 34"><defs><clipPath id="master_svg0_56872_156148"><rect x="0" y="0" width="34" height="34" rx="17"/></clipPath><clipPath id="master_svg1_56872_156689"><rect x="5" y="5" width="24" height="24" rx="0"/></clipPath><clipPath id="master_svg2_56872_148122"><rect x="8.8363037109375" y="9.3338623046875" width="15.332275390625" height="15.332275390625" rx="0"/></clipPath></defs><g clip-path="url(#master_svg0_56872_156148)"><rect x="0" y="0" width="34" height="34" rx="17" fill="#006DE2" fill-opacity="0.10000000149011612"/><g></g><g clip-path="url(#master_svg1_56872_156689)"><g><rect x="7.362548828125" y="7.362548828125" width="19.27490234375" height="19.27490234375" rx="4" fill="#006DE2" fill-opacity="1"/></g><g clip-path="url(#master_svg2_56872_148122)"><g><path d="M17.1412576171875,18.277686728515626L15.863567617187499,18.277686728515626C13.727727617187501,18.276876728515624,11.7674776171875,19.460206728515622,10.7732516171875,21.350496728515623C10.7595396771875,21.178386728515626,10.7527198851875,21.005756728515625,10.7528085310625,20.833066728515625C10.7528085310625,17.304726728515625,13.6129176171875,14.444616728515625,17.1412576171875,14.444616728515625L17.1412576171875,12.290706728515625C17.1412576171875,11.871455728515626,17.6262176171875,11.638369728515626,17.9536076171875,11.900274728515624L23.041707617187498,15.970716728515626C23.291907617187498,16.170886728515626,23.291907617187498,16.551426728515626,23.041707617187498,16.751586728515626L17.9536076171875,20.822036728515627C17.6262176171875,21.083936728515624,17.1412576171875,20.850856728515623,17.1412576171875,20.431596728515625L17.1412576171875,18.277686728515626Z" fill="#FFFFFF" fill-opacity="1"/></g></g></g></g></svg>