<svg xmlns="http://www.w3.org/2000/svg" xmlns:xlink="http://www.w3.org/1999/xlink" fill="none" version="1.1" width="34" height="34" viewBox="0 0 34 34"><defs><clipPath id="master_svg0_56872_156225"><rect x="0" y="0" width="34" height="34" rx="17"/></clipPath><clipPath id="master_svg1_56872_148088"><rect x="5" y="5" width="24" height="24" rx="0"/></clipPath><clipPath id="master_svg2_56929_153634"><rect x="11.6661376953125" y="11.624420166015625" width="11.335205078125" height="11.335205078125" rx="0"/></clipPath></defs><g clip-path="url(#master_svg0_56872_156225)"><rect x="0" y="0" width="34" height="34" rx="17" fill="#087CCE" fill-opacity="0.10000000149011612"/><g></g><g clip-path="url(#master_svg1_56872_148088)"><g><path d="M22.99999976158142,25.369900390625L20.99999976158142,25.369900390625L12.999999761581421,25.369900390625L10.999999761581421,25.369900390625C9.34314976158142,25.369900390625,7.999999764859081,24.026800390625,7.999999764439951,22.369900390625L7.999999762063668,12.976260390625C7.999999761769367,11.812870390625001,8.67263076158142,10.754360390625,9.72588976158142,10.260260390625L15.72588976158142,7.445597390625C16.53309976158142,7.066930390625,17.466899761581423,7.066930390625,18.27409976158142,7.445597390625L24.27409976158142,10.260260390625C25.32739976158142,10.754360390625,25.99999976158142,11.812870390625001,25.99999976158142,12.976260390625L25.99999976158142,22.369900390625C25.99999976158142,24.026800390625,24.65689976158142,25.369900390625,22.99999976158142,25.369900390625" fill="#087CCE" fill-opacity="1"/></g><g clip-path="url(#master_svg2_56929_153634)"><g><path d="M18.856409375,18.948852880859377L17.811209375,21.145052880859375C17.725699374999998,21.324612880859377,17.486649375,21.362542880859372,17.349769375,21.218252880859374L15.676879375,19.452322880859377C15.632189375,19.405192880859374,15.572659375,19.374852880859375,15.508269375,19.366362880859377L13.096232375,19.050872880859373C12.899190975,19.024912880859375,12.789388175,18.809462880859375,12.884169575,18.634772880859373L14.046969375,16.498082880859375C14.077889375,16.440942880859374,14.088219375,16.374912880859377,14.076259375,16.311052880859375L13.630876375,13.919802880859375C13.594297375,13.724041880859374,13.765728375,13.552610880859374,13.961489375,13.589189880859376L16.352739375,14.034572880859375C16.416599375,14.046532880859376,16.482629375000002,14.036202880859374,16.539769375,14.005282880859376L18.676459375,12.842482980859375C18.851309375,12.747665080859376,19.066879375,12.857776280859374,19.092559375,13.055017880859374L19.408049375,15.466582880859375C19.416539375,15.530972880859375,19.446879375,15.590502880859376,19.494009375,15.635192880859375L21.259939375000002,17.308082880859374C21.404229375,17.444962880859375,21.366299375,17.684012880859374,21.186729375,17.769522880859377L18.990539375,18.814722880859374C18.931749375,18.842692880859374,18.884379375,18.890062880859375,18.856409375,18.948852880859377ZM19.232829375,19.858972880859376L19.900659375,19.191142880859374L21.904629375,21.194642880859377L21.236329375,21.862942880859375L19.232829375,19.858972880859376Z" fill="#FFFFFF" fill-opacity="1"/></g></g></g></g></svg>