<svg xmlns="http://www.w3.org/2000/svg" xmlns:xlink="http://www.w3.org/1999/xlink" fill="none" version="1.1" width="12" height="12" viewBox="0 0 12 12"><defs><clipPath id="master_svg0_57347_221462"><rect x="0" y="0" width="12" height="12" rx="0"/></clipPath></defs><g clip-path="url(#master_svg0_57347_221462)"><g><g transform="matrix(0.706946074962616,-0.7072674036026001,0.7069461345672607,0.7072674036026001,-7.483353555202484,3.927325963973999)"><path d="M1,10.25L15.1388,10.25Q15.2127,10.25,15.2851,10.264410999999999Q15.3576,10.278822,15.4258,10.30709Q15.4941,10.335359,15.5555,10.376398Q15.6169,10.417437,15.6691,10.46967Q15.7214,10.521903,15.7624,10.583322Q15.8034,10.644742,15.8317,10.712987Q15.86,10.781233,15.8744,10.853682Q15.8888,10.9261315,15.8888,11Q15.8888,11.0738685,15.8744,11.146318Q15.86,11.218767,15.8317,11.287013Q15.8034,11.355258,15.7624,11.416678Q15.7214,11.478097,15.6691,11.53033Q15.6169,11.582563,15.5555,11.623602Q15.4941,11.664641,15.4258,11.69291Q15.3576,11.721178,15.2851,11.735589000000001Q15.2127,11.75,15.1388,11.75L1,11.75Q0.9261315,11.75,0.853682,11.735589000000001Q0.7812330000000001,11.721178,0.712987,11.69291Q0.6447419999999999,11.664641,0.583322,11.623602Q0.521903,11.582563,0.46967000000000003,11.53033Q0.41743699999999995,11.478097,0.376398,11.416678Q0.33535899999999996,11.355258,0.30709,11.287013Q0.278822,11.218767,0.26441099999999995,11.146318Q0.25,11.0738685,0.25,11Q0.25,10.9261315,0.26441099999999995,10.853682Q0.278822,10.781233,0.30709,10.712987Q0.33535899999999996,10.644742,0.376398,10.583322Q0.41743699999999995,10.521903,0.46967000000000003,10.46967Q0.521903,10.417437,0.583322,10.376398Q0.6447419999999999,10.335359,0.712987,10.30709Q0.7812330000000001,10.278822,0.853682,10.264410999999999Q0.9261315,10.25,1,10.25Z" fill-rule="evenodd" fill="#121212" fill-opacity="1"/></g><g transform="matrix(0.706946074962616,0.7072674036026001,-0.7069461345672607,0.7072674036026001,1.0014309869729914,-0.4179882613243535)"><path d="M1.0048828125,0.25L15.1436828125,0.25Q15.2175828125,0.25,15.2899828125,0.26441099999999995Q15.3624828125,0.278822,15.4306828125,0.30709Q15.4989828125,0.33535899999999996,15.5603828125,0.376398Q15.6217828125,0.41743699999999995,15.6739828125,0.46967000000000003Q15.7262828125,0.521903,15.7672828125,0.583322Q15.8082828125,0.6447419999999999,15.8365828125,0.712987Q15.8648828125,0.7812330000000001,15.8792828125,0.853682Q15.8936828125,0.9261315,15.8936828125,1Q15.8936828125,1.0738685000000001,15.8792828125,1.146318Q15.8648828125,1.218767,15.8365828125,1.287013Q15.8082828125,1.355258,15.7672828125,1.416678Q15.7262828125,1.478097,15.6739828125,1.53033Q15.6217828125,1.582563,15.5603828125,1.623602Q15.4989828125,1.664641,15.4306828125,1.69291Q15.3624828125,1.721178,15.2899828125,1.735589Q15.2175828125,1.75,15.1436828125,1.75L1.0048828125,1.75Q0.9310143125,1.75,0.8585648125,1.735589Q0.7861158125000001,1.721178,0.7178698125,1.69291Q0.6496248124999999,1.664641,0.5882048125,1.623602Q0.5267858125,1.582563,0.47455281250000003,1.53033Q0.42231981249999995,1.478097,0.3812808125,1.416678Q0.34024181249999996,1.355258,0.3119728125,1.287013Q0.2837048125,1.218767,0.26929381249999995,1.146318Q0.2548828125,1.0738685000000001,0.2548828125,1Q0.2548828125,0.9261315,0.26929381249999995,0.853682Q0.2837048125,0.7812330000000001,0.3119728125,0.712987Q0.34024181249999996,0.6447419999999999,0.3812808125,0.583322Q0.42231981249999995,0.521903,0.47455281250000003,0.46967000000000003Q0.5267858125,0.41743699999999995,0.5882048125,0.376398Q0.6496248124999999,0.33535899999999996,0.7178698125,0.30709Q0.7861158125000001,0.278822,0.8585648125,0.26441099999999995Q0.9310143125,0.25,1.0048828125,0.25Z" fill-rule="evenodd" fill="#121212" fill-opacity="1"/></g></g></g></svg>