<svg xmlns="http://www.w3.org/2000/svg" xmlns:xlink="http://www.w3.org/1999/xlink" fill="none" version="1.1" width="24" height="24" viewBox="0 0 24 24"><g><g><g><ellipse cx="11.999972343444824" cy="12.00000286102295" rx="8.988558769226074" ry="8.988558769226074" fill-opacity="0" stroke-opacity="1" stroke="#121212" fill="none" stroke-width="1.75" stroke-linecap="ROUND" stroke-linejoin="round"/></g><g transform="matrix(0.7071067690849304,0.7071067690849304,-0.7071067690849304,0.7071067690849304,18.490177568519357,-7.66029413790784)"><path d="M18.49188799846875,19.364494435546874L22.02136232421875,19.364471435546875L22.02137232421875,19.364471435546875Q22.10755232421875,19.364471435546875,22.19207232421875,19.347657435546875Q22.27660232421875,19.330844435546876,22.35621232421875,19.297864435546874Q22.43583232421875,19.264884435546875,22.50749232421875,19.217005435546874Q22.57915232421875,19.169126435546875,22.64008232421875,19.108187435546874Q22.701022324218748,19.047249435546874,22.74890232421875,18.975593435546877Q22.79678232421875,18.903937435546876,22.82976232421875,18.824318435546875Q22.86274232421875,18.744698435546876,22.87955232421875,18.660174435546875Q22.89636232421875,18.575651035546876,22.89636232421875,18.489471435546875Q22.89636232421875,18.403291435546876,22.87955232421875,18.318767435546874Q22.86274232421875,18.234243435546876,22.82976232421875,18.154623435546874Q22.79678232421875,18.075003435546876,22.74890232421875,18.003347435546875Q22.701022324218748,17.931691435546874,22.64008232421875,17.870753435546874Q22.57914232421875,17.809814435546876,22.50749232421875,17.761935435546874Q22.43583232421875,17.714056435546876,22.35621232421875,17.681077435546875Q22.27659232421875,17.648097435546877,22.19207232421875,17.631284435546874Q22.10754232421875,17.614471435546875,22.02136232421875,17.614471435546875L22.02136232421875,17.614471435546875Q21.80498232421875,17.614472435546876,21.58964232421875,17.618687435546875Q21.37431232421875,17.622902435546877,21.16209232421875,17.631289435546876Q20.94986232421875,17.639677435546876,20.74280232421875,17.652156435546875Q20.53574232421875,17.664636435546875,20.33583232421875,17.681087435546875Q20.13593232421875,17.697538435546875,19.94510232421875,17.717802435546876Q19.75427232421875,17.738067435546874,19.57436232421875,17.761950435546876Q19.39444932421875,17.785832435546876,19.22718732421875,17.813103435546875Q19.05992432421875,17.840374435546874,18.90692232421875,17.870771435546875Q18.75392032421875,17.901167435546874,18.61665132421875,17.934396435546876Q18.47938252421875,17.967626435546876,18.35916932421875,18.003368435546875Q18.23895632421875,18.039110435546874,18.13695632421875,18.077021435546875Q18.03495632421875,18.114931435546875,17.95215232421875,18.154645435546875Q17.86934832421875,18.194360435546876,17.80653732421875,18.235495435546873Q17.74372632421875,18.276630435546874,17.70151332421875,18.318790435546877Q17.65929932421875,18.360950435546876,17.63809132421875,18.403729535546876Q17.61688232421875,18.446508535546876,17.61688232421875,18.489494323746875Q17.61688232421875,18.575674235546874,17.63369532421875,18.660198435546874Q17.65050832421875,18.744722435546876,17.68348832421875,18.824342435546875Q17.71646732421875,18.903962435546877,17.76434632421875,18.975618435546874Q17.81222532421875,19.047274435546875,17.87316432421875,19.108212435546875Q17.93410232421875,19.169151435546876,18.00575832421875,19.217030435546874Q18.07741432421875,19.264909435546876,18.15703432421875,19.297888435546874Q18.23665432421875,19.330868435546876,18.32117832421875,19.347681435546875Q18.40570232421875,19.364494435546874,18.49188232421875,19.364494435546874L18.49188799846875,19.364494435546874Z" fill-rule="evenodd" fill="#121212" fill-opacity="1"/></g></g></g></svg>