<svg xmlns="http://www.w3.org/2000/svg" xmlns:xlink="http://www.w3.org/1999/xlink" fill="none" version="1.1" width="20" height="20" viewBox="0 0 20 20"><g><g><g><path d="M9.897238046875,1.66650390625C14.602548046875,1.66650390625,18.333448046875,5.39736390625,18.333448046875,10.10268390625C18.333448046875,14.60230390625,14.602548046875,18.33320390625,9.897238046875,18.33320390625C5.397608046875,18.33320390625,1.666748046875,14.60230390625,1.666748046875,10.10268390625C1.666748046875,5.39736390625,5.397608046875,1.66650390625,9.897238046875,1.66650390625ZM7.595638046875,10.12387390625L8.956668046875,11.43982390625L13.045148046875,7.38389390625C13.356948046875,7.07464390625,13.859448046875,7.08863390625,14.160748046875,7.40813390625L14.164748046875,7.41238390625C14.454448046875,7.71971390625,14.449748046875,8.188213906249999,14.151148046875,8.48688390625L9.355068046875001,13.28290390625C9.083868046875,13.55410390625,8.644178046875,13.55410390625,8.372978046875,13.28290390625L6.430688046875,11.34065390625C6.105458046875,11.01541390625,6.085868046875,10.48300390625,6.405938046875,10.15268390625L6.414648046875,10.14368390625C6.738078046875,9.80990390625,7.261508046875,9.80081390625,7.595638046875,10.12387390625Z" fill-rule="evenodd" fill="#006DE2" fill-opacity="1"/></g><g><path d="M8.95666609375,11.43982046875C8.95666609375,11.43982046875,8.17221609375,10.68135046875,7.5956360937500005,10.12388046875C7.2615060937500004,9.80081046875,6.73807509375,9.80990046875,6.41465209375,10.14369046875C6.41174709375,10.14669046875,6.40884109375,10.14968046875,6.40593509375,10.152680468749999C6.08586809375,10.48300046875,6.10545409375,11.015420468750001,6.43068809375,11.340650468749999C7.18138609375,12.09135046875,8.372976093750001,13.282940468749999,8.372976093750001,13.282940468749999C8.64417609375,13.55414046875,9.08387609375,13.55414046875,9.35507609375,13.282940468749999C9.35507609375,13.282940468749999,12.80545609375,9.83254046875,14.15110609375,8.48688046875C14.44977609375,8.18822046875,14.45445609375,7.71971446875,14.16471609375,7.4123874687499995C14.16337609375,7.4109704687499995,14.16203609375,7.40955246875,14.16070609375,7.40813446875C13.85947609375,7.08863346875,13.35690609375,7.07464246875,13.04516609375,7.38389346875C11.80579609375,8.61339046875,8.95666609375,11.43982046875,8.95666609375,11.43982046875C8.95666609375,11.43982046875,8.95666609375,11.43982046875,8.95666609375,11.43982046875Z" fill-rule="evenodd" fill="#FFFFFF" fill-opacity="1"/></g></g></g></svg>