<svg xmlns="http://www.w3.org/2000/svg" xmlns:xlink="http://www.w3.org/1999/xlink" fill="none" version="1.1" width="108" height="80" viewBox="0 0 108 80"><defs><clipPath id="master_svg0_57003_156386"><rect x="0" y="0" width="108" height="80" rx="0"/></clipPath><clipPath id="master_svg1_57003_156540"><rect x="15.7783203125" y="1.77880859375" width="76.44233703613281" height="76.44233703613281" rx="0"/></clipPath></defs><g clip-path="url(#master_svg0_57003_156386)"><g clip-path="url(#master_svg1_57003_156540)"><g><rect x="27.49755859375" y="31.408935546875" width="53.004127502441406" height="37.87628173828125" rx="9" fill="#E4E6E8" fill-opacity="1"/><path d="M25.49755859375,60.285235546875L25.49755859375,40.408935546875Q25.49755859375,35.852585546875,28.71938859375,32.630765546875Q31.941208593749998,29.408935546875,36.49755859375,29.408935546875L71.50165859375,29.408935546875Q76.05805859374999,29.408935546875,79.27985859374999,32.630765546875Q82.50165859375,35.852585546875,82.50165859375,40.408935546875L82.50165859375,60.285235546875Q82.50165859375,64.84153554687501,79.27985859374999,68.063435546875Q76.05805859374999,71.285235546875,71.50165859375,71.285235546875L36.49755859375,71.285235546875Q31.941208593749998,71.285235546875,28.71938859375,68.063435546875Q25.49755859375,64.84153554687501,25.49755859375,60.285235546875ZM29.49755859375,60.285235546875Q29.49755859375,63.184735546875004,31.54780859375,65.234935546875Q33.59806859375,67.285235546875,36.49755859375,67.285235546875L71.50165859375,67.285235546875Q74.40115859375,67.285235546875,76.45145859375,65.234935546875Q78.50165859375,63.184735546875004,78.50165859375,60.285235546875L78.50165859375,40.408935546875Q78.50165859375,37.509435546875,76.45145859375,35.459185546875Q74.40115859375,33.408935546875,71.50165859375,33.408935546875L36.49755859375,33.408935546875Q33.59805859375,33.408935546875,31.54780859375,35.459185546875Q29.49755859375,37.509435546875,29.49755859375,40.408935546875L29.49755859375,60.285235546875Z" fill="#E4E6E8" fill-opacity="1"/></g><g><path d="M65.92473046875,26.701823046875L65.92473046875,33.589423046875Q65.92473046875,33.785923046875,65.94393046875,33.981523046875Q65.96323046875,34.177023046875,66.00153046875,34.369823046875Q66.03993046875,34.562523046875,66.09693046875,34.750523046875Q66.15403046875,34.938623046875,66.22923046875,35.120123046875Q66.30443046875,35.301723046875,66.39703046875,35.475023046874995Q66.48963046875,35.648323046875,66.59883046875,35.811723046875Q66.70803046875,35.975123046875,66.83263046875,36.127023046874996Q66.95733046875,36.278923046875,67.09633046875,36.417823046875Q67.23523046875,36.556823046874996,67.38713046875,36.681423046875Q67.53903046875,36.806123046875,67.70243046875,36.915323046875Q67.86583046875,37.024523046875004,68.03913046875,37.117123046875Q68.21243046875,37.209723046875,68.39393046875,37.284923046875Q68.57553046875,37.360123046875,68.76353046875,37.417223046875Q68.95163046875,37.474223046875,69.14433046875,37.512523046875Q69.33713046875,37.550923046875,69.53263046875,37.570123046875Q69.72823046875,37.589423046875,69.92473046875,37.589423046875Q70.12123046875,37.589423046875,70.31683046875,37.570123046875Q70.51233046875001,37.550923046875,70.70503046875001,37.512523046875Q70.89783046875,37.474223046875,71.08583046875,37.417223046875Q71.27393046875,37.360123046875,71.45543046875,37.284923046875Q71.63703046875,37.209723046875,71.81033046875001,37.117123046875Q71.98363046875,37.024523046875004,72.14703046875,36.915323046875Q72.31043046875,36.806123046875,72.46233046875,36.681423046875Q72.61423046875001,36.556823046874996,72.75313046875,36.417823046875Q72.89213046875,36.278923046875,73.01673046875,36.127023046874996Q73.14143046875,35.975123046875,73.25063046875,35.811723046875Q73.35973046875,35.648323046875,73.45243046875001,35.475023046874995Q73.54503046875,35.301723046875,73.62023046875001,35.120123046875Q73.69543046875,34.938623046875,73.75243046874999,34.750523046875Q73.80953046875,34.562523046875,73.84783046875,34.369823046875Q73.88623046875,34.177023046875,73.90543046875,33.981523046875Q73.92473046875,33.785923046875,73.92473046875,33.589423046875L73.92473046875,26.701823046875Q73.92473046875,18.448403046875,68.08863046875,12.612273046875Q62.25263046875,6.776123046875,53.99923046875,6.776123046875Q45.74587046875,6.776123046875,39.90979046875,12.612273046875Q34.07373046875,18.448403046875,34.07373046875,26.701823046875L34.07373046875,33.589423046875Q34.07373046875,33.785923046875,34.09299046875,33.981523046875Q34.11225046875,34.177023046875,34.150590468749996,34.369823046875Q34.18893046875,34.562523046875,34.24597046875,34.750523046875Q34.30301046875,34.938623046875,34.37821046875,35.120123046875Q34.45341046875,35.301723046875,34.546050468749996,35.475023046874995Q34.63868046875,35.648323046875,34.74785046875,35.811723046875Q34.85703046875,35.975123046875,34.98169046875,36.127023046874996Q35.10635046875,36.278923046875,35.24530046875,36.417823046875Q35.38425046875,36.556823046874996,35.53616046875,36.681423046875Q35.68806046875,36.806123046875,35.85145046875,36.915323046875Q36.01484046875,37.024523046875004,36.18814046875,37.117123046875Q36.36145046875,37.209723046875,36.54300046875,37.284923046875Q36.72455046875,37.360123046875,36.91259046875,37.417223046875Q37.10063746875,37.474223046875,37.29336946875,37.512523046875Q37.48610046875,37.550923046875,37.68166146875,37.570123046875Q37.87722346875,37.589423046875,38.07373046875,37.589423046875Q38.27023746875,37.589423046875,38.46579946875,37.570123046875Q38.66136046875,37.550923046875,38.85409146875,37.512523046875Q39.04682346875,37.474223046875,39.23487046875,37.417223046875Q39.42291046875,37.360123046875,39.60446046875,37.284923046875Q39.78601046875,37.209723046875,39.95932046875,37.117123046875Q40.13262046875,37.024523046875004,40.29601046875,36.915323046875Q40.45940046875,36.806123046875,40.61130046875,36.681423046875Q40.76321046875,36.556823046874996,40.90216046875,36.417823046875Q41.04111046875,36.278923046875,41.16577046875,36.127023046874996Q41.29043046875,35.975123046875,41.39961046875,35.811723046875Q41.50878046875,35.648323046875,41.601410468750004,35.475023046874995Q41.69405046875,35.301723046875,41.76925046875,35.120123046875Q41.84445046875,34.938623046875,41.90149046875,34.750523046875Q41.95853046875,34.562523046875,41.996870468750004,34.369823046875Q42.03521046875,34.177023046875,42.05447046875,33.981523046875Q42.07373046875,33.785923046875,42.07373046875,33.589423046875L42.07373046875,26.701823046875Q42.07373046875,21.762123046875,45.56668046875,18.269093046875Q49.05963046875,14.776123046875,53.99923046875,14.776123046875Q58.93883046875,14.776123046875,62.431730468750004,18.269093046875Q65.92473046875,21.762123046875,65.92473046875,26.701823046875Z" fill-rule="evenodd" fill="#E4E6E8" fill-opacity="1"/></g><g><g><path d="M53.04248170410156,50.8405798828125L53.04248170410156,45.3839258828125C53.04248170410156,44.8553648828125,53.470951704101566,44.4268798828125,53.999491704101565,44.4268798828125C54.528031704101565,44.4268798828125,54.95650170410156,44.8553648828125,54.95650170410156,45.3839258828125L54.95650170410156,50.8405798828125C54.956491704101566,51.6069498828125,55.47872170410156,52.2762398828125,55.87718170410156,52.9308698828125C56.07955170410156,53.2633298828125,56.19611170410156,53.6537798828125,56.19611170410156,54.0714498828125C56.19611170410156,55.2846798828125,55.21265170410156,56.268179882812504,53.999491704101565,56.268179882812504C52.78633170410156,56.268179882812504,51.80287170410156,55.2846798828125,51.80287170410156,54.0714498828125C51.80287170410156,53.6537798828125,51.91943170410156,53.2633298828125,52.12179770410156,52.9308698828125C52.52026270410156,52.2762398828125,53.04248170410156,51.6069498828125,53.04248170410156,50.8405798828125" fill-rule="evenodd" fill="#F6F8FA" fill-opacity="1"/><path d="M51.04248470410156,50.8405798828125L51.04248170410156,45.3839268828125Q51.04248170410156,44.1590998828125,51.908544704101566,43.2930098828125Q52.774637704101565,42.4268798828125,53.999491704101565,42.4268798828125Q55.22434170410156,42.4268798828125,56.090441704101565,43.2930098828125Q56.95650170410156,44.1590998828125,56.95650170410156,45.3839258828125L56.95650170410156,50.8405798828125Q56.95650170410156,50.8982798828125,57.36085170410156,51.5327498828125Q57.50960170410156,51.7661498828125,57.58559170410156,51.8909898828125Q58.19611170410156,52.8939998828125,58.19611170410156,54.0714498828125Q58.19611170410156,55.8097798828125,56.96698170410156,57.0389798828125Q55.73781170410156,58.268179882812504,53.999491704101565,58.268179882812504Q52.478460704101565,58.268179882812504,51.34725070410156,57.3270798828125Q51.18564770410156,57.1925798828125,51.03200370410156,57.0389798828125Q49.87969170410156,55.8865798828125,49.807671704101566,54.2867498828125Q49.80287170410156,54.180089882812496,49.80287170410156,54.0714498828125Q49.80287170410156,53.0411798828125,50.27030170410156,52.1444698828125Q50.337081704101564,52.0163598828125,50.413391704101564,51.8909898828125Q50.48464170410156,51.7739298828125,50.61982170410156,51.5614998828125Q50.62877170410156,51.5474398828125,50.638121704101565,51.5327598828125Q51.042485704101566,50.8982798828125,51.04248470410156,50.8405798828125ZM54.95650170410156,45.8968498828125L54.95650170410156,45.8066898828125L54.95650170410156,45.3839258828125C54.95650170410156,44.8553648828125,54.528031704101565,44.4268798828125,53.999491704101565,44.4268798828125C53.470951704101566,44.4268798828125,53.04248170410156,44.8553648828125,53.04248170410156,45.3839258828125L53.04248170410156,45.8066898828125L53.04248170410156,45.8968498828125L53.04248170410156,50.8405798828125C53.04248170410156,50.9900098828125,53.02263170410156,51.1357498828125,52.987711704101564,51.2784098828125C52.87287170410156,51.7475498828125,52.595107704101565,52.1833898828125,52.32472170410156,52.6076498828125C52.255652704101564,52.7160198828125,52.187064704101566,52.8236398828125,52.12179770410156,52.9308698828125C51.91943170410156,53.2633298828125,51.80287170410156,53.6537798828125,51.80287170410156,54.0714498828125C51.80287170410156,55.2846798828125,52.78633170410156,56.268179882812504,53.999491704101565,56.268179882812504C55.21265170410156,56.268179882812504,56.19611170410156,55.2846798828125,56.19611170410156,54.0714498828125C56.19611170410156,53.6537798828125,56.07955170410156,53.2633298828125,55.87718170410156,52.9308698828125C55.811921704101565,52.8236398828125,55.743331704101564,52.7160198828125,55.67426170410156,52.6076498828125C55.40387170410156,52.1833898828125,55.12611170410156,51.7475498828125,55.01127170410156,51.2784098828125C54.97635170410156,51.1357498828125,54.95650170410156,50.9900098828125,54.95650170410156,50.8405798828125L54.95650170410156,45.8968498828125Z" fill-rule="evenodd" fill="#F6F8FA" fill-opacity="1"/></g></g></g></g></svg>