<svg xmlns="http://www.w3.org/2000/svg" xmlns:xlink="http://www.w3.org/1999/xlink" fill="none" version="1.1" width="24" height="24" viewBox="0 0 24 24"><g><g><g><ellipse cx="11.76695704460144" cy="11.766384840011597" rx="8.988558769226074" ry="8.988558769226074" fill-opacity="0" stroke-opacity="1" stroke="#121212" fill="none" stroke-width="1.75" stroke-linecap="ROUND" stroke-linejoin="round"/></g><g><path d="M18.724822650375366,17.776831320785522C18.333792650375365,17.38681732078552,17.700622650375365,17.387637320785522,17.310606650375366,17.778670320785523C16.920592650375365,18.16970232078552,16.921412650375366,18.802867320785523,17.312445650375366,19.192887320785523C17.312445650375366,19.192887320785523,18.724822650375366,17.776831320785522,18.724822650375366,17.776831320785522C18.724822650375366,17.776831320785522,18.724822650375366,17.776831320785522,18.724822650375366,17.776831320785522ZM20.836472650375367,22.70775732078552C21.227502650375367,23.09777732078552,21.860672650375367,23.096947320785524,22.250682650375367,22.705917320785524C22.640702650375367,22.314887320785523,22.639882650375366,21.681717320785523,22.248842650375366,21.291707320785523C22.248842650375366,21.291707320785523,20.836472650375367,22.70775732078552,20.836472650375367,22.70775732078552C20.836472650375367,22.70775732078552,20.836472650375367,22.70775732078552,20.836472650375367,22.70775732078552ZM17.312445650375366,19.192887320785523C17.312445650375366,19.192887320785523,20.836472650375367,22.70775732078552,20.836472650375367,22.70775732078552C20.836472650375367,22.70775732078552,22.248842650375366,21.291707320785523,22.248842650375366,21.291707320785523C22.248842650375366,21.291707320785523,18.724822650375366,17.776831320785522,18.724822650375366,17.776831320785522C18.724822650375366,17.776831320785522,17.312445650375366,19.192887320785523,17.312445650375366,19.192887320785523C17.312445650375366,19.192887320785523,17.312445650375366,19.192887320785523,17.312445650375366,19.192887320785523Z" fill="#121212" fill-opacity="1"/></g></g></g></svg>