<svg xmlns="http://www.w3.org/2000/svg" xmlns:xlink="http://www.w3.org/1999/xlink" fill="none" version="1.1" width="24" height="24" viewBox="0 0 24 24"><defs><clipPath id="master_svg0_48385_069965"><rect x="0" y="0" width="24" height="24" rx="0"/></clipPath><clipPath id="master_svg1_46239_085767/2956_9655"><rect x="4" y="4" width="16" height="16" rx="0"/></clipPath></defs><g clip-path="url(#master_svg0_48385_069965)"><g><g clip-path="url(#master_svg1_46239_085767/2956_9655)"><g><path d="M12.66682609375,9.33349609375C12.66682609375,8.96530609375,12.36835609375,8.66682609375,12.00016609375,8.66682609375C11.63196609375,8.66682609375,11.33349609375,8.96530609375,11.33349609375,9.33349609375C11.33349609375,9.33349609375,12.66682609375,9.33349609375,12.66682609375,9.33349609375C12.66682609375,9.33349609375,12.66682609375,9.33349609375,12.66682609375,9.33349609375ZM12.00016609375,12.00016609375C12.00016609375,12.00016609375,11.33349609375,12.00016609375,11.33349609375,12.00016609375C11.33349609375,12.17697609375,11.40373609375,12.34654609375,11.528756093750001,12.471566093749999C11.528756093750001,12.471566093749999,12.00016609375,12.00016609375,12.00016609375,12.00016609375C12.00016609375,12.00016609375,12.00016609375,12.00016609375,12.00016609375,12.00016609375ZM13.52876609375,14.47156609375C13.78909609375,14.73189609375,14.21122609375,14.73189609375,14.47156609375,14.47156609375C14.73189609375,14.21122609375,14.73189609375,13.78909609375,14.47156609375,13.52876609375C14.47156609375,13.52876609375,13.52876609375,14.47156609375,13.52876609375,14.47156609375C13.52876609375,14.47156609375,13.52876609375,14.47156609375,13.52876609375,14.47156609375ZM17.33349609375,12.00016609375C17.33349609375,14.94569609375,14.94569609375,17.33349609375,12.00016609375,17.33349609375C12.00016609375,17.33349609375,12.00016609375,18.66679609375,12.00016609375,18.66679609375C15.68199609375,18.66679609375,18.66679609375,15.68199609375,18.66679609375,12.00016609375C18.66679609375,12.00016609375,17.33349609375,12.00016609375,17.33349609375,12.00016609375C17.33349609375,12.00016609375,17.33349609375,12.00016609375,17.33349609375,12.00016609375ZM12.00016609375,17.33349609375C9.05464609375,17.33349609375,6.66682609375,14.94569609375,6.66682609375,12.00016609375C6.66682609375,12.00016609375,5.33349609375,12.00016609375,5.33349609375,12.00016609375C5.33349609375,15.68199609375,8.318266093750001,18.66679609375,12.00016609375,18.66679609375C12.00016609375,18.66679609375,12.00016609375,17.33349609375,12.00016609375,17.33349609375C12.00016609375,17.33349609375,12.00016609375,17.33349609375,12.00016609375,17.33349609375ZM6.66682609375,12.00016609375C6.66682609375,9.05464609375,9.05464609375,6.66682609375,12.00016609375,6.66682609375C12.00016609375,6.66682609375,12.00016609375,5.33349609375,12.00016609375,5.33349609375C8.318266093750001,5.33349609375,5.33349609375,8.318266093750001,5.33349609375,12.00016609375C5.33349609375,12.00016609375,6.66682609375,12.00016609375,6.66682609375,12.00016609375C6.66682609375,12.00016609375,6.66682609375,12.00016609375,6.66682609375,12.00016609375ZM12.00016609375,6.66682609375C14.94569609375,6.66682609375,17.33349609375,9.05464609375,17.33349609375,12.00016609375C17.33349609375,12.00016609375,18.66679609375,12.00016609375,18.66679609375,12.00016609375C18.66679609375,8.318266093750001,15.68199609375,5.33349609375,12.00016609375,5.33349609375C12.00016609375,5.33349609375,12.00016609375,6.66682609375,12.00016609375,6.66682609375C12.00016609375,6.66682609375,12.00016609375,6.66682609375,12.00016609375,6.66682609375ZM11.33349609375,9.33349609375C11.33349609375,9.33349609375,11.33349609375,12.00016609375,11.33349609375,12.00016609375C11.33349609375,12.00016609375,12.66682609375,12.00016609375,12.66682609375,12.00016609375C12.66682609375,12.00016609375,12.66682609375,9.33349609375,12.66682609375,9.33349609375C12.66682609375,9.33349609375,11.33349609375,9.33349609375,11.33349609375,9.33349609375C11.33349609375,9.33349609375,11.33349609375,9.33349609375,11.33349609375,9.33349609375ZM11.528756093750001,12.471566093749999C11.528756093750001,12.471566093749999,13.52876609375,14.47156609375,13.52876609375,14.47156609375C13.52876609375,14.47156609375,14.47156609375,13.52876609375,14.47156609375,13.52876609375C14.47156609375,13.52876609375,12.471566093749999,11.528756093750001,12.471566093749999,11.528756093750001C12.471566093749999,11.528756093750001,11.528756093750001,12.471566093749999,11.528756093750001,12.471566093749999C11.528756093750001,12.471566093749999,11.528756093750001,12.471566093749999,11.528756093750001,12.471566093749999Z" fill="#121212" fill-opacity="1"/></g></g></g></g></svg>