<svg xmlns="http://www.w3.org/2000/svg" xmlns:xlink="http://www.w3.org/1999/xlink" fill="none" version="1.1" width="24" height="24" viewBox="0 0 24 24"><g style="mix-blend-mode:passthrough"><g style="mix-blend-mode:passthrough"><path d="M12,22C6.47715,22,2,17.5228,2,12C2,6.47715,6.47715,2,12,2C17.5228,2,22,6.47715,22,12C22,17.5228,17.5228,22,12,22ZM12.0002,20.8C16.860300000000002,20.8,20.8002,16.8601,20.8002,12C20.8002,7.1399,16.860300000000002,3.20001,12.0002,3.20001C7.14009,3.20001,3.2001999999999997,7.1399,3.2001999999999997,12C3.2001999999999997,16.8601,7.14009,20.8,12.0002,20.8ZM11.40039,7L12.6004,7L12.6004,11.39999L17,11.39999L17,12.6L12.6004,12.6L12.6004,17L11.40039,17L11.40039,12.6L7,12.6L7,11.39999L11.40039,11.39999L11.40039,7Z" fill-rule="evenodd" fill="#006DE2" fill-opacity="1"/></g></g></svg>