<svg xmlns="http://www.w3.org/2000/svg" xmlns:xlink="http://www.w3.org/1999/xlink" fill="none" version="1.1" width="24" height="24" viewBox="0 0 24 24"><g><g></g><g><g transform="matrix(-1,0,0,-1,30.7698974609375,30.783721923828125)"><path d="M19.65726873046875,15.391241857914062L19.659668730468752,18.786160961914064L18.78466873046875,18.78678096191406L18.78528873046875,17.91178096191406L22.18020873046875,17.914180961914063Q22.266388730468748,17.91424096191406,22.35089873046875,17.93112096191406Q22.43541873046875,17.947990961914062,22.51500873046875,17.981020961914062Q22.59460873046875,18.014060961914062,22.66622873046875,18.061990961914063Q22.737848730468748,18.109920961914064,22.798748730468752,18.170900961914064Q22.85964873046875,18.23188096191406,22.90746873046875,18.303570961914062Q22.95529873046875,18.375260961914062,22.988228730468748,18.454910961914063Q23.02114873046875,18.534550961914064,23.03789873046875,18.61909096191406Q23.054658730468752,18.703620961914062,23.05458873046875,18.78980096191406Q23.05452873046875,18.875900961914063,23.03768873046875,18.960340961914063Q23.02084873046875,19.044780961914064,22.98786873046875,19.124320961914062Q22.95488873046875,19.203850961914064,22.90703873046875,19.27544096191406Q22.859198730468748,19.347020961914062,22.79830873046875,19.407900961914063Q22.73742873046875,19.468780961914064,22.66584873046875,19.51663096191406Q22.594268730468748,19.564480961914064,22.51472873046875,19.597460961914063Q22.43518873046875,19.63044096191406,22.35074873046875,19.647280961914063Q22.26631873046875,19.664120961914062,22.18020873046875,19.664180961914063L18.78528873046875,19.666580961914065L18.78466873046875,18.79158096191406L19.659668730468752,18.792200961914062L19.65726873046875,22.18712096191406Q19.65720873046875,22.27330096191406,19.64033873046875,22.357810961914062Q19.623458730468748,22.442330961914063,19.59042873046875,22.521920961914063Q19.55738873046875,22.601520961914062,19.50945873046875,22.67314096191406Q19.46152873046875,22.74476096191406,19.40054873046875,22.805660961914064Q19.33956873046875,22.86656096191406,19.26787873046875,22.914380961914063Q19.19618873046875,22.962210961914064,19.11654873046875,22.99514096191406Q19.03689873046875,23.02806096191406,18.95236873046875,23.044810961914063Q18.86782873046875,23.061570961914065,18.78164873046875,23.061500961914064Q18.69554873046875,23.061440961914062,18.61110873046875,23.044600961914064Q18.52666873046875,23.027760961914062,18.44713873046875,22.994780961914064Q18.36759873046875,22.96180096191406,18.29601873046875,22.91395096191406Q18.22443873046875,22.86611096191406,18.16354873046875,22.805220961914063Q18.10266873046875,22.744340961914062,18.05481873046875,22.67276096191406Q18.00696873046875,22.60118096191406,17.97399873046875,22.521640961914063Q17.94101873046875,22.44210096191406,17.92417873046875,22.357660961914064Q17.90732873046875,22.273230961914063,17.90726873046875,22.18712096191406L17.90486873046875,18.792200961914062L18.77986873046875,18.79158096191406L18.77924873046875,19.666580961914065L15.38432962646875,19.664180961914063Q15.29814963046875,19.664120961914062,15.21363773046875,19.64725096191406Q15.12912573046875,19.63037096191406,15.04952873046875,19.597340961914064Q14.96993273046875,19.564300961914064,14.89830973046875,19.516370961914063Q14.82668773046875,19.468440961914062,14.76579273046875,19.40746096191406Q14.70489773046875,19.34648096191406,14.65706873046875,19.274790961914064Q14.60924073046875,19.203100961914064,14.57631773046875,19.123460961914063Q14.54339373046875,19.043810961914062,14.52664073046875,18.95928096191406Q14.50988773046875,18.874740961914064,14.50994873046875,18.78856096191406Q14.51000973046875,18.702460961914063,14.52685273046875,18.618020961914063Q14.54369473046875,18.533580961914062,14.57667273046875,18.454050961914064Q14.60965073046875,18.374510961914062,14.65749873046875,18.30293096191406Q14.70534673046875,18.231350961914064,14.76622973046875,18.170460961914063Q14.82711373046875,18.109580961914062,14.89869573046875,18.061730961914062Q14.97027873046875,18.01388096191406,15.04981473046875,17.980910961914063Q15.129350730468751,17.94793096191406,15.21378973046875,17.931090961914062Q15.29822773046875,17.91424096191406,15.38432956546875,17.914180961914063L18.77924873046875,17.91178096191406L18.77986873046875,18.78678096191406L17.90486873046875,18.786160961914064L17.90726873046875,15.391241796914063Q17.90732873046875,15.305061861914062,17.92420873046875,15.220549961914063Q17.94107873046875,15.136037961914063,17.97410873046875,15.056440961914063Q18.00714873046875,14.976844961914063,18.05507873046875,14.905221961914062Q18.10300873046875,14.833599961914063,18.163988730468752,14.772704961914062Q18.22496873046875,14.711809961914062,18.29665873046875,14.663980961914062Q18.36834873046875,14.616152961914063,18.44799873046875,14.583229961914062Q18.52763873046875,14.550305961914063,18.61217873046875,14.533552961914063Q18.69670873046875,14.516799961914062,18.78288873046875,14.516860961914062Q18.86898873046875,14.516921961914063,18.95342873046875,14.533764961914063Q19.03786873046875,14.550606961914063,19.11740873046875,14.583584961914063Q19.19693873046875,14.616562961914063,19.26852873046875,14.664410961914063Q19.34010873046875,14.712258961914063,19.40098873046875,14.773142961914063Q19.46186873046875,14.834025961914062,19.509718730468748,14.905607961914063Q19.557568730468752,14.977190961914063,19.59054873046875,15.056726961914062Q19.62352873046875,15.136262961914063,19.64036873046875,15.220701961914063Q19.65720873046875,15.305140061914063,19.65726873046875,15.391241857914062L19.65726873046875,15.391241857914062ZM17.90726873046875,15.392480065914063L18.78226873046875,15.391860961914062L19.65726873046875,15.392480126914062L19.65486873046875,18.787400961914063Q19.65480873046875,18.87350096191406,19.63796873046875,18.957940961914062Q19.62111873046875,19.042380961914063,19.58814873046875,19.12191096191406Q19.55516873046875,19.201450961914063,19.50731873046875,19.273030961914063Q19.45946873046875,19.344610961914064,19.39858873046875,19.40550096191406Q19.33770873046875,19.466380961914062,19.26611873046875,19.514230961914063Q19.19453873046875,19.562080961914063,19.11499873046875,19.59506096191406Q19.03546873046875,19.628030961914064,18.95102873046875,19.644880961914062Q18.86658873046875,19.661720961914064,18.78048873046875,19.66178096191406L15.38556789546875,19.664180961914063L15.384948730468752,18.789180961914063L15.38556783446875,17.914180961914063L18.78048873046875,17.91658096191406Q18.86658873046875,17.916650961914062,18.95102873046875,17.933490961914064Q19.03546873046875,17.950330961914062,19.11499873046875,17.983310961914064Q19.19453873046875,18.016290961914063,19.26611873046875,18.064130961914064Q19.33769873046875,18.111980961914064,19.39858873046875,18.172870961914064Q19.45946873046875,18.233750961914062,19.50731873046875,18.305330961914063Q19.55516873046875,18.376910961914064,19.58814873046875,18.45645096191406Q19.62111873046875,18.535990961914063,19.63796873046875,18.620430961914064Q19.65480873046875,18.70486096191406,19.65486873046875,18.790970961914063L19.65726873046875,22.185890961914062L18.78226873046875,22.186500961914064L17.90726873046875,22.185890961914062L17.90966873046875,18.790970961914063Q17.90973873046875,18.70486096191406,17.92657873046875,18.620430961914064Q17.94341873046875,18.535990961914063,17.976398730468752,18.45645096191406Q18.00937873046875,18.376910961914064,18.05721873046875,18.305330961914063Q18.10506873046875,18.233750961914062,18.165958730468752,18.172870961914064Q18.22683873046875,18.111980961914064,18.29841873046875,18.064140961914063Q18.36999873046875,18.016290961914063,18.44953873046875,17.983310961914064Q18.52907873046875,17.950330961914062,18.61351873046875,17.933490961914064Q18.69794873046875,17.916650961914062,18.78405873046875,17.91658096191406L22.17897873046875,17.914180961914063L22.17958873046875,18.789180961914063L22.17897873046875,19.664180961914063L18.78405873046875,19.66178096191406Q18.69794873046875,19.661720961914064,18.61351873046875,19.644880961914062Q18.52907873046875,19.628030961914064,18.44953873046875,19.59506096191406Q18.36999873046875,19.562080961914063,18.29841873046875,19.514230961914063Q18.22683873046875,19.466380961914062,18.165958730468752,19.40550096191406Q18.10506873046875,19.344620961914064,18.05722873046875,19.273030961914063Q18.00937873046875,19.201450961914063,17.976398730468752,19.12191096191406Q17.94341873046875,19.042380961914063,17.92657873046875,18.957940961914062Q17.90973873046875,18.87350096191406,17.90966873046875,18.787400961914063L17.90726873046875,15.392480065914063Z" fill="#121212" fill-opacity="1"/></g><g><ellipse cx="11.987468719482422" cy="11.99453353881836" rx="9.020000457763672" ry="9.020000457763672" fill-opacity="0" stroke-opacity="1" stroke="#121212" fill="none" stroke-width="1.75"/></g></g></g></svg>