<svg xmlns="http://www.w3.org/2000/svg" xmlns:xlink="http://www.w3.org/1999/xlink" fill="none" version="1.1" width="24" height="24" viewBox="0 0 24 24"><g><g><g><path d="M11.87658,2C17.523,2,22,6.47703,22,12.1234C22,17.523,17.523,22,11.87658,22C6.47703,22,2,17.523,2,12.1234C2,6.47703,6.47703,2,11.87658,2ZM9.11457,12.1491L10.7478,13.7283L15.654,8.86116C16.028100000000002,8.49006,16.6312,8.50685,16.9926,8.89025L16.997500000000002,8.89535C17.3452,9.26415,17.3395,9.82635,16.981099999999998,10.18475L11.22589,15.94C10.90045,16.2655,10.37282,16.2655,10.04737,15.94L7.71663,13.6093C7.32635,13.219,7.30285,12.5801,7.68693,12.1837L7.69739,12.1729C8.08549,11.77237,8.713619999999999,11.76147,9.11457,12.1491Z" fill-rule="evenodd" fill="#006DE2" fill-opacity="1"/></g><g><path d="M10.7478,13.728183291015625C10.7478,13.728183291015625,9.80646,12.818013291015625,9.11457,12.149053291015624C8.71362,11.761373291015625,8.08549,11.772283291015626,7.697388,12.172823291015625C7.693901,12.176423291015626,7.690414,12.180023291015626,7.686927,12.183613291015625C7.302846,12.580003291015625,7.32635,13.218893291015625,7.716631,13.609183291015626C8.61747,14.510023291015624,10.04737,15.939923291015624,10.04737,15.939923291015624C10.37282,16.265363291015625,10.90045,16.265363291015625,11.22589,15.939923291015624C11.22589,15.939923291015624,15.36635,11.799443291015624,16.98114,10.184653291015625C17.3395,9.826253291015625,17.3452,9.264053291015625,16.99746,8.895262291015625C16.99586,8.893561291015626,16.99425,8.891859291015624,16.992649999999998,8.890158291015625C16.63118,8.506757291015624,16.02809,8.489967291015624,15.65401,8.861069291015625C14.16676,10.336463291015626,10.7478,13.728183291015625,10.7478,13.728183291015625C10.7478,13.728183291015625,10.7478,13.728183291015625,10.7478,13.728183291015625Z" fill-rule="evenodd" fill="#FFFFFF" fill-opacity="1"/></g></g></g></svg>