<svg xmlns="http://www.w3.org/2000/svg" xmlns:xlink="http://www.w3.org/1999/xlink" fill="none" version="1.1" width="20" height="20" viewBox="0 0 20 20"><defs><clipPath id="master_svg0_57005_193970/48879_083020"><rect x="0" y="0" width="20" height="20" rx="0"/></clipPath></defs><g><g clip-path="url(#master_svg0_57005_193970/48879_083020)"><g><path d="M16.7071,5.292893C17.0976,5.683417,17.0976,6.31658,16.7071,6.70711C16.7071,6.70711,8.70711,14.70711,8.70711,14.70711C8.31658,15.0976,7.68342,15.0976,7.29289,14.70711C7.29289,14.70711,3.292893,10.70711,3.292893,10.70711C2.902369,10.31658,2.902369,9.68342,3.292893,9.29289C3.683417,8.90237,4.31658,8.90237,4.70711,9.29289C4.70711,9.29289,8,12.58579,8,12.58579C8,12.58579,15.2929,5.292893,15.2929,5.292893C15.6834,4.902369,16.3166,4.902369,16.7071,5.292893C16.7071,5.292893,16.7071,5.292893,16.7071,5.292893Z" fill-rule="evenodd" fill="#006DE2" fill-opacity="1"/></g></g></g></svg>