<svg xmlns="http://www.w3.org/2000/svg" xmlns:xlink="http://www.w3.org/1999/xlink" fill="none" version="1.1" width="10" height="10" viewBox="0 0 10 10"><g><g><g><path d="M0.21307373046875,4.999973212890625Q0.21307373046875,6.982793212890625,1.61513473046875,8.384853212890626Q1.72062373046875,8.490343212890625,1.85845173046875,8.547433212890624Q1.99628373046875,8.604523212890625,2.14546373046875,8.604523212890625Q2.21933373046875,8.604523212890625,2.29178373046875,8.590113212890625Q2.36423373046875,8.575693212890625,2.4324737304687503,8.547433212890624Q2.50072373046875,8.519163212890625,2.56214373046875,8.478123212890626Q2.6235637304687502,8.437083212890624,2.67579373046875,8.384853212890626Q2.72802373046875,8.332623212890624,2.76906373046875,8.271203212890626Q2.81010373046875,8.209783212890624,2.83837373046875,8.141533212890625Q2.86664373046875,8.073283212890626,2.88105373046875,8.000843212890626Q2.89546373046875,7.928393212890625,2.89546373046875,7.854523212890625Q2.89546373046875,7.705333212890625,2.83837373046875,7.567513212890625Q2.78128373046875,7.429683212890625,2.67579373046875,7.324193212890625Q1.71307373046875,6.361473212890625,1.71307373046875,4.999973212890625Q1.71307373046875,3.638483212890625,2.67579373046875,2.675763212890625Q3.63824373046875,1.713316212890625,4.99923373046875,1.713043212890625L5.00000373046875,1.713043212890625Q5.07387373046875,1.713043212890625,5.14632373046875,1.698631212890625Q5.21877373046875,1.684221212890625,5.28702373046875,1.655952212890625Q5.35526373046875,1.627684212890625,5.41668373046875,1.586645212890625Q5.47810373046875,1.545606212890625,5.53033373046875,1.493373212890625Q5.58257373046875,1.441140212890625,5.62361373046875,1.379721212890625Q5.66465373046875,1.318301212890625,5.69291373046875,1.250056212890625Q5.72118373046875,1.181810212890625,5.73559373046875,1.109361212890625Q5.75000373046875,1.0369117128906251,5.75000373046875,0.963043212890625Q5.75000373046875,0.889174712890625,5.73559373046875,0.816725212890625Q5.72118373046875,0.7442762128906251,5.69291373046875,0.676030212890625Q5.66465373046875,0.6077852128906249,5.62361373046875,0.546365212890625Q5.58257373046875,0.484946212890625,5.53033373046875,0.43271321289062503Q5.47810373046875,0.38048021289062495,5.41668373046875,0.339441212890625Q5.35526373046875,0.29840221289062496,5.28702373046875,0.270133212890625Q5.21877373046875,0.24186521289062501,5.14632373046875,0.22745421289062495Q5.07387373046875,0.213043212890625,5.00000373046875,0.213043212890625Q3.01719373046875,0.213043212890625,1.61513473046875,1.615103212890625Q0.21307373046875,3.017163212890625,0.21307373046875,4.999973212890625ZM7.32422373046875,2.675763212890625Q7.21873373046875,2.570273212890625,7.16164373046875,2.4324432128906253Q7.10455373046875,2.294613212890625,7.10455373046875,2.145433212890625Q7.10455373046875,2.071563212890625,7.11896373046875,1.999113212890625Q7.13337373046875,1.926667212890625,7.16164373046875,1.858421212890625Q7.18991373046875,1.790175212890625,7.23094373046875,1.7287562128906249Q7.27198373046875,1.6673362128906248,7.32422373046875,1.615104212890625Q7.37645373046875,1.562871212890625,7.43787373046875,1.5218312128906248Q7.49929373046875,1.480792212890625,7.56754373046875,1.452524212890625Q7.63578373046875,1.4242562128906249,7.70823373046875,1.409845212890625Q7.78068373046875,1.395434212890625,7.85455373046875,1.395434212890625Q8.003733730468749,1.395434212890625,8.14156373046875,1.452524212890625Q8.279393730468751,1.5096142128906251,8.38488373046875,1.615104212890625Q9.78694373046875,3.017163212890625,9.78694373046875,4.999973212890625Q9.78694373046875,6.982793212890625,8.38488373046875,8.384853212890626Q6.98282373046875,9.786913212890624,5.00000373046875,9.786913212890624Q4.92614373046875,9.786913212890624,4.85369373046875,9.772503212890625Q4.78124373046875,9.758093212890625,4.7129937304687495,9.729823212890626Q4.64475373046875,9.701553212890625,4.58333373046875,9.660513212890624Q4.52191373046875,9.619473212890625,4.469673730468751,9.567243212890626Q4.41744373046875,9.515003212890624,4.37640373046875,9.453593212890626Q4.33536373046875,9.392173212890626,4.30709373046875,9.323923212890625Q4.27883373046875,9.255673212890626,4.264423730468749,9.183233212890626Q4.25000373046875,9.110783212890626,4.25000373046875,9.036913212890624Q4.25000373046875,8.963043212890625,4.264423730468749,8.890593212890625Q4.27883373046875,8.818143212890625,4.30709373046875,8.749903212890626Q4.33536373046875,8.681653212890625,4.37640373046875,8.620233212890625Q4.41744373046875,8.558813212890625,4.469673730468751,8.506583212890625Q4.52191373046875,8.454353212890625,4.58333373046875,8.413313212890625Q4.64475373046875,8.372273212890626,4.7129937304687495,8.344003212890625Q4.78124373046875,8.315733212890624,4.85369373046875,8.301323212890626Q4.92614373046875,8.286913212890624,5.00000373046875,8.286913212890624Q6.36150373046875,8.286913212890624,7.32422373046875,7.324193212890625Q8.28694373046875,6.361473212890625,8.28694373046875,4.999973212890625Q8.28694373046875,3.638483212890625,7.32422373046875,2.675763212890625Z" fill-rule="evenodd" fill="#FFFFFF" fill-opacity="1"/></g><g><path d="M4.99993896484375,8.2872314453125L8.42205896484375,8.2872314453125Q8.495928964843749,8.2872314453125,8.568378964843749,8.301642445312499Q8.64082896484375,8.3160534453125,8.70906896484375,8.3443214453125Q8.77731896484375,8.3725904453125,8.838738964843749,8.4136294453125Q8.900158964843751,8.4546684453125,8.952388964843749,8.5069014453125Q9.00461896484375,8.5591344453125,9.04565896484375,8.6205534453125Q9.08669896484375,8.6819734453125,9.11496896484375,8.7502184453125Q9.14323896484375,8.8184644453125,9.15764896484375,8.8909134453125Q9.17205896484375,8.9633629453125,9.17205896484375,9.0372314453125Q9.17205896484375,9.1110999453125,9.15764896484375,9.1835494453125Q9.14323896484375,9.2559984453125,9.11496896484375,9.3242444453125Q9.08669896484375,9.3924894453125,9.04565896484375,9.4539094453125Q9.00461896484375,9.5153284453125,8.952388964843749,9.5675614453125Q8.900158964843751,9.6197944453125,8.838738964843749,9.6608334453125Q8.77731896484375,9.7018724453125,8.70906896484375,9.7301414453125Q8.64082896484375,9.7584094453125,8.568378964843749,9.772820445312501Q8.495928964843749,9.7872314453125,8.42205896484375,9.7872314453125L4.99993896484375,9.7872314453125Q4.92607046484375,9.7872314453125,4.85362096484375,9.772820445312501Q4.78117196484375,9.7584094453125,4.71292596484375,9.7301414453125Q4.64468096484375,9.7018724453125,4.58326096484375,9.6608334453125Q4.52184196484375,9.6197944453125,4.46960896484375,9.5675614453125Q4.41737596484375,9.5153284453125,4.37633696484375,9.4539094453125Q4.33529796484375,9.3924894453125,4.30702896484375,9.3242444453125Q4.27876096484375,9.2559984453125,4.26434996484375,9.1835494453125Q4.24993896484375,9.1110999453125,4.24993896484375,9.0372314453125Q4.24993896484375,8.9633629453125,4.26434996484375,8.8909134453125Q4.27876096484375,8.8184644453125,4.30702896484375,8.7502184453125Q4.33529796484375,8.6819734453125,4.37633696484375,8.6205534453125Q4.41737596484375,8.5591344453125,4.46960896484375,8.5069014453125Q4.52184196484375,8.4546684453125,4.58326096484375,8.4136294453125Q4.64468096484375,8.3725904453125,4.71292596484375,8.3443214453125Q4.78117196484375,8.3160534453125,4.85362096484375,8.301642445312499Q4.92607046484375,8.2872314453125,4.99993896484375,8.2872314453125Z" fill-rule="evenodd" fill="#FFFFFF" fill-opacity="1"/></g><g><path d="M1.57874478359375,0.21301369531250003L4.99973568359375,0.2179116953125L5.00080568359375,0.21791369531250004Q5.07461568359375,0.21801869531249995,5.14697568359375,0.23250769531250004Q5.21933568359375,0.24699569531249999,5.28749568359375,0.2753116953125Q5.35564568359375,0.3036266953125,5.4169756835937495,0.3446836953125Q5.47829568359375,0.38573969531249996,5.53044568359375,0.4379626953125Q5.58259568359375,0.4901846953125,5.62356568359375,0.5515696953125Q5.66453568359375,0.6129546953125,5.69274568359375,0.6811476953125Q5.72096568359375,0.7493416953125001,5.73535568359375,0.8217266953125Q5.74973568359375,0.8941118953125,5.74973568359375,0.9679126753125Q5.74973568359375,1.0417811953125,5.73532568359375,1.1142306953125Q5.72091568359375,1.1866796953125,5.69264568359375,1.2549256953125Q5.66437568359375,1.3231706953125,5.62333568359375,1.3845906953125Q5.58229568359375,1.4460096953125001,5.53006568359375,1.4982426953124999Q5.477835683593749,1.5504756953125,5.416415683593749,1.5915146953125001Q5.35499568359375,1.6325536953125002,5.28674568359375,1.6608226953125Q5.21850568359375,1.6890906953125,5.14605568359375,1.7035016953125Q5.07360568359375,1.7179126953125001,4.99973568359375,1.7179126953125001L4.9986656835937495,1.7179116953125L4.99856568359375,1.7179116953125L1.5775756825016,1.7130136953125001L1.57650180359375,1.7130116953124999Q1.50270108359375,1.7129066953124998,1.43033668359375,1.6984176953125Q1.35797168359375,1.6839296953125,1.28981868359375,1.6556136953125Q1.22166668359375,1.6272976953125,1.16033968359375,1.5862416953125Q1.09901368359375,1.5451856953125,1.04686568359375,1.4929626953125Q0.99471868359375,1.4407406953125,0.95374968359375,1.3793556953125Q0.91278168359375,1.3179706953124999,0.88456368359375,1.2497776953125Q0.85634568359375,1.1815836953125,0.84196068359375,1.1091986953125Q0.82757568359375,1.0368134953124999,0.82757568359375,0.9630126953125Q0.82757568359375,0.8891441953125,0.84198668359375,0.8166946953125Q0.85639768359375,0.7442456953125001,0.88466568359375,0.6759996953125Q0.91293468359375,0.6077546953124999,0.95397368359375,0.5463346953125Q0.99501268359375,0.4849156953125,1.04724568359375,0.43268269531250003Q1.09947868359375,0.38044969531249995,1.16089768359375,0.3394106953125Q1.22231768359375,0.29837169531249996,1.29056268359375,0.2701026953125Q1.35880868359375,0.24183469531250001,1.43125768359375,0.22742369531249995Q1.5037071835937499,0.2130126953125,1.57757568359375,0.2130126953125L1.57864956359375,0.21301369531250003L1.57874478359375,0.21301369531250003Z" fill-rule="evenodd" fill="#FFFFFF" fill-opacity="1"/></g></g></g></svg>