<svg xmlns="http://www.w3.org/2000/svg" xmlns:xlink="http://www.w3.org/1999/xlink" fill="none" version="1.1" width="340" height="10" viewBox="0 0 340 10"><defs><mask id="master_svg0_48987_095754" style="mask-type:alpha" maskUnits="userSpaceOnUse"><g><rect x="0" y="0" width="340" height="10" rx="0" fill="#FFFFFF" fill-opacity="1"/></g></mask></defs><g mask="url(#master_svg0_48987_095754)"><g><path d="M0,53L0,9Q0.196507,9,0.392069,8.980999999999995Q0.58763,8.961000000000013,0.780361,8.923000000000002Q0.973093,8.884999999999991,1.16114,8.828000000000003Q1.34918,8.770999999999987,1.53073,8.695999999999998Q1.71228,8.620000000000005,1.88559,8.527999999999992Q2.05889,8.435000000000002,2.22228,8.325999999999993Q2.38567,8.217000000000013,2.53757,8.092000000000013Q2.68948,7.967000000000013,2.82843,7.828000000000003Q2.96738,7.688999999999993,3.09204,7.538000000000011Q3.2167,7.385999999999996,3.32588,7.222000000000008Q3.43505,7.0589999999999975,3.52768,6.885999999999996Q3.62032,6.711999999999989,3.69552,6.531000000000006Q3.77072,6.3489999999999895,3.82776,6.161000000000001Q3.8848,5.973000000000013,3.92314,5.780000000000001Q3.96148,5.587999999999994,3.98074,5.391999999999996Q4,5.197000000000003,4,5Q4,4.802999999999997,3.98074,4.608000000000004Q3.96148,4.412000000000006,3.92314,4.219999999999999Q3.8848,4.026999999999987,3.82776,3.8389999999999986Q3.77072,3.6510000000000105,3.69552,3.468999999999994Q3.62032,3.288000000000011,3.52768,3.1140000000000043Q3.43505,2.9410000000000025,3.32588,2.7779999999999916Q3.2167,2.6140000000000043,3.09204,2.461999999999989Q2.96738,2.311000000000007,2.82843,2.171999999999997Q2.68948,2.032999999999987,2.53757,1.907999999999987Q2.38567,1.782999999999987,2.22228,1.6740000000000066Q2.05889,1.5649999999999977,1.88559,1.4720000000000084Q1.71228,1.3799999999999955,1.53073,1.304000000000002Q1.34918,1.2290000000000134,1.16114,1.171999999999997Q0.973093,1.115000000000009,0.780361,1.0769999999999982Q0.58763,1.0389999999999873,0.392069,1.0190000000000055Q0.196507,1,0,1L0,-122Q0,-122.12274,0.00602272,-122.24534Q0.0120454,-122.36793,0.0240764,-122.49009Q0.0361073,-122.61224,0.0541174,-122.73365Q0.0721276,-122.85507,0.0960736,-122.97545Q0.12002,-123.09584,0.149844,-123.2149Q0.179668,-123.33397,0.215298,-123.45142Q0.250929,-123.56888000000001,0.29228,-123.68445Q0.333631,-123.80002,0.380602,-123.91342Q0.427574,-124.02682,0.480053,-124.13778Q0.532533,-124.24873,0.590394,-124.35698Q0.648254,-124.46523,0.711357,-124.57051Q0.774459,-124.67579,0.842652,-124.77785Q0.910844,-124.87991,0.983962,-124.9785Q1.05708,-125.07709,1.13495,-125.17197Q1.21282,-125.26685,1.29524,-125.3578Q1.37767,-125.44874,1.46447,-125.53553Q1.55126,-125.62233,1.6422,-125.70476Q1.73315,-125.78718,1.82803,-125.86505Q1.92291,-125.94292,2.0215,-126.016038Q2.12009,-126.089156,2.22215,-126.157348Q2.32421,-126.225541,2.42949,-126.288643Q2.53477,-126.351746,2.64302,-126.409606Q2.75127,-126.467467,2.86222,-126.519947Q2.97318,-126.572426,3.08658,-126.619398Q3.19998,-126.666369,3.31555,-126.70772Q3.43112,-126.749071,3.54858,-126.784702Q3.66603,-126.820332,3.7851,-126.850156Q3.90416,-126.87998,4.02455,-126.9039264Q4.14493,-126.9278724,4.26635,-126.9458826Q4.38776,-126.9638927,4.50991,-126.9759236Q4.63207,-126.9879546,4.75466,-126.99397728Q4.87726,-127,5,-127L335,-127Q335.123,-127,335.245,-126.99397728Q335.368,-126.9879546,335.49,-126.9759236Q335.612,-126.9638927,335.734,-126.9458826Q335.855,-126.9278724,335.975,-126.9039264Q336.096,-126.87998,336.215,-126.850156Q336.334,-126.820332,336.451,-126.784702Q336.569,-126.749071,336.684,-126.70772Q336.8,-126.666369,336.913,-126.619398Q337.027,-126.572426,337.138,-126.519947Q337.249,-126.467467,337.357,-126.409606Q337.465,-126.351746,337.57,-126.288643Q337.676,-126.225541,337.778,-126.157348Q337.88,-126.089156,337.978,-126.016038Q338.077,-125.94292,338.172,-125.86505Q338.267,-125.78718,338.358,-125.70476Q338.449,-125.62233,338.536,-125.53553Q338.622,-125.44874,338.705,-125.3578Q338.787,-125.26685,338.865,-125.17197Q338.943,-125.07709,339.016,-124.9785Q339.089,-124.87991,339.157,-124.77785Q339.225,-124.67579,339.289,-124.57051Q339.352,-124.46523,339.41,-124.35698Q339.467,-124.24873,339.52,-124.13778Q339.572,-124.02682,339.619,-123.91342Q339.666,-123.80002,339.708,-123.68445Q339.749,-123.56888000000001,339.785,-123.45142Q339.82,-123.33397,339.85,-123.2149Q339.88,-123.09584,339.904,-122.97545Q339.928,-122.85507,339.946,-122.73365Q339.964,-122.61224,339.976,-122.49009Q339.988,-122.36793,339.994,-122.24534Q340,-122.12274,340,-122L340,1Q339.804,1,339.608,1.0190000000000055Q339.412,1.0389999999999873,339.22,1.0769999999999982Q339.027,1.115000000000009,338.839,1.171999999999997Q338.651,1.2290000000000134,338.469,1.304000000000002Q338.288,1.3799999999999955,338.114,1.4720000000000084Q337.941,1.5649999999999977,337.778,1.6740000000000066Q337.614,1.782999999999987,337.462,1.907999999999987Q337.311,2.032999999999987,337.172,2.171999999999997Q337.033,2.311000000000007,336.908,2.461999999999989Q336.783,2.6140000000000043,336.674,2.7779999999999916Q336.565,2.9410000000000025,336.472,3.1140000000000043Q336.38,3.288000000000011,336.304,3.468999999999994Q336.229,3.6510000000000105,336.172,3.8389999999999986Q336.115,4.026999999999987,336.077,4.219999999999999Q336.039,4.412000000000006,336.019,4.608000000000004Q336,4.802999999999997,336,5Q336,5.197000000000003,336.019,5.391999999999996Q336.039,5.587999999999994,336.077,5.780000000000001Q336.115,5.973000000000013,336.172,6.161000000000001Q336.229,6.3489999999999895,336.304,6.531000000000006Q336.38,6.711999999999989,336.472,6.885999999999996Q336.565,7.0589999999999975,336.674,7.222000000000008Q336.783,7.385999999999996,336.908,7.538000000000011Q337.033,7.688999999999993,337.172,7.828000000000003Q337.311,7.967000000000013,337.462,8.092000000000013Q337.614,8.217000000000013,337.778,8.325999999999993Q337.941,8.435000000000002,338.114,8.527999999999992Q338.288,8.620000000000005,338.469,8.695999999999998Q338.651,8.770999999999987,338.839,8.828000000000003Q339.027,8.884999999999991,339.22,8.923000000000002Q339.412,8.961000000000013,339.608,8.980999999999995Q339.804,9,340,9L340,53Q340,53.12299999999999,339.994,53.245000000000005Q339.988,53.367999999999995,339.976,53.49000000000001Q339.964,53.611999999999995,339.946,53.73400000000001Q339.928,53.85499999999999,339.904,53.974999999999994Q339.88,54.096000000000004,339.85,54.215Q339.82,54.334,339.785,54.45099999999999Q339.749,54.56899999999999,339.708,54.684Q339.666,54.80000000000001,339.619,54.91300000000001Q339.572,55.02699999999999,339.52,55.138000000000005Q339.467,55.248999999999995,339.41,55.357Q339.352,55.465,339.289,55.56999999999999Q339.225,55.67599999999999,339.157,55.77799999999999Q339.089,55.879999999999995,339.016,55.97800000000001Q338.943,56.077,338.865,56.172Q338.787,56.266999999999996,338.705,56.358000000000004Q338.622,56.44900000000001,338.536,56.536Q338.449,56.622000000000014,338.358,56.70500000000001Q338.267,56.787000000000006,338.172,56.86500000000001Q338.077,56.94300000000001,337.978,57.01599999999999Q337.88,57.089,337.778,57.15700000000001Q337.676,57.226,337.57,57.28899999999999Q337.465,57.352000000000004,337.357,57.41Q337.249,57.46700000000001,337.138,57.52000000000001Q337.027,57.572,336.913,57.619Q336.8,57.666,336.684,57.708Q336.569,57.748999999999995,336.451,57.785Q336.334,57.81999999999999,336.215,57.849999999999994Q336.096,57.879999999999995,335.975,57.903999999999996Q335.855,57.928,335.734,57.946Q335.612,57.964,335.49,57.976Q335.368,57.988,335.245,57.994Q335.123,58,335,58L5,58Q4.87726,58,4.75466,57.994Q4.63207,57.988,4.50991,57.976Q4.38776,57.964,4.26635,57.946Q4.14493,57.928,4.02455,57.903999999999996Q3.90416,57.879999999999995,3.7851,57.849999999999994Q3.66603,57.81999999999999,3.54858,57.785Q3.43112,57.748999999999995,3.31555,57.708Q3.19998,57.666,3.08658,57.619Q2.97318,57.572,2.86222,57.52000000000001Q2.75127,57.46700000000001,2.64302,57.41Q2.53477,57.352000000000004,2.42949,57.28899999999999Q2.32421,57.226,2.22215,57.15700000000001Q2.12009,57.089,2.0215,57.01599999999999Q1.92291,56.94300000000001,1.82803,56.86500000000001Q1.73315,56.787000000000006,1.6422,56.70500000000001Q1.55126,56.622000000000014,1.46447,56.536Q1.37767,56.44900000000001,1.29524,56.358000000000004Q1.21282,56.266999999999996,1.13495,56.172Q1.05708,56.077,0.983962,55.97800000000001Q0.910844,55.879999999999995,0.842652,55.77799999999999Q0.774459,55.67599999999999,0.711357,55.56999999999999Q0.648254,55.465,0.590394,55.357Q0.532533,55.248999999999995,0.480053,55.138000000000005Q0.427574,55.02699999999999,0.380602,54.91300000000001Q0.333631,54.80000000000001,0.29228,54.684Q0.250929,54.56899999999999,0.215298,54.45099999999999Q0.179668,54.334,0.149844,54.215Q0.12002,54.096000000000004,0.0960736,53.974999999999994Q0.0721276,53.85499999999999,0.0541174,53.73400000000001Q0.0361073,53.611999999999995,0.0240764,53.49000000000001Q0.0120454,53.367999999999995,0.00602272,53.245000000000005Q0,53.12299999999999,0,53Z" fill-rule="evenodd" fill="#FFFFFF" fill-opacity="1"/></g><g><path d="M15,4.5L15.993713,4.5Q16.04296,4.5,16.09126,4.509607Q16.13956,4.519215,16.18505,4.53806Q16.23055,4.556906,16.2715,4.584265Q16.31244,4.611625,16.34727,4.646447Q16.38209,4.681269,16.40945,4.722215Q16.43681,4.763161,16.45565,4.808658Q16.4745,4.854155,16.48411,4.9024549Q16.49371,4.9507543,16.49371,5Q16.49371,5.0492457,16.48411,5.0975451Q16.4745,5.145845,16.45565,5.191342Q16.43681,5.236839,16.40945,5.277785Q16.38209,5.318731,16.34727,5.353553Q16.31244,5.388375,16.2715,5.415735Q16.23055,5.443094,16.18505,5.46194Q16.13956,5.480785,16.09126,5.490393Q16.04296,5.5,15.993713,5.5L15,5.5Q14.9507543,5.5,14.9024549,5.490393Q14.854155,5.480785,14.808658,5.46194Q14.763161,5.443094,14.722215,5.415735Q14.681269,5.388375,14.646447,5.353553Q14.611625,5.318731,14.584265,5.277785Q14.556906,5.236839,14.53806,5.191342Q14.519214999999999,5.145845,14.509607,5.0975451Q14.5,5.0492457,14.5,5Q14.5,4.9507543,14.509607,4.9024549Q14.519214999999999,4.854155,14.53806,4.808658Q14.556906,4.763161,14.584265,4.722215Q14.611625,4.681269,14.646447,4.646447Q14.681269,4.611625,14.722215,4.584265Q14.763161,4.556906,14.808658,4.53806Q14.854155,4.519215,14.9024549,4.509607Q14.9507543,4.5,15,4.5ZM19.968510000000002,5.5L21.9559,5.5Q22.00515,5.5,22.053449999999998,5.490393Q22.10175,5.480785,22.14724,5.46194Q22.19274,5.443094,22.23369,5.415735Q22.274630000000002,5.388375,22.30946,5.353553Q22.34428,5.318731,22.37164,5.277785Q22.399,5.236839,22.417839999999998,5.191342Q22.43669,5.145845,22.44629,5.0975451Q22.4559,5.0492457,22.4559,5Q22.4559,4.9507543,22.44629,4.9024549Q22.43669,4.854155,22.417839999999998,4.808658Q22.399,4.763161,22.37164,4.722215Q22.34428,4.681269,22.30946,4.646447Q22.274630000000002,4.611625,22.23369,4.584265Q22.19274,4.556906,22.14724,4.53806Q22.10175,4.519215,22.053449999999998,4.509607Q22.00515,4.5,21.9559,4.5L19.968510000000002,4.5Q19.91926,4.5,19.87096,4.509607Q19.82266,4.519215,19.777160000000002,4.53806Q19.73167,4.556906,19.69072,4.584265Q19.64977,4.611625,19.61495,4.646447Q19.58013,4.681269,19.55277,4.722215Q19.52541,4.763161,19.50657,4.808658Q19.48772,4.854155,19.47811,4.9024549Q19.468510000000002,4.9507543,19.468510000000002,5Q19.468510000000002,5.0492457,19.47811,5.0975451Q19.48772,5.145845,19.50657,5.191342Q19.52541,5.236839,19.55277,5.277785Q19.58013,5.318731,19.61495,5.353553Q19.64977,5.388375,19.69072,5.415735Q19.73167,5.443094,19.777160000000002,5.46194Q19.82266,5.480785,19.87096,5.490393Q19.91926,5.5,19.968510000000002,5.5ZM25.9307,5.5L27.918100000000003,5.5Q27.9673,5.5,28.0156,5.490393Q28.0639,5.480785,28.1094,5.46194Q28.154899999999998,5.443094,28.1959,5.415735Q28.236800000000002,5.388375,28.2716,5.353553Q28.3065,5.318731,28.3338,5.277785Q28.3612,5.236839,28.380000000000003,5.191342Q28.398899999999998,5.145845,28.4085,5.0975451Q28.418100000000003,5.0492457,28.418100000000003,5Q28.418100000000003,4.9507543,28.4085,4.9024549Q28.398899999999998,4.854155,28.380000000000003,4.808658Q28.3612,4.763161,28.3338,4.722215Q28.3065,4.681269,28.2716,4.646447Q28.236800000000002,4.611625,28.1959,4.584265Q28.154899999999998,4.556906,28.1094,4.53806Q28.0639,4.519215,28.0156,4.509607Q27.9673,4.5,27.918100000000003,4.5L25.9307,4.5Q25.8814,4.5,25.8331,4.509607Q25.7848,4.519215,25.7394,4.53806Q25.6939,4.556906,25.652900000000002,4.584265Q25.612000000000002,4.611625,25.5771,4.646447Q25.542299999999997,4.681269,25.515,4.722215Q25.4876,4.763161,25.4688,4.808658Q25.4499,4.854155,25.4403,4.9024549Q25.4307,4.9507543,25.4307,5Q25.4307,5.0492457,25.4403,5.0975451Q25.4499,5.145845,25.4688,5.191342Q25.4876,5.236839,25.515,5.277785Q25.542299999999997,5.318731,25.5771,5.353553Q25.612000000000002,5.388375,25.652900000000002,5.415735Q25.6939,5.443094,25.7394,5.46194Q25.7848,5.480785,25.8331,5.490393Q25.8814,5.5,25.9307,5.5ZM31.8929,5.5L33.8803,5.5Q33.9296,5.5,33.977900000000005,5.490393Q34.0262,5.480785,34.071600000000004,5.46194Q34.1171,5.443094,34.158100000000005,5.415735Q34.199,5.388375,34.2339,5.353553Q34.268699999999995,5.318731,34.296,5.277785Q34.3234,5.236839,34.3422,5.191342Q34.3611,5.145845,34.3707,5.0975451Q34.3803,5.0492457,34.3803,5Q34.3803,4.9507543,34.3707,4.9024549Q34.3611,4.854155,34.3422,4.808658Q34.3234,4.763161,34.296,4.722215Q34.268699999999995,4.681269,34.2339,4.646447Q34.199,4.611625,34.158100000000005,4.584265Q34.1171,4.556906,34.071600000000004,4.53806Q34.0262,4.519215,33.977900000000005,4.509607Q33.9296,4.5,33.8803,4.5L31.8929,4.5Q31.8437,4.5,31.7954,4.509607Q31.7471,4.519215,31.7016,4.53806Q31.6561,4.556906,31.6151,4.584265Q31.5742,4.611625,31.5394,4.646447Q31.5045,4.681269,31.4772,4.722215Q31.4498,4.763161,31.431,4.808658Q31.4121,4.854155,31.4025,4.9024549Q31.3929,4.9507543,31.3929,5Q31.3929,5.0492457,31.4025,5.0975451Q31.4121,5.145845,31.431,5.191342Q31.4498,5.236839,31.4772,5.277785Q31.5045,5.318731,31.5394,5.353553Q31.5742,5.388375,31.6151,5.415735Q31.6561,5.443094,31.7016,5.46194Q31.7471,5.480785,31.7954,5.490393Q31.8437,5.5,31.8929,5.5ZM37.8551,5.5L39.8425,5.5Q39.8917,5.5,39.94,5.490393Q39.988299999999995,5.480785,40.0338,5.46194Q40.0793,5.443094,40.1203,5.415735Q40.1612,5.388375,40.1961,5.353553Q40.2309,5.318731,40.2582,5.277785Q40.2856,5.236839,40.3044,5.191342Q40.3233,5.145845,40.332899999999995,5.0975451Q40.3425,5.0492457,40.3425,5Q40.3425,4.9507543,40.332899999999995,4.9024549Q40.3233,4.854155,40.3044,4.808658Q40.2856,4.763161,40.2582,4.722215Q40.2309,4.681269,40.1961,4.646447Q40.1612,4.611625,40.1203,4.584265Q40.0793,4.556906,40.0338,4.53806Q39.988299999999995,4.519215,39.94,4.509607Q39.8917,4.5,39.8425,4.5L37.8551,4.5Q37.8059,4.5,37.7576,4.509607Q37.7093,4.519215,37.663799999999995,4.53806Q37.618300000000005,4.556906,37.5773,4.584265Q37.5364,4.611625,37.5015,4.646447Q37.4667,4.681269,37.4394,4.722215Q37.412,4.763161,37.3932,4.808658Q37.374300000000005,4.854155,37.3647,4.9024549Q37.3551,4.9507543,37.3551,5Q37.3551,5.0492457,37.3647,5.0975451Q37.374300000000005,5.145845,37.3932,5.191342Q37.412,5.236839,37.4394,5.277785Q37.4667,5.318731,37.5015,5.353553Q37.5364,5.388375,37.5773,5.415735Q37.618300000000005,5.443094,37.663799999999995,5.46194Q37.7093,5.480785,37.7576,5.490393Q37.8059,5.5,37.8551,5.5ZM43.8173,5.5L45.8047,5.5Q45.853899999999996,5.5,45.9022,5.490393Q45.950500000000005,5.480785,45.995999999999995,5.46194Q46.0415,5.443094,46.082499999999996,5.415735Q46.123400000000004,5.388375,46.1582,5.353553Q46.1931,5.318731,46.2204,5.277785Q46.2478,5.236839,46.2666,5.191342Q46.2855,5.145845,46.295100000000005,5.0975451Q46.3047,5.0492457,46.3047,5Q46.3047,4.9507543,46.295100000000005,4.9024549Q46.2855,4.854155,46.2666,4.808658Q46.2478,4.763161,46.2204,4.722215Q46.1931,4.681269,46.1582,4.646447Q46.123400000000004,4.611625,46.082499999999996,4.584265Q46.0415,4.556906,45.995999999999995,4.53806Q45.950500000000005,4.519215,45.9022,4.509607Q45.853899999999996,4.5,45.8047,4.5L43.8173,4.5Q43.768,4.5,43.7197,4.509607Q43.6714,4.519215,43.6259,4.53806Q43.5804,4.556906,43.539500000000004,4.584265Q43.498599999999996,4.611625,43.4637,4.646447Q43.4289,4.681269,43.4016,4.722215Q43.3742,4.763161,43.3553,4.808658Q43.3365,4.854155,43.326899999999995,4.9024549Q43.3173,4.9507543,43.3173,5Q43.3173,5.0492457,43.326899999999995,5.0975451Q43.3365,5.145845,43.3553,5.191342Q43.3742,5.236839,43.4016,5.277785Q43.4289,5.318731,43.4637,5.353553Q43.498599999999996,5.388375,43.539500000000004,5.415735Q43.5804,5.443094,43.6259,5.46194Q43.6714,5.480785,43.7197,5.490393Q43.768,5.5,43.8173,5.5ZM49.7795,5.5L51.7669,5.5Q51.8162,5.5,51.8644,5.490393Q51.9127,5.480785,51.9582,5.46194Q52.0037,5.443094,52.0447,5.415735Q52.0856,5.388375,52.1205,5.353553Q52.1553,5.318731,52.1826,5.277785Q52.21,5.236839,52.2288,5.191342Q52.2477,5.145845,52.2573,5.0975451Q52.2669,5.0492457,52.2669,5Q52.2669,4.9507543,52.2573,4.9024549Q52.2477,4.854155,52.2288,4.808658Q52.21,4.763161,52.1826,4.722215Q52.1553,4.681269,52.1205,4.646447Q52.0856,4.611625,52.0447,4.584265Q52.0037,4.556906,51.9582,4.53806Q51.9127,4.519215,51.8644,4.509607Q51.8162,4.5,51.7669,4.5L49.7795,4.5Q49.7302,4.5,49.6819,4.509607Q49.6336,4.519215,49.5881,4.53806Q49.5426,4.556906,49.5017,4.584265Q49.4607,4.611625,49.4259,4.646447Q49.3911,4.681269,49.3637,4.722215Q49.3364,4.763161,49.3175,4.808658Q49.2987,4.854155,49.2891,4.9024549Q49.2795,4.9507543,49.2795,5Q49.2795,5.0492457,49.2891,5.0975451Q49.2987,5.145845,49.3175,5.191342Q49.3364,5.236839,49.3637,5.277785Q49.3911,5.318731,49.4259,5.353553Q49.4607,5.388375,49.5017,5.415735Q49.5426,5.443094,49.5881,5.46194Q49.6336,5.480785,49.6819,5.490393Q49.7302,5.5,49.7795,5.5ZM55.7417,5.5L57.7291,5.5Q57.7783,5.5,57.8266,5.490393Q57.8749,5.480785,57.9204,5.46194Q57.9659,5.443094,58.0069,5.415735Q58.0478,5.388375,58.0826,5.353553Q58.1175,5.318731,58.1448,5.277785Q58.1722,5.236839,58.191,5.191342Q58.2099,5.145845,58.2195,5.0975451Q58.2291,5.0492457,58.2291,5Q58.2291,4.9507543,58.2195,4.9024549Q58.2099,4.854155,58.191,4.808658Q58.1722,4.763161,58.1448,4.722215Q58.1175,4.681269,58.0826,4.646447Q58.0478,4.611625,58.0069,4.584265Q57.9659,4.556906,57.9204,4.53806Q57.8749,4.519215,57.8266,4.509607Q57.7783,4.5,57.7291,4.5L55.7417,4.5Q55.6925,4.5,55.6442,4.509607Q55.5959,4.519215,55.5504,4.53806Q55.5049,4.556906,55.4639,4.584265Q55.423,4.611625,55.3881,4.646447Q55.3533,4.681269,55.326,4.722215Q55.2986,4.763161,55.2798,4.808658Q55.2609,4.854155,55.2513,4.9024549Q55.2417,4.9507543,55.2417,5Q55.2417,5.0492457,55.2513,5.0975451Q55.2609,5.145845,55.2798,5.191342Q55.2986,5.236839,55.326,5.277785Q55.3533,5.318731,55.3881,5.353553Q55.423,5.388375,55.4639,5.415735Q55.5049,5.443094,55.5504,5.46194Q55.5959,5.480785,55.6442,5.490393Q55.6925,5.5,55.7417,5.5ZM61.7039,5.5L63.6913,5.5Q63.7405,5.5,63.7888,5.490393Q63.8371,5.480785,63.8826,5.46194Q63.9281,5.443094,63.9691,5.415735Q64.00999999999999,5.388375,64.04480000000001,5.353553Q64.0797,5.318731,64.107,5.277785Q64.1344,5.236839,64.1532,5.191342Q64.1721,5.145845,64.1817,5.0975451Q64.1913,5.0492457,64.1913,5Q64.1913,4.9507543,64.1817,4.9024549Q64.1721,4.854155,64.1532,4.808658Q64.1344,4.763161,64.107,4.722215Q64.0797,4.681269,64.04480000000001,4.646447Q64.00999999999999,4.611625,63.9691,4.584265Q63.9281,4.556906,63.8826,4.53806Q63.8371,4.519215,63.7888,4.509607Q63.7405,4.5,63.6913,4.5L61.7039,4.5Q61.6546,4.5,61.6063,4.509607Q61.558,4.519215,61.5125,4.53806Q61.467,4.556906,61.4261,4.584265Q61.3852,4.611625,61.3503,4.646447Q61.3155,4.681269,61.2881,4.722215Q61.2608,4.763161,61.2419,4.808658Q61.2231,4.854155,61.2135,4.9024549Q61.2039,4.9507543,61.2039,5Q61.2039,5.0492457,61.2135,5.0975451Q61.2231,5.145845,61.2419,5.191342Q61.2608,5.236839,61.2881,5.277785Q61.3155,5.318731,61.3503,5.353553Q61.3852,5.388375,61.4261,5.415735Q61.467,5.443094,61.5125,5.46194Q61.558,5.480785,61.6063,5.490393Q61.6546,5.5,61.7039,5.5ZM67.6661,5.5L69.65350000000001,5.5Q69.7027,5.5,69.751,5.490393Q69.7993,5.480785,69.84479999999999,5.46194Q69.8903,5.443094,69.9313,5.415735Q69.9722,5.388375,70.007,5.353553Q70.0419,5.318731,70.0692,5.277785Q70.0966,5.236839,70.1154,5.191342Q70.1343,5.145845,70.1439,5.0975451Q70.15350000000001,5.0492457,70.15350000000001,5Q70.15350000000001,4.9507543,70.1439,4.9024549Q70.1343,4.854155,70.1154,4.808658Q70.0966,4.763161,70.0692,4.722215Q70.0419,4.681269,70.007,4.646447Q69.9722,4.611625,69.9313,4.584265Q69.8903,4.556906,69.84479999999999,4.53806Q69.7993,4.519215,69.751,4.509607Q69.7027,4.5,69.65350000000001,4.5L67.6661,4.5Q67.6168,4.5,67.5685,4.509607Q67.5202,4.519215,67.4747,4.53806Q67.42920000000001,4.556906,67.3883,4.584265Q67.34729999999999,4.611625,67.3125,4.646447Q67.27770000000001,4.681269,67.25030000000001,4.722215Q67.223,4.763161,67.2041,4.808658Q67.1853,4.854155,67.1757,4.9024549Q67.1661,4.9507543,67.1661,5Q67.1661,5.0492457,67.1757,5.0975451Q67.1853,5.145845,67.2041,5.191342Q67.223,5.236839,67.25030000000001,5.277785Q67.27770000000001,5.318731,67.3125,5.353553Q67.34729999999999,5.388375,67.3883,5.415735Q67.42920000000001,5.443094,67.4747,5.46194Q67.5202,5.480785,67.5685,5.490393Q67.6168,5.5,67.6661,5.5ZM73.6283,5.5L75.6157,5.5Q75.6649,5.5,75.7132,5.490393Q75.7615,5.480785,75.807,5.46194Q75.85249999999999,5.443094,75.8935,5.415735Q75.9344,5.388375,75.9692,5.353553Q76.00399999999999,5.318731,76.03139999999999,5.277785Q76.05879999999999,5.236839,76.07759999999999,5.191342Q76.09649999999999,5.145845,76.1061,5.0975451Q76.1157,5.0492457,76.1157,5Q76.1157,4.9507543,76.1061,4.9024549Q76.09649999999999,4.854155,76.07759999999999,4.808658Q76.05879999999999,4.763161,76.03139999999999,4.722215Q76.00399999999999,4.681269,75.9692,4.646447Q75.9344,4.611625,75.8935,4.584265Q75.85249999999999,4.556906,75.807,4.53806Q75.7615,4.519215,75.7132,4.509607Q75.6649,4.5,75.6157,4.5L73.6283,4.5Q73.57900000000001,4.5,73.5307,4.509607Q73.4824,4.519215,73.43690000000001,4.53806Q73.3914,4.556906,73.3505,4.584265Q73.3096,4.611625,73.2747,4.646447Q73.2399,4.681269,73.21260000000001,4.722215Q73.18520000000001,4.763161,73.16640000000001,4.808658Q73.14750000000001,4.854155,73.1379,4.9024549Q73.1283,4.9507543,73.1283,5Q73.1283,5.0492457,73.1379,5.0975451Q73.14750000000001,5.145845,73.1663,5.191342Q73.18520000000001,5.236839,73.21260000000001,5.277785Q73.2399,5.318731,73.2747,5.353553Q73.3096,5.388375,73.3505,5.415735Q73.3914,5.443094,73.43690000000001,5.46194Q73.4824,5.480785,73.5307,5.490393Q73.57900000000001,5.5,73.6283,5.5ZM79.5905,5.5L81.5779,5.5Q81.6271,5.5,81.6754,5.490393Q81.7237,5.480785,81.7692,5.46194Q81.8147,5.443094,81.8557,5.415735Q81.8966,5.388375,81.9314,5.353553Q81.9663,5.318731,81.9936,5.277785Q82.021,5.236839,82.0398,5.191342Q82.0587,5.145845,82.0683,5.0975451Q82.0779,5.0492457,82.0779,5Q82.0779,4.9507543,82.0683,4.9024549Q82.0587,4.854155,82.0398,4.808658Q82.021,4.763161,81.9936,4.722215Q81.9663,4.681269,81.9314,4.646447Q81.8966,4.611625,81.8557,4.584265Q81.8147,4.556906,81.7692,4.53806Q81.7237,4.519215,81.6754,4.509607Q81.6271,4.5,81.5779,4.5L79.5905,4.5Q79.5412,4.5,79.4929,4.509607Q79.4446,4.519215,79.3991,4.53806Q79.3536,4.556906,79.3127,4.584265Q79.2717,4.611625,79.2369,4.646447Q79.2021,4.681269,79.1747,4.722215Q79.1474,4.763161,79.1285,4.808658Q79.1097,4.854155,79.1001,4.9024549Q79.0905,4.9507543,79.0905,5Q79.0905,5.0492457,79.1001,5.0975451Q79.1097,5.145845,79.1285,5.191342Q79.1474,5.236839,79.1747,5.277785Q79.2021,5.318731,79.2369,5.353553Q79.2717,5.388375,79.3127,5.415735Q79.3536,5.443094,79.3991,5.46194Q79.4446,5.480785,79.4929,5.490393Q79.5412,5.5,79.5905,5.5ZM85.5527,5.5L87.5401,5.5Q87.5893,5.5,87.6376,5.490393Q87.6859,5.480785,87.7314,5.46194Q87.7769,5.443094,87.8179,5.415735Q87.8588,5.388375,87.8936,5.353553Q87.9284,5.318731,87.9558,5.277785Q87.9832,5.236839,88.002,5.191342Q88.0209,5.145845,88.0305,5.0975451Q88.0401,5.0492457,88.0401,5Q88.0401,4.9507543,88.0305,4.9024549Q88.0209,4.854155,88.002,4.808658Q87.9832,4.763161,87.9558,4.722215Q87.9284,4.681269,87.8936,4.646447Q87.8588,4.611625,87.8179,4.584265Q87.7769,4.556906,87.7314,4.53806Q87.6859,4.519215,87.6376,4.509607Q87.5893,4.5,87.5401,4.5L85.5527,4.5Q85.5034,4.5,85.4551,4.509607Q85.4068,4.519215,85.3613,4.53806Q85.3158,4.556906,85.2749,4.584265Q85.2339,4.611625,85.1991,4.646447Q85.1643,4.681269,85.1369,4.722215Q85.1096,4.763161,85.0907,4.808658Q85.0719,4.854155,85.0623,4.9024549Q85.0527,4.9507543,85.0527,5Q85.0527,5.0492457,85.0623,5.0975451Q85.0719,5.145845,85.0907,5.191342Q85.1096,5.236839,85.1369,5.277785Q85.1643,5.318731,85.1991,5.353553Q85.2339,5.388375,85.2749,5.415735Q85.3158,5.443094,85.3613,5.46194Q85.4068,5.480785,85.4551,5.490393Q85.5034,5.5,85.5527,5.5ZM91.5149,5.5L93.5023,5.5Q93.5515,5.5,93.5998,5.490393Q93.6481,5.480785,93.6936,5.46194Q93.7391,5.443094,93.7801,5.415735Q93.821,5.388375,93.8558,5.353553Q93.8906,5.318731,93.918,5.277785Q93.9454,5.236839,93.9642,5.191342Q93.983,5.145845,93.9927,5.0975451Q94.0023,5.0492457,94.0023,5Q94.0023,4.9507543,93.9927,4.9024549Q93.983,4.854155,93.9642,4.808658Q93.9454,4.763161,93.918,4.722215Q93.8906,4.681269,93.8558,4.646447Q93.821,4.611625,93.7801,4.584265Q93.7391,4.556906,93.6936,4.53806Q93.6481,4.519215,93.5998,4.509607Q93.5515,4.5,93.5023,4.5L91.5149,4.5Q91.4656,4.5,91.4173,4.509607Q91.369,4.519215,91.3235,4.53806Q91.278,4.556906,91.2371,4.584265Q91.1961,4.611625,91.1613,4.646447Q91.1265,4.681269,91.0991,4.722215Q91.0718,4.763161,91.0529,4.808658Q91.0341,4.854155,91.0245,4.9024549Q91.0149,4.9507543,91.0149,5Q91.0149,5.0492457,91.0245,5.0975451Q91.0341,5.145845,91.0529,5.191342Q91.0718,5.236839,91.0991,5.277785Q91.1265,5.318731,91.1613,5.353553Q91.1961,5.388375,91.2371,5.415735Q91.278,5.443094,91.3235,5.46194Q91.369,5.480785,91.4173,5.490393Q91.4656,5.5,91.5149,5.5ZM97.4771,5.5L99.4645,5.5Q99.5137,5.5,99.562,5.490393Q99.6103,5.480785,99.6558,5.46194Q99.7013,5.443094,99.7422,5.415735Q99.7832,5.388375,99.818,5.353553Q99.8528,5.318731,99.8802,5.277785Q99.9076,5.236839,99.9264,5.191342Q99.9453,5.145845,99.9549,5.0975451Q99.9645,5.0492457,99.9645,5Q99.9645,4.9507543,99.9549,4.9024549Q99.9453,4.854155,99.9264,4.808658Q99.9076,4.763161,99.8802,4.722215Q99.8528,4.681269,99.818,4.646447Q99.7832,4.611625,99.7422,4.584265Q99.7013,4.556906,99.6558,4.53806Q99.6103,4.519215,99.562,4.509607Q99.5137,4.5,99.4645,4.5L97.4771,4.5Q97.4278,4.5,97.3795,4.509607Q97.3312,4.519215,97.2857,4.53806Q97.2402,4.556906,97.1993,4.584265Q97.1583,4.611625,97.1235,4.646447Q97.0887,4.681269,97.0613,4.722215Q97.034,4.763161,97.0151,4.808658Q96.9963,4.854155,96.9867,4.9024549Q96.9771,4.9507543,96.9771,5Q96.9771,5.0492457,96.9867,5.0975451Q96.9963,5.145845,97.0151,5.191342Q97.034,5.236839,97.0613,5.277785Q97.0887,5.318731,97.1235,5.353553Q97.1583,5.388375,97.1993,5.415735Q97.2402,5.443094,97.2857,5.46194Q97.3312,5.480785,97.3795,5.490393Q97.4278,5.5,97.4771,5.5ZM103.4393,5.5L105.4267,5.5Q105.4759,5.5,105.5242,5.490393Q105.5725,5.480785,105.618,5.46194Q105.6635,5.443094,105.7045,5.415735Q105.7454,5.388375,105.7802,5.353553Q105.815,5.318731,105.8424,5.277785Q105.8698,5.236839,105.8886,5.191342Q105.9075,5.145845,105.9171,5.0975451Q105.9267,5.0492457,105.9267,5Q105.9267,4.9507543,105.9171,4.9024549Q105.9075,4.854155,105.8886,4.808658Q105.8698,4.763161,105.8424,4.722215Q105.815,4.681269,105.7802,4.646447Q105.7454,4.611625,105.7045,4.584265Q105.6635,4.556906,105.618,4.53806Q105.5725,4.519215,105.5242,4.509607Q105.4759,4.5,105.4267,4.5L103.4393,4.5Q103.39,4.5,103.3417,4.509607Q103.2934,4.519215,103.2479,4.53806Q103.2024,4.556906,103.1615,4.584265Q103.1205,4.611625,103.0857,4.646447Q103.0509,4.681269,103.0235,4.722215Q102.9962,4.763161,102.9773,4.808658Q102.9585,4.854155,102.9489,4.9024549Q102.9393,4.9507543,102.9393,5Q102.9393,5.0492457,102.9489,5.0975451Q102.9585,5.145845,102.9773,5.191342Q102.9962,5.236839,103.0235,5.277785Q103.0509,5.318731,103.0857,5.353553Q103.1205,5.388375,103.1615,5.415735Q103.2024,5.443094,103.2479,5.46194Q103.2934,5.480785,103.3417,5.490393Q103.39,5.5,103.4393,5.5ZM109.4015,5.5L111.3889,5.5Q111.4381,5.5,111.4864,5.490393Q111.5347,5.480785,111.5802,5.46194Q111.6257,5.443094,111.6666,5.415735Q111.7076,5.388375,111.7424,5.353553Q111.7772,5.318731,111.8046,5.277785Q111.8319,5.236839,111.8508,5.191342Q111.8696,5.145845,111.8792,5.0975451Q111.8889,5.0492457,111.8889,5Q111.8889,4.9507543,111.8792,4.9024549Q111.8696,4.854155,111.8508,4.808658Q111.8319,4.763161,111.8046,4.722215Q111.7772,4.681269,111.7424,4.646447Q111.7076,4.611625,111.6666,4.584265Q111.6257,4.556906,111.5802,4.53806Q111.5347,4.519215,111.4864,4.509607Q111.4381,4.5,111.3889,4.5L109.4015,4.5Q109.3522,4.5,109.3039,4.509607Q109.2556,4.519215,109.2101,4.53806Q109.1646,4.556906,109.1237,4.584265Q109.0827,4.611625,109.0479,4.646447Q109.0131,4.681269,108.9857,4.722215Q108.9584,4.763161,108.9395,4.808658Q108.9207,4.854155,108.9111,4.9024549Q108.9015,4.9507543,108.9015,5Q108.9015,5.0492457,108.9111,5.0975451Q108.9207,5.145845,108.9395,5.191342Q108.9584,5.236839,108.9857,5.277785Q109.0131,5.318731,109.0479,5.353553Q109.0827,5.388375,109.1237,5.415735Q109.1646,5.443094,109.2101,5.46194Q109.2556,5.480785,109.3039,5.490393Q109.3522,5.5,109.4015,5.5ZM115.364,5.5L117.351,5.5Q117.4,5.5,117.449,5.490393Q117.497,5.480785,117.542,5.46194Q117.588,5.443094,117.629,5.415735Q117.67,5.388375,117.705,5.353553Q117.739,5.318731,117.767,5.277785Q117.794,5.236839,117.813,5.191342Q117.832,5.145845,117.841,5.0975451Q117.851,5.0492457,117.851,5Q117.851,4.9507543,117.841,4.9024549Q117.832,4.854155,117.813,4.808658Q117.794,4.763161,117.767,4.722215Q117.739,4.681269,117.705,4.646447Q117.67,4.611625,117.629,4.584265Q117.588,4.556906,117.542,4.53806Q117.497,4.519215,117.449,4.509607Q117.4,4.5,117.351,4.5L115.364,4.5Q115.314,4.5,115.266,4.509607Q115.218,4.519215,115.172,4.53806Q115.127,4.556906,115.086,4.584265Q115.045,4.611625,115.01,4.646447Q114.9753,4.681269,114.9479,4.722215Q114.9206,4.763161,114.9017,4.808658Q114.8829,4.854155,114.8733,4.9024549Q114.8637,4.9507543,114.8637,5Q114.8637,5.0492457,114.8733,5.0975451Q114.8829,5.145845,114.9017,5.191342Q114.9206,5.236839,114.9479,5.277785Q114.9753,5.318731,115.01,5.353553Q115.045,5.388375,115.086,5.415735Q115.127,5.443094,115.172,5.46194Q115.218,5.480785,115.266,5.490393Q115.314,5.5,115.364,5.5ZM121.326,5.5L123.313,5.5Q123.363,5.5,123.411,5.490393Q123.459,5.480785,123.505,5.46194Q123.55,5.443094,123.591,5.415735Q123.632,5.388375,123.667,5.353553Q123.702,5.318731,123.729,5.277785Q123.756,5.236839,123.775,5.191342Q123.794,5.145845,123.804,5.0975451Q123.813,5.0492457,123.813,5Q123.813,4.9507543,123.804,4.9024549Q123.794,4.854155,123.775,4.808658Q123.756,4.763161,123.729,4.722215Q123.702,4.681269,123.667,4.646447Q123.632,4.611625,123.591,4.584265Q123.55,4.556906,123.505,4.53806Q123.459,4.519215,123.411,4.509607Q123.363,4.5,123.313,4.5L121.326,4.5Q121.277,4.5,121.228,4.509607Q121.18,4.519215,121.135,4.53806Q121.089,4.556906,121.048,4.584265Q121.007,4.611625,120.972,4.646447Q120.937,4.681269,120.91,4.722215Q120.883,4.763161,120.864,4.808658Q120.845,4.854155,120.835,4.9024549Q120.826,4.9507543,120.826,5Q120.826,5.0492457,120.835,5.0975451Q120.845,5.145845,120.864,5.191342Q120.883,5.236839,120.91,5.277785Q120.937,5.318731,120.972,5.353553Q121.007,5.388375,121.048,5.415735Q121.089,5.443094,121.135,5.46194Q121.18,5.480785,121.228,5.490393Q121.277,5.5,121.326,5.5ZM127.288,5.5L129.275,5.5Q129.325,5.5,129.373,5.490393Q129.421,5.480785,129.46699999999998,5.46194Q129.512,5.443094,129.553,5.415735Q129.594,5.388375,129.62900000000002,5.353553Q129.664,5.318731,129.691,5.277785Q129.719,5.236839,129.737,5.191342Q129.756,5.145845,129.76600000000002,5.0975451Q129.775,5.0492457,129.775,5Q129.775,4.9507543,129.76600000000002,4.9024549Q129.756,4.854155,129.737,4.808658Q129.719,4.763161,129.691,4.722215Q129.664,4.681269,129.62900000000002,4.646447Q129.594,4.611625,129.553,4.584265Q129.512,4.556906,129.46699999999998,4.53806Q129.421,4.519215,129.373,4.509607Q129.325,4.5,129.275,4.5L127.288,4.5Q127.239,4.5,127.191,4.509607Q127.142,4.519215,127.097,4.53806Q127.051,4.556906,127.01,4.584265Q126.969,4.611625,126.935,4.646447Q126.9,4.681269,126.872,4.722215Q126.845,4.763161,126.826,4.808658Q126.807,4.854155,126.798,4.9024549Q126.788,4.9507543,126.788,5Q126.788,5.0492457,126.798,5.0975451Q126.807,5.145845,126.826,5.191342Q126.845,5.236839,126.872,5.277785Q126.9,5.318731,126.935,5.353553Q126.969,5.388375,127.01,5.415735Q127.051,5.443094,127.097,5.46194Q127.142,5.480785,127.191,5.490393Q127.239,5.5,127.288,5.5ZM133.25,5.5L135.238,5.5Q135.287,5.5,135.33499999999998,5.490393Q135.38299999999998,5.480785,135.429,5.46194Q135.474,5.443094,135.515,5.415735Q135.55599999999998,5.388375,135.591,5.353553Q135.626,5.318731,135.65300000000002,5.277785Q135.68099999999998,5.236839,135.7,5.191342Q135.71800000000002,5.145845,135.728,5.0975451Q135.738,5.0492457,135.738,5Q135.738,4.9507543,135.728,4.9024549Q135.71800000000002,4.854155,135.7,4.808658Q135.68099999999998,4.763161,135.65300000000002,4.722215Q135.626,4.681269,135.591,4.646447Q135.55599999999998,4.611625,135.515,4.584265Q135.474,4.556906,135.429,4.53806Q135.38299999999998,4.519215,135.33499999999998,4.509607Q135.287,4.5,135.238,4.5L133.25,4.5Q133.201,4.5,133.15300000000002,4.509607Q133.10399999999998,4.519215,133.059,4.53806Q133.013,4.556906,132.97199999999998,4.584265Q132.93200000000002,4.611625,132.897,4.646447Q132.862,4.681269,132.83499999999998,4.722215Q132.80700000000002,4.763161,132.788,4.808658Q132.769,4.854155,132.76,4.9024549Q132.75,4.9507543,132.75,5Q132.75,5.0492457,132.76,5.0975451Q132.769,5.145845,132.788,5.191342Q132.80700000000002,5.236839,132.83499999999998,5.277785Q132.862,5.318731,132.897,5.353553Q132.93200000000002,5.388375,132.97199999999998,5.415735Q133.013,5.443094,133.059,5.46194Q133.10399999999998,5.480785,133.15300000000002,5.490393Q133.201,5.5,133.25,5.5ZM139.212,5.5L141.2,5.5Q141.249,5.5,141.297,5.490393Q141.346,5.480785,141.39100000000002,5.46194Q141.437,5.443094,141.478,5.415735Q141.519,5.388375,141.553,5.353553Q141.588,5.318731,141.61599999999999,5.277785Q141.643,5.236839,141.662,5.191342Q141.68099999999998,5.145845,141.69,5.0975451Q141.7,5.0492457,141.7,5Q141.7,4.9507543,141.69,4.9024549Q141.68099999999998,4.854155,141.662,4.808658Q141.643,4.763161,141.61599999999999,4.722215Q141.588,4.681269,141.553,4.646447Q141.519,4.611625,141.478,4.584265Q141.437,4.556906,141.39100000000002,4.53806Q141.346,4.519215,141.297,4.509607Q141.249,4.5,141.2,4.5L139.212,4.5Q139.163,4.5,139.115,4.509607Q139.067,4.519215,139.02100000000002,4.53806Q138.976,4.556906,138.935,4.584265Q138.894,4.611625,138.85899999999998,4.646447Q138.824,4.681269,138.797,4.722215Q138.769,4.763161,138.751,4.808658Q138.732,4.854155,138.72199999999998,4.9024549Q138.712,4.9507543,138.712,5Q138.712,5.0492457,138.72199999999998,5.0975451Q138.732,5.145845,138.751,5.191342Q138.769,5.236839,138.797,5.277785Q138.824,5.318731,138.85899999999998,5.353553Q138.894,5.388375,138.935,5.415735Q138.976,5.443094,139.02100000000002,5.46194Q139.067,5.480785,139.115,5.490393Q139.163,5.5,139.212,5.5ZM145.175,5.5L147.162,5.5Q147.211,5.5,147.26,5.490393Q147.308,5.480785,147.353,5.46194Q147.399,5.443094,147.44,5.415735Q147.481,5.388375,147.516,5.353553Q147.55,5.318731,147.578,5.277785Q147.605,5.236839,147.624,5.191342Q147.643,5.145845,147.652,5.0975451Q147.662,5.0492457,147.662,5Q147.662,4.9507543,147.652,4.9024549Q147.643,4.854155,147.624,4.808658Q147.605,4.763161,147.578,4.722215Q147.55,4.681269,147.516,4.646447Q147.481,4.611625,147.44,4.584265Q147.399,4.556906,147.353,4.53806Q147.308,4.519215,147.26,4.509607Q147.211,4.5,147.162,4.5L145.175,4.5Q145.125,4.5,145.077,4.509607Q145.029,4.519215,144.983,4.53806Q144.938,4.556906,144.897,4.584265Q144.856,4.611625,144.821,4.646447Q144.786,4.681269,144.759,4.722215Q144.732,4.763161,144.713,4.808658Q144.694,4.854155,144.684,4.9024549Q144.675,4.9507543,144.675,5Q144.675,5.0492457,144.684,5.0975451Q144.694,5.145845,144.713,5.191342Q144.732,5.236839,144.759,5.277785Q144.786,5.318731,144.821,5.353553Q144.856,5.388375,144.897,5.415735Q144.938,5.443094,144.983,5.46194Q145.029,5.480785,145.077,5.490393Q145.125,5.5,145.175,5.5ZM151.137,5.5L153.124,5.5Q153.173,5.5,153.222,5.490393Q153.27,5.480785,153.316,5.46194Q153.361,5.443094,153.402,5.415735Q153.443,5.388375,153.478,5.353553Q153.513,5.318731,153.54,5.277785Q153.567,5.236839,153.586,5.191342Q153.605,5.145845,153.615,5.0975451Q153.624,5.0492457,153.624,5Q153.624,4.9507543,153.615,4.9024549Q153.605,4.854155,153.586,4.808658Q153.567,4.763161,153.54,4.722215Q153.513,4.681269,153.478,4.646447Q153.443,4.611625,153.402,4.584265Q153.361,4.556906,153.316,4.53806Q153.27,4.519215,153.222,4.509607Q153.173,4.5,153.124,4.5L151.137,4.5Q151.088,4.5,151.039,4.509607Q150.991,4.519215,150.946,4.53806Q150.9,4.556906,150.859,4.584265Q150.818,4.611625,150.783,4.646447Q150.748,4.681269,150.721,4.722215Q150.694,4.763161,150.675,4.808658Q150.656,4.854155,150.646,4.9024549Q150.637,4.9507543,150.637,5Q150.637,5.0492457,150.646,5.0975451Q150.656,5.145845,150.675,5.191342Q150.694,5.236839,150.721,5.277785Q150.748,5.318731,150.783,5.353553Q150.818,5.388375,150.859,5.415735Q150.9,5.443094,150.946,5.46194Q150.991,5.480785,151.039,5.490393Q151.088,5.5,151.137,5.5ZM157.099,5.5L159.086,5.5Q159.136,5.5,159.184,5.490393Q159.232,5.480785,159.278,5.46194Q159.323,5.443094,159.364,5.415735Q159.405,5.388375,159.44,5.353553Q159.475,5.318731,159.502,5.277785Q159.53,5.236839,159.548,5.191342Q159.567,5.145845,159.577,5.0975451Q159.586,5.0492457,159.586,5Q159.586,4.9507543,159.577,4.9024549Q159.567,4.854155,159.548,4.808658Q159.53,4.763161,159.502,4.722215Q159.475,4.681269,159.44,4.646447Q159.405,4.611625,159.364,4.584265Q159.323,4.556906,159.278,4.53806Q159.232,4.519215,159.184,4.509607Q159.136,4.5,159.086,4.5L157.099,4.5Q157.05,4.5,157.001,4.509607Q156.953,4.519215,156.908,4.53806Q156.862,4.556906,156.821,4.584265Q156.78,4.611625,156.745,4.646447Q156.711,4.681269,156.683,4.722215Q156.656,4.763161,156.637,4.808658Q156.618,4.854155,156.609,4.9024549Q156.599,4.9507543,156.599,5Q156.599,5.0492457,156.609,5.0975451Q156.618,5.145845,156.637,5.191342Q156.656,5.236839,156.683,5.277785Q156.711,5.318731,156.745,5.353553Q156.78,5.388375,156.821,5.415735Q156.862,5.443094,156.908,5.46194Q156.953,5.480785,157.001,5.490393Q157.05,5.5,157.099,5.5ZM163.061,5.5L165.049,5.5Q165.098,5.5,165.146,5.490393Q165.194,5.480785,165.24,5.46194Q165.285,5.443094,165.326,5.415735Q165.367,5.388375,165.402,5.353553Q165.437,5.318731,165.464,5.277785Q165.492,5.236839,165.511,5.191342Q165.529,5.145845,165.539,5.0975451Q165.549,5.0492457,165.549,5Q165.549,4.9507543,165.539,4.9024549Q165.529,4.854155,165.511,4.808658Q165.492,4.763161,165.464,4.722215Q165.437,4.681269,165.402,4.646447Q165.367,4.611625,165.326,4.584265Q165.285,4.556906,165.24,4.53806Q165.194,4.519215,165.146,4.509607Q165.098,4.5,165.049,4.5L163.061,4.5Q163.012,4.5,162.964,4.509607Q162.915,4.519215,162.87,4.53806Q162.824,4.556906,162.783,4.584265Q162.743,4.611625,162.708,4.646447Q162.673,4.681269,162.646,4.722215Q162.618,4.763161,162.599,4.808658Q162.58,4.854155,162.571,4.9024549Q162.561,4.9507543,162.561,5Q162.561,5.0492457,162.571,5.0975451Q162.58,5.145845,162.599,5.191342Q162.618,5.236839,162.646,5.277785Q162.673,5.318731,162.708,5.353553Q162.743,5.388375,162.783,5.415735Q162.824,5.443094,162.87,5.46194Q162.915,5.480785,162.964,5.490393Q163.012,5.5,163.061,5.5ZM169.023,5.5L171.011,5.5Q171.06,5.5,171.108,5.490393Q171.157,5.480785,171.202,5.46194Q171.248,5.443094,171.289,5.415735Q171.33,5.388375,171.364,5.353553Q171.399,5.318731,171.427,5.277785Q171.454,5.236839,171.473,5.191342Q171.492,5.145845,171.501,5.0975451Q171.511,5.0492457,171.511,5Q171.511,4.9507543,171.501,4.9024549Q171.492,4.854155,171.473,4.808658Q171.454,4.763161,171.427,4.722215Q171.399,4.681269,171.364,4.646447Q171.33,4.611625,171.289,4.584265Q171.248,4.556906,171.202,4.53806Q171.157,4.519215,171.108,4.509607Q171.06,4.5,171.011,4.5L169.023,4.5Q168.974,4.5,168.926,4.509607Q168.878,4.519215,168.832,4.53806Q168.787,4.556906,168.746,4.584265Q168.705,4.611625,168.67,4.646447Q168.635,4.681269,168.608,4.722215Q168.58,4.763161,168.561,4.808658Q168.543,4.854155,168.533,4.9024549Q168.523,4.9507543,168.523,5Q168.523,5.0492457,168.533,5.0975451Q168.543,5.145845,168.561,5.191342Q168.58,5.236839,168.608,5.277785Q168.635,5.318731,168.67,5.353553Q168.705,5.388375,168.746,5.415735Q168.787,5.443094,168.832,5.46194Q168.878,5.480785,168.926,5.490393Q168.974,5.5,169.023,5.5ZM174.986,5.5L176.973,5.5Q177.022,5.5,177.071,5.490393Q177.119,5.480785,177.164,5.46194Q177.21,5.443094,177.251,5.415735Q177.292,5.388375,177.327,5.353553Q177.361,5.318731,177.389,5.277785Q177.416,5.236839,177.435,5.191342Q177.454,5.145845,177.463,5.0975451Q177.473,5.0492457,177.473,5Q177.473,4.9507543,177.463,4.9024549Q177.454,4.854155,177.435,4.808658Q177.416,4.763161,177.389,4.722215Q177.361,4.681269,177.327,4.646447Q177.292,4.611625,177.251,4.584265Q177.21,4.556906,177.164,4.53806Q177.119,4.519215,177.071,4.509607Q177.022,4.5,176.973,4.5L174.986,4.5Q174.936,4.5,174.888,4.509607Q174.84,4.519215,174.794,4.53806Q174.749,4.556906,174.708,4.584265Q174.667,4.611625,174.632,4.646447Q174.597,4.681269,174.57,4.722215Q174.543,4.763161,174.524,4.808658Q174.505,4.854155,174.495,4.9024549Q174.486,4.9507543,174.486,5Q174.486,5.0492457,174.495,5.0975451Q174.505,5.145845,174.524,5.191342Q174.543,5.236839,174.57,5.277785Q174.597,5.318731,174.632,5.353553Q174.667,5.388375,174.708,5.415735Q174.749,5.443094,174.794,5.46194Q174.84,5.480785,174.888,5.490393Q174.936,5.5,174.986,5.5ZM180.948,5.5L182.935,5.5Q182.984,5.5,183.033,5.490393Q183.081,5.480785,183.127,5.46194Q183.172,5.443094,183.213,5.415735Q183.254,5.388375,183.289,5.353553Q183.324,5.318731,183.351,5.277785Q183.378,5.236839,183.397,5.191342Q183.416,5.145845,183.426,5.0975451Q183.435,5.0492457,183.435,5Q183.435,4.9507543,183.426,4.9024549Q183.416,4.854155,183.397,4.808658Q183.378,4.763161,183.351,4.722215Q183.324,4.681269,183.289,4.646447Q183.254,4.611625,183.213,4.584265Q183.172,4.556906,183.127,4.53806Q183.081,4.519215,183.033,4.509607Q182.984,4.5,182.935,4.5L180.948,4.5Q180.899,4.5,180.85,4.509607Q180.802,4.519215,180.756,4.53806Q180.711,4.556906,180.67,4.584265Q180.629,4.611625,180.594,4.646447Q180.559,4.681269,180.532,4.722215Q180.505,4.763161,180.486,4.808658Q180.467,4.854155,180.457,4.9024549Q180.448,4.9507543,180.448,5Q180.448,5.0492457,180.457,5.0975451Q180.467,5.145845,180.486,5.191342Q180.505,5.236839,180.532,5.277785Q180.559,5.318731,180.594,5.353553Q180.629,5.388375,180.67,5.415735Q180.711,5.443094,180.756,5.46194Q180.802,5.480785,180.85,5.490393Q180.899,5.5,180.948,5.5ZM186.91,5.5L188.897,5.5Q188.947,5.5,188.995,5.490393Q189.043,5.480785,189.089,5.46194Q189.134,5.443094,189.175,5.415735Q189.216,5.388375,189.251,5.353553Q189.286,5.318731,189.313,5.277785Q189.34,5.236839,189.359,5.191342Q189.378,5.145845,189.388,5.0975451Q189.397,5.0492457,189.397,5Q189.397,4.9507543,189.388,4.9024549Q189.378,4.854155,189.359,4.808658Q189.34,4.763161,189.313,4.722215Q189.286,4.681269,189.251,4.646447Q189.216,4.611625,189.175,4.584265Q189.134,4.556906,189.089,4.53806Q189.043,4.519215,188.995,4.509607Q188.947,4.5,188.897,4.5L186.91,4.5Q186.861,4.5,186.812,4.509607Q186.764,4.519215,186.719,4.53806Q186.673,4.556906,186.632,4.584265Q186.591,4.611625,186.556,4.646447Q186.522,4.681269,186.494,4.722215Q186.467,4.763161,186.448,4.808658Q186.429,4.854155,186.42,4.9024549Q186.41,4.9507543,186.41,5Q186.41,5.0492457,186.42,5.0975451Q186.429,5.145845,186.448,5.191342Q186.467,5.236839,186.494,5.277785Q186.522,5.318731,186.556,5.353553Q186.591,5.388375,186.632,5.415735Q186.673,5.443094,186.719,5.46194Q186.764,5.480785,186.812,5.490393Q186.861,5.5,186.91,5.5ZM192.872,5.5L194.86,5.5Q194.909,5.5,194.957,5.490393Q195.005,5.480785,195.051,5.46194Q195.096,5.443094,195.137,5.415735Q195.178,5.388375,195.213,5.353553Q195.248,5.318731,195.275,5.277785Q195.303,5.236839,195.322,5.191342Q195.34,5.145845,195.35,5.0975451Q195.36,5.0492457,195.36,5Q195.36,4.9507543,195.35,4.9024549Q195.34,4.854155,195.322,4.808658Q195.303,4.763161,195.275,4.722215Q195.248,4.681269,195.213,4.646447Q195.178,4.611625,195.137,4.584265Q195.096,4.556906,195.051,4.53806Q195.005,4.519215,194.957,4.509607Q194.909,4.5,194.86,4.5L192.872,4.5Q192.823,4.5,192.775,4.509607Q192.726,4.519215,192.681,4.53806Q192.635,4.556906,192.594,4.584265Q192.553,4.611625,192.519,4.646447Q192.484,4.681269,192.456,4.722215Q192.429,4.763161,192.41,4.808658Q192.391,4.854155,192.382,4.9024549Q192.372,4.9507543,192.372,5Q192.372,5.0492457,192.382,5.0975451Q192.391,5.145845,192.41,5.191342Q192.429,5.236839,192.456,5.277785Q192.484,5.318731,192.519,5.353553Q192.553,5.388375,192.594,5.415735Q192.635,5.443094,192.681,5.46194Q192.726,5.480785,192.775,5.490393Q192.823,5.5,192.872,5.5ZM198.834,5.5L200.822,5.5Q200.871,5.5,200.919,5.490393Q200.968,5.480785,201.013,5.46194Q201.059,5.443094,201.1,5.415735Q201.141,5.388375,201.175,5.353553Q201.21,5.318731,201.238,5.277785Q201.265,5.236839,201.284,5.191342Q201.303,5.145845,201.312,5.0975451Q201.322,5.0492457,201.322,5Q201.322,4.9507543,201.312,4.9024549Q201.303,4.854155,201.284,4.808658Q201.265,4.763161,201.238,4.722215Q201.21,4.681269,201.175,4.646447Q201.141,4.611625,201.1,4.584265Q201.059,4.556906,201.013,4.53806Q200.968,4.519215,200.919,4.509607Q200.871,4.5,200.822,4.5L198.834,4.5Q198.785,4.5,198.737,4.509607Q198.689,4.519215,198.643,4.53806Q198.598,4.556906,198.557,4.584265Q198.516,4.611625,198.481,4.646447Q198.446,4.681269,198.419,4.722215Q198.391,4.763161,198.372,4.808658Q198.354,4.854155,198.344,4.9024549Q198.334,4.9507543,198.334,5Q198.334,5.0492457,198.344,5.0975451Q198.354,5.145845,198.372,5.191342Q198.391,5.236839,198.419,5.277785Q198.446,5.318731,198.481,5.353553Q198.516,5.388375,198.557,5.415735Q198.598,5.443094,198.643,5.46194Q198.689,5.480785,198.737,5.490393Q198.785,5.5,198.834,5.5ZM204.797,5.5L206.784,5.5Q206.833,5.5,206.882,5.490393Q206.93,5.480785,206.975,5.46194Q207.021,5.443094,207.062,5.415735Q207.103,5.388375,207.138,5.353553Q207.172,5.318731,207.2,5.277785Q207.227,5.236839,207.246,5.191342Q207.265,5.145845,207.274,5.0975451Q207.284,5.0492457,207.284,5Q207.284,4.9507543,207.274,4.9024549Q207.265,4.854155,207.246,4.808658Q207.227,4.763161,207.2,4.722215Q207.172,4.681269,207.138,4.646447Q207.103,4.611625,207.062,4.584265Q207.021,4.556906,206.975,4.53806Q206.93,4.519215,206.882,4.509607Q206.833,4.5,206.784,4.5L204.797,4.5Q204.747,4.5,204.699,4.509607Q204.651,4.519215,204.605,4.53806Q204.56,4.556906,204.519,4.584265Q204.478,4.611625,204.443,4.646447Q204.408,4.681269,204.381,4.722215Q204.354,4.763161,204.335,4.808658Q204.316,4.854155,204.306,4.9024549Q204.297,4.9507543,204.297,5Q204.297,5.0492457,204.306,5.0975451Q204.316,5.145845,204.335,5.191342Q204.354,5.236839,204.381,5.277785Q204.408,5.318731,204.443,5.353553Q204.478,5.388375,204.519,5.415735Q204.56,5.443094,204.605,5.46194Q204.651,5.480785,204.699,5.490393Q204.747,5.5,204.797,5.5ZM210.759,5.5L212.746,5.5Q212.795,5.5,212.844,5.490393Q212.892,5.480785,212.938,5.46194Q212.983,5.443094,213.024,5.415735Q213.065,5.388375,213.1,5.353553Q213.135,5.318731,213.162,5.277785Q213.189,5.236839,213.208,5.191342Q213.227,5.145845,213.237,5.0975451Q213.246,5.0492457,213.246,5Q213.246,4.9507543,213.237,4.9024549Q213.227,4.854155,213.208,4.808658Q213.189,4.763161,213.162,4.722215Q213.135,4.681269,213.1,4.646447Q213.065,4.611625,213.024,4.584265Q212.983,4.556906,212.938,4.53806Q212.892,4.519215,212.844,4.509607Q212.795,4.5,212.746,4.5L210.759,4.5Q210.71,4.5,210.661,4.509607Q210.613,4.519215,210.567,4.53806Q210.522,4.556906,210.481,4.584265Q210.44,4.611625,210.405,4.646447Q210.37,4.681269,210.343,4.722215Q210.316,4.763161,210.297,4.808658Q210.278,4.854155,210.268,4.9024549Q210.259,4.9507543,210.259,5Q210.259,5.0492457,210.268,5.0975451Q210.278,5.145845,210.297,5.191342Q210.316,5.236839,210.343,5.277785Q210.37,5.318731,210.405,5.353553Q210.44,5.388375,210.481,5.415735Q210.522,5.443094,210.567,5.46194Q210.613,5.480785,210.661,5.490393Q210.71,5.5,210.759,5.5ZM216.721,5.5L218.708,5.5Q218.758,5.5,218.806,5.490393Q218.854,5.480785,218.9,5.46194Q218.945,5.443094,218.986,5.415735Q219.027,5.388375,219.062,5.353553Q219.097,5.318731,219.124,5.277785Q219.152,5.236839,219.17,5.191342Q219.189,5.145845,219.199,5.0975451Q219.208,5.0492457,219.208,5Q219.208,4.9507543,219.199,4.9024549Q219.189,4.854155,219.17,4.808658Q219.151,4.763161,219.124,4.722215Q219.097,4.681269,219.062,4.646447Q219.027,4.611625,218.986,4.584265Q218.945,4.556906,218.9,4.53806Q218.854,4.519215,218.806,4.509607Q218.758,4.5,218.708,4.5L216.721,4.5Q216.672,4.5,216.623,4.509607Q216.575,4.519215,216.53,4.53806Q216.484,4.556906,216.443,4.584265Q216.402,4.611625,216.367,4.646447Q216.333,4.681269,216.305,4.722215Q216.278,4.763161,216.259,4.808658Q216.24,4.854155,216.231,4.9024549Q216.221,4.9507543,216.221,5Q216.221,5.0492457,216.231,5.0975451Q216.24,5.145845,216.259,5.191342Q216.278,5.236839,216.305,5.277785Q216.333,5.318731,216.367,5.353553Q216.402,5.388375,216.443,5.415735Q216.484,5.443094,216.53,5.46194Q216.575,5.480785,216.624,5.490393Q216.672,5.5,216.721,5.5ZM222.683,5.5L224.671,5.5Q224.72,5.5,224.768,5.490393Q224.816,5.480785,224.862,5.46194Q224.907,5.443094,224.948,5.415735Q224.989,5.388375,225.024,5.353553Q225.059,5.318731,225.086,5.277785Q225.114,5.236839,225.133,5.191342Q225.151,5.145845,225.161,5.0975451Q225.171,5.0492457,225.171,5Q225.171,4.9507543,225.161,4.9024549Q225.151,4.854155,225.133,4.808658Q225.114,4.763161,225.086,4.722215Q225.059,4.681269,225.024,4.646447Q224.989,4.611625,224.948,4.584265Q224.907,4.556906,224.862,4.53806Q224.816,4.519215,224.768,4.509607Q224.72,4.5,224.671,4.5L222.683,4.5Q222.634,4.5,222.586,4.509607Q222.537,4.519215,222.492,4.53806Q222.446,4.556906,222.405,4.584265Q222.364,4.611625,222.33,4.646447Q222.295,4.681269,222.267,4.722215Q222.24,4.763161,222.221,4.808658Q222.202,4.854155,222.193,4.9024549Q222.183,4.9507543,222.183,5Q222.183,5.0492457,222.193,5.0975451Q222.202,5.145845,222.221,5.191342Q222.24,5.236839,222.267,5.277785Q222.295,5.318731,222.33,5.353553Q222.364,5.388375,222.405,5.415735Q222.446,5.443094,222.492,5.46194Q222.537,5.480785,222.586,5.490393Q222.634,5.5,222.683,5.5ZM228.645,5.5L230.633,5.5Q230.682,5.5,230.73,5.490393Q230.779,5.480785,230.824,5.46194Q230.87,5.443094,230.911,5.415735Q230.952,5.388375,230.986,5.353553Q231.021,5.318731,231.049,5.277785Q231.076,5.236839,231.095,5.191342Q231.114,5.145845,231.123,5.0975451Q231.133,5.0492457,231.133,5Q231.133,4.9507543,231.123,4.9024549Q231.114,4.854155,231.095,4.808658Q231.076,4.763161,231.049,4.722215Q231.021,4.681269,230.986,4.646447Q230.952,4.611625,230.911,4.584265Q230.87,4.556906,230.824,4.53806Q230.779,4.519215,230.73,4.509607Q230.682,4.5,230.633,4.5L228.645,4.5Q228.596,4.5,228.548,4.509607Q228.5,4.519215,228.454,4.53806Q228.409,4.556906,228.368,4.584265Q228.327,4.611625,228.292,4.646447Q228.257,4.681269,228.23,4.722215Q228.202,4.763161,228.183,4.808658Q228.165,4.854155,228.155,4.9024549Q228.145,4.9507543,228.145,5Q228.145,5.0492457,228.155,5.0975451Q228.165,5.145845,228.183,5.191342Q228.202,5.236839,228.23,5.277785Q228.257,5.318731,228.292,5.353553Q228.327,5.388375,228.368,5.415735Q228.409,5.443094,228.454,5.46194Q228.5,5.480785,228.548,5.490393Q228.596,5.5,228.645,5.5ZM234.608,5.5L236.595,5.5Q236.644,5.5,236.693,5.490393Q236.741,5.480785,236.786,5.46194Q236.832,5.443094,236.873,5.415735Q236.914,5.388375,236.949,5.353553Q236.983,5.318731,237.011,5.277785Q237.038,5.236839,237.057,5.191342Q237.076,5.145845,237.085,5.0975451Q237.095,5.0492457,237.095,5Q237.095,4.9507543,237.085,4.9024549Q237.076,4.854155,237.057,4.808658Q237.038,4.763161,237.011,4.722215Q236.983,4.681269,236.949,4.646447Q236.914,4.611625,236.873,4.584265Q236.832,4.556906,236.786,4.53806Q236.741,4.519215,236.693,4.509607Q236.644,4.5,236.595,4.5L234.608,4.5Q234.558,4.5,234.51,4.509607Q234.462,4.519215,234.416,4.53806Q234.371,4.556906,234.33,4.584265Q234.289,4.611625,234.254,4.646447Q234.219,4.681269,234.192,4.722215Q234.165,4.763161,234.146,4.808658Q234.127,4.854155,234.117,4.9024549Q234.108,4.9507543,234.108,5Q234.108,5.0492457,234.117,5.0975451Q234.127,5.145845,234.146,5.191342Q234.165,5.236839,234.192,5.277785Q234.219,5.318731,234.254,5.353553Q234.289,5.388375,234.33,5.415735Q234.371,5.443094,234.416,5.46194Q234.462,5.480785,234.51,5.490393Q234.558,5.5,234.608,5.5ZM240.57,5.5L242.557,5.5Q242.606,5.5,242.655,5.490393Q242.703,5.480785,242.749,5.46194Q242.794,5.443094,242.835,5.415735Q242.876,5.388375,242.911,5.353553Q242.946,5.318731,242.973,5.277785Q243,5.236839,243.019,5.191342Q243.038,5.145845,243.048,5.0975451Q243.057,5.0492457,243.057,5Q243.057,4.9507543,243.048,4.9024549Q243.038,4.854155,243.019,4.808658Q243,4.763161,242.973,4.722215Q242.946,4.681269,242.911,4.646447Q242.876,4.611625,242.835,4.584265Q242.794,4.556906,242.749,4.53806Q242.703,4.519215,242.655,4.509607Q242.606,4.5,242.557,4.5L240.57,4.5Q240.521,4.5,240.472,4.509607Q240.424,4.519215,240.378,4.53806Q240.333,4.556906,240.292,4.584265Q240.251,4.611625,240.216,4.646447Q240.181,4.681269,240.154,4.722215Q240.127,4.763161,240.108,4.808658Q240.089,4.854155,240.079,4.9024549Q240.07,4.9507543,240.07,5Q240.07,5.0492457,240.079,5.0975451Q240.089,5.145845,240.108,5.191342Q240.127,5.236839,240.154,5.277785Q240.181,5.318731,240.216,5.353553Q240.251,5.388375,240.292,5.415735Q240.333,5.443094,240.378,5.46194Q240.424,5.480785,240.472,5.490393Q240.521,5.5,240.57,5.5ZM246.532,5.5L248.519,5.5Q248.569,5.5,248.617,5.490393Q248.665,5.480785,248.711,5.46194Q248.756,5.443094,248.797,5.415735Q248.838,5.388375,248.873,5.353553Q248.908,5.318731,248.935,5.277785Q248.962,5.236839,248.981,5.191342Q249,5.145845,249.01,5.0975451Q249.019,5.0492457,249.019,5Q249.019,4.9507543,249.01,4.9024549Q249,4.854155,248.981,4.808658Q248.962,4.763161,248.935,4.722215Q248.908,4.681269,248.873,4.646447Q248.838,4.611625,248.797,4.584265Q248.756,4.556906,248.711,4.53806Q248.665,4.519215,248.617,4.509607Q248.569,4.5,248.519,4.5L246.532,4.5Q246.483,4.5,246.434,4.509607Q246.386,4.519215,246.341,4.53806Q246.295,4.556906,246.254,4.584265Q246.213,4.611625,246.178,4.646447Q246.144,4.681269,246.116,4.722215Q246.089,4.763161,246.07,4.808658Q246.051,4.854155,246.042,4.9024549Q246.032,4.9507543,246.032,5Q246.032,5.0492457,246.042,5.0975451Q246.051,5.145845,246.07,5.191342Q246.089,5.236839,246.116,5.277785Q246.144,5.318731,246.178,5.353553Q246.213,5.388375,246.254,5.415735Q246.295,5.443094,246.341,5.46194Q246.386,5.480785,246.434,5.490393Q246.483,5.5,246.532,5.5ZM252.494,5.5L254.482,5.5Q254.531,5.5,254.579,5.490393Q254.627,5.480785,254.673,5.46194Q254.718,5.443094,254.759,5.415735Q254.8,5.388375,254.835,5.353553Q254.87,5.318731,254.897,5.277785Q254.925,5.236839,254.944,5.191342Q254.962,5.145845,254.972,5.0975451Q254.982,5.0492457,254.982,5Q254.982,4.9507543,254.972,4.9024549Q254.962,4.854155,254.944,4.808658Q254.925,4.763161,254.897,4.722215Q254.87,4.681269,254.835,4.646447Q254.8,4.611625,254.759,4.584265Q254.718,4.556906,254.673,4.53806Q254.627,4.519215,254.579,4.509607Q254.531,4.5,254.482,4.5L252.494,4.5Q252.445,4.5,252.397,4.509607Q252.348,4.519215,252.303,4.53806Q252.257,4.556906,252.216,4.584265Q252.175,4.611625,252.141,4.646447Q252.106,4.681269,252.078,4.722215Q252.051,4.763161,252.032,4.808658Q252.013,4.854155,252.004,4.9024549Q251.994,4.9507543,251.994,5Q251.994,5.0492457,252.004,5.0975451Q252.013,5.145845,252.032,5.191342Q252.051,5.236839,252.078,5.277785Q252.106,5.318731,252.141,5.353553Q252.175,5.388375,252.216,5.415735Q252.257,5.443094,252.303,5.46194Q252.348,5.480785,252.397,5.490393Q252.445,5.5,252.494,5.5ZM258.456,5.5L260.44399999999996,5.5Q260.493,5.5,260.541,5.490393Q260.59000000000003,5.480785,260.635,5.46194Q260.68100000000004,5.443094,260.722,5.415735Q260.76300000000003,5.388375,260.797,5.353553Q260.832,5.318731,260.86,5.277785Q260.887,5.236839,260.906,5.191342Q260.925,5.145845,260.93399999999997,5.0975451Q260.94399999999996,5.0492457,260.94399999999996,5Q260.94399999999996,4.9507543,260.93399999999997,4.9024549Q260.925,4.854155,260.906,4.808658Q260.887,4.763161,260.86,4.722215Q260.832,4.681269,260.797,4.646447Q260.76300000000003,4.611625,260.722,4.584265Q260.68100000000004,4.556906,260.635,4.53806Q260.59000000000003,4.519215,260.541,4.509607Q260.493,4.5,260.44399999999996,4.5L258.456,4.5Q258.40700000000004,4.5,258.35900000000004,4.509607Q258.31100000000004,4.519215,258.265,4.53806Q258.22,4.556906,258.179,4.584265Q258.13800000000003,4.611625,258.103,4.646447Q258.068,4.681269,258.041,4.722215Q258.01300000000003,4.763161,257.994,4.808658Q257.976,4.854155,257.966,4.9024549Q257.956,4.9507543,257.956,5Q257.956,5.0492457,257.966,5.0975451Q257.976,5.145845,257.994,5.191342Q258.01300000000003,5.236839,258.041,5.277785Q258.068,5.318731,258.103,5.353553Q258.13800000000003,5.388375,258.179,5.415735Q258.22,5.443094,258.265,5.46194Q258.31100000000004,5.480785,258.35900000000004,5.490393Q258.40700000000004,5.5,258.456,5.5ZM264.419,5.5L266.406,5.5Q266.45500000000004,5.5,266.504,5.490393Q266.552,5.480785,266.597,5.46194Q266.64300000000003,5.443094,266.68399999999997,5.415735Q266.725,5.388375,266.76,5.353553Q266.794,5.318731,266.822,5.277785Q266.849,5.236839,266.868,5.191342Q266.887,5.145845,266.89599999999996,5.0975451Q266.906,5.0492457,266.906,5Q266.906,4.9507543,266.89599999999996,4.9024549Q266.887,4.854155,266.868,4.808658Q266.849,4.763161,266.822,4.722215Q266.794,4.681269,266.76,4.646447Q266.725,4.611625,266.68399999999997,4.584265Q266.64300000000003,4.556906,266.597,4.53806Q266.552,4.519215,266.504,4.509607Q266.45500000000004,4.5,266.406,4.5L264.419,4.5Q264.369,4.5,264.321,4.509607Q264.273,4.519215,264.227,4.53806Q264.182,4.556906,264.14099999999996,4.584265Q264.1,4.611625,264.065,4.646447Q264.03,4.681269,264.003,4.722215Q263.975,4.763161,263.957,4.808658Q263.938,4.854155,263.928,4.9024549Q263.919,4.9507543,263.919,5Q263.919,5.0492457,263.928,5.0975451Q263.938,5.145845,263.957,5.191342Q263.975,5.236839,264.003,5.277785Q264.03,5.318731,264.065,5.353553Q264.1,5.388375,264.14099999999996,5.415735Q264.182,5.443094,264.227,5.46194Q264.273,5.480785,264.321,5.490393Q264.369,5.5,264.419,5.5ZM270.381,5.5L272.368,5.5Q272.417,5.5,272.466,5.490393Q272.514,5.480785,272.56,5.46194Q272.605,5.443094,272.646,5.415735Q272.687,5.388375,272.722,5.353553Q272.757,5.318731,272.784,5.277785Q272.811,5.236839,272.83,5.191342Q272.849,5.145845,272.859,5.0975451Q272.868,5.0492457,272.868,5Q272.868,4.9507543,272.859,4.9024549Q272.849,4.854155,272.83,4.808658Q272.811,4.763161,272.784,4.722215Q272.757,4.681269,272.722,4.646447Q272.687,4.611625,272.646,4.584265Q272.605,4.556906,272.56,4.53806Q272.514,4.519215,272.466,4.509607Q272.417,4.5,272.368,4.5L270.381,4.5Q270.332,4.5,270.283,4.509607Q270.235,4.519215,270.18899999999996,4.53806Q270.144,4.556906,270.103,4.584265Q270.062,4.611625,270.027,4.646447Q269.99199999999996,4.681269,269.96500000000003,4.722215Q269.938,4.763161,269.919,4.808658Q269.9,4.854155,269.89,4.9024549Q269.881,4.9507543,269.881,5Q269.881,5.0492457,269.89,5.0975451Q269.9,5.145845,269.919,5.191342Q269.938,5.236839,269.96500000000003,5.277785Q269.99199999999996,5.318731,270.027,5.353553Q270.062,5.388375,270.103,5.415735Q270.144,5.443094,270.18899999999996,5.46194Q270.235,5.480785,270.283,5.490393Q270.332,5.5,270.381,5.5ZM276.343,5.5L278.33,5.5Q278.38,5.5,278.428,5.490393Q278.476,5.480785,278.522,5.46194Q278.567,5.443094,278.608,5.415735Q278.649,5.388375,278.684,5.353553Q278.719,5.318731,278.746,5.277785Q278.773,5.236839,278.792,5.191342Q278.811,5.145845,278.821,5.0975451Q278.83,5.0492457,278.83,5Q278.83,4.9507543,278.821,4.9024549Q278.811,4.854155,278.792,4.808658Q278.773,4.763161,278.746,4.722215Q278.719,4.681269,278.684,4.646447Q278.649,4.611625,278.608,4.584265Q278.567,4.556906,278.522,4.53806Q278.476,4.519215,278.428,4.509607Q278.38,4.5,278.33,4.5L276.343,4.5Q276.294,4.5,276.245,4.509607Q276.197,4.519215,276.152,4.53806Q276.106,4.556906,276.065,4.584265Q276.024,4.611625,275.989,4.646447Q275.955,4.681269,275.927,4.722215Q275.9,4.763161,275.881,4.808658Q275.862,4.854155,275.853,4.9024549Q275.843,4.9507543,275.843,5Q275.843,5.0492457,275.853,5.0975451Q275.862,5.145845,275.881,5.191342Q275.9,5.236839,275.927,5.277785Q275.955,5.318731,275.989,5.353553Q276.024,5.388375,276.065,5.415735Q276.106,5.443094,276.152,5.46194Q276.197,5.480785,276.245,5.490393Q276.294,5.5,276.343,5.5ZM282.305,5.5L284.293,5.5Q284.342,5.5,284.39,5.490393Q284.438,5.480785,284.484,5.46194Q284.529,5.443094,284.57,5.415735Q284.611,5.388375,284.646,5.353553Q284.681,5.318731,284.708,5.277785Q284.736,5.236839,284.755,5.191342Q284.773,5.145845,284.783,5.0975451Q284.793,5.0492457,284.793,5Q284.793,4.9507543,284.783,4.9024549Q284.773,4.854155,284.755,4.808658Q284.736,4.763161,284.708,4.722215Q284.681,4.681269,284.646,4.646447Q284.611,4.611625,284.57,4.584265Q284.529,4.556906,284.484,4.53806Q284.438,4.519215,284.39,4.509607Q284.342,4.5,284.293,4.5L282.305,4.5Q282.256,4.5,282.208,4.509607Q282.159,4.519215,282.114,4.53806Q282.068,4.556906,282.027,4.584265Q281.986,4.611625,281.952,4.646447Q281.917,4.681269,281.889,4.722215Q281.862,4.763161,281.843,4.808658Q281.824,4.854155,281.815,4.9024549Q281.805,4.9507543,281.805,5Q281.805,5.0492457,281.815,5.0975451Q281.824,5.145845,281.843,5.191342Q281.862,5.236839,281.889,5.277785Q281.917,5.318731,281.952,5.353553Q281.986,5.388375,282.027,5.415735Q282.068,5.443094,282.114,5.46194Q282.159,5.480785,282.208,5.490393Q282.256,5.5,282.305,5.5ZM288.267,5.5L290.255,5.5Q290.304,5.5,290.352,5.490393Q290.401,5.480785,290.446,5.46194Q290.492,5.443094,290.533,5.415735Q290.574,5.388375,290.608,5.353553Q290.643,5.318731,290.671,5.277785Q290.698,5.236839,290.717,5.191342Q290.736,5.145845,290.745,5.0975451Q290.755,5.0492457,290.755,5Q290.755,4.9507543,290.745,4.9024549Q290.736,4.854155,290.717,4.808658Q290.698,4.763161,290.671,4.722215Q290.643,4.681269,290.608,4.646447Q290.574,4.611625,290.533,4.584265Q290.492,4.556906,290.446,4.53806Q290.401,4.519215,290.352,4.509607Q290.304,4.5,290.255,4.5L288.267,4.5Q288.218,4.5,288.17,4.509607Q288.122,4.519215,288.076,4.53806Q288.031,4.556906,287.99,4.584265Q287.949,4.611625,287.914,4.646447Q287.879,4.681269,287.852,4.722215Q287.824,4.763161,287.805,4.808658Q287.787,4.854155,287.777,4.9024549Q287.767,4.9507543,287.767,5Q287.767,5.0492457,287.777,5.0975451Q287.787,5.145845,287.805,5.191342Q287.824,5.236839,287.852,5.277785Q287.879,5.318731,287.914,5.353553Q287.949,5.388375,287.99,5.415735Q288.031,5.443094,288.076,5.46194Q288.122,5.480785,288.17,5.490393Q288.218,5.5,288.267,5.5ZM294.23,5.5L296.217,5.5Q296.266,5.5,296.315,5.490393Q296.363,5.480785,296.408,5.46194Q296.454,5.443094,296.495,5.415735Q296.536,5.388375,296.571,5.353553Q296.605,5.318731,296.633,5.277785Q296.66,5.236839,296.679,5.191342Q296.698,5.145845,296.707,5.0975451Q296.717,5.0492457,296.717,5Q296.717,4.9507543,296.707,4.9024549Q296.698,4.854155,296.679,4.808658Q296.66,4.763161,296.633,4.722215Q296.605,4.681269,296.571,4.646447Q296.536,4.611625,296.495,4.584265Q296.454,4.556906,296.408,4.53806Q296.363,4.519215,296.315,4.509607Q296.266,4.5,296.217,4.5L294.23,4.5Q294.18,4.5,294.132,4.509607Q294.084,4.519215,294.038,4.53806Q293.993,4.556906,293.952,4.584265Q293.911,4.611625,293.876,4.646447Q293.841,4.681269,293.814,4.722215Q293.786,4.763161,293.768,4.808658Q293.749,4.854155,293.739,4.9024549Q293.73,4.9507543,293.73,5Q293.73,5.0492457,293.739,5.0975451Q293.749,5.145845,293.768,5.191342Q293.786,5.236839,293.814,5.277785Q293.841,5.318731,293.876,5.353553Q293.911,5.388375,293.952,5.415735Q293.993,5.443094,294.038,5.46194Q294.084,5.480785,294.132,5.490393Q294.18,5.5,294.23,5.5ZM300.192,5.5L302.179,5.5Q302.228,5.5,302.277,5.490393Q302.325,5.480785,302.371,5.46194Q302.416,5.443094,302.457,5.415735Q302.498,5.388375,302.533,5.353553Q302.568,5.318731,302.595,5.277785Q302.622,5.236839,302.641,5.191342Q302.66,5.145845,302.67,5.0975451Q302.679,5.0492457,302.679,5Q302.679,4.9507543,302.67,4.9024549Q302.66,4.854155,302.641,4.808658Q302.622,4.763161,302.595,4.722215Q302.568,4.681269,302.533,4.646447Q302.498,4.611625,302.457,4.584265Q302.416,4.556906,302.371,4.53806Q302.325,4.519215,302.277,4.509607Q302.228,4.5,302.179,4.5L300.192,4.5Q300.143,4.5,300.094,4.509607Q300.046,4.519215,300,4.53806Q299.955,4.556906,299.914,4.584265Q299.873,4.611625,299.838,4.646447Q299.803,4.681269,299.776,4.722215Q299.749,4.763161,299.73,4.808658Q299.711,4.854155,299.701,4.9024549Q299.692,4.9507543,299.692,5Q299.692,5.0492457,299.701,5.0975451Q299.711,5.145845,299.73,5.191342Q299.749,5.236839,299.776,5.277785Q299.803,5.318731,299.838,5.353553Q299.873,5.388375,299.914,5.415735Q299.955,5.443094,300,5.46194Q300.046,5.480785,300.094,5.490393Q300.143,5.5,300.192,5.5ZM306.154,5.5L308.141,5.5Q308.191,5.5,308.239,5.490393Q308.287,5.480785,308.333,5.46194Q308.378,5.443094,308.419,5.415735Q308.46,5.388375,308.495,5.353553Q308.53,5.318731,308.557,5.277785Q308.584,5.236839,308.603,5.191342Q308.622,5.145845,308.632,5.0975451Q308.641,5.0492457,308.641,5Q308.641,4.9507543,308.632,4.9024549Q308.622,4.854155,308.603,4.808658Q308.584,4.763161,308.557,4.722215Q308.53,4.681269,308.495,4.646447Q308.46,4.611625,308.419,4.584265Q308.378,4.556906,308.333,4.53806Q308.287,4.519215,308.239,4.509607Q308.191,4.5,308.141,4.5L306.154,4.5Q306.105,4.5,306.056,4.509607Q306.008,4.519215,305.963,4.53806Q305.917,4.556906,305.876,4.584265Q305.835,4.611625,305.8,4.646447Q305.766,4.681269,305.738,4.722215Q305.711,4.763161,305.692,4.808658Q305.673,4.854155,305.664,4.9024549Q305.654,4.9507543,305.654,5Q305.654,5.0492457,305.664,5.0975451Q305.673,5.145845,305.692,5.191342Q305.711,5.236839,305.738,5.277785Q305.766,5.318731,305.8,5.353553Q305.835,5.388375,305.876,5.415735Q305.917,5.443094,305.963,5.46194Q306.008,5.480785,306.056,5.490393Q306.105,5.5,306.154,5.5ZM312.116,5.5L314.104,5.5Q314.153,5.5,314.201,5.490393Q314.249,5.480785,314.295,5.46194Q314.34,5.443094,314.381,5.415735Q314.422,5.388375,314.457,5.353553Q314.492,5.318731,314.519,5.277785Q314.547,5.236839,314.566,5.191342Q314.584,5.145845,314.594,5.0975451Q314.604,5.0492457,314.604,5Q314.604,4.9507543,314.594,4.9024549Q314.584,4.854155,314.566,4.808658Q314.547,4.763161,314.519,4.722215Q314.492,4.681269,314.457,4.646447Q314.422,4.611625,314.381,4.584265Q314.34,4.556906,314.295,4.53806Q314.249,4.519215,314.201,4.509607Q314.153,4.5,314.104,4.5L312.116,4.5Q312.067,4.5,312.019,4.509607Q311.97,4.519215,311.925,4.53806Q311.879,4.556906,311.838,4.584265Q311.797,4.611625,311.763,4.646447Q311.728,4.681269,311.7,4.722215Q311.673,4.763161,311.654,4.808658Q311.635,4.854155,311.626,4.9024549Q311.616,4.9507543,311.616,5Q311.616,5.0492457,311.626,5.0975451Q311.635,5.145845,311.654,5.191342Q311.673,5.236839,311.7,5.277785Q311.728,5.318731,311.763,5.353553Q311.797,5.388375,311.838,5.415735Q311.879,5.443094,311.925,5.46194Q311.97,5.480785,312.019,5.490393Q312.067,5.5,312.116,5.5ZM318.078,5.5L320.066,5.5Q320.115,5.5,320.163,5.490393Q320.212,5.480785,320.257,5.46194Q320.303,5.443094,320.344,5.415735Q320.384,5.388375,320.419,5.353553Q320.454,5.318731,320.481,5.277785Q320.509,5.236839,320.528,5.191342Q320.547,5.145845,320.556,5.0975451Q320.566,5.0492457,320.566,5Q320.566,4.9507543,320.556,4.9024549Q320.547,4.854155,320.528,4.808658Q320.509,4.763161,320.481,4.722215Q320.454,4.681269,320.419,4.646447Q320.384,4.611625,320.344,4.584265Q320.303,4.556906,320.257,4.53806Q320.212,4.519215,320.163,4.509607Q320.115,4.5,320.066,4.5L318.078,4.5Q318.029,4.5,317.981,4.509607Q317.933,4.519215,317.887,4.53806Q317.842,4.556906,317.801,4.584265Q317.76,4.611625,317.725,4.646447Q317.69,4.681269,317.663,4.722215Q317.635,4.763161,317.616,4.808658Q317.598,4.854155,317.588,4.9024549Q317.578,4.9507543,317.578,5Q317.578,5.0492457,317.588,5.0975451Q317.598,5.145845,317.616,5.191342Q317.635,5.236839,317.663,5.277785Q317.69,5.318731,317.725,5.353553Q317.76,5.388375,317.801,5.415735Q317.842,5.443094,317.887,5.46194Q317.933,5.480785,317.981,5.490393Q318.029,5.5,318.078,5.5ZM324.041,5.5L325.034,5.5Q325.083,5.5,325.132,5.490393Q325.18,5.480785,325.226,5.46194Q325.271,5.443094,325.312,5.415735Q325.353,5.388375,325.388,5.353553Q325.423,5.318731,325.45,5.277785Q325.477,5.236839,325.496,5.191342Q325.515,5.145845,325.525,5.0975451Q325.534,5.0492457,325.534,5Q325.534,4.9507543,325.525,4.9024549Q325.515,4.854155,325.496,4.808658Q325.477,4.763161,325.45,4.722215Q325.423,4.681269,325.388,4.646447Q325.353,4.611625,325.312,4.584265Q325.271,4.556906,325.226,4.53806Q325.18,4.519215,325.132,4.509607Q325.083,4.5,325.034,4.5L324.041,4.5Q323.991,4.5,323.943,4.509607Q323.895,4.519215,323.849,4.53806Q323.804,4.556906,323.763,4.584265Q323.722,4.611625,323.687,4.646447Q323.652,4.681269,323.625,4.722215Q323.597,4.763161,323.579,4.808658Q323.56,4.854155,323.55,4.9024549Q323.541,4.9507543,323.541,5Q323.541,5.0492457,323.55,5.0975451Q323.56,5.145845,323.579,5.191342Q323.597,5.236839,323.625,5.277785Q323.652,5.318731,323.687,5.353553Q323.722,5.388375,323.763,5.415735Q323.804,5.443094,323.849,5.46194Q323.895,5.480785,323.943,5.490393Q323.991,5.5,324.041,5.5Z" fill-rule="evenodd" fill="#F2F2F2" fill-opacity="1"/></g></g></svg>