<svg xmlns="http://www.w3.org/2000/svg" xmlns:xlink="http://www.w3.org/1999/xlink" fill="none" version="1.1" width="16" height="16" viewBox="0 0 16 16"><g><g><g><g><path d="M8.584163437499999,3.461602119140625C8.584163437499999,3.461602119140625,8.3143534375,3.195730119140625,8.3143534375,3.195730119140625C8.3143534375,3.195730119140625,8.3141034375,3.196012119140625,8.3141034375,3.196012119140625C8.3141034375,3.196012119140625,8.584163437499999,3.461602119140625,8.584163437499999,3.461602119140625C8.584163437499999,3.461602119140625,8.584163437499999,3.461602119140625,8.584163437499999,3.461602119140625ZM4.5172344375,7.942692119140625C4.5172344375,7.942692119140625,4.2471754375,7.677092119140625,4.2471754375,7.677092119140625C4.2471754375,7.677092119140625,4.2464514375,7.677892119140625,4.2464514375,7.677892119140625C4.2464514375,7.677892119140625,4.5172344375,7.942692119140625,4.5172344375,7.942692119140625C4.5172344375,7.942692119140625,4.5172344375,7.942692119140625,4.5172344375,7.942692119140625ZM4.1853414375,8.680092119140625C4.1853414375,8.680092119140625,3.8170134375,8.628942119140625,3.8170134375,8.628942119140625C3.8170134375,8.628942119140625,3.8162184375,8.636212119140625,3.8162184375,8.636212119140625C3.8162184375,8.636212119140625,4.1853414375,8.680092119140625,4.1853414375,8.680092119140625C4.1853414375,8.680092119140625,4.1853414375,8.680092119140625,4.1853414375,8.680092119140625ZM4.0020574374999995,10.350832119140625C4.0020574374999995,10.350832119140625,3.6329333775,10.306942119140626,3.6329333775,10.306942119140626C3.6329333775,10.306942119140626,3.6328085475,10.308132119140625,3.6328085475,10.308132119140625C3.6328085475,10.308132119140625,4.0020574374999995,10.350832119140625,4.0020574374999995,10.350832119140625C4.0020574374999995,10.350832119140625,4.0020574374999995,10.350832119140625,4.0020574374999995,10.350832119140625ZM4.9283834375,11.263542119140626C4.9283834375,11.263542119140626,4.8658334375,10.882322119140625,4.8658334375,10.882322119140625C4.8658334375,10.882322119140625,4.8652634374999995,10.882422119140625,4.8652634374999995,10.882422119140625C4.8652634374999995,10.882422119140625,4.9283834375,11.263542119140626,4.9283834375,11.263542119140626C4.9283834375,11.263542119140626,4.9283834375,11.263542119140626,4.9283834375,11.263542119140626ZM6.523453437500001,10.979932119140624C6.523453437500001,10.979932119140624,6.5860034375000005,11.361162119140625,6.5860034375000005,11.361162119140625C6.5860034375000005,11.361162119140625,6.5884834375,11.360692119140625,6.5884834375,11.360692119140625C6.5884834375,11.360692119140625,6.523453437500001,10.979932119140624,6.523453437500001,10.979932119140624C6.523453437500001,10.979932119140624,6.523453437500001,10.979932119140624,6.523453437500001,10.979932119140624ZM7.2120034375,10.593192119140625C7.2120034375,10.593192119140625,6.941903437500001,10.327522119140625,6.941903437500001,10.327522119140625C6.941903437500001,10.327522119140625,6.9374634375,10.332622119140625,6.9374634375,10.332622119140625C6.9374634375,10.332622119140625,7.2120034375,10.593192119140625,7.2120034375,10.593192119140625C7.2120034375,10.593192119140625,7.2120034375,10.593192119140625,7.2120034375,10.593192119140625ZM11.2789434375,6.112092119140625C11.2789434375,6.112092119140625,11.009123437500001,5.846222119140625,11.009123437500001,5.846222119140625C11.009123437500001,5.846222119140625,11.0088734375,5.8465021191406255,11.0088734375,5.8465021191406255C11.0088734375,5.8465021191406255,11.2789434375,6.112092119140625,11.2789434375,6.112092119140625C11.2789434375,6.112092119140625,11.2789434375,6.112092119140625,11.2789434375,6.112092119140625ZM11.2046434375,3.379102119140625C11.2046434375,3.379102119140625,11.4599034375,3.098109119140625,11.4599034375,3.098109119140625C11.4599034375,3.098109119140625,11.459203437500001,3.097437119140625,11.459203437500001,3.097437119140625C11.459203437500001,3.097437119140625,11.2046434375,3.379102119140625,11.2046434375,3.379102119140625C11.2046434375,3.379102119140625,11.2046434375,3.379102119140625,11.2046434375,3.379102119140625ZM8.3141034375,3.196012119140625C8.3141034375,3.196012119140625,4.2471764375,7.677092119140625,4.2471764375,7.677092119140625C4.2471764375,7.677092119140625,4.7872934375,8.208262119140624,4.7872934375,8.208262119140624C4.7872934375,8.208262119140624,8.8542134375,3.727202119140625,8.8542134375,3.727202119140625C8.8542134375,3.727202119140625,8.3141034375,3.196012119140625,8.3141034375,3.196012119140625C8.3141034375,3.196012119140625,8.3141034375,3.196012119140625,8.3141034375,3.196012119140625ZM4.2464514375,7.677892119140625C4.1335174375,7.803042119140625,4.0380844375,7.968582119140625,3.9681394375,8.124722119140625C3.8979424375000002,8.281432119140625,3.8384584375,8.462072119140625,3.8170784375,8.628992119140625C3.8170784375,8.628992119140625,4.5536044375,8.731192119140626,4.5536044375,8.731192119140626C4.5619464375,8.666062119140625,4.5916284375,8.563092119140624,4.6415534375,8.451652119140626C4.6917334375,8.339602119140626,4.7473934374999995,8.252502119140626,4.7880234375,8.207492119140625C4.7880234375,8.207492119140625,4.2464514375,7.677892119140625,4.2464514375,7.677892119140625C4.2464514375,7.677892119140625,4.2464514375,7.677892119140625,4.2464514375,7.677892119140625ZM3.8162184375,8.636212119140625C3.8162184375,8.636212119140625,3.6329353675,10.306942119140626,3.6329353675,10.306942119140626C3.6329353675,10.306942119140626,4.3711804375,10.394712119140625,4.3711804375,10.394712119140625C4.3711804375,10.394712119140625,4.5544664375,8.723972119140626,4.5544664375,8.723972119140626C4.5544664375,8.723972119140626,3.8162184375,8.636212119140625,3.8162184375,8.636212119140625C3.8162184375,8.636212119140625,3.8162184375,8.636212119140625,3.8162184375,8.636212119140625ZM3.6328085475,10.308132119140625C3.5896303375,10.712612119140625,3.7061826375,11.092342119140625,3.9699394375,11.352702119140625C4.2340684374999995,11.613472119140624,4.6048494375,11.714072119140624,4.9915134375,11.644672119140624C4.9915134375,11.644672119140624,4.8652634374999995,10.882422119140625,4.8652634374999995,10.882422119140625C4.6773034375,10.916142119140625,4.5527174375,10.862052119140625,4.4812404375,10.791462119140625C4.4093894375,10.720552119140624,4.3500874375,10.592312119140624,4.3713074375,10.393522119140625C4.3713074375,10.393522119140625,3.6328085475,10.308132119140625,3.6328085475,10.308132119140625C3.6328085475,10.308132119140625,3.6328085475,10.308132119140625,3.6328085475,10.308132119140625ZM4.9909434375,11.644772119140624C4.9909434375,11.644772119140624,6.5860034375000005,11.361162119140625,6.5860034375000005,11.361162119140625C6.5860034375000005,11.361162119140625,6.460893437499999,10.598702119140626,6.460893437499999,10.598702119140626C6.460893437499999,10.598702119140626,4.8658334375,10.882322119140625,4.8658334375,10.882322119140625C4.8658334375,10.882322119140625,4.9909434375,11.644772119140624,4.9909434375,11.644772119140624C4.9909434375,11.644772119140624,4.9909434375,11.644772119140624,4.9909434375,11.644772119140624ZM6.5884834375,11.360692119140625C6.7493634375,11.330942119140625,6.9207434375000005,11.260352119140626,7.0689034374999995,11.177892119140624C7.2162334375,11.095902119140625,7.3717034375,10.984882119140625,7.4865434375,10.853752119140625C7.4865434375,10.853752119140625,6.9374634375,10.332622119140625,6.9374634375,10.332622119140625C6.8987434375,10.376812119140626,6.821393437499999,10.438542119140624,6.7185634375,10.495782119140625C6.6165634375,10.552552119140625,6.5204434375,10.587672119140626,6.4584234375000005,10.599172119140626C6.4584234375000005,10.599172119140626,6.5884834375,11.360692119140625,6.5884834375,11.360692119140625C6.5884834375,11.360692119140625,6.5884834375,11.360692119140625,6.5884834375,11.360692119140625ZM7.4820634375,10.858752119140625C7.4820634375,10.858752119140625,11.5489634375,6.377692119140625,11.5489634375,6.377692119140625C11.5489634375,6.377692119140625,11.0088734375,5.8465021191406255,11.0088734375,5.8465021191406255C11.0088734375,5.8465021191406255,6.9419534375000005,10.327572119140626,6.9419534375000005,10.327572119140626C6.9419534375000005,10.327572119140626,7.4820634375,10.858752119140625,7.4820634375,10.858752119140625C7.4820634375,10.858752119140625,7.4820634375,10.858752119140625,7.4820634375,10.858752119140625ZM11.5487234375,6.377972119140625C11.9209334375,5.9687121191406245,12.2473834375,5.472712119140625,12.2867134375,4.886652119140625C12.3274334375,4.280302119140625,12.0560234375,3.684972119140625,11.4599034375,3.098110119140625C11.4599034375,3.098110119140625,10.9493334375,3.660092119140625,10.9493334375,3.660092119140625C11.4479634375,4.150952119140625,11.5654634375,4.535382119140625,11.5454534375,4.832722119140625C11.5241534375,5.150362119140625,11.3403734375,5.481982119140625,11.009123437500001,5.846222119140625C11.009123437500001,5.846222119140625,11.5487234375,6.377972119140625,11.5487234375,6.377972119140625C11.5487234375,6.377972119140625,11.5487234375,6.377972119140625,11.5487234375,6.377972119140625ZM11.459203437500001,3.097437119140625C10.865073437500001,2.515490119140625,10.280343437500001,2.269461119140625,9.702353437500001,2.346395419140625C9.143883437500001,2.420739119140625,8.686643437499999,2.786361119140625,8.3143534375,3.195730119140625C8.3143534375,3.195730119140625,8.8539534375,3.727482119140625,8.8539534375,3.727482119140625C9.1850934375,3.363372119140625,9.4932134375,3.154027119140625,9.7966234375,3.113637119140625C10.0806134375,3.075837119140625,10.4543634375,3.175300119140625,10.9500234375,3.660772119140625C10.9500234375,3.660772119140625,11.459203437500001,3.097437119140625,11.459203437500001,3.097437119140625C11.459203437500001,3.097437119140625,11.459203437500001,3.097437119140625,11.459203437500001,3.097437119140625Z" fill="#8A8A8E" fill-opacity="1"/></g><g><path d="M8.3391954375,3.984770494140625C8.3086134375,3.779624494140625,8.1246964375,3.639230194140625,7.9284064375,3.671191314140625C7.7321154375,3.703152494140625,7.5977809375,3.895365494140625,7.6283625175,4.100511494140625C7.6283625175,4.100511494140625,8.3391954375,3.984770494140625,8.3391954375,3.984770494140625C8.3391954375,3.984770494140625,8.3391954375,3.984770494140625,8.3391954375,3.984770494140625ZM10.5615834375,6.998066494140625C10.7592434375,7.018876494140625,10.935613437499999,6.868286494140625,10.9555234375,6.661706494140625C10.9754234375,6.455126494140625,10.8313334375,6.270796494140625,10.6336734375,6.249996494140625C10.6336734375,6.249996494140625,10.5615834375,6.998066494140625,10.5615834375,6.998066494140625C10.5615834375,6.998066494140625,10.5615834375,6.998066494140625,10.5615834375,6.998066494140625ZM7.6283625175,4.100511494140625C7.8599514375,5.6540464941406245,9.0663834375,6.840686494140625,10.5615834375,6.998066494140625C10.5615834375,6.998066494140625,10.6336734375,6.249996494140625,10.6336734375,6.249996494140625C9.4622634375,6.126686494140625,8.5200684375,5.198086494140625,8.3391954375,3.984770494140625C8.3391954375,3.984770494140625,7.6283625175,4.100511494140625,7.6283625175,4.100511494140625C7.6283625175,4.100511494140625,7.6283625175,4.100511494140625,7.6283625175,4.100511494140625Z" fill="#8A8A8E" fill-opacity="1"/></g><g><path d="M3.341890390625,12.332672119140625C3.129473390625,12.332672119140625,2.957275390625,12.481910119140625,2.957275390625,12.666005119140625C2.957275390625,12.850101119140625,3.129473390625,12.999339119140625,3.341890390625,12.999339119140625C3.341890390625,12.999339119140625,3.341890390625,12.332672119140625,3.341890390625,12.332672119140625C3.341890390625,12.332672119140625,3.341890390625,12.332672119140625,3.341890390625,12.332672119140625ZM11.239335390625,12.999339119140625C11.451745390625,12.999339119140625,11.623945390625,12.850101119140625,11.623945390625,12.666005119140625C11.623945390625,12.481910119140625,11.451745390625,12.332672119140625,11.239335390625,12.332672119140625C11.239335390625,12.332672119140625,11.239335390625,12.999339119140625,11.239335390625,12.999339119140625C11.239335390625,12.999339119140625,11.239335390625,12.999339119140625,11.239335390625,12.999339119140625ZM3.341890390625,12.999339119140625C3.341890390625,12.999339119140625,11.239335390625,12.999339119140625,11.239335390625,12.999339119140625C11.239335390625,12.999339119140625,11.239335390625,12.332672119140625,11.239335390625,12.332672119140625C11.239335390625,12.332672119140625,3.341890390625,12.332672119140625,3.341890390625,12.332672119140625C3.341890390625,12.332672119140625,3.341890390625,12.999339119140625,3.341890390625,12.999339119140625C3.341890390625,12.999339119140625,3.341890390625,12.999339119140625,3.341890390625,12.999339119140625Z" fill="#8A8A8E" fill-opacity="1"/></g><g style="opacity:0;"></g></g></g></g></svg>