<svg xmlns="http://www.w3.org/2000/svg" xmlns:xlink="http://www.w3.org/1999/xlink" fill="none" version="1.1" width="78" height="78" viewBox="0 0 78 78"><defs><clipPath id="master_svg0_53884_106671"><rect x="0" y="0" width="78" height="78" rx="0"/></clipPath><clipPath id="master_svg1_53884_106673"><rect x="0" y="0" width="78" height="78" rx="0"/></clipPath></defs><g clip-path="url(#master_svg0_53884_106671)"><g clip-path="url(#master_svg1_53884_106673)"><g><path d="M38.9999462890625,72.42982421875Q39.8206462890625,72.42982421875,40.6402462890625,72.38952421875Q41.4599462890625,72.34932421875,42.2766462890625,72.26882421875Q43.0933462890625,72.18842421875,43.9051462890625,72.06802421875Q44.7169462890625,71.94762421875,45.5218462890625,71.78752421875Q46.3267462890625,71.62732421875,47.1227462890625,71.42792421875Q47.9188462890625,71.22852421875,48.7041462890625,70.99032421875Q49.4894462890625,70.75212421875,50.2621462890625,70.47562421875Q51.0348462890625,70.19912421875,51.7930462890625,69.88512421875Q52.5512462890625,69.57102421875,53.2931462890625,69.22022421874999Q54.0349462890625,68.86932421875,54.7587462890625,68.48242421875Q55.4825462890625,68.09562421875,56.1864462890625,67.67372421875001Q56.8903462890625,67.25182421875,57.5726462890625,66.79582421875Q58.2550462890625,66.33992421875,58.9141462890625,65.85102421875Q59.5733462890625,65.36222421875,60.2077462890625,64.84152421875001Q60.8420462890625,64.32092421875001,61.4501462890625,63.76982421875Q62.0582462890625,63.21872421875,62.6385462890625,62.63842421875Q63.2188462890625,62.05812421875,63.7699462890625,61.45002421875Q64.32104628906251,60.84192421875,64.84164628906251,60.20762421875Q65.3623462890625,59.57322421875,65.8511462890625,58.91402421875Q66.3400462890625,58.25492421875,66.7959462890625,57.57252421875Q67.2519462890625,56.89022421875,67.67384628906251,56.18632421875Q68.0957462890625,55.48232421875,68.4825462890625,54.75862421875Q68.8694462890625,54.03482421875,69.22034628906249,53.29302421875Q69.5711462890625,52.55112421875,69.8852462890625,51.79292421875Q70.1992462890625,51.03472421875,70.4757462890625,50.26202421875Q70.7522462890625,49.48932421875,70.9904462890625,48.70402421875Q71.2286462890625,47.91872421875,71.4280462890625,47.12262421875Q71.6274462890625,46.32662421875,71.7876462890625,45.52172421875Q71.9477462890625,44.71682421875,72.0681462890625,43.90502421875Q72.1885462890625,43.09322421875,72.2689462890625,42.27652421875Q72.3494462890625,41.45982421875,72.3896462890625,40.64012421875Q72.4299462890625,39.82052421875,72.4299462890625,38.99982421875Q72.4299462890625,38.17912421875,72.3896462890625,37.359524218749996Q72.3494462890625,36.53982421875,72.2689462890625,35.72312421875Q72.1885462890625,34.906424218750004,72.0681462890625,34.09462421875Q71.9477462890625,33.28282421875,71.7876462890625,32.477924218750005Q71.6274462890625,31.67302421875,71.4280462890625,30.87702421875Q71.2286462890625,30.08092421875,70.9904462890625,29.29562421875Q70.7522462890625,28.51032421875,70.4757462890625,27.73762421875Q70.1992462890625,26.96492421875,69.8852462890625,26.20672421875Q69.5711462890625,25.44852421875,69.22034628906249,24.70662421875Q68.8694462890625,23.96482421875,68.4825462890625,23.24102421875Q68.0957462890625,22.51722421875,67.67384628906251,21.81332421875Q67.2519462890625,21.10942421875,66.7959462890625,20.427124218750002Q66.3400462890625,19.74472421875,65.8511462890625,19.08562421875Q65.3623462890625,18.42642421875,64.84164628906251,17.79202421875Q64.32104628906251,17.157724218749998,63.7699462890625,16.549624218749997Q63.2188462890625,15.94152421875,62.6385462890625,15.36124421875Q62.0582462890625,14.78095421875,61.4501462890625,14.22982421875Q60.8420462890625,13.67870421875,60.2077462890625,13.15808421875Q59.5733462890625,12.63746421875,58.9141462890625,12.148594218749999Q58.2550462890625,11.65972421875,57.5726462890625,11.20379421875Q56.8903462890625,10.74786421875,56.1864462890625,10.325954218749999Q55.4824462890625,9.90405421875,54.7587462890625,9.51719421875Q54.0349462890625,9.13033421875,53.2931462890625,8.77946421875Q52.5512462890625,8.42858421875,51.7930462890625,8.11453421875Q51.0348462890625,7.80047421875,50.2621462890625,7.52400421875Q49.4894462890625,7.24753421875,48.7041462890625,7.00930421875Q47.9188462890625,6.7710842187499996,47.1227462890625,6.57168421875Q46.3267462890625,6.37227521875,45.5218462890625,6.21217221875Q44.7169462890625,6.05206921875,43.9051462890625,5.93165321875Q43.0933462890625,5.81123721875,42.2766462890625,5.73079921875Q41.4599462890625,5.65036001875,40.6402462890625,5.61009211875Q39.8206462890625,5.56982421875,38.9999462890625,5.56982421875Q38.1792462890625,5.56982421875,37.359646289062496,5.61009211875Q36.5399462890625,5.65036001875,35.7232462890625,5.73079921875Q34.906546289062504,5.81123721875,34.0947462890625,5.93165321875Q33.2829462890625,6.05206921875,32.478046289062505,6.21217221875Q31.6731462890625,6.37227521875,30.8771462890625,6.57168421875Q30.0810462890625,6.7710842187499996,29.2957462890625,7.00930421875Q28.5104462890625,7.24753421875,27.7377462890625,7.52400421875Q26.9650462890625,7.80047421875,26.2068462890625,8.11453421875Q25.4486462890625,8.42858421875,24.7067462890625,8.77946421875Q23.9649462890625,9.13033421875,23.2411462890625,9.51719421875Q22.5173462890625,9.90405421875,21.8134462890625,10.325954218749999Q21.1095462890625,10.74786421875,20.427246289062502,11.20379421875Q19.7448462890625,11.65972421875,19.0857462890625,12.148594218749999Q18.4265462890625,12.63746421875,17.7921462890625,13.15808421875Q17.157846289062498,13.67870421875,16.549746289062497,14.22982421875Q15.9416462890625,14.78095421875,15.3613662890625,15.36124421875Q14.7810762890625,15.94152421875,14.2299462890625,16.549624218749997Q13.6788262890625,17.157724218749998,13.1582062890625,17.79202421875Q12.6375862890625,18.42642421875,12.148716289062499,19.08562421875Q11.6598462890625,19.74472421875,11.2039162890625,20.427124218750002Q10.7479862890625,21.10942421875,10.326076289062499,21.81332421875Q9.9041762890625,22.51722421875,9.5173162890625,23.24102421875Q9.1304562890625,23.96482421875,8.7795862890625,24.70662421875Q8.4287062890625,25.44852421875,8.1146562890625,26.20672421875Q7.8005962890625,26.96492421875,7.5241262890625,27.73762421875Q7.2476562890625,28.51032421875,7.0094262890625,29.29562421875Q6.7712062890624996,30.08092421875,6.5718062890625,30.87702421875Q6.3723972890625,31.67302421875,6.2122942890625,32.477924218750005Q6.0521912890625,33.28282421875,5.9317752890625,34.09462421875Q5.8113592890625,34.906424218750004,5.7309212890625,35.72312421875Q5.6504820890625,36.53982421875,5.6102141890625,37.359524218749996Q5.5699462890625,38.17912421875,5.5699462890625,38.99982421875Q5.5699462890625,39.82052421875,5.6102141890625,40.64012421875Q5.6504820890625,41.45982421875,5.7309212890625,42.27652421875Q5.8113592890625,43.09322421875,5.9317752890625,43.90502421875Q6.0521912890625,44.71682421875,6.2122942890625,45.52172421875Q6.3723972890625,46.32662421875,6.5718062890625,47.12262421875Q6.7712062890624996,47.91872421875,7.0094262890625,48.70402421875Q7.2476562890625,49.48932421875,7.5241262890625,50.26202421875Q7.8005962890625,51.03472421875,8.1146562890625,51.79292421875Q8.4287062890625,52.55112421875,8.7795862890625,53.29302421875Q9.1304562890625,54.03482421875,9.5173162890625,54.75862421875Q9.9041762890625,55.48242421875,10.326076289062499,56.18632421875Q10.7479862890625,56.89022421875,11.2039162890625,57.57252421875Q11.6598462890625,58.25492421875,12.148716289062499,58.91402421875Q12.6375862890625,59.57322421875,13.1582062890625,60.20762421875Q13.6788262890625,60.84192421875,14.2299462890625,61.45002421875Q14.7810762890625,62.05812421875,15.3613662890625,62.63842421875Q15.9416462890625,63.21872421875,16.549746289062497,63.76982421875Q17.157846289062498,64.32092421875001,17.7921462890625,64.84152421875001Q18.4265462890625,65.36222421875,19.0857462890625,65.85102421875Q19.7448462890625,66.33992421875,20.427246289062502,66.79582421875Q21.1095462890625,67.25182421875,21.8134462890625,67.67372421875001Q22.5173462890625,68.09562421875,23.2411462890625,68.48242421875Q23.9649462890625,68.86932421875,24.7067462890625,69.22022421874999Q25.4486462890625,69.57102421875,26.2068462890625,69.88512421875Q26.9650462890625,70.19912421875,27.7377462890625,70.47562421875Q28.5104462890625,70.75212421875,29.2957462890625,70.99032421875Q30.0810462890625,71.22852421875,30.8771462890625,71.42792421875Q31.6731462890625,71.62732421875,32.478046289062505,71.78752421875Q33.2829462890625,71.94762421875,34.0947462890625,72.06802421875Q34.906546289062504,72.18842421875,35.7232462890625,72.26882421875Q36.5399462890625,72.34932421875,37.359646289062496,72.38952421875Q38.1792462890625,72.42982421875,38.9999462890625,72.42982421875ZM36.562946289062495,41.34542421875L36.5626462890625,21.60002421875C36.5626462890625,20.44022421875,37.502846289062504,19.50002421875,38.6626462890625,19.50002421875C39.8224462890625,19.50002421875,40.7626462890625,20.44022421875,40.7626462890625,21.60002421875L40.7625462890625,40.43372421875C40.7625462890625,40.96422421875,40.9732462890625,41.47292421875,41.3483462890625,41.84802421875L49.8364462890625,50.33592421875C50.6565462890625,51.15602421875,50.6566462890625,52.48562421875,49.8365462890625,53.30572421875C49.0164462890625,54.12592421875,47.6867462890625,54.12592421875,46.8665462890625,53.30582421875L37.7345462890625,44.17372421875C36.984446289062504,43.42362421875,36.562946289062495,42.40622421875,36.562946289062495,41.34542421875Z" fill-rule="evenodd" fill="#FFC300" fill-opacity="1"/></g></g></g></svg>