<svg xmlns="http://www.w3.org/2000/svg" xmlns:xlink="http://www.w3.org/1999/xlink" fill="none" version="1.1" width="375" height="637" viewBox="0 0 375 637"><defs><mask id="master_svg0_48879_109752" style="mask-type:alpha" maskUnits="userSpaceOnUse"><g><rect x="0" y="0" width="375" height="637" rx="0" fill="#FFFFFF" fill-opacity="1"/></g></mask><clipPath id="master_svg1_48879_109651"><rect x="0.6162109375" y="230.1552219390869" width="375" height="36" rx="0"/></clipPath><clipPath id="master_svg2_48879_109713"><rect x="0.6162109375" y="272.1552219390869" width="375" height="24" rx="3"/></clipPath></defs><g mask="url(#master_svg0_48879_109752)"><g><path d="M0 32.20919227600098C0 26.686344777693044 4.477152501692067 22.209192276000977 10 22.209192276000977L365 22.209192276000977C370.52284749830795 22.209192276000977 375 26.686344777693044 375 32.20919227600098L375 642.047571182251C375 642.047571182251 375 642.047571182251 375 642.047571182251L0 642.047571182251C0 642.047571182251 0 642.047571182251 0 642.047571182251Z" fill="#FFFFFF" fill-opacity="1"/></g><g><g><g><g><g><rect x="24.6162109375" y="-0.23467063903808594" width="60" height="60" rx="30" fill="#F6F6F6" fill-opacity="1"/><rect x="25.6162109375" y="0.7653293609619141" width="58" height="58" rx="29" fill-opacity="0" stroke-opacity="1" stroke="#FFFFFF" fill="none" stroke-width="2"/></g></g><g><rect x="24.6162109375" y="74.15522193908691" width="97" height="20" rx="3" fill="#F6F6F6" fill-opacity="1"/></g><g><g><rect x="24.6162109375" y="100.15522193908691" width="111" height="20" rx="3" fill="#F6F6F6" fill-opacity="1"/></g><g><rect x="141.6162109375" y="100.15522193908691" width="111" height="20" rx="3" fill="#F6F6F6" fill-opacity="1"/></g></g><g><rect x="24.6162109375" y="126.15522193908691" width="111" height="20" rx="3" fill="#F6F6F6" fill-opacity="1"/></g><g><rect x="24.6162109375" y="152.1552219390869" width="325" height="20" rx="3" fill="#F6F6F6" fill-opacity="1"/></g><g><g><line x1="24.6162109375" y1="179.9052219390869" x2="349.6162109375" y2="179.9052219390869" fill-opacity="0" stroke-opacity="1" stroke="#F6F6F6" fill="none" stroke-width="0.5"/></g></g><g><g><rect x="24.6162109375" y="188.1552219390869" width="159" height="20" rx="3" fill="#F6F6F6" fill-opacity="1"/></g><g><rect x="190.6162109375" y="188.1552219390869" width="159" height="20" rx="3" fill="#F6F6F6" fill-opacity="1"/></g></g></g><g><g clip-path="url(#master_svg1_48879_109651)"><g><g><rect x="15.6162109375" y="233.1552219390869" width="80" height="30" rx="5" fill="#F6F6F6" fill-opacity="1"/></g><g><rect x="103.6162109375" y="233.1552219390869" width="80" height="30" rx="5" fill="#F6F6F6" fill-opacity="1"/></g><g><rect x="191.6162109375" y="233.1552219390869" width="80" height="30" rx="5" fill="#F6F6F6" fill-opacity="1"/></g><g><rect x="279.6162109375" y="233.1552219390869" width="80" height="30" rx="5" fill="#F6F6F6" fill-opacity="1"/></g></g></g><g clip-path="url(#master_svg2_48879_109713)"><g><g><rect x="15.6162109375" y="274.1552219390869" width="80" height="20" rx="5" fill="#F6F6F6" fill-opacity="1"/></g><g><rect x="103.6162109375" y="274.1552219390869" width="80" height="20" rx="5" fill="#F6F6F6" fill-opacity="1"/></g><g><rect x="191.6162109375" y="274.1552219390869" width="80" height="20" rx="5" fill="#F6F6F6" fill-opacity="1"/></g><g><rect x="279.6162109375" y="274.1552219390869" width="80" height="20" rx="5" fill="#F6F6F6" fill-opacity="1"/></g></g></g></g><g><g><rect x="12.6162109375" y="305.1552219390869" width="350" height="360" rx="10" fill="#F6F6F6" fill-opacity="1"/><g><g><g><rect x="26.6162109375" y="325.1552219390869" width="319" height="20" rx="3" fill="#FFFFFF" fill-opacity="1"/></g><g><rect x="26.6162109375" y="351.1552219390869" width="319" height="20" rx="3" fill="#FFFFFF" fill-opacity="1"/></g></g><g><rect x="26.6162109375" y="385.1552219390869" width="106" height="20" rx="3" fill="#FFFFFF" fill-opacity="1"/></g><g><g><rect x="26.6162109375" y="419.1552219390869" width="103.66999816894531" height="106" rx="3" fill="#FFFFFF" fill-opacity="1"/></g><g><rect x="134.2862091064453" y="419.1552219390869" width="103.66999816894531" height="106" rx="3" fill="#FFFFFF" fill-opacity="1"/></g><g><rect x="241.9561767578125" y="419.1552219390869" width="103.66999816894531" height="106" rx="3" fill="#FFFFFF" fill-opacity="1"/></g></g><g><g><rect x="26.6162109375" y="539.1552219390869" width="319" height="20" rx="3" fill="#FFFFFF" fill-opacity="1"/></g><g><rect x="26.6162109375" y="565.1552219390869" width="319" height="20" rx="3" fill="#FFFFFF" fill-opacity="1"/></g><g><rect x="26.6162109375" y="591.1552219390869" width="319" height="20" rx="3" fill="#FFFFFF" fill-opacity="1"/></g></g></g><g><g><rect x="26.6162109375" y="625.1552219390869" width="114.23649597167969" height="20" rx="3" fill="#FFFFFF" fill-opacity="1"/></g><g><rect x="231.37973022460938" y="625.1552219390869" width="114.23649597167969" height="20" rx="3" fill="#FFFFFF" fill-opacity="1"/></g></g></g></g><g><g><rect x="12.6162109375" y="674.8036594390869" width="350" height="360" rx="10" fill="#F6F6F6" fill-opacity="1"/><g><g><g><rect x="26.6162109375" y="694.8036594390869" width="319" height="20" rx="3" fill="#FFFFFF" fill-opacity="1"/></g><g><rect x="26.6162109375" y="720.8036594390869" width="319" height="20" rx="3" fill="#FFFFFF" fill-opacity="1"/></g></g><g><rect x="26.6162109375" y="754.8036594390869" width="106" height="20" rx="3" fill="#FFFFFF" fill-opacity="1"/></g><g><g><rect x="26.6162109375" y="788.8036594390869" width="103.66999816894531" height="106" rx="3" fill="#FFFFFF" fill-opacity="1"/></g><g><rect x="134.2862091064453" y="788.8036594390869" width="103.66999816894531" height="106" rx="3" fill="#FFFFFF" fill-opacity="1"/></g><g><rect x="241.9561767578125" y="788.8036594390869" width="103.66999816894531" height="106" rx="3" fill="#FFFFFF" fill-opacity="1"/></g></g><g><g><rect x="26.6162109375" y="908.8036594390869" width="319" height="20" rx="3" fill="#FFFFFF" fill-opacity="1"/></g><g><rect x="26.6162109375" y="934.8036594390869" width="319" height="20" rx="3" fill="#FFFFFF" fill-opacity="1"/></g><g><rect x="26.6162109375" y="960.8036594390869" width="319" height="20" rx="3" fill="#FFFFFF" fill-opacity="1"/></g></g></g><g><g><rect x="26.6162109375" y="994.8036594390869" width="114.23649597167969" height="20" rx="3" fill="#FFFFFF" fill-opacity="1"/></g><g><rect x="231.37973022460938" y="994.8036594390869" width="114.23649597167969" height="20" rx="3" fill="#FFFFFF" fill-opacity="1"/></g></g></g></g><g><rect x="215.6162109375" y="34.803659439086914" width="67" height="31" rx="3" fill="#F6F6F6" fill-opacity="1"/></g><g><rect x="294.6162109375" y="34.803659439086914" width="67" height="31" rx="3" fill="#F6F6F6" fill-opacity="1"/></g></g></g></g></svg>