<svg xmlns="http://www.w3.org/2000/svg" xmlns:xlink="http://www.w3.org/1999/xlink" fill="none" version="1.1" width="270" height="20" viewBox="0 0 270 20"><defs><clipPath id="master_svg0_48987_104107"><rect x="0" y="0" width="270" height="20" rx="0"/></clipPath></defs><g clip-path="url(#master_svg0_48987_104107)"><g transform="matrix(0,1,-1,0,190,-350)"><path d="M280,-80L354,-80Q354,-79.852708,354.0072,-79.705594Q354.0145,-79.55848,354.0289,-79.411897Q354.0433,-79.265315,354.06489999999997,-79.119617Q354.0865,-78.97392,354.1153,-78.82946Q354.144,-78.685,354.1798,-78.54212Q354.2156,-78.39924,354.2583,-78.25829Q354.3011,-78.11734,354.3507,-77.97866Q354.4003,-77.83998,354.4567,-77.7039Q354.5131,-77.56782,354.576,-77.43467Q354.639,-77.30152,354.7085,-77.17162Q354.7779,-77.04172,354.85360000000003,-76.91538Q354.9293,-76.78905,355.01120000000003,-76.66658Q355.093,-76.54411,355.1807,-76.4258Q355.2685,-76.3075,355.3619,-76.19364Q355.4554,-76.07978,355.5543,-75.97065Q355.65319999999997,-75.86151,355.7574,-75.75736Q355.8615,-75.65321,355.9706,-75.55429Q356.0798,-75.45538,356.1936,-75.36194Q356.3075,-75.2685,356.4258,-75.18075Q356.5441,-75.09300999999999,356.6666,-75.01118Q356.789,-74.92935,356.9154,-74.85363Q357.0417,-74.7779,357.1716,-74.70847Q357.30150000000003,-74.63904,357.4347,-74.57606Q357.56780000000003,-74.51309,357.7039,-74.45672Q357.84000000000003,-74.40036,357.9787,-74.35074Q358.1173,-74.30111,358.2583,-74.25836Q358.3992,-74.2156,358.5421,-74.17981Q358.685,-74.14402,358.8295,-74.11529Q358.9739,-74.08655,359.1196,-74.06494Q359.2653,-74.04333,359.4119,-74.02889Q359.5585,-74.01445,359.7056,-74.00722999999999Q359.8527,-74,360,-74Q360.1473,-74,360.2944,-74.00722999999999Q360.4415,-74.01445,360.5881,-74.02889Q360.7347,-74.04333,360.8804,-74.06494Q361.0261,-74.08655,361.1705,-74.11529Q361.315,-74.14402,361.4579,-74.17981Q361.6008,-74.2156,361.7417,-74.25836Q361.8827,-74.30111,362.0213,-74.35074Q362.15999999999997,-74.40036,362.2961,-74.45672Q362.43219999999997,-74.51309,362.5653,-74.57606Q362.69849999999997,-74.63904,362.8284,-74.70847Q362.9583,-74.7779,363.0846,-74.85363Q363.2109,-74.92935,363.3334,-75.01118Q363.4559,-75.09300999999999,363.5742,-75.18075Q363.6925,-75.2685,363.8064,-75.36194Q363.9202,-75.45538,364.02930000000003,-75.55429Q364.1385,-75.65321,364.2426,-75.75736Q364.34680000000003,-75.86151,364.4457,-75.97065Q364.5446,-76.07978,364.6381,-76.19364Q364.7315,-76.3075,364.8192,-76.4258Q364.907,-76.54411,364.98879999999997,-76.66658Q365.0706,-76.78905,365.14639999999997,-76.91538Q365.2221,-77.04172,365.2915,-77.17162Q365.3609,-77.30152,365.4239,-77.43467Q365.4869,-77.56782,365.5433,-77.7039Q365.5996,-77.83998,365.6493,-77.97866Q365.6989,-78.11734,365.7416,-78.25829Q365.7844,-78.39924,365.8202,-78.54212Q365.856,-78.685,365.8847,-78.82946Q365.9134,-78.97392,365.93510000000003,-79.119617Q365.9567,-79.265315,365.9711,-79.411897Q365.9855,-79.55848,365.9928,-79.705594Q366,-79.852708,366,-80L370,-80L370,190L366,190Q366,189.853,365.9928,189.70600000000002Q365.9855,189.55900000000003,365.9711,189.41199999999998Q365.9567,189.265,365.93510000000003,189.12Q365.9134,188.974,365.8847,188.829Q365.856,188.685,365.8202,188.54199999999997Q365.7844,188.399,365.7416,188.25799999999998Q365.6989,188.11700000000002,365.6493,187.97899999999998Q365.5996,187.83999999999997,365.5433,187.704Q365.4869,187.56799999999998,365.4239,187.435Q365.3609,187.301,365.2915,187.17200000000003Q365.2221,187.04199999999997,365.14639999999997,186.91500000000002Q365.0706,186.789,364.98879999999997,186.66699999999997Q364.907,186.54399999999998,364.8192,186.426Q364.7315,186.30700000000002,364.6381,186.19400000000002Q364.5446,186.07999999999998,364.4457,185.971Q364.34680000000003,185.86200000000002,364.2426,185.757Q364.1385,185.65300000000002,364.0294,185.55399999999997Q363.9202,185.45499999999998,363.8064,185.36200000000002Q363.6925,185.26799999999997,363.5742,185.18099999999998Q363.4559,185.09300000000002,363.3334,185.01100000000002Q363.2109,184.92899999999997,363.0846,184.85399999999998Q362.9583,184.77800000000002,362.8284,184.70800000000003Q362.69849999999997,184.639,362.5653,184.57600000000002Q362.43219999999997,184.51299999999998,362.2961,184.457Q362.15999999999997,184.39999999999998,362.0213,184.351Q361.8827,184.301,361.7417,184.25799999999998Q361.6008,184.216,361.4579,184.18Q361.315,184.144,361.1705,184.115Q361.0261,184.087,360.8804,184.065Q360.7347,184.043,360.5881,184.029Q360.4415,184.014,360.2944,184.007Q360.1473,184,360,184Q359.8527,184,359.7056,184.007Q359.5585,184.014,359.4119,184.029Q359.2653,184.043,359.1196,184.065Q358.9739,184.087,358.8295,184.115Q358.685,184.144,358.5421,184.18Q358.3992,184.216,358.2583,184.25799999999998Q358.1173,184.301,357.9787,184.351Q357.84000000000003,184.39999999999998,357.7039,184.457Q357.56780000000003,184.51299999999998,357.4347,184.57600000000002Q357.30150000000003,184.639,357.1716,184.70800000000003Q357.0417,184.77800000000002,356.9154,184.85399999999998Q356.789,184.92899999999997,356.6666,185.01100000000002Q356.5441,185.09300000000002,356.4258,185.18099999999998Q356.3075,185.26799999999997,356.1936,185.36200000000002Q356.0798,185.45499999999998,355.9706,185.55399999999997Q355.8615,185.65300000000002,355.7574,185.757Q355.65319999999997,185.86200000000002,355.5543,185.971Q355.4554,186.07999999999998,355.3619,186.19400000000002Q355.2685,186.30700000000002,355.1807,186.426Q355.093,186.54399999999998,355.01120000000003,186.66699999999997Q354.9293,186.789,354.85360000000003,186.91500000000002Q354.7779,187.04199999999997,354.7085,187.17200000000003Q354.639,187.301,354.576,187.435Q354.5131,187.56799999999998,354.4567,187.704Q354.4003,187.83999999999997,354.3507,187.97899999999998Q354.3011,188.11700000000002,354.2583,188.25799999999998Q354.2156,188.399,354.1798,188.54199999999997Q354.144,188.685,354.1153,188.829Q354.0865,188.974,354.06489999999997,189.12Q354.0433,189.265,354.0289,189.41199999999998Q354.0145,189.55900000000003,354.0072,189.70600000000002Q354,189.853,354,190L280,190C274.47715,190,270,185.52300000000002,270,180L270,-70C270,-75.52285,274.47715,-80,280,-80Z" fill-rule="evenodd" fill="#FFFFFF" fill-opacity="1"/></g><g transform="matrix(1,-2.2348340067424033e-8,2.2348340067424033e-8,1,-2.2348340067424033e-7,3.352251010113605e-7)"><path d="M15,9.25L15.5,9.25Q15.573869,9.25,15.646318,9.264410999999999Q15.718767,9.278822,15.787013,9.30709Q15.855258,9.335359,15.916678,9.376398Q15.978097,9.417437,16.03033,9.46967Q16.08256,9.521903,16.1236,9.583322Q16.16464,9.644742,16.19291,9.712987Q16.22118,9.781233,16.23559,9.853682Q16.25,9.9261315,16.25,10Q16.25,10.0738685,16.23559,10.146318Q16.22118,10.218767,16.19291,10.287013Q16.16464,10.355258,16.1236,10.416678Q16.08256,10.478097,16.03033,10.53033Q15.978097,10.582563,15.916678,10.623602Q15.855258,10.664641,15.787013,10.69291Q15.718767,10.721178,15.646318,10.735589000000001Q15.573869,10.75,15.5,10.75L15,10.75Q14.9261315,10.75,14.853682,10.735589000000001Q14.781233,10.721178,14.712987,10.69291Q14.644742,10.664641,14.583322,10.623602Q14.521903,10.582563,14.46967,10.53033Q14.417437,10.478097,14.376398,10.416678Q14.335359,10.355258,14.30709,10.287013Q14.278822,10.218767,14.264410999999999,10.146318Q14.25,10.0738685,14.25,10Q14.25,9.9261315,14.264410999999999,9.853682Q14.278822,9.781233,14.30709,9.712987Q14.335359,9.644742,14.376398,9.583322Q14.417437,9.521903,14.46967,9.46967Q14.521903,9.417437,14.583322,9.376398Q14.644742,9.335359,14.712987,9.30709Q14.781233,9.278822,14.853682,9.264410999999999Q14.9261315,9.25,15,9.25ZM20.5,10.75L21.5,10.75Q21.57387,10.75,21.64632,10.735589000000001Q21.71877,10.721178,21.787010000000002,10.69291Q21.85526,10.664641,21.91668,10.623602Q21.9781,10.582563,22.03033,10.53033Q22.08256,10.478097,22.1236,10.416678Q22.16464,10.355258,22.19291,10.287013Q22.22118,10.218767,22.235590000000002,10.146318Q22.25,10.0738685,22.25,10Q22.25,9.9261315,22.235590000000002,9.853682Q22.22118,9.781233,22.19291,9.712987Q22.16464,9.644742,22.1236,9.583322Q22.08256,9.521903,22.03033,9.46967Q21.9781,9.417437,21.91668,9.376398Q21.85526,9.335359,21.787010000000002,9.30709Q21.71877,9.278822,21.64632,9.264410999999999Q21.57387,9.25,21.5,9.25L20.5,9.25Q20.42613,9.25,20.35368,9.264410999999999Q20.28123,9.278822,20.212989999999998,9.30709Q20.14474,9.335359,20.08332,9.376398Q20.0219,9.417437,19.96967,9.46967Q19.91744,9.521903,19.8764,9.583322Q19.83536,9.644742,19.80709,9.712987Q19.77882,9.781233,19.764409999999998,9.853682Q19.75,9.9261315,19.75,10Q19.75,10.0738685,19.764409999999998,10.146318Q19.77882,10.218767,19.80709,10.287013Q19.83536,10.355258,19.8764,10.416678Q19.91744,10.478097,19.96967,10.53033Q20.0219,10.582563,20.08332,10.623602Q20.14474,10.664641,20.212989999999998,10.69291Q20.28123,10.721178,20.35368,10.735589000000001Q20.42613,10.75,20.5,10.75ZM26.5,10.75L27.5,10.75Q27.573900000000002,10.75,27.6463,10.735589000000001Q27.7188,10.721178,27.787,10.69291Q27.8553,10.664641,27.9167,10.623602Q27.978099999999998,10.582563,28.0303,10.53033Q28.0826,10.478097,28.1236,10.416678Q28.1646,10.355258,28.1929,10.287013Q28.2212,10.218767,28.235599999999998,10.146318Q28.25,10.0738685,28.25,10Q28.25,9.9261315,28.235599999999998,9.853682Q28.2212,9.781233,28.1929,9.712987Q28.1646,9.644742,28.1236,9.583322Q28.0826,9.521903,28.0303,9.46967Q27.978099999999998,9.417437,27.9167,9.376398Q27.8553,9.335359,27.787,9.30709Q27.7188,9.278822,27.6463,9.264410999999999Q27.573900000000002,9.25,27.5,9.25L26.5,9.25Q26.426099999999998,9.25,26.3537,9.264410999999999Q26.2812,9.278822,26.213,9.30709Q26.1447,9.335359,26.0833,9.376398Q26.021900000000002,9.417437,25.9697,9.46967Q25.9174,9.521903,25.8764,9.583322Q25.8354,9.644742,25.8071,9.712987Q25.7788,9.781233,25.764400000000002,9.853682Q25.75,9.9261315,25.75,10Q25.75,10.0738685,25.764400000000002,10.146318Q25.7788,10.218767,25.8071,10.287013Q25.8354,10.355258,25.8764,10.416678Q25.9174,10.478097,25.9697,10.53033Q26.021900000000002,10.582563,26.0833,10.623602Q26.1447,10.664641,26.213,10.69291Q26.2812,10.721178,26.3537,10.735589000000001Q26.426099999999998,10.75,26.5,10.75ZM32.5,10.75L33.5,10.75Q33.573899999999995,10.75,33.6463,10.735589000000001Q33.7188,10.721178,33.787,10.69291Q33.8553,10.664641,33.9167,10.623602Q33.9781,10.582563,34.0303,10.53033Q34.0826,10.478097,34.123599999999996,10.416678Q34.1646,10.355258,34.1929,10.287013Q34.221199999999996,10.218767,34.235600000000005,10.146318Q34.25,10.0738685,34.25,10Q34.25,9.9261315,34.235600000000005,9.853682Q34.221199999999996,9.781233,34.1929,9.712987Q34.1646,9.644742,34.123599999999996,9.583322Q34.0826,9.521903,34.0303,9.46967Q33.9781,9.417437,33.9167,9.376398Q33.8553,9.335359,33.787,9.30709Q33.7188,9.278822,33.6463,9.264410999999999Q33.573899999999995,9.25,33.5,9.25L32.5,9.25Q32.426100000000005,9.25,32.3537,9.264410999999999Q32.2812,9.278822,32.213,9.30709Q32.1447,9.335359,32.0833,9.376398Q32.0219,9.417437,31.9697,9.46967Q31.9174,9.521903,31.8764,9.583322Q31.8354,9.644742,31.8071,9.712987Q31.7788,9.781233,31.7644,9.853682Q31.75,9.9261315,31.75,10Q31.75,10.0738685,31.7644,10.146318Q31.7788,10.218767,31.8071,10.287013Q31.8354,10.355258,31.8764,10.416678Q31.9174,10.478097,31.9697,10.53033Q32.0219,10.582563,32.0833,10.623602Q32.1447,10.664641,32.213,10.69291Q32.2812,10.721178,32.3537,10.735589000000001Q32.426100000000005,10.75,32.5,10.75ZM38.5,10.75L39.5,10.75Q39.573899999999995,10.75,39.6463,10.735589000000001Q39.7188,10.721178,39.787,10.69291Q39.8553,10.664641,39.9167,10.623602Q39.9781,10.582563,40.0303,10.53033Q40.0826,10.478097,40.123599999999996,10.416678Q40.1646,10.355258,40.1929,10.287013Q40.221199999999996,10.218767,40.235600000000005,10.146318Q40.25,10.0738685,40.25,10Q40.25,9.9261315,40.235600000000005,9.853682Q40.221199999999996,9.781233,40.1929,9.712987Q40.1646,9.644742,40.123599999999996,9.583322Q40.0826,9.521903,40.0303,9.46967Q39.9781,9.417437,39.9167,9.376398Q39.8553,9.335359,39.787,9.30709Q39.7188,9.278822,39.6463,9.264410999999999Q39.573899999999995,9.25,39.5,9.25L38.5,9.25Q38.426100000000005,9.25,38.3537,9.264410999999999Q38.2812,9.278822,38.213,9.30709Q38.1447,9.335359,38.0833,9.376398Q38.0219,9.417437,37.9697,9.46967Q37.9174,9.521903,37.876400000000004,9.583322Q37.8354,9.644742,37.8071,9.712987Q37.778800000000004,9.781233,37.764399999999995,9.853682Q37.75,9.9261315,37.75,10Q37.75,10.0738685,37.764399999999995,10.146318Q37.778800000000004,10.218767,37.8071,10.287013Q37.8354,10.355258,37.876400000000004,10.416678Q37.9174,10.478097,37.9697,10.53033Q38.0219,10.582563,38.0833,10.623602Q38.1447,10.664641,38.213,10.69291Q38.2812,10.721178,38.3537,10.735589000000001Q38.426100000000005,10.75,38.5,10.75ZM44.5,10.75L45.5,10.75Q45.573899999999995,10.75,45.6463,10.735589000000001Q45.7188,10.721178,45.787,10.69291Q45.8553,10.664641,45.9167,10.623602Q45.9781,10.582563,46.0303,10.53033Q46.0826,10.478097,46.123599999999996,10.416678Q46.1646,10.355258,46.1929,10.287013Q46.221199999999996,10.218767,46.235600000000005,10.146318Q46.25,10.0738685,46.25,10Q46.25,9.9261315,46.235600000000005,9.853682Q46.221199999999996,9.781233,46.1929,9.712987Q46.1646,9.644742,46.123599999999996,9.583322Q46.0826,9.521903,46.0303,9.46967Q45.9781,9.417437,45.9167,9.376398Q45.8553,9.335359,45.787,9.30709Q45.7188,9.278822,45.6463,9.264410999999999Q45.573899999999995,9.25,45.5,9.25L44.5,9.25Q44.426100000000005,9.25,44.3537,9.264410999999999Q44.2812,9.278822,44.213,9.30709Q44.1447,9.335359,44.0833,9.376398Q44.0219,9.417437,43.9697,9.46967Q43.9174,9.521903,43.876400000000004,9.583322Q43.8354,9.644742,43.8071,9.712987Q43.778800000000004,9.781233,43.764399999999995,9.853682Q43.75,9.9261315,43.75,10Q43.75,10.0738685,43.764399999999995,10.146318Q43.778800000000004,10.218767,43.8071,10.287013Q43.8354,10.355258,43.876400000000004,10.416678Q43.9174,10.478097,43.9697,10.53033Q44.0219,10.582563,44.0833,10.623602Q44.1447,10.664641,44.213,10.69291Q44.2812,10.721178,44.3537,10.735589000000001Q44.426100000000005,10.75,44.5,10.75ZM50.5,10.75L51.5,10.75Q51.5739,10.75,51.6463,10.735589000000001Q51.7188,10.721178,51.787,10.69291Q51.8553,10.664641,51.9167,10.623602Q51.9781,10.582563,52.0303,10.53033Q52.0826,10.478097,52.1236,10.416678Q52.1646,10.355258,52.1929,10.287013Q52.2212,10.218767,52.2356,10.146318Q52.25,10.0738685,52.25,10Q52.25,9.9261315,52.2356,9.853682Q52.2212,9.781233,52.1929,9.712987Q52.1646,9.644742,52.1236,9.583322Q52.0826,9.521903,52.0303,9.46967Q51.9781,9.417437,51.9167,9.376398Q51.8553,9.335359,51.787,9.30709Q51.7188,9.278822,51.6463,9.264410999999999Q51.5739,9.25,51.5,9.25L50.5,9.25Q50.4261,9.25,50.3537,9.264410999999999Q50.2812,9.278822,50.213,9.30709Q50.1447,9.335359,50.0833,9.376398Q50.0219,9.417437,49.9697,9.46967Q49.9174,9.521903,49.8764,9.583322Q49.8354,9.644742,49.8071,9.712987Q49.7788,9.781233,49.7644,9.853682Q49.75,9.9261315,49.75,10Q49.75,10.0738685,49.7644,10.146318Q49.7788,10.218767,49.8071,10.287013Q49.8354,10.355258,49.8764,10.416678Q49.9174,10.478097,49.9697,10.53033Q50.0219,10.582563,50.0833,10.623602Q50.1447,10.664641,50.213,10.69291Q50.2812,10.721178,50.3537,10.735589000000001Q50.4261,10.75,50.5,10.75ZM56.5,10.75L57.5,10.75Q57.5739,10.75,57.6463,10.735589000000001Q57.7188,10.721178,57.787,10.69291Q57.8553,10.664641,57.9167,10.623602Q57.9781,10.582563,58.0303,10.53033Q58.0826,10.478097,58.1236,10.416678Q58.1646,10.355258,58.1929,10.287013Q58.2212,10.218767,58.2356,10.146318Q58.25,10.0738685,58.25,10Q58.25,9.9261315,58.2356,9.853682Q58.2212,9.781233,58.1929,9.712987Q58.1646,9.644742,58.1236,9.583322Q58.0826,9.521903,58.0303,9.46967Q57.9781,9.417437,57.9167,9.376398Q57.8553,9.335359,57.787,9.30709Q57.7188,9.278822,57.6463,9.264410999999999Q57.5739,9.25,57.5,9.25L56.5,9.25Q56.4261,9.25,56.3537,9.264410999999999Q56.2812,9.278822,56.213,9.30709Q56.1447,9.335359,56.0833,9.376398Q56.0219,9.417437,55.9697,9.46967Q55.9174,9.521903,55.8764,9.583322Q55.8354,9.644742,55.8071,9.712987Q55.7788,9.781233,55.7644,9.853682Q55.75,9.9261315,55.75,10Q55.75,10.0738685,55.7644,10.146318Q55.7788,10.218767,55.8071,10.287013Q55.8354,10.355258,55.8764,10.416678Q55.9174,10.478097,55.9697,10.53033Q56.0219,10.582563,56.0833,10.623602Q56.1447,10.664641,56.213,10.69291Q56.2812,10.721178,56.3537,10.735589000000001Q56.4261,10.75,56.5,10.75ZM62.5,10.75L63.5,10.75Q63.5739,10.75,63.6463,10.735589000000001Q63.7188,10.721178,63.787,10.69291Q63.8553,10.664641,63.9167,10.623602Q63.9781,10.582563,64.0303,10.53033Q64.0826,10.478097,64.12360000000001,10.416678Q64.16460000000001,10.355258,64.19290000000001,10.287013Q64.22120000000001,10.218767,64.2356,10.146318Q64.25,10.0738685,64.25,10Q64.25,9.9261315,64.2356,9.853682Q64.22120000000001,9.781233,64.19290000000001,9.712987Q64.16460000000001,9.644742,64.12360000000001,9.583322Q64.0826,9.521903,64.0303,9.46967Q63.9781,9.417437,63.9167,9.376398Q63.8553,9.335359,63.787,9.30709Q63.7188,9.278822,63.6463,9.264410999999999Q63.5739,9.25,63.5,9.25L62.5,9.25Q62.4261,9.25,62.3537,9.264410999999999Q62.2812,9.278822,62.213,9.30709Q62.1447,9.335359,62.0833,9.376398Q62.0219,9.417437,61.9697,9.46967Q61.9174,9.521903,61.8764,9.583322Q61.8354,9.644742,61.8071,9.712987Q61.7788,9.781233,61.7644,9.853682Q61.75,9.9261315,61.75,10Q61.75,10.0738685,61.7644,10.146318Q61.7788,10.218767,61.8071,10.287013Q61.8353,10.355258,61.8764,10.416678Q61.9174,10.478097,61.9697,10.53033Q62.0219,10.582563,62.0833,10.623602Q62.1447,10.664641,62.213,10.69291Q62.2812,10.721178,62.3537,10.735589000000001Q62.4261,10.75,62.5,10.75ZM68.5,10.75L69.5,10.75Q69.57390000000001,10.75,69.6463,10.735589000000001Q69.7188,10.721178,69.787,10.69291Q69.8553,10.664641,69.91669999999999,10.623602Q69.9781,10.582563,70.0303,10.53033Q70.0826,10.478097,70.12360000000001,10.416678Q70.16460000000001,10.355258,70.19290000000001,10.287013Q70.22120000000001,10.218767,70.2356,10.146318Q70.25,10.0738685,70.25,10Q70.25,9.9261315,70.2356,9.853682Q70.22120000000001,9.781233,70.19290000000001,9.712987Q70.16460000000001,9.644742,70.12360000000001,9.583322Q70.0826,9.521903,70.0303,9.46967Q69.9781,9.417437,69.91669999999999,9.376398Q69.8553,9.335359,69.787,9.30709Q69.7188,9.278822,69.6463,9.264410999999999Q69.57390000000001,9.25,69.5,9.25L68.5,9.25Q68.42609999999999,9.25,68.3537,9.264410999999999Q68.2812,9.278822,68.213,9.30709Q68.1447,9.335359,68.08330000000001,9.376398Q68.0219,9.417437,67.9697,9.46967Q67.9174,9.521903,67.87639999999999,9.583322Q67.83539999999999,9.644742,67.80709999999999,9.712987Q67.77879999999999,9.781233,67.7644,9.853682Q67.75,9.9261315,67.75,10Q67.75,10.0738685,67.7644,10.146318Q67.77879999999999,10.218767,67.80709999999999,10.287013Q67.83539999999999,10.355258,67.87639999999999,10.416678Q67.9174,10.478097,67.9697,10.53033Q68.0219,10.582563,68.08330000000001,10.623602Q68.1447,10.664641,68.213,10.69291Q68.2812,10.721178,68.3537,10.735589000000001Q68.42609999999999,10.75,68.5,10.75ZM74.5,10.75L75.5,10.75Q75.57390000000001,10.75,75.6463,10.735589000000001Q75.7188,10.721178,75.787,10.69291Q75.8552,10.664641,75.91669999999999,10.623602Q75.9781,10.582563,76.0303,10.53033Q76.0826,10.478097,76.12360000000001,10.416678Q76.16460000000001,10.355258,76.19290000000001,10.287013Q76.22120000000001,10.218767,76.2356,10.146318Q76.25,10.0738685,76.25,10Q76.25,9.9261315,76.2356,9.853682Q76.22120000000001,9.781233,76.19290000000001,9.712987Q76.16460000000001,9.644742,76.12360000000001,9.583322Q76.0826,9.521903,76.0303,9.46967Q75.9781,9.417437,75.91669999999999,9.376398Q75.8552,9.335359,75.787,9.30709Q75.7188,9.278822,75.6463,9.264410999999999Q75.57390000000001,9.25,75.5,9.25L74.5,9.25Q74.42609999999999,9.25,74.3537,9.264410999999999Q74.2812,9.278822,74.213,9.30709Q74.1447,9.335359,74.08330000000001,9.376398Q74.0219,9.417437,73.9697,9.46967Q73.9174,9.521903,73.87639999999999,9.583322Q73.83539999999999,9.644742,73.80709999999999,9.712987Q73.77879999999999,9.781233,73.7644,9.853682Q73.75,9.9261315,73.75,10Q73.75,10.0738685,73.7644,10.146318Q73.77879999999999,10.218767,73.80709999999999,10.287013Q73.83539999999999,10.355258,73.87639999999999,10.416678Q73.9174,10.478097,73.9697,10.53033Q74.0219,10.582563,74.08330000000001,10.623602Q74.1447,10.664641,74.213,10.69291Q74.2812,10.721178,74.3537,10.735589000000001Q74.42609999999999,10.75,74.5,10.75ZM80.5,10.75L81.5,10.75Q81.5739,10.75,81.6463,10.735589000000001Q81.7188,10.721178,81.787,10.69291Q81.8553,10.664641,81.9167,10.623602Q81.9781,10.582563,82.0303,10.53033Q82.0826,10.478097,82.1236,10.416678Q82.1646,10.355258,82.1929,10.287013Q82.2212,10.218767,82.2356,10.146318Q82.25,10.0738685,82.25,10Q82.25,9.9261315,82.2356,9.853682Q82.2212,9.781233,82.1929,9.712987Q82.1646,9.644742,82.1236,9.583322Q82.0826,9.521903,82.0303,9.46967Q81.9781,9.417437,81.9167,9.376398Q81.8553,9.335359,81.787,9.30709Q81.7188,9.278822,81.6463,9.264410999999999Q81.5739,9.25,81.5,9.25L80.5,9.25Q80.4261,9.25,80.3537,9.264410999999999Q80.2812,9.278822,80.213,9.30709Q80.1447,9.335359,80.0833,9.376398Q80.0219,9.417437,79.9697,9.46967Q79.9174,9.521903,79.8764,9.583322Q79.8354,9.644742,79.8071,9.712987Q79.7788,9.781233,79.7644,9.853682Q79.75,9.9261315,79.75,10Q79.75,10.0738685,79.7644,10.146318Q79.7788,10.218767,79.8071,10.287013Q79.8354,10.355258,79.8764,10.416678Q79.9174,10.478097,79.9697,10.53033Q80.0219,10.582563,80.0833,10.623602Q80.1447,10.664641,80.213,10.69291Q80.2812,10.721178,80.3537,10.735589000000001Q80.4261,10.75,80.5,10.75ZM86.5,10.75L87.5,10.75Q87.5739,10.75,87.6463,10.735589000000001Q87.7188,10.721178,87.787,10.69291Q87.8552,10.664641,87.9167,10.623602Q87.9781,10.582563,88.0303,10.53033Q88.0826,10.478097,88.1236,10.416678Q88.1646,10.355258,88.1929,10.287013Q88.2212,10.218767,88.2356,10.146318Q88.25,10.0738685,88.25,10Q88.25,9.9261315,88.2356,9.853682Q88.2212,9.781233,88.1929,9.712987Q88.1646,9.644742,88.1236,9.583322Q88.0826,9.521903,88.0303,9.46967Q87.9781,9.417437,87.9167,9.376398Q87.8552,9.335359,87.787,9.30709Q87.7188,9.278822,87.6463,9.264410999999999Q87.5739,9.25,87.5,9.25L86.5,9.25Q86.4261,9.25,86.3537,9.264410999999999Q86.2812,9.278822,86.213,9.30709Q86.1447,9.335359,86.0833,9.376398Q86.0219,9.417437,85.9697,9.46967Q85.9174,9.521903,85.8764,9.583322Q85.8354,9.644742,85.8071,9.712987Q85.7788,9.781233,85.7644,9.853682Q85.75,9.9261315,85.75,10Q85.75,10.0738685,85.7644,10.146318Q85.7788,10.218767,85.8071,10.287013Q85.8354,10.355258,85.8764,10.416678Q85.9174,10.478097,85.9697,10.53033Q86.0219,10.582563,86.0833,10.623602Q86.1447,10.664641,86.213,10.69291Q86.2812,10.721178,86.3537,10.735589000000001Q86.4261,10.75,86.5,10.75ZM92.5,10.75L93.5,10.75Q93.5739,10.75,93.6463,10.735589000000001Q93.7188,10.721178,93.787,10.69291Q93.8552,10.664641,93.9167,10.623602Q93.9781,10.582563,94.0303,10.53033Q94.0826,10.478097,94.1236,10.416678Q94.1646,10.355258,94.1929,10.287013Q94.2212,10.218767,94.2356,10.146318Q94.25,10.0738685,94.25,10Q94.25,9.9261315,94.2356,9.853682Q94.2212,9.781233,94.1929,9.712987Q94.1646,9.644742,94.1236,9.583322Q94.0826,9.521903,94.0303,9.46967Q93.9781,9.417437,93.9167,9.376398Q93.8552,9.335359,93.787,9.30709Q93.7188,9.278822,93.6463,9.264410999999999Q93.5739,9.25,93.5,9.25L92.5,9.25Q92.4261,9.25,92.3537,9.264410999999999Q92.2812,9.278822,92.213,9.30709Q92.1447,9.335359,92.0833,9.376398Q92.0219,9.417437,91.9697,9.46967Q91.9174,9.521903,91.8764,9.583322Q91.8353,9.644742,91.8071,9.712987Q91.7788,9.781233,91.7644,9.853682Q91.75,9.9261315,91.75,10Q91.75,10.0738685,91.7644,10.146318Q91.7788,10.218767,91.8071,10.287013Q91.8353,10.355258,91.8764,10.416678Q91.9174,10.478097,91.9697,10.53033Q92.0219,10.582563,92.0833,10.623602Q92.1447,10.664641,92.213,10.69291Q92.2812,10.721178,92.3537,10.735589000000001Q92.4261,10.75,92.5,10.75ZM98.5,10.75L99.5,10.75Q99.5739,10.75,99.6463,10.735589000000001Q99.7188,10.721178,99.787,10.69291Q99.8552,10.664641,99.9167,10.623602Q99.9781,10.582563,100.0303,10.53033Q100.0826,10.478097,100.1236,10.416678Q100.1646,10.355258,100.1929,10.287013Q100.2212,10.218767,100.2356,10.146318Q100.25,10.0738685,100.25,10Q100.25,9.9261315,100.2356,9.853682Q100.2212,9.781233,100.1929,9.712987Q100.1646,9.644742,100.1236,9.583322Q100.0826,9.521903,100.0303,9.46967Q99.9781,9.417437,99.9167,9.376398Q99.8552,9.335359,99.787,9.30709Q99.7188,9.278822,99.6463,9.264410999999999Q99.5739,9.25,99.5,9.25L98.5,9.25Q98.4261,9.25,98.3537,9.264410999999999Q98.2812,9.278822,98.213,9.30709Q98.1447,9.335359,98.0833,9.376398Q98.0219,9.417437,97.9697,9.46967Q97.9174,9.521903,97.8764,9.583322Q97.8354,9.644742,97.8071,9.712987Q97.7788,9.781233,97.7644,9.853682Q97.75,9.9261315,97.75,10Q97.75,10.0738685,97.7644,10.146318Q97.7788,10.218767,97.8071,10.287013Q97.8354,10.355258,97.8764,10.416678Q97.9174,10.478097,97.9697,10.53033Q98.0219,10.582563,98.0833,10.623602Q98.1447,10.664641,98.213,10.69291Q98.2812,10.721178,98.3537,10.735589000000001Q98.4261,10.75,98.5,10.75ZM104.5,10.75L105.5,10.75Q105.5739,10.75,105.6463,10.735589000000001Q105.7188,10.721178,105.787,10.69291Q105.8552,10.664641,105.9167,10.623602Q105.9781,10.582563,106.0303,10.53033Q106.0826,10.478097,106.1236,10.416678Q106.1646,10.355258,106.1929,10.287013Q106.2212,10.218767,106.2356,10.146318Q106.25,10.0738685,106.25,10Q106.25,9.9261315,106.2356,9.853682Q106.2212,9.781233,106.1929,9.712987Q106.1646,9.644742,106.1236,9.583322Q106.0826,9.521903,106.0303,9.46967Q105.9781,9.417437,105.9167,9.376398Q105.8552,9.335359,105.787,9.30709Q105.7188,9.278822,105.6463,9.264410999999999Q105.5739,9.25,105.5,9.25L104.5,9.25Q104.4261,9.25,104.3537,9.264410999999999Q104.2812,9.278822,104.213,9.30709Q104.1447,9.335359,104.0833,9.376398Q104.0219,9.417437,103.9697,9.46967Q103.9174,9.521903,103.8764,9.583322Q103.8353,9.644742,103.8071,9.712987Q103.7788,9.781233,103.7644,9.853682Q103.75,9.9261315,103.75,10Q103.75,10.0738685,103.7644,10.146318Q103.7788,10.218767,103.8071,10.287013Q103.8353,10.355258,103.8764,10.416678Q103.9174,10.478097,103.9697,10.53033Q104.0219,10.582563,104.0833,10.623602Q104.1447,10.664641,104.213,10.69291Q104.2812,10.721178,104.3537,10.735589000000001Q104.4261,10.75,104.5,10.75ZM110.5,10.75L111.5,10.75Q111.5739,10.75,111.6463,10.735589000000001Q111.7188,10.721178,111.787,10.69291Q111.8552,10.664641,111.9167,10.623602Q111.9781,10.582563,112.0303,10.53033Q112.0826,10.478097,112.1236,10.416678Q112.1646,10.355258,112.1929,10.287013Q112.2212,10.218767,112.2356,10.146318Q112.25,10.0738685,112.25,10Q112.25,9.9261315,112.2356,9.853682Q112.2212,9.781233,112.1929,9.712987Q112.1646,9.644742,112.1236,9.583322Q112.0826,9.521903,112.0303,9.46967Q111.9781,9.417437,111.9167,9.376398Q111.8552,9.335359,111.787,9.30709Q111.7188,9.278822,111.6463,9.264410999999999Q111.5739,9.25,111.5,9.25L110.5,9.25Q110.4261,9.25,110.3537,9.264410999999999Q110.2812,9.278822,110.213,9.30709Q110.1447,9.335359,110.0833,9.376398Q110.0219,9.417437,109.9697,9.46967Q109.9174,9.521903,109.8764,9.583322Q109.8353,9.644742,109.8071,9.712987Q109.7788,9.781233,109.7644,9.853682Q109.75,9.9261315,109.75,10Q109.75,10.0738685,109.7644,10.146318Q109.7788,10.218767,109.8071,10.287013Q109.8353,10.355258,109.8764,10.416678Q109.9174,10.478097,109.9697,10.53033Q110.0219,10.582563,110.0833,10.623602Q110.1447,10.664641,110.213,10.69291Q110.2812,10.721178,110.3537,10.735589000000001Q110.4261,10.75,110.5,10.75ZM116.5,10.75L117.5,10.75Q117.574,10.75,117.646,10.735589000000001Q117.719,10.721178,117.787,10.69291Q117.855,10.664641,117.917,10.623602Q117.978,10.582563,118.03,10.53033Q118.083,10.478097,118.124,10.416678Q118.165,10.355258,118.193,10.287013Q118.221,10.218767,118.236,10.146318Q118.25,10.0738685,118.25,10Q118.25,9.9261315,118.236,9.853682Q118.221,9.781233,118.193,9.712987Q118.165,9.644742,118.124,9.583322Q118.083,9.521903,118.03,9.46967Q117.978,9.417437,117.917,9.376398Q117.855,9.335359,117.787,9.30709Q117.719,9.278822,117.646,9.264410999999999Q117.574,9.25,117.5,9.25L116.5,9.25Q116.426,9.25,116.354,9.264410999999999Q116.281,9.278822,116.213,9.30709Q116.145,9.335359,116.083,9.376398Q116.022,9.417437,115.97,9.46967Q115.917,9.521903,115.876,9.583322Q115.835,9.644742,115.807,9.712987Q115.779,9.781233,115.764,9.853682Q115.75,9.9261315,115.75,10Q115.75,10.0738685,115.764,10.146318Q115.779,10.218767,115.807,10.287013Q115.835,10.355258,115.876,10.416678Q115.917,10.478097,115.97,10.53033Q116.022,10.582563,116.083,10.623602Q116.145,10.664641,116.213,10.69291Q116.281,10.721178,116.354,10.735589000000001Q116.426,10.75,116.5,10.75ZM122.5,10.75L123.5,10.75Q123.574,10.75,123.646,10.735589000000001Q123.719,10.721178,123.787,10.69291Q123.855,10.664641,123.917,10.623602Q123.978,10.582563,124.03,10.53033Q124.083,10.478097,124.124,10.416678Q124.165,10.355258,124.193,10.287013Q124.221,10.218767,124.236,10.146318Q124.25,10.0738685,124.25,10Q124.25,9.9261315,124.236,9.853682Q124.221,9.781233,124.193,9.712987Q124.165,9.644742,124.124,9.583322Q124.083,9.521903,124.03,9.46967Q123.978,9.417437,123.917,9.376398Q123.855,9.335359,123.787,9.30709Q123.719,9.278822,123.646,9.264410999999999Q123.574,9.25,123.5,9.25L122.5,9.25Q122.426,9.25,122.354,9.264410999999999Q122.281,9.278822,122.213,9.30709Q122.145,9.335359,122.083,9.376398Q122.022,9.417437,121.97,9.46967Q121.917,9.521903,121.876,9.583322Q121.835,9.644742,121.807,9.712987Q121.779,9.781233,121.764,9.853682Q121.75,9.9261315,121.75,10Q121.75,10.0738685,121.764,10.146318Q121.779,10.218767,121.807,10.287013Q121.835,10.355258,121.876,10.416678Q121.917,10.478097,121.97,10.53033Q122.022,10.582563,122.083,10.623602Q122.145,10.664641,122.213,10.69291Q122.281,10.721178,122.354,10.735589000000001Q122.426,10.75,122.5,10.75ZM128.5,10.75L129.5,10.75Q129.574,10.75,129.64600000000002,10.735589000000001Q129.719,10.721178,129.787,10.69291Q129.85500000000002,10.664641,129.917,10.623602Q129.978,10.582563,130.03,10.53033Q130.083,10.478097,130.124,10.416678Q130.16500000000002,10.355258,130.19299999999998,10.287013Q130.221,10.218767,130.236,10.146318Q130.25,10.0738685,130.25,10Q130.25,9.9261315,130.236,9.853682Q130.221,9.781233,130.19299999999998,9.712987Q130.16500000000002,9.644742,130.124,9.583322Q130.083,9.521903,130.03,9.46967Q129.978,9.417437,129.917,9.376398Q129.85500000000002,9.335359,129.787,9.30709Q129.719,9.278822,129.64600000000002,9.264410999999999Q129.574,9.25,129.5,9.25L128.5,9.25Q128.426,9.25,128.35399999999998,9.264410999999999Q128.281,9.278822,128.213,9.30709Q128.14499999999998,9.335359,128.083,9.376398Q128.022,9.417437,127.97,9.46967Q127.917,9.521903,127.876,9.583322Q127.835,9.644742,127.807,9.712987Q127.779,9.781233,127.764,9.853682Q127.75,9.9261315,127.75,10Q127.75,10.0738685,127.764,10.146318Q127.779,10.218767,127.807,10.287013Q127.835,10.355258,127.876,10.416678Q127.917,10.478097,127.97,10.53033Q128.022,10.582563,128.083,10.623602Q128.14499999999998,10.664641,128.213,10.69291Q128.281,10.721178,128.35399999999998,10.735589000000001Q128.426,10.75,128.5,10.75ZM134.5,10.75L135.5,10.75Q135.574,10.75,135.64600000000002,10.735589000000001Q135.719,10.721178,135.787,10.69291Q135.85500000000002,10.664641,135.917,10.623602Q135.978,10.582563,136.03,10.53033Q136.083,10.478097,136.124,10.416678Q136.16500000000002,10.355258,136.19299999999998,10.287013Q136.221,10.218767,136.236,10.146318Q136.25,10.0738685,136.25,10Q136.25,9.9261315,136.236,9.853682Q136.221,9.781233,136.19299999999998,9.712987Q136.16500000000002,9.644742,136.124,9.583322Q136.083,9.521903,136.03,9.46967Q135.978,9.417437,135.917,9.376398Q135.85500000000002,9.335359,135.787,9.30709Q135.719,9.278822,135.64600000000002,9.264410999999999Q135.574,9.25,135.5,9.25L134.5,9.25Q134.426,9.25,134.35399999999998,9.264410999999999Q134.281,9.278822,134.213,9.30709Q134.14499999999998,9.335359,134.083,9.376398Q134.022,9.417437,133.97,9.46967Q133.917,9.521903,133.876,9.583322Q133.83499999999998,9.644742,133.80700000000002,9.712987Q133.779,9.781233,133.764,9.853682Q133.75,9.9261315,133.75,10Q133.75,10.0738685,133.764,10.146318Q133.779,10.218767,133.80700000000002,10.287013Q133.83499999999998,10.355258,133.876,10.416678Q133.917,10.478097,133.97,10.53033Q134.022,10.582563,134.083,10.623602Q134.14499999999998,10.664641,134.213,10.69291Q134.281,10.721178,134.35399999999998,10.735589000000001Q134.426,10.75,134.5,10.75ZM140.5,10.75L141.5,10.75Q141.574,10.75,141.64600000000002,10.735589000000001Q141.719,10.721178,141.787,10.69291Q141.85500000000002,10.664641,141.917,10.623602Q141.978,10.582563,142.03,10.53033Q142.083,10.478097,142.124,10.416678Q142.16500000000002,10.355258,142.19299999999998,10.287013Q142.221,10.218767,142.236,10.146318Q142.25,10.0738685,142.25,10Q142.25,9.9261315,142.236,9.853682Q142.221,9.781233,142.19299999999998,9.712987Q142.16500000000002,9.644742,142.124,9.583322Q142.083,9.521903,142.03,9.46967Q141.978,9.417437,141.917,9.376398Q141.85500000000002,9.335359,141.787,9.30709Q141.719,9.278822,141.64600000000002,9.264410999999999Q141.574,9.25,141.5,9.25L140.5,9.25Q140.426,9.25,140.35399999999998,9.264410999999999Q140.281,9.278822,140.213,9.30709Q140.14499999999998,9.335359,140.083,9.376398Q140.022,9.417437,139.97,9.46967Q139.917,9.521903,139.876,9.583322Q139.83499999999998,9.644742,139.80700000000002,9.712987Q139.779,9.781233,139.764,9.853682Q139.75,9.9261315,139.75,10Q139.75,10.0738685,139.764,10.146318Q139.779,10.218767,139.80700000000002,10.287013Q139.83499999999998,10.355258,139.876,10.416678Q139.917,10.478097,139.97,10.53033Q140.022,10.582563,140.083,10.623602Q140.14499999999998,10.664641,140.213,10.69291Q140.281,10.721178,140.35399999999998,10.735589000000001Q140.426,10.75,140.5,10.75ZM146.5,10.75L147.5,10.75Q147.574,10.75,147.646,10.735589000000001Q147.719,10.721178,147.787,10.69291Q147.855,10.664641,147.917,10.623602Q147.978,10.582563,148.03,10.53033Q148.083,10.478097,148.124,10.416678Q148.165,10.355258,148.193,10.287013Q148.221,10.218767,148.236,10.146318Q148.25,10.0738685,148.25,10Q148.25,9.9261315,148.236,9.853682Q148.221,9.781233,148.193,9.712987Q148.165,9.644742,148.124,9.583322Q148.083,9.521903,148.03,9.46967Q147.978,9.417437,147.917,9.376398Q147.855,9.335359,147.787,9.30709Q147.719,9.278822,147.646,9.264410999999999Q147.574,9.25,147.5,9.25L146.5,9.25Q146.426,9.25,146.354,9.264410999999999Q146.281,9.278822,146.213,9.30709Q146.145,9.335359,146.083,9.376398Q146.022,9.417437,145.97,9.46967Q145.917,9.521903,145.876,9.583322Q145.835,9.644742,145.807,9.712987Q145.779,9.781233,145.764,9.853682Q145.75,9.9261315,145.75,10Q145.75,10.0738685,145.764,10.146318Q145.779,10.218767,145.807,10.287013Q145.835,10.355258,145.876,10.416678Q145.917,10.478097,145.97,10.53033Q146.022,10.582563,146.083,10.623602Q146.145,10.664641,146.213,10.69291Q146.281,10.721178,146.354,10.735589000000001Q146.426,10.75,146.5,10.75ZM152.5,10.75L153.5,10.75Q153.574,10.75,153.646,10.735589000000001Q153.719,10.721178,153.787,10.69291Q153.855,10.664641,153.917,10.623602Q153.978,10.582563,154.03,10.53033Q154.083,10.478097,154.124,10.416678Q154.165,10.355258,154.193,10.287013Q154.221,10.218767,154.236,10.146318Q154.25,10.0738685,154.25,10Q154.25,9.9261315,154.236,9.853682Q154.221,9.781233,154.193,9.712987Q154.165,9.644742,154.124,9.583322Q154.083,9.521903,154.03,9.46967Q153.978,9.417437,153.917,9.376398Q153.855,9.335359,153.787,9.30709Q153.719,9.278822,153.646,9.264410999999999Q153.574,9.25,153.5,9.25L152.5,9.25Q152.426,9.25,152.354,9.264410999999999Q152.281,9.278822,152.213,9.30709Q152.145,9.335359,152.083,9.376398Q152.022,9.417437,151.97,9.46967Q151.917,9.521903,151.876,9.583322Q151.835,9.644742,151.807,9.712987Q151.779,9.781233,151.764,9.853682Q151.75,9.9261315,151.75,10Q151.75,10.0738685,151.764,10.146318Q151.779,10.218767,151.807,10.287013Q151.835,10.355258,151.876,10.416678Q151.917,10.478097,151.97,10.53033Q152.022,10.582563,152.083,10.623602Q152.145,10.664641,152.213,10.69291Q152.281,10.721178,152.354,10.735589000000001Q152.426,10.75,152.5,10.75ZM158.5,10.75L159.5,10.75Q159.574,10.75,159.646,10.735589000000001Q159.719,10.721178,159.787,10.69291Q159.855,10.664641,159.917,10.623602Q159.978,10.582563,160.03,10.53033Q160.083,10.478097,160.124,10.416678Q160.165,10.355258,160.193,10.287013Q160.221,10.218767,160.236,10.146318Q160.25,10.0738685,160.25,10Q160.25,9.9261315,160.236,9.853682Q160.221,9.781233,160.193,9.712987Q160.165,9.644742,160.124,9.583322Q160.083,9.521903,160.03,9.46967Q159.978,9.417437,159.917,9.376398Q159.855,9.335359,159.787,9.30709Q159.719,9.278822,159.646,9.264410999999999Q159.574,9.25,159.5,9.25L158.5,9.25Q158.426,9.25,158.354,9.264410999999999Q158.281,9.278822,158.213,9.30709Q158.145,9.335359,158.083,9.376398Q158.022,9.417437,157.97,9.46967Q157.917,9.521903,157.876,9.583322Q157.835,9.644742,157.807,9.712987Q157.779,9.781233,157.764,9.853682Q157.75,9.9261315,157.75,10Q157.75,10.0738685,157.764,10.146318Q157.779,10.218767,157.807,10.287013Q157.835,10.355258,157.876,10.416678Q157.917,10.478097,157.97,10.53033Q158.022,10.582563,158.083,10.623602Q158.145,10.664641,158.213,10.69291Q158.281,10.721178,158.354,10.735589000000001Q158.426,10.75,158.5,10.75ZM164.5,10.75L165.5,10.75Q165.574,10.75,165.646,10.735589000000001Q165.719,10.721178,165.787,10.69291Q165.855,10.664641,165.917,10.623602Q165.978,10.582563,166.03,10.53033Q166.083,10.478097,166.124,10.416678Q166.165,10.355258,166.193,10.287013Q166.221,10.218767,166.236,10.146318Q166.25,10.0738685,166.25,10Q166.25,9.9261315,166.236,9.853682Q166.221,9.781233,166.193,9.712987Q166.165,9.644742,166.124,9.583322Q166.083,9.521903,166.03,9.46967Q165.978,9.417437,165.917,9.376398Q165.855,9.335359,165.787,9.30709Q165.719,9.278822,165.646,9.264410999999999Q165.574,9.25,165.5,9.25L164.5,9.25Q164.426,9.25,164.354,9.264410999999999Q164.281,9.278822,164.213,9.30709Q164.145,9.335359,164.083,9.376398Q164.022,9.417437,163.97,9.46967Q163.917,9.521903,163.876,9.583322Q163.835,9.644742,163.807,9.712987Q163.779,9.781233,163.764,9.853682Q163.75,9.9261315,163.75,10Q163.75,10.0738685,163.764,10.146318Q163.779,10.218767,163.807,10.287013Q163.835,10.355258,163.876,10.416678Q163.917,10.478097,163.97,10.53033Q164.022,10.582563,164.083,10.623602Q164.145,10.664641,164.213,10.69291Q164.281,10.721178,164.354,10.735589000000001Q164.426,10.75,164.5,10.75ZM170.5,10.75L171.5,10.75Q171.574,10.75,171.646,10.735589000000001Q171.719,10.721178,171.787,10.69291Q171.855,10.664641,171.917,10.623602Q171.978,10.582563,172.03,10.53033Q172.083,10.478097,172.124,10.416678Q172.165,10.355258,172.193,10.287013Q172.221,10.218767,172.236,10.146318Q172.25,10.0738685,172.25,10Q172.25,9.9261315,172.236,9.853682Q172.221,9.781233,172.193,9.712987Q172.165,9.644742,172.124,9.583322Q172.083,9.521903,172.03,9.46967Q171.978,9.417437,171.917,9.376398Q171.855,9.335359,171.787,9.30709Q171.719,9.278822,171.646,9.264410999999999Q171.574,9.25,171.5,9.25L170.5,9.25Q170.426,9.25,170.354,9.264410999999999Q170.281,9.278822,170.213,9.30709Q170.145,9.335359,170.083,9.376398Q170.022,9.417437,169.97,9.46967Q169.917,9.521903,169.876,9.583322Q169.835,9.644742,169.807,9.712987Q169.779,9.781233,169.764,9.853682Q169.75,9.9261315,169.75,10Q169.75,10.0738685,169.764,10.146318Q169.779,10.218767,169.807,10.287013Q169.835,10.355258,169.876,10.416678Q169.917,10.478097,169.97,10.53033Q170.022,10.582563,170.083,10.623602Q170.145,10.664641,170.213,10.69291Q170.281,10.721178,170.354,10.735589000000001Q170.426,10.75,170.5,10.75ZM176.5,10.75L177.5,10.75Q177.574,10.75,177.646,10.735589000000001Q177.719,10.721178,177.787,10.69291Q177.855,10.664641,177.917,10.623602Q177.978,10.582563,178.03,10.53033Q178.083,10.478097,178.124,10.416678Q178.165,10.355258,178.193,10.287013Q178.221,10.218767,178.236,10.146318Q178.25,10.0738685,178.25,10Q178.25,9.9261315,178.236,9.853682Q178.221,9.781233,178.193,9.712987Q178.165,9.644742,178.124,9.583322Q178.083,9.521903,178.03,9.46967Q177.978,9.417437,177.917,9.376398Q177.855,9.335359,177.787,9.30709Q177.719,9.278822,177.646,9.264410999999999Q177.574,9.25,177.5,9.25L176.5,9.25Q176.426,9.25,176.354,9.264410999999999Q176.281,9.278822,176.213,9.30709Q176.145,9.335359,176.083,9.376398Q176.022,9.417437,175.97,9.46967Q175.917,9.521903,175.876,9.583322Q175.835,9.644742,175.807,9.712987Q175.779,9.781233,175.764,9.853682Q175.75,9.9261315,175.75,10Q175.75,10.0738685,175.764,10.146318Q175.779,10.218767,175.807,10.287013Q175.835,10.355258,175.876,10.416678Q175.917,10.478097,175.97,10.53033Q176.022,10.582563,176.083,10.623602Q176.145,10.664641,176.213,10.69291Q176.281,10.721178,176.354,10.735589000000001Q176.426,10.75,176.5,10.75ZM182.5,10.75L183.5,10.75Q183.574,10.75,183.646,10.735589000000001Q183.719,10.721178,183.787,10.69291Q183.855,10.664641,183.917,10.623602Q183.978,10.582563,184.03,10.53033Q184.083,10.478097,184.124,10.416678Q184.165,10.355258,184.193,10.287013Q184.221,10.218767,184.236,10.146318Q184.25,10.0738685,184.25,10Q184.25,9.9261315,184.236,9.853682Q184.221,9.781233,184.193,9.712987Q184.165,9.644742,184.124,9.583322Q184.083,9.521903,184.03,9.46967Q183.978,9.417437,183.917,9.376398Q183.855,9.335359,183.787,9.30709Q183.719,9.278822,183.646,9.264410999999999Q183.574,9.25,183.5,9.25L182.5,9.25Q182.426,9.25,182.354,9.264410999999999Q182.281,9.278822,182.213,9.30709Q182.145,9.335359,182.083,9.376398Q182.022,9.417437,181.97,9.46967Q181.917,9.521903,181.876,9.583322Q181.835,9.644742,181.807,9.712987Q181.779,9.781233,181.764,9.853682Q181.75,9.9261315,181.75,10Q181.75,10.0738685,181.764,10.146318Q181.779,10.218767,181.807,10.287013Q181.835,10.355258,181.876,10.416678Q181.917,10.478097,181.97,10.53033Q182.022,10.582563,182.083,10.623602Q182.145,10.664641,182.213,10.69291Q182.281,10.721178,182.354,10.735589000000001Q182.426,10.75,182.5,10.75ZM188.5,10.75L189.5,10.75Q189.574,10.75,189.646,10.735589000000001Q189.719,10.721178,189.787,10.69291Q189.855,10.664641,189.917,10.623602Q189.978,10.582563,190.03,10.53033Q190.083,10.478097,190.124,10.416678Q190.165,10.355258,190.193,10.287013Q190.221,10.218767,190.236,10.146318Q190.25,10.0738685,190.25,10Q190.25,9.9261315,190.236,9.853682Q190.221,9.781233,190.193,9.712987Q190.165,9.644742,190.124,9.583322Q190.083,9.521903,190.03,9.46967Q189.978,9.417437,189.917,9.376398Q189.855,9.335359,189.787,9.30709Q189.719,9.278822,189.646,9.264410999999999Q189.574,9.25,189.5,9.25L188.5,9.25Q188.426,9.25,188.354,9.264410999999999Q188.281,9.278822,188.213,9.30709Q188.145,9.335359,188.083,9.376398Q188.022,9.417437,187.97,9.46967Q187.917,9.521903,187.876,9.583322Q187.835,9.644742,187.807,9.712987Q187.779,9.781233,187.764,9.853682Q187.75,9.9261315,187.75,10Q187.75,10.0738685,187.764,10.146318Q187.779,10.218767,187.807,10.287013Q187.835,10.355258,187.876,10.416678Q187.917,10.478097,187.97,10.53033Q188.022,10.582563,188.083,10.623602Q188.145,10.664641,188.213,10.69291Q188.281,10.721178,188.354,10.735589000000001Q188.426,10.75,188.5,10.75ZM194.5,10.75L195.5,10.75Q195.574,10.75,195.646,10.735589000000001Q195.719,10.721178,195.787,10.69291Q195.855,10.664641,195.917,10.623602Q195.978,10.582563,196.03,10.53033Q196.083,10.478097,196.124,10.416678Q196.165,10.355258,196.193,10.287013Q196.221,10.218767,196.236,10.146318Q196.25,10.0738685,196.25,10Q196.25,9.9261315,196.236,9.853682Q196.221,9.781233,196.193,9.712987Q196.165,9.644742,196.124,9.583322Q196.083,9.521903,196.03,9.46967Q195.978,9.417437,195.917,9.376398Q195.855,9.335359,195.787,9.30709Q195.719,9.278822,195.646,9.264410999999999Q195.574,9.25,195.5,9.25L194.5,9.25Q194.426,9.25,194.354,9.264410999999999Q194.281,9.278822,194.213,9.30709Q194.145,9.335359,194.083,9.376398Q194.022,9.417437,193.97,9.46967Q193.917,9.521903,193.876,9.583322Q193.835,9.644742,193.807,9.712987Q193.779,9.781233,193.764,9.853682Q193.75,9.9261315,193.75,10Q193.75,10.0738685,193.764,10.146318Q193.779,10.218767,193.807,10.287013Q193.835,10.355258,193.876,10.416678Q193.917,10.478097,193.97,10.53033Q194.022,10.582563,194.083,10.623602Q194.145,10.664641,194.213,10.69291Q194.281,10.721178,194.354,10.735589000000001Q194.426,10.75,194.5,10.75ZM200.5,10.75L201.5,10.75Q201.574,10.75,201.646,10.735589000000001Q201.719,10.721178,201.787,10.69291Q201.855,10.664641,201.917,10.623602Q201.978,10.582563,202.03,10.53033Q202.083,10.478097,202.124,10.416678Q202.165,10.355258,202.193,10.287013Q202.221,10.218767,202.236,10.146318Q202.25,10.0738685,202.25,10Q202.25,9.9261315,202.236,9.853682Q202.221,9.781233,202.193,9.712987Q202.165,9.644742,202.124,9.583322Q202.083,9.521903,202.03,9.46967Q201.978,9.417437,201.917,9.376398Q201.855,9.335359,201.787,9.30709Q201.719,9.278822,201.646,9.264410999999999Q201.574,9.25,201.5,9.25L200.5,9.25Q200.426,9.25,200.354,9.264410999999999Q200.281,9.278822,200.213,9.30709Q200.145,9.335359,200.083,9.376398Q200.022,9.417437,199.97,9.46967Q199.917,9.521903,199.876,9.583322Q199.835,9.644742,199.807,9.712987Q199.779,9.781233,199.764,9.853682Q199.75,9.9261315,199.75,10Q199.75,10.0738685,199.764,10.146318Q199.779,10.218767,199.807,10.287013Q199.835,10.355258,199.876,10.416678Q199.917,10.478097,199.97,10.53033Q200.022,10.582563,200.083,10.623602Q200.145,10.664641,200.213,10.69291Q200.281,10.721178,200.354,10.735589000000001Q200.426,10.75,200.5,10.75ZM206.5,10.75L207.5,10.75Q207.574,10.75,207.646,10.735589000000001Q207.719,10.721178,207.787,10.69291Q207.855,10.664641,207.917,10.623602Q207.978,10.582563,208.03,10.53033Q208.083,10.478097,208.124,10.416678Q208.165,10.355258,208.193,10.287013Q208.221,10.218767,208.236,10.146318Q208.25,10.0738685,208.25,10Q208.25,9.9261315,208.236,9.853682Q208.221,9.781233,208.193,9.712987Q208.165,9.644742,208.124,9.583322Q208.083,9.521903,208.03,9.46967Q207.978,9.417437,207.917,9.376398Q207.855,9.335359,207.787,9.30709Q207.719,9.278822,207.646,9.264410999999999Q207.574,9.25,207.5,9.25L206.5,9.25Q206.426,9.25,206.354,9.264410999999999Q206.281,9.278822,206.213,9.30709Q206.145,9.335359,206.083,9.376398Q206.022,9.417437,205.97,9.46967Q205.917,9.521903,205.876,9.583322Q205.835,9.644742,205.807,9.712987Q205.779,9.781233,205.764,9.853682Q205.75,9.9261315,205.75,10Q205.75,10.0738685,205.764,10.146318Q205.779,10.218767,205.807,10.287013Q205.835,10.355258,205.876,10.416678Q205.917,10.478097,205.97,10.53033Q206.022,10.582563,206.083,10.623602Q206.145,10.664641,206.213,10.69291Q206.281,10.721178,206.354,10.735589000000001Q206.426,10.75,206.5,10.75ZM212.5,10.75L213.5,10.75Q213.574,10.75,213.646,10.735589000000001Q213.719,10.721178,213.787,10.69291Q213.855,10.664641,213.917,10.623602Q213.978,10.582563,214.03,10.53033Q214.083,10.478097,214.124,10.416678Q214.165,10.355258,214.193,10.287013Q214.221,10.218767,214.236,10.146318Q214.25,10.0738685,214.25,10Q214.25,9.9261315,214.236,9.853682Q214.221,9.781233,214.193,9.712987Q214.165,9.644742,214.124,9.583322Q214.083,9.521903,214.03,9.46967Q213.978,9.417437,213.917,9.376398Q213.855,9.335359,213.787,9.30709Q213.719,9.278822,213.646,9.264410999999999Q213.574,9.25,213.5,9.25L212.5,9.25Q212.426,9.25,212.354,9.264410999999999Q212.281,9.278822,212.213,9.30709Q212.145,9.335359,212.083,9.376398Q212.022,9.417437,211.97,9.46967Q211.917,9.521903,211.876,9.583322Q211.835,9.644742,211.807,9.712987Q211.779,9.781233,211.764,9.853682Q211.75,9.9261315,211.75,10Q211.75,10.0738685,211.764,10.146318Q211.779,10.218767,211.807,10.287013Q211.835,10.355258,211.876,10.416678Q211.917,10.478097,211.97,10.53033Q212.022,10.582563,212.083,10.623602Q212.145,10.664641,212.213,10.69291Q212.281,10.721178,212.354,10.735589000000001Q212.426,10.75,212.5,10.75ZM218.5,10.75L219.5,10.75Q219.574,10.75,219.646,10.735589000000001Q219.719,10.721178,219.787,10.69291Q219.855,10.664641,219.917,10.623602Q219.978,10.582563,220.03,10.53033Q220.083,10.478097,220.124,10.416678Q220.165,10.355258,220.193,10.287013Q220.221,10.218767,220.236,10.146318Q220.25,10.0738685,220.25,10Q220.25,9.9261315,220.236,9.853682Q220.221,9.781233,220.193,9.712987Q220.165,9.644742,220.124,9.583322Q220.083,9.521903,220.03,9.46967Q219.978,9.417437,219.917,9.376398Q219.855,9.335359,219.787,9.30709Q219.719,9.278822,219.646,9.264410999999999Q219.574,9.25,219.5,9.25L218.5,9.25Q218.426,9.25,218.354,9.264410999999999Q218.281,9.278822,218.213,9.30709Q218.145,9.335359,218.083,9.376398Q218.022,9.417437,217.97,9.46967Q217.917,9.521903,217.876,9.583322Q217.835,9.644742,217.807,9.712987Q217.779,9.781233,217.764,9.853682Q217.75,9.9261315,217.75,10Q217.75,10.0738685,217.764,10.146318Q217.779,10.218767,217.807,10.287013Q217.835,10.355258,217.876,10.416678Q217.917,10.478097,217.97,10.53033Q218.022,10.582563,218.083,10.623602Q218.145,10.664641,218.213,10.69291Q218.281,10.721178,218.354,10.735589000000001Q218.426,10.75,218.5,10.75ZM224.5,10.75L225.5,10.75Q225.574,10.75,225.646,10.735589000000001Q225.719,10.721178,225.787,10.69291Q225.855,10.664641,225.917,10.623602Q225.978,10.582563,226.03,10.53033Q226.083,10.478097,226.124,10.416678Q226.165,10.355258,226.193,10.287013Q226.221,10.218767,226.236,10.146318Q226.25,10.0738685,226.25,10Q226.25,9.9261315,226.236,9.853682Q226.221,9.781233,226.193,9.712987Q226.165,9.644742,226.124,9.583322Q226.083,9.521903,226.03,9.46967Q225.978,9.417437,225.917,9.376398Q225.855,9.335359,225.787,9.30709Q225.719,9.278822,225.646,9.264410999999999Q225.574,9.25,225.5,9.25L224.5,9.25Q224.426,9.25,224.354,9.264410999999999Q224.281,9.278822,224.213,9.30709Q224.145,9.335359,224.083,9.376398Q224.022,9.417437,223.97,9.46967Q223.917,9.521903,223.876,9.583322Q223.835,9.644742,223.807,9.712987Q223.779,9.781233,223.764,9.853682Q223.75,9.9261315,223.75,10Q223.75,10.0738685,223.764,10.146318Q223.779,10.218767,223.807,10.287013Q223.835,10.355258,223.876,10.416678Q223.917,10.478097,223.97,10.53033Q224.022,10.582563,224.083,10.623602Q224.145,10.664641,224.213,10.69291Q224.281,10.721178,224.354,10.735589000000001Q224.426,10.75,224.5,10.75ZM230.5,10.75L231.5,10.75Q231.574,10.75,231.646,10.735589000000001Q231.719,10.721178,231.787,10.69291Q231.855,10.664641,231.917,10.623602Q231.978,10.582563,232.03,10.53033Q232.083,10.478097,232.124,10.416678Q232.165,10.355258,232.193,10.287013Q232.221,10.218767,232.236,10.146318Q232.25,10.0738685,232.25,10Q232.25,9.9261315,232.236,9.853682Q232.221,9.781233,232.193,9.712987Q232.165,9.644742,232.124,9.583322Q232.083,9.521903,232.03,9.46967Q231.978,9.417437,231.917,9.376398Q231.855,9.335359,231.787,9.30709Q231.719,9.278822,231.646,9.264410999999999Q231.574,9.25,231.5,9.25L230.5,9.25Q230.426,9.25,230.354,9.264410999999999Q230.281,9.278822,230.213,9.30709Q230.145,9.335359,230.083,9.376398Q230.022,9.417437,229.97,9.46967Q229.917,9.521903,229.876,9.583322Q229.835,9.644742,229.807,9.712987Q229.779,9.781233,229.764,9.853682Q229.75,9.9261315,229.75,10Q229.75,10.0738685,229.764,10.146318Q229.779,10.218767,229.807,10.287013Q229.835,10.355258,229.876,10.416678Q229.917,10.478097,229.97,10.53033Q230.022,10.582563,230.083,10.623602Q230.145,10.664641,230.213,10.69291Q230.281,10.721178,230.354,10.735589000000001Q230.426,10.75,230.5,10.75ZM236.5,10.75L237.5,10.75Q237.574,10.75,237.646,10.735589000000001Q237.719,10.721178,237.787,10.69291Q237.855,10.664641,237.917,10.623602Q237.978,10.582563,238.03,10.53033Q238.083,10.478097,238.124,10.416678Q238.165,10.355258,238.193,10.287013Q238.221,10.218767,238.236,10.146318Q238.25,10.0738685,238.25,10Q238.25,9.9261315,238.236,9.853682Q238.221,9.781233,238.193,9.712987Q238.165,9.644742,238.124,9.583322Q238.083,9.521903,238.03,9.46967Q237.978,9.417437,237.917,9.376398Q237.855,9.335359,237.787,9.30709Q237.719,9.278822,237.646,9.264410999999999Q237.574,9.25,237.5,9.25L236.5,9.25Q236.426,9.25,236.354,9.264410999999999Q236.281,9.278822,236.213,9.30709Q236.145,9.335359,236.083,9.376398Q236.022,9.417437,235.97,9.46967Q235.917,9.521903,235.876,9.583322Q235.835,9.644742,235.807,9.712987Q235.779,9.781233,235.764,9.853682Q235.75,9.9261315,235.75,10Q235.75,10.0738685,235.764,10.146318Q235.779,10.218767,235.807,10.287013Q235.835,10.355258,235.876,10.416678Q235.917,10.478097,235.97,10.53033Q236.022,10.582563,236.083,10.623602Q236.145,10.664641,236.213,10.69291Q236.281,10.721178,236.354,10.735589000000001Q236.426,10.75,236.5,10.75ZM242.5,10.75L243.5,10.75Q243.574,10.75,243.646,10.735589000000001Q243.719,10.721178,243.787,10.69291Q243.855,10.664641,243.917,10.623602Q243.978,10.582563,244.03,10.53033Q244.083,10.478097,244.124,10.416678Q244.165,10.355258,244.193,10.287013Q244.221,10.218767,244.236,10.146318Q244.25,10.0738685,244.25,10Q244.25,9.9261315,244.236,9.853682Q244.221,9.781233,244.193,9.712987Q244.165,9.644742,244.124,9.583322Q244.083,9.521903,244.03,9.46967Q243.978,9.417437,243.917,9.376398Q243.855,9.335359,243.787,9.30709Q243.719,9.278822,243.646,9.264410999999999Q243.574,9.25,243.5,9.25L242.5,9.25Q242.426,9.25,242.354,9.264410999999999Q242.281,9.278822,242.213,9.30709Q242.145,9.335359,242.083,9.376398Q242.022,9.417437,241.97,9.46967Q241.917,9.521903,241.876,9.583322Q241.835,9.644742,241.807,9.712987Q241.779,9.781233,241.764,9.853682Q241.75,9.9261315,241.75,10Q241.75,10.0738685,241.764,10.146318Q241.779,10.218767,241.807,10.287013Q241.835,10.355258,241.876,10.416678Q241.917,10.478097,241.97,10.53033Q242.022,10.582563,242.083,10.623602Q242.145,10.664641,242.213,10.69291Q242.281,10.721178,242.354,10.735589000000001Q242.426,10.75,242.5,10.75ZM248.5,10.75L249.5,10.75Q249.574,10.75,249.646,10.735589000000001Q249.719,10.721178,249.787,10.69291Q249.855,10.664641,249.917,10.623602Q249.978,10.582563,250.03,10.53033Q250.083,10.478097,250.124,10.416678Q250.165,10.355258,250.193,10.287013Q250.221,10.218767,250.236,10.146318Q250.25,10.0738685,250.25,10Q250.25,9.9261315,250.236,9.853682Q250.221,9.781233,250.193,9.712987Q250.165,9.644742,250.124,9.583322Q250.083,9.521903,250.03,9.46967Q249.978,9.417437,249.917,9.376398Q249.855,9.335359,249.787,9.30709Q249.719,9.278822,249.646,9.264410999999999Q249.574,9.25,249.5,9.25L248.5,9.25Q248.426,9.25,248.354,9.264410999999999Q248.281,9.278822,248.213,9.30709Q248.145,9.335359,248.083,9.376398Q248.022,9.417437,247.97,9.46967Q247.917,9.521903,247.876,9.583322Q247.835,9.644742,247.807,9.712987Q247.779,9.781233,247.764,9.853682Q247.75,9.9261315,247.75,10Q247.75,10.0738685,247.764,10.146318Q247.779,10.218767,247.807,10.287013Q247.835,10.355258,247.876,10.416678Q247.917,10.478097,247.97,10.53033Q248.022,10.582563,248.083,10.623602Q248.145,10.664641,248.213,10.69291Q248.281,10.721178,248.354,10.735589000000001Q248.426,10.75,248.5,10.75ZM254.5,10.75L255,10.75Q255.074,10.75,255.146,10.735589000000001Q255.219,10.721178,255.287,10.69291Q255.355,10.664641,255.417,10.623602Q255.478,10.582563,255.53,10.53033Q255.583,10.478097,255.624,10.416678Q255.665,10.355258,255.693,10.287013Q255.721,10.218767,255.736,10.146318Q255.75,10.0738685,255.75,10Q255.75,9.9261315,255.736,9.853682Q255.721,9.781233,255.693,9.712987Q255.665,9.644742,255.624,9.583322Q255.583,9.521903,255.53,9.46967Q255.478,9.417437,255.417,9.376398Q255.355,9.335359,255.287,9.30709Q255.219,9.278822,255.146,9.264410999999999Q255.074,9.25,255,9.25L254.5,9.25Q254.426,9.25,254.354,9.264410999999999Q254.281,9.278822,254.213,9.30709Q254.145,9.335359,254.083,9.376398Q254.022,9.417437,253.97,9.46967Q253.917,9.521903,253.876,9.583322Q253.835,9.644742,253.807,9.712987Q253.779,9.781233,253.764,9.853682Q253.75,9.9261315,253.75,10Q253.75,10.0738685,253.764,10.146318Q253.779,10.218767,253.807,10.287013Q253.835,10.355258,253.876,10.416678Q253.917,10.478097,253.97,10.53033Q254.022,10.582563,254.083,10.623602Q254.145,10.664641,254.213,10.69291Q254.281,10.721178,254.354,10.735589000000001Q254.426,10.75,254.5,10.75Z" fill-rule="evenodd" fill="#F7DEC6" fill-opacity="1"/></g></g></svg>