<svg xmlns="http://www.w3.org/2000/svg" xmlns:xlink="http://www.w3.org/1999/xlink" fill="none" version="1.1" width="24" height="24" viewBox="0 0 24 24"><g><g><g><g><path d="M14.738329296875,3.7730924804687502L15.684029296875,3.5081224804687503C16.155729296875002,3.37780248046875,16.616029296875,3.74920248046875,16.554529296875,4.21400248046875L15.993929296875,8.49054248046875C15.866329296875,9.47008248046875,14.993629296875,10.20419248046875,13.959029296875,10.20419248046875L10.037359296875,10.20419248046875C9.002819296875,10.20419248046875,8.130069296875,9.47008248046875,8.002459296875,8.49054248046875L7.444169296875,4.21400248046875C7.384919296875,3.74920248046875,7.842949296875,3.37780248046875,8.314649296875,3.5081224804687503L9.264869296875,3.7730924804687502C9.504139296875,3.84042248046875,9.761639296875,3.77744248046875,9.939379296875,3.60803248046875L11.518539296875,2.10287948046875C11.785149296875,1.84876348046875,12.218129296875,1.84876348046875,12.484729296875,2.10287948046875L14.063829296875,3.60803248046875C14.239329296875,3.77744248046875,14.499129296875,3.84042248046875,14.738329296875,3.7730924804687502ZM5.410219296875,21.62069248046875C2.852209296875,21.62069248046875,0.891982296875,19.22319248046875,2.328964296875,17.106992480468747C4.428829296875,14.01449248046875,8.005909296875,12.02459248046875,11.999729296875,12.02459248046875C15.993529296875,12.02459248046875,19.570929296875,14.01449248046875,21.670729296875,17.106992480468747C23.107729296875,19.22319248046875,21.147529296875,21.62069248046875,18.589529296875,21.62069248046875L5.410219296875,21.62069248046875ZM14.555329296875,15.86829248046875L12.359429296875,18.88709248046875C12.197029296875,19.11129248046875,11.804969296875,19.11129248046875,11.642559296875,18.88709248046875L9.446389296875001,15.86829248046875C9.086259296875,15.37349248046875,9.834809296875001,14.83789248046875,10.378539296875,15.20169248046875L11.737919296875,16.109992480468748C11.889729296875,16.211892480468748,12.112229296875,16.211892480468748,12.264029296875,16.109992480468748L13.623229296875,15.20169248046875C14.166929296875,14.83789248046875,14.915429296875,15.37349248046875,14.555329296875,15.86829248046875Z" fill-rule="evenodd" fill="#FFFFFF" fill-opacity="1"/></g></g></g></g></svg>