<svg xmlns="http://www.w3.org/2000/svg" xmlns:xlink="http://www.w3.org/1999/xlink" fill="none" version="1.1" width="24" height="24" viewBox="0 0 24 24"><g><g><g><path d="M22,12.1234C22,6.47703,17.523,2,11.87658,2C6.47703,2,2,6.47703,2,12.1234C2,17.523,6.47703,22,11.87658,22C17.523,22,22,17.523,22,12.1234ZM20.8,12.1234Q20.8,8.38568,18.2072,5.79284Q15.6143,3.2,11.87658,3.2Q10.13146,3.2,8.53022,3.88984Q6.9736,4.5604499999999994,5.76919,5.7855799999999995Q4.55724,7.01837,3.89213,8.61983Q3.2,10.28633,3.2,12.1234Q3.2,13.8653,3.88729,15.4728Q4.55236,17.028399999999998,5.76199,18.238Q6.97161,19.4476,8.527180000000001,20.1127Q10.1347,20.8,11.87658,20.8Q13.7137,20.8,15.3802,20.1079Q16.9816,19.4428,18.2144,18.2308Q19.4396,17.026400000000002,20.1102,15.4698Q20.8,13.8686,20.8,12.1234Z" fill-rule="evenodd" fill="#000000" fill-opacity="0.30000001192092896"/></g></g></g></svg>