<svg xmlns="http://www.w3.org/2000/svg" xmlns:xlink="http://www.w3.org/1999/xlink" fill="none" version="1.1" width="18" height="18" viewBox="0 0 18 18"><g><g><path d="M9,15C5.68629,15,3,12.31368,3,9C3,5.68629,5.68629,3,9,3C12.31368,3,15,5.68629,15,9C15,12.31368,12.31368,15,9,15ZM8.50024,9.50843C8.50024,9.78457,8.72785,10.003910000000001,8.99649,10.003910000000001C9.272639999999999,10.003910000000001,9.50024,9.78457,9.50024,9.50843L9.50024,6.41605C9.50024,6.1399,9.272639999999999,5.92057,9.00399,5.92057C8.72785,5.92057,8.50024,6.1399,8.50024,6.41605L8.50024,9.50843ZM8.41659,11.75456Q8.41659,11.6971,8.42779,11.64075Q8.439,11.5844,8.460989999999999,11.53132Q8.48297,11.47824,8.514890000000001,11.43047Q8.54681,11.3827,8.58744,11.34208Q8.628070000000001,11.30145,8.67584,11.26953Q8.72361,11.23761,8.77669,11.21563Q8.82977,11.19364,8.88612,11.18243Q8.94247,11.17122,8.99992,11.17122Q9.057369999999999,11.17122,9.11372,11.18243Q9.170069999999999,11.19364,9.22315,11.21563Q9.27623,11.23761,9.324,11.26953Q9.37177,11.30145,9.4124,11.34208Q9.45302,11.3827,9.48494,11.43047Q9.516860000000001,11.47824,9.53885,11.53132Q9.56083,11.5844,9.572040000000001,11.64075Q9.58325,11.6971,9.58325,11.75456Q9.58325,11.81201,9.572040000000001,11.86836Q9.56083,11.92471,9.53885,11.97779Q9.516860000000001,12.03087,9.48494,12.07864Q9.45302,12.12641,9.4124,12.16704Q9.37177,12.20766,9.324,12.23958Q9.27623,12.2715,9.22315,12.29349Q9.170069999999999,12.31547,9.11372,12.32668Q9.057369999999999,12.33789,8.99992,12.33789Q8.94246,12.33789,8.88612,12.32668Q8.82977,12.31547,8.77669,12.29349Q8.72361,12.2715,8.67584,12.23958Q8.628070000000001,12.20766,8.58744,12.16704Q8.54681,12.12641,8.514890000000001,12.07864Q8.48297,12.03087,8.460989999999999,11.97779Q8.439,11.92471,8.42779,11.86836Q8.41659,11.81201,8.41659,11.75456Z" fill-rule="evenodd" fill="#F25643" fill-opacity="1"/></g></g></svg>