<svg xmlns="http://www.w3.org/2000/svg" xmlns:xlink="http://www.w3.org/1999/xlink" fill="none" version="1.1" width="12" height="12" viewBox="0 0 12 12"><defs><clipPath id="master_svg0_43354_096093"><rect x="0" y="0" width="12" height="12" rx="0"/></clipPath></defs><g clip-path="url(#master_svg0_43354_096093)"><g><ellipse cx="6" cy="6" rx="6" ry="6" fill="#BABAC4" fill-opacity="1"/></g><g transform="matrix(0.7071067690849304,-0.7071067690849304,0.7071067690849304,0.7071067690849304,-4.606374979019165,5.121414253022522)"><path d="M3.87890625,7.37109375L9.87890625,7.37109375Q9.95277625,7.37109375,10.02522625,7.38550475Q10.09767625,7.39991575,10.16591625,7.42818375Q10.234166250000001,7.45645275,10.29558625,7.49749175Q10.357006250000001,7.53853075,10.40923625,7.59076375Q10.46146625,7.64299675,10.50250625,7.70441575Q10.54354625,7.76583575,10.571816250000001,7.83408075Q10.60008625,7.90232675,10.61449625,7.97477575Q10.62890625,8.04722525,10.62890625,8.12109375Q10.62890625,8.19496225,10.61449625,8.26741175Q10.60008625,8.33986075,10.571816250000001,8.40810675Q10.54354625,8.47635175,10.50250625,8.53777175Q10.46146625,8.59919075,10.40923625,8.65142375Q10.357006250000001,8.70365675,10.29558625,8.74469575Q10.234166250000001,8.78573475,10.16591625,8.81400375Q10.09767625,8.84227175,10.02522625,8.856682750000001Q9.95277625,8.87109375,9.87890625,8.87109375L3.87890625,8.87109375Q3.80503775,8.87109375,3.73258825,8.856682750000001Q3.66013925,8.84227175,3.59189325,8.81400375Q3.52364825,8.78573475,3.46222825,8.74469575Q3.40080925,8.70365675,3.34857625,8.65142375Q3.29634325,8.59919075,3.25530425,8.53777175Q3.21426525,8.47635175,3.18599625,8.40810675Q3.15772825,8.33986075,3.14331725,8.26741175Q3.12890625,8.19496225,3.12890625,8.12109375Q3.12890625,8.04722525,3.14331725,7.97477575Q3.15772825,7.90232675,3.18599625,7.83408075Q3.21426525,7.76583575,3.25530425,7.70441575Q3.29634325,7.64299675,3.34857625,7.59076375Q3.40080925,7.53853075,3.46222825,7.49749175Q3.52364825,7.45645275,3.59189325,7.42818375Q3.66013925,7.39991575,3.73258825,7.38550475Q3.80503775,7.37109375,3.87890625,7.37109375Z" fill-rule="evenodd" fill="#FFFFFF" fill-opacity="1"/></g><g transform="matrix(0.7071067690849304,0.7071067690849304,-0.7071067690849304,0.7071067690849304,3.87890625,-1.6066954820416868)"><path d="M3.87890625,3.12890625L9.87890625,3.12890625Q9.95277625,3.12890625,10.02522625,3.14331725Q10.09767625,3.15772825,10.16591625,3.18599625Q10.234166250000001,3.21426525,10.29558625,3.25530425Q10.357006250000001,3.29634325,10.40923625,3.34857625Q10.46146625,3.40080925,10.50250625,3.46222825Q10.54354625,3.52364825,10.571816250000001,3.59189325Q10.60008625,3.66013925,10.61449625,3.73258825Q10.62890625,3.80503775,10.62890625,3.87890625Q10.62890625,3.95277475,10.61449625,4.02522425Q10.60008625,4.09767325,10.571816250000001,4.16591925Q10.54354625,4.23416425,10.50250625,4.29558425Q10.46146625,4.35700325,10.40923625,4.40923625Q10.357006250000001,4.46146925,10.29558625,4.50250825Q10.234166250000001,4.54354725,10.16591625,4.57181625Q10.09767625,4.60008425,10.02522625,4.61449525Q9.95277625,4.62890625,9.87890625,4.62890625L3.87890625,4.62890625Q3.80503775,4.62890625,3.73258825,4.61449525Q3.66013925,4.60008425,3.59189325,4.57181625Q3.52364825,4.54354725,3.46222825,4.50250825Q3.40080925,4.46146925,3.34857625,4.40923625Q3.29634325,4.35700325,3.25530425,4.29558425Q3.21426525,4.23416425,3.18599625,4.16591925Q3.15772825,4.09767325,3.14331725,4.02522425Q3.12890625,3.95277475,3.12890625,3.87890625Q3.12890625,3.80503775,3.14331725,3.73258825Q3.15772825,3.66013925,3.18599625,3.59189325Q3.21426525,3.52364825,3.25530425,3.46222825Q3.29634325,3.40080925,3.34857625,3.34857625Q3.40080925,3.29634325,3.46222825,3.25530425Q3.52364825,3.21426525,3.59189325,3.18599625Q3.66013925,3.15772825,3.73258825,3.14331725Q3.80503775,3.12890625,3.87890625,3.12890625Z" fill-rule="evenodd" fill="#FFFFFF" fill-opacity="1"/></g></g></svg>