<svg xmlns="http://www.w3.org/2000/svg" xmlns:xlink="http://www.w3.org/1999/xlink" fill="none" version="1.1" width="40" height="40" viewBox="0 0 40 40"><defs><clipPath id="master_svg0_57347_197482"><rect x="0" y="0" width="40" height="40" rx="0"/></clipPath></defs><g clip-path="url(#master_svg0_57347_197482)"><g><path d="M4.01807375,16.0409478125C2.28043575,18.3946578125,2.28043375,21.6062578125,4.01806375,23.9600578125L8.24845375,29.6903578125C9.81949375,31.8184578125,12.30757375,33.0742578125,14.95274375,33.0742578125L30.22744375,33.0742578125C33.909343750000005,33.0742578125,36.89414375,30.0894578125,36.89414375,26.4075578125L36.89414375,13.5934278125C36.89414375,9.911527812500001,33.909343750000005,6.9267578125,30.22744375,6.9267578125L14.95274375,6.9267578125C12.30757375,6.9267578125,9.81949375,8.1825778125,8.24845375,10.3106578125L4.01807375,16.0409478125Z" fill="#121212" fill-opacity="1"/></g><g><g><g transform="matrix(0.7071424722671509,-0.70707106590271,0.7071425318717957,0.70707106590271,-12.115114983614205,17.895373682000127)"><path d="M17.002752149658203,23.570094108581543L27.103622149658204,23.570094108581543C27.909022149658202,23.570094108581543,28.5619221496582,24.223012108581543,28.5619221496582,25.028424108581543C28.5619221496582,25.833844108581545,27.909022149658202,26.486764108581543,27.103622149658204,26.486764108581543L17.002752149658203,26.486764108581543C16.197340149658203,26.486764108581543,15.544422149658203,25.833844108581545,15.544422149658203,25.028424108581543C15.544422149658203,24.223012108581543,16.197340149658203,23.570094108581543,17.002752149658203,23.570094108581543Z" fill-rule="evenodd" fill="#FFFFFF" fill-opacity="1"/></g><g transform="matrix(0.7071424722671509,0.70707106590271,-0.7071425318717957,0.70707106590271,15.31546931806048,-8.240987296145477)"><path d="M19.065252149658203,14.366480827331543L29.166122149658204,14.366480827331543C29.971522149658202,14.366480827331543,30.6244221496582,15.019398827331543,30.6244221496582,15.824810827331543C30.6244221496582,16.630230827331545,29.971522149658202,17.283150827331543,29.166122149658204,17.283150827331543L19.065252149658203,17.283150827331543C18.259840149658203,17.283150827331543,17.606922149658203,16.630230827331545,17.606922149658203,15.824810827331543C17.606922149658203,15.019398827331543,18.259840149658203,14.366480827331543,19.065252149658203,14.366480827331543Z" fill-rule="evenodd" fill="#FFFFFF" fill-opacity="1"/></g></g></g></g></svg>