<svg xmlns="http://www.w3.org/2000/svg" xmlns:xlink="http://www.w3.org/1999/xlink" fill="none" version="1.1" width="78" height="78" viewBox="0 0 78 78"><defs><clipPath id="master_svg0_42158_037359"><rect x="0" y="0" width="78" height="78" rx="0"/></clipPath><clipPath id="master_svg1_41912_042626"><rect x="5" y="5" width="66.86000061035156" height="66.86000061035156" rx="0"/></clipPath></defs><g clip-path="url(#master_svg0_42158_037359)"><g clip-path="url(#master_svg1_41912_042626)"><g><path d="M38.43,71.86C56.8931,71.86,71.86,56.8931,71.86,38.43C71.86,19.966900000000003,56.8931,5,38.43,5C19.966900000000003,5,5,19.966900000000003,5,38.43C5,56.8931,19.966900000000003,71.86,38.43,71.86C38.43,71.86,38.43,71.86,38.43,71.86ZM38.9217,35.9645C38.9217,35.9645,28.3453,25.3881,28.3453,25.3881C27.2351,24.2738,26.203,24.2431,25.1931,25.0998C24.1846,25.955,24.4131,27.3521,25.0204,27.9789C25.0204,27.9789,35.9576,38.9092,35.9576,38.9092C35.9576,38.9092,25.2043,49.6667,25.2043,49.6667C24.1916,50.6807,24.4242,51.9594,25.1123,52.699C25.799,53.4401,27.2755,53.6504,28.33,52.4567C28.33,52.4567,38.8994,41.8928,38.8994,41.8928C38.8994,41.8928,49.5469,52.511,49.5469,52.511C50.6556,53.6225,51.7867,53.5195,52.6252,52.713C53.4679,51.9051,53.6281,50.7044,52.5221,49.5928C52.5221,49.5928,41.8566,38.9092,41.8566,38.9092C41.8566,38.9092,52.3661,28.4344,52.3661,28.4344C53.4944,27.4636,53.6198,25.9829,52.7798,25.175C51.4983,23.9423,50.2029,24.7042,49.6263,25.2837C49.6263,25.2837,38.9217,35.9631,38.9217,35.9631C38.9217,35.9631,38.9217,35.9645,38.9217,35.9645C38.9217,35.9645,38.9217,35.9645,38.9217,35.9645Z" fill-rule="evenodd" fill="#F25643" fill-opacity="1"/></g></g></g></svg>