<svg xmlns="http://www.w3.org/2000/svg" xmlns:xlink="http://www.w3.org/1999/xlink" fill="none" version="1.1" width="24" height="24" viewBox="0 0 24 24"><g><g><rect x="0" y="0" width="24" height="24" rx="12" fill="#006DE2" fill-opacity="1"/></g><g><path d="M11.455989441680908,11.340655421295166C11.455989441680908,11.340655421295166,11.455989441680908,7.384615421295166,11.455989441680908,7.384615421295166C11.455989441680908,7.384615421295166,12.774649441680907,7.384615421295166,12.774649441680907,7.384615421295166C12.774649441680907,7.384615421295166,12.774649441680907,11.340655421295166,12.774649441680907,11.340655421295166C12.774649441680907,11.340655421295166,16.73069944168091,11.340655421295166,16.73069944168091,11.340655421295166C16.73069944168091,11.340655421295166,16.73069944168091,12.659335421295166,16.73069944168091,12.659335421295166C16.73069944168091,12.659335421295166,12.774649441680907,12.659335421295166,12.774649441680907,12.659335421295166C12.774649441680907,12.659335421295166,12.774649441680907,16.615385421295166,12.774649441680907,16.615385421295166C12.774649441680907,16.615385421295166,11.455989441680908,16.615385421295166,11.455989441680908,16.615385421295166C11.455989441680908,16.615385421295166,11.455989441680908,12.659335421295166,11.455989441680908,12.659335421295166C11.455989441680908,12.659335421295166,7.499939441680908,12.659335421295166,7.499939441680908,12.659335421295166C7.499939441680908,12.659335421295166,7.499939441680908,11.340655421295166,7.499939441680908,11.340655421295166C7.499939441680908,11.340655421295166,11.455989441680908,11.340655421295166,11.455989441680908,11.340655421295166C11.455989441680908,11.340655421295166,11.455989441680908,11.340655421295166,11.455989441680908,11.340655421295166Z" fill="#FFFFFF" fill-opacity="1"/></g></g></svg>