<svg xmlns="http://www.w3.org/2000/svg" xmlns:xlink="http://www.w3.org/1999/xlink" fill="none" version="1.1" width="20" height="20" viewBox="0 0 20 20"><g><g><g><path d="M18.33320390625,10.102851752929688C18.33320390625,5.397531752929687,14.60230390625,1.6666717529296875,9.89699390625,1.6666717529296875C5.39736390625,1.6666717529296875,1.66650390625,5.397531752929687,1.66650390625,10.102851752929688C1.66650390625,14.602471752929688,5.39736390625,18.333371752929686,9.89699390625,18.333371752929686C14.60230390625,18.333371752929686,18.33320390625,14.602471752929688,18.33320390625,10.102851752929688ZM17.13320390625,10.102851752929688Q17.13320390625,7.070911752929687,15.03110390625,4.968791752929688Q12.92890390625,2.8666717529296877,9.89699390625,2.8666717529296877Q7.00956390625,2.8666717529296877,4.9501139062499995,4.961531752929687Q2.86650390625,7.080971752929687,2.86650390625,10.102851752929688Q2.86650390625,12.980571752929688,4.94291390625,15.056971752929687Q7.01932390625,17.133371752929687,9.89699390625,17.133371752929687Q12.91890390625,17.133371752929687,15.03830390625,15.049771752929688Q17.13320390625,12.990271752929688,17.13320390625,10.102851752929688Z" fill-rule="evenodd" fill="#000000" fill-opacity="0.30000001192092896"/></g></g></g></svg>