<svg xmlns="http://www.w3.org/2000/svg" xmlns:xlink="http://www.w3.org/1999/xlink" fill="none" version="1.1" width="32" height="32" viewBox="0 0 32 32"><defs><clipPath id="master_svg0_57347_197402"><rect x="0" y="0" width="32" height="32" rx="0"/></clipPath></defs><g clip-path="url(#master_svg0_57347_197402)"><g><path d="M2.6474609375,26.083984375L29.3525609375,26.083984375Q29.4262609375,26.083984375,29.4995609375,26.091204375Q29.5728609375,26.098434375,29.6451609375,26.112804375Q29.7174609375,26.127184375,29.7879609375,26.148574375Q29.8584609375,26.169964375,29.9265609375,26.198164375Q29.9946609375,26.226364375,30.0596609375,26.261104375Q30.1246609375,26.295844375,30.1858609375,26.336784375Q30.2471609375,26.377724375,30.3041609375,26.424464375Q30.3610609375,26.471214375,30.4131609375,26.523324375Q30.4652609375,26.575434375,30.5120609375,26.632394375Q30.5587609375,26.689357375,30.5997609375,26.750629375Q30.6406609375,26.811900375,30.6754609375,26.876889375Q30.7101609375,26.941878375,30.7383609375,27.009959375Q30.7665609375,27.078040375,30.7879609375,27.148557375Q30.8093609375,27.219074375,30.8237609375,27.291349375Q30.8380609375,27.363623375,30.8453609375,27.436958375Q30.8525609375,27.510294075,30.8525609375,27.583984375Q30.8525609375,27.657674675,30.8453609375,27.731010375Q30.8380609375,27.804345375,30.8237609375,27.876619375Q30.8093609375,27.948894375,30.7879609375,28.019411375Q30.7665609375,28.089928375,30.7383609375,28.158009375Q30.7101609375,28.226090375,30.6754609375,28.291079375Q30.6406609375,28.356068375,30.5997609375,28.417339375Q30.5587609375,28.478611375,30.5120609375,28.535574375Q30.4652609375,28.592534375,30.4131609375,28.644644375Q30.3610609375,28.696754375,30.3041609375,28.743504375Q30.2471609375,28.790244375,30.1858609375,28.831184375Q30.1246609375,28.872124375,30.0596609375,28.906864375Q29.9946609375,28.941604375,29.9265609375,28.969804375Q29.8584609375,28.998004375,29.7879609375,29.019394375Q29.7174609375,29.040784375,29.6451609375,29.055164375Q29.5728609375,29.069534375,29.4995609375,29.076764375Q29.4262609375,29.083984375,29.3525609375,29.083984375L2.6474609375,29.083984375Q2.5737706375,29.083984375,2.5004349375,29.076764375Q2.4270999375,29.069534375,2.3548259375000002,29.055164375Q2.2825509375,29.040784375,2.2120339375,29.019394375Q2.1415169375,28.998004375,2.0734359375,28.969804375Q2.0053549375,28.941604375,1.9403659375,28.906864375Q1.8753769375,28.872124375,1.8141059375,28.831184375Q1.7528339375000002,28.790244375,1.6958709375,28.743504375Q1.6389109375,28.696754375,1.5868009375,28.644644375Q1.5346909375,28.592534375,1.4879409375,28.535574375Q1.4412009375,28.478611375,1.4002609375,28.417339375Q1.3593209375,28.356068375,1.3245809375,28.291079375Q1.2898409375,28.226090375,1.2616409375,28.158009375Q1.2334409375,28.089928375,1.2120509375,28.019411375Q1.1906609375,27.948894375,1.1762809375,27.876619375Q1.1619109375,27.804345375,1.1546809375,27.731010375Q1.1474609375,27.657674675,1.1474609375,27.583984375Q1.1474609375,27.510294075,1.1546809375,27.436958375Q1.1619109375,27.363623375,1.1762809375,27.291349375Q1.1906609375,27.219074375,1.2120509375,27.148557375Q1.2334409375,27.078040375,1.2616409375,27.009959375Q1.2898409375,26.941878375,1.3245809375,26.876889375Q1.3593209375,26.811900375,1.4002609375,26.750629375Q1.4412009375,26.689357375,1.4879409375,26.632394375Q1.5346909375,26.575434375,1.5868009375,26.523324375Q1.6389109375,26.471214375,1.6958709375,26.424464375Q1.7528339375000002,26.377724375,1.8141059375,26.336784375Q1.8753769375,26.295844375,1.9403659375,26.261104375Q2.0053549375,26.226364375,2.0734359375,26.198164375Q2.1415169375,26.169964375,2.2120339375,26.148574375Q2.2825509375,26.127184375,2.3548259375000002,26.112804375Q2.4270999375,26.098434375,2.5004349375,26.091204375Q2.5737706375,26.083984375,2.6474609375,26.083984375Z" fill-rule="evenodd" fill="#006DE2" fill-opacity="1"/></g><g><path d="M2.6474609375,21.8818359375L29.3525609375,21.8818359375Q29.4262609375,21.8818359375,29.4995609375,21.8890559375Q29.5728609375,21.8962859375,29.6451609375,21.9106559375Q29.7174609375,21.9250359375,29.7879609375,21.9464259375Q29.8584609375,21.9678159375,29.9265609375,21.9960159375Q29.9946609375,22.0242159375,30.0596609375,22.0589559375Q30.1246609375,22.0936959375,30.1858609375,22.1346359375Q30.2471609375,22.1755759375,30.3041609375,22.2223159375Q30.3610609375,22.2690659375,30.4131609375,22.3211759375Q30.4652609375,22.3732859375,30.5120609375,22.4302459375Q30.5587609375,22.4872089375,30.5997609375,22.5484809375Q30.6406609375,22.6097519375,30.6754609375,22.6747409375Q30.7101609375,22.7397299375,30.7383609375,22.8078109375Q30.7665609375,22.8758919375,30.7879609375,22.9464089375Q30.8093609375,23.0169259375,30.8237609375,23.0892009375Q30.8380609375,23.1614749375,30.8453609375,23.2348099375Q30.8525609375,23.3081456375,30.8525609375,23.3818359375Q30.8525609375,23.4555262375,30.8453609375,23.5288619375Q30.8380609375,23.6021969375,30.8237609375,23.6744709375Q30.8093609375,23.7467459375,30.7879609375,23.8172629375Q30.7665609375,23.8877799375,30.7383609375,23.9558609375Q30.7101609375,24.0239419375,30.6754609375,24.0889309375Q30.6406609375,24.1539199375,30.5997609375,24.2151909375Q30.5587609375,24.2764629375,30.5120609375,24.3334259375Q30.4652609375,24.3903859375,30.4131609375,24.4424959375Q30.3610609375,24.4946059375,30.3041609375,24.5413559375Q30.2471609375,24.5880959375,30.1858609375,24.6290359375Q30.1246609375,24.6699759375,30.0596609375,24.7047159375Q29.9946609375,24.7394559375,29.9265609375,24.7676559375Q29.8584609375,24.7958559375,29.7879609375,24.8172459375Q29.7174609375,24.8386359375,29.6451609375,24.8530159375Q29.5728609375,24.8673859375,29.4995609375,24.8746159375Q29.4262609375,24.8818359375,29.3525609375,24.8818359375L2.6474609375,24.8818359375Q2.5737706375,24.8818359375,2.5004349375,24.8746159375Q2.4270999375,24.8673859375,2.3548259375000002,24.8530159375Q2.2825509375,24.8386359375,2.2120339375,24.8172459375Q2.1415169375,24.7958559375,2.0734359375,24.7676559375Q2.0053549375,24.7394559375,1.9403659375,24.7047159375Q1.8753769375,24.6699759375,1.8141059375,24.6290359375Q1.7528339375000002,24.5880959375,1.6958709375,24.5413559375Q1.6389109375,24.4946059375,1.5868009375,24.4424959375Q1.5346909375,24.3903859375,1.4879409375,24.3334259375Q1.4412009375,24.2764629375,1.4002609375,24.2151909375Q1.3593209375,24.1539199375,1.3245809375,24.0889309375Q1.2898409375,24.0239419375,1.2616409375,23.9558609375Q1.2334409375,23.8877799375,1.2120509375,23.8172629375Q1.1906609375,23.7467459375,1.1762809375,23.6744709375Q1.1619109375,23.6021969375,1.1546809375,23.5288619375Q1.1474609375,23.4555262375,1.1474609375,23.3818359375Q1.1474609375,23.3081456375,1.1546809375,23.2348099375Q1.1619109375,23.1614749375,1.1762809375,23.0892009375Q1.1906609375,23.0169259375,1.2120509375,22.9464089375Q1.2334409375,22.8758919375,1.2616409375,22.8078109375Q1.2898409375,22.7397299375,1.3245809375,22.6747409375Q1.3593209375,22.6097519375,1.4002609375,22.5484809375Q1.4412009375,22.4872089375,1.4879409375,22.4302459375Q1.5346909375,22.3732859375,1.5868009375,22.3211759375Q1.6389109375,22.2690659375,1.6958709375,22.2223159375Q1.7528339375000002,22.1755759375,1.8141059375,22.1346359375Q1.8753769375,22.0936959375,1.9403659375,22.0589559375Q2.0053549375,22.0242159375,2.0734359375,21.9960159375Q2.1415169375,21.9678159375,2.2120339375,21.9464259375Q2.2825509375,21.9250359375,2.3548259375000002,21.9106559375Q2.4270999375,21.8962859375,2.5004349375,21.8890559375Q2.5737706375,21.8818359375,2.6474609375,21.8818359375Z" fill-rule="evenodd" fill="#006DE2" fill-opacity="1"/></g><g><path d="M4.5849609375,19.49088359375C4.5849609375,13.18640359375,9.6956809375,8.07568359375,16.0001609375,8.07568359375C22.3045609375,8.07568359375,27.4152609375,13.18640359375,27.4152609375,19.49088359375L27.4152609375,23.38678359375L4.5849609375,23.38678359375L4.5849609375,19.49088359375Z" fill="#006DE2" fill-opacity="1"/><path d="M3.0849609375,19.49088359375L3.0849609375,23.38678359375Q3.0849609375,23.46048359375,3.0921809375000002,23.53378359375Q3.0994109375,23.60718359375,3.1137809375,23.67938359375Q3.1281609374999997,23.751683593750002,3.1495509375,23.822183593749997Q3.1709409375,23.89268359375,3.1991409375,23.96078359375Q3.2273409375,24.028883593750002,3.2620809375,24.09388359375Q3.2968209374999997,24.15888359375,3.3377609374999997,24.22018359375Q3.3787009374999997,24.28138359375,3.4254409375,24.33838359375Q3.4721909374999997,24.39538359375,3.5243009375,24.44748359375Q3.5764109375,24.49958359375,3.6333709375,24.54628359375Q3.6903339375,24.59308359375,3.7516059375,24.63398359375Q3.8128769375,24.67488359375,3.8778659375,24.70968359375Q3.9428549375,24.74438359375,4.0109359375,24.77258359375Q4.0790169375000005,24.80078359375,4.1495339375,24.82218359375Q4.2200509375,24.84358359375,4.2923259375,24.85798359375Q4.3645999375,24.87238359375,4.4379349375,24.87958359375Q4.5112706375,24.88678359375,4.5849609375,24.88678359375L27.4152609375,24.88678359375Q27.4889609375,24.88678359375,27.5623609375,24.87958359375Q27.6356609375,24.87238359375,27.7079609375,24.85798359375Q27.7801609375,24.84358359375,27.8507609375,24.82218359375Q27.9212609375,24.80078359375,27.9892609375,24.77258359375Q28.0573609375,24.74438359375,28.1223609375,24.70968359375Q28.1873609375,24.67488359375,28.2486609375,24.63398359375Q28.3099609375,24.59308359375,28.3668609375,24.54628359375Q28.4238609375,24.49958359375,28.4759609375,24.44748359375Q28.5280609375,24.39538359375,28.5747609375,24.33838359375Q28.6215609375,24.28138359375,28.6624609375,24.22018359375Q28.7034609375,24.15888359375,28.7381609375,24.09388359375Q28.7728609375,24.028883593750002,28.8010609375,23.96078359375Q28.8292609375,23.89268359375,28.8506609375,23.822183593749997Q28.8720609375,23.751683593750002,28.8864609375,23.67938359375Q28.9008609375,23.60718359375,28.9080609375,23.53378359375Q28.9152609375,23.46048359375,28.9152609375,23.38678359375L28.9152609375,19.49088359375Q28.9152609375,14.14119359375,25.1325609375,10.35844359375Q21.3497609375,6.57568359375,16.0001609375,6.57568359375Q10.6504709375,6.57568359375,6.8677209375,10.35844359375Q3.0849609375,14.14119359375,3.0849609375,19.49088359375ZM6.0849609375,21.88678359375L25.9152609375,21.88678359375L25.9152609375,19.49088359375Q25.9152609375,15.383833593750001,23.0112609375,12.47976359375Q20.107160937499998,9.57568359375,16.0001609375,9.57568359375Q11.893110937500001,9.57568359375,8.9890409375,12.47976359375Q6.0849609375,15.383833593750001,6.0849609375,19.49088359375L6.0849609375,21.88678359375Z" fill-rule="evenodd" fill="#006DE2" fill-opacity="1"/></g><g><path d="M11.0009765625,14.9765625L11.0009765625,17.7782025Q11.0009765625,17.851892499999998,10.9937565625,17.9252225Q10.9865265625,17.9985625,10.9721565625,18.0708325Q10.9577765625,18.1431125,10.936386562500001,18.2136225Q10.9149965625,18.2841425,10.8867965625,18.3522225Q10.8585965625,18.4203025,10.8238565625,18.4852925Q10.7891165625,18.5502825,10.7481765625,18.611552500000002Q10.7072365625,18.6728225,10.6604965625,18.7297925Q10.6137465625,18.7867525,10.5616365625,18.8388625Q10.5095265625,18.8909625,10.4525665625,18.9377125Q10.3956035625,18.9844625,10.3343315625,19.0254025Q10.2730605625,19.0663425,10.2080715625,19.1010825Q10.1430825625,19.1358225,10.0750015625,19.1640225Q10.0069205625,19.1922225,9.9364035625,19.2136125Q9.8658865625,19.2350025,9.7936115625,19.2493725Q9.7213375625,19.2637525,9.6480025625,19.2709725Q9.5746668625,19.2782025,9.5009765625,19.2782025Q9.4272862625,19.2782025,9.3539505625,19.2709725Q9.2806155625,19.2637525,9.2083415625,19.2493725Q9.1360665625,19.2350025,9.0655495625,19.2136125Q8.9950325625,19.1922225,8.9269515625,19.1640225Q8.8588705625,19.1358225,8.7938815625,19.1010825Q8.7288925625,19.0663425,8.6676215625,19.0254025Q8.6063495625,18.9844625,8.5493865625,18.9377125Q8.4924265625,18.8909625,8.4403165625,18.8388625Q8.3882065625,18.7867525,8.3414565625,18.7297925Q8.2947165625,18.6728225,8.2537765625,18.611552500000002Q8.2128365625,18.5502825,8.1780965625,18.4852925Q8.1433565625,18.4203025,8.1151565625,18.3522225Q8.0869565625,18.2841425,8.065566562499999,18.2136225Q8.0441765625,18.1431125,8.0297965625,18.0708325Q8.0154265625,17.9985625,8.0081965625,17.9252225Q8.0009765625,17.851892499999998,8.0009765625,17.7782025L8.0009765625,14.9765625Q8.0009765625,14.9028722,8.0081965625,14.8295365Q8.0154265625,14.7562015,8.0297965625,14.6839275Q8.0441765625,14.6116525,8.065566562499999,14.5411355Q8.0869565625,14.4706185,8.1151565625,14.4025375Q8.1433565625,14.3344565,8.1780965625,14.2694675Q8.2128365625,14.2044785,8.2537765625,14.1432075Q8.2947165625,14.0819355,8.3414565625,14.0249725Q8.3882065625,13.9680125,8.4403165625,13.9159025Q8.4924265625,13.8637925,8.5493865625,13.8170425Q8.6063495625,13.7703025,8.6676215625,13.7293625Q8.7288925625,13.6884225,8.7938815625,13.6536825Q8.8588705625,13.6189425,8.9269515625,13.5907425Q8.9950325625,13.5625425,9.0655495625,13.541152499999999Q9.1360665625,13.5197625,9.2083415625,13.5053825Q9.2806155625,13.4910125,9.3539505625,13.4837825Q9.4272862625,13.4765625,9.5009765625,13.4765625Q9.5746668625,13.4765625,9.6480025625,13.4837825Q9.7213375625,13.4910125,9.7936115625,13.5053825Q9.8658865625,13.5197625,9.9364035625,13.541152499999999Q10.0069205625,13.5625425,10.0750015625,13.5907425Q10.1430825625,13.6189425,10.2080715625,13.6536825Q10.2730605625,13.6884225,10.3343315625,13.7293625Q10.3956035625,13.7703025,10.4525665625,13.8170425Q10.5095265625,13.8637925,10.5616365625,13.9159025Q10.6137465625,13.9680125,10.6604965625,14.0249725Q10.7072365625,14.0819355,10.7481765625,14.1432075Q10.7891165625,14.2044785,10.8238565625,14.2694675Q10.8585965625,14.3344565,10.8867965625,14.4025375Q10.9149965625,14.4706185,10.936386562500001,14.5411355Q10.9577765625,14.6116525,10.9721565625,14.6839275Q10.9865265625,14.7562015,10.9937565625,14.8295365Q11.0009765625,14.9028722,11.0009765625,14.9765625Z" fill-rule="evenodd" fill="#FFFFFF" fill-opacity="1"/></g><g><path d="M11.6982421875,6.1326946875L11.6982421875,7.5335046875L14.6982421875,7.5335046875L14.6982421875,6.1326946875Q14.6982421875,5.5935446875,15.0794921875,5.2122946875Q15.4607321875,4.8310546875,15.999882187499999,4.8310546875Q16.5390221875,4.8310546875,16.9202721875,5.2122946875Q17.301512187500002,5.5935446875,17.301512187500002,6.1326946875L17.301512187500002,7.5335046875L20.301512187500002,7.5335046875L20.301512187500002,6.1326946875Q20.301512187500002,4.3508946875,19.0415821875,3.0909706875Q17.7816621875,1.8310546875,15.999882187499999,1.8310546875Q14.2181021875,1.8310546875,12.9581761875,3.0909706875Q11.6982421875,4.3508946875,11.6982421875,6.1326946875Z" fill-rule="evenodd" fill="#006DE2" fill-opacity="1"/></g></g></svg>