<svg xmlns="http://www.w3.org/2000/svg" xmlns:xlink="http://www.w3.org/1999/xlink" fill="none" version="1.1" width="31.9999942779541" height="32" viewBox="0 0 31.9999942779541 32"><defs><clipPath id="master_svg0_57347_197390"><rect x="0" y="0" width="31.9999942779541" height="32" rx="0"/></clipPath></defs><g clip-path="url(#master_svg0_57347_197390)"><g><path d="M21.328809375,1.33447265625C22.065109375,1.33447265625,22.662109375,1.93142665625,22.662109375,2.66780265625L22.662109375,4.00114265625L29.328809375,4.00114265625L29.328809375,12.00117265625L26.636709375,12.00117265625L30.298209375,22.06097265625C30.533109375,22.66227265625,30.662109375,23.31657265625,30.662109375,24.00117265625C30.662109375,26.94667265625,28.274309375,29.33447265625,25.328809375,29.33447265625C22.843609375,29.33447265625,20.755509375,27.63477265625,20.163509375,25.33447265625L14.494109375,25.33447265625C13.902009375,27.63477265625,11.813889375,29.33447265625,9.328779375,29.33447265625C6.736119375,29.33447265625,4.575539375,27.48447265625,4.095099375,25.03257265625C3.243395375,24.58727265625,2.662109375,23.69547265625,2.662109375,22.66777265625L2.662109375,9.33447265625C2.662109375,8.59809265625,3.259063375,8.00114265625,3.995439375,8.00114265625L13.328809375,8.00114265625C14.065109375,8.00114265625,14.662109375,8.59809265625,14.662109375,9.33447265625L14.662109375,16.00117265625C14.662109375,16.73747265625,15.259109375,17.33447265625,15.995409375,17.33447265625L18.662109375,17.33447265625C19.398509375,17.33447265625,19.995409375,16.73747265625,19.995409375,16.00117265625L19.995409375,4.00114265625L15.995409375,4.00114265625L15.995409375,1.33447265625L21.328809375,1.33447265625ZM25.328809375,21.33447265625C23.856009375,21.33447265625,22.662109375,22.52837265625,22.662109375,24.00117265625C22.662109375,25.47387265625,23.856009375,26.66777265625,25.328809375,26.66777265625C26.801509375,26.66777265625,27.995409375,25.47387265625,27.995409375,24.00117265625C27.995409375,23.68067265625,27.938909375,23.37347265625,27.835309375,23.08887265625L27.813509375,23.03107265625C27.425509375,22.03797265625,26.459309375,21.33447265625,25.328809375,21.33447265625ZM9.328779375,21.33447265625C7.856019375,21.33447265625,6.662109375,22.52837265625,6.662109375,24.00117265625C6.662109375,25.47387265625,7.856019375,26.66777265625,9.328779375,26.66777265625C10.801539375,26.66777265625,11.995439375,25.47387265625,11.995439375,24.00117265625C11.995439375,22.52837265625,10.801539375,21.33447265625,9.328779375,21.33447265625ZM11.995439375,10.66780265625L5.328779375,10.66780265625L5.328779375,13.33447265625L11.995439375,13.33447265625L11.995439375,10.66780265625ZM26.662109375,6.66780265625L22.662109375,6.66780265625L22.662109375,9.33447265625L26.662109375,9.33447265625L26.662109375,6.66780265625Z" fill="#006DE2" fill-opacity="1"/></g></g></svg>