<svg xmlns="http://www.w3.org/2000/svg" xmlns:xlink="http://www.w3.org/1999/xlink" fill="none" version="1.1" width="28" height="27.999998092651367" viewBox="0 0 28 27.999998092651367"><defs><clipPath id="master_svg0_55174_112775"><rect x="0" y="0" width="28" height="27.999998092651367" rx="0"/></clipPath></defs><g clip-path="url(#master_svg0_55174_112775)"><g><path d="M13.97929212890625,24.2365375C13.17360212890625,24.2365375,12.369142128906251,24.0258375,11.65584212890625,23.6033375L6.75148212890625,20.7070375C5.35076412890625,19.8791375,4.48963642890625,18.3552375,4.50565182990625,16.7278375L4.56108932890625,11.0325875C4.57710442890625,9.4051975,5.46779912890625,7.8972975,6.88453212890625,7.0977675L11.844332128906249,4.2987925C13.26106212890625,3.4992625,15.01293212890625,3.5165095,16.41363212890625,4.3431425L21.31793212890625,7.2394375C22.71873212890625,8.0673075,23.57983212890625,9.591217499999999,23.56383212890625,11.218607500000001L23.50833212890625,16.9138375C23.49233212890625,18.5412375,22.60163212890625,20.0491375,21.18493212890625,20.8487375L16.22513212890625,23.6476375C15.53033212890625,24.0419375,14.75413212890625,24.2365375,13.97929212890625,24.2365375Z" fill="#121212" fill-opacity="1"/><path d="M13.97929212890625,24.2365375C13.17360212890625,24.2365375,12.369142128906251,24.0258375,11.65584212890625,23.6033375L6.75148212890625,20.7070375C5.35076412890625,19.8791375,4.48963642890625,18.3552375,4.50565182990625,16.7278375L4.56108932890625,11.0325875C4.57710442890625,9.4051975,5.46779912890625,7.8972975,6.88453212890625,7.0977675L11.844332128906249,4.2987925C13.26106212890625,3.4992625,15.01293212890625,3.5165095,16.41363212890625,4.3431425L21.31793212890625,7.2394375C22.71873212890625,8.0673075,23.57983212890625,9.591217499999999,23.56383212890625,11.218607500000001L23.50833212890625,16.9138375C23.49233212890625,18.5412375,22.60163212890625,20.0491375,21.18493212890625,20.8487375L16.22513212890625,23.6476375C15.53033212890625,24.0419375,14.75413212890625,24.2365375,13.97929212890625,24.2365375ZM13.97929212890625,22.4865375Q14.72533212890625,22.4865375,15.36503212890625,22.1236375L20.32483212890625,19.3246375Q20.97913212890625,18.955437500000002,21.36503212890625,18.301837499999998Q21.75103212890625,17.6482375,21.75843212890625,16.8968375L21.81383212890625,11.201397499999999Q21.82123212890625,10.4502575,21.44823212890625,9.7895675Q21.07513212890625,9.1287375,20.42813212890625,8.7462975L15.52413212890625,5.8502675Q14.87723212890625,5.4684675,14.11792212890625,5.4610775Q13.35858212890625,5.4536774999999995,12.70441212890625,5.8228575L7.74463212890625,8.621817499999999Q7.09034212890625,8.9910675,6.704412128906251,9.6445875Q6.31840212890625,10.2982475,6.3110021289062495,11.0496275L6.25556212890625,16.745037500000002Q6.2481721289062495,17.4962375,6.62119212890625,18.156937499999998Q6.99429212890625,18.8177375,7.64136212890625,19.2001375L12.54778212890625,22.0977375Q13.20419212890625,22.4865375,13.97929212890625,22.4865375Z" fill-rule="evenodd" fill="#121212" fill-opacity="1"/></g><g><path d="M14.03533732421875,15.41112875C12.24519732421875,15.41112875,10.78875732421875,13.954688749999999,10.78875732421875,12.16454875C10.78875732421875,10.37440875,12.24519732421875,8.91796875,14.03533732421875,8.91796875C15.825477324218749,8.91796875,17.28191732421875,10.37440875,17.28191732421875,12.16454875C17.28191732421875,13.954688749999999,15.825477324218749,15.41112875,14.03533732421875,15.41112875Z" fill="#FFFFFF" fill-opacity="1"/><path d="M14.03533732421875,15.41112875C12.24519732421875,15.41112875,10.78875732421875,13.954688749999999,10.78875732421875,12.16454875C10.78875732421875,10.37440875,12.24519732421875,8.91796875,14.03533732421875,8.91796875C15.825477324218749,8.91796875,17.28191732421875,10.37440875,17.28191732421875,12.16454875C17.28191732421875,13.954688749999999,15.825477324218749,15.41112875,14.03533732421875,15.41112875ZM14.03533732421875,13.66112875Q14.65306732421875,13.66112875,15.092497324218751,13.221708750000001Q15.53191732421875,12.78227875,15.53191732421875,12.16454875Q15.53191732421875,11.54681875,15.092497324218751,11.10738875Q14.65306732421875,10.66796875,14.03533732421875,10.66796875Q13.41760732421875,10.66796875,12.97817732421875,11.10738875Q12.53875732421875,11.54681875,12.53875732421875,12.16454875Q12.53875732421875,12.78227875,12.97817732421875,13.221708750000001Q13.41760732421875,13.66112875,14.03533732421875,13.66112875Z" fill-rule="evenodd" fill="#FFFFFF" fill-opacity="1"/></g><g><g><path d="M13.974316064453124,21.914058359374998Q14.752446064453125,21.914058359374998,15.419606064453125,21.535528359375L19.474616064453123,19.247178359375Q16.990666064453123,17.882568359375,14.036786064453125,17.882568359375Q11.103576064453126,17.882568359375,8.627716064453125,19.232738359375L12.481296064453126,21.508498359375Q13.165916064453125,21.914058359374998,13.974316064453124,21.914058359374998Z" fill-rule="evenodd" fill="#FFFFFF" fill-opacity="1"/></g></g></g></svg>