<svg xmlns="http://www.w3.org/2000/svg" xmlns:xlink="http://www.w3.org/1999/xlink" fill="none" version="1.1" width="28" height="27.999998092651367" viewBox="0 0 28 27.999998092651367"><defs><clipPath id="master_svg0_55174_112771"><rect x="0" y="0" width="28" height="27.999998092651367" rx="0"/></clipPath></defs><g clip-path="url(#master_svg0_55174_112771)"><g><path d="M13.97929212890625,24.2365375C13.17360212890625,24.2365375,12.369142128906251,24.0258375,11.65584212890625,23.6033375L6.75148212890625,20.7070375C5.35076412890625,19.8791375,4.48963642890625,18.3552375,4.50565182990625,16.7278375L4.56108932890625,11.0325875C4.57710442890625,9.4051975,5.46779912890625,7.8972975,6.88453212890625,7.0977675L11.844332128906249,4.2987925C13.26106212890625,3.4992625,15.01293212890625,3.5165095,16.41363212890625,4.3431425L21.31793212890625,7.2394375C22.71873212890625,8.0673075,23.57983212890625,9.591217499999999,23.56383212890625,11.218607500000001L23.50833212890625,16.9138375C23.49233212890625,18.5412375,22.60163212890625,20.0491375,21.18493212890625,20.8487375L16.22513212890625,23.6476375C15.53033212890625,24.0419375,14.75413212890625,24.2365375,13.97929212890625,24.2365375ZM13.97929212890625,22.4865375Q14.72533212890625,22.4865375,15.36503212890625,22.1236375L20.32483212890625,19.3246375Q20.97913212890625,18.955437500000002,21.36503212890625,18.301837499999998Q21.75103212890625,17.6482375,21.75843212890625,16.8968375L21.81383212890625,11.201397499999999Q21.82123212890625,10.4502575,21.44823212890625,9.7895675Q21.07513212890625,9.1287375,20.42813212890625,8.7462975L15.52413212890625,5.8502675Q14.87723212890625,5.4684675,14.11792212890625,5.4610775Q13.35858212890625,5.4536774999999995,12.70441212890625,5.8228575L7.74463212890625,8.621817499999999Q7.09034212890625,8.9910675,6.704412128906251,9.6445875Q6.31840212890625,10.2982475,6.3110021289062495,11.0496275L6.25556212890625,16.745037500000002Q6.2481721289062495,17.4962375,6.62119212890625,18.156937499999998Q6.99429212890625,18.8177375,7.64136212890625,19.2001375L12.54778212890625,22.0977375Q13.20419212890625,22.4865375,13.97929212890625,22.4865375Z" fill-rule="evenodd" fill="#8A8A8E" fill-opacity="1"/></g><g><path d="M14.035334150390625,15.93310505859375C11.957364150390625,15.93310505859375,10.266754150390625,14.24248505859375,10.266754150390625,12.16451505859375C10.266754150390625,10.08654505859375,11.957364150390625,8.39593505859375,14.035334150390625,8.39593505859375C16.113304150390626,8.39593505859375,17.803924150390625,10.08654505859375,17.803924150390625,12.16451505859375C17.803924150390625,14.24248505859375,16.113304150390626,15.93310505859375,14.035334150390625,15.93310505859375ZM14.035334150390625,14.18310505859375Q14.868944150390625,14.18310505859375,15.461434150390625,13.59061505859375Q16.053924150390625,12.99812505859375,16.053924150390625,12.16451505859375Q16.053924150390625,11.33091505859375,15.461434150390625,10.73842505859375Q14.868944150390625,10.14593505859375,14.035334150390625,10.14593505859375Q13.201734150390624,10.14593505859375,12.609244150390625,10.73842505859375Q12.016754150390625,11.33091505859375,12.016754150390625,12.16451505859375Q12.016754150390625,12.99812505859375,12.609244150390625,13.59061505859375Q13.201734150390624,14.18310505859375,14.035334150390625,14.18310505859375Z" fill-rule="evenodd" fill="#8A8A8E" fill-opacity="1"/></g><g><path d="M14.039222275390625,16.87158203125Q9.797902275390625,16.87158203125,6.415190275390625,19.41158203125L7.465974275390625,20.81099203125Q10.381782275390625,18.62158203125,14.039222275390625,18.62158203125Q17.764382275390624,18.62158203125,20.709982275390622,20.88504203125L21.776282275390624,19.49740203125Q18.359082275390627,16.87158203125,14.039222275390625,16.87158203125Z" fill-rule="evenodd" fill="#8A8A8E" fill-opacity="1"/></g></g></svg>