<svg xmlns="http://www.w3.org/2000/svg" xmlns:xlink="http://www.w3.org/1999/xlink" fill="none" version="1.1" width="28" height="27.999998092651367" viewBox="0 0 28 27.999998092651367"><defs><clipPath id="master_svg0_47547_067880"><rect x="0" y="0" width="28" height="27.999998092651367" rx="0"/></clipPath></defs><g clip-path="url(#master_svg0_47547_067880)"><g></g><g><g><path d="M14,5.0486764Q12.29162,5.0486764,10.849630000000001,5.964763L6.4221,8.77755Q5.5827264,9.31079,5.103863,10.18234Q4.625,11.05388,4.625,12.04832L4.625,20Q4.625,21.6051,5.759961,22.74Q6.89492,23.875,8.5,23.875L19.5,23.875Q21.1051,23.875,22.24,22.74Q23.375,21.6051,23.375,20L23.375,12.04832Q23.375,11.05388,22.8961,10.18234Q22.4173,9.3108,21.5779,8.77755L17.150399999999998,5.964763Q15.7084,5.0486764,14,5.0486764ZM7.36051,10.25467L11.788039999999999,7.44189Q12.8005,6.79868,14,6.79868Q15.1995,6.79868,16.212,7.44189L20.639499999999998,10.25467Q21.625,10.88076,21.625,12.04832L21.625,20Q21.625,20.880200000000002,21.0026,21.5026Q20.380200000000002,22.125,19.5,22.125L8.5,22.125Q7.6198,22.125,6.9974,21.5026Q6.375,20.880200000000002,6.375,20L6.375,12.04832Q6.375,10.880749999999999,7.36051,10.25467Z" fill-rule="evenodd" fill="#8A8A8E" fill-opacity="1"/></g><g><path d="M11.300003051757812,18.524993896484375L16.70000305175781,18.524993896484375Q16.786183051757813,18.524993896484375,16.870703051757815,18.541806896484374Q16.955233051757812,18.558619896484377,17.034853051757814,18.591599896484375Q17.114473051757813,18.624578896484376,17.18612305175781,18.672457896484374Q17.257783051757812,18.720336896484376,17.318723051757814,18.781275896484374Q17.379663051757813,18.842213896484374,17.427533051757813,18.913869896484375Q17.475413051757812,18.985525896484376,17.508393051757814,19.065145896484374Q17.541373051757812,19.144765896484376,17.55819305175781,19.229289896484374Q17.57500305175781,19.313813896484376,17.57500305175781,19.399993896484375Q17.57500305175781,19.486173896484374,17.55819305175781,19.570697896484376Q17.541373051757812,19.655221896484374,17.508393051757814,19.734841896484376Q17.475413051757812,19.814461896484374,17.427533051757813,19.886117896484375Q17.379663051757813,19.957773896484376,17.318723051757814,20.018711896484376Q17.257783051757812,20.079650896484374,17.18612305175781,20.127529896484376Q17.114473051757813,20.175408896484374,17.034853051757814,20.208387896484375Q16.955233051757812,20.241367896484373,16.870703051757815,20.258180896484376Q16.786183051757813,20.274993896484375,16.70000305175781,20.274993896484375L11.300003051757812,20.274993896484375Q11.213823051757812,20.274993896484375,11.129299051757812,20.258180896484376Q11.044775051757812,20.241367896484373,10.965155051757813,20.208387896484375Q10.885535051757813,20.175408896484374,10.813879051757812,20.127529896484376Q10.742223051757813,20.079650896484374,10.681285051757813,20.018711896484376Q10.620346051757812,19.957773896484376,10.572467051757812,19.886117896484375Q10.524588051757812,19.814461896484374,10.491609051757813,19.734841896484376Q10.458629051757812,19.655221896484374,10.441816051757812,19.570697896484376Q10.425003051757812,19.486173896484374,10.425003051757812,19.399993896484375Q10.425003051757812,19.313813896484376,10.441816051757812,19.229289896484374Q10.458629051757812,19.144765896484376,10.491609051757813,19.065145896484374Q10.524588051757812,18.985525896484376,10.572467051757812,18.913869896484375Q10.620346051757812,18.842213896484374,10.681285051757813,18.781275896484374Q10.742223051757813,18.720336896484376,10.813879051757812,18.672457896484374Q10.885535051757813,18.624578896484376,10.965155051757813,18.591599896484375Q11.044775051757812,18.558619896484377,11.129299051757812,18.541806896484374Q11.213823051757812,18.524993896484375,11.300003051757812,18.524993896484375Z" fill-rule="evenodd" fill="#8A8A8E" fill-opacity="1"/></g></g></g></svg>