<svg xmlns="http://www.w3.org/2000/svg" xmlns:xlink="http://www.w3.org/1999/xlink" fill="none" version="1.1" width="28" height="27.999998092651367" viewBox="0 0 28 27.999998092651367"><defs><clipPath id="master_svg0_49658_082391"><rect x="0" y="0" width="28" height="27.999998092651367" rx="0"/></clipPath></defs><g clip-path="url(#master_svg0_49658_082391)"><g></g><g><g><path d="M9.896621704101562,5.29241943359375C7.135201704101562,5.29241943359375,4.8966217041015625,7.53099943359375,4.8966217041015625,10.29241943359375L4.8966217041015625,17.18891943359375C4.8966217041015625,19.950319433593748,7.135201704101562,22.18891943359375,9.896621704101562,22.18891943359375L20.274921704101562,22.18891943359375L23.103221704101564,22.70801943359375L21.847821704101563,19.85071943359375L21.847821704101563,10.29241943359375C21.847821704101563,7.53099943359375,19.609221704101564,5.29241943359375,16.847821704101563,5.29241943359375L9.896621704101562,5.29241943359375Z" fill-rule="evenodd" fill="#121212" fill-opacity="1"/><path d="M9.896621704101562,6.16741943359375Q8.187991704101563,6.16741943359375,6.979801704101563,7.3755994335937505Q5.7716217041015625,8.58378943359375,5.7716217041015625,10.29241943359375L5.7716217041015625,17.18891943359375Q5.7716217041015625,18.89761943359375,6.979801704101563,20.105719433593748Q8.187991704101563,21.31391943359375,9.896621704101562,21.31391943359375L20.274921704101562,21.31391943359375Q20.354521704101565,21.31391943359375,20.432821704101563,21.32831943359375L23.261221704101562,21.84741943359375L23.103221704101564,22.70801943359375L22.302221704101562,23.06001943359375L21.04672170410156,20.20271943359375Q20.972821704101563,20.03441943359375,20.972821704101563,19.85071943359375L20.972821704101563,10.29241943359375Q20.972721704101563,8.58378943359375,19.764621704101565,7.3755994335937505Q18.556421704101563,6.16741943359375,16.847721704101563,6.16741943359375L9.896621704101562,6.16741943359375ZM9.896621704101562,4.41741943359375L16.847721704101563,4.41741943359375Q19.281321704101565,4.41741943359375,21.002021704101562,6.13816643359375Q22.722821704101563,7.85890943359375,22.722821704101563,10.29241943359375L22.722821704101563,19.85071943359375L21.847821704101563,19.85071943359375L22.64882170410156,19.49871943359375L23.904321704101562,22.35611943359375Q24.012321704101563,22.60191943359375,23.963921704101562,22.86601943359375Q23.948321704101563,22.95081943359375,23.916521704101562,23.03091943359375Q23.884721704101562,23.11101943359375,23.83792170410156,23.18331943359375Q23.791121704101563,23.25571943359375,23.73112170410156,23.31751943359375Q23.671021704101562,23.37941943359375,23.60012170410156,23.42831943359375Q23.529221704101563,23.47721943359375,23.450021704101562,23.51141943359375Q23.370921704101562,23.54551943359375,23.286721704101563,23.56361943359375Q23.202421704101564,23.58171943359375,23.116221704101562,23.58301943359375Q23.030021704101564,23.58421943359375,22.945321704101563,23.56871943359375L20.116921704101564,23.04951943359375L20.274921704101562,22.18891943359375L20.274921704101562,23.06391943359375L9.896621704101562,23.06391943359375Q7.463111704101562,23.06391943359375,5.742369704101563,21.34321943359375Q4.0216217041015625,19.62241943359375,4.0216217041015625,17.18891943359375L4.0216217041015625,10.29241943359375Q4.0216217041015625,7.85891943359375,5.742369704101563,6.13816743359375Q7.463111704101562,4.41741943359375,9.896621704101562,4.41741943359375Z" fill="#121212" fill-opacity="1"/></g><g><g transform="matrix(0,1,1,0,-2.8542027473449707,2.8542027473449707)"><path d="M10.39579725265503,12.375Q10.309617252655029,12.375,10.225093252655029,12.391812999999999Q10.140569252655029,12.408626,10.06094925265503,12.441606Q9.98132925265503,12.474585,9.909673252655029,12.522464Q9.83801725265503,12.570343,9.77707925265503,12.631282Q9.716140252655029,12.69222,9.668261252655029,12.763876Q9.620382252655029,12.835532,9.58740325265503,12.915152Q9.55442325265503,12.994772,9.537610252655028,13.079296Q9.52079725265503,13.16382,9.52079725265503,13.25Q9.52079725265503,13.33618,9.537610252655028,13.420704Q9.55442325265503,13.505228,9.58740325265503,13.584848Q9.620382252655029,13.664468,9.668261252655029,13.736124Q9.716140252655029,13.80778,9.77707925265503,13.868718Q9.83801725265503,13.929657,9.909673252655029,13.977536Q9.98132925265503,14.025415,10.06094925265503,14.058394Q10.140569252655029,14.091374,10.225093252655029,14.108187000000001Q10.309617252655029,14.125,10.39579725265503,14.125L11.89579725265503,14.125Q11.98197725265503,14.125,12.06649725265503,14.108187000000001Q12.15102725265503,14.091374,12.230647252655029,14.058394Q12.310267252655029,14.025415,12.381917252655029,13.977536Q12.45357725265503,13.929657,12.514517252655029,13.868718Q12.57545725265503,13.80778,12.623337252655029,13.736124Q12.67120725265503,13.664468,12.704187252655029,13.584848Q12.737167252655029,13.505228,12.75398725265503,13.420704Q12.77079725265503,13.33618,12.77079725265503,13.25Q12.77079725265503,13.16382,12.75398725265503,13.079296Q12.737167252655029,12.994772,12.704187252655029,12.915152Q12.67120725265503,12.835532,12.623337252655029,12.763876Q12.57545725265503,12.69222,12.514517252655029,12.631282Q12.45357725265503,12.570343,12.381917252655029,12.522464Q12.310267252655029,12.474585,12.230647252655029,12.441606Q12.15102725265503,12.408626,12.06649725265503,12.391812999999999Q11.98197725265503,12.375,11.89579725265503,12.375L10.39579725265503,12.375Z" fill-rule="evenodd" fill="#FFFFFF" fill-opacity="1"/></g><g transform="matrix(0,1,1,0,3.0981898307800293,-3.0981898307800293)"><path d="M16.34818983078003,12.375Q16.26200983078003,12.375,16.17748583078003,12.391812999999999Q16.09296183078003,12.408626,16.01334183078003,12.441606Q15.93372183078003,12.474585,15.862065830780029,12.522464Q15.79040983078003,12.570343,15.72947183078003,12.631282Q15.668532830780029,12.69222,15.620653830780029,12.763876Q15.572774830780029,12.835532,15.53979583078003,12.915152Q15.50681583078003,12.994772,15.490002830780028,13.079296Q15.47318983078003,13.16382,15.47318983078003,13.25Q15.47318983078003,13.33618,15.490002830780028,13.420704Q15.50681583078003,13.505228,15.53979583078003,13.584848Q15.572774830780029,13.664468,15.620653830780029,13.736124Q15.668532830780029,13.80778,15.72947183078003,13.868718Q15.79040983078003,13.929657,15.862065830780029,13.977536Q15.93372183078003,14.025415,16.01334183078003,14.058394Q16.09296183078003,14.091374,16.17748583078003,14.108187000000001Q16.26200983078003,14.125,16.34818983078003,14.125L17.84818983078003,14.125Q17.934369830780028,14.125,18.01888983078003,14.108187000000001Q18.10341983078003,14.091374,18.18303983078003,14.058394Q18.26265983078003,14.025415,18.33430983078003,13.977536Q18.40596983078003,13.929657,18.46690983078003,13.868718Q18.527849830780028,13.80778,18.57572983078003,13.736124Q18.62359983078003,13.664468,18.65657983078003,13.584848Q18.68955983078003,13.505228,18.70637983078003,13.420704Q18.72318983078003,13.33618,18.72318983078003,13.25Q18.72318983078003,13.16382,18.70637983078003,13.079296Q18.68955983078003,12.994772,18.65657983078003,12.915152Q18.62359983078003,12.835532,18.57572983078003,12.763876Q18.527849830780028,12.69222,18.46690983078003,12.631282Q18.40596983078003,12.570343,18.33430983078003,12.522464Q18.26265983078003,12.474585,18.18303983078003,12.441606Q18.10341983078003,12.408626,18.01888983078003,12.391812999999999Q17.934369830780028,12.375,17.84818983078003,12.375L16.34818983078003,12.375Z" fill-rule="evenodd" fill="#FFFFFF" fill-opacity="1"/></g></g></g></g></svg>