<svg xmlns="http://www.w3.org/2000/svg" xmlns:xlink="http://www.w3.org/1999/xlink" fill="none" version="1.1" width="28" height="27.999998092651367" viewBox="0 0 28 27.999998092651367"><defs><clipPath id="master_svg0_47547_067883"><rect x="0" y="0" width="28" height="27.999998092651367" rx="0"/></clipPath></defs><g clip-path="url(#master_svg0_47547_067883)"><g></g><g><g><path d="M21.0439068359375,7.6238068359375Q21.2710068359375,7.7548968359375,21.4790068359375,7.9144968359375Q21.6869068359375,8.0740968359375,21.8723068359375,8.2594768359375Q22.0577068359375,8.4448668359375,22.2173068359375,8.6528668359375Q22.3769068359375,8.8608568359375,22.5080068359375,9.087906835937499Q22.6391068359375,9.314956835937501,22.7394068359375,9.5571768359375Q22.8398068359375,9.7993868359375,22.9076068359375,10.0526368359375Q22.9755068359375,10.3058768359375,23.0097068359375,10.5658068359375Q23.0439068359375,10.8257368359375,23.0439068359375,11.087906835937499L23.0439068359375,16.9121068359375Q23.0439068359375,17.1743068359375,23.0097068359375,17.434206835937502Q22.9755068359375,17.6941068359375,22.9076068359375,17.9474068359375Q22.8398068359375,18.2006068359375,22.7394068359375,18.4428068359375Q22.6391068359375,18.6851068359375,22.5080068359375,18.9121068359375Q22.3769068359375,19.1392068359375,22.2173068359375,19.347106835937502Q22.0577068359375,19.5551068359375,21.8723068359375,19.7405068359375Q21.6869068359375,19.9259068359375,21.4789068359375,20.0855068359375Q21.2710068359375,20.2451068359375,21.0439068359375,20.3762068359375L16.000006835937498,23.2883068359375Q15.7730068359375,23.4194068359375,15.5307068359375,23.5197068359375Q15.2885068359375,23.6200068359375,15.0353068359375,23.6879068359375Q14.7820068359375,23.7558068359375,14.5221068359375,23.7900068359375Q14.2622068359375,23.8242068359375,14.0000068359375,23.8242068359375Q13.7378068359375,23.8242068359375,13.4779068359375,23.7900068359375Q13.2179768359375,23.7558068359375,12.9647368359375,23.6879068359375Q12.7114868359375,23.6200068359375,12.4692768359375,23.5197068359375Q12.2270568359375,23.4194068359375,12.0000068359375,23.2883068359375L6.9561068359375,20.3762068359375Q6.7290568359375005,20.2451068359375,6.5210568359375,20.0855068359375Q6.3130568359375,19.9259068359375,6.1276768359375,19.7405068359375Q5.9422868359375,19.5551068359375,5.7826868359375005,19.347106835937502Q5.6230868359374995,19.1392068359375,5.4920068359375005,18.9121068359375Q5.3609168359375,18.6851068359375,5.2605868359375005,18.4428068359375Q5.1602568359375,18.2006068359375,5.0923968359375,17.9474068359375Q5.0245468359375,17.6941068359375,4.9903268359375,17.434206835937502Q4.9561068359375,17.1743068359375,4.9561068359375,16.9121068359375L4.9561068359375,11.087906835937499Q4.9561068359375,10.8257368359375,4.9903268359375,10.5658068359375Q5.0245468359375,10.3058768359375,5.0923968359375,10.0526368359375Q5.1602568359375,9.7993968359375,5.2605868359375005,9.5571768359375Q5.3609168359375,9.314956835937501,5.4919968359375,9.087906835937499Q5.6230868359374995,8.8608568359375,5.7826868359375005,8.6528668359375Q5.9422868359375,8.4448668359375,6.1276768359375,8.259486835937501Q6.3130568359375,8.0740968359375,6.5210568359375,7.9144968359375Q6.7290568359375005,7.7548968359375,6.9561068359375,7.6238068359375L12.0000068359375,4.7117068359375Q12.2270568359375,4.5806168359375,12.4692768359375,4.4802908359375Q12.7114868359375,4.3799618359375,12.9647368359375,4.3121058359374995Q13.2179768359375,4.2442498359375005,13.4779068359375,4.2100298359375Q13.7378068359375,4.1758088359375,14.0000068359375,4.1758088359375Q14.2622068359375,4.1758088359375,14.5221068359375,4.2100298359375Q14.7820068359375,4.2442498359375005,15.0353068359375,4.3121058359374995Q15.2885068359375,4.3799618359375,15.5307068359375,4.4802908359375Q15.7730068359375,4.5806168359375,16.000006835937498,4.7117068359375L21.0439068359375,7.6238068359375Z" fill="#121212" fill-opacity="1"/><path d="M21.4814068359375,6.8660368359375Q22.6127068359375,7.519156835937499,23.2658068359375,8.650406835937499Q23.9189068359375,9.7816568359375,23.9189068359375,11.087906835937499L23.9189068359375,16.9121068359375Q23.9189068359375,18.2184068359375,23.2658068359375,19.3496068359375Q22.6126068359375,20.4809068359375,21.4814068359375,21.1340068359375L16.437506835937498,24.0461068359375Q15.3063068359375,24.6992068359375,14.0000068359375,24.6992068359375Q12.6937568359375,24.6992068359375,11.5625068359375,24.0461068359375L6.5186068359375,21.1340068359375Q5.3873568359375,20.4808068359375,4.7342268359375,19.3496068359375Q4.0811038359375,18.2184068359375,4.0811038359375,16.9121068359375L4.0811038359375,11.087906835937499Q4.0811038359375,9.7816568359375,4.7342268359375,8.650406835937499Q5.3873568359375,7.519156835937499,6.5186068359375,6.8660368359375L11.5625068359375,3.9539348359375Q12.6937568359375,3.3008088359375,14.0000068359375,3.3008088359375Q15.3063068359375,3.3008088359375,16.437506835937498,3.9539348359375L21.4814068359375,6.8660368359375ZM20.6064068359375,8.3815768359375L15.5625068359375,5.4694768359375Q14.8373068359375,5.0508068359375,14.0000068359375,5.0508068359375Q13.1626668359375,5.0508068359375,12.4375068359375,5.4694768359375L7.3936068359375,8.3815768359375Q6.6684468359375,8.8002468359375,6.249776835937499,9.525406835937499Q5.8311068359375,10.2505668359375,5.8311068359375,11.087906835937499L5.8311068359375,16.9121068359375Q5.8311068359375,17.7494068359375,6.249776835937499,18.4746068359375Q6.6684468359375,19.1998068359375,7.3936068359375,19.6184068359375L12.4375068359375,22.5305068359375Q13.1626668359375,22.9492068359375,14.0000068359375,22.9492068359375Q14.8373068359375,22.9492068359375,15.5625068359375,22.5305068359375L20.6064068359375,19.6184068359375Q21.3316068359375,19.1998068359375,21.7502068359375,18.4746068359375Q22.1689068359375,17.7494068359375,22.1689068359375,16.9121068359375L22.1689068359375,11.087906835937499Q22.1689068359375,10.2505668359375,21.7502068359375,9.525406835937499Q21.3316068359375,8.8002468359375,20.6064068359375,8.3815768359375Z" fill="#121212" fill-opacity="1"/></g><g><g><g transform="matrix(0.866025447845459,0.5,-0.5,0.866025447845459,7.4192739040227025,-3.667720422145976)"><path d="M10.553695678710938,11.13569450378418L14.533135678710938,11.13569450378418L14.533135678710938,12.88569450378418L10.553695678710938,12.88569450378418Q10.467515678710937,12.88569450378418,10.382991678710937,12.86888150378418Q10.298467678710937,12.85206850378418,10.218847678710938,12.81908850378418Q10.139227678710938,12.78610950378418,10.067571678710937,12.73823050378418Q9.995915678710938,12.69035150378418,9.934977678710938,12.62941250378418Q9.874038678710937,12.568474503784179,9.826159678710937,12.49681850378418Q9.778280678710937,12.425162503784179,9.745301678710938,12.345542503784179Q9.712321678710937,12.26592250378418,9.695508678710937,12.18139850378418Q9.678695678710938,12.09687450378418,9.678695678710938,12.01069450378418Q9.678695678710938,11.924514503784179,9.695508678710937,11.839990503784179Q9.712321678710937,11.755466503784179,9.745301678710938,11.67584650378418Q9.778280678710937,11.59622650378418,9.826159678710937,11.52457050378418Q9.874038678710937,11.45291450378418,9.934977678710938,11.39197650378418Q9.995915678710938,11.331037503784179,10.067571678710937,11.283158503784179Q10.139227678710938,11.235279503784179,10.218847678710938,11.20230050378418Q10.298467678710937,11.16932050378418,10.382991678710937,11.152507503784179Q10.467515678710937,11.13569450378418,10.553695678710938,11.13569450378418Z" fill-rule="evenodd" fill="#FFFFFF" fill-opacity="1"/></g><g transform="matrix(0,1.0000001192092896,-1.0000001192092896,0,28.000441670472256,0.0004721879979285859)"><path d="M13.999983072280884,13.125456929206848L17.979423072280884,13.125456929206848Q18.065603072280883,13.125456929206848,18.150133072280884,13.142269929206847Q18.234653072280885,13.159082929206848,18.314273072280884,13.192062929206848Q18.393893072280882,13.225041929206848,18.465553072280883,13.272920929206848Q18.53720307228088,13.320799929206848,18.598143072280884,13.381738929206849Q18.659083072280882,13.442676929206849,18.706963072280885,13.514332929206848Q18.754843072280885,13.585988929206849,18.787823072280883,13.665608929206849Q18.820803072280885,13.745228929206847,18.837613072280885,13.829752929206848Q18.854423072280884,13.914276929206848,18.854423072280884,14.000456929206848Q18.854423072280884,14.086636929206849,18.837613072280885,14.171160929206849Q18.820803072280885,14.255684929206849,18.787823072280883,14.335304929206847Q18.754843072280885,14.414924929206848,18.706963072280885,14.486580929206848Q18.659083072280882,14.558236929206847,18.598143072280884,14.619174929206848Q18.53720307228088,14.680113929206849,18.465553072280883,14.727992929206849Q18.393893072280882,14.775871929206849,18.314273072280884,14.808850929206848Q18.234653072280885,14.841830929206848,18.150133072280884,14.858643929206849Q18.065603072280883,14.875456929206848,17.979423072280884,14.875456929206848L13.999983072280884,14.875456929206848Q13.913803072280883,14.875456929206848,13.829279072280883,14.858643929206849Q13.744755072280883,14.841830929206848,13.665135072280885,14.808850929206848Q13.585515072280884,14.775871929206849,13.513859072280884,14.727992929206849Q13.442203072280885,14.680113929206849,13.381265072280884,14.619174929206848Q13.320326072280883,14.558236929206847,13.272447072280883,14.486580929206848Q13.224568072280883,14.414924929206848,13.191589072280884,14.335304929206847Q13.158609072280884,14.255684929206849,13.141796072280883,14.171160929206849Q13.124983072280884,14.086636929206849,13.124983072280884,14.000456929206848Q13.124983072280884,13.914276929206848,13.141796072280883,13.829752929206848Q13.158609072280884,13.745228929206847,13.191589072280884,13.665608929206849Q13.224568072280883,13.585988929206849,13.272447072280883,13.514332929206848Q13.320326072280883,13.442676929206849,13.381265072280884,13.381738929206849Q13.442203072280885,13.320799929206848,13.513859072280884,13.272920929206848Q13.585515072280884,13.225041929206848,13.665135072280885,13.192062929206848Q13.744755072280883,13.159082929206848,13.829279072280883,13.142269929206847Q13.913803072280883,13.125456929206848,13.999983072280884,13.125456929206848Z" fill-rule="evenodd" fill="#FFFFFF" fill-opacity="1"/></g><g transform="matrix(-0.8660255670547485,0.5,-0.5,-0.8660255670547485,38.560596276244894,13.689111099919273)"><path d="M17.446303844451904,11.13569450378418L21.425743844451905,11.13569450378418Q21.511923844451903,11.13569450378418,21.596453844451904,11.152507503784179Q21.680973844451906,11.16932050378418,21.760593844451904,11.20230050378418Q21.840213844451903,11.235279503784179,21.911873844451904,11.283158503784179Q21.983523844451902,11.331037503784179,22.044463844451904,11.39197650378418Q22.105403844451903,11.45291450378418,22.153283844451906,11.52457050378418Q22.201163844451905,11.59622650378418,22.234143844451904,11.67584650378418Q22.267123844451906,11.755466503784179,22.283933844451905,11.839990503784179Q22.300743844451905,11.924514503784179,22.300743844451905,12.01069450378418Q22.300743844451905,12.09687450378418,22.283933844451905,12.18139850378418Q22.267123844451906,12.26592250378418,22.234143844451904,12.345542503784179Q22.201163844451905,12.425162503784179,22.153283844451906,12.49681850378418Q22.105403844451903,12.568474503784179,22.044463844451904,12.62941250378418Q21.983523844451902,12.69035150378418,21.911873844451904,12.73823050378418Q21.840213844451903,12.78610950378418,21.760593844451904,12.81908850378418Q21.680973844451906,12.85206850378418,21.596453844451904,12.86888150378418Q21.511923844451903,12.88569450378418,21.425743844451905,12.88569450378418L17.446303844451904,12.88569450378418Q17.360123844451905,12.88569450378418,17.275599844451904,12.86888150378418Q17.191075844451905,12.85206850378418,17.111455844451903,12.81908850378418Q17.031835844451905,12.78610950378418,16.960179844451904,12.73823050378418Q16.888523844451903,12.69035150378418,16.827585844451903,12.62941250378418Q16.766646844451905,12.568474503784179,16.718767844451904,12.49681850378418Q16.670888844451905,12.425162503784179,16.637909844451904,12.345542503784179Q16.604929844451906,12.26592250378418,16.588116844451903,12.18139850378418Q16.571303844451904,12.09687450378418,16.571303844451904,12.01069450378418Q16.571303844451904,11.924514503784179,16.588116844451903,11.839990503784179Q16.604929844451906,11.755466503784179,16.637909844451904,11.67584650378418Q16.670888844451905,11.59622650378418,16.718767844451904,11.52457050378418Q16.766646844451905,11.45291450378418,16.827585844451903,11.39197650378418Q16.888523844451903,11.331037503784179,16.960179844451904,11.283158503784179Q17.031835844451905,11.235279503784179,17.111455844451903,11.20230050378418Q17.191075844451905,11.16932050378418,17.275599844451904,11.152507503784179Q17.360123844451905,11.13569450378418,17.446303844451904,11.13569450378418Z" fill-rule="evenodd" fill="#FFFFFF" fill-opacity="1"/></g></g></g></g></g></svg>