<svg xmlns="http://www.w3.org/2000/svg" xmlns:xlink="http://www.w3.org/1999/xlink" fill="none" version="1.1" width="28" height="28" viewBox="0 0 28 28"><defs><clipPath id="master_svg0_56989_157022"><rect x="0" y="0" width="28" height="28" rx="0"/></clipPath></defs><g clip-path="url(#master_svg0_56989_157022)"><g><g><path d="M5.9100341796875,14.700088180114745Q6.5488741796875,14.874386180114746,7.2359941796875,14.874386180114746Q8.4370841796875,14.874386180114746,9.4906641796875,14.341811180114746Q10.5442341796875,14.874386180114746,11.7453341796875,14.874386180114746Q12.9463941796875,14.874386180114746,13.9999941796875,14.341811180114746Q15.0535341796875,14.874386180114746,16.2546341796875,14.874386180114746Q17.4557341796875,14.874386180114746,18.5093341796875,14.341811180114746Q19.5628341796875,14.874386180114746,20.7640341796875,14.874386180114746Q21.4511341796875,14.874387180114747,22.0899341796875,14.700093180114745L22.0899341796875,20.719861180114748Q22.0899341796875,21.910731180114745,21.2478341796875,22.752801180114744Q20.4057341796875,23.594861180114748,19.2149341796875,23.594871180114744L8.7850341796875,23.594871180114744Q7.5941741796875,23.594871180114744,6.7521021796875,22.752801180114744Q5.9100341796875,21.910731180114745,5.9100341796875,20.719871180114744L5.9100341796875,14.700088180114745L5.9100341796875,14.700088180114745Z" fill-rule="evenodd" fill="#121212" fill-opacity="1"/></g><g><path d="M8.4655632421875,5.289999961853027L19.5344232421875,5.289999961853027C20.4158232421875,5.289999961853027,21.1933232421875,5.866989961853028,21.4486232421875,6.710589961853027L23.0187232421875,11.897469961853027L22.3880232421875,12.275849961853027C21.3884232421875,12.875639961853027,20.1396232421875,12.875639961853027,19.1399232421875,12.275849961853027L18.5093232421875,11.897469961853027L17.878723242187498,12.275849961853027C16.8791232421875,12.875639961853027,15.6302232421875,12.875639961853027,14.6306332421875,12.275849961853027L14.0000032421875,11.897469961853027L13.3693732421875,12.275849961853027C12.3697432421875,12.875639961853027,11.1209232421875,12.875639961853027,10.1212932421875,12.275849961853027L9.4906632421875,11.897469961853027L8.8600332421875,12.275849961853027C7.8604032421875,12.875639961853027,6.6115932421875,12.875639961853027,5.6119682421875,12.275849961853027L4.9813232421875,11.897469961853027L6.5513332421875,6.710589961853027C6.8066732421875,5.866989961853028,7.5841632421875005,5.289999961853027,8.4655632421875,5.289999961853027" fill="#121212" fill-opacity="1"/><path d="M5.7138532421875,6.457089961853027L4.1438472421875,11.643979961853027Q4.1228172421875,11.713449961853026,4.1135242421875,11.785449961853027Q4.1042302421875,11.857439961853029,4.1069272421875,11.929979961853029Q4.1096232421875,12.002509961853027,4.1242362421875,12.073619961853026Q4.1388492421875,12.144719961853028,4.1649792421875,12.212439961853027Q4.1911082421875,12.280169961853026,4.2280402421875,12.342659961853027Q4.2649722421875005,12.405149961853027,4.3116972421875,12.460699961853027Q4.3584222421875,12.516249961853028,4.4136622421875,12.563339961853028Q4.4689022421875,12.610439961853027,4.5311462421875,12.647779961853027L5.1617752421875,13.026149961853028Q7.2359932421875,14.270709961853028,9.310213242187501,13.026159961853027L9.4906632421875,12.917889961853028L9.671103242187499,13.026149961853028Q11.745333242187499,14.270709961853028,13.8195532421875,13.026159961853027L14.0000032421875,12.917889961853028L14.1804432421875,13.026149961853028Q16.2546232421875,14.270709961853028,18.3289232421875,13.026159961853027L18.5093232421875,12.917889961853028L18.6898232421875,13.026149961853028Q20.7640232421875,14.270709961853028,22.8382232421875,13.026159961853027L23.4688232421875,12.647779961853027Q23.5311232421875,12.610429961853027,23.5863232421875,12.563339961853028Q23.6416232421875,12.516249961853028,23.6883232421875,12.460689961853028Q23.7350232421875,12.405139961853028,23.7719232421875,12.342649961853027Q23.8089232421875,12.280159961853027,23.8350232421875,12.212439961853027Q23.8611232421875,12.144719961853028,23.8757232421875,12.073609961853027Q23.8904232421875,12.002509961853027,23.8930232421875,11.929969961853027Q23.8957232421875,11.857429961853027,23.8865232421875,11.785439961853028Q23.8772232421875,11.713449961853026,23.8561232421875,11.643979961853027L22.2861232421875,6.457089961853027Q21.6680232421875,4.414999961853027,19.5344232421875,4.414999961853027L8.4655632421875,4.414999961853027Q6.3319732421875,4.414999961853027,5.7138532421875,6.457089961853027ZM6.0164132421875,11.498099961853027L6.0621632421875,11.525549961853027Q7.2359932421875,12.229869961853026,8.409843242187499,11.525539961853028L9.040473242187499,11.147159961853028Q9.1424732421875,11.085969961853028,9.2570932421875,11.054219961853027Q9.3717232421875,11.022469961853027,9.4906632421875,11.022469961853027Q9.6096032421875,11.022469961853027,9.7242332421875,11.054219961853027Q9.8388532421875,11.085969961853028,9.940843242187501,11.147159961853028L10.571483242187501,11.525549961853027Q11.745333242187499,12.229869961853026,12.9191832421875,11.525539961853028L13.5498132421875,11.147159961853028Q13.6518032421875,11.085969961853028,13.7664332421875,11.054219961853027Q13.8810632421875,11.022469961853027,14.0000032421875,11.022469961853027Q14.1189432421875,11.022469961853027,14.2335632421875,11.054219961853027Q14.3481932421875,11.085969961853028,14.4501832421875,11.147159961853028L15.0808232421875,11.525549961853027Q16.2546232421875,12.229869961853026,17.428523242187502,11.525539961853028L18.0591232421875,11.147169961853027Q18.1611232421875,11.085969961853028,18.2757232421875,11.054219961853027Q18.390423242187502,11.022469961853027,18.5093232421875,11.022469961853027Q18.6283232421875,11.022469961853027,18.7429232421875,11.054219961853027Q18.8575232421875,11.085969961853028,18.9595232421875,11.147159961853028L19.590123242187502,11.525549961853027Q20.7640232421875,12.229869961853026,21.9378232421875,11.525539961853028L21.9836232421875,11.498109961853027L20.6112232421875,6.964079961853027Q20.369323242187498,6.164999961853027,19.5344232421875,6.164999961853027L8.4655632421875,6.164999961853027Q7.6306732421875,6.164999961853027,7.3888032421875,6.964079961853027L6.0164132421875,11.498099961853027Z" fill-rule="evenodd" fill="#121212" fill-opacity="1"/></g></g></g></svg>