<svg xmlns="http://www.w3.org/2000/svg" xmlns:xlink="http://www.w3.org/1999/xlink" fill="none" version="1.1" width="28" height="28" viewBox="0 0 28 28"><defs><clipPath id="master_svg0_56872_162063"><rect x="0" y="0" width="28" height="28" rx="0"/></clipPath></defs><g clip-path="url(#master_svg0_56872_162063)"><g><g><path d="M5.7138532421875,6.45218521484375L4.1438472421875,11.63907521484375Q4.1228182421875,11.708545214843749,4.1135242421875,11.78054521484375Q4.1042312421875,11.852535214843751,4.1069272421875,11.925075214843751Q4.1096242421875,11.99760521484375,4.1242362421875,12.068715214843749Q4.1388492421875,12.13981521484375,4.1649792421875,12.20753521484375Q4.1911082421875,12.275265214843749,4.2280402421875,12.33775521484375Q4.2649732421875,12.40024521484375,4.3116972421875,12.45579521484375Q4.3584222421875,12.51134521484375,4.4136622421875,12.558435214843751Q4.4689022421875,12.60553521484375,4.5311472421875,12.64287521484375L5.1617762421875,13.02124521484375Q6.1193132421875,13.59578521484375,7.2359932421875,13.59578521484375Q8.3526732421875,13.59578521484375,9.310213242187501,13.02125521484375L9.4906632421875,12.91298521484375L9.671103242187499,13.02124521484375Q10.6286532421875,13.59578521484375,11.745333242187499,13.59578521484375Q12.862013242187501,13.59578521484375,13.8195532421875,13.02125521484375L14.0000032421875,12.91298521484375L14.1804432421875,13.02124521484375Q15.1380232421875,13.59578521484375,16.2546232421875,13.59578521484375Q17.3713232421875,13.59578521484375,18.3289232421875,13.02125521484375L18.5093232421875,12.91298521484375L18.6898232421875,13.02124521484375Q19.6473232421875,13.59578521484375,20.7640232421875,13.59578521484375Q21.8807232421875,13.59578521484375,22.8382232421875,13.02125521484375L23.4688232421875,12.64287521484375Q23.5311232421875,12.60552521484375,23.5863232421875,12.558435214843751Q23.6416232421875,12.51134521484375,23.6883232421875,12.45578521484375Q23.7350232421875,12.40023521484375,23.7719232421875,12.33774521484375Q23.8089232421875,12.27525521484375,23.8350232421875,12.20753521484375Q23.8611232421875,12.13981521484375,23.8757232421875,12.06870521484375Q23.8904232421875,11.99760521484375,23.8930232421875,11.92506521484375Q23.8957232421875,11.852535214843751,23.8865232421875,11.78053521484375Q23.8772232421875,11.708545214843749,23.8561232421875,11.63907521484375L22.2861232421875,6.45218521484375Q22.0108232421875,5.54268621484375,21.2477232421875,4.97639021484375Q20.4847232421875,4.41009521484375,19.5344232421875,4.41009521484375L8.4655632421875,4.41009521484375Q7.5153032421875,4.41009521484375,6.7522232421875,4.97639021484375Q5.9891532421875,5.54268621484375,5.7138532421875,6.45218521484375ZM6.0164132421875,11.49319521484375L6.0621632421875,11.52064521484375Q6.6040532421875,11.845785214843751,7.2359932421875,11.845785214843751Q7.867943242187501,11.845785214843751,8.409843242187499,11.52063521484375L9.040473242187499,11.14226521484375Q9.1424732421875,11.08106521484375,9.2570932421875,11.04931521484375Q9.3717232421875,11.01756521484375,9.4906632421875,11.01756521484375Q9.6096032421875,11.01756521484375,9.7242332421875,11.04931521484375Q9.8388532421875,11.08106521484375,9.940843242187501,11.14225521484375L10.571483242187501,11.52064521484375Q11.1133832421875,11.845785214843751,11.745333242187499,11.845785214843751Q12.377283242187499,11.845785214843751,12.9191832421875,11.52063521484375L13.5498132421875,11.14225521484375Q13.6518132421875,11.08106521484375,13.7664332421875,11.04931521484375Q13.8810632421875,11.01756521484375,14.0000032421875,11.01756521484375Q14.1189432421875,11.01756521484375,14.2335632421875,11.04931521484375Q14.3481932421875,11.08106521484375,14.4501832421875,11.14225521484375L15.0808232421875,11.52064521484375Q15.6227232421875,11.845785214843751,16.2546232421875,11.845785214843751Q16.8866232421875,11.845785214843751,17.428523242187502,11.52063521484375L18.0591232421875,11.14226521484375Q18.1611232421875,11.08106521484375,18.2757232421875,11.04931521484375Q18.390423242187502,11.01756521484375,18.5093232421875,11.01756521484375Q18.6283232421875,11.01756521484375,18.7429232421875,11.04931521484375Q18.8575232421875,11.08106521484375,18.9595232421875,11.14226521484375L19.590123242187502,11.52064521484375Q20.1320232421875,11.845785214843751,20.7640232421875,11.845785214843751Q21.3959232421875,11.845785214843751,21.9378232421875,11.52063521484375L21.9836232421875,11.49320521484375L20.6112232421875,6.95917521484375Q20.503423242187502,6.6032852148437495,20.204923242187498,6.38168521484375Q19.9063232421875,6.16009521484375,19.5344232421875,6.16009521484375L8.4655632421875,6.16009521484375Q8.093723242187501,6.16009521484375,7.7951232421875005,6.38168521484375Q7.4965332421875,6.6032852148437495,7.3888032421875,6.95917521484375L6.0164132421875,11.49319521484375Z" fill-rule="evenodd" fill="#8A8A8E" fill-opacity="1"/></g><g><path d="M20.3401783203125,12.79443359375Q20.3401783203125,12.70825359375,20.3569783203125,12.62372959375Q20.3737783203125,12.53920559375,20.406778320312497,12.45958559375Q20.4397783203125,12.37996559375,20.4875783203125,12.30830959375Q20.5354783203125,12.23665359375,20.5964783203125,12.17571559375Q20.6573783203125,12.11477659375,20.7290783203125,12.06689759375Q20.8006783203125,12.01901859375,20.8802783203125,11.98603959375Q20.9599783203125,11.95305959375,21.0444783203125,11.936246593749999Q21.1289783203125,11.91943359375,21.2151783203125,11.91943359375Q21.3013783203125,11.91943359375,21.3858783203125,11.936246593749999Q21.4703783203125,11.95305959375,21.549978320312498,11.98603959375Q21.6295783203125,12.01901859375,21.7012783203125,12.06689759375Q21.7729783203125,12.11477659375,21.8338783203125,12.17571559375Q21.8947783203125,12.23665359375,21.942678320312503,12.30830959375Q21.9905783203125,12.37996559375,22.023578320312502,12.45958559375Q22.0565783203125,12.53920559375,22.0733783203125,12.62372959375Q22.0901783203125,12.70825359375,22.0901783203125,12.79443359375L22.0901783203125,20.71497359375Q22.0901783203125,21.90584359375,21.2480783203125,22.74791359375Q20.4059783203125,23.58993359375,19.2151783203125,23.58993359375L8.7852783203125,23.58993359375Q7.5944153203125,23.58993359375,6.7523465203125,22.74791359375Q5.9102783203125,21.90584359375,5.9102783203125,20.71497359375L5.9102783203125,13.01489459375Q5.9102783203125,12.92871459375,5.9270913203125,12.84419079375Q5.9439043203125,12.75966679375,5.9768843203125,12.68004659375Q6.0098633203125,12.60042659375,6.0577423203125,12.52877059375Q6.1056213203125,12.45711459375,6.1665603203125,12.39617659375Q6.2274983203125,12.33523759375,6.2991543203125,12.28735859375Q6.3708103203125,12.23947959375,6.4504303203125,12.20650059375Q6.5300503203125,12.17352059375,6.6145743203125,12.15670759375Q6.6990983203125,12.13989459375,6.7852783203125,12.13989459375Q6.8714583203125,12.13989459375,6.9559823203125,12.15670759375Q7.0405063203125,12.17352059375,7.1201263203125,12.20650059375Q7.1997463203125,12.23947959375,7.2714023203125,12.28735859375Q7.3430583203125,12.33523759375,7.4039963203125,12.39617659375Q7.4649353203125,12.45711459375,7.5128143203125,12.52877059375Q7.5606933203125,12.60042659375,7.5936723203125,12.68004659375Q7.6266523203125,12.75966679375,7.6434653203125,12.84419079375Q7.6602783203125,12.92871459375,7.6602783203125,13.01489459375L7.6602783203125,20.71497359375Q7.6602783203125,21.18097359375,7.9897783203124995,21.51047359375Q8.3192883203125,21.839973593750003,8.7852783203125,21.839973593750003L19.2151783203125,21.839973593750003Q19.681178320312497,21.839973593750003,20.0106783203125,21.51047359375Q20.3401783203125,21.18096359375,20.3401783203125,20.71497359375L20.3401783203125,12.79443359375Z" fill-rule="evenodd" fill="#8A8A8E" fill-opacity="1"/></g></g></g></svg>