<svg xmlns="http://www.w3.org/2000/svg" xmlns:xlink="http://www.w3.org/1999/xlink" fill="none" version="1.1" width="28" height="27.999998092651367" viewBox="0 0 28 27.999998092651367"><defs><clipPath id="master_svg0_49658_080404"><rect x="0" y="0" width="28" height="27.999998092651367" rx="0"/></clipPath></defs><g clip-path="url(#master_svg0_49658_080404)"><g></g><g><g><path d="M9.896621704101562,6.16741943359375Q8.187991704101563,6.16741943359375,6.979801704101563,7.3755994335937505Q5.7716217041015625,8.58378943359375,5.7716217041015625,10.29241943359375L5.7716217041015625,17.18891943359375Q5.7716217041015625,18.89761943359375,6.979801704101563,20.105719433593748Q8.187991704101563,21.31391943359375,9.896621704101562,21.31391943359375L20.27502170410156,21.31391943359375Q20.35462170410156,21.31391943359375,20.432921704101563,21.32831943359375L23.26132170410156,21.84741943359375L23.103421704101564,22.70801943359375L22.302321704101562,23.06001943359375L21.04672170410156,20.20241943359375Q20.972821704101563,20.034219433593748,20.972821704101563,19.85041943359375L20.972821704101563,10.29241943359375Q20.972721704101563,8.58378943359375,19.764621704101565,7.3755994335937505Q18.556421704101563,6.16741943359375,16.847721704101563,6.16741943359375L9.896621704101562,6.16741943359375ZM9.896621704101562,4.41741943359375L16.847721704101563,4.41741943359375Q19.281321704101565,4.41741943359375,21.002021704101562,6.13816643359375Q22.722821704101563,7.85890943359375,22.722821704101563,10.29241943359375L22.722821704101563,19.85041943359375L21.847821704101563,19.85041943359375L22.64882170410156,19.49841943359375L23.904421704101562,22.35611943359375Q24.012521704101562,22.60191943359375,23.96402170410156,22.86601943359375Q23.948421704101563,22.95081943359375,23.916621704101562,23.03091943359375Q23.88482170410156,23.11101943359375,23.838021704101564,23.18331943359375Q23.791221704101563,23.25571943359375,23.73122170410156,23.31751943359375Q23.671121704101562,23.37941943359375,23.600221704101564,23.42831943359375Q23.529321704101562,23.47721943359375,23.450121704101562,23.51141943359375Q23.37102170410156,23.54551943359375,23.286821704101563,23.56361943359375Q23.202521704101564,23.58171943359375,23.116321704101562,23.58301943359375Q23.030221704101564,23.58421943359375,22.945421704101562,23.56871943359375L20.11702170410156,23.04951943359375L20.27502170410156,22.18891943359375L20.27502170410156,23.06391943359375L9.896621704101562,23.06391943359375Q7.463111704101562,23.06391943359375,5.742369704101563,21.34321943359375Q4.0216217041015625,19.62241943359375,4.0216217041015625,17.18891943359375L4.0216217041015625,10.29241943359375Q4.0216217041015625,7.85891943359375,5.742369704101563,6.13816743359375Q7.463111704101562,4.41741943359375,9.896621704101562,4.41741943359375Z" fill="#8A8A8E" fill-opacity="1"/></g><g><g transform="matrix(0,1,1,0,-2.8539586067199707,2.8539586067199707)"><path d="M10.39604139328003,12.25Q10.297549993280029,12.25,10.200951393280029,12.269214999999999Q10.10435239328003,12.28843,10.01335839328003,12.326121Q9.92236339328003,12.363812,9.84047139328003,12.41853Q9.758578393280029,12.473249,9.688934393280029,12.542893Q9.619290393280028,12.612537,9.56457139328003,12.69443Q9.509853393280029,12.776322,9.47216239328003,12.867317Q9.43447139328003,12.958311,9.415256393280028,13.05491Q9.39604139328003,13.1515086,9.39604139328003,13.25Q9.39604139328003,13.3484914,9.415256393280028,13.44509Q9.43447139328003,13.541689,9.47216239328003,13.632683Q9.509853393280029,13.723678,9.56457139328003,13.80557Q9.619290393280028,13.887463,9.688934393280029,13.957107Q9.758578393280029,14.026751,9.84047139328003,14.08147Q9.92236339328003,14.136188,10.01335839328003,14.173879Q10.10435239328003,14.21157,10.200951393280029,14.230785000000001Q10.297549993280029,14.25,10.39604139328003,14.25L11.89604139328003,14.25Q11.99453139328003,14.25,12.09113139328003,14.230785000000001Q12.187731393280028,14.21157,12.27872139328003,14.173879Q12.36972139328003,14.136188,12.451611393280029,14.08147Q12.53350139328003,14.026751,12.60315139328003,13.957107Q12.67279139328003,13.887463,12.727511393280029,13.80557Q12.782231393280028,13.723678,12.81992139328003,13.632683Q12.85761139328003,13.541689,12.876821393280029,13.44509Q12.89604139328003,13.3484914,12.89604139328003,13.25Q12.89604139328003,13.1515086,12.876821393280029,13.05491Q12.85761139328003,12.958311,12.81992139328003,12.867317Q12.782231393280028,12.776322,12.727511393280029,12.69443Q12.67279139328003,12.612537,12.60315139328003,12.542893Q12.53350139328003,12.473249,12.451611393280029,12.41853Q12.36972139328003,12.363812,12.27872139328003,12.326121Q12.187731393280028,12.28843,12.09113139328003,12.269214999999999Q11.99453139328003,12.25,11.89604139328003,12.25L10.39604139328003,12.25Z" fill-rule="evenodd" fill="#8A8A8E" fill-opacity="1"/></g><g transform="matrix(0,1,1,0,3.098357677459717,-3.098357677459717)"><path d="M16.348357677459717,12.25Q16.249866277459716,12.25,16.153267677459716,12.269214999999999Q16.056668677459715,12.28843,15.965674677459717,12.326121Q15.874679677459717,12.363812,15.792787677459717,12.41853Q15.710894677459716,12.473249,15.641250677459716,12.542893Q15.571606677459716,12.612537,15.516887677459717,12.69443Q15.462169677459716,12.776322,15.424478677459717,12.867317Q15.386787677459717,12.958311,15.367572677459716,13.05491Q15.348357677459717,13.1515086,15.348357677459717,13.25Q15.348357677459717,13.3484914,15.367572677459716,13.44509Q15.386787677459717,13.541689,15.424478677459717,13.632683Q15.462169677459716,13.723678,15.516887677459717,13.80557Q15.571606677459716,13.887463,15.641250677459716,13.957107Q15.710894677459716,14.026751,15.792787677459717,14.08147Q15.874679677459717,14.136188,15.965674677459717,14.173879Q16.056668677459715,14.21157,16.153267677459716,14.230785000000001Q16.249866277459716,14.25,16.348357677459717,14.25L17.848357677459717,14.25Q17.946847677459715,14.25,18.043447677459717,14.230785000000001Q18.140047677459716,14.21157,18.231037677459717,14.173879Q18.32203767745972,14.136188,18.403927677459716,14.08147Q18.485817677459718,14.026751,18.555467677459717,13.957107Q18.625107677459717,13.887463,18.679827677459716,13.80557Q18.734547677459716,13.723678,18.772237677459717,13.632683Q18.80992767745972,13.541689,18.829137677459716,13.44509Q18.848357677459717,13.3484914,18.848357677459717,13.25Q18.848357677459717,13.1515086,18.829137677459716,13.05491Q18.80992767745972,12.958311,18.772237677459717,12.867317Q18.734547677459716,12.776322,18.679827677459716,12.69443Q18.625107677459717,12.612537,18.555467677459717,12.542893Q18.485817677459718,12.473249,18.403927677459716,12.41853Q18.32203767745972,12.363812,18.231037677459717,12.326121Q18.140047677459716,12.28843,18.043447677459717,12.269214999999999Q17.946847677459715,12.25,17.848357677459717,12.25L16.348357677459717,12.25Z" fill-rule="evenodd" fill="#8A8A8E" fill-opacity="1"/></g></g></g></g></svg>