<svg xmlns="http://www.w3.org/2000/svg" xmlns:xlink="http://www.w3.org/1999/xlink" fill="none" version="1.1" width="28" height="28" viewBox="0 0 28 28"><defs><clipPath id="master_svg0_47547_067881"><rect x="0" y="0" width="28" height="28" rx="0"/></clipPath></defs><g clip-path="url(#master_svg0_47547_067881)"><g transform="matrix(1,0,0,-1,0,45)"><path d="M12.08333,21.625L7.5,21.625Q6.309136,21.625,5.4670681,22.467068Q4.625,23.309136,4.625,24.5L4.625,29.55556Q4.625,30.1251,5.027728,30.52783Q5.4304565,30.93056,6,30.93056L12.08333,30.93056Q12.65288,30.93056,13.0556,30.52783Q13.45833,30.1251,13.45833,29.55556L13.45833,23Q13.45833,22.4304567,13.0556,22.027728Q12.65288,21.625,12.08333,21.625ZM18.6537,21.625L16.3889,21.625Q15.8193,21.625,15.41662,22.027728Q15.01389,22.4304565,15.01389,23L15.01389,27.66667Q15.01389,28.23621,15.41662,28.638939999999998Q15.8193,29.04167,16.3889,29.04167L22,29.04167Q22.5695,29.04167,22.9723,28.638939999999998Q23.375,28.23621,23.375,27.66667L23.375,24.5Q23.375,23.309135,22.5329,22.4670681Q21.6909,21.625,20.5,21.625L18.6537,21.625ZM7.5,23.375L11.70833,23.375L11.70833,29.18056L6.375,29.18056L6.375,24.5Q6.375,24.03401,6.7044999999999995,23.7045Q7.03401,23.375,7.5,23.375ZM16.7639,23.375L16.7639,27.29167L21.625,27.29167L21.625,24.5Q21.625,24.03401,21.2955,23.7045Q20.966,23.375,20.5,23.375L16.7639,23.375ZM22,30.59722L16.3889,30.59722Q15.8193,30.59722,15.41662,30.99995Q15.01389,31.40268,15.01389,31.97222L15.01389,39Q15.01389,39.569500000000005,15.41662,39.972300000000004Q15.8193,40.375,16.3889,40.375L20.5,40.375Q21.6909,40.375,22.5329,39.5329Q23.375,38.6909,23.375,37.5L23.375,31.97222Q23.375,31.40268,22.9723,30.99995Q22.5695,30.59722,22,30.59722ZM16.7639,32.34722L16.7639,38.625L20.5,38.625Q20.966,38.625,21.2955,38.295500000000004Q21.625,37.966,21.625,37.5L21.625,32.34722L16.7639,32.34722ZM12.08333,32.48611L6,32.48611Q5.4304564,32.48611,5.027728,32.8888Q4.625,33.2916,4.625,33.8611L4.625,37.5Q4.625,38.6909,5.4670681,39.5329Q6.309135,40.375,7.5,40.375L12.08333,40.375Q12.65288,40.375,13.0556,39.972300000000004Q13.45833,39.569500000000005,13.45833,39L13.45833,33.8611Q13.45833,33.2916,13.0556,32.8888Q12.65288,32.48611,12.08333,32.48611ZM6.375,34.2361L6.375,37.5Q6.375,37.966,6.7044999999999995,38.295500000000004Q7.03401,38.625,7.5,38.625L11.70833,38.625L11.70833,34.2361L6.375,34.2361Z" fill-rule="evenodd" fill="#8A8A8E" fill-opacity="1"/></g></g></svg>