<svg xmlns="http://www.w3.org/2000/svg" xmlns:xlink="http://www.w3.org/1999/xlink" fill="none" version="1.1" width="28" height="28" viewBox="0 0 28 28"><defs><clipPath id="master_svg0_47547_067887"><rect x="0" y="0" width="28" height="28" rx="0"/></clipPath></defs><g clip-path="url(#master_svg0_47547_067887)"><g><g><path d="M14.530009497070314,6.12342723046875Q13.251739497070313,7.4854462304687495,13.251739497070313,9.40997623046875Q13.251739497070313,11.366276230468749,14.517849497070312,12.747786230468751Q15.802659497070312,14.14971623046875,17.622769497070312,14.14971623046875Q19.448719497070314,14.14971623046875,20.733959497070312,12.74571623046875Q22.000659497070313,11.36207623046875,22.000659497070313,9.396306230468749Q22.000659497070313,7.46231623046875,20.718859497070312,6.1086422304687495Q19.43435949707031,4.75213623046875,17.622769497070312,4.75213623046875Q15.816979497070314,4.75213623046875,14.530009497070314,6.12342723046875ZM15.807999497070313,11.565416230468749Q15.001739497070313,10.685666230468751,15.001739497070313,9.40997623046875Q15.001739497070313,8.178026230468749,15.806059497070311,7.32100623046875Q16.574579497070314,6.50213623046875,17.622769497070312,6.50213623046875Q18.68137949707031,6.50213623046875,19.448119497070312,7.31187623046875Q20.250659497070313,8.15939623046875,20.250659497070313,9.396306230468749Q20.250659497070313,10.68203623046875,19.443189497070314,11.56405623046875Q18.678189497070314,12.39971623046875,17.622769497070312,12.39971623046875Q16.572609497070314,12.39971623046875,15.807999497070313,11.565416230468749ZM9.975212497070313,19.02513623046875Q9.352859497070312,20.15593623046875,9.352859497070312,21.24623623046875Q9.352859497070312,23.24793623046875,11.982689497070313,23.24793623046875L23.249159497070313,23.24793623046875Q25.878959497070312,23.24793623046875,25.878959497070312,21.24623623046875Q25.878959497070312,20.15593623046875,25.256659497070313,19.02513623046875Q24.64755949707031,17.91843623046875,23.578159497070313,17.02693623046875Q21.119159497070314,14.97699623046875,17.615889497070313,14.97700623046875Q14.112609497070313,14.97699623046875,11.653689497070312,17.02693623046875Q10.584301497070312,17.91843623046875,9.975212497070313,19.02513623046875ZM11.117737497070312,21.37583623046875Q11.102859497070312,21.34383623046875,11.102859497070312,21.24623623046875Q11.102859497070312,20.60563623046875,11.508349497070313,19.868936230468748Q11.958339497070313,19.05133623046875,12.774279497070312,18.37113623046875Q14.746399497070312,16.727036230468748,17.615899497070313,16.727036230468748Q20.485359497070313,16.727036230468748,22.457559497070314,18.37113623046875Q23.273459497070313,19.05133623046875,23.723459497070312,19.868936230468748Q24.128959497070312,20.60563623046875,24.128959497070312,21.24623623046875Q24.128959497070312,21.34383623046875,24.11415949707031,21.37583623046875L24.11695949707031,21.366936230468752Q23.91935949707031,21.49793623046875,23.249159497070313,21.49793623046875L11.982689497070313,21.49793623046875Q11.312499497070313,21.49793623046875,11.114884497070312,21.366936230468752L11.117737497070312,21.37583623046875Z" fill-rule="evenodd" fill="#8A8A8E" fill-opacity="1"/></g><g><path d="M11.468277456054688,14.718443828125Q12.370667456054688,14.122933828125,12.872667456054687,13.120803828125Q12.965337456054687,12.935813828125,12.965337456054687,12.728903828125L12.965267456054688,12.717693828125Q12.963727456054688,12.597343828125,12.929747456054688,12.481873828125Q12.895767456054687,12.366413828125001,12.831877456054688,12.264403828125001Q12.767977456054687,12.162403828125,12.678917456054688,12.081443828125Q12.589857456054688,12.000483828124999,12.482237456054687,11.946573828125Q12.297247456054688,11.853903828125,12.090337456054687,11.853903828125L12.087837456054688,11.853903828125Q11.947467456054687,11.854303828125001,11.814267456054688,11.898593828125Q11.649107456054688,11.953513828125,11.517537456054688,12.067453828125Q11.385967456054688,12.181383828125,11.308007456054687,12.337003828124999Q11.015797456054688,12.920323828125,10.504377456054687,13.257833828125001Q10.002897456054686,13.588773828125,9.424467456054687,13.588773828125Q8.561867456054689,13.588773828125,7.931177456054687,12.900593828125Q7.260337456054687,12.168613828125,7.260347456054688,11.104123828125001Q7.260337456054687,10.078433828125,7.9285674560546875,9.366423828125Q8.562767456054686,8.690673828125,9.424467456054687,8.690673828125Q10.295517456054688,8.690673828125,10.928217456054687,9.358863828125Q11.052157456054687,9.489753828125,11.217737456054687,9.560993828125Q11.383317456054687,9.632243828125,11.563577456054688,9.632243828125Q11.574287456054687,9.632243828125,11.585007456054688,9.631983828125Q11.747267456054688,9.628003828125,11.897307456054687,9.566103828125Q12.047337456054688,9.504193828125,12.165197456054688,9.392603828125Q12.291577456054688,9.272933828125,12.362537456054687,9.114003828125Q12.433507456054688,8.955083828125,12.438247456054688,8.781098828125Q12.438577456054688,8.769172828125,12.438577456054688,8.757241828125Q12.438577456054688,8.748147828125,12.438387456054688,8.739054828125Q12.434997456054688,8.575943828125,12.373047456054687,8.425015828125Q12.311107456054687,8.274086828125,12.198937456054688,8.155622828125Q11.048497456054687,6.940673828125,9.424467456054687,6.940673828125Q7.805177456054688,6.940673828125,6.652517456054687,8.168845828125Q5.510337456054687,9.385863828125,5.510347456054688,11.104123828125001Q5.510337456054687,12.849223828125,6.641027456054688,14.082973828124999Q7.791917456054687,15.338773828125,9.424467456054687,15.338773828125Q10.528297456054688,15.338773828125,11.468277456054688,14.718443828125ZM5.282867456054687,18.981973828125Q6.965427456054687,17.579223828125002,9.418487456054688,17.579223828125002Q9.504667456054687,17.579213828125,9.589197456054688,17.562403828125Q9.673717456054687,17.545593828125,9.753337456054687,17.512613828124998Q9.832957456054688,17.479633828125,9.904617456054687,17.431753828125Q9.976267456054687,17.383873828124997,10.037207456054688,17.322933828125002Q10.098147456054686,17.261993828125,10.146027456054687,17.190343828125002Q10.193907456054689,17.118683828125,10.226887456054687,17.039063828125002Q10.259867456054687,16.959443828125,10.276677456054689,16.874923828125Q10.293487456054688,16.790393828124998,10.293487456054688,16.704223828125002Q10.293487456054688,16.618033828125,10.276677456054689,16.533513828125002Q10.259867456054687,16.448993828124998,10.226887456054687,16.369373828125Q10.193907456054689,16.289753828125,10.146027456054687,16.218093828125Q10.098147456054686,16.146433828124998,10.037207456054688,16.085503828125Q9.976267456054687,16.024563828125,9.904617456054687,15.976683828125Q9.832957456054688,15.928803828125,9.753337456054687,15.895823828125Q9.673717456054687,15.862843828125,9.589197456054688,15.846033828125Q9.504667456054687,15.829223828125,9.418487456054688,15.829223828125Q6.331637456054688,15.829223828125,4.162267456054687,17.637773828125Q3.2160844560546877,18.426573828125,2.6762044560546876,19.407473828125Q2.1210174560546875,20.416273828125,2.1210174560546875,21.393473828125Q2.1210174560546875,22.369773828125,2.8636384560546877,22.861873828125Q3.4461664560546876,23.247873828125,4.521507456054687,23.247873828125L7.470057456054687,23.247873828125Q7.556237456054688,23.247873828125,7.640767456054688,23.231073828124998Q7.725287456054687,23.214273828125002,7.804907456054687,23.181273828125Q7.884527456054688,23.148273828125,7.956187456054687,23.100373828125Q8.027837456054687,23.052573828125,8.088777456054688,22.991573828125Q8.149717456054688,22.930673828125002,8.197597456054687,22.858973828125002Q8.245477456054687,22.787373828125,8.278457456054689,22.707773828125Q8.311437456054687,22.628073828125,8.328247456054687,22.543573828124998Q8.345057456054686,22.459073828125,8.345057456054686,22.372873828125Q8.345057456054686,22.286673828125,8.328247456054687,22.202173828124998Q8.311437456054687,22.117673828125,8.278457456054689,22.038073828125Q8.245477456054687,21.958373828124998,8.197597456054687,21.886773828125Q8.149717456054688,21.815073828125,8.088777456054688,21.754173828124998Q8.027837456054687,21.693273828125,7.956187456054687,21.645373828125003Q7.884527456054688,21.597473828125,7.804907456054687,21.564473828125Q7.725287456054687,21.531473828125,7.640767456054688,21.514673828124998Q7.556237456054688,21.497873828125,7.470057456054687,21.497873828125L4.521507456054687,21.497873828125Q4.040237456054688,21.497873828125,3.8712304560546875,21.424773828124998Q3.8710174560546875,21.411673828125,3.8710174560546875,21.393473828125Q3.8710174560546875,20.865973828125,4.209337456054687,20.251273828125Q4.590117456054688,19.559473828125,5.282867456054687,18.981973828125Z" fill-rule="evenodd" fill="#8A8A8E" fill-opacity="1"/></g></g></g></svg>