<svg xmlns="http://www.w3.org/2000/svg" xmlns:xlink="http://www.w3.org/1999/xlink" fill="none" version="1.1" width="28" height="28" viewBox="0 0 28 28"><defs><clipPath id="master_svg0_47547_067884"><rect x="0" y="0" width="28" height="28" rx="0"/></clipPath></defs><g clip-path="url(#master_svg0_47547_067884)"><g><g><g><path d="M6.419677734375,19.0953640625L6.419677734375,8.9931640625C6.419677734375,6.7840240625,8.210537734375,4.9931640625,10.419677734375,4.9931640625L17.668077734375,4.9931640625C19.877177734375,4.9931640625,21.668077734375,6.7840240625,21.668077734375,8.9931640625L21.668077734375,13.6433240625Q20.378077734374997,13.0979040625,18.862077734375,13.0979040625Q15.882737734375,13.0979040625,13.776017734375,15.2046640625Q11.669307734375,17.3114640625,11.669307734375,20.2908640625Q11.669307734375,21.8059640625,12.214087734375,23.0953640625L10.419677734375,23.0953640625C8.210537734375,23.0953640625,6.419677734375,21.3045640625,6.419677734375,19.0953640625Z" fill-rule="evenodd" fill="#121212" fill-opacity="1"/><path d="M5.544677734375,19.0953640625L5.544677734375,8.9931640625Q5.544677734375,6.9738740625,6.972531734375,5.5460180625Q8.400387734375,4.1181640625,10.419677734375,4.1181640625L17.668077734375,4.1181640625Q19.687377734374998,4.1181640625,21.115177734375,5.5460180625Q22.543077734375,6.9738740625,22.543077734375,8.9931640625L22.543077734375,14.9632740625L21.327277734375002,14.4492440625Q20.200677734375,13.9729040625,18.862077734375,13.9729040625Q16.245187734375,13.9729040625,14.394747734374999,15.8233640625Q12.544307734375,17.6738640625,12.544307734375,20.2908640625Q12.544307734375,21.6286640625,13.020097734375,22.7548640625L13.533647734375,23.9703640625L10.419677734375,23.9703640625Q8.400387734375,23.9703640625,6.972531734375,22.5425640625Q5.544677734375,21.1146640625,5.544677734375,19.0953640625L5.544677734375,19.0953640625ZM7.294677734375,19.0953640625Q7.294677734375,20.3897640625,8.209967734375,21.3050640625Q9.125257734375,22.2203640625,10.419677734375,22.2203640625L12.214087734375,22.2203640625L12.214087734375,23.0953640625L11.408067734374999,23.4358640625Q10.794307734375,21.9831640625,10.794307734375,20.2908640625Q10.794307734375,16.9490640625,13.157287734375,14.5859740625Q15.520297734375,12.2229040625,18.862077734375,12.2229040625Q20.555377734375,12.2229040625,22.008777734375002,12.8373940625L21.668077734375,13.6433240625L20.793077734375,13.6433240625L20.793077734375,8.9931640625Q20.793077734375,7.698744062499999,19.877777734375,6.7834540625Q18.962477734375,5.8681640625,17.668077734375,5.8681640625L10.419677734375,5.8681640625Q9.125257734375,5.8681640625,8.209967734375,6.7834540625Q7.294677734375,7.698744062499999,7.294677734375,8.9931640625L7.294677734375,19.0953640625L7.294677734375,19.0953640625Z" fill="#121212" fill-opacity="1"/></g><g><ellipse cx="18.862104415893555" cy="20.29094648361206" rx="4.033940315246582" ry="4.034058094024658" fill="#121212" fill-opacity="1"/><ellipse cx="18.862104415893555" cy="20.29094648361206" rx="4.033940315246582" ry="4.034058094024658" fill-opacity="0" stroke-opacity="1" stroke="#121212" fill="none" stroke-width="1.75"/></g><g><path d="M18.201830124853515,18.97848415374756Q18.201830124853515,18.89230415374756,18.218643024853517,18.807780153747558Q18.235456224853515,18.72325615374756,18.268435224853516,18.643636153747558Q18.301415224853514,18.56401615374756,18.349294224853516,18.49236015374756Q18.397173224853514,18.420704153747558,18.458111224853514,18.359766153747557Q18.519050224853515,18.29882715374756,18.590706224853516,18.250948153747558Q18.662362224853517,18.20306915374756,18.741982224853516,18.17009015374756Q18.821602224853514,18.13711015374756,18.906126224853516,18.120297153747558Q18.990650224853514,18.10348415374756,19.076830224853516,18.10348415374756Q19.163014224853516,18.10348415374756,19.247534224853517,18.120297153747558Q19.332054224853515,18.13711015374756,19.411674224853517,18.17009015374756Q19.491294224853515,18.20306915374756,19.562954224853517,18.250948153747558Q19.634614224853514,18.29882715374756,19.695544224853517,18.359766153747557Q19.756484224853516,18.420704153747558,19.804364224853515,18.49236015374756Q19.852244224853514,18.56401615374756,19.885224224853516,18.643636153747558Q19.918204224853515,18.72325615374756,19.935014224853514,18.807780153747558Q19.951834224853517,18.89230415374756,19.951834224853517,18.97848415374756L19.951834224853517,20.36012415374756Q19.951834224853517,20.46150415374756,19.928644224853514,20.56020415374756Q19.905464224853517,20.658894153747557,19.860334224853517,20.74967415374756Q19.815194224853517,20.840454153747558,19.750504224853515,20.91850415374756Q19.685804224853516,20.99656415374756,19.604974224853514,21.05775415374756L18.659306224853516,21.77368415374756L18.659072224853517,21.77386415374756Q18.545056224853514,21.860184153747557,18.409492224853516,21.905704153747557Q18.273928224853517,21.95123415374756,18.130924224853516,21.95123415374756Q18.044744224853517,21.95123415374756,17.960220224853515,21.934424153747557Q17.875696224853517,21.917614153747557,17.796076224853515,21.88463415374756Q17.716456224853516,21.85165415374756,17.644800224853515,21.803774153747558Q17.573144224853515,21.75589415374756,17.512206224853514,21.69495415374756Q17.451267224853517,21.634014153747557,17.403388224853515,21.56236415374756Q17.355509224853517,21.490704153747558,17.322530224853516,21.41108415374756Q17.289550224853517,21.331464153747557,17.272737224853515,21.24694415374756Q17.255924224853516,21.16241415374756,17.255924224853516,21.07623415374756Q17.255924224853516,20.974854153747557,17.279105224853517,20.87616415374756Q17.302287224853515,20.77746415374756,17.347421224853516,20.68668415374756Q17.392555224853517,20.595904153747558,17.457251224853515,20.517854153747557Q17.521947224853516,20.43980415374756,17.602776224853514,20.37860415374756L17.603011224853514,20.37843415374756L18.201830124853515,19.92508715374756L18.201830124853515,18.97848415374756Z" fill-rule="evenodd" fill="#FFFFFF" fill-opacity="1"/></g><g><path d="" fill="#FFFFFF" fill-opacity="1"/><path d="M11.07605791091919,7.5689215660095215L17.01159791091919,7.5689215660095215Q17.09777791091919,7.5689215660095215,17.18229791091919,7.5857345660095215Q17.26682791091919,7.602547566009521,17.34644791091919,7.635527566009522Q17.42606791091919,7.668506566009522,17.49771791091919,7.716385566009522Q17.56937791091919,7.764264566009522,17.63031791091919,7.825203566009521Q17.691247910919188,7.886141566009521,17.73912791091919,7.957797566009521Q17.78700791091919,8.029453566009522,17.81998791091919,8.109073566009522Q17.85296791091919,8.18869356600952,17.86978791091919,8.27321756600952Q17.88659791091919,8.357741566009521,17.88659791091919,8.443921566009521Q17.88659791091919,8.530101566009522,17.86978791091919,8.614625566009522Q17.85296791091919,8.699149566009522,17.81998791091919,8.77876956600952Q17.78700791091919,8.85838956600952,17.73912791091919,8.930045566009522Q17.691247910919188,9.00170156600952,17.63031791091919,9.062639566009521Q17.56937791091919,9.123578566009522,17.49771791091919,9.171457566009522Q17.42606791091919,9.219336566009522,17.34644791091919,9.252315566009521Q17.26682791091919,9.285295566009522,17.18229791091919,9.302108566009522Q17.09777791091919,9.318921566009521,17.01159791091919,9.318921566009521L11.07605791091919,9.318921566009521Q10.989877910919189,9.318921566009521,10.905353910919189,9.302108566009522Q10.820829910919189,9.285295566009522,10.74120991091919,9.252315566009521Q10.66158991091919,9.219336566009522,10.58993391091919,9.171457566009522Q10.51827791091919,9.123578566009522,10.45733991091919,9.062639566009521Q10.396400910919189,9.00170156600952,10.348521910919189,8.930045566009522Q10.300642910919189,8.85838956600952,10.26766391091919,8.77876956600952Q10.23468391091919,8.699149566009522,10.217870910919189,8.614625566009522Q10.20105791091919,8.530101566009522,10.20105791091919,8.443921566009521Q10.20105791091919,8.357741566009521,10.217870910919189,8.27321756600952Q10.23468391091919,8.18869356600952,10.26766391091919,8.109073566009522Q10.300642910919189,8.029453566009522,10.348521910919189,7.957797566009521Q10.396400910919189,7.886141566009521,10.45733991091919,7.825203566009521Q10.51827791091919,7.764264566009522,10.58993391091919,7.716385566009522Q10.66158991091919,7.668506566009522,10.74120991091919,7.635527566009522Q10.820829910919189,7.602547566009521,10.905353910919189,7.5857345660095215Q10.989877910919189,7.5689215660095215,11.07605791091919,7.5689215660095215Z" fill-rule="evenodd" fill="#FFFFFF" fill-opacity="1"/></g></g></g></g></svg>