<svg xmlns="http://www.w3.org/2000/svg" xmlns:xlink="http://www.w3.org/1999/xlink" fill="none" version="1.1" width="28" height="28" viewBox="0 0 28 28"><defs><clipPath id="master_svg0_47547_067886"><rect x="0" y="0" width="28" height="28" rx="0"/></clipPath></defs><g clip-path="url(#master_svg0_47547_067886)"><g><g><path d="M14.529994238281251,6.12342623046875Q13.25172423828125,7.4854462304687495,13.25172423828125,9.40997623046875Q13.25172423828125,11.366276230468749,14.51783423828125,12.747786230468751Q15.80265423828125,14.14971623046875,17.62275423828125,14.14971623046875Q19.44874423828125,14.14971623046875,20.73394423828125,12.74571623046875Q22.00064423828125,11.36207623046875,22.00064423828125,9.396306230468749Q22.00064423828125,7.462316230468749,20.71884423828125,6.10864623046875Q19.43434423828125,4.75213623046875,17.62275423828125,4.75213623046875Q15.816964238281251,4.75213623046875,14.529994238281251,6.12342623046875ZM9.97519823828125,19.02513623046875Q9.35284423828125,20.15593623046875,9.35284423828125,21.24623623046875Q9.35284423828125,23.24793623046875,11.98267423828125,23.24793623046875L23.24914423828125,23.24793623046875Q25.87894423828125,23.24793623046875,25.87894423828125,21.24623623046875Q25.87894423828125,20.15593623046875,25.25664423828125,19.02513623046875Q24.64754423828125,17.91843623046875,23.57814423828125,17.02693623046875Q21.11914423828125,14.97703623046875,17.61587423828125,14.97703623046875Q14.11259423828125,14.97703623046875,11.65367423828125,17.02693623046875Q10.58428423828125,17.91843623046875,9.97519823828125,19.02513623046875Z" fill-rule="evenodd" fill="#121212" fill-opacity="1"/></g><g><path d="M10.655382197265626,15.906493828125Q9.395542197265625,16.967373828124998,8.661052197265626,18.301973828125Q7.852812197265625,19.770473828125,7.852812197265625,21.246273828125Q7.852812197265625,22.429773828125,8.427812197265624,23.247873828125L4.521492197265625,23.247873828125Q3.446152197265625,23.247873828125,2.8636231972656248,22.861873828125Q2.121002197265625,22.369773828125,2.121002197265625,21.393473828125Q2.121002197265625,20.416273828125,2.676189197265625,19.407473828125Q3.2160721972656248,18.426573828125,4.162252197265625,17.637773828125Q6.331622197265625,15.829223828125,9.418472197265626,15.829213828125Q10.056532197265625,15.829213828125,10.655382197265626,15.906493828125ZM11.921022197265625,7.885990828125Q11.751692197265625,8.611663828125,11.751692197265625,9.410033828125Q11.751692197265625,11.510313828125,12.887202197265625,13.112663828125001Q12.625302197265626,13.631213828125,12.213402197265625,14.081113828125Q11.062112197265625,15.338773828125,9.424452197265625,15.338773828125Q7.791902197265625,15.338773828125,6.641012197265625,14.082973828124999Q5.510322197265625,12.849223828125,5.510332197265625,11.104123828125001Q5.510322197265625,9.385863828125,6.652512197265625,8.168843828125Q7.805162197265625,6.940673828125,9.424452197265625,6.940673828125Q10.856982197265625,6.940673828125,11.921022197265625,7.885990828125Z" fill-rule="evenodd" fill="#121212" fill-opacity="1"/></g></g></g></svg>