<svg xmlns="http://www.w3.org/2000/svg" xmlns:xlink="http://www.w3.org/1999/xlink" fill="none" version="1.1" width="28" height="27.999998092651367" viewBox="0 0 28 27.999998092651367"><defs><clipPath id="master_svg0_47547_067879"><rect x="0" y="0" width="28" height="27.999998092651367" rx="0"/></clipPath></defs><g clip-path="url(#master_svg0_47547_067879)"><g></g><g><g><path d="M5.5,20C5.5,21.6569,6.84315,23,8.5,23L19.5,23C21.1569,23,22.5,21.6569,22.5,20L22.5,12.04832C22.5,11.02181,21.9751,10.066559999999999,21.1087,9.516110000000001L16.6812,6.70332C15.04486,5.663794,12.95514,5.663794,11.31884,6.70332L6.8913,9.516110000000001C6.024853,10.066559999999999,5.5,11.02181,5.5,12.04832L5.5,20Z" fill="#121212" fill-opacity="1"/><path d="M14,5.173676Q12.32797,5.173676,10.91666,6.07027L6.489129,8.88306Q5.676832,9.3991,5.213416,10.24253Q4.75,11.08596,4.75,12.04832L4.75,20Q4.75,21.5533,5.84835,22.6517Q6.9467,23.75,8.5,23.75L19.5,23.75Q21.0533,23.75,22.1517,22.6517Q23.25,21.5533,23.25,20L23.25,12.04832Q23.25,11.08597,22.7866,10.24253Q22.3232,9.3991,21.5109,8.88305L17.0833,6.07027Q15.672,5.173676,14,5.173676ZM7.29348,10.14916L11.72101,7.33638Q12.76415,6.67368,14,6.67368Q15.23585,6.67368,16.279,7.33638L20.7065,10.14916Q21.75,10.81208,21.75,12.04832L21.75,20Q21.75,20.932000000000002,21.091,21.591Q20.432000000000002,22.25,19.5,22.25L8.5,22.25Q7.568020000000001,22.25,6.90901,21.591Q6.25,20.932000000000002,6.25,20L6.25,12.04832Q6.25,10.81207,7.29348,10.14916Z" fill-rule="evenodd" fill="#121212" fill-opacity="1"/></g><g><path d="M11.300003051757812,18.524993896484375L16.70000305175781,18.524993896484375Q16.786183051757813,18.524993896484375,16.870703051757815,18.541806896484374Q16.955233051757812,18.558619896484377,17.034853051757814,18.591599896484375Q17.114473051757813,18.624578896484376,17.18612305175781,18.672457896484374Q17.257783051757812,18.720336896484376,17.318723051757814,18.781275896484374Q17.379663051757813,18.842213896484374,17.427533051757813,18.913869896484375Q17.475413051757812,18.985525896484376,17.508393051757814,19.065145896484374Q17.541373051757812,19.144765896484376,17.55819305175781,19.229289896484374Q17.57500305175781,19.313813896484376,17.57500305175781,19.399993896484375Q17.57500305175781,19.486173896484374,17.55819305175781,19.570697896484376Q17.541373051757812,19.655221896484374,17.508393051757814,19.734841896484376Q17.475413051757812,19.814461896484374,17.427533051757813,19.886117896484375Q17.379663051757813,19.957773896484376,17.318723051757814,20.018711896484376Q17.257783051757812,20.079650896484374,17.18612305175781,20.127529896484376Q17.114473051757813,20.175408896484374,17.034853051757814,20.208387896484375Q16.955233051757812,20.241367896484373,16.870703051757815,20.258180896484376Q16.786183051757813,20.274993896484375,16.70000305175781,20.274993896484375L11.300003051757812,20.274993896484375Q11.213823051757812,20.274993896484375,11.129299051757812,20.258180896484376Q11.044775051757812,20.241367896484373,10.965155051757813,20.208387896484375Q10.885535051757813,20.175408896484374,10.813879051757812,20.127529896484376Q10.742223051757813,20.079650896484374,10.681285051757813,20.018711896484376Q10.620346051757812,19.957773896484376,10.572467051757812,19.886117896484375Q10.524588051757812,19.814461896484374,10.491609051757813,19.734841896484376Q10.458629051757812,19.655221896484374,10.441816051757812,19.570697896484376Q10.425003051757812,19.486173896484374,10.425003051757812,19.399993896484375Q10.425003051757812,19.313813896484376,10.441816051757812,19.229289896484374Q10.458629051757812,19.144765896484376,10.491609051757813,19.065145896484374Q10.524588051757812,18.985525896484376,10.572467051757812,18.913869896484375Q10.620346051757812,18.842213896484374,10.681285051757813,18.781275896484374Q10.742223051757813,18.720336896484376,10.813879051757812,18.672457896484374Q10.885535051757813,18.624578896484376,10.965155051757813,18.591599896484375Q11.044775051757812,18.558619896484377,11.129299051757812,18.541806896484374Q11.213823051757812,18.524993896484375,11.300003051757812,18.524993896484375Z" fill-rule="evenodd" fill="#FFFFFF" fill-opacity="1"/></g></g></g></svg>