<svg xmlns="http://www.w3.org/2000/svg" xmlns:xlink="http://www.w3.org/1999/xlink" fill="none" version="1.1" width="340" height="398.9022216796875" viewBox="0 0 340 398.9022216796875"><defs><clipPath id="master_svg0_51941_094872"><rect x="0" y="98.9022216796875" width="340" height="131" rx="10"/></clipPath><clipPath id="master_svg1_51941_094914"><rect x="0" y="242.9022216796875" width="340" height="156" rx="10"/></clipPath></defs><g><g clip-path="url(#master_svg0_51941_094872)"><rect x="0" y="98.9022216796875" width="340" height="131" rx="10" fill="#FFFFFF" fill-opacity="1"/><g><g><rect x="18" y="113.9024658203125" width="56.19921875" height="18.9853515625" rx="5" fill="#F6F6F6" fill-opacity="1"/></g><g><rect x="18" y="137.9024658203125" width="77.44921875" height="22.4853515625" rx="5" fill="#F6F6F6" fill-opacity="1"/></g></g><g><g><rect x="18" y="169.9024658203125" width="56.19921875" height="18.9853515625" rx="5" fill="#F6F6F6" fill-opacity="1"/></g><g><rect x="18" y="193.9024658203125" width="128.642578125" height="22.4853515625" rx="5" fill="#F6F6F6" fill-opacity="1"/></g></g><g><g><rect x="188" y="169.9024658203125" width="56.19921875" height="18.9853515625" rx="5" fill="#F6F6F6" fill-opacity="1"/></g><g><rect x="188" y="193.9024658203125" width="120.3193359375" height="22.4853515625" rx="5" fill="#F6F6F6" fill-opacity="1"/></g></g></g><g clip-path="url(#master_svg1_51941_094914)"><rect x="0" y="242.9022216796875" width="340" height="156" rx="10" fill="#FFFFFF" fill-opacity="1"/><g><rect x="52" y="257.6595458984375" width="128.642578125" height="22.4853515625" rx="5" fill="#F6F6F6" fill-opacity="1"/></g><g><rect x="17" y="257.6595458984375" width="23.8154296875" height="22.4853515625" rx="5" fill="#F6F6F6" fill-opacity="1"/></g><g><line x1="18.5" y1="294.6522216796875" x2="321.5" y2="294.6522216796875" fill-opacity="0" stroke-opacity="1" stroke="#E0E0EA" fill="none" stroke-width="0.5"/></g><g><rect x="52" y="309.6595458984375" width="128.642578125" height="22.4853515625" rx="5" fill="#F6F6F6" fill-opacity="1"/></g><g><rect x="17" y="309.6595458984375" width="23.8154296875" height="22.4853515625" rx="5" fill="#F6F6F6" fill-opacity="1"/></g><g><line x1="18.5" y1="346.6522216796875" x2="321.5" y2="346.6522216796875" fill-opacity="0" stroke-opacity="1" stroke="#E0E0EA" fill="none" stroke-width="0.5"/></g><g><rect x="52" y="361.6595458984375" width="128.642578125" height="22.4853515625" rx="5" fill="#F6F6F6" fill-opacity="1"/></g><g><rect x="17" y="361.6595458984375" width="23.8154296875" height="22.4853515625" rx="5" fill="#F6F6F6" fill-opacity="1"/></g></g><g><rect x="130.5" y="0" width="80" height="23.804443359375" rx="5" fill="#F5F1EC" fill-opacity="1"/></g><g><rect x="114.46875" y="32.9022216796875" width="112.0625" height="38" rx="5" fill="#F5F1EC" fill-opacity="1"/></g></g></svg>