<svg xmlns="http://www.w3.org/2000/svg" xmlns:xlink="http://www.w3.org/1999/xlink" fill="none" version="1.1" width="375" height="688.3209838867188" viewBox="0 0 375 688.3209838867188"><defs><clipPath id="master_svg0_49658_092150"><path d="M0 10C9.81054792658386e-16 4.477152501692065 4.477152501692067 0 10 0L365 0C370.52284749830795 0 375 4.477152501692067 375 10L375 688.3209838867188C375 688.3209838867188 375 688.3209838867188 375 688.3209838867188L0 688.3209838867188C0 688.3209838867188 0 688.3209838867188 0 688.3209838867188Z"/></clipPath><clipPath id="master_svg1_49658_092166"><rect x="0" y="0" width="375" height="66" rx="0"/></clipPath><clipPath id="master_svg2_49658_092704"><rect x="0" y="66" width="375" height="66" rx="0"/></clipPath><clipPath id="master_svg3_49658_092758"><rect x="0" y="132" width="375" height="66" rx="0"/></clipPath><clipPath id="master_svg4_49658_092866"><rect x="0" y="198" width="375" height="66" rx="0"/></clipPath><clipPath id="master_svg5_49658_092839"><rect x="0" y="264" width="375" height="66" rx="0"/></clipPath><clipPath id="master_svg6_49658_092893"><rect x="0" y="330" width="375" height="66" rx="0"/></clipPath><clipPath id="master_svg7_49658_093023"><rect x="0" y="396" width="375" height="66" rx="0"/></clipPath><clipPath id="master_svg8_49658_093047"><rect x="0" y="462" width="375" height="66" rx="0"/></clipPath><clipPath id="master_svg9_49658_093698"><rect x="0" y="528" width="375" height="66" rx="0"/></clipPath><clipPath id="master_svga_49658_093675"><rect x="0" y="594" width="375" height="66" rx="0"/></clipPath><clipPath id="master_svgb_49658_093652"><rect x="0" y="660" width="375" height="66" rx="0"/></clipPath><clipPath id="master_svgc_49658_092997"><rect x="0" y="726" width="375" height="66" rx="0"/></clipPath></defs><g clip-path="url(#master_svg0_49658_092150)"><path d="M0 10C9.81054792658386e-16 4.477152501692065 4.477152501692067 0 10 0L365 0C370.52284749830795 0 375 4.477152501692067 375 10L375 688.3209838867188C375 688.3209838867188 375 688.3209838867188 375 688.3209838867188L0 688.3209838867188C0 688.3209838867188 0 688.3209838867188 0 688.3209838867188Z" fill="#FFFFFF" fill-opacity="1"/><g clip-path="url(#master_svg1_49658_092166)"><rect x="0" y="0" width="375" height="66" rx="0" fill="#FFFFFF" fill-opacity="1"/><g><ellipse cx="38" cy="33" rx="18" ry="18" fill="#F6F6F6" fill-opacity="1"/></g><g><path d="M74.07,20.415L74.07,25.35C74.07,25.380000000000003,74.055,25.41,74.055,25.47C73.695,25.65,73.32,25.814999999999998,72.93,25.994999999999997L72.93,19.995C74.03999999999999,19.634999999999998,74.91,19.23,75.57,18.78L74.78999999999999,17.655C74.025,18.165,72.975,18.63,71.655,19.05L71.655,25.545C71.655,26.1,71.445,26.475,71.055,26.685000000000002L71.415,27.915C72.315,27.555,73.155,27.18,73.92,26.82C73.8,27.45,73.605,28.02,73.35,28.515C72.9,29.265,72.06,29.895,70.83,30.39L71.55,31.53C72.855,31.02,73.8,30.3,74.37,29.369999999999997C74.955,28.365000000000002,75.27,27.03,75.33,25.35L75.33,20.415L74.07,20.415ZM69.915,24.134999999999998C70.2,24.585,70.53,25.14,70.89,25.8L71.64,24.675C71.055,23.91,70.485,23.22,69.915,22.59L69.915,21.87L71.175,21.87L71.175,20.535L69.915,20.535L69.915,17.7L68.535,17.7L68.535,20.535L66.765,20.535L66.765,21.87L68.505,21.87C68.07,23.595,67.38,25.14,66.435,26.490000000000002L67.05,28.064999999999998C67.635,27.015,68.13,25.875,68.535,24.645L68.535,31.5L69.915,31.5L69.915,24.134999999999998ZM78.615,29.07C79.485,29.07,79.92,28.515,79.92,27.435000000000002L79.92,18.57L76.14,18.57L76.14,31.53L77.4,31.53L77.4,19.845L78.66,19.845L78.66,27.15C78.66,27.6,78.495,27.84,78.18,27.84L77.41499999999999,27.78L77.775,29.07L78.615,29.07ZM81.87,23.16L81.87,24.494999999999997L83.145,24.494999999999997L83.145,28.005000000000003C82.605,28.14,82.05,28.259999999999998,81.495,28.365000000000002L81.84,29.73C83.31,29.369999999999997,84.705,28.95,86.01,28.439999999999998L86.01,27.060000000000002C85.545,27.240000000000002,85.065,27.42,84.57,27.585L84.57,24.494999999999997L85.77,24.494999999999997L85.77,23.16L84.57,23.16L84.57,19.935L85.845,19.935L85.845,18.6L81.645,18.6L81.645,19.935L83.145,19.935L83.145,23.16L81.87,23.16ZM86.295,18.615000000000002L86.295,19.86L88.065,19.86L88.065,21.765L90,21.765L90,22.44L86.88,22.44L86.88,25.59L90,25.59L90,26.28L86.505,26.28L86.505,27.435000000000002L90,27.435000000000002L90,28.14L86.97,28.14L86.97,29.265L90,29.265L90,29.955L85.77,29.955L85.77,31.185000000000002L95.37,31.185000000000002L95.37,29.955L91.365,29.955L91.365,29.265L94.425,29.265L94.425,28.14L91.365,28.14L91.365,27.435000000000002L94.77,27.435000000000002L94.77,26.28L91.365,26.28L91.365,25.59L94.425,25.59L94.425,22.44L91.365,22.44L91.365,21.765L93.345,21.765L93.345,19.86L95.1,19.86L95.1,18.615000000000002L93.345,18.615000000000002L93.345,17.715L92.01,17.715L92.01,18.615000000000002L89.385,18.615000000000002L89.385,17.715L88.065,17.715L88.065,18.615000000000002L86.295,18.615000000000002ZM89.385,19.86L92.01,19.86L92.01,20.685L89.385,20.685L89.385,19.86ZM93.18,24.45L91.365,24.45L91.365,23.58L93.18,23.58L93.18,24.45ZM90,24.45L88.14,24.45L88.14,23.58L90,23.58L90,24.45ZM105.36,27.27C106.965,27.03,108.375,26.67,109.60499999999999,26.22L109.14,24.975C108.015,25.41,106.755,25.725,105.36,25.935000000000002L105.36,24.3L103.95,24.3L103.95,29.805C103.95,30.825,104.43,31.35,105.405,31.35L108.255,31.35C108.78,31.35,109.17,31.23,109.425,30.990000000000002C109.695,30.735,109.89,29.955,110.00999999999999,28.65L108.705,28.23C108.675,29.1,108.58500000000001,29.61,108.465,29.775C108.36,29.925,108.21000000000001,30.015,108,30.015L105.84,30.015C105.50999999999999,30.015,105.36,29.835,105.36,29.505000000000003L105.36,27.27ZM98.55,18.165L98.55,23.775L108.39,23.775L108.39,18.165L98.55,18.165ZM106.97999999999999,22.56L99.975,22.56L99.975,21.525L106.97999999999999,21.525L106.97999999999999,22.56ZM99.975,20.384999999999998L99.975,19.38L106.97999999999999,19.38L106.97999999999999,20.384999999999998L99.975,20.384999999999998ZM99.765,27.165L103.005,27.165L103.005,25.875L99.765,25.875L99.765,24.285L98.35499999999999,24.285L98.35499999999999,29.205C98.35499999999999,29.685000000000002,98.13,30.015,97.71000000000001,30.195L98.1,31.439999999999998C100.08,31.155,101.805,30.825,103.245,30.465L102.99000000000001,29.145C102.075,29.43,100.995,29.685000000000002,99.765,29.91L99.765,27.165Z" fill="#3D3D3D" fill-opacity="1"/></g><g><rect x="66" y="36" width="168.992431640625" height="13" rx="4" fill="#F6F6F6" fill-opacity="1"/></g><g><line x1="66" y1="65.75" x2="375" y2="65.75" fill-opacity="0" stroke-opacity="1" stroke="#E0E0EA" fill="none" stroke-width="0.5"/></g><g><rect x="66.000244140625" y="16.4052734375" width="78.733154296875" height="15.5751953125" rx="4" fill="#F6F6F6" fill-opacity="1"/></g></g><g clip-path="url(#master_svg2_49658_092704)"><rect x="0" y="66" width="375" height="66" rx="0" fill="#FFFFFF" fill-opacity="1"/><g><ellipse cx="38" cy="99" rx="18" ry="18" fill="#F6F6F6" fill-opacity="1"/></g><g><path d="M74.07,86.415L74.07,91.35C74.07,91.38,74.055,91.41,74.055,91.47C73.695,91.65,73.32,91.815,72.93,91.995L72.93,85.995C74.03999999999999,85.635,74.91,85.23,75.57,84.78L74.78999999999999,83.655C74.025,84.165,72.975,84.63,71.655,85.05L71.655,91.545C71.655,92.1,71.445,92.475,71.055,92.685L71.415,93.91499999999999C72.315,93.555,73.155,93.18,73.92,92.82C73.8,93.45,73.605,94.02,73.35,94.515C72.9,95.265,72.06,95.895,70.83,96.39L71.55,97.53C72.855,97.02,73.8,96.3,74.37,95.37C74.955,94.365,75.27,93.03,75.33,91.35L75.33,86.415L74.07,86.415ZM69.915,90.135C70.2,90.58500000000001,70.53,91.14,70.89,91.8L71.64,90.675C71.055,89.91,70.485,89.22,69.915,88.59L69.915,87.87L71.175,87.87L71.175,86.535L69.915,86.535L69.915,83.7L68.535,83.7L68.535,86.535L66.765,86.535L66.765,87.87L68.505,87.87C68.07,89.595,67.38,91.14,66.435,92.49L67.05,94.065C67.635,93.015,68.13,91.875,68.535,90.645L68.535,97.5L69.915,97.5L69.915,90.135ZM78.615,95.07C79.485,95.07,79.92,94.515,79.92,93.435L79.92,84.57L76.14,84.57L76.14,97.53L77.4,97.53L77.4,85.845L78.66,85.845L78.66,93.15C78.66,93.6,78.495,93.84,78.18,93.84L77.41499999999999,93.78L77.775,95.07L78.615,95.07ZM81.87,89.16L81.87,90.495L83.145,90.495L83.145,94.005C82.605,94.14,82.05,94.26,81.495,94.365L81.84,95.73C83.31,95.37,84.705,94.95,86.01,94.44L86.01,93.06C85.545,93.24,85.065,93.42,84.57,93.58500000000001L84.57,90.495L85.77,90.495L85.77,89.16L84.57,89.16L84.57,85.935L85.845,85.935L85.845,84.6L81.645,84.6L81.645,85.935L83.145,85.935L83.145,89.16L81.87,89.16ZM86.295,84.615L86.295,85.86L88.065,85.86L88.065,87.765L90,87.765L90,88.44L86.88,88.44L86.88,91.59L90,91.59L90,92.28L86.505,92.28L86.505,93.435L90,93.435L90,94.14L86.97,94.14L86.97,95.265L90,95.265L90,95.955L85.77,95.955L85.77,97.185L95.37,97.185L95.37,95.955L91.365,95.955L91.365,95.265L94.425,95.265L94.425,94.14L91.365,94.14L91.365,93.435L94.77,93.435L94.77,92.28L91.365,92.28L91.365,91.59L94.425,91.59L94.425,88.44L91.365,88.44L91.365,87.765L93.345,87.765L93.345,85.86L95.1,85.86L95.1,84.615L93.345,84.615L93.345,83.715L92.01,83.715L92.01,84.615L89.385,84.615L89.385,83.715L88.065,83.715L88.065,84.615L86.295,84.615ZM89.385,85.86L92.01,85.86L92.01,86.685L89.385,86.685L89.385,85.86ZM93.18,90.45L91.365,90.45L91.365,89.58L93.18,89.58L93.18,90.45ZM90,90.45L88.14,90.45L88.14,89.58L90,89.58L90,90.45ZM105.36,93.27C106.965,93.03,108.375,92.67,109.60499999999999,92.22L109.14,90.975C108.015,91.41,106.755,91.725,105.36,91.935L105.36,90.3L103.95,90.3L103.95,95.805C103.95,96.825,104.43,97.35,105.405,97.35L108.255,97.35C108.78,97.35,109.17,97.23,109.425,96.99C109.695,96.735,109.89,95.955,110.00999999999999,94.65L108.705,94.23C108.675,95.1,108.58500000000001,95.61,108.465,95.775C108.36,95.925,108.21000000000001,96.015,108,96.015L105.84,96.015C105.50999999999999,96.015,105.36,95.83500000000001,105.36,95.505L105.36,93.27ZM98.55,84.165L98.55,89.775L108.39,89.775L108.39,84.165L98.55,84.165ZM106.97999999999999,88.56L99.975,88.56L99.975,87.525L106.97999999999999,87.525L106.97999999999999,88.56ZM99.975,86.385L99.975,85.38L106.97999999999999,85.38L106.97999999999999,86.385L99.975,86.385ZM99.765,93.16499999999999L103.005,93.16499999999999L103.005,91.875L99.765,91.875L99.765,90.285L98.35499999999999,90.285L98.35499999999999,95.205C98.35499999999999,95.685,98.13,96.015,97.71000000000001,96.195L98.1,97.44C100.08,97.155,101.805,96.825,103.245,96.465L102.99000000000001,95.145C102.075,95.43,100.995,95.685,99.765,95.91L99.765,93.16499999999999Z" fill="#3D3D3D" fill-opacity="1"/></g><g><rect x="66" y="102" width="168.992431640625" height="13" rx="4" fill="#F6F6F6" fill-opacity="1"/></g><g><line x1="66" y1="131.75" x2="375" y2="131.75" fill-opacity="0" stroke-opacity="1" stroke="#E0E0EA" fill="none" stroke-width="0.5"/></g><g><rect x="66.000244140625" y="82.4052734375" width="78.733154296875" height="15.5751953125" rx="4" fill="#F6F6F6" fill-opacity="1"/></g></g><g clip-path="url(#master_svg3_49658_092758)"><rect x="0" y="132" width="375" height="66" rx="0" fill="#FFFFFF" fill-opacity="1"/><g><ellipse cx="38" cy="165" rx="18" ry="18" fill="#F6F6F6" fill-opacity="1"/></g><g><path d="M74.07,152.415L74.07,157.35C74.07,157.38,74.055,157.41,74.055,157.47C73.695,157.65,73.32,157.815,72.93,157.995L72.93,151.995C74.03999999999999,151.635,74.91,151.23,75.57,150.78L74.78999999999999,149.655C74.025,150.165,72.975,150.63,71.655,151.05L71.655,157.545C71.655,158.1,71.445,158.475,71.055,158.685L71.415,159.915C72.315,159.555,73.155,159.18,73.92,158.82C73.8,159.45,73.605,160.02,73.35,160.515C72.9,161.265,72.06,161.895,70.83,162.39L71.55,163.53C72.855,163.02,73.8,162.3,74.37,161.37C74.955,160.365,75.27,159.03,75.33,157.35L75.33,152.415L74.07,152.415ZM69.915,156.135C70.2,156.585,70.53,157.14,70.89,157.8L71.64,156.675C71.055,155.91,70.485,155.22,69.915,154.59L69.915,153.87L71.175,153.87L71.175,152.535L69.915,152.535L69.915,149.7L68.535,149.7L68.535,152.535L66.765,152.535L66.765,153.87L68.505,153.87C68.07,155.595,67.38,157.14,66.435,158.49L67.05,160.065C67.635,159.015,68.13,157.875,68.535,156.645L68.535,163.5L69.915,163.5L69.915,156.135ZM78.615,161.07C79.485,161.07,79.92,160.515,79.92,159.435L79.92,150.57L76.14,150.57L76.14,163.53L77.4,163.53L77.4,151.845L78.66,151.845L78.66,159.15C78.66,159.6,78.495,159.84,78.18,159.84L77.41499999999999,159.78L77.775,161.07L78.615,161.07ZM81.87,155.16L81.87,156.495L83.145,156.495L83.145,160.005C82.605,160.14,82.05,160.26,81.495,160.365L81.84,161.73C83.31,161.37,84.705,160.95,86.01,160.44L86.01,159.06C85.545,159.24,85.065,159.42,84.57,159.585L84.57,156.495L85.77,156.495L85.77,155.16L84.57,155.16L84.57,151.935L85.845,151.935L85.845,150.6L81.645,150.6L81.645,151.935L83.145,151.935L83.145,155.16L81.87,155.16ZM86.295,150.615L86.295,151.86L88.065,151.86L88.065,153.765L90,153.765L90,154.44L86.88,154.44L86.88,157.59L90,157.59L90,158.28L86.505,158.28L86.505,159.435L90,159.435L90,160.14L86.97,160.14L86.97,161.265L90,161.265L90,161.955L85.77,161.955L85.77,163.185L95.37,163.185L95.37,161.955L91.365,161.955L91.365,161.265L94.425,161.265L94.425,160.14L91.365,160.14L91.365,159.435L94.77,159.435L94.77,158.28L91.365,158.28L91.365,157.59L94.425,157.59L94.425,154.44L91.365,154.44L91.365,153.765L93.345,153.765L93.345,151.86L95.1,151.86L95.1,150.615L93.345,150.615L93.345,149.715L92.01,149.715L92.01,150.615L89.385,150.615L89.385,149.715L88.065,149.715L88.065,150.615L86.295,150.615ZM89.385,151.86L92.01,151.86L92.01,152.685L89.385,152.685L89.385,151.86ZM93.18,156.45L91.365,156.45L91.365,155.58L93.18,155.58L93.18,156.45ZM90,156.45L88.14,156.45L88.14,155.58L90,155.58L90,156.45ZM105.36,159.27C106.965,159.03,108.375,158.67,109.60499999999999,158.22L109.14,156.975C108.015,157.41,106.755,157.725,105.36,157.935L105.36,156.3L103.95,156.3L103.95,161.805C103.95,162.825,104.43,163.35,105.405,163.35L108.255,163.35C108.78,163.35,109.17,163.23,109.425,162.99C109.695,162.735,109.89,161.955,110.00999999999999,160.65L108.705,160.23C108.675,161.1,108.58500000000001,161.61,108.465,161.775C108.36,161.925,108.21000000000001,162.015,108,162.015L105.84,162.015C105.50999999999999,162.015,105.36,161.835,105.36,161.505L105.36,159.27ZM98.55,150.165L98.55,155.775L108.39,155.775L108.39,150.165L98.55,150.165ZM106.97999999999999,154.56L99.975,154.56L99.975,153.525L106.97999999999999,153.525L106.97999999999999,154.56ZM99.975,152.385L99.975,151.38L106.97999999999999,151.38L106.97999999999999,152.385L99.975,152.385ZM99.765,159.165L103.005,159.165L103.005,157.875L99.765,157.875L99.765,156.285L98.35499999999999,156.285L98.35499999999999,161.205C98.35499999999999,161.685,98.13,162.015,97.71000000000001,162.195L98.1,163.44C100.08,163.155,101.805,162.825,103.245,162.465L102.99000000000001,161.145C102.075,161.43,100.995,161.685,99.765,161.91L99.765,159.165Z" fill="#3D3D3D" fill-opacity="1"/></g><g><rect x="66" y="168" width="168.992431640625" height="13" rx="4" fill="#F6F6F6" fill-opacity="1"/></g><g><line x1="66" y1="197.75" x2="375" y2="197.75" fill-opacity="0" stroke-opacity="1" stroke="#E0E0EA" fill="none" stroke-width="0.5"/></g><g><rect x="66.000244140625" y="148.4052734375" width="78.733154296875" height="15.5751953125" rx="4" fill="#F6F6F6" fill-opacity="1"/></g></g><g clip-path="url(#master_svg4_49658_092866)"><rect x="0" y="198" width="375" height="66" rx="0" fill="#FFFFFF" fill-opacity="1"/><g><ellipse cx="38" cy="231" rx="18" ry="18" fill="#F6F6F6" fill-opacity="1"/></g><g><path d="M74.07,218.415L74.07,223.35C74.07,223.38,74.055,223.41,74.055,223.47C73.695,223.65,73.32,223.815,72.93,223.995L72.93,217.995C74.03999999999999,217.635,74.91,217.23,75.57,216.78L74.78999999999999,215.655C74.025,216.165,72.975,216.63,71.655,217.05L71.655,223.545C71.655,224.1,71.445,224.475,71.055,224.685L71.415,225.915C72.315,225.555,73.155,225.18,73.92,224.82C73.8,225.45,73.605,226.02,73.35,226.515C72.9,227.265,72.06,227.895,70.83,228.39L71.55,229.53C72.855,229.02,73.8,228.3,74.37,227.37C74.955,226.365,75.27,225.03,75.33,223.35L75.33,218.415L74.07,218.415ZM69.915,222.135C70.2,222.585,70.53,223.14,70.89,223.8L71.64,222.675C71.055,221.91,70.485,221.22,69.915,220.59L69.915,219.87L71.175,219.87L71.175,218.535L69.915,218.535L69.915,215.7L68.535,215.7L68.535,218.535L66.765,218.535L66.765,219.87L68.505,219.87C68.07,221.595,67.38,223.14,66.435,224.49L67.05,226.065C67.635,225.015,68.13,223.875,68.535,222.645L68.535,229.5L69.915,229.5L69.915,222.135ZM78.615,227.07C79.485,227.07,79.92,226.515,79.92,225.435L79.92,216.57L76.14,216.57L76.14,229.53L77.4,229.53L77.4,217.845L78.66,217.845L78.66,225.15C78.66,225.6,78.495,225.84,78.18,225.84L77.41499999999999,225.78L77.775,227.07L78.615,227.07ZM81.87,221.16L81.87,222.495L83.145,222.495L83.145,226.005C82.605,226.14,82.05,226.26,81.495,226.365L81.84,227.73C83.31,227.37,84.705,226.95,86.01,226.44L86.01,225.06C85.545,225.24,85.065,225.42,84.57,225.585L84.57,222.495L85.77,222.495L85.77,221.16L84.57,221.16L84.57,217.935L85.845,217.935L85.845,216.6L81.645,216.6L81.645,217.935L83.145,217.935L83.145,221.16L81.87,221.16ZM86.295,216.615L86.295,217.86L88.065,217.86L88.065,219.765L90,219.765L90,220.44L86.88,220.44L86.88,223.59L90,223.59L90,224.28L86.505,224.28L86.505,225.435L90,225.435L90,226.14L86.97,226.14L86.97,227.265L90,227.265L90,227.955L85.77,227.955L85.77,229.185L95.37,229.185L95.37,227.955L91.365,227.955L91.365,227.265L94.425,227.265L94.425,226.14L91.365,226.14L91.365,225.435L94.77,225.435L94.77,224.28L91.365,224.28L91.365,223.59L94.425,223.59L94.425,220.44L91.365,220.44L91.365,219.765L93.345,219.765L93.345,217.86L95.1,217.86L95.1,216.615L93.345,216.615L93.345,215.715L92.01,215.715L92.01,216.615L89.385,216.615L89.385,215.715L88.065,215.715L88.065,216.615L86.295,216.615ZM89.385,217.86L92.01,217.86L92.01,218.685L89.385,218.685L89.385,217.86ZM93.18,222.45L91.365,222.45L91.365,221.58L93.18,221.58L93.18,222.45ZM90,222.45L88.14,222.45L88.14,221.58L90,221.58L90,222.45ZM105.36,225.27C106.965,225.03,108.375,224.67,109.60499999999999,224.22L109.14,222.975C108.015,223.41,106.755,223.725,105.36,223.935L105.36,222.3L103.95,222.3L103.95,227.805C103.95,228.825,104.43,229.35,105.405,229.35L108.255,229.35C108.78,229.35,109.17,229.23,109.425,228.99C109.695,228.735,109.89,227.955,110.00999999999999,226.65L108.705,226.23C108.675,227.1,108.58500000000001,227.61,108.465,227.775C108.36,227.925,108.21000000000001,228.015,108,228.015L105.84,228.015C105.50999999999999,228.015,105.36,227.835,105.36,227.505L105.36,225.27ZM98.55,216.165L98.55,221.775L108.39,221.775L108.39,216.165L98.55,216.165ZM106.97999999999999,220.56L99.975,220.56L99.975,219.525L106.97999999999999,219.525L106.97999999999999,220.56ZM99.975,218.385L99.975,217.38L106.97999999999999,217.38L106.97999999999999,218.385L99.975,218.385ZM99.765,225.165L103.005,225.165L103.005,223.875L99.765,223.875L99.765,222.285L98.35499999999999,222.285L98.35499999999999,227.205C98.35499999999999,227.685,98.13,228.015,97.71000000000001,228.195L98.1,229.44C100.08,229.155,101.805,228.825,103.245,228.465L102.99000000000001,227.145C102.075,227.43,100.995,227.685,99.765,227.91L99.765,225.165Z" fill="#3D3D3D" fill-opacity="1"/></g><g><rect x="66" y="234" width="168.992431640625" height="13" rx="4" fill="#F6F6F6" fill-opacity="1"/></g><g><line x1="66" y1="263.75" x2="375" y2="263.75" fill-opacity="0" stroke-opacity="1" stroke="#E0E0EA" fill="none" stroke-width="0.5"/></g><g><rect x="66.000244140625" y="214.4052734375" width="78.733154296875" height="15.5751953125" rx="4" fill="#F6F6F6" fill-opacity="1"/></g></g><g clip-path="url(#master_svg5_49658_092839)"><rect x="0" y="264" width="375" height="66" rx="0" fill="#FFFFFF" fill-opacity="1"/><g><ellipse cx="38" cy="297" rx="18" ry="18" fill="#F6F6F6" fill-opacity="1"/></g><g><path d="M74.07,284.415L74.07,289.35C74.07,289.38,74.055,289.41,74.055,289.47C73.695,289.65,73.32,289.815,72.93,289.995L72.93,283.995C74.03999999999999,283.635,74.91,283.23,75.57,282.78L74.78999999999999,281.655C74.025,282.165,72.975,282.63,71.655,283.05L71.655,289.545C71.655,290.1,71.445,290.475,71.055,290.685L71.415,291.915C72.315,291.555,73.155,291.18,73.92,290.82C73.8,291.45,73.605,292.02,73.35,292.515C72.9,293.265,72.06,293.895,70.83,294.39L71.55,295.53C72.855,295.02,73.8,294.3,74.37,293.37C74.955,292.365,75.27,291.03,75.33,289.35L75.33,284.415L74.07,284.415ZM69.915,288.135C70.2,288.585,70.53,289.14,70.89,289.8L71.64,288.675C71.055,287.91,70.485,287.22,69.915,286.59L69.915,285.87L71.175,285.87L71.175,284.535L69.915,284.535L69.915,281.7L68.535,281.7L68.535,284.535L66.765,284.535L66.765,285.87L68.505,285.87C68.07,287.595,67.38,289.14,66.435,290.49L67.05,292.065C67.635,291.015,68.13,289.875,68.535,288.645L68.535,295.5L69.915,295.5L69.915,288.135ZM78.615,293.07C79.485,293.07,79.92,292.515,79.92,291.435L79.92,282.57L76.14,282.57L76.14,295.53L77.4,295.53L77.4,283.845L78.66,283.845L78.66,291.15C78.66,291.6,78.495,291.84,78.18,291.84L77.41499999999999,291.78L77.775,293.07L78.615,293.07ZM81.87,287.16L81.87,288.495L83.145,288.495L83.145,292.005C82.605,292.14,82.05,292.26,81.495,292.365L81.84,293.73C83.31,293.37,84.705,292.95,86.01,292.44L86.01,291.06C85.545,291.24,85.065,291.42,84.57,291.585L84.57,288.495L85.77,288.495L85.77,287.16L84.57,287.16L84.57,283.935L85.845,283.935L85.845,282.6L81.645,282.6L81.645,283.935L83.145,283.935L83.145,287.16L81.87,287.16ZM86.295,282.615L86.295,283.86L88.065,283.86L88.065,285.765L90,285.765L90,286.44L86.88,286.44L86.88,289.59L90,289.59L90,290.28L86.505,290.28L86.505,291.435L90,291.435L90,292.14L86.97,292.14L86.97,293.265L90,293.265L90,293.955L85.77,293.955L85.77,295.185L95.37,295.185L95.37,293.955L91.365,293.955L91.365,293.265L94.425,293.265L94.425,292.14L91.365,292.14L91.365,291.435L94.77,291.435L94.77,290.28L91.365,290.28L91.365,289.59L94.425,289.59L94.425,286.44L91.365,286.44L91.365,285.765L93.345,285.765L93.345,283.86L95.1,283.86L95.1,282.615L93.345,282.615L93.345,281.715L92.01,281.715L92.01,282.615L89.385,282.615L89.385,281.715L88.065,281.715L88.065,282.615L86.295,282.615ZM89.385,283.86L92.01,283.86L92.01,284.685L89.385,284.685L89.385,283.86ZM93.18,288.45L91.365,288.45L91.365,287.58L93.18,287.58L93.18,288.45ZM90,288.45L88.14,288.45L88.14,287.58L90,287.58L90,288.45ZM105.36,291.27C106.965,291.03,108.375,290.67,109.60499999999999,290.22L109.14,288.975C108.015,289.41,106.755,289.725,105.36,289.935L105.36,288.3L103.95,288.3L103.95,293.805C103.95,294.825,104.43,295.35,105.405,295.35L108.255,295.35C108.78,295.35,109.17,295.23,109.425,294.99C109.695,294.735,109.89,293.955,110.00999999999999,292.65L108.705,292.23C108.675,293.1,108.58500000000001,293.61,108.465,293.775C108.36,293.925,108.21000000000001,294.015,108,294.015L105.84,294.015C105.50999999999999,294.015,105.36,293.835,105.36,293.505L105.36,291.27ZM98.55,282.165L98.55,287.775L108.39,287.775L108.39,282.165L98.55,282.165ZM106.97999999999999,286.56L99.975,286.56L99.975,285.525L106.97999999999999,285.525L106.97999999999999,286.56ZM99.975,284.385L99.975,283.38L106.97999999999999,283.38L106.97999999999999,284.385L99.975,284.385ZM99.765,291.165L103.005,291.165L103.005,289.875L99.765,289.875L99.765,288.285L98.35499999999999,288.285L98.35499999999999,293.205C98.35499999999999,293.685,98.13,294.015,97.71000000000001,294.195L98.1,295.44C100.08,295.155,101.805,294.825,103.245,294.465L102.99000000000001,293.145C102.075,293.43,100.995,293.685,99.765,293.91L99.765,291.165Z" fill="#3D3D3D" fill-opacity="1"/></g><g><rect x="66" y="300" width="168.992431640625" height="13" rx="4" fill="#F6F6F6" fill-opacity="1"/></g><g><line x1="66" y1="329.75" x2="375" y2="329.75" fill-opacity="0" stroke-opacity="1" stroke="#E0E0EA" fill="none" stroke-width="0.5"/></g><g><rect x="66.000244140625" y="280.4052734375" width="78.733154296875" height="15.5751953125" rx="4" fill="#F6F6F6" fill-opacity="1"/></g></g><g clip-path="url(#master_svg6_49658_092893)"><rect x="0" y="330" width="375" height="66" rx="0" fill="#FFFFFF" fill-opacity="1"/><g><ellipse cx="38" cy="363" rx="18" ry="18" fill="#F6F6F6" fill-opacity="1"/></g><g><path d="M74.07,350.415L74.07,355.35C74.07,355.38,74.055,355.41,74.055,355.47C73.695,355.65,73.32,355.815,72.93,355.995L72.93,349.995C74.03999999999999,349.635,74.91,349.23,75.57,348.78L74.78999999999999,347.655C74.025,348.165,72.975,348.63,71.655,349.05L71.655,355.545C71.655,356.1,71.445,356.475,71.055,356.685L71.415,357.915C72.315,357.555,73.155,357.18,73.92,356.82C73.8,357.45,73.605,358.02,73.35,358.515C72.9,359.265,72.06,359.895,70.83,360.39L71.55,361.53C72.855,361.02,73.8,360.3,74.37,359.37C74.955,358.365,75.27,357.03,75.33,355.35L75.33,350.415L74.07,350.415ZM69.915,354.135C70.2,354.585,70.53,355.14,70.89,355.8L71.64,354.675C71.055,353.91,70.485,353.22,69.915,352.59L69.915,351.87L71.175,351.87L71.175,350.535L69.915,350.535L69.915,347.7L68.535,347.7L68.535,350.535L66.765,350.535L66.765,351.87L68.505,351.87C68.07,353.595,67.38,355.14,66.435,356.49L67.05,358.065C67.635,357.015,68.13,355.875,68.535,354.645L68.535,361.5L69.915,361.5L69.915,354.135ZM78.615,359.07C79.485,359.07,79.92,358.515,79.92,357.435L79.92,348.57L76.14,348.57L76.14,361.53L77.4,361.53L77.4,349.845L78.66,349.845L78.66,357.15C78.66,357.6,78.495,357.84,78.18,357.84L77.41499999999999,357.78L77.775,359.07L78.615,359.07ZM81.87,353.16L81.87,354.495L83.145,354.495L83.145,358.005C82.605,358.14,82.05,358.26,81.495,358.365L81.84,359.73C83.31,359.37,84.705,358.95,86.01,358.44L86.01,357.06C85.545,357.24,85.065,357.42,84.57,357.585L84.57,354.495L85.77,354.495L85.77,353.16L84.57,353.16L84.57,349.935L85.845,349.935L85.845,348.6L81.645,348.6L81.645,349.935L83.145,349.935L83.145,353.16L81.87,353.16ZM86.295,348.615L86.295,349.86L88.065,349.86L88.065,351.765L90,351.765L90,352.44L86.88,352.44L86.88,355.59L90,355.59L90,356.28L86.505,356.28L86.505,357.435L90,357.435L90,358.14L86.97,358.14L86.97,359.265L90,359.265L90,359.955L85.77,359.955L85.77,361.185L95.37,361.185L95.37,359.955L91.365,359.955L91.365,359.265L94.425,359.265L94.425,358.14L91.365,358.14L91.365,357.435L94.77,357.435L94.77,356.28L91.365,356.28L91.365,355.59L94.425,355.59L94.425,352.44L91.365,352.44L91.365,351.765L93.345,351.765L93.345,349.86L95.1,349.86L95.1,348.615L93.345,348.615L93.345,347.715L92.01,347.715L92.01,348.615L89.385,348.615L89.385,347.715L88.065,347.715L88.065,348.615L86.295,348.615ZM89.385,349.86L92.01,349.86L92.01,350.685L89.385,350.685L89.385,349.86ZM93.18,354.45L91.365,354.45L91.365,353.58L93.18,353.58L93.18,354.45ZM90,354.45L88.14,354.45L88.14,353.58L90,353.58L90,354.45ZM105.36,357.27C106.965,357.03,108.375,356.67,109.60499999999999,356.22L109.14,354.975C108.015,355.41,106.755,355.725,105.36,355.935L105.36,354.3L103.95,354.3L103.95,359.805C103.95,360.825,104.43,361.35,105.405,361.35L108.255,361.35C108.78,361.35,109.17,361.23,109.425,360.99C109.695,360.735,109.89,359.955,110.00999999999999,358.65L108.705,358.23C108.675,359.1,108.58500000000001,359.61,108.465,359.775C108.36,359.925,108.21000000000001,360.015,108,360.015L105.84,360.015C105.50999999999999,360.015,105.36,359.835,105.36,359.505L105.36,357.27ZM98.55,348.165L98.55,353.775L108.39,353.775L108.39,348.165L98.55,348.165ZM106.97999999999999,352.56L99.975,352.56L99.975,351.525L106.97999999999999,351.525L106.97999999999999,352.56ZM99.975,350.385L99.975,349.38L106.97999999999999,349.38L106.97999999999999,350.385L99.975,350.385ZM99.765,357.165L103.005,357.165L103.005,355.875L99.765,355.875L99.765,354.285L98.35499999999999,354.285L98.35499999999999,359.205C98.35499999999999,359.685,98.13,360.015,97.71000000000001,360.195L98.1,361.44C100.08,361.155,101.805,360.825,103.245,360.465L102.99000000000001,359.145C102.075,359.43,100.995,359.685,99.765,359.91L99.765,357.165Z" fill="#3D3D3D" fill-opacity="1"/></g><g><rect x="66" y="366" width="168.992431640625" height="13" rx="4" fill="#F6F6F6" fill-opacity="1"/></g><g><line x1="66" y1="395.75" x2="375" y2="395.75" fill-opacity="0" stroke-opacity="1" stroke="#E0E0EA" fill="none" stroke-width="0.5"/></g><g><rect x="66.000244140625" y="346.4052734375" width="78.733154296875" height="15.5751953125" rx="4" fill="#F6F6F6" fill-opacity="1"/></g></g><g clip-path="url(#master_svg7_49658_093023)"><rect x="0" y="396" width="375" height="66" rx="0" fill="#FFFFFF" fill-opacity="1"/><g><ellipse cx="38" cy="429" rx="18" ry="18" fill="#F6F6F6" fill-opacity="1"/></g><g><path d="M74.07,416.415L74.07,421.35C74.07,421.38,74.055,421.41,74.055,421.47C73.695,421.65,73.32,421.815,72.93,421.995L72.93,415.995C74.03999999999999,415.635,74.91,415.23,75.57,414.78L74.78999999999999,413.655C74.025,414.165,72.975,414.63,71.655,415.05L71.655,421.545C71.655,422.1,71.445,422.475,71.055,422.685L71.415,423.915C72.315,423.555,73.155,423.18,73.92,422.82C73.8,423.45,73.605,424.02,73.35,424.515C72.9,425.265,72.06,425.895,70.83,426.39L71.55,427.53C72.855,427.02,73.8,426.3,74.37,425.37C74.955,424.365,75.27,423.03,75.33,421.35L75.33,416.415L74.07,416.415ZM69.915,420.135C70.2,420.585,70.53,421.14,70.89,421.8L71.64,420.675C71.055,419.91,70.485,419.22,69.915,418.59L69.915,417.87L71.175,417.87L71.175,416.535L69.915,416.535L69.915,413.7L68.535,413.7L68.535,416.535L66.765,416.535L66.765,417.87L68.505,417.87C68.07,419.595,67.38,421.14,66.435,422.49L67.05,424.065C67.635,423.015,68.13,421.875,68.535,420.645L68.535,427.5L69.915,427.5L69.915,420.135ZM78.615,425.07C79.485,425.07,79.92,424.515,79.92,423.435L79.92,414.57L76.14,414.57L76.14,427.53L77.4,427.53L77.4,415.845L78.66,415.845L78.66,423.15C78.66,423.6,78.495,423.84,78.18,423.84L77.41499999999999,423.78L77.775,425.07L78.615,425.07ZM81.87,419.16L81.87,420.495L83.145,420.495L83.145,424.005C82.605,424.14,82.05,424.26,81.495,424.365L81.84,425.73C83.31,425.37,84.705,424.95,86.01,424.44L86.01,423.06C85.545,423.24,85.065,423.42,84.57,423.585L84.57,420.495L85.77,420.495L85.77,419.16L84.57,419.16L84.57,415.935L85.845,415.935L85.845,414.6L81.645,414.6L81.645,415.935L83.145,415.935L83.145,419.16L81.87,419.16ZM86.295,414.615L86.295,415.86L88.065,415.86L88.065,417.765L90,417.765L90,418.44L86.88,418.44L86.88,421.59L90,421.59L90,422.28L86.505,422.28L86.505,423.435L90,423.435L90,424.14L86.97,424.14L86.97,425.265L90,425.265L90,425.955L85.77,425.955L85.77,427.185L95.37,427.185L95.37,425.955L91.365,425.955L91.365,425.265L94.425,425.265L94.425,424.14L91.365,424.14L91.365,423.435L94.77,423.435L94.77,422.28L91.365,422.28L91.365,421.59L94.425,421.59L94.425,418.44L91.365,418.44L91.365,417.765L93.345,417.765L93.345,415.86L95.1,415.86L95.1,414.615L93.345,414.615L93.345,413.715L92.01,413.715L92.01,414.615L89.385,414.615L89.385,413.715L88.065,413.715L88.065,414.615L86.295,414.615ZM89.385,415.86L92.01,415.86L92.01,416.685L89.385,416.685L89.385,415.86ZM93.18,420.45L91.365,420.45L91.365,419.58L93.18,419.58L93.18,420.45ZM90,420.45L88.14,420.45L88.14,419.58L90,419.58L90,420.45ZM105.36,423.27C106.965,423.03,108.375,422.67,109.60499999999999,422.22L109.14,420.975C108.015,421.41,106.755,421.725,105.36,421.935L105.36,420.3L103.95,420.3L103.95,425.805C103.95,426.825,104.43,427.35,105.405,427.35L108.255,427.35C108.78,427.35,109.17,427.23,109.425,426.99C109.695,426.735,109.89,425.955,110.00999999999999,424.65L108.705,424.23C108.675,425.1,108.58500000000001,425.61,108.465,425.775C108.36,425.925,108.21000000000001,426.015,108,426.015L105.84,426.015C105.50999999999999,426.015,105.36,425.835,105.36,425.505L105.36,423.27ZM98.55,414.165L98.55,419.775L108.39,419.775L108.39,414.165L98.55,414.165ZM106.97999999999999,418.56L99.975,418.56L99.975,417.525L106.97999999999999,417.525L106.97999999999999,418.56ZM99.975,416.385L99.975,415.38L106.97999999999999,415.38L106.97999999999999,416.385L99.975,416.385ZM99.765,423.165L103.005,423.165L103.005,421.875L99.765,421.875L99.765,420.285L98.35499999999999,420.285L98.35499999999999,425.205C98.35499999999999,425.685,98.13,426.015,97.71000000000001,426.195L98.1,427.44C100.08,427.155,101.805,426.825,103.245,426.465L102.99000000000001,425.145C102.075,425.43,100.995,425.685,99.765,425.91L99.765,423.165Z" fill="#3D3D3D" fill-opacity="1"/></g><g><rect x="66" y="432" width="168.992431640625" height="13" rx="4" fill="#F6F6F6" fill-opacity="1"/></g><g><line x1="66" y1="461.75" x2="375" y2="461.75" fill-opacity="0" stroke-opacity="1" stroke="#E0E0EA" fill="none" stroke-width="0.5"/></g><g><rect x="66.000244140625" y="412.4052734375" width="78.733154296875" height="15.5751953125" rx="4" fill="#F6F6F6" fill-opacity="1"/></g></g><g clip-path="url(#master_svg8_49658_093047)"><rect x="0" y="462" width="375" height="66" rx="0" fill="#FFFFFF" fill-opacity="1"/><g><ellipse cx="38" cy="495" rx="18" ry="18" fill="#F6F6F6" fill-opacity="1"/></g><g><path d="M74.07,482.415L74.07,487.35C74.07,487.38,74.055,487.41,74.055,487.47C73.695,487.65,73.32,487.815,72.93,487.995L72.93,481.995C74.03999999999999,481.635,74.91,481.23,75.57,480.78L74.78999999999999,479.655C74.025,480.165,72.975,480.63,71.655,481.05L71.655,487.545C71.655,488.1,71.445,488.475,71.055,488.685L71.415,489.915C72.315,489.555,73.155,489.18,73.92,488.82C73.8,489.45,73.605,490.02,73.35,490.515C72.9,491.265,72.06,491.895,70.83,492.39L71.55,493.53C72.855,493.02,73.8,492.3,74.37,491.37C74.955,490.365,75.27,489.03,75.33,487.35L75.33,482.415L74.07,482.415ZM69.915,486.135C70.2,486.585,70.53,487.14,70.89,487.8L71.64,486.675C71.055,485.91,70.485,485.22,69.915,484.59L69.915,483.87L71.175,483.87L71.175,482.535L69.915,482.535L69.915,479.7L68.535,479.7L68.535,482.535L66.765,482.535L66.765,483.87L68.505,483.87C68.07,485.595,67.38,487.14,66.435,488.49L67.05,490.065C67.635,489.015,68.13,487.875,68.535,486.645L68.535,493.5L69.915,493.5L69.915,486.135ZM78.615,491.07C79.485,491.07,79.92,490.515,79.92,489.435L79.92,480.57L76.14,480.57L76.14,493.53L77.4,493.53L77.4,481.845L78.66,481.845L78.66,489.15C78.66,489.6,78.495,489.84,78.18,489.84L77.41499999999999,489.78L77.775,491.07L78.615,491.07ZM81.87,485.16L81.87,486.495L83.145,486.495L83.145,490.005C82.605,490.14,82.05,490.26,81.495,490.365L81.84,491.73C83.31,491.37,84.705,490.95,86.01,490.44L86.01,489.06C85.545,489.24,85.065,489.42,84.57,489.585L84.57,486.495L85.77,486.495L85.77,485.16L84.57,485.16L84.57,481.935L85.845,481.935L85.845,480.6L81.645,480.6L81.645,481.935L83.145,481.935L83.145,485.16L81.87,485.16ZM86.295,480.615L86.295,481.86L88.065,481.86L88.065,483.765L90,483.765L90,484.44L86.88,484.44L86.88,487.59L90,487.59L90,488.28L86.505,488.28L86.505,489.435L90,489.435L90,490.14L86.97,490.14L86.97,491.265L90,491.265L90,491.955L85.77,491.955L85.77,493.185L95.37,493.185L95.37,491.955L91.365,491.955L91.365,491.265L94.425,491.265L94.425,490.14L91.365,490.14L91.365,489.435L94.77,489.435L94.77,488.28L91.365,488.28L91.365,487.59L94.425,487.59L94.425,484.44L91.365,484.44L91.365,483.765L93.345,483.765L93.345,481.86L95.1,481.86L95.1,480.615L93.345,480.615L93.345,479.715L92.01,479.715L92.01,480.615L89.385,480.615L89.385,479.715L88.065,479.715L88.065,480.615L86.295,480.615ZM89.385,481.86L92.01,481.86L92.01,482.685L89.385,482.685L89.385,481.86ZM93.18,486.45L91.365,486.45L91.365,485.58L93.18,485.58L93.18,486.45ZM90,486.45L88.14,486.45L88.14,485.58L90,485.58L90,486.45ZM105.36,489.27C106.965,489.03,108.375,488.67,109.60499999999999,488.22L109.14,486.975C108.015,487.41,106.755,487.725,105.36,487.935L105.36,486.3L103.95,486.3L103.95,491.805C103.95,492.825,104.43,493.35,105.405,493.35L108.255,493.35C108.78,493.35,109.17,493.23,109.425,492.99C109.695,492.735,109.89,491.955,110.00999999999999,490.65L108.705,490.23C108.675,491.1,108.58500000000001,491.61,108.465,491.775C108.36,491.925,108.21000000000001,492.015,108,492.015L105.84,492.015C105.50999999999999,492.015,105.36,491.835,105.36,491.505L105.36,489.27ZM98.55,480.165L98.55,485.775L108.39,485.775L108.39,480.165L98.55,480.165ZM106.97999999999999,484.56L99.975,484.56L99.975,483.525L106.97999999999999,483.525L106.97999999999999,484.56ZM99.975,482.385L99.975,481.38L106.97999999999999,481.38L106.97999999999999,482.385L99.975,482.385ZM99.765,489.165L103.005,489.165L103.005,487.875L99.765,487.875L99.765,486.285L98.35499999999999,486.285L98.35499999999999,491.205C98.35499999999999,491.685,98.13,492.015,97.71000000000001,492.195L98.1,493.44C100.08,493.155,101.805,492.825,103.245,492.465L102.99000000000001,491.145C102.075,491.43,100.995,491.685,99.765,491.91L99.765,489.165Z" fill="#3D3D3D" fill-opacity="1"/></g><g><rect x="66" y="498" width="168.992431640625" height="13" rx="4" fill="#F6F6F6" fill-opacity="1"/></g><g><line x1="66" y1="527.75" x2="375" y2="527.75" fill-opacity="0" stroke-opacity="1" stroke="#E0E0EA" fill="none" stroke-width="0.5"/></g><g><rect x="66.000244140625" y="478.4052734375" width="78.733154296875" height="15.5751953125" rx="4" fill="#F6F6F6" fill-opacity="1"/></g></g><g clip-path="url(#master_svg9_49658_093698)"><rect x="0" y="528" width="375" height="66" rx="0" fill="#FFFFFF" fill-opacity="1"/><g><ellipse cx="38" cy="561" rx="18" ry="18" fill="#F6F6F6" fill-opacity="1"/></g><g><path d="M74.07,548.415L74.07,553.35C74.07,553.38,74.055,553.41,74.055,553.47C73.695,553.65,73.32,553.815,72.93,553.995L72.93,547.995C74.03999999999999,547.635,74.91,547.23,75.57,546.78L74.78999999999999,545.655C74.025,546.165,72.975,546.63,71.655,547.05L71.655,553.545C71.655,554.1,71.445,554.475,71.055,554.685L71.415,555.915C72.315,555.555,73.155,555.18,73.92,554.82C73.8,555.45,73.605,556.02,73.35,556.515C72.9,557.265,72.06,557.895,70.83,558.39L71.55,559.53C72.855,559.02,73.8,558.3,74.37,557.37C74.955,556.365,75.27,555.03,75.33,553.35L75.33,548.415L74.07,548.415ZM69.915,552.135C70.2,552.585,70.53,553.14,70.89,553.8L71.64,552.675C71.055,551.91,70.485,551.22,69.915,550.59L69.915,549.87L71.175,549.87L71.175,548.535L69.915,548.535L69.915,545.7L68.535,545.7L68.535,548.535L66.765,548.535L66.765,549.87L68.505,549.87C68.07,551.595,67.38,553.14,66.435,554.49L67.05,556.065C67.635,555.015,68.13,553.875,68.535,552.645L68.535,559.5L69.915,559.5L69.915,552.135ZM78.615,557.07C79.485,557.07,79.92,556.515,79.92,555.435L79.92,546.57L76.14,546.57L76.14,559.53L77.4,559.53L77.4,547.845L78.66,547.845L78.66,555.15C78.66,555.6,78.495,555.84,78.18,555.84L77.41499999999999,555.78L77.775,557.07L78.615,557.07ZM81.87,551.16L81.87,552.495L83.145,552.495L83.145,556.005C82.605,556.14,82.05,556.26,81.495,556.365L81.84,557.73C83.31,557.37,84.705,556.95,86.01,556.44L86.01,555.06C85.545,555.24,85.065,555.42,84.57,555.585L84.57,552.495L85.77,552.495L85.77,551.16L84.57,551.16L84.57,547.935L85.845,547.935L85.845,546.6L81.645,546.6L81.645,547.935L83.145,547.935L83.145,551.16L81.87,551.16ZM86.295,546.615L86.295,547.86L88.065,547.86L88.065,549.765L90,549.765L90,550.44L86.88,550.44L86.88,553.59L90,553.59L90,554.28L86.505,554.28L86.505,555.435L90,555.435L90,556.14L86.97,556.14L86.97,557.265L90,557.265L90,557.955L85.77,557.955L85.77,559.185L95.37,559.185L95.37,557.955L91.365,557.955L91.365,557.265L94.425,557.265L94.425,556.14L91.365,556.14L91.365,555.435L94.77,555.435L94.77,554.28L91.365,554.28L91.365,553.59L94.425,553.59L94.425,550.44L91.365,550.44L91.365,549.765L93.345,549.765L93.345,547.86L95.1,547.86L95.1,546.615L93.345,546.615L93.345,545.715L92.01,545.715L92.01,546.615L89.385,546.615L89.385,545.715L88.065,545.715L88.065,546.615L86.295,546.615ZM89.385,547.86L92.01,547.86L92.01,548.685L89.385,548.685L89.385,547.86ZM93.18,552.45L91.365,552.45L91.365,551.58L93.18,551.58L93.18,552.45ZM90,552.45L88.14,552.45L88.14,551.58L90,551.58L90,552.45ZM105.36,555.27C106.965,555.03,108.375,554.67,109.60499999999999,554.22L109.14,552.975C108.015,553.41,106.755,553.725,105.36,553.935L105.36,552.3L103.95,552.3L103.95,557.805C103.95,558.825,104.43,559.35,105.405,559.35L108.255,559.35C108.78,559.35,109.17,559.23,109.425,558.99C109.695,558.735,109.89,557.955,110.00999999999999,556.65L108.705,556.23C108.675,557.1,108.58500000000001,557.61,108.465,557.775C108.36,557.925,108.21000000000001,558.015,108,558.015L105.84,558.015C105.50999999999999,558.015,105.36,557.835,105.36,557.505L105.36,555.27ZM98.55,546.165L98.55,551.775L108.39,551.775L108.39,546.165L98.55,546.165ZM106.97999999999999,550.56L99.975,550.56L99.975,549.525L106.97999999999999,549.525L106.97999999999999,550.56ZM99.975,548.385L99.975,547.38L106.97999999999999,547.38L106.97999999999999,548.385L99.975,548.385ZM99.765,555.165L103.005,555.165L103.005,553.875L99.765,553.875L99.765,552.285L98.35499999999999,552.285L98.35499999999999,557.205C98.35499999999999,557.685,98.13,558.015,97.71000000000001,558.195L98.1,559.44C100.08,559.155,101.805,558.825,103.245,558.465L102.99000000000001,557.145C102.075,557.43,100.995,557.685,99.765,557.91L99.765,555.165Z" fill="#3D3D3D" fill-opacity="1"/></g><g><rect x="66" y="564" width="168.992431640625" height="13" rx="4" fill="#F6F6F6" fill-opacity="1"/></g><g><line x1="66" y1="593.75" x2="375" y2="593.75" fill-opacity="0" stroke-opacity="1" stroke="#E0E0EA" fill="none" stroke-width="0.5"/></g><g><rect x="66.000244140625" y="544.4052734375" width="78.733154296875" height="15.5751953125" rx="4" fill="#F6F6F6" fill-opacity="1"/></g></g><g clip-path="url(#master_svga_49658_093675)"><rect x="0" y="594" width="375" height="66" rx="0" fill="#FFFFFF" fill-opacity="1"/><g><ellipse cx="38" cy="627" rx="18" ry="18" fill="#F6F6F6" fill-opacity="1"/></g><g><path d="M74.07,614.415L74.07,619.35C74.07,619.38,74.055,619.41,74.055,619.47C73.695,619.65,73.32,619.815,72.93,619.995L72.93,613.995C74.03999999999999,613.635,74.91,613.23,75.57,612.78L74.78999999999999,611.655C74.025,612.165,72.975,612.63,71.655,613.05L71.655,619.545C71.655,620.1,71.445,620.475,71.055,620.685L71.415,621.915C72.315,621.555,73.155,621.18,73.92,620.82C73.8,621.45,73.605,622.02,73.35,622.515C72.9,623.265,72.06,623.895,70.83,624.39L71.55,625.53C72.855,625.02,73.8,624.3,74.37,623.37C74.955,622.365,75.27,621.03,75.33,619.35L75.33,614.415L74.07,614.415ZM69.915,618.135C70.2,618.585,70.53,619.14,70.89,619.8L71.64,618.675C71.055,617.91,70.485,617.22,69.915,616.59L69.915,615.87L71.175,615.87L71.175,614.535L69.915,614.535L69.915,611.7L68.535,611.7L68.535,614.535L66.765,614.535L66.765,615.87L68.505,615.87C68.07,617.595,67.38,619.14,66.435,620.49L67.05,622.065C67.635,621.015,68.13,619.875,68.535,618.645L68.535,625.5L69.915,625.5L69.915,618.135ZM78.615,623.07C79.485,623.07,79.92,622.515,79.92,621.435L79.92,612.57L76.14,612.57L76.14,625.53L77.4,625.53L77.4,613.845L78.66,613.845L78.66,621.15C78.66,621.6,78.495,621.84,78.18,621.84L77.41499999999999,621.78L77.775,623.07L78.615,623.07ZM81.87,617.16L81.87,618.495L83.145,618.495L83.145,622.005C82.605,622.14,82.05,622.26,81.495,622.365L81.84,623.73C83.31,623.37,84.705,622.95,86.01,622.44L86.01,621.06C85.545,621.24,85.065,621.42,84.57,621.585L84.57,618.495L85.77,618.495L85.77,617.16L84.57,617.16L84.57,613.935L85.845,613.935L85.845,612.6L81.645,612.6L81.645,613.935L83.145,613.935L83.145,617.16L81.87,617.16ZM86.295,612.615L86.295,613.86L88.065,613.86L88.065,615.765L90,615.765L90,616.44L86.88,616.44L86.88,619.59L90,619.59L90,620.28L86.505,620.28L86.505,621.435L90,621.435L90,622.14L86.97,622.14L86.97,623.265L90,623.265L90,623.955L85.77,623.955L85.77,625.185L95.37,625.185L95.37,623.955L91.365,623.955L91.365,623.265L94.425,623.265L94.425,622.14L91.365,622.14L91.365,621.435L94.77,621.435L94.77,620.28L91.365,620.28L91.365,619.59L94.425,619.59L94.425,616.44L91.365,616.44L91.365,615.765L93.345,615.765L93.345,613.86L95.1,613.86L95.1,612.615L93.345,612.615L93.345,611.715L92.01,611.715L92.01,612.615L89.385,612.615L89.385,611.715L88.065,611.715L88.065,612.615L86.295,612.615ZM89.385,613.86L92.01,613.86L92.01,614.685L89.385,614.685L89.385,613.86ZM93.18,618.45L91.365,618.45L91.365,617.58L93.18,617.58L93.18,618.45ZM90,618.45L88.14,618.45L88.14,617.58L90,617.58L90,618.45ZM105.36,621.27C106.965,621.03,108.375,620.67,109.60499999999999,620.22L109.14,618.975C108.015,619.41,106.755,619.725,105.36,619.935L105.36,618.3L103.95,618.3L103.95,623.805C103.95,624.825,104.43,625.35,105.405,625.35L108.255,625.35C108.78,625.35,109.17,625.23,109.425,624.99C109.695,624.735,109.89,623.955,110.00999999999999,622.65L108.705,622.23C108.675,623.1,108.58500000000001,623.61,108.465,623.775C108.36,623.925,108.21000000000001,624.015,108,624.015L105.84,624.015C105.50999999999999,624.015,105.36,623.835,105.36,623.505L105.36,621.27ZM98.55,612.165L98.55,617.775L108.39,617.775L108.39,612.165L98.55,612.165ZM106.97999999999999,616.56L99.975,616.56L99.975,615.525L106.97999999999999,615.525L106.97999999999999,616.56ZM99.975,614.385L99.975,613.38L106.97999999999999,613.38L106.97999999999999,614.385L99.975,614.385ZM99.765,621.165L103.005,621.165L103.005,619.875L99.765,619.875L99.765,618.285L98.35499999999999,618.285L98.35499999999999,623.205C98.35499999999999,623.685,98.13,624.015,97.71000000000001,624.195L98.1,625.44C100.08,625.155,101.805,624.825,103.245,624.465L102.99000000000001,623.145C102.075,623.43,100.995,623.685,99.765,623.91L99.765,621.165Z" fill="#3D3D3D" fill-opacity="1"/></g><g><rect x="66" y="630" width="168.992431640625" height="13" rx="4" fill="#F6F6F6" fill-opacity="1"/></g><g><line x1="66" y1="659.75" x2="375" y2="659.75" fill-opacity="0" stroke-opacity="1" stroke="#E0E0EA" fill="none" stroke-width="0.5"/></g><g><rect x="66.000244140625" y="610.4052734375" width="78.733154296875" height="15.5751953125" rx="4" fill="#F6F6F6" fill-opacity="1"/></g></g><g clip-path="url(#master_svgb_49658_093652)"><rect x="0" y="660" width="375" height="66" rx="0" fill="#FFFFFF" fill-opacity="1"/><g><ellipse cx="38" cy="693" rx="18" ry="18" fill="#F6F6F6" fill-opacity="1"/></g><g><path d="M74.07,680.415L74.07,685.35C74.07,685.38,74.055,685.41,74.055,685.47C73.695,685.65,73.32,685.815,72.93,685.995L72.93,679.995C74.03999999999999,679.635,74.91,679.23,75.57,678.78L74.78999999999999,677.655C74.025,678.165,72.975,678.63,71.655,679.05L71.655,685.545C71.655,686.1,71.445,686.475,71.055,686.685L71.415,687.915C72.315,687.555,73.155,687.18,73.92,686.82C73.8,687.45,73.605,688.02,73.35,688.515C72.9,689.265,72.06,689.895,70.83,690.39L71.55,691.53C72.855,691.02,73.8,690.3,74.37,689.37C74.955,688.365,75.27,687.03,75.33,685.35L75.33,680.415L74.07,680.415ZM69.915,684.135C70.2,684.585,70.53,685.14,70.89,685.8L71.64,684.675C71.055,683.91,70.485,683.22,69.915,682.59L69.915,681.87L71.175,681.87L71.175,680.535L69.915,680.535L69.915,677.7L68.535,677.7L68.535,680.535L66.765,680.535L66.765,681.87L68.505,681.87C68.07,683.595,67.38,685.14,66.435,686.49L67.05,688.065C67.635,687.015,68.13,685.875,68.535,684.645L68.535,691.5L69.915,691.5L69.915,684.135ZM78.615,689.07C79.485,689.07,79.92,688.515,79.92,687.435L79.92,678.57L76.14,678.57L76.14,691.53L77.4,691.53L77.4,679.845L78.66,679.845L78.66,687.15C78.66,687.6,78.495,687.84,78.18,687.84L77.41499999999999,687.78L77.775,689.07L78.615,689.07ZM81.87,683.16L81.87,684.495L83.145,684.495L83.145,688.005C82.605,688.14,82.05,688.26,81.495,688.365L81.84,689.73C83.31,689.37,84.705,688.95,86.01,688.44L86.01,687.06C85.545,687.24,85.065,687.42,84.57,687.585L84.57,684.495L85.77,684.495L85.77,683.16L84.57,683.16L84.57,679.935L85.845,679.935L85.845,678.6L81.645,678.6L81.645,679.935L83.145,679.935L83.145,683.16L81.87,683.16ZM86.295,678.615L86.295,679.86L88.065,679.86L88.065,681.765L90,681.765L90,682.44L86.88,682.44L86.88,685.59L90,685.59L90,686.28L86.505,686.28L86.505,687.435L90,687.435L90,688.14L86.97,688.14L86.97,689.265L90,689.265L90,689.955L85.77,689.955L85.77,691.185L95.37,691.185L95.37,689.955L91.365,689.955L91.365,689.265L94.425,689.265L94.425,688.14L91.365,688.14L91.365,687.435L94.77,687.435L94.77,686.28L91.365,686.28L91.365,685.59L94.425,685.59L94.425,682.44L91.365,682.44L91.365,681.765L93.345,681.765L93.345,679.86L95.1,679.86L95.1,678.615L93.345,678.615L93.345,677.715L92.01,677.715L92.01,678.615L89.385,678.615L89.385,677.715L88.065,677.715L88.065,678.615L86.295,678.615ZM89.385,679.86L92.01,679.86L92.01,680.685L89.385,680.685L89.385,679.86ZM93.18,684.45L91.365,684.45L91.365,683.58L93.18,683.58L93.18,684.45ZM90,684.45L88.14,684.45L88.14,683.58L90,683.58L90,684.45ZM105.36,687.27C106.965,687.03,108.375,686.67,109.60499999999999,686.22L109.14,684.975C108.015,685.41,106.755,685.725,105.36,685.935L105.36,684.3L103.95,684.3L103.95,689.805C103.95,690.825,104.43,691.35,105.405,691.35L108.255,691.35C108.78,691.35,109.17,691.23,109.425,690.99C109.695,690.735,109.89,689.955,110.00999999999999,688.65L108.705,688.23C108.675,689.1,108.58500000000001,689.61,108.465,689.775C108.36,689.925,108.21000000000001,690.015,108,690.015L105.84,690.015C105.50999999999999,690.015,105.36,689.835,105.36,689.505L105.36,687.27ZM98.55,678.165L98.55,683.775L108.39,683.775L108.39,678.165L98.55,678.165ZM106.97999999999999,682.56L99.975,682.56L99.975,681.525L106.97999999999999,681.525L106.97999999999999,682.56ZM99.975,680.385L99.975,679.38L106.97999999999999,679.38L106.97999999999999,680.385L99.975,680.385ZM99.765,687.165L103.005,687.165L103.005,685.875L99.765,685.875L99.765,684.285L98.35499999999999,684.285L98.35499999999999,689.205C98.35499999999999,689.685,98.13,690.015,97.71000000000001,690.195L98.1,691.44C100.08,691.155,101.805,690.825,103.245,690.465L102.99000000000001,689.145C102.075,689.43,100.995,689.685,99.765,689.91L99.765,687.165Z" fill="#3D3D3D" fill-opacity="1"/></g><g><rect x="66" y="696" width="168.992431640625" height="13" rx="4" fill="#F6F6F6" fill-opacity="1"/></g><g><line x1="66" y1="725.75" x2="375" y2="725.75" fill-opacity="0" stroke-opacity="1" stroke="#E0E0EA" fill="none" stroke-width="0.5"/></g><g><rect x="66.000244140625" y="676.4052734375" width="78.733154296875" height="15.5751953125" rx="4" fill="#F6F6F6" fill-opacity="1"/></g></g><g clip-path="url(#master_svgc_49658_092997)"><rect x="0" y="726" width="375" height="66" rx="0" fill="#FFFFFF" fill-opacity="1"/><g><ellipse cx="38" cy="759" rx="18" ry="18" fill="#F6F6F6" fill-opacity="1"/></g><g><path d="M74.07,746.415L74.07,751.35C74.07,751.38,74.055,751.41,74.055,751.47C73.695,751.65,73.32,751.815,72.93,751.995L72.93,745.995C74.03999999999999,745.635,74.91,745.23,75.57,744.78L74.78999999999999,743.655C74.025,744.165,72.975,744.63,71.655,745.05L71.655,751.545C71.655,752.1,71.445,752.475,71.055,752.685L71.415,753.915C72.315,753.555,73.155,753.18,73.92,752.82C73.8,753.45,73.605,754.02,73.35,754.515C72.9,755.265,72.06,755.895,70.83,756.39L71.55,757.53C72.855,757.02,73.8,756.3,74.37,755.37C74.955,754.365,75.27,753.03,75.33,751.35L75.33,746.415L74.07,746.415ZM69.915,750.135C70.2,750.585,70.53,751.14,70.89,751.8L71.64,750.675C71.055,749.91,70.485,749.22,69.915,748.59L69.915,747.87L71.175,747.87L71.175,746.535L69.915,746.535L69.915,743.7L68.535,743.7L68.535,746.535L66.765,746.535L66.765,747.87L68.505,747.87C68.07,749.595,67.38,751.14,66.435,752.49L67.05,754.065C67.635,753.015,68.13,751.875,68.535,750.645L68.535,757.5L69.915,757.5L69.915,750.135ZM78.615,755.07C79.485,755.07,79.92,754.515,79.92,753.435L79.92,744.57L76.14,744.57L76.14,757.53L77.4,757.53L77.4,745.845L78.66,745.845L78.66,753.15C78.66,753.6,78.495,753.84,78.18,753.84L77.41499999999999,753.78L77.775,755.07L78.615,755.07ZM81.87,749.16L81.87,750.495L83.145,750.495L83.145,754.005C82.605,754.14,82.05,754.26,81.495,754.365L81.84,755.73C83.31,755.37,84.705,754.95,86.01,754.44L86.01,753.06C85.545,753.24,85.065,753.42,84.57,753.585L84.57,750.495L85.77,750.495L85.77,749.16L84.57,749.16L84.57,745.935L85.845,745.935L85.845,744.6L81.645,744.6L81.645,745.935L83.145,745.935L83.145,749.16L81.87,749.16ZM86.295,744.615L86.295,745.86L88.065,745.86L88.065,747.765L90,747.765L90,748.44L86.88,748.44L86.88,751.59L90,751.59L90,752.28L86.505,752.28L86.505,753.435L90,753.435L90,754.14L86.97,754.14L86.97,755.265L90,755.265L90,755.955L85.77,755.955L85.77,757.185L95.37,757.185L95.37,755.955L91.365,755.955L91.365,755.265L94.425,755.265L94.425,754.14L91.365,754.14L91.365,753.435L94.77,753.435L94.77,752.28L91.365,752.28L91.365,751.59L94.425,751.59L94.425,748.44L91.365,748.44L91.365,747.765L93.345,747.765L93.345,745.86L95.1,745.86L95.1,744.615L93.345,744.615L93.345,743.715L92.01,743.715L92.01,744.615L89.385,744.615L89.385,743.715L88.065,743.715L88.065,744.615L86.295,744.615ZM89.385,745.86L92.01,745.86L92.01,746.685L89.385,746.685L89.385,745.86ZM93.18,750.45L91.365,750.45L91.365,749.58L93.18,749.58L93.18,750.45ZM90,750.45L88.14,750.45L88.14,749.58L90,749.58L90,750.45ZM105.36,753.27C106.965,753.03,108.375,752.67,109.60499999999999,752.22L109.14,750.975C108.015,751.41,106.755,751.725,105.36,751.935L105.36,750.3L103.95,750.3L103.95,755.805C103.95,756.825,104.43,757.35,105.405,757.35L108.255,757.35C108.78,757.35,109.17,757.23,109.425,756.99C109.695,756.735,109.89,755.955,110.00999999999999,754.65L108.705,754.23C108.675,755.1,108.58500000000001,755.61,108.465,755.775C108.36,755.925,108.21000000000001,756.015,108,756.015L105.84,756.015C105.50999999999999,756.015,105.36,755.835,105.36,755.505L105.36,753.27ZM98.55,744.165L98.55,749.775L108.39,749.775L108.39,744.165L98.55,744.165ZM106.97999999999999,748.56L99.975,748.56L99.975,747.525L106.97999999999999,747.525L106.97999999999999,748.56ZM99.975,746.385L99.975,745.38L106.97999999999999,745.38L106.97999999999999,746.385L99.975,746.385ZM99.765,753.165L103.005,753.165L103.005,751.875L99.765,751.875L99.765,750.285L98.35499999999999,750.285L98.35499999999999,755.205C98.35499999999999,755.685,98.13,756.015,97.71000000000001,756.195L98.1,757.44C100.08,757.155,101.805,756.825,103.245,756.465L102.99000000000001,755.145C102.075,755.43,100.995,755.685,99.765,755.91L99.765,753.165Z" fill="#3D3D3D" fill-opacity="1"/></g><g><rect x="66" y="762" width="168.992431640625" height="13" rx="4" fill="#F6F6F6" fill-opacity="1"/></g><g><line x1="66" y1="791.75" x2="375" y2="791.75" fill-opacity="0" stroke-opacity="1" stroke="#E0E0EA" fill="none" stroke-width="0.5"/></g><g><rect x="66.000244140625" y="742.4052734375" width="78.733154296875" height="15.5751953125" rx="4" fill="#F6F6F6" fill-opacity="1"/></g></g></g></svg>