<svg xmlns="http://www.w3.org/2000/svg" xmlns:xlink="http://www.w3.org/1999/xlink" fill="none" version="1.1" width="14" height="14" viewBox="0 0 14 14"><g><g><ellipse cx="7.000012397766113" cy="6.9998369216918945" rx="5.8333330154418945" ry="5.8333330154418945" fill="#006DE2" fill-opacity="1"/></g><g><g><path d="M6.416680617675781,7.58316609375L6.416680617675781,9.33349609375Q6.416680617675781,9.39094609375,6.427890617675781,9.447296093750001Q6.4391006176757815,9.50364609375,6.461080617675782,9.556726093750001Q6.483070617675781,9.609806093749999,6.514990617675782,9.65757609375Q6.546910617675781,9.70534609375,6.587530617675782,9.74597609375Q6.628160617675782,9.78659609375,6.675930617675782,9.818516093749999Q6.723700617675782,9.85043609375,6.776780617675781,9.87242609375Q6.829860617675781,9.89440609375,6.886210617675781,9.90561609375Q6.942560617675781,9.91682609375,7.000010617675781,9.91682609375Q7.057470617675781,9.91682609375,7.113810617675782,9.90561609375Q7.170160617675782,9.89440609375,7.223240617675781,9.87242609375Q7.276320617675781,9.85043609375,7.324090617675781,9.818516093749999Q7.371870617675781,9.78659609375,7.412490617675781,9.74597609375Q7.453120617675781,9.70534609375,7.485040617675781,9.65757609375Q7.516950617675781,9.609806093749999,7.538940617675781,9.556726093750001Q7.560930617675782,9.50364609375,7.572140617675782,9.447296093750001Q7.583350617675782,9.39094609375,7.583350617675782,9.33349609375L7.583350617675782,7.58316609375L9.333320617675781,7.58316609375Q9.39077061767578,7.58316609375,9.447120617675782,7.5719660937499995Q9.50347061767578,7.560756093749999,9.556550617675782,7.5387660937500005Q9.60963061767578,7.51677609375,9.657400617675782,7.48486609375Q9.705170617675781,7.4529460937500005,9.745800617675782,7.41231609375Q9.78642061767578,7.37168609375,9.81834061767578,7.32391609375Q9.850260617675781,7.27614609375,9.872250617675782,7.22306609375Q9.894230617675781,7.1699860937499995,9.905440617675781,7.113636093749999Q9.916650617675781,7.05728609375,9.916650617675781,6.99983609375Q9.916650617675781,6.942386093750001,9.905440617675781,6.8860360937500005Q9.894230617675781,6.82968609375,9.872250617675782,6.77660609375Q9.850260617675781,6.723526093749999,9.81834061767578,6.67575609375Q9.78642061767578,6.62798609375,9.745800617675782,6.5873560937499995Q9.705170617675781,6.54673609375,9.657400617675782,6.5148160937499995Q9.60963061767578,6.48289609375,9.556550617675782,6.460906093749999Q9.50347061767578,6.4389160937500005,9.447120617675782,6.42771609375Q9.39077061767578,6.41650609375,9.333320617675781,6.41650609375L7.583350617675782,6.41650609375L7.583350617675782,4.66682909375Q7.583350617675782,4.60937609375,7.572140617675782,4.55302709375Q7.560930617675782,4.49667709375,7.538940617675781,4.44359709375Q7.516950617675781,4.39051709375,7.485040617675781,4.34274709375Q7.453120617675781,4.29497609375,7.412490617675781,4.25435009375Q7.371870617675781,4.21372509375,7.324090617675781,4.18180549375Q7.276320617675781,4.14988609375,7.223240617675781,4.12789969375Q7.170160617675782,4.10591329375,7.113810617675782,4.09470469375Q7.057470617675781,4.08349609375,7.000010617675781,4.08349609375Q6.942560617675781,4.08349609375,6.886210617675781,4.09470469375Q6.829860617675781,4.10591329375,6.776780617675781,4.12789969375Q6.723700617675782,4.14988609375,6.675930617675782,4.18180549375Q6.628160617675782,4.21372509375,6.587530617675782,4.25435009375Q6.546910617675781,4.29497609375,6.514990617675782,4.34274709375Q6.483070617675781,4.39051709375,6.461080617675782,4.44359709375Q6.4391006176757815,4.49667709375,6.427890617675781,4.55302709375Q6.416680617675781,4.60937609375,6.416680617675781,4.66682909375L6.416680617675781,6.41650609375L4.666653617675781,6.41650609375Q4.609200617675781,6.41650609375,4.552851617675781,6.42771609375Q4.496501617675781,6.4389160937500005,4.4434216176757815,6.460906093749999Q4.390341617675781,6.48289609375,4.342571617675781,6.5148160937499995Q4.294800617675781,6.54673609375,4.2541746176757815,6.5873560937499995Q4.213549617675781,6.62798609375,4.181630017675781,6.67575609375Q4.149710617675781,6.723526093749999,4.127724217675781,6.77660609375Q4.105737817675781,6.82968609375,4.094529217675781,6.8860360937500005Q4.083320617675781,6.942386093750001,4.083320617675781,6.99983609375Q4.083320617675781,7.05728609375,4.094529217675781,7.113636093749999Q4.105737817675781,7.1699860937499995,4.127724217675781,7.22306609375Q4.149710617675781,7.27614609375,4.181630017675781,7.32391609375Q4.213549617675781,7.37168609375,4.2541746176757815,7.41231609375Q4.294800617675781,7.4529460937500005,4.342571617675781,7.48486609375Q4.390341617675781,7.51677609375,4.4434216176757815,7.5387660937500005Q4.496501617675781,7.560756093749999,4.552851617675781,7.5719660937499995Q4.609200617675781,7.58316609375,4.666653617675781,7.58316609375L6.416680617675781,7.58316609375Z" fill-rule="evenodd" fill="#FFFFFF" fill-opacity="1"/></g></g></g></svg>