<svg xmlns="http://www.w3.org/2000/svg" xmlns:xlink="http://www.w3.org/1999/xlink" fill="none" version="1.1" width="16" height="16" viewBox="0 0 16 16"><defs><clipPath id="master_svg0_51941_081001"><rect x="0" y="0" width="16" height="16" rx="0"/></clipPath></defs><g clip-path="url(#master_svg0_51941_081001)"><g><path d="M8.000023515625,2C11.594653515625,2,14.585353515625,4.58667,15.212653515625,8C14.586053515625,11.41333,11.594653515625,14,8.000023515625,14C4.405353515625,14,1.4146865156250001,11.41333,0.787353515625,8C1.4140205156249999,4.58667,4.405353515625,2,8.000023515625,2ZM8.000023515625,12.6667C10.800053515625,12.6661,13.227953515625,10.72979,13.851353515625,8C13.225653515625,5.27247,10.798453515625,3.33902,8.000023515625,3.33902C5.201633515625,3.33902,2.774413515625,5.27247,2.1486835156249997,8C2.7728935156250003,10.7304,5.200703515625,12.6667,8.000023515625,12.6667ZM8.000023515625,11C6.343163515625,11,5.000023515625,9.65685,5.000023515625,8C5.000023515625,6.34315,6.343163515625,5,8.000023515625,5C9.656873515625,5,11.000053515625,6.34315,11.000053515625,8C11.000053515625,9.65685,9.656873515625,11,8.000023515625,11ZM8.000023515625,9.66667C8.920493515625,9.66667,9.666683515625,8.92047,9.666683515625,8C9.666683515625,7.07953,8.920493515625,6.33333,8.000023515625,6.33333C7.079543515625,6.33333,6.333353515625,7.07953,6.333353515625,8C6.333353515625,8.92047,7.079543515625,9.66667,8.000023515625,9.66667Z" fill="#BABAC4" fill-opacity="1"/></g></g></svg>