<svg xmlns="http://www.w3.org/2000/svg" xmlns:xlink="http://www.w3.org/1999/xlink" fill="none" version="1.1" width="16" height="16" viewBox="0 0 16 16"><defs><clipPath id="master_svg0_52127_096335"><rect x="0" y="0" width="16" height="16" rx="0"/></clipPath></defs><g clip-path="url(#master_svg0_52127_096335)"><g><path d="M11.92129248046875,12.8647109375C10.74877248046875,13.6084109375,9.38845248046875,14.0023109375,7.99996248046875,14.0000109375C4.40529248046875,14.0000109375,1.4146254804687501,11.4134109375,0.78729248046875,8.0000409375C1.07397848046875,6.4471909375,1.85504248046875,5.0286409375,3.01396248046875,3.9560409375L0.92795948046875,1.8720439375L1.87129248046875,0.9287109375L15.07059248046875,14.1287109375L14.12729248046875,15.0714109375L11.92059248046875,12.8647109375L11.92129248046875,12.8647109375ZM3.95662248046875,4.9000409375C3.05063248046875,5.7237709375,2.4195024804687497,6.8059009375,2.1486224804687497,8.0000409375C3.04303248046875,11.9135109375,7.45231248046875,13.8635109375,10.94929248046875,11.8920109375L9.59729248046875,10.5400409375C8.41193248046875,11.2867109375,6.86761248046875,11.1136109375,5.87700248046875,10.1230009375C4.88640248046875,9.1323909375,4.7132824804687505,7.5880709375,5.45996248046875,6.4027109375L3.95662248046875,4.9000409375ZM8.60929248046875,9.5520409375L6.44796248046875,7.3907109375C6.20554248046875,8.0077809375,6.35191248046875,8.709840937500001,6.82070248046875,9.1786309375C7.28949248046875,9.6474309375,7.99156248046875,9.7937909375,8.60862248046875,9.5513809375L8.60929248046875,9.5520409375ZM13.87129248046875,11.0614109375L12.91729248046875,10.1080409375C13.36299248046875,9.4729109375,13.68019248046875,8.7568309375,13.85129248046875,8.0000409375C13.08669248046875,4.6514109375,9.67363248046875,2.6257509375000003,6.36796248046875,3.5587109375L5.31596248046875,2.5067109375000003C6.14729248046875,2.1800409375000003,7.05329248046875,2.0000409374999997,7.99996248046875,2.0000409374999997C11.59459248046875,2.0000409374999997,14.58529248046875,4.5867109374999995,15.21259248046875,8.0000409375C15.00839248046875,9.1105109375,14.54919248046875,10.1584309375,13.87129248046875,11.0614109375ZM7.81529248046875,5.0053809375C9.61525248046875,4.8941409375,11.10589248046875,6.3847509375,10.99459248046875,8.1847109375L7.81529248046875,5.0053809375L7.81529248046875,5.0053809375Z" fill="#BABAC4" fill-opacity="1"/></g></g></svg>