<svg xmlns="http://www.w3.org/2000/svg" xmlns:xlink="http://www.w3.org/1999/xlink" fill="none" version="1.1" width="12" height="12" viewBox="0 0 12 12"><defs><clipPath id="master_svg0_47886_076741"><rect x="0" y="0" width="12" height="12" rx="0"/></clipPath></defs><g clip-path="url(#master_svg0_47886_076741)"><g><g><path d="M8.893487644882203,7.198002578125L8.744577644882202,7.198002578125L8.744577644882202,8.448002578125L8.893487644882203,8.448002578125Q9.980797644882202,8.448002578125,10.749647644882202,7.679142578125Q11.518487644882203,6.910292578125,11.518487644882203,5.822972578125L11.518457644882202,3.108622578125Q11.518447644882201,2.021315578125,10.749607644882202,1.252478578125Q9.980767644882203,0.483642578125,8.893457644882202,0.483642578125L6.179267644882202,0.483642578125Q5.091957644882202,0.483642578125,4.323112644882202,1.252487578125Q3.554267644882202,2.021331578125,3.554267644882202,3.108642578125L3.554267644882202,3.189942578125L4.804267644882202,3.189942578125L4.804267644882202,3.108642578125Q4.804267644882202,2.539102578125,5.206997644882202,2.136372578125Q5.609727644882202,1.733642578125,6.179267644882202,1.733642578125L8.893457644882202,1.733642578125Q9.462997644882202,1.733642578125,9.865727644882202,2.136362578125Q10.268457644882202,2.539092578125,10.268457644882202,3.108632578125L10.268487644882203,5.822982578125Q10.268487644882203,6.392532578125,9.865757644882201,6.795262578125Q9.463027644882203,7.198002578125,8.893487644882203,7.198002578125Z" fill-rule="evenodd" fill="#BABAC4" fill-opacity="1"/></g><g><rect x="1.1064453125" y="3.177001953125" width="7.714285850524902" height="7.714285850524902" rx="2" fill-opacity="0" stroke-opacity="1" stroke="#BABAC4" fill="none" stroke-width="1.25"/></g></g></g></svg>