<svg xmlns="http://www.w3.org/2000/svg" xmlns:xlink="http://www.w3.org/1999/xlink" fill="none" version="1.1" width="24" height="24" viewBox="0 0 24 24"><g><g><g><g><g><ellipse cx="12.000000476837158" cy="12.000000476837158" rx="6.500000476837158" ry="6.500000476837158" fill="#BABAC4" fill-opacity="1"/></g><g><path d="M9.787008328125,9.323286875C11.009201328125,8.077133875,12.990781328125,8.077132875,14.212951328125001,9.323286875C15.435161328125,10.569441874999999,15.435161328125,12.589861875,14.212951328125001,13.835991875000001C14.212951328125001,13.835991875000001,11.999991328125,16.092371875,11.999991328125,16.092371875C11.999991328125,16.092371875,9.787008328125,13.835991875000001,9.787008328125,13.835991875000001C8.564812328125,12.589861875,8.564812328125,10.569441874999999,9.787008328125,9.323286875C9.787008328125,9.323286875,9.787008328125,9.323286875,9.787008328125,9.323286875ZM11.999991328125,12.491361874999999C12.493831328125001,12.491361874999999,12.894171328125001,12.083171875,12.894171328125001,11.579651875C12.894171328125001,11.076131875,12.493831328125001,10.667941875,11.999991328125,10.667941875C11.506151328125,10.667941875,11.105811328125,11.076131875,11.105811328125,11.579651875C11.105811328125,12.083171875,11.506151328125,12.491361874999999,11.999991328125,12.491361874999999C11.999991328125,12.491361874999999,11.999991328125,12.491361874999999,11.999991328125,12.491361874999999Z" fill-rule="evenodd" fill="#FFFFFF" fill-opacity="1"/></g></g></g></g></g></svg>