<svg xmlns="http://www.w3.org/2000/svg" xmlns:xlink="http://www.w3.org/1999/xlink" fill="none" version="1.1" width="44" height="44" viewBox="0 0 44 44"><defs><clipPath id="master_svg0_49658_082948"><rect x="7.3333330154418945" y="7.3333330154418945" width="29.333332061767578" height="29.333332061767578" rx="0"/></clipPath></defs><g><g><rect x="0" y="0" width="44" height="44" rx="10" fill="#42C2B7" fill-opacity="1"/></g><g clip-path="url(#master_svg0_49658_082948)"><g><g><path d="M22.555230788879395,13.748621745910645Q21.216090788879395,15.175501745910644,21.216090788879395,17.191671745910647Q21.216090788879395,19.241131745910643,22.542490788879395,20.688431745910645Q23.888490788879395,22.157121745910644,25.795270788879392,22.157121745910644Q27.708150788879394,22.157121745910644,29.054650788879393,20.686251745910646Q30.381550788879395,19.236731745910646,30.381550788879395,17.177351745910645Q30.381550788879395,15.151271745910645,29.038750788879394,13.733131745910644Q27.693150788879393,12.312031745910645,25.795270788879392,12.312031745910645Q23.903490788879395,12.312031745910645,22.555230788879395,13.748621745910645ZM17.783539788879395,27.264731745910645Q17.131550788879395,28.449331745910644,17.131550788879395,29.591631745910643Q17.131550788879395,31.688531745910645,19.886610788879395,31.688531745910645L31.689550788879394,31.688531745910645Q34.44465078887939,31.688531745910645,34.44465078887939,29.591631745910643Q34.44465078887939,28.449331745910644,33.7926507888794,27.264731745910645Q33.15455078887939,26.105331745910647,32.03425078887939,25.171331745910642Q29.458150788879394,23.023831745910645,25.788060788879395,23.023831745910645Q22.117950788879394,23.023831745910645,19.541940788879394,25.171331745910642Q18.421630788879394,26.105331745910647,17.783539788879395,27.264731745910645Z" fill-rule="evenodd" fill="#FFFFFF" fill-opacity="1"/></g><g><path d="M18.49593357208252,23.997801531066894Q17.17620357208252,25.109161531066896,16.40677357208252,26.507161531066895Q15.56004357208252,28.045661531066894,15.56004357208252,29.591761531066894Q15.56004357208252,30.831661531066896,16.16252357208252,31.688761531066895L12.070133572082518,31.688761531066895Q10.94358357208252,31.688761531066895,10.333320572082519,31.284461531066896Q9.55533695208252,30.768961531066896,9.55533695208252,29.746061531066893Q9.55533695208252,28.722361531066895,10.13696157208252,27.665561531066892Q10.70255357208252,26.637961531066892,11.69379357208252,25.811561531066893Q13.96646357208252,23.916871531066896,17.200303572082518,23.916871531066896Q17.868653572082522,23.916871531066896,18.49593357208252,23.997801531066894ZM19.82195357208252,15.595335531066894Q19.644553572082522,16.355531531066895,19.644553572082522,17.191871531066894Q19.644553572082522,19.392231531066894,20.83415357208252,21.070901531066895Q20.55985357208252,21.614171531066894,20.128353572082517,22.085531531066895Q18.92221357208252,23.403071531066892,17.20657357208252,23.403071531066892Q15.496283572082518,23.403071531066892,14.29058357208252,22.087461531066893Q13.10605357208252,20.794971531066896,13.10605357208252,18.966771531066897Q13.10605357208252,17.166691531066895,14.30262357208252,15.891721531066894Q15.510163572082519,14.605061531066895,17.20657357208252,14.605061531066895Q18.70727357208252,14.605061531066895,19.82195357208252,15.595335531066894Z" fill-rule="evenodd" fill="#FFFFFF" fill-opacity="1"/></g></g></g></g></svg>