<svg xmlns="http://www.w3.org/2000/svg" xmlns:xlink="http://www.w3.org/1999/xlink" fill="none" version="1.1" width="24" height="24" viewBox="0 0 24 24"><g><g></g><g><path d="M1.762451171875,15.897508520507813L1.762451171875,8.451578520507812C1.762451171875,6.865308520507813,1.947234171875,5.600608520507812,2.769221171875,4.787878520507812C3.588521171875,3.9777935205078125,4.861291171875,3.7956085205078125,6.463711171875,3.7956085205078125L16.527451171875,3.7956085205078125C18.134151171875,3.7956085205078125,19.409051171875,3.9777195205078124,20.229451171875,4.7874305205078125C21.053051171875,5.6002485205078125,21.237751171875,6.865368520507813,21.237751171875,8.451578520507812L21.237751171875,15.888408520507813C21.237751171875,17.47470852050781,21.053051171875,18.739408520507812,20.231051171875,19.552108520507815C19.411751171875,20.362208520507814,18.138951171875,20.54440852050781,16.536551171875,20.54440852050781L6.463711171875,20.54440852050781C4.862281171875,20.548808520507812,3.589441171875,20.36950852050781,2.769681171875,19.560508520507813C1.947107171875,18.748808520507815,1.762451171875,17.483408520507812,1.762451171875,15.897508520507813ZM3.462451171875,9.004128520507813L3.462451171875,15.897508520507813Q3.462451171875,17.855808520507814,3.963821171875,18.350508520507812Q4.469771171875,18.849808520507814,6.463711171875,18.844408520507812L16.536551171875,18.844408520507812Q18.528951171875,18.844408520507812,19.035751171875,18.34330852050781Q19.537751171875,17.84690852050781,19.537751171875,15.888408520507813L19.537751171875,8.451578520507812Q19.537751171875,6.493288520507813,19.035251171875,5.997378520507812Q18.526851171875,5.495608520507813,16.527451171875,5.495608520507813L6.463711171875,5.495608520507813Q4.471311171875,5.495608520507813,3.964481171875,5.9967385205078125Q3.462451171875,6.493118520507812,3.462451171875,8.451578520507812L3.462451171875,9.004128520507813Z" fill-rule="evenodd" fill="#121212" fill-opacity="1"/></g><g><path d="M5.534883499145508,16.151163802734374C5.534883499145508,16.517212802734374,5.831624499145508,16.813952802734374,6.197674499145508,16.813952802734374L7.965113499145508,16.813952802734374C8.331163499145507,16.813952802734374,8.627903499145507,16.517212802734374,8.627903499145507,16.151163802734374C8.627903499145507,15.785113802734376,8.331163499145507,15.488372802734375,7.965113499145508,15.488372802734375L6.197674499145508,15.488372802734375C5.831624499145508,15.488372802734375,5.534883499145508,15.785113802734376,5.534883499145508,16.151163802734374ZM9.511623499145507,16.151163802734374C9.511623499145507,16.517212802734374,9.808373499145507,16.813952802734374,10.174413499145508,16.813952802734374L13.709303499145507,16.813952802734374C14.075343499145507,16.813952802734374,14.372093499145508,16.517212802734374,14.372093499145508,16.151163802734374C14.372093499145508,15.785113802734376,14.075343499145507,15.488372802734375,13.709303499145507,15.488372802734375L10.174413499145508,15.488372802734375C9.808373499145507,15.488372802734375,9.511623499145507,15.785113802734376,9.511623499145507,16.151163802734374Z" fill="#121212" fill-opacity="1"/><path d="M8.575203499145507,15.541078302734375Q8.322493499145509,15.288372802734376,7.965113499145508,15.288372802734376L6.197674499145508,15.288372802734376Q5.840294499145508,15.288372802734376,5.587588699145508,15.541078502734376Q5.334883499145508,15.793783802734374,5.334883499145508,16.151163802734374Q5.334883499145508,16.508542802734375,5.587588899145508,16.761252802734376Q5.840294499145508,17.013952802734376,6.197674499145508,17.013952802734376L7.965113499145508,17.013952802734376Q8.322493499145509,17.013952802734376,8.575203499145507,16.761252802734376Q8.827903499145508,16.508542802734375,8.827903499145508,16.151163802734374Q8.827903499145508,15.793783802734374,8.575203499145507,15.541078302734375ZM14.319383499145507,16.761252802734376Q14.572093499145508,16.508542802734375,14.572093499145508,16.151163802734374Q14.572093499145508,15.793783802734374,14.319383499145507,15.541078102734375Q14.066683499145508,15.288372802734376,13.709303499145507,15.288372802734376L10.174413499145508,15.288372802734376Q9.817043499145509,15.288372802734376,9.564333499145508,15.541078602734375Q9.311623499145508,15.793784802734375,9.311633499145508,16.151163802734374Q9.311623499145508,16.508542802734375,9.564333499145508,16.761252802734376Q9.817043499145509,17.013952802734376,10.174413499145508,17.013952802734376L13.709303499145507,17.013952802734376Q14.066683499145508,17.013952802734376,14.319383499145507,16.761252802734376ZM6.197674499145508,15.688372802734374L7.965113499145508,15.688372802734374Q8.156813499145507,15.688372802734374,8.292353499145507,15.823920802734374Q8.427903499145508,15.959469802734375,8.427903499145508,16.151163802734374Q8.427903499145508,16.342857802734375,8.292353499145507,16.478405802734375Q8.156813499145507,16.613952802734374,7.965113499145508,16.613952802734374L6.197674499145508,16.613952802734374Q6.005979499145508,16.613952802734374,5.870431499145508,16.478406802734376Q5.734883499145508,16.342858802734376,5.734883499145508,16.151163802734374Q5.734883499145508,15.959469802734375,5.870431499145508,15.823920802734374Q6.005979499145508,15.688372802734374,6.197674499145508,15.688372802734374ZM14.036543499145507,15.823921802734375Q14.172093499145507,15.959470802734375,14.172093499145507,16.151163802734374Q14.172093499145507,16.342856802734374,14.036543499145507,16.478405802734375Q13.900993499145509,16.613952802734374,13.709303499145507,16.613952802734374L10.174413499145508,16.613952802734374Q9.982723499145507,16.613952802734374,9.847173499145509,16.478406802734376Q9.711623499145507,16.342858802734376,9.711623499145507,16.151163802734374Q9.711623499145507,15.959468802734374,9.847173499145509,15.823920802734374Q9.982723499145507,15.688372802734374,10.174413499145508,15.688372802734374L13.709303499145507,15.688372802734374Q13.900993499145509,15.688372802734374,14.036543499145507,15.823921802734375Z" fill-rule="evenodd" fill="#121212" fill-opacity="1"/></g><g><line x1="2.61932373046875" y1="9.49019467830658" x2="20.1705322265625" y2="9.49019467830658" fill-opacity="0" stroke-opacity="1" stroke="#121212" fill="none" stroke-width="1.7000000476837158"/></g></g></svg>