<svg xmlns="http://www.w3.org/2000/svg" xmlns:xlink="http://www.w3.org/1999/xlink" fill="none" version="1.1" width="16" height="16" viewBox="0 0 16 16"><defs><clipPath id="master_svg0_55967_122454"><rect x="0" y="0" width="16" height="16" rx="0"/></clipPath></defs><g clip-path="url(#master_svg0_55967_122454)"><g><path d="M11.0470044921875,11.660715390625C11.4495044921875,12.063975390625,11.9363044921875,12.306175390625,12.4760044921875,12.457975390625L12.6577044921875,12.504775390625C13.0364044921875,12.573775390625,13.2349044921875,12.918675390625,13.2518044921875,13.271375390625C13.2518044921875,13.685275390625,12.9505044921875,14.037975390625,12.5365044921875,14.098475390625C12.1410044921875,14.149875390625,11.7270044921875,13.899975390625,11.6412044921875,13.503675390625C11.5208044921875,12.892675390625,11.2617044921875,12.358275390625,10.8139944921875,11.910675390625C10.7626344921875,11.858505390625,10.7971144921875,11.746585390625,10.7794944921875,11.660715390625L10.9811044921875,11.645385390625C11.0117644921875,11.645385390625,11.0348044921875,11.649215390625,11.0470044921875,11.660715390625ZM11.7791044921875,3.856695390625C12.6224044921875,4.752095390625,13.0885044921875,5.811535390625,13.1054044921875,7.043475390625C12.8915044921875,6.946615390625,12.6594044921875,6.896945390625,12.4246044921875,6.897815390625L12.3901044921875,6.897815390625C11.5852044921875,6.930285390625,10.9238644921875,7.544135390625,10.8316144921875,8.344395390625C10.8143644921875,8.487485390625,10.8143644921875,8.632135390624999,10.8316144921875,8.775235390625C10.5295844921875,9.076495390625,10.1593044921875,9.265855390625,9.7031744921875,9.343285390624999L9.6939844921875,9.343285390624999C9.0997544921875,9.469245390625,8.6309644921875,9.925775390625,8.4893144921875,10.516465390625C8.3476544921875,11.107155390625,8.558404492187499,11.726645390625,9.0308744921875,12.108375390625C8.5134744921875,12.266375390625,7.9777144921875,12.356275390625,7.4371044921875,12.375975390625C6.7450144921875,12.409075390625,6.0517744921875,12.342175390625,5.3787744921875,12.177375390625C5.2656844921875,12.163175390625,5.1508444921875,12.174975390625,5.0429944921875,12.211875390625L3.4837344921875,12.978475390625C3.2851844921875,13.081975390625,3.1042544921875,13.098875390625,2.9317644921875,12.961675390625C2.7684944921875,12.840475390625,2.7516144921875,12.659575390625,2.7684944921875,12.444175390625C2.8374844921875,12.014175390625,2.8896244921875,11.583285390625,2.9325444921874997,11.152465390625C2.9255244921875,11.046905390625,2.8828144921875003,10.946885390625,2.8114144921874997,10.868825390625C2.1314444921874998,10.187305390625,1.5457584921875,9.438325390625,1.2529074921875,8.490805390624999C0.7009534921875,6.612635390625,1.2007874921875,5.002765390625,2.5622744921875,3.6581553906249997C5.0514244921875,1.220359390625,9.4003744921875,1.332280390625,11.7791044921875,3.856695390625ZM14.8800044921875,10.066955390625C15.3109044921875,10.119075390625,15.6290044921875,10.463285390625,15.6290044921875,10.894105390625C15.6290044921875,11.308075390625,15.3791044921875,11.643085390625,14.9659044921875,11.721275390625C14.4599044921875,11.813265390625,14.0031044921875,12.027875390625,13.6228044921875,12.357575390625L13.4848044921875,12.487875390625C13.3982044921875,12.573775390625,13.2694044921875,12.651175390625,13.1828044921875,12.522375390625C13.1483044921875,12.453375390625,13.1659044921875,12.289375390625,13.2173044921875,12.237975390625C13.6230044921875,11.826975390625,13.8909044921875,11.300025390625,13.9839044921875,10.730065390625C14.0634044921875,10.308805390625,14.4539044921875,10.019845390625,14.8800044921875,10.066955390625ZM11.6580044921875,9.291905390625C11.6412044921875,9.377775390625,11.6756044921875,9.506555390625,11.6235044921875,9.558695390625001C11.1935044921875,9.989515390625,10.9604044921875,10.506215390625,10.8400544921875,11.101095390625C10.7534244921875,11.531165390625,10.3570944921875,11.781075390625,9.9438944921875,11.712085390625C9.5299344921875,11.643085390625,9.2202244921875,11.281245390625,9.2202244921875,10.876485390625C9.2202244921875,10.514645390625,9.4877644921875,10.178875390625,9.8488344921875,10.109885390625C10.4317044921875,10.014785390625,10.9706544921875,9.741015390625,11.3912044921875,9.326405390625C11.4426044921875,9.274285390625,11.5722044921875,9.291905390625,11.6580044921875,9.291905390625ZM12.4246044921875,7.672085390625C12.8041044921875,7.672085390625,13.1567044921875,7.921995390625,13.2349044921875,8.318325390624999C13.3376044921875,8.912445390624999,13.5968044921875,9.429895390625,14.0184044921875,9.859975390625C14.0705044921875,9.912095390625,14.0360044921875,10.058515390625,14.0529044921875,10.144385390625C13.9494044921875,10.144385390625,13.8206044921875,10.178875390625,13.7692044921875,10.127505390625C13.3376044921875,9.679045390625,12.8033044921875,9.446775390625,12.2092044921875,9.317975390625C11.8114044921875,9.223085390625,11.5484044921875,8.844565390625,11.5982044921875,8.438685390625C11.6580044921875,8.008625390625,11.9945044921875,7.689705390625,12.4246044921875,7.672085390625Z" fill="#BABAC4" fill-opacity="1"/></g></g></svg>