<svg xmlns="http://www.w3.org/2000/svg" xmlns:xlink="http://www.w3.org/1999/xlink" fill="none" version="1.1" width="16" height="16" viewBox="0 0 16 16"><defs><clipPath id="master_svg0_55967_122418"><rect x="0" y="0" width="16" height="16" rx="0"/></clipPath></defs><g clip-path="url(#master_svg0_55967_122418)"><g><path d="M12.382748046875,9.14067C12.711548046875,9.13636,12.977148046875,8.87083,12.981448046875,8.542C12.981448046875,8.21,12.715448046875,7.94333,12.382748046875,7.94333C12.050048046875,7.94333,11.784048046875,8.21,11.784048046875,8.542C11.784048046875,8.87533,12.050748046875,9.14067,12.382748046875,9.14067ZM9.432748046875,9.14067C9.761578046875,9.13636,10.027108046875,8.87083,10.031418046875,8.542C10.031418046875,8.21,9.764748046875,7.94333,9.432748046875,7.94333C9.099418046875,7.94333,8.834078046875,8.21,8.834078046875,8.542C8.834078046875,8.87533,9.100078046875,9.14067,9.432748046875,9.14067ZM13.810748046875,12.5007C13.723148046875,12.5494,13.676848046875,12.649,13.696048046875,12.7473C13.696048046875,12.7793,13.696048046875,12.812,13.712748046875,12.8453C13.778048046875,13.1233,13.908748046875,13.566,13.908748046875,13.5827C13.908748046875,13.6313,13.925448046875,13.664,13.925448046875,13.6973C13.925448046875,13.7786,13.859348046875,13.8444,13.778048046875,13.844C13.744748046875,13.844,13.728748046875,13.828,13.696048046875,13.812L12.730048046875,13.2547C12.659548046875,13.2158,12.581148046875,13.1935,12.500748046875,13.1893C12.452048046875,13.1893,12.402748046875,13.1893,12.370048046875,13.2053C11.911448046875,13.3367,11.436748046875,13.402,10.929448046875,13.402C8.489418046874999,13.402,6.524748046875,11.764,6.524748046875,9.732C6.524748046875,7.70067,8.489418046874999,6.062,10.929448046875,6.062C13.368748046875,6.062,15.333448046875,7.70067,15.333448046875,9.732C15.333448046875,10.83,14.744048046875,11.82933,13.810748046875,12.5013L13.810748046875,12.5007ZM11.115448046875,5.39933C11.053248046875,5.39726,10.990948046875,5.3961500000000004,10.928748046875,5.396C8.146078046875001,5.396,5.858078046875,7.30267,5.858078046875,9.732669999999999C5.858078046875,10.102,5.911418046875,10.45933,6.010078046875,10.79933L5.950748046875,10.79933C5.368248046875,10.79345,4.789058046875,10.71096,4.228078046875,10.554C4.1787480468750005,10.53733,4.129418046875,10.53733,4.080078046875,10.53733C3.981558046875,10.53943,3.885368046875,10.56773,3.801418046875,10.61933L2.6360780468750002,11.28933C2.602748046875,11.306,2.570078046875,11.32267,2.537418046875,11.32267C2.4384580468749997,11.32159,2.358498046875,11.24163,2.357418046875,11.14267C2.357418046875,11.09333,2.373418046875,11.06067,2.390078046875,11.01133C2.406078046875,10.99533,2.554078046875,10.45533,2.6360780468750002,10.12866C2.6360780468750002,10.09533,2.6520780468750003,10.04667,2.6520780468750003,10.014C2.6517180468749997,9.898150000000001,2.597208046875,9.78913,2.504748046875,9.71933C1.372081046875,8.91733,0.666748046875,7.724,0.666748046875,6.39867C0.666748046875,3.96333,3.046748046875,2,5.966748046875,2C8.476748046874999,2,10.586748046875,3.4459999999999997,11.115448046875,5.39867L11.115448046875,5.39933ZM7.679418046875,5.678C8.061418046875,5.678,8.363418046875001,5.359999999999999,8.363418046875001,4.994C8.363418046875001,4.612,8.061418046875,4.3100000000000005,7.679418046875,4.3100000000000005C7.297418046875,4.3100000000000005,6.995418046875,4.612,6.995418046875,4.994C6.995418046875,5.3759999999999994,7.297418046875,5.678,7.679418046875,5.678ZM4.172748046875,5.678C4.554748046875,5.678,4.857418046875,5.359999999999999,4.857418046875,4.994C4.857418046875,4.612,4.554748046875,4.3100000000000005,4.172748046875,4.3100000000000005C3.791418046875,4.3100000000000005,3.488748046875,4.612,3.488748046875,4.994C3.488748046875,5.3759999999999994,3.791418046875,5.678,4.172748046875,5.678Z" fill="#BABAC4" fill-opacity="1"/></g></g></svg>