<svg xmlns="http://www.w3.org/2000/svg" xmlns:xlink="http://www.w3.org/1999/xlink" fill="none" version="1.1" width="16" height="16" viewBox="0 0 16 16"><defs><clipPath id="master_svg0_55967_122548"><rect x="0" y="0" width="16" height="16" rx="0"/></clipPath></defs><g clip-path="url(#master_svg0_55967_122548)"><g><path d="M13.64016328125,10.76993328125L13.64016328125,12.98586328125C13.64026328125,13.31506328125,13.38566328125,13.58826328125,13.05736328125,13.61126328125C12.78346328125,13.63006328125,12.55976328125,13.64016328125,12.38676328125,13.64016328125C6.84878328125,13.64016328125,2.35986328125,9.151213281250001,2.35986328125,3.61322328125C2.35986328125,3.44026328125,2.36926357125,3.21653628125,2.38869068125,2.94267628125C2.41173468125,2.61429128125,2.6849272812500002,2.35971416725,3.01411928125,2.359863430663L5.2300632812500005,2.359863430663C5.39110328125,2.35970027225,5.52605328125,2.48163628125,5.54215328125,2.64187028125C5.55656328125,2.78600728125,5.56972328125,2.90069028125,5.58226328125,2.98779828125C5.70680328125,3.85696328125,5.96203328125,4.70229328125,6.33929328125,5.4951532812499995C6.39883328125,5.62049328125,6.35997328125,5.77026328125,6.247173281249999,5.85048328125L4.89479328125,6.81682328125C5.72167328125,8.74353328125,7.25710328125,10.27896328125,9.18380328125,11.10583328125L10.14889328125,9.75596328125C10.23030328125,9.64215328125,10.38144328125,9.602853281249999,10.50798328125,9.66258328125C11.30074328125,10.03914328125,12.14586328125,10.293733281249999,13.01466328125,10.41774328125C13.10186328125,10.43027328125,13.21646328125,10.44406328125,13.35936328125,10.45784328125C13.51936328125,10.47425328125,13.64096328125,10.60911328125,13.64016328125,10.76993328125L13.64016328125,10.76993328125Z" fill="#BABAC4" fill-opacity="1"/></g></g></svg>