<svg xmlns="http://www.w3.org/2000/svg" xmlns:xlink="http://www.w3.org/1999/xlink" fill="none" version="1.1" width="16" height="16" viewBox="0 0 16 16"><defs><clipPath id="master_svg0_56842_156790"><rect x="3" y="3" width="10" height="10" rx="0"/></clipPath></defs><g><g><ellipse cx="8" cy="8" rx="8" ry="8" fill="#4C5AFB" fill-opacity="1"/></g><g clip-path="url(#master_svg0_56842_156790)"><g><path d="M11.33333,12.166673505859375L4.666667,12.166673505859375C4.436548,12.166673505859375,4.25,11.980123505859375,4.25,11.750013505859375L4.25,4.250010505859375C4.25,4.019891505859375,4.436548,3.833343505859375,4.666667,3.833343505859375L11.33333,3.833343505859375C11.56345,3.833343505859375,11.75,4.019891505859375,11.75,4.250010505859375L11.75,11.750013505859375C11.75,11.980123505859375,11.56345,12.166673505859375,11.33333,12.166673505859375ZM5.91667,5.500013505859375L5.91667,7.166673505859375L7.58333,7.166673505859375L7.58333,5.500013505859375L5.91667,5.500013505859375ZM5.91667,8.000013505859375L5.91667,8.833343505859375L10.08333,8.833343505859375L10.08333,8.000013505859375L5.91667,8.000013505859375ZM5.91667,9.666673505859375L5.91667,10.500013505859375L10.08333,10.500013505859375L10.08333,9.666673505859375L5.91667,9.666673505859375ZM8.41667,5.916673505859375L8.41667,6.750013505859375L10.08333,6.750013505859375L10.08333,5.916673505859375L8.41667,5.916673505859375Z" fill="#FFFFFF" fill-opacity="1"/></g></g></g></svg>