<svg xmlns="http://www.w3.org/2000/svg" xmlns:xlink="http://www.w3.org/1999/xlink" fill="none" version="1.1" width="44" height="44" viewBox="0 0 44 44"><g><g><rect x="0" y="0" width="44" height="44" rx="10" fill="#006DE2" fill-opacity="1"/></g><g><g><path d="M31.777885382449625,22.000014964370727Q31.77798538244963,22.24003496437073,31.766185382449628,22.479834964370728Q31.754385382449627,22.719534964370727,31.730885382449628,22.958434964370728Q31.707285382449626,23.19723496437073,31.672085382449627,23.434734964370726Q31.636885382449627,23.672134964370727,31.590085382449626,23.907534964370726Q31.54318538244963,24.142934964370728,31.484885382449626,24.37583496437073Q31.426585382449627,24.60863496437073,31.356885382449626,24.838334964370727Q31.28718538244963,25.068034964370728,31.20638538244963,25.294034964370727Q31.125485382449625,25.52003496437073,31.033685382449626,25.741834964370728Q30.941785382449627,25.96353496437073,30.839185382449628,26.18053496437073Q30.736485382449626,26.397534964370728,30.623385382449626,26.609234964370728Q30.510185382449627,26.82093496437073,30.386785382449627,27.026834964370728Q30.263385382449627,27.232634964370728,30.13008538244963,27.43223496437073Q29.996685382449627,27.631834964370725,29.853685382449626,27.824634964370727Q29.710785382449625,28.01743496437073,29.55848538244963,28.202934964370726Q29.406185382449628,28.388534964370727,29.244985382449627,28.56633496437073Q29.083785382449626,28.744234964370726,28.914085382449628,28.91393496437073Q28.744385382449625,29.083634964370727,28.566485382449628,29.244834964370728Q28.388685382449626,29.40603496437073,28.20308538244963,29.558334964370726Q28.017585382449624,29.710634964370726,27.824785382449626,29.853634964370727Q27.631985382449628,29.996534964370728,27.432385382449628,30.129934964370726Q27.232785382449627,30.263334964370728,27.026885382449628,30.386734964370728Q26.820985382449628,30.510134964370728,26.609385382449627,30.623234964370727Q26.397685382449627,30.736434964370726,26.180685382449624,30.83903496437073Q25.963685382449626,30.941634964370728,25.741885382449627,31.033534964370727Q25.520185382449625,31.125334964370726,25.294185382449626,31.20623496437073Q25.068185382449627,31.28703496437073,24.838485382449626,31.356734964370727Q24.608785382449625,31.426434964370728,24.375885382449628,31.484734964370727Q24.143085382449627,31.54313496437073,23.90768538244963,31.589934964370727Q23.672285382449626,31.636734964370728,23.434785382449626,31.671934964370728Q23.197385382449625,31.707134964370727,22.958485382449627,31.73073496437073Q22.719585382449626,31.754234964370728,22.479885382449627,31.76603496437073Q22.240185382449624,31.777834964370726,22.000105382449625,31.777834964370726Q21.760075382449628,31.777834964370726,21.520335382449627,31.76603496437073Q21.280595382449626,31.754234964370728,21.041715382449627,31.73073496437073Q20.80283538244963,31.707134964370727,20.565405382449626,31.671934964370728Q20.327975382449626,31.636734964370728,20.092555382449625,31.589934964370727Q19.857135382449627,31.54313496437073,19.624295382449628,31.484734964370727Q19.391455382449628,31.426434964370728,19.161755382449627,31.356734964370727Q18.932055382449626,31.28703496437073,18.706055382449627,31.20623496437073Q18.480055382449628,31.125334964370726,18.258295382449628,31.033534964370727Q18.036535382449628,30.941634964370728,17.81955538244963,30.83903496437073Q17.602565382449626,30.736434964370726,17.39087538244963,30.623234964370727Q17.179185382449628,30.510134964370728,16.973305382449627,30.386734964370728Q16.767415382449627,30.263334964370728,16.567845382449626,30.129934964370726Q16.36826538244963,29.996534964370728,16.175465382449627,29.853634964370727Q15.982675382449628,29.710634964370726,15.797125382449627,29.558334964370726Q15.611575382449626,29.40603496437073,15.433725382449627,29.244834964370728Q15.255875382449627,29.083634964370727,15.086145382449626,28.91393496437073Q14.916415382449626,28.744234964370726,14.755215382449627,28.56633496437073Q14.594025382449626,28.388534964370727,14.441745382449627,28.202934964370726Q14.289475382449627,28.01743496437073,14.146485382449626,27.824634964370727Q14.003505382449626,27.631834964370725,13.870145382449627,27.43223496437073Q13.736795382449627,27.232634964370728,13.613385382449627,27.026834964370728Q13.489985382449627,26.82093496437073,13.376835382449627,26.609234964370728Q13.263685382449626,26.397534964370728,13.161061382449628,26.18053496437073Q13.058434382449628,25.96353496437073,12.966577382449627,25.741834964370728Q12.874721382449627,25.52003496437073,12.793857382449627,25.294034964370727Q12.712992382449627,25.068034964370728,12.643315382449627,24.838334964370727Q12.573637382449627,24.60863496437073,12.515314382449628,24.37583496437073Q12.456991382449626,24.142934964370728,12.410163382449626,23.907534964370726Q12.363335382449627,23.672134964370727,12.328115382449626,23.434734964370726Q12.292895582449628,23.19723496437073,12.269368282449626,22.958434964370728Q12.245840982449627,22.719534964370727,12.234063182449628,22.479834964370728Q12.222285382449627,22.24003496437073,12.222285382449627,22.000014964370727Q12.222285382449627,21.75998496437073,12.234063182449628,21.520244964370725Q12.245840982449627,21.280494964370728,12.269368282449626,21.041624964370726Q12.292895582449628,20.802744964370728,12.328115382449626,20.565314964370728Q12.363335382449627,20.32788496437073,12.410163382449626,20.092464964370727Q12.456991382449626,19.85704496437073,12.515314382449628,19.624204964370726Q12.573637382449627,19.391364964370727,12.643315382449627,19.16167496437073Q12.712992382449627,18.931974964370728,12.793857382449627,18.70597496437073Q12.874721382449627,18.479974964370726,12.966577382449627,18.25821496437073Q13.058434382449628,18.036454964370726,13.161061382449628,17.819474964370727Q13.263685382449626,17.602484964370728,13.376835382449627,17.390804964370727Q13.489985382449627,17.179114964370726,13.613385382449627,16.97322496437073Q13.736795382449627,16.76734496437073,13.870145382449627,16.567764964370728Q14.003505382449626,16.368194964370726,14.146485382449626,16.175394964370728Q14.289475382449627,15.982604964370728,14.441745382449627,15.797054964370727Q14.594025382449626,15.611504964370727,14.755215382449627,15.433654964370728Q14.916415382449626,15.255804964370729,15.086145382449626,15.086074964370727Q15.255875382449627,14.916354964370727,15.433725382449627,14.755154964370728Q15.611575382449626,14.593964964370727,15.797125382449627,14.441684964370728Q15.982675382449628,14.289414964370728,16.175465382449627,14.146424964370727Q16.36826538244963,14.003444964370727,16.567845382449626,13.870084964370728Q16.767415382449627,13.736734964370727,16.973305382449627,13.613334964370727Q17.179185382449628,13.489934964370727,17.39087538244963,13.376784964370728Q17.602565382449626,13.263634964370727,17.81955538244963,13.161005964370727Q18.036535382449628,13.058379964370728,18.258295382449628,12.966523964370728Q18.480055382449628,12.874667964370728,18.706055382449627,12.793803964370728Q18.932055382449626,12.712939964370728,19.161755382449627,12.643262964370727Q19.391455382449628,12.573584964370728,19.624295382449628,12.515262964370727Q19.857135382449627,12.456939964370727,20.092555382449625,12.410111964370728Q20.327975382449626,12.363284964370727,20.565405382449626,12.328064964370727Q20.80283538244963,12.292844764370727,21.041715382449627,12.269317664370728Q21.280595382449626,12.245790464370728,21.520335382449627,12.234012764370728Q21.760075382449628,12.222234964370728,22.000105382449625,12.222234964370728Q22.240185382449624,12.222234964370728,22.479885382449627,12.234012764370728Q22.719585382449626,12.245790464370728,22.958485382449627,12.269317664370728Q23.197385382449625,12.292844764370727,23.434785382449626,12.328064964370727Q23.672285382449626,12.363284964370727,23.90768538244963,12.410111964370728Q24.143085382449627,12.456939964370727,24.375885382449628,12.515262964370727Q24.608785382449625,12.573584964370728,24.838485382449626,12.643262964370727Q25.068185382449627,12.712939964370728,25.294185382449626,12.793803964370728Q25.520185382449625,12.874667964370728,25.741885382449627,12.966523964370728Q25.963685382449626,13.058379964370728,26.180685382449624,13.161005964370727Q26.397685382449627,13.263634964370727,26.609385382449627,13.376784964370728Q26.820985382449628,13.489934964370727,27.026885382449628,13.613334964370727Q27.232785382449627,13.736734964370727,27.432385382449628,13.870084964370728Q27.631985382449628,14.003444964370727,27.824785382449626,14.146424964370727Q28.017585382449624,14.289414964370728,28.20308538244963,14.441684964370728Q28.388685382449626,14.593964964370727,28.566485382449628,14.755154964370728Q28.744385382449625,14.916354964370727,28.914085382449628,15.086074964370727Q29.083785382449626,15.255804964370729,29.244985382449627,15.433654964370728Q29.406185382449628,15.611504964370727,29.55848538244963,15.797054964370727Q29.710785382449625,15.982604964370728,29.853685382449626,16.175394964370728Q29.996685382449627,16.368194964370726,30.13008538244963,16.567774964370727Q30.263385382449627,16.76734496437073,30.386785382449627,16.97323496437073Q30.510185382449627,17.179114964370726,30.623385382449626,17.390804964370727Q30.736485382449626,17.602484964370728,30.839185382449628,17.819474964370727Q30.941785382449627,18.036454964370726,31.033685382449626,18.25821496437073Q31.125485382449625,18.479974964370726,31.20638538244963,18.70597496437073Q31.28718538244963,18.931974964370728,31.356885382449626,19.16167496437073Q31.426585382449627,19.391364964370727,31.484885382449626,19.624204964370726Q31.54318538244963,19.85704496437073,31.590085382449626,20.092464964370727Q31.636885382449627,20.32788496437073,31.672085382449627,20.565314964370728Q31.707285382449626,20.802744964370728,31.730885382449628,21.041624964370726Q31.754385382449627,21.280494964370728,31.766185382449628,21.520244964370725Q31.77798538244963,21.75998496437073,31.777885382449625,22.000014964370727ZM23.31458538244963,17.837584964370727Q23.31458538244963,17.773004964370728,23.308285382449625,17.708734964370727Q23.30198538244963,17.644464964370727,23.289385382449627,17.581124964370726Q23.276785382449628,17.517784964370726,23.257985382449625,17.455984964370728Q23.239285382449626,17.394184964370726,23.214585382449627,17.334514964370726Q23.189885382449624,17.27485496437073,23.159385382449628,17.21789496437073Q23.128985382449628,17.160944964370728,23.093085382449626,17.10724496437073Q23.057185382449624,17.053554964370726,23.016185382449628,17.00362496437073Q22.975285382449627,16.95370496437073,22.929585382449627,16.908044964370728Q22.883885382449627,16.862374964370726,22.833985382449626,16.82140496437073Q22.784085382449625,16.780434964370727,22.730385382449626,16.744564964370728Q22.676685382449627,16.708684964370725,22.619685382449624,16.678234964370727Q22.562785382449626,16.64779496437073,22.503085382449626,16.623084964370726Q22.443485382449627,16.598364964370727,22.381685382449625,16.579624964370726Q22.319885382449627,16.560874964370726,22.256485382449625,16.548274964370727Q22.193175382449628,16.535674964370727,22.128905382449627,16.52934496437073Q22.064635382449627,16.523014964370727,22.000055382449627,16.523014964370727Q21.935475382449628,16.523014964370727,21.871205382449627,16.52934496437073Q21.806935382449627,16.535674964370727,21.743595382449627,16.548274964370727Q21.680255382449626,16.560874964370726,21.618455382449625,16.579624964370726Q21.556655382449627,16.598364964370727,21.496985382449626,16.623084964370726Q21.43732538244963,16.64779496437073,21.38037538244963,16.678234964370727Q21.323415382449625,16.708684964370725,21.269715382449625,16.744564964370728Q21.21602538244963,16.780434964370727,21.16610538244963,16.82140496437073Q21.11618538244963,16.862374964370726,21.070515382449628,16.908044964370728Q21.024845382449627,16.95370496437073,20.98388538244963,17.00362496437073Q20.942915382449627,17.053554964370726,20.907035382449628,17.10724496437073Q20.87115538244963,17.160944964370728,20.840715382449627,17.21789496437073Q20.81026538244963,17.27485496437073,20.785555382449626,17.334514964370726Q20.760835382449628,17.394184964370726,20.742095382449627,17.455984964370728Q20.72334538244963,17.517784964370726,20.710745382449627,17.581124964370726Q20.698145382449628,17.644464964370727,20.691815382449626,17.708734964370727Q20.685485382449627,17.773004964370728,20.685485382449627,17.837584964370727L20.685485382449627,20.686104964370728L17.837335382449627,20.686104964370728Q17.772755382449628,20.686104964370728,17.708485382449627,20.692434964370726Q17.644215382449627,20.698764964370728,17.580875382449626,20.711364964370727Q17.517535382449626,20.72396496437073,17.455735382449628,20.742704964370727Q17.393935382449627,20.761454964370728,17.334265382449626,20.786164964370727Q17.27460538244963,20.81088496437073,17.217645382449625,20.841324964370727Q17.160695382449628,20.871764964370726,17.106995382449625,20.907644964370725Q17.053295382449626,20.943524964370727,17.003375382449626,20.984494964370725Q16.953455382449626,21.025464964370727,16.907785382449628,21.071134964370728Q16.862125382449626,21.116794964370726,16.821155382449625,21.16672496437073Q16.780185382449627,21.21664496437073,16.744305382449628,21.270334964370726Q16.708425382449626,21.32403496437073,16.677985382449627,21.38099496437073Q16.647535382449625,21.43794496437073,16.622825382449626,21.497614964370726Q16.598105382449628,21.557274964370727,16.579365382449627,21.619074964370725Q16.560615382449626,21.68087496437073,16.548015382449627,21.744214964370727Q16.535415382449628,21.807554964370727,16.529085382449626,21.871824964370727Q16.522755382449628,21.936094964370728,16.522755382449628,22.000684964370727Q16.522755382449628,22.065264964370726,16.529085382449626,22.129534964370727Q16.535415382449628,22.193804964370727,16.548015382449627,22.257134964370728Q16.560615382449626,22.320434964370726,16.579365382449627,22.382234964370728Q16.598105382449628,22.44403496437073,16.622825382449626,22.50373496437073Q16.647535382449625,22.563434964370728,16.677985382449627,22.620334964370727Q16.708425382449626,22.67733496437073,16.744305382449628,22.73103496437073Q16.780185382449627,22.784734964370728,16.821155382449625,22.83463496437073Q16.862125382449626,22.88453496437073,16.907785382449628,22.930234964370726Q16.953455382449626,22.97593496437073,17.003375382449626,23.01683496437073Q17.053295382449626,23.057834964370727,17.106995382449625,23.093734964370725Q17.160695382449628,23.12963496437073,17.217645382449625,23.160034964370727Q17.27460538244963,23.190434964370727,17.334265382449626,23.21523496437073Q17.393935382449627,23.239934964370725,17.455735382449628,23.258634964370728Q17.517535382449626,23.277434964370727,17.580875382449626,23.290034964370726Q17.644215382449627,23.302634964370725,17.708485382449627,23.308934964370728Q17.772755382449628,23.315234964370728,17.837335382449627,23.315234964370728L20.685485382449627,23.315234964370728L20.685485382449627,26.16323496437073Q20.685485382449627,26.22783496437073,20.691815382449626,26.292134964370728Q20.698145382449628,26.356334964370728,20.710745382449627,26.419734964370726Q20.72334538244963,26.483034964370727,20.742095382449627,26.54483496437073Q20.760835382449628,26.606634964370727,20.785555382449626,26.666334964370726Q20.81026538244963,26.726034964370726,20.840705382449627,26.782934964370728Q20.87115538244963,26.839934964370727,20.907035382449628,26.893634964370726Q20.942915382449627,26.947334964370725,20.98388538244963,26.997234964370726Q21.024845382449627,27.047134964370727,21.070515382449628,27.092834964370727Q21.11618538244963,27.138434964370727,21.16610538244963,27.179434964370728Q21.21602538244963,27.220434964370728,21.269715382449625,27.256234964370726Q21.323415382449625,27.292134964370728,21.38037538244963,27.322634964370728Q21.43732538244963,27.35303496437073,21.496985382449626,27.377734964370728Q21.556655382449627,27.402434964370727,21.618455382449625,27.421234964370726Q21.680255382449626,27.439934964370728,21.743595382449627,27.452534964370727Q21.806935382449627,27.465134964370726,21.871205382449627,27.471534964370726Q21.935475382449628,27.47783496437073,22.000055382449627,27.47783496437073Q22.064635382449627,27.47783496437073,22.128905382449627,27.471534964370726Q22.193175382449628,27.465134964370726,22.256485382449625,27.452534964370727Q22.319885382449627,27.439934964370728,22.381685382449625,27.421234964370726Q22.443485382449627,27.402434964370727,22.503085382449626,27.377734964370728Q22.562785382449626,27.35303496437073,22.619685382449624,27.322634964370728Q22.676685382449627,27.292134964370728,22.730385382449626,27.256234964370726Q22.784085382449625,27.220434964370728,22.833985382449626,27.179434964370728Q22.883885382449627,27.138434964370727,22.929585382449627,27.092834964370727Q22.975285382449627,27.047134964370727,23.016185382449628,26.997234964370726Q23.057185382449624,26.947334964370725,23.093085382449626,26.893634964370726Q23.128985382449628,26.839934964370727,23.159385382449628,26.782934964370728Q23.189885382449624,26.726034964370726,23.214585382449627,26.666334964370726Q23.239285382449626,26.606634964370727,23.257985382449625,26.54483496437073Q23.276785382449628,26.483034964370727,23.289385382449627,26.419734964370726Q23.30198538244963,26.356334964370728,23.308285382449625,26.292134964370728Q23.31458538244963,26.22783496437073,23.31458538244963,26.16323496437073L23.31458538244963,23.315234964370728L26.162885382449627,23.315234964370728Q26.22748538244963,23.315234964370728,26.29168538244963,23.308934964370728Q26.355985382449624,23.302634964370725,26.419385382449626,23.290034964370726Q26.482685382449628,23.277434964370727,26.54448538244963,23.258634964370728Q26.606285382449627,23.239934964370725,26.665985382449627,23.21523496437073Q26.725585382449626,23.190434964370727,26.782585382449625,23.160034964370727Q26.839485382449627,23.12963496437073,26.893185382449627,23.093734964370725Q26.94688538244963,23.057834964370727,26.996885382449626,23.01683496437073Q27.046785382449627,22.97593496437073,27.092385382449628,22.930234964370726Q27.138085382449628,22.88453496437073,27.179085382449628,22.83463496437073Q27.21998538244963,22.784734964370728,27.255885382449627,22.73103496437073Q27.291785382449625,22.67733496437073,27.322185382449625,22.620334964370727Q27.35268538244963,22.563434964370728,27.377385382449624,22.50373496437073Q27.402085382449627,22.44403496437073,27.420885382449626,22.382234964370728Q27.43958538244963,22.320434964370726,27.452185382449628,22.257134964370728Q27.464785382449627,22.193804964370727,27.471085382449626,22.129534964370727Q27.47748538244963,22.065264964370726,27.47748538244963,22.000684964370727Q27.47748538244963,21.936094964370728,27.471085382449626,21.871824964370727Q27.464785382449627,21.807564964370727,27.452185382449628,21.744214964370727Q27.43958538244963,21.68087496437073,27.420885382449626,21.619074964370725Q27.402085382449627,21.557274964370727,27.377385382449624,21.497614964370726Q27.35268538244963,21.43794496437073,27.322185382449625,21.38099496437073Q27.291785382449625,21.32403496437073,27.255885382449627,21.270334964370726Q27.21998538244963,21.21664496437073,27.179085382449628,21.16672496437073Q27.138085382449628,21.116794964370726,27.092385382449628,21.071134964370728Q27.046785382449627,21.025464964370727,26.996885382449626,20.984494964370725Q26.94688538244963,20.943524964370727,26.893185382449627,20.907644964370725Q26.839485382449627,20.871764964370726,26.782585382449625,20.841324964370727Q26.725585382449626,20.81088496437073,26.665985382449627,20.786164964370727Q26.606285382449627,20.761454964370728,26.54448538244963,20.742704964370727Q26.482685382449628,20.72396496437073,26.419385382449626,20.711364964370727Q26.355985382449624,20.698764964370728,26.29168538244963,20.692434964370726Q26.22748538244963,20.686104964370728,26.162885382449627,20.686104964370728L23.31458538244963,20.686104964370728L23.31458538244963,17.837584964370727Z" fill-rule="evenodd" fill="#FFFFFF" fill-opacity="1"/></g></g></g></svg>