<svg xmlns="http://www.w3.org/2000/svg" xmlns:xlink="http://www.w3.org/1999/xlink" fill="none" version="1.1" width="44" height="44" viewBox="0 0 44 44"><g><g><rect x="0" y="0" width="44" height="44" rx="10" fill="#F1A63A" fill-opacity="1"/></g><g style="opacity:0.949999988079071;"><g></g><g><g><g><rect x="12.562628746032715" y="18.569769859313965" width="4.573267936706543" height="12.57628345489502" rx="1.5" fill="#FFFFFF" fill-opacity="1"/></g><g><path d="M18.464972496032715,20.228929546813966L18.464972496032715,29.650649546813966C18.464972496032715,30.114749546813965,18.784368496032716,30.517949546813966,19.236225496032716,30.624149546813964L20.896142496032716,31.014149546813965C21.271012496032714,31.102249546813965,21.654802496032715,31.146749546813965,22.039882496032714,31.146749546813965L27.396672496032714,31.146749546813965C28.310002496032716,31.146749546813965,29.107272496032714,30.527949546813964,29.334072496032714,29.643249546813966L31.624172496032713,20.707949546813964C31.786272496032716,20.075379546813963,31.308472496032714,19.459669546813963,30.655472496032715,19.459669546813963L25.189402496032713,19.459669546813963C24.836962496032715,19.459669546813963,24.595142496032715,19.104809546813964,24.724052496032716,18.776789546813966L25.344482496032715,17.198039546813966C25.954702496032716,15.645269546813964,25.180842496032714,13.892929546813965,23.622142496032716,13.297993546813965L23.264922496032714,13.161645546813965C22.801782496032715,12.984870546813966,22.279042496032716,13.174083546813964,22.036352496032716,13.606341546813965L18.593003496032715,19.739369546813965C18.509061096032713,19.888879546813964,18.464972496032715,20.057469546813966,18.464972496032715,20.228929546813966Z" fill="#FFFFFF" fill-opacity="1"/></g></g></g></g></g></svg>