<svg xmlns="http://www.w3.org/2000/svg" xmlns:xlink="http://www.w3.org/1999/xlink" fill="none" version="1.1" width="14" height="14" viewBox="0 0 14 14"><defs><clipPath id="master_svg0_46239_074695"><rect x="0" y="0" width="14" height="14" rx="0"/></clipPath></defs><g clip-path="url(#master_svg0_46239_074695)"><g><g><path d="M6.99812,13.001031884765625C10.28494,13.001031884765625,13,10.285461884765626,13,7.001801884765625C13,3.714421884765625,10.28121,0.998931884765625,6.99357,0.998931884765625C3.71047,0.998931884765625,1,3.714421884765625,1,7.001801884765625C1,10.285461884765626,3.71502,13.001031884765625,6.99812,13.001031884765625ZM6.99812,11.963931884765625C4.2507,11.963931884765625,2.04062,9.749691884765625,2.04062,7.001801884765625C2.04062,4.250191884765625,4.24616,2.0397218847656253,6.99357,2.0397218847656253C9.74471,2.0397218847656253,11.9594,4.250191884765625,11.9594,7.001801884765625C11.9594,9.749691884765625,9.74926,11.963931884765625,6.99812,11.963931884765625Z" fill="#8A8A8E" fill-opacity="1"/></g><g><path d="M6.8709803033447265,8.17283154449463C7.156010303344726,8.17283154449463,7.334790303344727,8.005401544494628,7.346250303344727,7.788371544494629C7.347070303344727,7.758981544494629,7.347890303344727,7.724221544494629,7.349530303344727,7.695651544494629C7.361810303344726,7.375711544494629,7.562240303344726,7.172151544494628,7.960730303344727,6.905171544494629C8.548730303344726,6.519261544494629,8.897100303344727,6.181301544494628,8.897100303344727,5.524401544494629C8.897100303344727,4.594343544494629,8.057810303344727,4.045731544494629,7.044200303344726,4.045731544494629C6.058344303344726,4.045731544494629,5.397284303344726,4.5190915444946285,5.234975403344727,5.078261544494628C5.203588603344727,5.174981544494629,5.186670303344727,5.266341544494629,5.186670303344727,5.368441544494629C5.186670303344727,5.618861544494629,5.3783633033447265,5.7765515444946285,5.5905243033447265,5.7765515444946285C5.783493303344726,5.7765515444946285,5.915236303344726,5.690101544494629,6.013942303344726,5.546701544494629L6.090094303344727,5.434501544494629C6.254220303344726,5.082261544494629,6.572560303344726,4.851490544494629,6.986160303344727,4.851490544494629C7.511110303344727,4.851490544494629,7.851750303344726,5.151591544494629,7.851750303344726,5.576001544494629C7.851750303344726,5.955911544494629,7.617290303344726,6.152101544494629,7.101430303344727,6.508341544494629C6.6704603033447265,6.808261544494629,6.386330303344726,7.1102815444946295,6.386330303344726,7.632961544494629C6.386330303344726,7.664431544494629,6.386330303344726,7.695101544494628,6.386330303344726,7.725771544494629C6.386330303344726,8.01996154449463,6.561380303344727,8.17283154449463,6.8709803033447265,8.17283154449463ZM6.8635203033447265,9.92649154449463C7.208050303344727,9.92649154449463,7.495280303344726,9.668881544494628,7.495280303344726,9.32837154449463C7.495280303344726,8.985781544494628,7.212600303344726,8.730271544494629,6.8635203033447265,8.730271544494629C6.511520303344726,8.730271544494629,6.2301203033447266,8.988701544494628,6.2301203033447266,9.32837154449463C6.2301203033447266,9.66433154449463,6.515240303344727,9.92649154449463,6.8635203033447265,9.92649154449463Z" fill="#8A8A8E" fill-opacity="1"/></g></g></g></svg>