<svg xmlns="http://www.w3.org/2000/svg" xmlns:xlink="http://www.w3.org/1999/xlink" fill="none" version="1.1" width="24" height="24" viewBox="0 0 24 24"><defs><clipPath id="master_svg0_46239_074326/42933_048885"><rect x="0" y="0" width="24" height="24" rx="0"/></clipPath></defs><g clip-path="url(#master_svg0_46239_074326/42933_048885)"><g></g><g><path d="M20.371515625,19.24005L20.371515625,6.59114Q20.371515625,5.2049900000000004,19.386315625,4.223682Q18.402615625,3.24375,17.014315625000002,3.24375L6.985675625,3.24375Q5.597425625,3.24375,4.613659625,4.223681Q3.628515625,5.2049900000000004,3.628515625,6.59114L3.628515625,19.24005Q3.628515625,19.92605,3.978893625,20.51805Q4.327894625,21.10765,4.927858625,21.44065Q5.527975625,21.77275,6.216205625,21.75445Q6.902995625,21.73625,7.485095625,21.37465L11.392145625000001,18.941850000000002Q12.000005625,18.56335,12.607855625,18.941850000000002L16.514115625000002,21.37415Q17.129615625,21.75625,17.848715625,21.75625Q18.504515625,21.75625,19.072715625,21.44035Q19.671315625,21.11035,20.021315625,20.51845Q20.371515625,19.92615,20.371515625,19.24005ZM18.186615625,5.42811Q18.671515624999998,5.91109,18.671515624999998,6.59114L18.671515624999998,19.24005Q18.671515624999998,19.72035,18.246615625,19.954549999999998Q18.063715625,20.05625,17.848715625,20.05625Q17.614315625,20.05625,17.412715625,19.93105L13.506425625,17.49875Q12.814775625,17.06815,11.999995625,17.06815Q11.185225625000001,17.06815,10.493575625,17.49875L6.588105625,19.93055Q6.174375625,20.18755,5.752845625,19.954250000000002Q5.328515625,19.71875,5.328515625,19.24005L5.328515625,6.59114Q5.328515625,5.91109,5.813395625,5.42811Q6.299645625,4.94375,6.985675625,4.94375L17.014315625000002,4.94375Q17.700315625,4.94375,18.186615625,5.42811Z" fill-rule="evenodd" fill="#121212" fill-opacity="1"/></g><g><path d="M14.62449,8L9.375513,8C8.891623,8,8.5,8.447307,8.5,9C8.5,9.55269,8.891623,10,9.375513,10L14.62449,10C15.10838,10,15.5,9.55269,15.5,9C15.5,8.447307,15.10838,8,14.62449,8Z" fill="#121212" fill-opacity="1"/></g></g></svg>