<svg xmlns="http://www.w3.org/2000/svg" xmlns:xlink="http://www.w3.org/1999/xlink" fill="none" version="1.1" width="24" height="24" viewBox="0 0 24 24"><g><g><g><path d="M15.371823124999999,3.35041698828125Q13.964013125000001,1.98956298828125,11.996253124999999,1.98956298828125Q10.035353125,1.98956298828125,8.624619125,3.36542698828125Q7.189453125,4.76511298828125,7.189453125,6.75863298828125Q7.189453125,8.78494298828125,8.611455124999999,10.20516298828125Q10.020103125,11.61204298828125,11.996253124999999,11.61204298828125Q13.978923125,11.61204298828125,15.388103125,10.20306298828125Q16.810723125000003,8.780632988281251,16.810723125000003,6.74457298828125Q16.810723125000003,4.7413329882812505,15.371823124999999,3.35041698828125ZM9.846473125,4.61825298828125Q10.747433125,3.73956298828125,11.996253124999999,3.73956298828125Q13.256463125,3.73956298828125,14.155543125000001,4.6086629882812495Q15.060733124999999,5.48365298828125,15.060723124999999,6.74457298828125Q15.060733124999999,8.055692988281251,14.150753125,8.96553298828125Q13.254123125,9.86204298828125,11.996253124999999,9.86204298828125Q10.744333125,9.86204298828125,9.848113125,8.96695298828125Q8.939453125,8.05942298828125,8.939453125,6.75863298828125Q8.939453125,5.50285298828125,9.846473125,4.61825298828125Z" fill-rule="evenodd" fill="#000000" fill-opacity="1"/></g><g><path d="M17.4201484375,13.493978890319823Q14.8898484375,12.143282890319824,11.9998884375,12.143282890319824Q9.1098984375,12.143282890319824,6.5797684375,13.493984890319824Q4.1055284375,14.814842890319824,2.5426694375,17.116472890319823Q1.9115784375,18.045892890319823,1.9547754375,19.087432890319825Q1.9947554374999998,20.051422890319824,2.5980364375,20.878442890319825Q3.1617564375000002,21.651242890319825,4.0692484375,22.100302890319824Q4.9966584375,22.559222890319823,6.0491384375,22.559222890319823L17.9508484375,22.559222890319823Q19.0033484375,22.559222890319823,19.9307484375,22.100302890319824Q20.8382484375,21.651242890319825,21.4019484375,20.878452890319824Q22.0052484375,20.051422890319824,22.0452484375,19.087432890319825Q22.0884484375,18.045892890319823,21.4573484375,17.116472890319823Q19.8944484375,14.814862890319825,17.4201484375,13.493978890319823ZM7.4039084375,15.037772890319824Q9.5477684375,13.893282890319824,11.9998884375,13.893282890319824Q14.4520484375,13.893282890319824,16.5959484375,15.037782890319825Q18.6893484375,16.155262890319825,20.0095484375,18.099552890319824Q20.6138484375,18.989432890319826,19.9881484375,19.847122890319824Q19.2863484375,20.809222890319823,17.9508484375,20.809222890319823L6.0491384375,20.809222890319823Q4.7136684375,20.809222890319823,4.0118484375,19.847122890319824Q3.3862004375,18.989432890319826,3.9904484375,18.099552890319824Q5.3106784375,16.155232890319823,7.4039084375,15.037772890319824Z" fill-rule="evenodd" fill="#000000" fill-opacity="1"/></g><g><path d="M10.398415565490723,19.011363435974122L10.398415565490723,17.11453343597412C10.398415565490723,16.815213435974123,10.641062565490722,16.57256343597412,10.940381565490723,16.57256343597412C11.239701565490723,16.57256343597412,11.482345565490723,16.815213435974123,11.482345565490723,17.11453343597412L11.482345565490723,19.011363435974122C11.482345565490723,19.31068343597412,11.239701565490723,19.55333343597412,10.940381565490723,19.55333343597412C10.641062565490722,19.55333343597412,10.398415565490723,19.31068343597412,10.398415565490723,19.011363435974122ZM11.797295565490723,17.00108343597412L11.797295565490723,19.09144343597412C11.797295565490723,19.26432343597412,11.916255565490722,19.41447343597412,12.084545565490723,19.454013435974122L12.297105565490723,19.50396343597412C12.436725565490722,19.53677343597412,12.579665565490723,19.55334343597412,12.723095565490723,19.55334343597412L13.704035565490722,19.55334343597412C14.044205565490723,19.55334343597412,14.341155565490723,19.322893435974123,14.425615565490723,18.99337343597412L14.872885565490723,17.24825343597412C14.933265565490721,17.012653435974123,14.755305565490723,16.78333343597412,14.512095565490721,16.78333343597412L13.469465565490722,16.78333343597412C13.348285565490723,16.78333343597412,13.265135565490723,16.661313435974122,13.309455565490723,16.54853343597412L13.402035565490722,16.31294343597412C13.560875565490722,15.908761435974121,13.359445565490724,15.452633435974121,12.953715565490722,15.297772935974121C12.833165565490724,15.251758935974122,12.697095565490724,15.301010535974122,12.633925565490722,15.413526435974122L11.844975565490723,16.81874343597412C11.813715565490723,16.874433435974122,11.797295565490723,16.937213435974122,11.797295565490723,17.00108343597412Z" fill="#121212" fill-opacity="1"/></g></g></g></svg>