<svg xmlns="http://www.w3.org/2000/svg" xmlns:xlink="http://www.w3.org/1999/xlink" fill="none" version="1.1" width="30" height="30" viewBox="0 0 30 30"><g><g><path d="M4,9L4,21Q4,21.1227,4.00602272,21.2453Q4.0120454,21.3679,4.0240764,21.4901Q4.0361073,21.6122,4.0541174,21.7337Q4.0721276,21.8551,4.0960736,21.9755Q4.12002,22.0958,4.149844,22.2149Q4.179668,22.334,4.215298,22.4514Q4.250929,22.5689,4.29228,22.6844Q4.3336310000000005,22.8,4.380602,22.9134Q4.427574,23.0268,4.480053,23.1378Q4.532533,23.2487,4.590394,23.357Q4.648254,23.4652,4.711357,23.5705Q4.774459,23.6758,4.842652,23.7778Q4.910844,23.8799,4.983962,23.9785Q5.05708,24.0771,5.13495,24.172Q5.21282,24.2668,5.29524,24.3578Q5.37767,24.4487,5.46447,24.5355Q5.55126,24.6223,5.6422,24.7048Q5.73315,24.7872,5.82803,24.8651Q5.92291,24.9429,6.0215,25.016Q6.120089999999999,25.0892,6.22215,25.1573Q6.32421,25.2255,6.4294899999999995,25.2886Q6.53477,25.3517,6.64302,25.4096Q6.75127,25.4675,6.862220000000001,25.5199Q6.97318,25.5724,7.08658,25.6194Q7.19998,25.6664,7.31555,25.7077Q7.43112,25.7491,7.548579999999999,25.7847Q7.66603,25.8203,7.7851,25.8502Q7.90416,25.88,8.02455,25.9039Q8.144929999999999,25.9279,8.26635,25.9459Q8.38776,25.9639,8.50991,25.9759Q8.632069999999999,25.988,8.754660000000001,25.994Q8.87726,26,9,26L21,26Q21.1227,26,21.2453,25.994Q21.3679,25.988,21.4901,25.9759Q21.6122,25.9639,21.7337,25.9459Q21.8551,25.9279,21.9755,25.9039Q22.0958,25.88,22.2149,25.8502Q22.334,25.8203,22.4514,25.7847Q22.5689,25.7491,22.6844,25.7077Q22.8,25.6664,22.9134,25.6194Q23.0268,25.5724,23.1378,25.5199Q23.2487,25.4675,23.357,25.4096Q23.4652,25.3517,23.5705,25.2886Q23.6758,25.2255,23.7778,25.1573Q23.8799,25.0892,23.9785,25.016Q24.0771,24.9429,24.172,24.8651Q24.2668,24.7872,24.3578,24.7048Q24.4487,24.6223,24.5355,24.5355Q24.6223,24.4487,24.7048,24.3578Q24.7872,24.2668,24.8651,24.172Q24.9429,24.0771,25.016,23.9785Q25.0892,23.8799,25.1573,23.7778Q25.2255,23.6758,25.2886,23.5705Q25.3517,23.4652,25.4096,23.357Q25.4675,23.2487,25.5199,23.1378Q25.5724,23.0268,25.6194,22.9134Q25.6664,22.8,25.7077,22.6844Q25.7491,22.5689,25.7847,22.4514Q25.8203,22.334,25.8502,22.2149Q25.88,22.0958,25.9039,21.9755Q25.9279,21.8551,25.9459,21.7337Q25.9639,21.6122,25.9759,21.4901Q25.988,21.3679,25.994,21.2453Q26,21.1227,26,21L26,9Q26,8.87726,25.994,8.754660000000001Q25.988,8.632069999999999,25.9759,8.50991Q25.9639,8.38776,25.9459,8.26635Q25.9279,8.144929999999999,25.9039,8.02455Q25.88,7.90416,25.8502,7.7851Q25.8203,7.66603,25.7847,7.548579999999999Q25.7491,7.43112,25.7077,7.31555Q25.6664,7.19998,25.6194,7.08658Q25.5724,6.97318,25.5199,6.862220000000001Q25.4675,6.75127,25.4096,6.64302Q25.3517,6.53477,25.2886,6.4294899999999995Q25.2255,6.32421,25.1573,6.22215Q25.0892,6.120089999999999,25.016,6.0215Q24.9429,5.92291,24.8651,5.82803Q24.7872,5.73315,24.7048,5.6422Q24.6223,5.55126,24.5355,5.46447Q24.4487,5.37767,24.3578,5.29524Q24.2668,5.21282,24.172,5.13495Q24.0771,5.05708,23.9785,4.983962Q23.8799,4.910844,23.7778,4.842652Q23.6758,4.774459,23.5705,4.711357Q23.4652,4.648254,23.357,4.590394Q23.2487,4.532533,23.1378,4.480053Q23.0268,4.427574,22.9134,4.380602Q22.8,4.3336310000000005,22.6844,4.29228Q22.5689,4.250929,22.4514,4.215298Q22.334,4.179668,22.2149,4.149844Q22.0958,4.12002,21.9755,4.0960736Q21.8551,4.0721276,21.7337,4.0541174Q21.6122,4.0361073,21.4901,4.0240764Q21.3679,4.0120454,21.2453,4.00602272Q21.1227,4,21,4L9,4Q8.87726,4,8.754660000000001,4.00602272Q8.632069999999999,4.0120454,8.50991,4.0240764Q8.38776,4.0361073,8.26635,4.0541174Q8.144929999999999,4.0721276,8.02455,4.0960736Q7.90416,4.12002,7.7851,4.149844Q7.66603,4.179668,7.548579999999999,4.215298Q7.43112,4.250929,7.31555,4.29228Q7.19998,4.3336310000000005,7.08658,4.380602Q6.97318,4.427574,6.862220000000001,4.480053Q6.75127,4.532533,6.64302,4.590394Q6.53477,4.648254,6.4294899999999995,4.711357Q6.32421,4.774459,6.22215,4.842652Q6.120089999999999,4.910844,6.0215,4.983962Q5.92291,5.05708,5.82803,5.13495Q5.73315,5.21282,5.6422,5.29524Q5.55126,5.37767,5.46447,5.46447Q5.37767,5.55126,5.29524,5.6422Q5.21282,5.73315,5.13495,5.82803Q5.05708,5.92291,4.983962,6.0215Q4.910844,6.120089999999999,4.842652,6.22215Q4.774459,6.32421,4.711357,6.4294899999999995Q4.648254,6.53477,4.590394,6.64302Q4.532533,6.75127,4.480053,6.862220000000001Q4.427574,6.97318,4.380602,7.08658Q4.3336310000000005,7.19998,4.29228,7.31555Q4.250929,7.43112,4.215298,7.548579999999999Q4.179668,7.66603,4.149844,7.7851Q4.12002,7.90416,4.0960736,8.02455Q4.0721276,8.144929999999999,4.0541174,8.26635Q4.0361073,8.38776,4.0240764,8.50991Q4.0120454,8.632069999999999,4.00602272,8.754660000000001Q4,8.87726,4,9ZM9.5,12Q9.57369,12,9.64703,11.99278Q9.72036,11.98555,9.792629999999999,11.97118Q9.86491,11.956800000000001,9.93543,11.935410000000001Q10.005939999999999,11.91402,10.07402,11.885819999999999Q10.142109999999999,11.85762,10.20709,11.82288Q10.272079999999999,11.78814,10.33335,11.7472Q10.39463,11.70626,10.45159,11.65952Q10.50855,11.612770000000001,10.56066,11.56066Q10.612770000000001,11.50855,10.65952,11.45159Q10.70626,11.39463,10.7472,11.33335Q10.78814,11.272079999999999,10.82288,11.2071Q10.85762,11.142109999999999,10.885819999999999,11.07402Q10.91402,11.005939999999999,10.935410000000001,10.93543Q10.956800000000001,10.86491,10.97118,10.792629999999999Q10.98555,10.72036,10.99278,10.64703Q11,10.57369,11,10.5Q11,10.42631,10.99278,10.35297Q10.98555,10.27964,10.97118,10.207360000000001Q10.956800000000001,10.13509,10.935410000000001,10.06457Q10.91402,9.994060000000001,10.885819999999999,9.92597Q10.85762,9.857890000000001,10.82288,9.7929Q10.78814,9.727920000000001,10.7472,9.666640000000001Q10.70626,9.60537,10.659510000000001,9.54841Q10.612770000000001,9.49145,10.56066,9.43934Q10.50855,9.387229999999999,10.45159,9.34048Q10.39463,9.29374,10.33335,9.2528Q10.272079999999999,9.21185,10.20709,9.17712Q10.142109999999999,9.14238,10.07402,9.114180000000001Q10.005939999999999,9.08598,9.93543,9.064589999999999Q9.86491,9.043199999999999,9.792629999999999,9.02882Q9.72036,9.01445,9.64703,9.00722Q9.57369,9,9.5,9Q9.42631,9,9.35297,9.00722Q9.27964,9.01445,9.207360000000001,9.02882Q9.13509,9.043199999999999,9.06457,9.064589999999999Q8.994060000000001,9.08598,8.92597,9.114180000000001Q8.857890000000001,9.14238,8.7929,9.17712Q8.727920000000001,9.21185,8.666640000000001,9.2528Q8.60537,9.29374,8.54841,9.34048Q8.49145,9.387229999999999,8.43934,9.43934Q8.387229999999999,9.49145,8.34048,9.54841Q8.29374,9.60537,8.2528,9.666640000000001Q8.21186,9.727920000000001,8.17712,9.7929Q8.14238,9.857890000000001,8.114180000000001,9.92597Q8.08598,9.994060000000001,8.064589999999999,10.06457Q8.043199999999999,10.13509,8.02882,10.207360000000001Q8.01445,10.27964,8.00722,10.35297Q8,10.42631,8,10.5Q8,10.57369,8.00722,10.64703Q8.01445,10.72036,8.02882,10.792629999999999Q8.043199999999999,10.86491,8.064589999999999,10.93543Q8.08598,11.005939999999999,8.114180000000001,11.07402Q8.14238,11.142109999999999,8.17712,11.2071Q8.21186,11.272079999999999,8.2528,11.33335Q8.29374,11.39463,8.34048,11.45159Q8.387229999999999,11.50855,8.43934,11.56066Q8.49145,11.612770000000001,8.54841,11.65952Q8.60537,11.70626,8.666640000000001,11.7472Q8.727920000000001,11.78814,8.7929,11.82288Q8.857890000000001,11.85762,8.92597,11.885819999999999Q8.994060000000001,11.91402,9.06457,11.935410000000001Q9.13509,11.956800000000001,9.207360000000001,11.97118Q9.27964,11.98555,9.35297,11.99278Q9.42631,12,9.5,12ZM21.9232,18.5338L17.5685,13.36253C16.969099999999997,12.65079,15.8731,12.65079,15.2737,13.36253L12.3459,16.839399999999998L11.935690000000001,16.293799999999997C11.33564,15.4957,10.1379,15.4957,9.537849999999999,16.293799999999997L7.80556,18.5978C7.06224,19.586399999999998,7.76759,20.9992,9.00449,20.9992L10.95056,20.9992C10.96417,20.9997,10.97789,21,10.991710000000001,21L20.7758,21C22.0512,21,22.7447,19.5094,21.9232,18.5338Z" fill-rule="evenodd" fill="#087CCE" fill-opacity="1"/></g></g></svg>