<svg xmlns="http://www.w3.org/2000/svg" xmlns:xlink="http://www.w3.org/1999/xlink" fill="none" version="1.1" width="246.7314453125" height="66.7763671875" viewBox="0 0 246.7314453125 66.7763671875"><g><g><path d="M33.41073265625,52.5963671875L30.83073265625,53.0913671875L30.83073265625,51.9963671875L33.87573265625,51.3663671875L34.76073265625,51.3663671875L34.76073265625,61.7763671875L33.41073265625,61.7763671875L33.41073265625,52.5963671875ZM42.24572265625,61.9263671875Q41.46572265625,61.9263671875,40.82072265625,61.693867187500004Q40.17572265625,61.4613671875,39.71072265625,60.8613671875Q39.24572265625,60.2613671875,38.99072265625,59.2188671875Q38.73573265625,58.1763671875,38.73573265625,56.5713671875Q38.73573265625,54.9663671875,38.99072265625,53.9313671875Q39.24572265625,52.8963671875,39.71072265625,52.2888671875Q40.17572265625,51.6813671875,40.82072265625,51.4488671875Q41.46572265625,51.2163671875,42.24572265625,51.2163671875Q43.02572265625,51.2163671875,43.67822265625,51.4488671875Q44.33072265625,51.6813671875,44.79572265625,52.2888671875Q45.260722656249996,52.8963671875,45.51572265625,53.9313671875Q45.77072265625,54.9663671875,45.77072265625,56.5713671875Q45.77072265625,58.1763671875,45.51572265625,59.2188671875Q45.260722656249996,60.2613671875,44.79572265625,60.8613671875Q44.33072265625,61.4613671875,43.67822265625,61.693867187500004Q43.02572265625,61.9263671875,42.24572265625,61.9263671875ZM42.24572265625,60.8013671875Q42.80072265625,60.8013671875,43.20572265625,60.6138671875Q43.61072265625,60.4263671875,43.88072265625,59.9463671875Q44.15072265625,59.4663671875,44.27822265625,58.6488671875Q44.40572265625,57.8313671875,44.40572265625,56.5713671875Q44.40572265625,55.3263671875,44.27822265625,54.5088671875Q44.15072265625,53.6913671875,43.88072265625,53.2113671875Q43.61072265625,52.7313671875,43.20572265625,52.5438671875Q42.80072265625,52.3563671875,42.24572265625,52.3563671875Q41.70572265625,52.3563671875,41.30072265625,52.5438671875Q40.89572265625,52.7313671875,40.63322265625,53.2113671875Q40.37072265625,53.6913671875,40.24322265625,54.5088671875Q40.11572265625,55.3263671875,40.11572265625,56.5713671875Q40.11572265625,57.8313671875,40.24322265625,58.6488671875Q40.37072265625,59.4663671875,40.63322265625,59.9463671875Q40.89572265625,60.4263671875,41.30072265625,60.6138671875Q41.70572265625,60.8013671875,42.24572265625,60.8013671875ZM50.870722656249995,61.9263671875Q50.09072265625,61.9263671875,49.44572265625,61.693867187500004Q48.80072265625,61.4613671875,48.33572265625,60.8613671875Q47.870722656249995,60.2613671875,47.61572265625,59.2188671875Q47.360722656250005,58.1763671875,47.360722656250005,56.5713671875Q47.360722656250005,54.9663671875,47.61572265625,53.9313671875Q47.870722656249995,52.8963671875,48.33572265625,52.2888671875Q48.80072265625,51.6813671875,49.44572265625,51.4488671875Q50.09072265625,51.2163671875,50.870722656249995,51.2163671875Q51.65072265625,51.2163671875,52.30322265625,51.4488671875Q52.95572265625,51.6813671875,53.42072265625,52.2888671875Q53.885722656249996,52.8963671875,54.14072265625,53.9313671875Q54.39572265625,54.9663671875,54.39572265625,56.5713671875Q54.39572265625,58.1763671875,54.14072265625,59.2188671875Q53.885722656249996,60.2613671875,53.42072265625,60.8613671875Q52.95572265625,61.4613671875,52.30322265625,61.693867187500004Q51.65072265625,61.9263671875,50.870722656249995,61.9263671875ZM50.870722656249995,60.8013671875Q51.42572265625,60.8013671875,51.83072265625,60.6138671875Q52.235722656250005,60.4263671875,52.50572265625,59.9463671875Q52.77572265625,59.4663671875,52.90322265625,58.6488671875Q53.03072265625,57.8313671875,53.03072265625,56.5713671875Q53.03072265625,55.3263671875,52.90322265625,54.5088671875Q52.77572265625,53.6913671875,52.50572265625,53.2113671875Q52.235722656250005,52.7313671875,51.83072265625,52.5438671875Q51.42572265625,52.3563671875,50.870722656249995,52.3563671875Q50.33072265625,52.3563671875,49.92572265625,52.5438671875Q49.52072265625,52.7313671875,49.25822265625,53.2113671875Q48.995722656249995,53.6913671875,48.86822265625,54.5088671875Q48.74072265625,55.3263671875,48.74072265625,56.5713671875Q48.74072265625,57.8313671875,48.86822265625,58.6488671875Q48.995722656249995,59.4663671875,49.25822265625,59.9463671875Q49.52072265625,60.4263671875,49.92572265625,60.6138671875Q50.33072265625,60.8013671875,50.870722656249995,60.8013671875ZM59.495722656249995,61.9263671875Q58.71572265625,61.9263671875,58.07072265625,61.693867187500004Q57.42572265625,61.4613671875,56.96072265625,60.8613671875Q56.495722656249995,60.2613671875,56.24072265625,59.2188671875Q55.985722656250005,58.1763671875,55.985722656250005,56.5713671875Q55.985722656250005,54.9663671875,56.24072265625,53.9313671875Q56.495722656249995,52.8963671875,56.96072265625,52.2888671875Q57.42572265625,51.6813671875,58.07072265625,51.4488671875Q58.71572265625,51.2163671875,59.495722656249995,51.2163671875Q60.27572265625,51.2163671875,60.92822265625,51.4488671875Q61.58072265625,51.6813671875,62.04572265625,52.2888671875Q62.51072265625,52.8963671875,62.76572265625,53.9313671875Q63.02072265625,54.9663671875,63.02072265625,56.5713671875Q63.02072265625,58.1763671875,62.76572265625,59.2188671875Q62.51072265625,60.2613671875,62.04572265625,60.8613671875Q61.58072265625,61.4613671875,60.92822265625,61.693867187500004Q60.27572265625,61.9263671875,59.495722656249995,61.9263671875ZM59.495722656249995,60.8013671875Q60.05072265625,60.8013671875,60.45572265625,60.6138671875Q60.860722656250005,60.4263671875,61.13072265625,59.9463671875Q61.40072265625,59.4663671875,61.52822265625,58.6488671875Q61.65572265625,57.8313671875,61.65572265625,56.5713671875Q61.65572265625,55.3263671875,61.52822265625,54.5088671875Q61.40072265625,53.6913671875,61.13072265625,53.2113671875Q60.860722656250005,52.7313671875,60.45572265625,52.5438671875Q60.05072265625,52.3563671875,59.495722656249995,52.3563671875Q58.95572265625,52.3563671875,58.55072265625,52.5438671875Q58.14572265625,52.7313671875,57.88322265625,53.2113671875Q57.620722656249995,53.6913671875,57.49322265625,54.5088671875Q57.36572265625,55.3263671875,57.36572265625,56.5713671875Q57.36572265625,57.8313671875,57.49322265625,58.6488671875Q57.620722656249995,59.4663671875,57.88322265625,59.9463671875Q58.14572265625,60.4263671875,58.55072265625,60.6138671875Q58.95572265625,60.8013671875,59.495722656249995,60.8013671875ZM68.12072265625,61.9263671875Q67.34072265625,61.9263671875,66.69572265625,61.693867187500004Q66.05072265625,61.4613671875,65.58572265625,60.8613671875Q65.12072265625,60.2613671875,64.86572265625,59.2188671875Q64.61072265625,58.1763671875,64.61072265625,56.5713671875Q64.61072265625,54.9663671875,64.86572265625,53.9313671875Q65.12072265625,52.8963671875,65.58572265625,52.2888671875Q66.05072265625,51.6813671875,66.69572265625,51.4488671875Q67.34072265625,51.2163671875,68.12072265625,51.2163671875Q68.90072265625,51.2163671875,69.55322265625,51.4488671875Q70.20572265625,51.6813671875,70.67072265625,52.2888671875Q71.13572265625001,52.8963671875,71.39072265625,53.9313671875Q71.64572265625,54.9663671875,71.64572265625,56.5713671875Q71.64572265625,58.1763671875,71.39072265625,59.2188671875Q71.13572265625001,60.2613671875,70.67072265625,60.8613671875Q70.20572265625,61.4613671875,69.55322265625,61.693867187500004Q68.90072265625,61.9263671875,68.12072265625,61.9263671875ZM68.12072265625,60.8013671875Q68.67572265625,60.8013671875,69.08072265625,60.6138671875Q69.48572265625,60.4263671875,69.75572265625,59.9463671875Q70.02572265625,59.4663671875,70.15322265625,58.6488671875Q70.28072265624999,57.8313671875,70.28072265624999,56.5713671875Q70.28072265624999,55.3263671875,70.15322265625,54.5088671875Q70.02572265625,53.6913671875,69.75572265625,53.2113671875Q69.48572265625,52.7313671875,69.08072265625,52.5438671875Q68.67572265625,52.3563671875,68.12072265625,52.3563671875Q67.58072265625,52.3563671875,67.17572265625,52.5438671875Q66.77072265625,52.7313671875,66.50822265625,53.2113671875Q66.24572265625,53.6913671875,66.11822265625,54.5088671875Q65.99072265625,55.3263671875,65.99072265625,56.5713671875Q65.99072265625,57.8313671875,66.11822265625,58.6488671875Q66.24572265625,59.4663671875,66.50822265625,59.9463671875Q66.77072265625,60.4263671875,67.17572265625,60.6138671875Q67.58072265625,60.8013671875,68.12072265625,60.8013671875ZM80.19572265625,57.9063671875L77.21072265625,57.9063671875L77.21072265625,60.8913671875L75.93572265625,60.8913671875L75.93572265625,57.9063671875L72.96572265625,57.9063671875L72.96572265625,56.631367187500004L75.93572265625,56.631367187500004L75.93572265625,53.6613671875L77.21072265625,53.6613671875L77.21072265625,56.631367187500004L80.19572265625,56.631367187500004L80.19572265625,57.9063671875ZM88.26572265625,53.0613671875Q87.83072265625,52.5963671875,87.05072265625,51.9363671875Q86.27072265625,51.2763671875,85.80572265625,50.9763671875L86.42072265625,50.1813671875Q86.93072265625,50.4963671875,87.69572265625,51.1038671875Q88.46072265625,51.7113671875,88.91072265625,52.1463671875L88.26572265625,53.0613671875ZM97.62572265625,58.5813671875L95.10572265625,58.5813671875L95.10572265625,61.4313671875Q95.10572265625,62.031367187499995,94.97072265625,62.3388671875Q94.83572265625,62.646367187500005,94.51322265625,62.781367187499995Q94.19072265625,62.9163671875,93.54572265625,63.006367187500004L92.63072265625,63.1263671875L92.27072265625,62.0763671875L93.17072265625,62.0013671875Q93.57572265625,61.9713671875,93.74822265625,61.8888671875Q93.92072265625,61.8063671875,93.98072265625,61.6188671875Q94.04072265625,61.4313671875,94.04072265625,61.0113671875L94.04072265625,58.5813671875L91.53572265625,58.5813671875L91.53572265625,53.256367187500004L93.59072265625,53.256367187500004Q93.81572265625,52.5363671875,94.05572265625,51.5763671875L90.36572265625,51.5763671875L90.36572265625,55.4463671875Q90.36572265625,57.2913671875,90.20822265625,58.5813671875Q90.05072265625,59.8713671875,89.67572265625,60.9813671875Q89.30072265625,62.0913671875,88.61072265625,63.3663671875L87.60572265625001,62.8863671875Q88.28072265624999,61.6113671875,88.63322265625,60.5763671875Q88.98572265625,59.5413671875,89.13572265625001,58.3638671875Q89.28572265625,57.1863671875,89.28572265625,55.4913671875L89.28572265625,50.5713671875L98.58572265625,50.5713671875L98.58572265625,51.5763671875L95.13572265625,51.5763671875Q94.89572265625,52.5513671875,94.67072265625,53.256367187500004L97.62572265625,53.256367187500004L97.62572265625,58.5813671875ZM87.80072265625,56.4063671875Q87.27572265625,55.8663671875,86.48072265625001,55.2063671875Q85.68572265625,54.546367187499996,85.17572265625,54.2313671875L85.77572265625,53.421367187499996Q86.33072265625,53.7663671875,87.11822265625,54.3738671875Q87.90572265624999,54.9813671875,88.41572265625,55.4613671875L87.80072265625,56.4063671875ZM96.57572265625,55.4163671875L96.57572265625,54.171367187499996L92.57072265625,54.171367187499996L92.57072265625,55.4163671875L96.57572265625,55.4163671875ZM96.57572265625,56.3313671875L92.57072265625,56.3313671875L92.57072265625,57.6663671875L96.57572265625,57.6663671875L96.57572265625,56.3313671875ZM87.54572265625,57.5313671875L88.04072265625,57.6663671875Q87.23072265625001,61.0863671875,86.52572265625,63.0963671875L85.50572265625,62.781367187499995Q86.36072265625,60.5013671875,87.03572265625,57.381367187500004L87.54572265625,57.5313671875ZM96.65072265625,59.256367187500004Q97.67072265625,60.2613671875,99.03572265625,62.1213671875L98.27072265625,62.8113671875Q97.77572265625,62.016367187499995,97.13072265625,61.1688671875Q96.48572265625,60.3213671875,95.94572265625,59.7813671875L96.65072265625,59.256367187500004ZM92.88572265625,59.796367187499996Q92.37572265624999,60.6063671875,91.72322265625,61.4463671875Q91.07072265625,62.286367187500005,90.47072265624999,62.8563671875L89.75072265624999,62.1963671875Q90.36572265625,61.6413671875,90.98822265625,60.8763671875Q91.61072265625,60.1113671875,92.10572265625001,59.2863671875L92.88572265625,59.796367187499996ZM113.12072265625,58.3413671875L108.27572265625,58.3413671875Q108.12572265625,58.8963671875,107.94572265625,59.2713671875Q109.04072265625,59.8113671875,110.53322265625,60.6138671875Q112.02572265625,61.4163671875,113.00072265625,61.9863671875L112.46072265625,63.0663671875Q111.50072265625,62.406367187499995,110.02322265625,61.5438671875Q108.54572265625,60.6813671875,107.40572265625,60.1563671875Q106.64072265625,61.1163671875,105.17822265625,61.7988671875Q103.71572265625,62.4813671875,101.03072265625,63.1863671875L100.55072265625,62.1213671875Q102.72572265625,61.5813671875,103.98572265625,61.0788671875Q105.24572265625,60.5763671875,105.95822265625,59.9313671875Q106.67072265625,59.2863671875,107.01572265625,58.3413671875L100.28072265625,58.3413671875L100.28072265625,57.3063671875L107.28572265625,57.3063671875Q107.45072265625,56.3613671875,107.55572265625,54.1263671875Q107.58572265625,53.256367187500004,107.60822265625,52.1688671875Q107.63072265625,51.0813671875,107.64572265625,50.3013671875L107.64572265625,49.9113671875L108.81572265625,49.9563671875Q108.75572265625,53.6613671875,108.72572265625,54.2913671875Q108.65072265625,56.2713671875,108.48572265625,57.3063671875L113.12072265625,57.3063671875L113.12072265625,58.3413671875ZM106.02572265625,53.9163671875Q105.38072265625,53.3613671875,104.15822265625,52.5663671875Q102.93572265625,51.7713671875,102.18572265625,51.4263671875L102.77072265625,50.4813671875Q103.62572265625,50.9313671875,104.77322265625,51.6513671875Q105.92072265625,52.3713671875,106.67072265625,52.9413671875L106.02572265625,53.9163671875ZM105.14072265625,56.9013671875Q104.42072265625,56.3313671875,103.17572265625,55.5438671875Q101.93072265625,54.756367187500004,101.10572265625,54.381367187500004L101.67572265625,53.421367187499996Q102.54572265625,53.8713671875,103.74572265625,54.6063671875Q104.94572265625,55.3413671875,105.77072265625,55.9263671875L105.14072265625,56.9013671875ZM121.01072265625,61.1163671875L120.23072265625,62.1813671875Q119.66072265625,61.4913671875,118.40072265625,60.3363671875Q117.89072265625,61.0413671875,117.20072265625,61.7388671875Q116.51072265625,62.4363671875,115.50572265625,63.2313671875L114.65072265625,62.406367187499995Q115.70072265625,61.5963671875,116.38322265625,60.943867187500004Q117.06572265625,60.2913671875,117.56072265625,59.5863671875Q116.24072265625,58.4763671875,115.56572265625,57.9963671875Q116.13572265625,55.6863671875,116.46572265625,53.5263671875L114.93572265625,53.5263671875L114.93572265625,52.4013671875L116.63072265625,52.4013671875Q116.79572265625,51.2463671875,116.91572265625,49.6863671875L117.99572265625,49.7763671875Q117.84572265625,51.3213671875,117.71072265625,52.4013671875L120.39572265625,52.4013671875L120.39572265625,53.4663671875Q120.15572265625,55.5513671875,119.84822265625,56.9013671875Q119.54072265625,58.2513671875,119.01572265625,59.2863671875Q120.24572265625,60.3213671875,121.01072265625,61.1163671875ZM128.15072265625,55.9113671875L128.15072265625,57.0213671875L124.79072265625,57.0213671875L124.79072265625,61.296367187499996Q124.79072265625,61.9713671875,124.61072265625,62.3388671875Q124.43072265625,62.7063671875,123.98822265625,62.8788671875Q123.54572265625,63.0513671875,122.72072265625,63.0963671875L121.92572265625,63.156367187499995L121.56572265625,61.9863671875L122.52572265625,61.9263671875Q123.02072265625,61.896367187500005,123.25322265625,61.8063671875Q123.48572265625,61.7163671875,123.56822265625,61.506367187500004Q123.65072265625,61.296367187499996,123.65072265625,60.8763671875L123.65072265625,57.0213671875L120.44072265625,57.0213671875L120.44072265625,55.9113671875L123.65072265625,55.9113671875L123.65072265625,54.1263671875L126.08072265625,51.8613671875L121.05572265625,51.8613671875L121.05572265625,50.7363671875L127.52072265625,50.7363671875L127.52072265625,51.8463671875L124.79072265625,54.5313671875L124.79072265625,55.9113671875L128.15072265625,55.9113671875ZM118.16072265625,58.5663671875Q118.59572265625,57.6513671875,118.88072265625,56.4588671875Q119.16572265625,55.2663671875,119.39072265625,53.5263671875L117.54572265625,53.5263671875Q117.26072265625,55.3713671875,116.73572265625,57.5013671875Q117.39572265625,57.9513671875,118.16072265625,58.5663671875ZM132.15572265625002,52.8663671875Q131.46572265625,53.5113671875,130.08572265625,54.546367187499996L129.48572265625,53.6613671875Q132.18572265625,51.756367187500004,133.58072265625,49.6563671875L134.42072265625,50.1963671875Q133.91072265625002,51.0213671875,133.23572265625,51.7863671875L133.23572265625,55.9863671875L132.15572265625002,55.9863671875L132.15572265625002,52.8663671875ZM133.49072265625,53.3313671875Q135.12572265625,52.9263671875,136.52072265625,52.4613671875L136.52072265625,49.8363671875L137.69072265625,49.8963671875L137.69072265625,52.0563671875Q139.62572265625,51.3213671875,141.51572265625,50.256367187500004L141.96572265625,51.2313671875Q139.88072265625,52.4013671875,137.69072265625,53.2113671875L137.69072265625,53.631367187500004Q137.69072265625,54.1563671875,137.87872265625,54.3213671875Q138.06572265625,54.4863671875,138.57572265624998,54.5313671875Q139.04072265625,54.5763671875,139.58072265625,54.5763671875Q140.13572265624998,54.5763671875,140.58572265625,54.5313671875Q141.09572265625002,54.4863671875,141.30572265625,54.381367187500004Q141.51572265625,54.2763671875,141.57572265624998,54.006367187500004Q141.66572265625,53.6463671875,141.72572265625,52.8513671875L142.77572265625,53.1963671875Q142.70072265624998,54.0963671875,142.52072265625,54.7863671875Q142.41572265625,55.1463671875,142.04072265625,55.318867187500004Q141.66572265625,55.4913671875,140.79572265625,55.5513671875Q140.13572265624998,55.5963671875,139.43072265625,55.5963671875Q138.71072265625,55.5963671875,138.05072265625,55.5513671875Q137.22572265625,55.4913671875,136.87372265624998,55.1688671875Q136.52072265625,54.8463671875,136.52072265625,54.006367187500004L136.52072265625,53.6163671875Q135.27572265625,54.0513671875,133.91072265625002,54.381367187500004L133.49072265625,53.3313671875ZM140.88572265624998,56.6763671875L140.88572265624998,60.5613671875L139.77572265625,60.5613671875L139.77572265625,57.6963671875L132.72572265625,57.6963671875L132.72572265625,60.5613671875L131.61572265625,60.5613671875L131.61572265625,56.6763671875L140.88572265624998,56.6763671875ZM136.88072265625,58.3263671875L136.83572265625,58.6413671875Q136.73072265625,59.4063671875,136.62572265625,59.7363671875Q136.35572265625,60.6063671875,135.65072265625,61.2513671875Q134.94572265624998,61.896367187500005,133.58072265625,62.421367187499996Q132.21572265625,62.9463671875,129.99572265625,63.3663671875L129.60572265625,62.3163671875Q132.26072265624998,61.8363671875,133.70072265624998,61.1388671875Q135.14072265625,60.4413671875,135.45572265625,59.4813671875Q135.56072265625,59.1813671875,135.60572265625,58.8963671875Q135.65072265625,58.6113671875,135.68072265625,58.1913671875L136.88072265625,58.3263671875ZM136.88072265625,60.0813671875Q137.99072265625,60.4113671875,139.88072265625,61.1613671875Q141.77072265625,61.911367187500005,142.67072265625,62.391367187499995L142.28072265625002,63.4563671875Q141.45572265625,62.9463671875,139.58872265625,62.1813671875Q137.72072265625002,61.4163671875,136.47572265625,61.0113671875L136.88072265625,60.0813671875ZM147.12572265625,59.8713671875L148.37072265625,59.8713671875Q148.37072265625,60.756367187500004,147.88372265625,61.8738671875Q147.39572265625,62.9913671875,146.76572265625,63.8163671875L145.71572265625,63.8163671875Q146.34572265625002,62.8563671875,146.73572265625,61.7763671875Q147.12572265625,60.6963671875,147.12572265625,59.8713671875ZM159.09572265625,56.5563671875L159.09572265625,55.3413671875L172.35572265625,55.3413671875L172.35572265625,56.5563671875L159.09572265625,56.5563671875ZM181.17572265625,55.1463671875L182.85572265625,55.1463671875L182.85572265625,53.9463671875L180.78572265625,53.9463671875L180.78572265625,53.0913671875L182.85572265625,53.0913671875L182.85572265625,51.8613671875L181.19072265625,51.8613671875L181.19072265625,51.0213671875L182.85572265625,51.0213671875L182.85572265625,49.6863671875L183.83072265625,49.7313671875L183.83072265625,51.0213671875L186.18572265625,51.0213671875L186.18572265625,53.0913671875L187.07072265625,53.0913671875L187.07072265625,53.9463671875L186.18572265625,53.9463671875L186.18572265625,56.0163671875L183.83072265625,56.0163671875L183.83072265625,57.171367187499996L186.36572265625,57.171367187499996L186.36572265625,58.0413671875L183.83072265625,58.0413671875L183.83072265625,59.1813671875L186.74072265625,59.1813671875L186.74072265625,60.0513671875L183.83072265625,60.0513671875L183.83072265625,61.3563671875L182.85572265625,61.3563671875L182.85572265625,60.0513671875L180.60572265625,60.0513671875L180.60572265625,59.1813671875L182.85572265625,59.1813671875L182.85572265625,58.0413671875L181.10072265625,58.0413671875L181.10072265625,57.171367187499996L182.85572265625,57.171367187499996L182.85572265625,56.0163671875L181.17572265625,56.0163671875L181.17572265625,55.1463671875ZM175.31072265625,52.4613671875Q174.78572265625,53.631367187500004,174.23072265625,54.6663671875L173.37572265625,54.1413671875Q173.97572265625,53.1213671875,174.47872265625,51.9588671875Q174.98072265625,50.796367187499996,175.25072265625,49.7163671875L176.22572265625,49.8663671875Q176.00072265625,50.6763671875,175.68572265625,51.5163671875L177.84572265625,51.5163671875L177.84572265625,52.4613671875L175.31072265625,52.4613671875ZM184.77572265625,61.7913671875Q185.55572265625,61.7913671875,187.11572265625,61.7313671875L186.95072265625,62.631367187500004Q185.94572265625,62.6913671875,184.68572265625,62.6913671875Q183.77072265625,62.6913671875,182.84072265625,62.646367187500005Q181.67072265625,62.5863671875,180.80072265625,62.203867187499995Q179.93072265625,61.8213671875,179.27072265625,60.9813671875Q178.79072265625,61.896367187500005,177.83072265625,63.156367187499995L177.06572265625,62.5113671875Q178.11572265625,61.3113671875,178.70072265625,60.0813671875Q178.13072265625,58.9563671875,177.75572265625,57.2763671875L178.55072265625,56.9763671875Q178.82072265625,58.1463671875,179.15072265625,58.9563671875Q179.60072265625,57.5913671875,179.72072265625,55.8363671875L177.95072265625,55.8363671875L177.95072265625,54.921367187499996L179.69072265625,51.7413671875L178.08572265625,51.7413671875L178.08572265625,50.8113671875L180.69572265625,50.8113671875L180.69572265625,51.756367187500004L179.00072265625,54.921367187499996L180.66572265625,54.921367187499996L180.66572265625,55.881367187500004Q180.54572265625,57.171367187499996,180.32072265625,58.1688671875Q180.09572265625,59.1663671875,179.73572265625,60.0363671875Q180.81572265625,61.6263671875,182.94572265625,61.7463671875Q183.87572265625,61.7913671875,184.77572265625,61.7913671875ZM185.25572265625,51.8613671875L183.83072265625,51.8613671875L183.83072265625,53.0913671875L185.25572265625,53.0913671875L185.25572265625,51.8613671875ZM183.83072265625,55.1463671875L185.25572265625,55.1463671875L185.25572265625,53.9463671875L183.83072265625,53.9463671875L183.83072265625,55.1463671875ZM177.59072265625,60.0663671875L177.81572265625,61.1163671875Q177.68072265625,61.2213671875,177.15572265625,61.5813671875Q176.63072265625,61.9413671875,176.31572265625,62.1663671875L175.94072265625,62.421367187499996Q175.53572265625,62.766367187499995,175.40072265625,62.8863671875L174.83072265625,61.9863671875Q175.04072265625,61.8213671875,175.14572265625,61.6563671875Q175.25072265625,61.4913671875,175.25072265625,61.2513671875L175.25072265625,58.0413671875L173.69072265625,58.0413671875L173.69072265625,57.1113671875L175.25072265625,57.1113671875L175.25072265625,55.1613671875L174.51572265625,55.1613671875L174.51572265625,54.2313671875L177.57572265625,54.2313671875L177.57572265625,55.1613671875L176.19572265625,55.1613671875L176.19572265625,57.1113671875L177.60572265625,57.1113671875L177.60572265625,58.0413671875L176.19572265625,58.0413671875L176.19572265625,61.1763671875L177.59072265625,60.0663671875ZM201.86072265625,56.0613671875L201.86072265625,57.1563671875L198.50072265625,57.1563671875L198.50072265625,63.2313671875L197.30072265625,63.2313671875L197.30072265625,57.1563671875L193.26572265625,57.1563671875Q193.17572265625,58.6413671875,192.86072265625,59.6463671875Q192.54572265625,60.6513671875,191.87772265625,61.506367187500004Q191.21072265625,62.3613671875,189.98072265625,63.4413671875L189.12572265625,62.6013671875Q190.26572265625,61.6413671875,190.86572265625,60.8838671875Q191.46572265625,60.1263671875,191.74372265625,59.2713671875Q192.02072265625,58.4163671875,192.09572265625,57.1563671875L188.58572265625,57.1563671875L188.58572265625,56.0613671875L192.12572265625,56.0613671875L192.12572265625,55.7163671875L192.12572265625,51.8463671875L189.44072265625,51.8463671875L189.44072265625,50.7513671875L201.14072265625,50.7513671875L201.14072265625,51.8463671875L198.50072265625,51.8463671875L198.50072265625,56.0613671875L201.86072265625,56.0613671875ZM193.31072265625,56.0613671875L197.30072265625,56.0613671875L197.30072265625,51.8463671875L193.31072265625,51.8463671875L193.31072265625,55.5963671875L193.31072265625,56.0613671875ZM204.24572265625,63.2913671875L204.24572265625,50.421367187499996L215.84072265625,50.421367187499996L215.84072265625,63.2913671875L214.68572265625,63.2913671875L214.68572265625,62.4363671875L205.38572265625,62.4363671875L205.38572265625,63.2913671875L204.24572265625,63.2913671875ZM205.38572265625,51.4263671875L205.38572265625,61.4463671875L214.68572265625,61.4463671875L214.68572265625,51.4263671875L205.38572265625,51.4263671875ZM213.96572265625,53.6763671875L213.96572265625,54.6513671875L212.18072265625,54.6513671875L212.18072265625,59.0613671875Q212.18072265625,59.6613671875,212.03772265625,59.9688671875Q211.89572265625,60.2763671875,211.53572265625,60.4188671875Q211.17572265625,60.5613671875,210.44072265625,60.6213671875L209.37572265625,60.7113671875L209.03072265625,59.6613671875L210.24572265625,59.5713671875Q210.63572265625,59.5413671875,210.79272265625,59.4738671875Q210.95072265625,59.4063671875,211.01072265625,59.2413671875Q211.07072265625,59.0763671875,211.08572265625,58.7013671875L211.08572265625,55.1613671875Q210.21572265625,56.4963671875,208.92572265625,57.6363671875Q207.63572265625,58.7763671875,206.33072265625,59.631367187500004L205.64072265625,58.7763671875Q206.96072265625,58.0263671875,208.19072265625,56.9538671875Q209.42072265625,55.881367187500004,210.23072265625,54.6513671875L206.30072265625,54.6513671875L206.30072265625,53.6763671875L211.08572265625,53.6763671875L211.08572265625,52.0263671875L212.18072265625,52.0713671875L212.18072265625,53.6763671875L213.96572265625,53.6763671875Z" fill="#FFFFFF" fill-opacity="1"/></g><g><path d="M0,19.0557L0,0.907417L8.1629,0.907417L8.1629,4.83955L4.95239,4.83955L4.95239,19.0557L0,19.0557ZM26.2306,20.8033Q25.7183,19.8959,24.4546,18.0811L24.4546,30.0792L20.4243,30.0792L20.4243,19.1902Q18.6141,22.4165,16.6332,24.8027L14.0716,21.173Q15.6086,19.3582,17.0943,17.1569Q18.58,14.9556,19.7412,12.771L15.5744,12.771L15.5744,8.67086L20.4243,8.67086L20.4243,6.01583Q17.1797,6.51995,16.1892,6.62077L15.7793,2.68864Q18.6825,2.28534,22.115,1.6636Q25.5475,1.04185,28.0066,0.403296L28.7239,4.36904Q27.4601,4.70512,25.5133,5.07481L24.4546,5.31006L24.4546,8.67086L29.1337,8.67086L29.1337,12.771L24.4546,12.771L24.4546,14.6867L25.65,13.8465Q27.3918,16.0982,28.9971,18.4172L26.2306,20.8033ZM41.0536,29.7431L40.268,27.2561Q37.4332,27.5249,31.4221,28.2979Q29.202,28.5668,27.8017,28.8693L26.4014,24.9035Q27.2211,24.5338,27.4601,24.2146Q27.6992,23.8953,27.9725,22.9543Q28.0408,22.5846,28.1774,22.1477Q29.4411,18.2491,31.0122,12.1493Q32.5833,6.04944,33.7104,0.436904L37.8772,1.2771Q36.6135,7.32654,34.94,13.9137Q33.2664,20.5009,32.0368,24.1305Q33.5738,23.9961,38.2188,23.4248L39.0043,23.3239Q37.0234,17.3417,35.9304,14.2834L39.6533,12.9727Q43.2053,22.551,44.9813,28.1299L41.0536,29.7431ZM79.0675,23.492Q79.0333,23.7945,78.9138,24.7019Q78.7942,25.6093,78.4527,26.9536Q77.8379,29.2053,76.984,29.9615Q76.1302,30.7177,74.6615,30.7177Q73.432,30.7177,72.4415,29.8103Q71.451,28.9029,70.5972,26.92L70.4947,26.6511Q68.9919,28.5668,66.8402,30.5161L63.9712,27.4913Q65.3032,26.3823,65.7814,25.9454Q63.4247,26.5839,60.9485,27.2393Q58.4723,27.8946,57.1403,28.2979L56.2523,24.433L59.2579,23.66L66.6694,21.778L66.9426,23.492L67.1817,24.6347Q68.2747,23.492,69.2651,22.2149Q68.0697,16.4679,67.8648,8.57004L58.5065,8.57004L58.5065,4.77234L67.7965,4.77234L67.7965,0.369688L71.4169,0.504121L71.4852,4.77234L74.6615,4.77234Q73.9784,4.10017,72.8855,3.09194L71.9292,2.21813L74.0809,0Q76.4034,1.98287,77.4964,3.05833L75.9252,4.77234L77.9062,4.77234L77.9062,8.57004L71.5876,8.57004Q71.6901,13.2752,72.0658,17.0392Q73.0221,14.7875,74.3541,10.0824L77.7013,11.2251Q76.6425,14.8547,75.5495,17.661Q74.4566,20.4673,73.1246,22.7862Q73.3637,23.6936,73.5686,24.1978Q74.1834,25.8782,74.5932,25.8782Q75.1055,25.8782,75.4812,24.2314Q75.652,23.1895,75.7886,22.2149L79.0675,23.492ZM58.165,21.1394L58.4382,23.1559Q50.5827,25.4749,48.9433,26.0126L48.0552,21.9796L51.9488,20.8706L51.9488,11.8972L49.319,11.8972L49.319,7.93149L51.9488,7.93149L51.9488,0.873807L55.8766,1.04185L55.8766,7.93149L58.0283,7.93149L58.0283,11.8972L55.8766,11.8972L55.8766,19.7279L57.8576,19.1229L58.165,21.1394ZM58.7456,10.4521L67.1817,10.4521L67.1817,21.1058L58.7456,21.1058L58.7456,10.4521ZM62.0244,17.5098L63.9712,17.5098L63.9712,14.0481L62.0244,14.0481L62.0244,17.5098ZM93.5831,13.0063L93.5831,31.1546L85.4202,31.1546L85.4202,27.2225L88.6307,27.2225L88.6307,13.0063L93.5831,13.0063ZM146.352,12.8719Q146.249,13.5776,145.993,14.5187Q145.737,15.4597,145.429,16.1318Q144.815,17.6106,144.166,18.0475Q143.517,18.4844,142.39,18.4844Q141.297,18.4844,140.375,17.577Q139.452,16.6696,138.906,14.7203Q138.769,14.1826,138.599,12.8383L137.232,15.7958Q135.764,14.8883,133.612,13.8129Q132.417,15.4933,129.992,17.3753L130.777,17.4089L130.641,18.8205L142.8,18.8205Q142.731,20.1984,142.561,22.3325Q142.39,24.4666,142.219,25.8445Q142.048,27.4577,141.57,28.3147Q141.092,29.1717,140.101,29.5582Q139.111,29.9447,137.232,30.1464L133.817,30.4824L132.485,26.6511L135.866,26.3151Q137.096,26.1806,137.574,25.8109Q138.052,25.4412,138.189,24.5002L138.428,22.4165L130.026,22.4165Q129.411,24.7355,128.062,26.231Q126.713,27.7266,124.288,28.802Q121.863,29.8775,117.696,30.953L115.544,27.2897Q118.857,26.5167,120.77,25.8782Q122.683,25.2396,123.793,24.433Q124.903,23.6264,125.449,22.4165L117.764,22.4165L117.764,18.8205L126.235,18.8205L126.371,17.2073L128.25,17.3081L126.03,15.3252Q127.567,14.4178,128.523,13.6616Q129.479,12.9055,130.094,12.0989Q128.728,11.4603,127.772,11.1242L127.806,11.3595Q127.464,11.3931,125.313,11.7628L125.313,13.9137Q125.313,15.8966,124.578,16.7872Q123.844,17.6778,121.965,17.8122L119.438,18.0139L118.345,14.8211L120.394,14.5859Q121.077,14.5187,121.231,14.317Q121.385,14.1154,121.385,13.3424L121.385,12.5022L116.535,13.4096L116.227,9.77993Q117.901,9.54467,119.848,9.20859L121.385,8.97333L121.385,6.88964L116.74,6.88964L116.74,3.42802L121.385,3.42802L121.385,0.403296L125.313,0.537729L125.313,3.42802L128.318,3.42802L128.318,6.88964L125.313,6.88964L125.313,8.33478L127.567,7.93149L127.669,9.54467L127.772,10.9898L129.24,7.96509Q129.992,8.23396,131.46,8.8389Q131.597,8.09953,131.665,7.1585L129.172,7.1585L129.172,3.49523L131.734,3.49523L131.734,0.403296L135.593,0.537729L135.559,3.49523L141.877,3.49523L141.877,8.26757Q141.877,10.2504,142.082,12.6702Q142.151,13.4432,142.253,13.6953Q142.356,13.9473,142.595,13.9473Q143.004,13.9473,143.244,13.1743Q143.449,12.435,143.653,11.5948L146.352,12.8719ZM138.53,12.1661Q138.36,10.2168,138.36,8.57004L138.36,7.1585L135.491,7.1585Q135.388,9.07416,135.047,10.4521Q137.062,11.3931,138.53,12.1661ZM164.044,9.61189Q163.531,13.9473,162.763,16.8712Q161.994,19.7951,160.662,22.1141Q163.019,23.8953,165.034,25.5421L162.507,29.2726Q159.911,26.9536,158.101,25.5085Q155.915,27.8946,151.68,31.0538L148.503,27.9955Q152.704,25.2732,154.993,23.0215Q152.09,20.7697,150.484,19.6271Q151.987,14.4178,152.738,9.84714L150.04,9.84714L150.04,5.61254L153.353,5.61254Q153.661,3.02472,153.866,0.235257L158.135,0.806592Q157.964,2.62142,157.554,5.61254L164.044,5.61254L164.044,9.61189ZM165.273,29.3062L165.273,3.56245L177.979,3.56245L177.979,29.3062L165.273,29.3062ZM169.269,25.1052L174.085,25.1052L174.085,7.66262L169.269,7.66262L169.269,25.1052ZM156.939,9.84714Q156.12,14.6195,155.129,17.9803L157.486,19.7279Q158.511,17.9131,159.074,15.5941Q159.638,13.2752,159.979,9.84714L156.939,9.84714ZM211.689,30.953Q207.146,28.6004,204.687,26.6847Q202.194,28.8693,197.993,31.0202L196.354,28.1971Q195.705,29.407,194.748,30.8857L191.401,28.7012L192.358,27.2897L185.185,27.2897L185.185,19.5935Q184.741,20.2656,183.956,21.3747L181.77,18.2155Q183.477,15.8966,184.844,12.7374Q186.21,9.57828,186.893,6.28469L183.546,6.28469L183.546,2.38617L194.202,2.38617L194.202,6.28469L190.513,6.28469Q189.967,8.90612,189.181,11.2923L193.519,11.2923L193.519,25.1388Q194.544,22.8534,194.8,20.3832Q195.056,17.9131,195.056,12.7374L195.056,3.96574L201.75,3.96574L201.75,0.470512L205.678,0.638553L205.678,3.96574L212.782,3.96574L212.782,7.83066L211.04,11.2587L207.317,10.284L208.547,7.89788L205.678,7.89788L205.678,12.3677L211.108,12.3677L211.108,16.0646Q210.084,18.8877,209.349,20.5681Q208.615,22.2485,207.42,23.8281Q209.879,25.5421,213.738,27.2561L211.689,30.953ZM201.75,12.3677L201.75,7.89788L198.881,7.89788L198.881,12.3677L201.75,12.3677ZM188.532,23.66L190.138,23.66L190.138,15.3589L188.532,15.3589L188.532,23.66ZM207.146,16.2327L201.716,16.2327Q202.775,19.291,204.619,21.3411Q205.439,20.2656,205.934,19.1734Q206.429,18.0811,207.146,16.2327ZM201.887,24.0633Q200.042,21.9124,198.813,18.9885Q198.71,21.2739,198.3,23.1223Q197.891,24.9707,196.968,26.9536Q200.077,25.5085,201.887,24.0633ZM246.731,5.41089L246.731,9.74632L242.018,9.74632L242.018,26.0126Q242.018,27.5586,241.574,28.4324Q241.13,29.3062,240.105,29.7095Q239.081,30.1128,237.236,30.2472L234.675,30.4152L233.445,26.2814L235.939,26.147Q237.032,26.0798,237.407,25.7605Q237.783,25.4412,237.783,24.4666L237.783,9.74632L234.743,9.74632Q233.343,12.435,231.601,14.8547L227.81,12.5022Q228.869,11.2251,229.791,9.74632L225.658,9.74632L225.658,30.348L221.423,30.348L221.423,11.2923Q220.057,13.4432,218.452,15.5269L215.412,12.1325Q217.564,9.2422,219.408,6.04944Q221.252,2.85668,222.106,0.134433L226.136,1.04185Q225.351,3.52884,224.531,5.41089L230.44,5.41089L230.44,8.67086Q232.626,4.90677,234.026,0.201649L238.227,1.10906Q237.441,3.62966,236.724,5.41089L246.731,5.41089Z" fill="#FFFFFF" fill-opacity="1"/></g></g></svg>