<svg xmlns="http://www.w3.org/2000/svg" xmlns:xlink="http://www.w3.org/1999/xlink" fill="none" version="1.1" width="30" height="30" viewBox="0 0 30 30"><defs><clipPath id="master_svg0_47886_075761"><rect x="0" y="0" width="30" height="30" rx="0"/></clipPath></defs><g clip-path="url(#master_svg0_47886_075761)"><g><path d="M19.75745,10.5166225C19.76065,10.5166225,19.76375,10.5166225,19.76685,10.5166225C20.22385,10.5172925,20.58415,10.1146625,20.42765,9.6853125C19.19515,6.3034025,15.33205,3.8828125,10.97143,3.8828125C5.67915,3.8828125,1.34375,7.4525825,1.34375,11.9851225C1.34375,14.4416125,2.6159499999999998,16.485912499999998,4.76663,18.105912500000002C5.01572,18.2935125,5.12795,18.6194125,5.02866,18.9150125L4.77112,19.6819125C4.57263,20.2728125,5.18752,20.8089125,5.74593,20.5317125L7.38622,19.717512499999998C7.52409,19.6491125,7.68214,19.6281125,7.83307,19.6584125C8.93151,19.8783125,9.84831,20.0904125,10.97143,20.0904125C10.98351,20.0904125,10.99558,20.0903125,11.00765,20.0903125C11.45255,20.0886125,11.74695,19.6429125,11.67155,19.2045125C11.60725,18.830312499999998,11.57235,18.447312500000002,11.57235,18.0564125C11.57245,13.8944125,15.18425,10.5166225,19.75745,10.5166225ZM14.58185,7.9332525C15.30685,7.9332525,15.78675,8.4057625,15.78675,9.1226825C15.78675,9.8366325,15.30685,10.3150625,14.58185,10.3150625C13.85975,10.3150625,13.13615,9.8366325,13.13615,9.1226825C13.13615,8.4057625,13.85975,7.9332525,14.58185,7.9332525ZM7.84392,10.315022500000001C7.12182,10.315022500000001,6.39383,9.8366025,6.39383,9.122652500000001C6.39383,8.4057325,7.12182,7.9332225,7.84392,7.9332225C8.56522,7.9332225,9.04589,8.4057325,9.04589,9.122652500000001C9.04589,9.8366325,8.56522,10.315022500000001,7.84392,10.315022500000001ZM28.54495,17.9419125C28.54495,14.1329125,24.69315,11.0282725,20.36735,11.0282725C15.78675,11.0282725,12.17935,14.1329125,12.17935,17.9419125C12.17935,21.7564125,15.78675,24.8544125,20.36735,24.8544125C21.23755,24.8544125,22.11515,24.6583125,22.99015,24.4432125C23.15975,24.4015125,23.34065,24.4236125,23.49425,24.5068125L24.39695,24.9959125C24.94725,25.2940125,25.58225,24.7753125,25.40005,24.1766125L25.31585,23.8998125C25.22975,23.6168125,25.33685,23.3082125,25.56715,23.1226125C27.29805,21.7276125,28.54495,19.9413125,28.54495,17.9419125ZM17.71225,16.7495125C17.233150000000002,16.7495125,16.74955,16.2777125,16.74955,15.7963125C16.74955,15.3216125,17.233150000000002,14.8439125,17.71225,14.8439125C18.44025,14.8439125,18.91725,15.3216125,18.91725,15.7963125C18.91725,16.2777125,18.44025,16.7495125,17.71225,16.7495125ZM23.00745,16.7495125C22.53205,16.7495125,22.05145,16.2777125,22.05145,15.7963125C22.05145,15.3216125,22.53205,14.8439125,23.00745,14.8439125C23.72955,14.8439125,24.21245,15.3216125,24.21245,15.7963125C24.21245,16.2777125,23.72955,16.7495125,23.00745,16.7495125Z" fill="#006DE2" fill-opacity="1"/></g></g></svg>