<svg xmlns="http://www.w3.org/2000/svg" xmlns:xlink="http://www.w3.org/1999/xlink" fill="none" version="1.1" width="20" height="20" viewBox="0 0 20 20"><g><g><path d="M9.86369,0L10.1363,0L10,0C4.47715,0,0,4.47715,0,10C0,15.5228,4.47715,20,10,20L10.1363,20L9.86368,20L10,20C15.5228,20,20,15.5228,20,10C20,4.47715,15.5228,0,10,0L9.86369,0Z" fill="#006DE2" fill-opacity="1"/></g><g><g><path d="M13.709868884696961,6.112861875C11.66097888469696,4.063940875,8.339048884696961,4.063940875,6.290158884696961,6.112861875C4.24125288469696,8.161751875,4.24125288469696,11.483671874999999,6.290158884696961,13.532551875L7.839518884696961,15.081971875C9.032738884696961,16.275171874999998,10.96728888469696,16.275171874999998,12.16049888469696,15.081971875L13.709868884696961,13.532551875C15.75877888469696,11.483671874999999,15.75877888469696,8.161751875,13.709868884696961,6.112861875ZM10.00014888469696,11.759941874999999Q10.09547888469696,11.759941874999999,10.19035888469696,11.750601875000001Q10.28522888469696,11.741261875,10.378728884696962,11.722661875Q10.47222888469696,11.704061875,10.56345888469696,11.676391875Q10.65467888469696,11.648711875,10.742758884696961,11.612231874999999Q10.83082888469696,11.575751875,10.91490888469696,11.530811875000001Q10.99897888469696,11.485871875,11.078248884696961,11.432911875Q11.15750888469696,11.379941875,11.23119888469696,11.319471875Q11.30489888469696,11.258991875,11.37230888469696,11.191581875Q11.43971888469696,11.124171875,11.50018888469696,11.050481875Q11.56066888469696,10.976781875,11.613628884696961,10.897521874999999Q11.66659888469696,10.818251875,11.71153888469696,10.734181875Q11.75647888469696,10.650101875,11.792958884696962,10.562031874999999Q11.82943888469696,10.473951875000001,11.85710888469696,10.382731875000001Q11.88478888469696,10.291501875,11.90337888469696,10.198001875Q11.92197888469696,10.104501875,11.93132888469696,10.009631875Q11.940668884696962,9.914761875,11.940668884696962,9.819421875Q11.940668884696962,9.724091875,11.93132888469696,9.629221874999999Q11.92197888469696,9.534351874999999,11.90338888469696,9.440851875Q11.88478888469696,9.347351875000001,11.85710888469696,9.256121875Q11.82943888469696,9.164891875,11.792958884696962,9.076821875Q11.75647888469696,8.988741874999999,11.71153888469696,8.904671875Q11.66659888469696,8.820591875,11.613638884696961,8.741331875Q11.56066888469696,8.662061875,11.50018888469696,8.588371875Q11.43971888469696,8.514681875,11.37230888469696,8.447271875Q11.30489888469696,8.379861875,11.231208884696962,8.319381875Q11.15750888469696,8.258901875,11.078248884696961,8.205941875Q10.99897888469696,8.152981875,10.91490888469696,8.108041875Q10.83082888469696,8.063101875000001,10.742758884696961,8.026621875Q10.65467888469696,7.990141875,10.56345888469696,7.962461875Q10.47222888469696,7.934791875,10.378728884696962,7.916191875Q10.28522888469696,7.897591875,10.19035888469696,7.888251875Q10.09547888469696,7.878901875,10.00014888469696,7.878901875Q9.904818884696962,7.878901875,9.809948884696961,7.888251875Q9.715078884696961,7.897591875,9.62157888469696,7.916191875Q9.52807888469696,7.934791875,9.43684888469696,7.962461875Q9.345618884696961,7.990141875,9.25754888469696,8.026621875Q9.169468884696961,8.063101875000001,9.08539888469696,8.108041875Q9.00131888469696,8.152981875,8.92205888469696,8.205941875Q8.842788884696962,8.258901875,8.76909888469696,8.319381875Q8.69540888469696,8.379861875,8.62799888469696,8.447271875Q8.56058888469696,8.514681875,8.50010888469696,8.588371875Q8.43962888469696,8.662061875,8.38666888469696,8.741331875Q8.33370888469696,8.820591875,8.28876888469696,8.904671875Q8.24382888469696,8.988741874999999,8.20734888469696,9.076821875Q8.17085888469696,9.164891875,8.143188884696961,9.256121875Q8.11551888469696,9.347351875000001,8.096918884696962,9.440851875Q8.07831888469696,9.534351874999999,8.06897888469696,9.629221874999999Q8.059628884696961,9.724091875,8.059628884696961,9.819421875Q8.059628884696961,9.914761875,8.06897888469696,10.009631875Q8.07831888469696,10.104501875,8.096918884696962,10.198001875Q8.11551888469696,10.291501875,8.143188884696961,10.382731875000001Q8.17085888469696,10.473951875000001,8.20734888469696,10.562031874999999Q8.24382888469696,10.650101875,8.28876888469696,10.734181875Q8.33370888469696,10.818251875,8.38666888469696,10.897521874999999Q8.43962888469696,10.976781875,8.50010888469696,11.050481875Q8.56058888469696,11.124171875,8.62799888469696,11.191581875Q8.69540888469696,11.258991875,8.76909888469696,11.319471875Q8.842788884696962,11.379941875,8.92205888469696,11.432911875Q9.00131888469696,11.485871875,9.08539888469696,11.530811875000001Q9.169468884696961,11.575751875,9.25754888469696,11.612231874999999Q9.345618884696961,11.648711875,9.43684888469696,11.676391875Q9.52807888469696,11.704061875,9.62157888469696,11.722661875Q9.715078884696961,11.741261875,9.809948884696961,11.750601875000001Q9.904818884696962,11.759941874999999,10.00014888469696,11.759941874999999Z" fill-rule="evenodd" fill="#FFFFFF" fill-opacity="1"/></g></g></g></svg>