<svg xmlns="http://www.w3.org/2000/svg" xmlns:xlink="http://www.w3.org/1999/xlink" fill="none" version="1.1" width="20" height="20" viewBox="0 0 20 20"><g><g><g><g><path d="M10.000236875,11.04150390625C9.655056875,11.04150390625,9.375236874999999,11.32130390625,9.375236874999999,11.66650390625C9.375236874999999,12.01170390625,9.655056875,12.29150390625,10.000236875,12.29150390625C10.000236875,12.29150390625,10.000236875,11.04150390625,10.000236875,11.04150390625C10.000236875,11.04150390625,10.000236875,11.04150390625,10.000236875,11.04150390625ZM12.500196875,1.66650390625C12.500196875,1.66650390625,13.125196875,1.66650390625,13.125196875,1.66650390625C13.125196875,1.32132590625,12.845396875,1.04150390625,12.500196875,1.04150390625C12.500196875,1.04150390625,12.500196875,1.66650390625,12.500196875,1.66650390625C12.500196875,1.66650390625,12.500196875,1.66650390625,12.500196875,1.66650390625ZM1.545984175,3.07053390625C1.377931575,3.37204390625,1.486117475,3.75270390625,1.787622875,3.92075390625C2.0891298750000002,4.08880390625,2.469786875,3.98062390625,2.637836875,3.67911390625C2.637836875,3.67911390625,1.545984175,3.07053390625,1.545984175,3.07053390625C1.545984175,3.07053390625,1.545984175,3.07053390625,1.545984175,3.07053390625ZM10.000236875,12.29150390625C10.000236875,12.29150390625,10.833576875,12.29150390625,10.833576875,12.29150390625C10.833576875,12.29150390625,10.833576875,11.04150390625,10.833576875,11.04150390625C10.833576875,11.04150390625,10.000236875,11.04150390625,10.000236875,11.04150390625C10.000236875,11.04150390625,10.000236875,12.29150390625,10.000236875,12.29150390625C10.000236875,12.29150390625,10.000236875,12.29150390625,10.000236875,12.29150390625ZM10.833576875,12.29150390625C12.095396875,12.29150390625,13.125196875,11.26170390625,13.125196875,9.99983390625C13.125196875,9.99983390625,11.875196875,9.99983390625,11.875196875,9.99983390625C11.875196875,10.57133390625,11.405076875,11.04150390625,10.833576875,11.04150390625C10.833576875,11.04150390625,10.833576875,12.29150390625,10.833576875,12.29150390625C10.833576875,12.29150390625,10.833576875,12.29150390625,10.833576875,12.29150390625ZM13.125196875,9.99983390625C13.125196875,9.99983390625,13.125196875,1.66650390625,13.125196875,1.66650390625C13.125196875,1.66650390625,11.875196875,1.66650390625,11.875196875,1.66650390625C11.875196875,1.66650390625,11.875196875,9.99983390625,11.875196875,9.99983390625C11.875196875,9.99983390625,13.125196875,9.99983390625,13.125196875,9.99983390625C13.125196875,9.99983390625,13.125196875,9.99983390625,13.125196875,9.99983390625ZM12.500196875,1.04150390625C12.500196875,1.04150390625,5.000236875000001,1.04150390625,5.000236875000001,1.04150390625C5.000236875000001,1.04150390625,5.000236875000001,2.29150390625,5.000236875000001,2.29150390625C5.000236875000001,2.29150390625,12.500196875,2.29150390625,12.500196875,2.29150390625C12.500196875,2.29150390625,12.500196875,1.04150390625,12.500196875,1.04150390625C12.500196875,1.04150390625,12.500196875,1.04150390625,12.500196875,1.04150390625ZM5.000236875000001,1.04150390625C3.514686875,1.04150390625,2.218612875,1.86376590625,1.545984175,3.07053390625C1.545984175,3.07053390625,2.637836875,3.67911390625,2.637836875,3.67911390625C3.0985468750000003,2.85255390625,3.985786875,2.29150390625,5.000236875000001,2.29150390625C5.000236875000001,2.29150390625,5.000236875000001,1.04150390625,5.000236875000001,1.04150390625C5.000236875000001,1.04150390625,5.000236875000001,1.04150390625,5.000236875000001,1.04150390625Z" fill="#8A8A8E" fill-opacity="1"/></g><g><path d="M2.2919921875,14.16650390625C2.2919921875,13.82130390625,2.0121701874999998,13.54150390625,1.6669921875,13.54150390625C1.3218141875,13.54150390625,1.0419921875,13.82130390625,1.0419921875,14.16650390625C1.0419921875,14.16650390625,2.2919921875,14.16650390625,2.2919921875,14.16650390625C2.2919921875,14.16650390625,2.2919921875,14.16650390625,2.2919921875,14.16650390625ZM5.0003221875,16.66650390625C5.0003221875,16.66650390625,5.0003221875,17.29150390625,5.0003221875,17.29150390625C5.3455021875,17.29150390625,5.6253221875,17.01170390625,5.6253221875,16.66650390625C5.6253221875,16.66650390625,5.0003221875,16.66650390625,5.0003221875,16.66650390625C5.0003221875,16.66650390625,5.0003221875,16.66650390625,5.0003221875,16.66650390625ZM8.3336621875,16.66650390625C8.3336621875,16.66650390625,7.7086621875,16.66650390625,7.7086621875,16.66650390625C7.7086621875,17.01170390625,7.9884821875,17.29150390625,8.3336621875,17.29150390625C8.3336621875,17.29150390625,8.3336621875,16.66650390625,8.3336621875,16.66650390625C8.3336621875,16.66650390625,8.3336621875,16.66650390625,8.3336621875,16.66650390625ZM11.6669921875,16.66650390625C11.6669921875,16.66650390625,11.6669921875,17.29150390625,11.6669921875,17.29150390625C12.0121921875,17.29150390625,12.2919921875,17.01170390625,12.2919921875,16.66650390625C12.2919921875,16.66650390625,11.6669921875,16.66650390625,11.6669921875,16.66650390625C11.6669921875,16.66650390625,11.6669921875,16.66650390625,11.6669921875,16.66650390625ZM15.0002921875,16.66650390625C15.0002921875,16.66650390625,14.3752921875,16.66650390625,14.3752921875,16.66650390625C14.3752921875,17.01170390625,14.6551921875,17.29150390625,15.0002921875,17.29150390625C15.0002921875,17.29150390625,15.0002921875,16.66650390625,15.0002921875,16.66650390625C15.0002921875,16.66650390625,15.0002921875,16.66650390625,15.0002921875,16.66650390625ZM18.3336921875,11.66650390625C18.3336921875,11.66650390625,18.9586921875,11.66650390625,18.9586921875,11.66650390625C18.9586921875,11.32132390625,18.6787921875,11.04150390625,18.3336921875,11.04150390625C18.3336921875,11.04150390625,18.3336921875,11.66650390625,18.3336921875,11.66650390625C18.3336921875,11.66650390625,18.3336921875,11.66650390625,18.3336921875,11.66650390625ZM16.9086921875,7.49983390625C16.9086921875,7.49983390625,16.9086921875,8.12483390625,16.9086921875,8.12483390625C17.1314921875,8.12483390625,17.3374921875,8.006193906250001,17.4492921875,7.81344390625C17.5610921875,7.62069390625,17.5617921875,7.38299390625,17.4511921875,7.18956390625C17.4511921875,7.18956390625,16.9086921875,7.49983390625,16.9086921875,7.49983390625C16.9086921875,7.49983390625,16.9086921875,7.49983390625,16.9086921875,7.49983390625ZM15.4836921875,5.00818390625C15.4836921875,5.00818390625,16.026292187499998,4.69789390625,16.026292187499998,4.69789390625C16.026292187499998,4.69789390625,16.0241921875,4.69434390625,16.0241921875,4.69434390625C16.0241921875,4.69434390625,15.4836921875,5.00818390625,15.4836921875,5.00818390625C15.4836921875,5.00818390625,15.4836921875,5.00818390625,15.4836921875,5.00818390625ZM12.5002921875,4.16650390625C12.5002921875,4.16650390625,12.5002921875,3.54150390625,12.5002921875,3.54150390625C12.1551921875,3.54150390625,11.8752921875,3.8213259062500002,11.8752921875,4.16650390625C11.8752921875,4.16650390625,12.5002921875,4.16650390625,12.5002921875,4.16650390625C12.5002921875,4.16650390625,12.5002921875,4.16650390625,12.5002921875,4.16650390625ZM10.0003221875,11.04150390625C9.6551521875,11.04150390625,9.3753221875,11.32132390625,9.3753221875,11.66650390625C9.3753221875,12.01168390625,9.6551521875,12.29150390625,10.0003221875,12.29150390625C10.0003221875,12.29150390625,10.0003221875,11.04150390625,10.0003221875,11.04150390625C10.0003221875,11.04150390625,10.0003221875,11.04150390625,10.0003221875,11.04150390625ZM1.0419921875,14.16650390625C1.0419921875,15.89500390625,2.4384821875,17.29150390625,4.1669921875,17.29150390625C4.1669921875,17.29150390625,4.1669921875,16.04150390625,4.1669921875,16.04150390625C3.1288321875,16.04150390625,2.2919921875,15.20470390625,2.2919921875,14.16650390625C2.2919921875,14.16650390625,1.0419921875,14.16650390625,1.0419921875,14.16650390625C1.0419921875,14.16650390625,1.0419921875,14.16650390625,1.0419921875,14.16650390625ZM4.1669921875,17.29150390625C4.1669921875,17.29150390625,5.0003221875,17.29150390625,5.0003221875,17.29150390625C5.0003221875,17.29150390625,5.0003221875,16.04150390625,5.0003221875,16.04150390625C5.0003221875,16.04150390625,4.1669921875,16.04150390625,4.1669921875,16.04150390625C4.1669921875,16.04150390625,4.1669921875,17.29150390625,4.1669921875,17.29150390625C4.1669921875,17.29150390625,4.1669921875,17.29150390625,4.1669921875,17.29150390625ZM5.6253221875,16.66650390625C5.6253221875,16.09500390625,6.0955021875,15.62480390625,6.6669921875,15.62480390625C6.6669921875,15.62480390625,6.6669921875,14.37480390625,6.6669921875,14.37480390625C5.4051521875,14.37480390625,4.3753221875,15.40470390625,4.3753221875,16.66650390625C4.3753221875,16.66650390625,5.6253221875,16.66650390625,5.6253221875,16.66650390625C5.6253221875,16.66650390625,5.6253221875,16.66650390625,5.6253221875,16.66650390625ZM6.6669921875,15.62480390625C7.2384821875,15.62480390625,7.7086621875,16.09500390625,7.7086621875,16.66650390625C7.7086621875,16.66650390625,8.9586621875,16.66650390625,8.9586621875,16.66650390625C8.9586621875,15.40470390625,7.9288321875,14.37480390625,6.6669921875,14.37480390625C6.6669921875,14.37480390625,6.6669921875,15.62480390625,6.6669921875,15.62480390625C6.6669921875,15.62480390625,6.6669921875,15.62480390625,6.6669921875,15.62480390625ZM8.3336621875,17.29150390625C8.3336621875,17.29150390625,11.6669921875,17.29150390625,11.6669921875,17.29150390625C11.6669921875,17.29150390625,11.6669921875,16.04150390625,11.6669921875,16.04150390625C11.6669921875,16.04150390625,8.3336621875,16.04150390625,8.3336621875,16.04150390625C8.3336621875,16.04150390625,8.3336621875,17.29150390625,8.3336621875,17.29150390625C8.3336621875,17.29150390625,8.3336621875,17.29150390625,8.3336621875,17.29150390625ZM12.2919921875,16.66650390625C12.2919921875,16.09500390625,12.7621921875,15.62480390625,13.3336921875,15.62480390625C13.3336921875,15.62480390625,13.3336921875,14.37480390625,13.3336921875,14.37480390625C12.0717921875,14.37480390625,11.0419921875,15.40470390625,11.0419921875,16.66650390625C11.0419921875,16.66650390625,12.2919921875,16.66650390625,12.2919921875,16.66650390625C12.2919921875,16.66650390625,12.2919921875,16.66650390625,12.2919921875,16.66650390625ZM13.3336921875,15.62480390625C13.9051921875,15.62480390625,14.3752921875,16.09500390625,14.3752921875,16.66650390625C14.3752921875,16.66650390625,15.6252921875,16.66650390625,15.6252921875,16.66650390625C15.6252921875,15.40470390625,14.5954921875,14.37480390625,13.3336921875,14.37480390625C13.3336921875,14.37480390625,13.3336921875,15.62480390625,13.3336921875,15.62480390625C13.3336921875,15.62480390625,13.3336921875,15.62480390625,13.3336921875,15.62480390625ZM15.0002921875,17.29150390625C15.0002921875,17.29150390625,15.8336921875,17.29150390625,15.8336921875,17.29150390625C15.8336921875,17.29150390625,15.8336921875,16.04150390625,15.8336921875,16.04150390625C15.8336921875,16.04150390625,15.0002921875,16.04150390625,15.0002921875,16.04150390625C15.0002921875,16.04150390625,15.0002921875,17.29150390625,15.0002921875,17.29150390625C15.0002921875,17.29150390625,15.0002921875,17.29150390625,15.0002921875,17.29150390625ZM15.8336921875,17.29150390625C17.5621921875,17.29150390625,18.9586921875,15.89500390625,18.9586921875,14.16650390625C18.9586921875,14.16650390625,17.7086921875,14.16650390625,17.7086921875,14.16650390625C17.7086921875,15.20470390625,16.8717921875,16.04150390625,15.8336921875,16.04150390625C15.8336921875,16.04150390625,15.8336921875,17.29150390625,15.8336921875,17.29150390625C15.8336921875,17.29150390625,15.8336921875,17.29150390625,15.8336921875,17.29150390625ZM18.9586921875,14.16650390625C18.9586921875,14.16650390625,18.9586921875,11.66650390625,18.9586921875,11.66650390625C18.9586921875,11.66650390625,17.7086921875,11.66650390625,17.7086921875,11.66650390625C17.7086921875,11.66650390625,17.7086921875,14.16650390625,17.7086921875,14.16650390625C17.7086921875,14.16650390625,18.9586921875,14.16650390625,18.9586921875,14.16650390625C18.9586921875,14.16650390625,18.9586921875,14.16650390625,18.9586921875,14.16650390625ZM18.3336921875,11.04150390625C18.3336921875,11.04150390625,15.8336921875,11.04150390625,15.8336921875,11.04150390625C15.8336921875,11.04150390625,15.8336921875,12.29150390625,15.8336921875,12.29150390625C15.8336921875,12.29150390625,18.3336921875,12.29150390625,18.3336921875,12.29150390625C18.3336921875,12.29150390625,18.3336921875,11.04150390625,18.3336921875,11.04150390625C18.3336921875,11.04150390625,18.3336921875,11.04150390625,18.3336921875,11.04150390625ZM15.8336921875,11.04150390625C15.7204921875,11.04150390625,15.6252921875,10.94633390625,15.6252921875,10.83317390625C15.6252921875,10.83317390625,14.3752921875,10.83317390625,14.3752921875,10.83317390625C14.3752921875,11.63668390625,15.0301921875,12.29150390625,15.8336921875,12.29150390625C15.8336921875,12.29150390625,15.8336921875,11.04150390625,15.8336921875,11.04150390625C15.8336921875,11.04150390625,15.8336921875,11.04150390625,15.8336921875,11.04150390625ZM15.6252921875,10.83317390625C15.6252921875,10.83317390625,15.6252921875,8.33317390625,15.6252921875,8.33317390625C15.6252921875,8.33317390625,14.3752921875,8.33317390625,14.3752921875,8.33317390625C14.3752921875,8.33317390625,14.3752921875,10.83317390625,14.3752921875,10.83317390625C14.3752921875,10.83317390625,15.6252921875,10.83317390625,15.6252921875,10.83317390625C15.6252921875,10.83317390625,15.6252921875,10.83317390625,15.6252921875,10.83317390625ZM15.6252921875,8.33317390625C15.6252921875,8.22001390625,15.7204921875,8.12483390625,15.8336921875,8.12483390625C15.8336921875,8.12483390625,15.8336921875,6.87483390625,15.8336921875,6.87483390625C15.0301921875,6.87483390625,14.3752921875,7.529663906250001,14.3752921875,8.33317390625C14.3752921875,8.33317390625,15.6252921875,8.33317390625,15.6252921875,8.33317390625C15.6252921875,8.33317390625,15.6252921875,8.33317390625,15.6252921875,8.33317390625ZM15.8336921875,8.12483390625C15.8336921875,8.12483390625,16.9086921875,8.12483390625,16.9086921875,8.12483390625C16.9086921875,8.12483390625,16.9086921875,6.87483390625,16.9086921875,6.87483390625C16.9086921875,6.87483390625,15.8336921875,6.87483390625,15.8336921875,6.87483390625C15.8336921875,6.87483390625,15.8336921875,8.12483390625,15.8336921875,8.12483390625C15.8336921875,8.12483390625,15.8336921875,8.12483390625,15.8336921875,8.12483390625ZM17.4511921875,7.18956390625C17.4511921875,7.18956390625,16.026292187499998,4.69790390625,16.026292187499998,4.69790390625C16.026292187499998,4.69790390625,14.9411921875,5.31845390625,14.9411921875,5.31845390625C14.9411921875,5.31845390625,16.3660921875,7.81011390625,16.3660921875,7.81011390625C16.3660921875,7.81011390625,17.4511921875,7.18956390625,17.4511921875,7.18956390625C17.4511921875,7.18956390625,17.4511921875,7.18956390625,17.4511921875,7.18956390625ZM16.0241921875,4.69434390625C15.6150921875,3.98983390625,14.8618921875,3.54150390625,14.0336921875,3.54150390625C14.0336921875,3.54150390625,14.0336921875,4.79150390625,14.0336921875,4.79150390625C14.4054921875,4.79150390625,14.7522921875,4.99319390625,14.9431921875,5.32201390625C14.9431921875,5.32201390625,16.0241921875,4.69434390625,16.0241921875,4.69434390625C16.0241921875,4.69434390625,16.0241921875,4.69434390625,16.0241921875,4.69434390625ZM14.0336921875,3.54150390625C14.0336921875,3.54150390625,12.5002921875,3.54150390625,12.5002921875,3.54150390625C12.5002921875,3.54150390625,12.5002921875,4.79150390625,12.5002921875,4.79150390625C12.5002921875,4.79150390625,14.0336921875,4.79150390625,14.0336921875,4.79150390625C14.0336921875,4.79150390625,14.0336921875,3.54150390625,14.0336921875,3.54150390625C14.0336921875,3.54150390625,14.0336921875,3.54150390625,14.0336921875,3.54150390625ZM11.8752921875,4.16650390625C11.8752921875,4.16650390625,11.8752921875,9.99983390625,11.8752921875,9.99983390625C11.8752921875,9.99983390625,13.1252921875,9.99983390625,13.1252921875,9.99983390625C13.1252921875,9.99983390625,13.1252921875,4.16650390625,13.1252921875,4.16650390625C13.1252921875,4.16650390625,11.8752921875,4.16650390625,11.8752921875,4.16650390625C11.8752921875,4.16650390625,11.8752921875,4.16650390625,11.8752921875,4.16650390625ZM11.8752921875,9.99983390625C11.8752921875,10.57133390625,11.4051921875,11.04150390625,10.8336621875,11.04150390625C10.8336621875,11.04150390625,10.8336621875,12.29150390625,10.8336621875,12.29150390625C12.0954921875,12.29150390625,13.1252921875,11.26167390625,13.1252921875,9.99983390625C13.1252921875,9.99983390625,11.8752921875,9.99983390625,11.8752921875,9.99983390625C11.8752921875,9.99983390625,11.8752921875,9.99983390625,11.8752921875,9.99983390625ZM10.8336621875,11.04150390625C10.8336621875,11.04150390625,10.0003221875,11.04150390625,10.0003221875,11.04150390625C10.0003221875,11.04150390625,10.0003221875,12.29150390625,10.0003221875,12.29150390625C10.0003221875,12.29150390625,10.8336621875,12.29150390625,10.8336621875,12.29150390625C10.8336621875,12.29150390625,10.8336621875,11.04150390625,10.8336621875,11.04150390625C10.8336621875,11.04150390625,10.8336621875,11.04150390625,10.8336621875,11.04150390625Z" fill="#8A8A8E" fill-opacity="1"/></g><g><path d="M7.70833,16.66667C7.70833,17.24197,7.24197,17.70833,6.66667,17.70833C6.66667,17.70833,6.66667,18.95833,6.66667,18.95833C7.93232,18.95833,8.95833,17.93232,8.95833,16.66667C8.95833,16.66667,7.70833,16.66667,7.70833,16.66667C7.70833,16.66667,7.70833,16.66667,7.70833,16.66667ZM6.66667,17.70833C6.0913699999999995,17.70833,5.625,17.24197,5.625,16.66667C5.625,16.66667,4.375,16.66667,4.375,16.66667C4.375,17.93232,5.40101,18.95833,6.66667,18.95833C6.66667,18.95833,6.66667,17.70833,6.66667,17.70833C6.66667,17.70833,6.66667,17.70833,6.66667,17.70833ZM5.625,16.66667C5.625,16.09137,6.0913699999999995,15.625,6.66667,15.625C6.66667,15.625,6.66667,14.375,6.66667,14.375C5.40101,14.375,4.375,15.40101,4.375,16.66667C4.375,16.66667,5.625,16.66667,5.625,16.66667C5.625,16.66667,5.625,16.66667,5.625,16.66667ZM6.66667,15.625C7.24197,15.625,7.70833,16.09137,7.70833,16.66667C7.70833,16.66667,8.95833,16.66667,8.95833,16.66667C8.95833,15.40101,7.93232,14.375,6.66667,14.375C6.66667,14.375,6.66667,15.625,6.66667,15.625C6.66667,15.625,6.66667,15.625,6.66667,15.625Z" fill="#8A8A8E" fill-opacity="1"/></g><g><path d="M14.3753221875,16.66667C14.3753221875,17.24197,13.9089621875,17.70833,13.3336621875,17.70833C13.3336621875,17.70833,13.3336621875,18.95833,13.3336621875,18.95833C14.5993121875,18.95833,15.6253221875,17.93232,15.6253221875,16.66667C15.6253221875,16.66667,14.3753221875,16.66667,14.3753221875,16.66667C14.3753221875,16.66667,14.3753221875,16.66667,14.3753221875,16.66667ZM13.3336621875,17.70833C12.7583621875,17.70833,12.2919921875,17.24197,12.2919921875,16.66667C12.2919921875,16.66667,11.0419921875,16.66667,11.0419921875,16.66667C11.0419921875,17.93232,12.0680021875,18.95833,13.3336621875,18.95833C13.3336621875,18.95833,13.3336621875,17.70833,13.3336621875,17.70833C13.3336621875,17.70833,13.3336621875,17.70833,13.3336621875,17.70833ZM12.2919921875,16.66667C12.2919921875,16.09137,12.7583621875,15.625,13.3336621875,15.625C13.3336621875,15.625,13.3336621875,14.375,13.3336621875,14.375C12.0680021875,14.375,11.0419921875,15.40101,11.0419921875,16.66667C11.0419921875,16.66667,12.2919921875,16.66667,12.2919921875,16.66667C12.2919921875,16.66667,12.2919921875,16.66667,12.2919921875,16.66667ZM13.3336621875,15.625C13.9089621875,15.625,14.3753221875,16.09137,14.3753221875,16.66667C14.3753221875,16.66667,15.6253221875,16.66667,15.6253221875,16.66667C15.6253221875,15.40101,14.5993121875,14.375,13.3336621875,14.375C13.3336621875,14.375,13.3336621875,15.625,13.3336621875,15.625C13.3336621875,15.625,13.3336621875,15.625,13.3336621875,15.625Z" fill="#8A8A8E" fill-opacity="1"/></g><g><path d="M18.33333,10C18.33333,10,18.95833,10,18.95833,10C18.95833,9.89146,18.93007,9.784790000000001,18.87632,9.69049C18.87632,9.69049,18.33333,10,18.33333,10C18.33333,10,18.33333,10,18.33333,10ZM18.33333,11.66667C18.33333,11.66667,18.33333,12.29167,18.33333,12.29167C18.67851,12.29167,18.95833,12.01184,18.95833,11.66667C18.95833,11.66667,18.33333,11.66667,18.33333,11.66667C18.33333,11.66667,18.33333,11.66667,18.33333,11.66667ZM16.90832,7.5C16.90832,7.5,17.4513,7.190495,17.4513,7.190495C17.34012,6.995433,17.13284,6.875,16.90832,6.875C16.90832,6.875,16.90832,7.5,16.90832,7.5C16.90832,7.5,16.90832,7.5,16.90832,7.5ZM17.70833,10C17.70833,10,17.70833,11.66667,17.70833,11.66667C17.70833,11.66667,18.95833,11.66667,18.95833,11.66667C18.95833,11.66667,18.95833,10,18.95833,10C18.95833,10,17.70833,10,17.70833,10C17.70833,10,17.70833,10,17.70833,10ZM18.33333,11.04167C18.33333,11.04167,15.83333,11.04167,15.83333,11.04167C15.83333,11.04167,15.83333,12.29167,15.83333,12.29167C15.83333,12.29167,18.33333,12.29167,18.33333,12.29167C18.33333,12.29167,18.33333,11.04167,18.33333,11.04167C18.33333,11.04167,18.33333,11.04167,18.33333,11.04167ZM15.83333,11.04167C15.72018,11.04167,15.625,10.94649,15.625,10.83333C15.625,10.83333,14.375,10.83333,14.375,10.83333C14.375,11.63684,15.029822,12.29167,15.83333,12.29167C15.83333,12.29167,15.83333,11.04167,15.83333,11.04167C15.83333,11.04167,15.83333,11.04167,15.83333,11.04167ZM15.625,10.83333C15.625,10.83333,15.625,8.33333,15.625,8.33333C15.625,8.33333,14.375,8.33333,14.375,8.33333C14.375,8.33333,14.375,10.83333,14.375,10.83333C14.375,10.83333,15.625,10.83333,15.625,10.83333C15.625,10.83333,15.625,10.83333,15.625,10.83333ZM15.625,8.33333C15.625,8.22018,15.72018,8.125,15.83333,8.125C15.83333,8.125,15.83333,6.875,15.83333,6.875C15.029822,6.875,14.375,7.529822,14.375,8.33333C14.375,8.33333,15.625,8.33333,15.625,8.33333C15.625,8.33333,15.625,8.33333,15.625,8.33333ZM15.83333,8.125C15.83333,8.125,16.90832,8.125,16.90832,8.125C16.90832,8.125,16.90832,6.875,16.90832,6.875C16.90832,6.875,15.83333,6.875,15.83333,6.875C15.83333,6.875,15.83333,8.125,15.83333,8.125C15.83333,8.125,15.83333,8.125,15.83333,8.125ZM16.36533,7.809505C16.36533,7.809505,17.79035,10.30951,17.79035,10.30951C17.79035,10.30951,18.87632,9.69049,18.87632,9.69049C18.87632,9.69049,17.4513,7.190495,17.4513,7.190495C17.4513,7.190495,16.36533,7.809505,16.36533,7.809505C16.36533,7.809505,16.36533,7.809505,16.36533,7.809505Z" fill="#8A8A8E" fill-opacity="1"/></g><g><path d="M1.6669921875,6.04150390625C1.3218141875,6.04150390625,1.0419921875,6.32132590625,1.0419921875,6.66650390625C1.0419921875,7.01168190625,1.3218141875,7.29150390625,1.6669921875,7.29150390625C1.6669921875,7.29150390625,1.6669921875,6.04150390625,1.6669921875,6.04150390625C1.6669921875,6.04150390625,1.6669921875,6.04150390625,1.6669921875,6.04150390625ZM6.6669921875,7.29150390625C7.0121721875,7.29150390625,7.2919921875,7.01168190625,7.2919921875,6.66650390625C7.2919921875,6.32132590625,7.0121721875,6.04150390625,6.6669921875,6.04150390625C6.6669921875,6.04150390625,6.6669921875,7.29150390625,6.6669921875,7.29150390625C6.6669921875,7.29150390625,6.6669921875,7.29150390625,6.6669921875,7.29150390625ZM1.6669921875,7.29150390625C1.6669921875,7.29150390625,6.6669921875,7.29150390625,6.6669921875,7.29150390625C6.6669921875,7.29150390625,6.6669921875,6.04150390625,6.6669921875,6.04150390625C6.6669921875,6.04150390625,1.6669921875,6.04150390625,1.6669921875,6.04150390625C1.6669921875,6.04150390625,1.6669921875,7.29150390625,1.6669921875,7.29150390625C1.6669921875,7.29150390625,1.6669921875,7.29150390625,1.6669921875,7.29150390625Z" fill="#8A8A8E" fill-opacity="1"/></g><g><path d="M1.6669921875,8.54150390625C1.3218141875,8.54150390625,1.0419921875,8.82132590625,1.0419921875,9.16650390625C1.0419921875,9.51168190625,1.3218141875,9.79150390625,1.6669921875,9.79150390625C1.6669921875,9.79150390625,1.6669921875,8.54150390625,1.6669921875,8.54150390625C1.6669921875,8.54150390625,1.6669921875,8.54150390625,1.6669921875,8.54150390625ZM5.0003221875,9.79150390625C5.3455021875,9.79150390625,5.6253221875,9.51168190625,5.6253221875,9.16650390625C5.6253221875,8.82132590625,5.3455021875,8.54150390625,5.0003221875,8.54150390625C5.0003221875,8.54150390625,5.0003221875,9.79150390625,5.0003221875,9.79150390625C5.0003221875,9.79150390625,5.0003221875,9.79150390625,5.0003221875,9.79150390625ZM1.6669921875,9.79150390625C1.6669921875,9.79150390625,5.0003221875,9.79150390625,5.0003221875,9.79150390625C5.0003221875,9.79150390625,5.0003221875,8.54150390625,5.0003221875,8.54150390625C5.0003221875,8.54150390625,1.6669921875,8.54150390625,1.6669921875,8.54150390625C1.6669921875,8.54150390625,1.6669921875,9.79150390625,1.6669921875,9.79150390625C1.6669921875,9.79150390625,1.6669921875,9.79150390625,1.6669921875,9.79150390625Z" fill="#8A8A8E" fill-opacity="1"/></g><g><path d="M1.6669921875,11.04150390625C1.3218141875,11.04150390625,1.0419921875,11.32132590625,1.0419921875,11.66650390625C1.0419921875,12.01168190625,1.3218141875,12.29150390625,1.6669921875,12.29150390625C1.6669921875,12.29150390625,1.6669921875,11.04150390625,1.6669921875,11.04150390625C1.6669921875,11.04150390625,1.6669921875,11.04150390625,1.6669921875,11.04150390625ZM3.3336621875,12.29150390625C3.6788321875,12.29150390625,3.9586621875,12.01168190625,3.9586621875,11.66650390625C3.9586621875,11.32132590625,3.6788321875,11.04150390625,3.3336621875,11.04150390625C3.3336621875,11.04150390625,3.3336621875,12.29150390625,3.3336621875,12.29150390625C3.3336621875,12.29150390625,3.3336621875,12.29150390625,3.3336621875,12.29150390625ZM1.6669921875,12.29150390625C1.6669921875,12.29150390625,3.3336621875,12.29150390625,3.3336621875,12.29150390625C3.3336621875,12.29150390625,3.3336621875,11.04150390625,3.3336621875,11.04150390625C3.3336621875,11.04150390625,1.6669921875,11.04150390625,1.6669921875,11.04150390625C1.6669921875,11.04150390625,1.6669921875,12.29150390625,1.6669921875,12.29150390625C1.6669921875,12.29150390625,1.6669921875,12.29150390625,1.6669921875,12.29150390625Z" fill="#8A8A8E" fill-opacity="1"/></g><g style="opacity:0;"></g></g></g></g></svg>