<svg xmlns="http://www.w3.org/2000/svg" xmlns:xlink="http://www.w3.org/1999/xlink" fill="none" version="1.1" width="24" height="24" viewBox="0 0 24 24"><g style="mix-blend-mode:passthrough"><g style="mix-blend-mode:passthrough"><g style="mix-blend-mode:passthrough"><path d="M12.46876111328125,19.073640625C12.46876111328125,19.073640625,12.46876111328125,19.596040625,12.46876111328125,19.596040625C12.75767111328125,19.596040625,12.99189111328125,19.362240625,12.99189111328125,19.073640625C12.99189111328125,19.073640625,12.46876111328125,19.073640625,12.46876111328125,19.073640625C12.46876111328125,19.073640625,12.46876111328125,19.073640625,12.46876111328125,19.073640625ZM8.15120111328125,5.455368625C8.15120111328125,5.455368625,8.38176111328125,4.986404625,8.38176111328125,4.986404625C8.38176111328125,4.986404625,8.38121111328125,4.986135625,8.38121111328125,4.986135625C8.38121111328125,4.986135625,8.15120111328125,5.455368625,8.15120111328125,5.455368625C8.15120111328125,5.455368625,8.15120111328125,5.455368625,8.15120111328125,5.455368625ZM11.24812111328125,6.9739306249999995C11.24812111328125,6.9739306249999995,11.01756111328125,7.442900625,11.01756111328125,7.442900625C11.01756111328125,7.442900625,11.018091113281251,7.4431506249999995,11.018091113281251,7.4431506249999995C11.018091113281251,7.4431506249999995,11.24812111328125,6.9739306249999995,11.24812111328125,6.9739306249999995C11.24812111328125,6.9739306249999995,11.24812111328125,6.9739306249999995,11.24812111328125,6.9739306249999995ZM12.46876111328125,18.551240625C12.46876111328125,18.551240625,6.59576111328125,18.551240625,6.59576111328125,18.551240625C6.59576111328125,18.551240625,6.59576111328125,19.596040625,6.59576111328125,19.596040625C6.59576111328125,19.596040625,12.46876111328125,19.596040625,12.46876111328125,19.596040625C12.46876111328125,19.596040625,12.46876111328125,18.551240625,12.46876111328125,18.551240625C12.46876111328125,18.551240625,12.46876111328125,18.551240625,12.46876111328125,18.551240625ZM6.59576111328125,18.551240625C6.06575111328125,18.551240625,5.64715111328125,18.127640624999998,5.64715111328125,17.631740625C5.64715111328125,17.631740625,4.60089111328125,17.631740625,4.60089111328125,17.631740625C4.60089111328125,18.724140625,5.50755011328125,19.596040625,6.59576111328125,19.596040625C6.59576111328125,19.596040625,6.59576111328125,18.551240625,6.59576111328125,18.551240625C6.59576111328125,18.551240625,6.59576111328125,18.551240625,6.59576111328125,18.551240625ZM5.64715111328125,17.631740625C5.64715111328125,17.631740625,5.64715111328125,7.2943606249999995,5.64715111328125,7.2943606249999995C5.64715111328125,7.2943606249999995,4.60089111328125,7.2943606249999995,4.60089111328125,7.2943606249999995C4.60089111328125,7.2943606249999995,4.60089111328125,17.631740625,4.60089111328125,17.631740625C4.60089111328125,17.631740625,5.64715111328125,17.631740625,5.64715111328125,17.631740625C5.64715111328125,17.631740625,5.64715111328125,17.631740625,5.64715111328125,17.631740625ZM5.64715111328125,7.2943606249999995C5.64715111328125,6.507450625,5.93505111328125,6.043590625,6.28454111328125,5.831070625C6.636581113281251,5.616985625,7.19562111328125,5.569874625,7.92119111328125,5.924600625C7.92119111328125,5.924600625,8.38121111328125,4.986135625,8.38121111328125,4.986135625C7.439731113281249,4.525852725,6.48518111328125,4.485708625,5.74040111328125,4.938610625C4.99305611328125,5.3930736249999995,4.60089111328125,6.256220625,4.60089111328125,7.2943606249999995C4.60089111328125,7.2943606249999995,5.64715111328125,7.2943606249999995,5.64715111328125,7.2943606249999995C5.64715111328125,7.2943606249999995,5.64715111328125,7.2943606249999995,5.64715111328125,7.2943606249999995ZM7.92064111328125,5.924330625C7.92064111328125,5.924330625,11.01756111328125,7.442900625,11.01756111328125,7.442900625C11.01756111328125,7.442900625,11.47869111328125,6.504970625,11.47869111328125,6.504970625C11.47869111328125,6.504970625,8.38176111328125,4.986404625,8.38176111328125,4.986404625C8.38176111328125,4.986404625,7.92064111328125,5.924330625,7.92064111328125,5.924330625C7.92064111328125,5.924330625,7.92064111328125,5.924330625,7.92064111328125,5.924330625ZM11.018091113281251,7.4431506249999995C11.24663111328125,7.5548906250000005,11.48464111328125,7.777710625,11.666991113281249,8.066640625C11.84953111328125,8.355890625,11.94563111328125,8.662740625,11.94563111328125,8.910450625C11.94563111328125,8.910450625,12.99189111328125,8.910450625,12.99189111328125,8.910450625C12.99189111328125,8.419780625,12.81249111328125,7.922070625,12.55211111328125,7.509500624999999C12.29153111328125,7.096610625,11.91923111328125,6.720370625,11.47816111328125,6.5047106249999995C11.47816111328125,6.5047106249999995,11.018091113281251,7.4431506249999995,11.018091113281251,7.4431506249999995C11.018091113281251,7.4431506249999995,11.018091113281251,7.4431506249999995,11.018091113281251,7.4431506249999995ZM11.94563111328125,8.910450625C11.94563111328125,8.910450625,11.94563111328125,19.073640625,11.94563111328125,19.073640625C11.94563111328125,19.073640625,12.99189111328125,19.073640625,12.99189111328125,19.073640625C12.99189111328125,19.073640625,12.99189111328125,8.910450625,12.99189111328125,8.910450625C12.99189111328125,8.910450625,11.94563111328125,8.910450625,11.94563111328125,8.910450625C11.94563111328125,8.910450625,11.94563111328125,8.910450625,11.94563111328125,8.910450625Z" fill="#121212" fill-opacity="1"/></g><g style="mix-blend-mode:passthrough"><path d="M12.46874767578125,19.0739353515625C12.46874767578125,19.0739353515625,11.94561767578125,19.0739353515625,11.94561767578125,19.0739353515625C11.94561767578125,19.362455351562502,12.17983067578125,19.5963753515625,12.46874767578125,19.5963753515625C12.46874767578125,19.5963753515625,12.46874767578125,19.0739353515625,12.46874767578125,19.0739353515625C12.46874767578125,19.0739353515625,12.46874767578125,19.0739353515625,12.46874767578125,19.0739353515625ZM12.46874767578125,11.0074313515625C12.46874767578125,11.0074313515625,12.57761467578125,10.4964286515625,12.57761467578125,10.4964286515625C12.42322267578125,10.4636220515625,12.26225267578125,10.5021907515625,12.13957167578125,10.6013853515625C12.01689097578125,10.7005793515625,11.94561767578125,10.8497913515625,11.94561767578125,11.0074313515625C11.94561767578125,11.0074313515625,12.46874767578125,11.0074313515625,12.46874767578125,11.0074313515625C12.46874767578125,11.0074313515625,12.46874767578125,11.0074313515625,12.46874767578125,11.0074313515625ZM12.79657567578125,11.0770903515625C12.79657567578125,11.0770903515625,12.91114667578125,10.5672995515625,12.91114667578125,10.5672995515625C12.91114667578125,10.5672995515625,12.90544267578125,10.5660875515625,12.90544267578125,10.5660875515625C12.90544267578125,10.5660875515625,12.79657567578125,11.0770903515625,12.79657567578125,11.0770903515625C12.79657567578125,11.0770903515625,12.79657567578125,11.0770903515625,12.79657567578125,11.0770903515625ZM15.93535767578125,11.7806453515625C15.93535767578125,11.7806453515625,15.82078767578125,12.2904053515625,15.82078767578125,12.2904053515625C15.82078767578125,12.2904053515625,15.82213767578125,12.2907053515625,15.82213767578125,12.2907053515625C15.82213767578125,12.2907053515625,15.93535767578125,11.7806453515625,15.93535767578125,11.7806453515625C15.93535767578125,11.7806453515625,15.93535767578125,11.7806453515625,15.93535767578125,11.7806453515625ZM17.35128767578125,12.0941153515625C17.35128767578125,12.0941153515625,17.23806767578125,12.6041753515625,17.23806767578125,12.6041753515625C17.23806767578125,12.6041753515625,17.23903767578125,12.6043853515625,17.23903767578125,12.6043853515625C17.23903767578125,12.6043853515625,17.35128767578125,12.0941153515625,17.35128767578125,12.0941153515625C17.35128767578125,12.0941153515625,17.35128767578125,12.0941153515625,17.35128767578125,12.0941153515625ZM19.06715767578125,14.1072553515625C19.06715767578125,14.1072553515625,18.54428767578125,14.1235753515625,18.54428767578125,14.1235753515625C18.54500767578125,14.1468853515625,18.547307675781248,14.1701353515625,18.55113767578125,14.1931453515625C18.55113767578125,14.1931453515625,19.06715767578125,14.1072553515625,19.06715767578125,14.1072553515625C19.06715767578125,14.1072553515625,19.06715767578125,14.1072553515625,19.06715767578125,14.1072553515625ZM18.55099767578125,14.2396053515625C18.55099767578125,14.2396053515625,18.55099767578125,16.8727153515625,18.55099767578125,16.8727153515625C18.55099767578125,16.8727153515625,19.59725767578125,16.8727153515625,19.59725767578125,16.8727153515625C19.59725767578125,16.8727153515625,19.59725767578125,14.2396053515625,19.59725767578125,14.2396053515625C19.59725767578125,14.2396053515625,18.55099767578125,14.2396053515625,18.55099767578125,14.2396053515625C18.55099767578125,14.2396053515625,18.55099767578125,14.2396053515625,18.55099767578125,14.2396053515625ZM18.55099767578125,16.8727153515625C18.55099767578125,17.5546253515625,18.39221767578125,17.943355351562502,18.16714767578125,18.1681553515625C17.94206767578125,18.392875351562502,17.55281767578125,18.551485351562498,16.87000767578125,18.551485351562498C16.87000767578125,18.551485351562498,16.87000767578125,19.5963753515625,16.87000767578125,19.5963753515625C17.69381767578125,19.5963753515625,18.40662767578125,19.406695351562497,18.90695767578125,18.9069553515625C19.40729767578125,18.4072953515625,19.59725767578125,17.6954253515625,19.59725767578125,16.8727153515625C19.59725767578125,16.8727153515625,18.55099767578125,16.8727153515625,18.55099767578125,16.8727153515625C18.55099767578125,16.8727153515625,18.55099767578125,16.8727153515625,18.55099767578125,16.8727153515625ZM16.87000767578125,18.551485351562498C16.87000767578125,18.551485351562498,12.46874767578125,18.551485351562498,12.46874767578125,18.551485351562498C12.46874767578125,18.551485351562498,12.46874767578125,19.5963753515625,12.46874767578125,19.5963753515625C12.46874767578125,19.5963753515625,16.87000767578125,19.5963753515625,16.87000767578125,19.5963753515625C16.87000767578125,19.5963753515625,16.87000767578125,18.551485351562498,16.87000767578125,18.551485351562498C16.87000767578125,18.551485351562498,16.87000767578125,18.551485351562498,16.87000767578125,18.551485351562498ZM12.99187767578125,19.0739353515625C12.99187767578125,19.0739353515625,12.99187767578125,11.0074313515625,12.99187767578125,11.0074313515625C12.99187767578125,11.0074313515625,11.94561767578125,11.0074313515625,11.94561767578125,11.0074313515625C11.94561767578125,11.0074313515625,11.94561767578125,19.0739353515625,11.94561767578125,19.0739353515625C11.94561767578125,19.0739353515625,12.99187767578125,19.0739353515625,12.99187767578125,19.0739353515625C12.99187767578125,19.0739353515625,12.99187767578125,19.0739353515625,12.99187767578125,19.0739353515625ZM12.35987967578125,11.5184353515625C12.35987967578125,11.5184353515625,12.68770767578125,11.588095351562501,12.68770767578125,11.588095351562501C12.68770767578125,11.588095351562501,12.90544267578125,10.5660875515625,12.90544267578125,10.5660875515625C12.90544267578125,10.5660875515625,12.57761467578125,10.4964286515625,12.57761467578125,10.4964286515625C12.57761467578125,10.4964286515625,12.35987967578125,11.5184353515625,12.35987967578125,11.5184353515625C12.35987967578125,11.5184353515625,12.35987967578125,11.5184353515625,12.35987967578125,11.5184353515625ZM12.68201167578125,11.5868553515625C12.68201167578125,11.5868553515625,15.82078767578125,12.2904053515625,15.82078767578125,12.2904053515625C15.82078767578125,12.2904053515625,16.049917675781252,11.2708853515625,16.049917675781252,11.2708853515625C16.049917675781252,11.2708853515625,12.91113867578125,10.5673309515625,12.91113867578125,10.5673309515625C12.91113867578125,10.5673309515625,12.68201167578125,11.5868553515625,12.68201167578125,11.5868553515625C12.68201167578125,11.5868553515625,12.68201167578125,11.5868553515625,12.68201167578125,11.5868553515625ZM15.82213767578125,12.2907053515625C15.82213767578125,12.2907053515625,17.23806767578125,12.6041653515625,17.23806767578125,12.6041653515625C17.23806767578125,12.6041653515625,17.46450767578125,11.5840453515625,17.46450767578125,11.5840453515625C17.46450767578125,11.5840453515625,16.04857767578125,11.2705853515625,16.04857767578125,11.2705853515625C16.04857767578125,11.2705853515625,15.82213767578125,12.2907053515625,15.82213767578125,12.2907053515625C15.82213767578125,12.2907053515625,15.82213767578125,12.2907053515625,15.82213767578125,12.2907053515625ZM17.23903767578125,12.6043853515625C17.65288767578125,12.6951853515625,17.95942767578125,12.8333653515625,18.16732767578125,13.0427553515625C18.36347767578125,13.2402953515625,18.526547675781252,13.5567153515625,18.54428767578125,14.1235753515625C18.54428767578125,14.1235753515625,19.59000767578125,14.0909353515625,19.59000767578125,14.0909353515625C19.56594767578125,13.3203353515625,19.33140767578125,12.7311853515625,18.91025767578125,12.3070253515625C18.50086767578125,11.8947153515625,17.97040767578125,11.6950453515625,17.46353767578125,11.5838353515625C17.46353767578125,11.5838353515625,17.23903767578125,12.6043853515625,17.23903767578125,12.6043853515625C17.23903767578125,12.6043853515625,17.23903767578125,12.6043853515625,17.23903767578125,12.6043853515625ZM18.55113767578125,14.1931453515625C18.54998767578125,14.1861653515625,18.55023767578125,14.1841453515625,18.55054767578125,14.191695351562501C18.55069767578125,14.1955353515625,18.55083767578125,14.2009953515625,18.55091767578125,14.209205351562499C18.55099767578125,14.2177153515625,18.55099767578125,14.2269253515625,18.55099767578125,14.2396053515625C18.55099767578125,14.2396053515625,19.59725767578125,14.2396053515625,19.59725767578125,14.2396053515625C19.59725767578125,14.199485351562501,19.59851767578125,14.1133453515625,19.58316767578125,14.0213653515625C19.58316767578125,14.0213653515625,18.55113767578125,14.1931453515625,18.55113767578125,14.1931453515625C18.55113767578125,14.1931453515625,18.55113767578125,14.1931453515625,18.55113767578125,14.1931453515625Z" fill="#121212" fill-opacity="1"/></g><g style="mix-blend-mode:passthrough"><path d="M7.58642345703125,9.495849609375C7.2975064570312504,9.495849609375,7.06329345703125,9.729754609375,7.06329345703125,10.018291609375C7.06329345703125,10.306827609375,7.2975064570312504,10.540729609375,7.58642345703125,10.540729609375C7.58642345703125,10.540729609375,7.58642345703125,9.495849609375,7.58642345703125,9.495849609375C7.58642345703125,9.495849609375,7.58642345703125,9.495849609375,7.58642345703125,9.495849609375ZM10.006773457031251,10.540729609375C10.29568345703125,10.540729609375,10.52990345703125,10.306827609375,10.52990345703125,10.018291609375C10.52990345703125,9.729754609375,10.29568345703125,9.495849609375,10.006773457031251,9.495849609375C10.006773457031251,9.495849609375,10.006773457031251,10.540729609375,10.006773457031251,10.540729609375C10.006773457031251,10.540729609375,10.006773457031251,10.540729609375,10.006773457031251,10.540729609375ZM7.58642345703125,10.540729609375C7.58642345703125,10.540729609375,10.006773457031251,10.540729609375,10.006773457031251,10.540729609375C10.006773457031251,10.540729609375,10.006773457031251,9.495849609375,10.006773457031251,9.495849609375C10.006773457031251,9.495849609375,7.58642345703125,9.495849609375,7.58642345703125,9.495849609375C7.58642345703125,9.495849609375,7.58642345703125,10.540729609375,7.58642345703125,10.540729609375C7.58642345703125,10.540729609375,7.58642345703125,10.540729609375,7.58642345703125,10.540729609375Z" fill="#121212" fill-opacity="1"/></g><g style="mix-blend-mode:passthrough"><path d="M7.58642345703125,12.2823486328125C7.2975064570312504,12.2823486328125,7.06329345703125,12.5162536328125,7.06329345703125,12.8047906328125C7.06329345703125,13.0933266328125,7.2975064570312504,13.3272286328125,7.58642345703125,13.3272286328125C7.58642345703125,13.3272286328125,7.58642345703125,12.2823486328125,7.58642345703125,12.2823486328125C7.58642345703125,12.2823486328125,7.58642345703125,12.2823486328125,7.58642345703125,12.2823486328125ZM10.006773457031251,13.3272286328125C10.29568345703125,13.3272286328125,10.52990345703125,13.0933266328125,10.52990345703125,12.8047906328125C10.52990345703125,12.5162536328125,10.29568345703125,12.2823486328125,10.006773457031251,12.2823486328125C10.006773457031251,12.2823486328125,10.006773457031251,13.3272286328125,10.006773457031251,13.3272286328125C10.006773457031251,13.3272286328125,10.006773457031251,13.3272286328125,10.006773457031251,13.3272286328125ZM7.58642345703125,13.3272286328125C7.58642345703125,13.3272286328125,10.006773457031251,13.3272286328125,10.006773457031251,13.3272286328125C10.006773457031251,13.3272286328125,10.006773457031251,12.2823486328125,10.006773457031251,12.2823486328125C10.006773457031251,12.2823486328125,7.58642345703125,12.2823486328125,7.58642345703125,12.2823486328125C7.58642345703125,12.2823486328125,7.58642345703125,13.3272286328125,7.58642345703125,13.3272286328125C7.58642345703125,13.3272286328125,7.58642345703125,13.3272286328125,7.58642345703125,13.3272286328125Z" fill="#121212" fill-opacity="1"/></g><g style="mix-blend-mode:passthrough"><path d="M15.93583578125,11.780565429687499C15.93583578125,11.780565429687499,16.45896578125,11.780565429687499,16.45896578125,11.780565429687499C16.45896578125,11.536112429687499,16.28923578125,11.3243404296875,16.05039578125,11.2708064296875C16.05039578125,11.2708064296875,15.93583578125,11.780565429687499,15.93583578125,11.780565429687499C15.93583578125,11.780565429687499,15.93583578125,11.780565429687499,15.93583578125,11.780565429687499ZM12.79705578125,11.0770114296875C12.79705578125,11.0770114296875,12.91161878125,10.5672522296875,12.91161878125,10.5672522296875C12.75660578125,10.5325056296875,12.59418078125,10.5699925296875,12.47015078125,10.6691394296875C12.34612048125,10.7682874296875,12.27392578125,10.9183514296875,12.27392578125,11.0770114296875C12.27392578125,11.0770114296875,12.79705578125,11.0770114296875,12.79705578125,11.0770114296875C12.79705578125,11.0770114296875,12.79705578125,11.0770114296875,12.79705578125,11.0770114296875ZM15.41270578125,11.780565429687499C15.41270578125,11.780565429687499,15.41270578125,14.0235854296875,15.41270578125,14.0235854296875C15.41270578125,14.0235854296875,16.45896578125,14.0235854296875,16.45896578125,14.0235854296875C16.45896578125,14.0235854296875,16.45896578125,11.780565429687499,16.45896578125,11.780565429687499C16.45896578125,11.780565429687499,15.41270578125,11.780565429687499,15.41270578125,11.780565429687499C15.41270578125,11.780565429687499,15.41270578125,11.780565429687499,15.41270578125,11.780565429687499ZM15.41270578125,14.0235854296875C15.41270578125,14.5988154296875,14.94243578125,15.0684654296875,14.36644578125,15.0684654296875C14.36644578125,15.0684654296875,14.36644578125,16.1133454296875,14.36644578125,16.1133454296875C15.52026578125,16.1133454296875,16.45896578125,15.1758854296875,16.45896578125,14.0235854296875C16.45896578125,14.0235854296875,15.41270578125,14.0235854296875,15.41270578125,14.0235854296875C15.41270578125,14.0235854296875,15.41270578125,14.0235854296875,15.41270578125,14.0235854296875ZM14.36644578125,15.0684654296875C13.79045578125,15.0684654296875,13.32018578125,14.5988154296875,13.32018578125,14.0235854296875C13.32018578125,14.0235854296875,12.27392578125,14.0235854296875,12.27392578125,14.0235854296875C12.27392578125,15.1758854296875,13.21261978125,16.1133454296875,14.36644578125,16.1133454296875C14.36644578125,16.1133454296875,14.36644578125,15.0684654296875,14.36644578125,15.0684654296875C14.36644578125,15.0684654296875,14.36644578125,15.0684654296875,14.36644578125,15.0684654296875ZM13.32018578125,14.0235854296875C13.32018578125,14.0235854296875,13.32018578125,11.0770114296875,13.32018578125,11.0770114296875C13.32018578125,11.0770114296875,12.27392578125,11.0770114296875,12.27392578125,11.0770114296875C12.27392578125,11.0770114296875,12.27392578125,14.0235854296875,12.27392578125,14.0235854296875C12.27392578125,14.0235854296875,13.32018578125,14.0235854296875,13.32018578125,14.0235854296875C13.32018578125,14.0235854296875,13.32018578125,14.0235854296875,13.32018578125,14.0235854296875ZM12.68249178125,11.5867754296875C12.68249178125,11.5867754296875,15.82126578125,12.290325429687499,15.82126578125,12.290325429687499C15.82126578125,12.290325429687499,16.05039578125,11.2708064296875,16.05039578125,11.2708064296875C16.05039578125,11.2708064296875,12.91161878125,10.5672522296875,12.91161878125,10.5672522296875C12.91161878125,10.5672522296875,12.68249178125,11.5867754296875,12.68249178125,11.5867754296875C12.68249178125,11.5867754296875,12.68249178125,11.5867754296875,12.68249178125,11.5867754296875Z" fill="#121212" fill-opacity="1"/></g><g style="mix-blend-mode:passthrough"><path d="M19.06746662109375,14.10735078125C19.06746662109375,14.10735078125,19.58992662109375,14.133890781249999,19.58992662109375,14.133890781249999C19.59064662109375,14.11961078125,19.59078662109375,14.10532078125,19.59033662109375,14.09103078125C19.59033662109375,14.09103078125,19.06746662109375,14.10735078125,19.06746662109375,14.10735078125C19.06746662109375,14.10735078125,19.06746662109375,14.10735078125,19.06746662109375,14.10735078125ZM15.93566662109375,11.78074678125C15.93566662109375,11.78074678125,16.04888262109375,11.27068738125,16.04888262109375,11.27068738125C15.89401462109375,11.23640198125,15.73193362109375,11.27414658125,15.60822362109375,11.37330578125C15.48451302109375,11.47246578125,15.41253662109375,11.62232778125,15.41253662109375,11.78074678125C15.41253662109375,11.78074678125,15.93566662109375,11.78074678125,15.93566662109375,11.78074678125C15.93566662109375,11.78074678125,15.93566662109375,11.78074678125,15.93566662109375,11.78074678125ZM17.35160662109375,12.09421178125C17.35160662109375,12.09421178125,17.23838662109375,12.60427078125,17.23838662109375,12.60427078125C17.23838662109375,12.60427078125,17.23935662109375,12.60448078125,17.23935662109375,12.60448078125C17.23935662109375,12.60448078125,17.35160662109375,12.09421178125,17.35160662109375,12.09421178125C17.35160662109375,12.09421178125,17.35160662109375,12.09421178125,17.35160662109375,12.09421178125ZM18.54501662109375,14.08082078125C18.51715662109375,14.62799078125,18.06041662109375,15.06865078125,17.50505662109375,15.06865078125C17.50505662109375,15.06865078125,17.50505662109375,16.11353078125,17.50505662109375,16.11353078125C18.62371662109375,16.11353078125,19.53407662109375,15.23066078125,19.58992662109375,14.133890781249999C19.58992662109375,14.133890781249999,18.54501662109375,14.08082078125,18.54501662109375,14.08082078125C18.54501662109375,14.08082078125,18.54501662109375,14.08082078125,18.54501662109375,14.08082078125ZM17.50505662109375,15.06865078125C16.92906662109375,15.06865078125,16.45879662109375,14.59900078125,16.45879662109375,14.023760781250001C16.45879662109375,14.023760781250001,15.41253662109375,14.023760781250001,15.41253662109375,14.023760781250001C15.41253662109375,15.17607078125,16.35123062109375,16.11353078125,17.50505662109375,16.11353078125C17.50505662109375,16.11353078125,17.50505662109375,15.06865078125,17.50505662109375,15.06865078125C17.50505662109375,15.06865078125,17.50505662109375,15.06865078125,17.50505662109375,15.06865078125ZM16.45879662109375,14.023760781250001C16.45879662109375,14.023760781250001,16.45879662109375,11.78074678125,16.45879662109375,11.78074678125C16.45879662109375,11.78074678125,15.41253662109375,11.78074678125,15.41253662109375,11.78074678125C15.41253662109375,11.78074678125,15.41253662109375,14.023760781250001,15.41253662109375,14.023760781250001C15.41253662109375,14.023760781250001,16.45879662109375,14.023760781250001,16.45879662109375,14.023760781250001C16.45879662109375,14.023760781250001,16.45879662109375,14.023760781250001,16.45879662109375,14.023760781250001ZM15.82244962109375,12.29081078125C15.82244962109375,12.29081078125,17.23838662109375,12.60427078125,17.23838662109375,12.60427078125C17.23838662109375,12.60427078125,17.46482662109375,11.58415278125,17.46482662109375,11.58415278125C17.46482662109375,11.58415278125,16.04888262109375,11.27068738125,16.04888262109375,11.27068738125C16.04888262109375,11.27068738125,15.82244962109375,12.29081078125,15.82244962109375,12.29081078125C15.82244962109375,12.29081078125,15.82244962109375,12.29081078125,15.82244962109375,12.29081078125ZM17.23935662109375,12.60448078125C17.65319662109375,12.69528078125,17.95974662109375,12.83347078125,18.167646621093752,13.04285078125C18.36378662109375,13.240400781249999,18.52685662109375,13.55682078125,18.54459662109375,14.12367078125C18.54459662109375,14.12367078125,19.59033662109375,14.09103078125,19.59033662109375,14.09103078125C19.56622662109375,13.32044078125,19.33171662109375,12.73129078125,18.91057662109375,12.30713078125C18.501176621093748,11.89481278125,17.97071662109375,11.69514978125,17.46385662109375,11.58393978125C17.46385662109375,11.58393978125,17.23935662109375,12.60448078125,17.23935662109375,12.60448078125C17.23935662109375,12.60448078125,17.23935662109375,12.60448078125,17.23935662109375,12.60448078125Z" fill="#121212" fill-opacity="1"/></g><g style="opacity:0;mix-blend-mode:passthrough"></g></g></g></svg>