<svg xmlns="http://www.w3.org/2000/svg" xmlns:xlink="http://www.w3.org/1999/xlink" fill="none" version="1.1" width="24" height="24" viewBox="0 0 24 24"><g style="mix-blend-mode:passthrough"><g style="mix-blend-mode:passthrough"><path d="M9.3645,5Q7.86404,5,6.92671,6.17166L5.684101,7.72492Q5,8.58005,5,9.67515L5,15.8781Q5,17.171300000000002,5.9143799999999995,18.0856Q6.82874,19,8.12188,19L15.8781,19Q17.171300000000002,19,18.0856,18.0856Q19,17.171300000000002,19,15.8781L19,9.67515Q19,8.58007,18.3159,7.72492L17.0733,6.17166Q16.1359,5,14.6355,5L9.3645,5ZM9.3645,5.0517082C8.43182,5.0517587,7.54971,5.475719,6.96709,6.20396C7.549720000000001,5.475668,8.43183,5.0517082,9.3645,5.0517082ZM14.6355,5.0517082C15.5682,5.0517587,16.4503,5.475718,17.032899999999998,6.20396C16.4503,5.475668,15.5682,5.0517082,14.6355,5.0517082ZM18.2755,7.75722C18.711,8.30166,18.9483,8.97805,18.9483,9.67515C18.9483,8.978,18.711,8.30161,18.2755,7.75722ZM6.65268,8.23176L17.3473,8.23176L16.2354,6.84192Q15.6203,6.0729500000000005,14.6355,6.0729500000000005L9.3645,6.0729500000000005Q8.379719999999999,6.07294,7.76455,6.84192L6.65268,8.23176ZM17.9788,15.8781C17.9788,17.0383,17.0383,17.9788,15.8781,17.9788C17.0382,17.9788,17.9787,17.0383,17.9788,15.8781ZM17.8923,9.299489999999999Q17.8552,9.30471,17.8172,9.30471L6.18283,9.30471Q6.14484,9.30471,6.10767,9.299489999999999Q6.0729500000000005,9.485479999999999,6.0729500000000005,9.67515L6.0729500000000005,15.8781Q6.07294,16.7268,6.6730599999999995,17.326900000000002Q7.27318,17.9271,8.12188,17.9271L15.8781,17.9271Q16.7268,17.9271,17.326900000000002,17.326900000000002Q17.9271,16.7268,17.9271,15.8781L17.9271,9.67515Q17.9271,9.485479999999999,17.8923,9.299489999999999ZM14.47433,11.96432Q14.45955,11.7426,14.29232,11.59627Q14.12508,11.44994,13.90336,11.46472Q13.68163,11.4795,13.53531,11.646740000000001L11.680340000000001,13.7667Q11.6111,13.84583,11.529,13.78015L10.39606,12.8738Q10.22254,12.73498,10.00168,12.75952Q9.78083,12.78406,9.642009999999999,12.95758Q9.5032,13.1311,9.52774,13.35196Q9.55228,13.57281,9.7258,13.71163L10.858740000000001,14.61798Q11.22945,14.91454,11.70232,14.87253Q12.17519,14.83051,12.48781,14.47324L14.34278,12.35328Q14.48911,12.18604,14.47433,11.96432ZM14.25827,11.63518C14.05678,11.45888,13.75052,11.4793,13.57422,11.68079C13.75051,11.47935,14.05676,11.458929999999999,14.25827,11.63518ZM10.36376,12.91418C10.1547,12.74692,9.84964,12.78082,9.68239,12.98988C9.849630000000001,12.78087,10.154679999999999,12.74698,10.36376,12.91418ZM11.4967,13.82053C11.56421,13.8746,11.662289999999999,13.86588,11.719249999999999,13.80075C11.66231,13.86583,11.564219999999999,13.87455,11.4967,13.82053Z" fill-rule="evenodd" fill="#000000" fill-opacity="1"/></g></g></svg>