<svg xmlns="http://www.w3.org/2000/svg" xmlns:xlink="http://www.w3.org/1999/xlink" fill="none" version="1.1" width="24.000001907348633" height="24" viewBox="0 0 24.000001907348633 24"><defs><clipPath id="master_svg0_47705_075995"><rect x="0" y="0" width="24.000001907348633" height="24" rx="0"/></clipPath><clipPath id="master_svg1_47705_076009"><rect x="-2" y="-2" width="28" height="27.999998092651367" rx="0"/></clipPath></defs><g clip-path="url(#master_svg0_47705_075995)"><g></g><g clip-path="url(#master_svg1_47705_076009)"><g></g><g><g><path d="M1.5,2.125L1.7752029999999999,2.125Q3.15168,2.125,4.2197,2.99333143Q5.28773,3.861663,5.56865,5.20917L5.63575,5.53107L19.1744,5.53107Q20.4939,5.53107,21.3542,6.5314499999999995Q22.2145,7.53184,22.017,8.83642L21.1576,14.5135Q20.9424,15.9344,19.8529,16.8714Q18.7633,17.808500000000002,17.3262,17.808500000000002L9.55813,17.808500000000002Q8.181650000000001,17.808500000000002,7.11363,16.9401Q6.0456,16.0718,5.76468,14.7243L3.85548,5.56632Q3.70143,4.8273600000000005,3.11573,4.35118Q2.53004,3.875,1.7752029999999999,3.875L1.5,3.875Q1.41382,3.875,1.329296,3.858187Q1.244772,3.841374,1.165152,3.808394Q1.085532,3.7754149999999997,1.013876,3.7275359999999997Q0.94222,3.6796569999999997,0.881282,3.618718Q0.820343,3.55778,0.772464,3.4861240000000002Q0.724585,3.414468,0.691606,3.334848Q0.658626,3.255228,0.641813,3.170704Q0.625,3.08618,0.625,3Q0.625,2.91382,0.641813,2.829296Q0.658626,2.744772,0.691606,2.665152Q0.724585,2.585532,0.772464,2.5138759999999998Q0.820343,2.44222,0.881282,2.381282Q0.94222,2.3203430000000003,1.013876,2.2724640000000003Q1.085532,2.2245850000000003,1.165152,2.191606Q1.244772,2.158626,1.329296,2.141813Q1.41382,2.125,1.5,2.125ZM6.00058,7.28107L7.47785,14.3672Q7.6319,15.1061,8.217590000000001,15.5823Q8.80329,16.058500000000002,9.55813,16.058500000000002L17.3262,16.058500000000002Q18.1143,16.058500000000002,18.7118,15.5446Q19.3093,15.0308,19.4273,14.2516L20.2867,8.57447Q20.364,8.06398,20.0274,7.67252Q19.6907,7.28107,19.1744,7.28107L6.00058,7.28107Z" fill-rule="evenodd" fill="#3D3D40" fill-opacity="1"/></g><g><ellipse cx="8.380946636199951" cy="20.64278745651245" rx="1.3571429252624512" ry="1.3571429252624512" fill="#3D3D40" fill-opacity="1"/></g><g><ellipse cx="18.33333921432495" cy="20.64278745651245" rx="1.3571429252624512" ry="1.3571429252624512" fill="#3D3D40" fill-opacity="1"/></g></g></g></g></svg>