<svg xmlns="http://www.w3.org/2000/svg" xmlns:xlink="http://www.w3.org/1999/xlink" fill="none" version="1.1" width="24" height="24" viewBox="0 0 24 24"><defs><clipPath id="master_svg0_46239_071551"><rect x="0" y="0" width="24" height="24" rx="0"/></clipPath></defs><g clip-path="url(#master_svg0_46239_071551)"><g><g><g><path d="M18.793077734375,6.9931540625L18.793077734375,15.2162640625L20.543077734375,15.2162640625L20.543077734375,6.9931440625Q20.543077734375,4.9738540625,19.115177734375,3.5460120625Q17.687377734374998,2.1181640625,15.668077734375,2.1181640625L8.419677734375,2.1181640625Q6.400387734375,2.1181640625,4.972531734375,3.5460180625Q3.544677734375,4.9738740625,3.544677734375,6.9931640625L3.544677734375,17.0953640625Q3.544677734375,19.1146640625,4.972539734375,20.5424640625Q6.400407734375,21.9703640625,8.419697734375,21.9703640625L13.880127734375,21.9703640625L13.880127734375,20.2203640625L8.419687734375,20.2203640625Q7.125267734375,20.2203640625,6.209977734375,19.3050640625Q5.294677734375,18.3897640625,5.294677734375,17.0953640625L5.294677734375,6.9931640625Q5.294677734375,5.698744062499999,6.209967734375,4.7834540625Q7.125257734374999,3.8681640625,8.419677734375,3.8681640625L15.668077734375,3.8681640625Q16.962477734375,3.8681640625,17.877777734375,4.7834540625Q18.793077734375,5.6987340625,18.793077734375,6.9931540625Z" fill-rule="evenodd" fill="#FFFFFF" fill-opacity="1"/></g><g><ellipse cx="16.862104415893555" cy="18.29094648361206" rx="4.033940315246582" ry="4.034058094024658" fill-opacity="0" stroke-opacity="1" stroke="#FFFFFF" fill="none" stroke-width="1.75"/></g><g><path d="M16.201830124853515,16.97848415374756Q16.201830124853515,16.89230415374756,16.218643024853517,16.807780153747558Q16.235456224853515,16.72325615374756,16.268435224853516,16.643636153747558Q16.301415224853514,16.56401615374756,16.349294224853516,16.49236015374756Q16.397173224853514,16.420704153747558,16.458111224853514,16.359766153747557Q16.519050224853515,16.29882715374756,16.590706224853516,16.250948153747558Q16.662362224853517,16.20306915374756,16.741982224853516,16.17009015374756Q16.821602224853514,16.13711015374756,16.906126224853516,16.120297153747558Q16.990650224853514,16.10348415374756,17.076830224853516,16.10348415374756Q17.163014224853516,16.10348415374756,17.247534224853517,16.120297153747558Q17.332054224853515,16.13711015374756,17.411674224853517,16.17009015374756Q17.491294224853515,16.20306915374756,17.562954224853517,16.250948153747558Q17.634614224853514,16.29882715374756,17.695544224853517,16.359766153747557Q17.756484224853516,16.420704153747558,17.804364224853515,16.49236015374756Q17.852244224853514,16.56401615374756,17.885224224853516,16.643636153747558Q17.918204224853515,16.72325615374756,17.935014224853514,16.807780153747558Q17.951834224853517,16.89230415374756,17.951834224853517,16.97848415374756L17.951834224853517,18.36012415374756Q17.951834224853517,18.46150415374756,17.928644224853514,18.56020415374756Q17.905464224853517,18.658894153747557,17.860334224853517,18.74967415374756Q17.815194224853517,18.840454153747558,17.750504224853515,18.91850415374756Q17.685804224853516,18.99656415374756,17.604974224853514,19.05775415374756L16.659306224853516,19.77368415374756L16.659072224853517,19.77386415374756Q16.545056224853514,19.860184153747557,16.409492224853516,19.905704153747557Q16.273928224853517,19.95123415374756,16.130924224853516,19.95123415374756Q16.044744224853517,19.95123415374756,15.960220224853515,19.934424153747557Q15.875696224853515,19.917614153747557,15.796076224853516,19.88463415374756Q15.716456224853516,19.85165415374756,15.644800224853515,19.803774153747558Q15.573144224853516,19.75589415374756,15.512206224853516,19.69495415374756Q15.451267224853515,19.634014153747557,15.403388224853515,19.56236415374756Q15.355509224853515,19.490704153747558,15.322530224853516,19.41108415374756Q15.289550224853516,19.331464153747557,15.272737224853515,19.24694415374756Q15.255924224853516,19.16241415374756,15.255924224853516,19.07623415374756Q15.255924224853516,18.974854153747557,15.279105224853515,18.87616415374756Q15.302287224853515,18.77746415374756,15.347421224853516,18.68668415374756Q15.392555224853515,18.595904153747558,15.457251224853515,18.517854153747557Q15.521947224853516,18.43980415374756,15.602776224853516,18.37860415374756L15.603011224853516,18.37843415374756L16.201830124853515,17.92508715374756L16.201830124853515,16.97848415374756Z" fill-rule="evenodd" fill="#FFFFFF" fill-opacity="1"/></g><g><path d="" fill="#FFFFFF" fill-opacity="1"/><path d="M9.07605791091919,5.5689215660095215L15.011597910919189,5.5689215660095215Q15.09777791091919,5.5689215660095215,15.18229791091919,5.5857345660095215Q15.26682791091919,5.602547566009521,15.346447910919188,5.635527566009522Q15.42606791091919,5.668506566009522,15.497717910919189,5.716385566009522Q15.56937791091919,5.764264566009522,15.630317910919189,5.825203566009521Q15.69124791091919,5.886141566009521,15.73912791091919,5.957797566009521Q15.78700791091919,6.029453566009521,15.819987910919188,6.1090735660095214Q15.85296791091919,6.188693566009522,15.86978791091919,6.273217566009522Q15.886597910919189,6.357741566009522,15.886597910919189,6.4439215660095215Q15.886597910919189,6.530101566009521,15.86978791091919,6.614625566009521Q15.85296791091919,6.699149566009521,15.819987910919188,6.7787695660095215Q15.78700791091919,6.858389566009522,15.73912791091919,6.930045566009522Q15.69124791091919,7.001701566009522,15.630317910919189,7.062639566009522Q15.56937791091919,7.123578566009521,15.497717910919189,7.171457566009521Q15.42606791091919,7.219336566009521,15.346447910919188,7.252315566009521Q15.26682791091919,7.2852955660095216,15.18229791091919,7.3021085660095215Q15.09777791091919,7.3189215660095215,15.011597910919189,7.3189215660095215L9.07605791091919,7.3189215660095215Q8.989877910919189,7.3189215660095215,8.905353910919189,7.3021085660095215Q8.820829910919189,7.2852955660095216,8.74120991091919,7.252315566009521Q8.66158991091919,7.219336566009521,8.58993391091919,7.171457566009521Q8.51827791091919,7.123578566009521,8.45733991091919,7.062639566009522Q8.396400910919189,7.001701566009522,8.348521910919189,6.930045566009522Q8.300642910919189,6.858389566009522,8.26766391091919,6.7787695660095215Q8.23468391091919,6.699149566009521,8.217870910919189,6.614625566009521Q8.20105791091919,6.530101566009521,8.20105791091919,6.4439215660095215Q8.20105791091919,6.357741566009522,8.217870910919189,6.273217566009522Q8.23468391091919,6.188693566009522,8.26766391091919,6.1090735660095214Q8.300642910919189,6.029453566009521,8.348521910919189,5.957797566009521Q8.396400910919189,5.886141566009521,8.45733991091919,5.825203566009521Q8.51827791091919,5.764264566009522,8.58993391091919,5.716385566009522Q8.66158991091919,5.668506566009522,8.74120991091919,5.635527566009522Q8.820829910919189,5.602547566009521,8.905353910919189,5.5857345660095215Q8.989877910919189,5.5689215660095215,9.07605791091919,5.5689215660095215Z" fill-rule="evenodd" fill="#FFFFFF" fill-opacity="1"/></g></g></g></g></svg>