<svg xmlns="http://www.w3.org/2000/svg" xmlns:xlink="http://www.w3.org/1999/xlink" fill="none" version="1.1" width="12" height="12" viewBox="0 0 12 12"><defs><clipPath id="master_svg0_47886_076746"><rect x="0" y="0" width="12" height="12" rx="0"/></clipPath></defs><g clip-path="url(#master_svg0_47886_076746)"><g><g><path d="M8.4688976171875,0.5599064687499999Q7.6514656171875,0.35493546875000004,6.8169127171875,0.47933446874999996Q6.7617956171875,0.48755046874999997,6.7090016171875,0.50538746875Q6.6562076171874995,0.52322446875,6.6074016171875,0.55012146875Q6.5585956171875,0.57701746875,6.5153186171875,0.61212346875Q6.4720406171875,0.64723046875,6.4356576171875,0.6894394687500001Q6.3992736171875,0.73164846875,6.3709316171875,0.77962846875Q6.3425886171875,0.82760946875,6.3231826171875,0.87984646875Q6.3037756171875,0.9320844687500001,6.2939166171875,0.98693146875Q6.2840576171875,1.04177856875,6.2840576171875,1.09750456875L6.2840576171875,1.09763346875Q6.2840676171875,1.14389426875,6.2908876171875,1.1896494687499999Q6.2991036171875,1.24476646875,6.3169406171875,1.29756046875Q6.3347776171875,1.3503554687500001,6.3616746171875,1.3991604687499999Q6.3885706171875,1.44796646875,6.4236766171875,1.49124346875Q6.4587836171875,1.53452146875,6.5009926171875,1.57090446875Q6.5432016171875,1.60728846875,6.5911816171875,1.63563146875Q6.6391626171875,1.66397346875,6.6913996171875,1.68338046875Q6.7436376171875,1.7027864687499998,6.7984846171875,1.71264546875Q6.8533315171875,1.72250446875,6.9090576171875,1.72250446875L6.9091864391875,1.72250446875Q6.9554472171875,1.72249546875,7.0012025171875,1.71567446875Q7.5892176171875,1.62802446875,8.1648776171875,1.7723704687500001Q8.9555476171875,1.97063346875,9.5357676171875,2.55084546875Q10.1160176171875,3.13109546875,10.3142576171875,3.92172546875Q10.4586076171875,4.4973754687500005,10.3709576171875,5.08536546875Q10.3641276171875,5.13118546875,10.3641276171875,5.17751546875Q10.3641276171875,5.18845546875,10.364507617187499,5.19938546875Q10.3664076171875,5.25369546875,10.3776576171875,5.30687546875Q10.388907617187499,5.36004546875,10.4091576171875,5.41047546875Q10.4294176171875,5.46090546875,10.4580776171875,5.50708546875Q10.4867376171875,5.55326546875,10.5229376171875,5.59379546875Q10.5591276171875,5.63433546875,10.601787617187501,5.66801546875Q10.6444376171875,5.70170546875,10.6922676171875,5.72751546875Q10.7400876171875,5.75332546875,10.7916576171875,5.77050546875Q10.8432176171875,5.78767546875,10.8969676171875,5.79568546875Q10.9427976171875,5.80251546875,10.9891276171875,5.80251546875Q11.000057617187501,5.80251546875,11.010997617187499,5.80213546875Q11.0653076171875,5.80023546875,11.1184776171875,5.78898546875Q11.1716476171875,5.77773546875,11.2220776171875,5.75747546875Q11.2725076171875,5.73722546875,11.3186876171875,5.70856546875Q11.3648676171875,5.67990546875,11.4054076171875,5.64370546875Q11.4459476171875,5.60750546875,11.4796276171875,5.56485546875Q11.5133076171875,5.52220546875,11.5391276171875,5.47437546875Q11.5649376171875,5.42655546875,11.5821076171875,5.37498546875Q11.5992776171875,5.32342546875,11.6072976171875,5.26967546875L11.6075776171875,5.26773546875Q11.7314676171875,4.43417546875,11.5267276171875,3.61772546875Q11.2443976171875,2.49170546875,10.4196476171875,1.66695546875Q9.594937617187501,0.84226446875,8.4688976171875,0.5599064687499999Z" fill-rule="evenodd" fill="#BABAC4" fill-opacity="1"/></g><g><path d="M8.8693383984375,3.0977195Q8.056648398437499,2.2850995,6.9189540984375,2.4547035Q6.8638373984375,2.4629195,6.8110443984375,2.4807575Q6.7582513984375,2.4985955,6.7094463984375,2.5254915000000002Q6.6606413984375,2.5523885,6.6173643984375,2.5874945Q6.5740883984375,2.6226015,6.5377053984375,2.6648105Q6.5013223984375,2.7070195,6.4729803984375,2.7549995Q6.4446383984375,2.8029795,6.4252323984375,2.8552165Q6.4058253984375,2.9074535,6.3959673984375,2.9623Q6.3861083984375,3.0171464,6.3861083984375,3.0728719L6.3861083984375,3.0730102Q6.3861183984375,3.119271,6.3929393984375,3.1650265Q6.4011563984375,3.2201425,6.4189943984374995,3.2729355Q6.4368323984375,3.3257295,6.4637283984375,3.3745345Q6.4906243984375,3.4233385,6.5257313984375,3.4666155Q6.5608373984375,3.5098925,6.6030463984375,3.5462755Q6.6452553984375005,3.5826585,6.6932353984375,3.6110005Q6.7412153984375,3.6393415,6.7934523984375,3.6587484999999997Q6.8456903984375,3.6781544999999998,6.9005363984375,3.6880135Q6.9553828984375,3.6978714999999998,7.0111083984375,3.6978714999999998L7.0112466504375,3.6978714999999998Q7.0575074984375,3.6978615,7.1032626984375,3.6910404999999997Q7.6181083984375,3.6142895,7.9854863984375,3.9816385Q8.3527783984375,4.3489275,8.2760283984375,4.8638175Q8.2691983984375,4.9096375000000005,8.2691983984375,4.9559675Q8.2691983984375,4.9704875,8.2698683984375,4.9849975Q8.2787083984375,5.175027500000001,8.3919283984375,5.3279175Q8.4659083984375,5.427827499999999,8.5724983984375,5.4918175Q8.6790883984375,5.5558075,8.802048398437499,5.5741375Q8.8478683984375,5.5809675,8.8941983984375,5.5809675Q8.9051383984375,5.5809675,8.916068398437499,5.5805875Q8.9703783984375,5.5786774999999995,9.0235483984375,5.5674375000000005Q9.0767283984375,5.5561875,9.1271583984375,5.5359275Q9.1775883984375,5.5156675,9.2237683984375,5.4870075Q9.2699383984375,5.4583575,9.3104783984375,5.4221575Q9.3510183984375,5.3859575,9.3846983984375,5.3433075Q9.4183783984375,5.3006475,9.4441983984375,5.2528275Q9.4700083984375,5.2049975,9.4871783984375,5.1534375Q9.5043483984375,5.1018675,9.5123683984375,5.0481175Q9.6819683984375,3.9103485,8.8693383984375,3.0977195Z" fill-rule="evenodd" fill="#BABAC4" fill-opacity="1"/></g><g><path d="M3.4261476171875,1.29296875L2.0262276171874998,1.29296875Q1.1774796171875,1.29296875,0.6751176171875,1.95619735Q0.15826161718749998,2.63856175,0.4339756171875,3.45569875Q1.5918846171875,6.88725875,3.3090976171875,8.60442875Q5.0263176171875,10.32166875,8.457887617187499,11.47951875Q9.2750176171875,11.75525875,9.9573976171875,11.23840875Q10.6206376171875,10.73604875,10.6206376171875,9.88728875L10.6206376171875,8.48714875Q10.6206376171875,7.79486875,10.0155776171875,7.45848875L8.7959576171875,6.78042875Q8.2531376171875,6.47864875,7.6977176171875,6.75639875L6.5987276171875,7.30587875Q5.9339676171875,7.11982875,5.3638376171875,6.54970875Q4.7931076171875,5.97898875,4.6047676171875,5.31086875L5.1540176171875,4.212388750000001Q5.4314976171875,3.65733875,5.1303176171875,3.11480875L4.4551776171875,1.89869145Q4.1189576171875,1.29296875,3.4261476171875,1.29296875ZM1.6715436171875,2.71093875Q1.7987726171875,2.54296875,2.0262276171874998,2.54296875L3.3831376171875,2.54296875L4.0187376171875,3.6878487499999997L3.3855476171875,4.95422875Q3.2904676171875,5.14437875,3.3310576171875,5.35306875Q3.5560276171875,6.50966875,4.4799576171875,7.43359875Q5.4045276171875,8.35814875,6.5588576171875,8.579538750000001Q6.7667476171875,8.61940875,6.9560776171875,8.524738750000001L8.2222676171875,7.89166875L9.3706376171875,8.53012875L9.3706376171875,9.88728875Q9.3706376171875,10.11473875,9.2026676171875,10.24196875Q9.0477376171875,10.35931875,8.8575476171875,10.29513875Q5.7032576171875,9.23083875,4.1929876171875,7.72054875Q2.6827076171875,6.21030875,1.6183666171875,3.05604875Q1.5541956171875,2.86586475,1.6715436171875,2.71093875Z" fill-rule="evenodd" fill="#BABAC4" fill-opacity="1"/></g></g></g></svg>