<svg xmlns="http://www.w3.org/2000/svg" xmlns:xlink="http://www.w3.org/1999/xlink" fill="none" version="1.1" width="18" height="18" viewBox="0 0 18 18"><g><g><g><g><path d="M9.6571763671875,3.895202587890625C9.6571763671875,3.895202587890625,9.353646367187501,3.596093587890625,9.353646367187501,3.596093587890625C9.353646367187501,3.596093587890625,9.353366367187501,3.5964105878906247,9.353366367187501,3.5964105878906247C9.353366367187501,3.5964105878906247,9.6571763671875,3.895202587890625,9.6571763671875,3.895202587890625C9.6571763671875,3.895202587890625,9.6571763671875,3.895202587890625,9.6571763671875,3.895202587890625ZM5.0818863671875,8.936432587890625C5.0818863671875,8.936432587890625,4.7780723671875,8.637622587890625,4.7780723671875,8.637622587890625C4.7780723671875,8.637622587890625,4.7772583671875,8.638532587890625,4.7772583671875,8.638532587890625C4.7772583671875,8.638532587890625,5.0818863671875,8.936432587890625,5.0818863671875,8.936432587890625C5.0818863671875,8.936432587890625,5.0818863671875,8.936432587890625,5.0818863671875,8.936432587890625ZM4.7085093671875,9.766002587890625C4.7085093671875,9.766002587890625,4.2941403671875,9.708452587890626,4.2941403671875,9.708452587890626C4.2941403671875,9.708452587890626,4.2932463671875,9.716632587890626,4.2932463671875,9.716632587890626C4.2932463671875,9.716632587890626,4.7085093671875,9.766002587890625,4.7085093671875,9.766002587890625C4.7085093671875,9.766002587890625,4.7085093671875,9.766002587890625,4.7085093671875,9.766002587890625ZM4.5023153671875,11.645572587890625C4.5023153671875,11.645572587890625,4.0870500671875,11.596212587890625,4.0870500671875,11.596212587890625C4.0870500671875,11.596212587890625,4.0869096171875,11.597542587890626,4.0869096171875,11.597542587890626C4.0869096171875,11.597542587890626,4.5023153671875,11.645572587890625,4.5023153671875,11.645572587890625C4.5023153671875,11.645572587890625,4.5023153671875,11.645572587890625,4.5023153671875,11.645572587890625ZM5.5444363671875,12.672352587890625C5.5444363671875,12.672352587890625,5.4740563671875,12.243502587890625,5.4740563671875,12.243502587890625C5.4740563671875,12.243502587890625,5.4734163671875,12.243622587890625,5.4734163671875,12.243622587890625C5.4734163671875,12.243622587890625,5.5444363671875,12.672352587890625,5.5444363671875,12.672352587890625C5.5444363671875,12.672352587890625,5.5444363671875,12.672352587890625,5.5444363671875,12.672352587890625ZM7.3388863671875,12.353322587890625C7.3388863671875,12.353322587890625,7.4092563671875,12.782152587890625,7.4092563671875,12.782152587890625C7.4092563671875,12.782152587890625,7.4120363671875005,12.781652587890624,7.4120363671875005,12.781652587890624C7.4120363671875005,12.781652587890624,7.3388863671875,12.353322587890625,7.3388863671875,12.353322587890625C7.3388863671875,12.353322587890625,7.3388863671875,12.353322587890625,7.3388863671875,12.353322587890625ZM8.113506367187501,11.918232587890625C8.113506367187501,11.918232587890625,7.8096463671875,11.619352587890624,7.8096463671875,11.619352587890624C7.8096463671875,11.619352587890624,7.8046463671875,11.625102587890625,7.8046463671875,11.625102587890625C7.8046463671875,11.625102587890625,8.113506367187501,11.918232587890625,8.113506367187501,11.918232587890625C8.113506367187501,11.918232587890625,8.113506367187501,11.918232587890625,8.113506367187501,11.918232587890625ZM12.6888163671875,6.877002587890625C12.6888163671875,6.877002587890625,12.3852663671875,6.577892587890625,12.3852663671875,6.577892587890625C12.3852663671875,6.577892587890625,12.3849863671875,6.578212587890625,12.3849863671875,6.578212587890625C12.3849863671875,6.578212587890625,12.6888163671875,6.877002587890625,12.6888163671875,6.877002587890625C12.6888163671875,6.877002587890625,12.6888163671875,6.877002587890625,12.6888163671875,6.877002587890625ZM12.6052163671875,3.8023825878906248C12.6052163671875,3.8023825878906248,12.8923863671875,3.486269587890625,12.8923863671875,3.486269587890625C12.8923863671875,3.486269587890625,12.8916063671875,3.485513587890625,12.8916063671875,3.485513587890625C12.8916063671875,3.485513587890625,12.6052163671875,3.8023825878906248,12.6052163671875,3.8023825878906248C12.6052163671875,3.8023825878906248,12.6052163671875,3.8023825878906248,12.6052163671875,3.8023825878906248ZM9.353366367187501,3.5964105878906247C9.353366367187501,3.5964105878906247,4.7780733671875,8.637622587890625,4.7780733671875,8.637622587890625C4.7780733671875,8.637622587890625,5.3857063671875,9.235192587890625,5.3857063671875,9.235192587890625C5.3857063671875,9.235192587890625,9.9609963671875,4.194002587890625,9.9609963671875,4.194002587890625C9.9609963671875,4.194002587890625,9.353366367187501,3.5964105878906247,9.353366367187501,3.5964105878906247C9.353366367187501,3.5964105878906247,9.353366367187501,3.5964105878906247,9.353366367187501,3.5964105878906247ZM4.7772583671875,8.638532587890625C4.6502073671875,8.779322587890626,4.5428453671875,8.965552587890624,4.4641573671875,9.141212587890625C4.3851853671875,9.317512587890626,4.3182663671875,9.520722587890624,4.2942133671875,9.708512587890624C4.2942133671875,9.708512587890624,5.1228063671875,9.823492587890625,5.1228063671875,9.823492587890625C5.1321863671875,9.750222587890626,5.1655863671875,9.634372587890624,5.2217463671874995,9.509002587890624C5.2782063671875,9.382942587890625,5.3408163671875,9.284962587890625,5.3865263671875,9.234322587890624C5.3865263671875,9.234322587890624,4.7772583671875,8.638532587890625,4.7772583671875,8.638532587890625C4.7772583671875,8.638532587890625,4.7772583671875,8.638532587890625,4.7772583671875,8.638532587890625ZM4.2932463671875,9.716632587890626C4.2932463671875,9.716632587890626,4.0870522671875,11.596212587890625,4.0870522671875,11.596212587890625C4.0870522671875,11.596212587890625,4.9175773671875,11.694942587890624,4.9175773671875,11.694942587890624C4.9175773671875,11.694942587890624,5.1237763671875,9.815362587890625,5.1237763671875,9.815362587890625C5.1237763671875,9.815362587890625,4.2932463671875,9.716632587890626,4.2932463671875,9.716632587890626C4.2932463671875,9.716632587890626,4.2932463671875,9.716632587890626,4.2932463671875,9.716632587890626ZM4.0869096171875,11.597542587890626C4.0383340671875,12.052582587890624,4.1694554671875,12.479782587890625,4.4661823671875,12.772652587890626C4.7633273671875,13.066052587890624,5.1804563671874995,13.179252587890625,5.6154463671875,13.101152587890626C5.6154463671875,13.101152587890626,5.4734163671875,12.243622587890625,5.4734163671875,12.243622587890625C5.2619663671875,12.281562587890624,5.1218063671875,12.220702587890624,5.0413953671875,12.141292587890625C4.9605633671875005,12.061522587890625,4.8938483671875,11.917252587890625,4.9177203671875,11.693612587890625C4.9177203671875,11.693612587890625,4.0869096171875,11.597542587890626,4.0869096171875,11.597542587890626C4.0869096171875,11.597542587890626,4.0869096171875,11.597542587890626,4.0869096171875,11.597542587890626ZM5.6148063671875,13.101252587890626C5.6148063671875,13.101252587890626,7.4092563671875,12.782152587890625,7.4092563671875,12.782152587890625C7.4092563671875,12.782152587890625,7.2685063671875,11.924442587890624,7.2685063671875,11.924442587890624C7.2685063671875,11.924442587890624,5.4740563671875,12.243502587890625,5.4740563671875,12.243502587890625C5.4740563671875,12.243502587890625,5.6148063671875,13.101252587890626,5.6148063671875,13.101252587890626C5.6148063671875,13.101252587890626,5.6148063671875,13.101252587890626,5.6148063671875,13.101252587890626ZM7.4120363671875005,12.781652587890624C7.5930363671875,12.748252587890626,7.7858363671875,12.668752587890625,7.9525163671875,12.576022587890625C8.1182663671875,12.483792587890624,8.2931663671875,12.358892587890624,8.4223663671875,12.211362587890624C8.4223663671875,12.211362587890624,7.8046463671875,11.625102587890625,7.8046463671875,11.625102587890625C7.7610963671875,11.674812587890624,7.6740663671875,11.744252587890625,7.5583863671875005,11.808652587890625C7.4436363671875,11.872522587890625,7.3354963671875,11.912022587890625,7.2657263671875,11.924962587890626C7.2657263671875,11.924962587890626,7.4120363671875005,12.781652587890624,7.4120363671875005,12.781652587890624C7.4120363671875005,12.781652587890624,7.4120363671875005,12.781652587890624,7.4120363671875005,12.781652587890624ZM8.4173163671875,12.216992587890624C8.4173163671875,12.216992587890624,12.9925863671875,7.175802587890625,12.9925863671875,7.175802587890625C12.9925863671875,7.175802587890625,12.3849863671875,6.578212587890625,12.3849863671875,6.578212587890625C12.3849863671875,6.578212587890625,7.809696367187501,11.619412587890626,7.809696367187501,11.619412587890626C7.809696367187501,11.619412587890626,8.4173163671875,12.216992587890624,8.4173163671875,12.216992587890624C8.4173163671875,12.216992587890624,8.4173163671875,12.216992587890624,8.4173163671875,12.216992587890624ZM12.9923063671875,7.176122587890625C13.4110563671875,6.715702587890625,13.7782963671875,6.157692587890625,13.8225463671875,5.4983825878906245C13.8683563671875,4.816242587890625,13.5630263671875,4.146492587890625,12.8923863671875,3.4862705878906253C12.8923863671875,3.4862705878906253,12.3179963671875,4.1185025878906245,12.3179963671875,4.1185025878906245C12.8789563671875,4.670722587890625,13.0111463671875,5.103202587890625,12.9886263671875,5.4377125878906245C12.9646663671875,5.795052587890625,12.7579163671875,6.168132587890625,12.3852663671875,6.577892587890625C12.3852663671875,6.577892587890625,12.9923063671875,7.176122587890625,12.9923063671875,7.176122587890625C12.9923063671875,7.176122587890625,12.9923063671875,7.176122587890625,12.9923063671875,7.176122587890625ZM12.8916063671875,3.485513587890625C12.2232063671875,2.830822587890625,11.5653863671875,2.554040187890625,10.9151463671875,2.640591287890625C10.2868663671875,2.724227887890625,9.7724663671875,3.1355525878906247,9.353646367187501,3.596093587890625C9.353646367187501,3.596093587890625,9.9607063671875,4.194312587890625,9.9607063671875,4.194312587890625C10.3332363671875,3.784682587890625,10.6798663671875,3.549176587890625,11.0211963671875,3.503738587890625C11.3406863671875,3.461213587890625,11.7611563671875,3.573109587890625,12.3187763671875,4.119262587890625C12.3187763671875,4.119262587890625,12.8916063671875,3.485513587890625,12.8916063671875,3.485513587890625C12.8916063671875,3.485513587890625,12.8916063671875,3.485513587890625,12.8916063671875,3.485513587890625Z" fill="#8A8A8E" fill-opacity="1"/></g><g><path d="M9.3815943671875,4.483030587890625C9.3471903671875,4.252241587890625,9.1402843671875,4.094297987890625,8.9194563671875,4.130254257890625C8.6986293671875,4.166210587890625,8.5475035671875,4.3824505878906255,8.5819078271875,4.613239587890625C8.5819078271875,4.613239587890625,9.3815943671875,4.483030587890625,9.3815943671875,4.483030587890625C9.3815943671875,4.483030587890625,9.3815943671875,4.483030587890625,9.3815943671875,4.483030587890625ZM11.8817763671875,7.872992587890625C12.1041463671875,7.896402587890625,12.3025663671875,7.726982587890625,12.3249563671875,7.4945825878906245C12.3473563671875,7.262182587890625,12.1852463671875,7.054812587890625,11.962886367187501,7.031412587890625C11.962886367187501,7.031412587890625,11.8817763671875,7.872992587890625,11.8817763671875,7.872992587890625C11.8817763671875,7.872992587890625,11.8817763671875,7.872992587890625,11.8817763671875,7.872992587890625ZM8.5819078271875,4.613239587890625C8.8424453671875,6.360972587890625,10.1996863671875,7.695932587890625,11.8817763671875,7.872992587890625C11.8817763671875,7.872992587890625,11.962886367187501,7.031412587890625,11.962886367187501,7.031412587890625C10.6450463671875,6.892682587890625,9.5850763671875,5.848002587890625,9.3815943671875,4.483030587890625C9.3815943671875,4.483030587890625,8.5819078271875,4.613239587890625,8.5819078271875,4.613239587890625C8.5819078271875,4.613239587890625,8.5819078271875,4.613239587890625,8.5819078271875,4.613239587890625Z" fill="#8A8A8E" fill-opacity="1"/></g><g><path d="M3.7597183671875,13.875152587890625C3.5207493671875,13.875152587890625,3.3270263671875,14.043045587890624,3.3270263671875,14.250152587890625C3.3270263671875,14.457259587890626,3.5207493671875,14.625152587890625,3.7597183671875,14.625152587890625C3.7597183671875,14.625152587890625,3.7597183671875,13.875152587890625,3.7597183671875,13.875152587890625C3.7597183671875,13.875152587890625,3.7597183671875,13.875152587890625,3.7597183671875,13.875152587890625ZM12.6443463671875,14.625152587890625C12.8833063671875,14.625152587890625,13.0770263671875,14.457259587890626,13.0770263671875,14.250152587890625C13.0770263671875,14.043045587890624,12.8833063671875,13.875152587890625,12.6443463671875,13.875152587890625C12.6443463671875,13.875152587890625,12.6443463671875,14.625152587890625,12.6443463671875,14.625152587890625C12.6443463671875,14.625152587890625,12.6443463671875,14.625152587890625,12.6443463671875,14.625152587890625ZM3.7597183671875,14.625152587890625C3.7597183671875,14.625152587890625,12.6443463671875,14.625152587890625,12.6443463671875,14.625152587890625C12.6443463671875,14.625152587890625,12.6443463671875,13.875152587890625,12.6443463671875,13.875152587890625C12.6443463671875,13.875152587890625,3.7597183671875,13.875152587890625,3.7597183671875,13.875152587890625C3.7597183671875,13.875152587890625,3.7597183671875,14.625152587890625,3.7597183671875,14.625152587890625C3.7597183671875,14.625152587890625,3.7597183671875,14.625152587890625,3.7597183671875,14.625152587890625Z" fill="#8A8A8E" fill-opacity="1"/></g><g style="opacity:0;"></g></g></g></g></svg>