<svg xmlns="http://www.w3.org/2000/svg" xmlns:xlink="http://www.w3.org/1999/xlink" fill="none" version="1.1" width="20" height="19.168142318725586" viewBox="0 0 20 19.168142318725586"><defs><clipPath id="master_svg0_45835_067552"><rect x="0" y="0" width="20" height="19.168142318725586" rx="0"/></clipPath></defs><g clip-path="url(#master_svg0_45835_067552)"><g><g style="opacity:0;"><rect x="-2" y="0" width="20" height="19.168142318725586" rx="0" fill="#000000" fill-opacity="1"/></g><g><path d="M9.57579,19.1576C14.8231,19.1576,19.1576,14.8231,19.1576,9.58174C19.1576,4.33444,14.8171,0,9.56853,0C4.32717,0,0,4.33444,0,9.58174C0,14.8231,4.33444,19.1576,9.57579,19.1576ZM9.57579,17.5022C5.18963,17.5022,1.66131,13.9679,1.66131,9.58174C1.66131,5.18963,5.18238,1.66131,9.56853,1.66131C13.9606,1.66131,17.4962,5.18963,17.4962,9.58174C17.4962,13.9679,13.9679,17.5022,9.57579,17.5022Z" fill="#000000" fill-opacity="0.8500000238418579"/></g><g><path d="M9.37253375,11.45092125C9.82758375,11.45092125,10.11299375,11.18366125,10.131293750000001,10.83725125C10.13260375,10.79034125,10.13391375,10.73485125,10.13652375,10.68925125C10.15613375,10.17856125,10.47611375,9.853641249999999,11.11228375,9.427501249999999C12.05100375,8.81151125,12.60716375,8.27206125,12.60716375,7.22352125C12.60716375,5.73897125,11.26726375,4.86328125,9.64907375,4.86328125C8.07519375,4.86328125,7.01983175,5.61885525,6.76071105,6.51139125C6.71060325,6.66578125,6.68359375,6.81161125,6.68359375,6.97458125C6.68359375,7.374291250000001,6.98962475,7.6260112499999995,7.32833175,7.6260112499999995C7.63640075,7.6260112499999995,7.84672375,7.48801125,8.00430375,7.25912125L8.12587375,7.08003125C8.38790375,6.5177812500000005,8.89611375,6.14943125,9.55641375,6.14943125C10.39448375,6.14943125,10.93829375,6.6284512499999995,10.93829375,7.3058812500000005C10.93829375,7.91229125,10.56399375,8.22544125,9.74044375,8.79407125C9.052423749999999,9.27281125,8.59881375,9.75488125,8.59881375,10.58918125C8.59881375,10.63942125,8.59881375,10.68837125,8.59881375,10.73733125C8.59881375,11.206911250000001,8.87826375,11.45092125,9.37253375,11.45092125ZM9.36062375,14.25010125C9.91066375,14.25010125,10.36920375,13.83890125,10.36920375,13.29539125C10.36920375,12.74855125,9.91792375,12.34070125,9.36062375,12.34070125C8.79866375,12.34070125,8.34942375,12.75320125,8.34942375,13.29539125C8.34942375,13.83165125,8.80461375,14.25010125,9.36062375,14.25010125Z" fill="#000000" fill-opacity="0.8500000238418579"/></g></g></g></svg>