<svg xmlns="http://www.w3.org/2000/svg" xmlns:xlink="http://www.w3.org/1999/xlink" fill="none" version="1.1" width="44" height="44" viewBox="0 0 44 44"><g><g><rect x="0" y="0" width="44" height="44" rx="10" fill="#087CCE" fill-opacity="1"/></g><g style="opacity:0.949999988079071;"><path d="M12.821115534362793,20.53333480895996L10.792225534362792,20.53333480895996L10.792225534362792,26.88889480895996L8.372225534362792,26.88889480895996L8.372225534362792,20.53333480895996L6.355555534362793,20.53333480895996L6.355555534362793,18.40666680895996L12.821115534362793,18.40666680895996L12.821115534362793,20.53333480895996ZM13.859995534362792,18.40666680895996L17.159955534362794,18.40666680895996Q18.162255534362792,18.40666680895996,18.834455534362792,18.57166680895996Q19.506655534362793,18.73666680895996,19.916155534362794,19.097222808959962Q20.325555534362792,19.45777480895996,20.496655534362795,20.03222480895996Q20.667755534362794,20.606664808959962,20.667755534362794,21.425554808959962Q20.667755534362794,22.31777480895996,20.47835553436279,22.92277480895996Q20.288855534362792,23.52777480895996,19.86725553436279,23.89444480895996Q19.445555534362793,24.26111480895996,18.779455534362793,24.42000480895996Q18.113355534362793,24.578884808959963,17.159955534362794,24.578884808959963L16.292225534362792,24.578884808959963L16.292225534362792,26.88889480895996L13.859995534362792,26.88889480895996L13.859995534362792,18.40666680895996ZM16.805555534362792,22.647774808959962Q17.563355534362792,22.647774808959962,17.87495553436279,22.40333480895996Q18.186655534362792,22.15888480895996,18.186655534362792,21.48666480895996Q18.186655534362792,20.77777480895996,17.868855534362794,20.52722480895996Q17.551155534362792,20.27666480895996,16.805555534362792,20.27666480895996L16.292225534362792,20.27666480895996L16.292225534362792,22.647774808959962L16.805555534362792,22.647774808959962ZM25.715555534362792,27.01111480895996Q24.774455534362794,27.01111480895996,24.028855534362794,26.82166480895996Q23.283355534362794,26.63222480895996,22.769955534362794,26.14333480895996Q22.256655534362793,25.654444808959962,21.98775553436279,24.80500480895996Q21.718855534362795,23.95555480895996,21.718855534362795,22.647774808959962Q21.718855534362795,21.34000480895996,21.98775553436279,20.49666480895996Q22.256655534362793,19.65333480895996,22.769955534362794,19.15833380895996Q23.283355534362794,18.663333808959962,24.028855534362794,18.47388980895996Q24.774455534362794,18.28444480895996,25.715555534362792,18.28444480895996Q26.668855534362795,18.28444480895996,27.408355534362794,18.47388980895996Q28.147755534362794,18.663333808959962,28.66115553436279,19.15833380895996Q29.174455534362792,19.65333480895996,29.443355534362794,20.49666480895996Q29.712255534362793,21.34000480895996,29.712255534362793,22.647774808959962Q29.712255534362793,23.95555480895996,29.443355534362794,24.80500480895996Q29.174455534362792,25.654444808959962,28.66115553436279,26.14333480895996Q28.147755534362794,26.63222480895996,27.408355534362794,26.82166480895996Q26.668855534362795,27.01111480895996,25.715555534362792,27.01111480895996ZM25.715555534362792,25.00666480895996Q26.155555534362794,25.00666480895996,26.430555534362792,24.89666480895996Q26.705555534362794,24.786664808959962,26.870555534362794,24.51166480895996Q27.035555534362793,24.23666480895996,27.096655534362792,23.78444480895996Q27.157755534362792,23.33222480895996,27.157755534362792,22.647774808959962Q27.157755534362792,21.95111480895996,27.096655534362792,21.49277480895996Q27.035555534362793,21.03444480895996,26.870555534362794,20.759444808959962Q26.705555534362794,20.48444480895996,26.430555534362792,20.36833480895996Q26.155555534362794,20.252224808959962,25.715555534362792,20.252224808959962Q25.275555534362795,20.252224808959962,25.000555534362793,20.36833480895996Q24.725555534362794,20.48444480895996,24.56665553436279,20.759444808959962Q24.407755534362792,21.03444480895996,24.346655534362792,21.49277480895996Q24.285555534362793,21.95111480895996,24.285555534362793,22.647774808959962Q24.285555534362793,23.33222480895996,24.346655534362792,23.78444480895996Q24.407755534362792,24.23666480895996,24.56665553436279,24.51166480895996Q24.725555534362794,24.786664808959962,25.000555534362793,24.89666480895996Q25.275555534362795,25.00666480895996,25.715555534362792,25.00666480895996ZM33.391155534362795,27.01111480895996Q32.682255534362795,27.01111480895996,32.040555534362795,26.92555480895996Q31.39885553436279,26.84000480895996,30.946655534362794,26.73000480895996L30.946655534362794,24.64000480895996Q31.154455534362793,24.70111480895996,31.43555553436279,24.76222480895996Q31.716655534362793,24.823334808959963,32.02835553436279,24.86611480895996Q32.339955534362794,24.90888480895996,32.65775553436279,24.933334808959962Q32.9755555343628,24.95777480895996,33.25665553436279,24.95777480895996Q33.635555534362794,24.95777480895996,33.8616555343628,24.92111480895996Q34.08775553436279,24.884444808959962,34.20995553436279,24.80500480895996Q34.332255534362794,24.725554808959963,34.368855534362794,24.59111480895996Q34.40555553436279,24.45666480895996,34.40555553436279,24.26111480895996Q34.40555553436279,24.126664808959962,34.36275553436279,24.01666480895996Q34.31995553436279,23.90666480895996,34.191655534362795,23.815004808959962Q34.06335553436279,23.72333480895996,33.82495553436279,23.63166480895996Q33.58665553436279,23.54000480895996,33.18335553436279,23.44222480895996Q32.4866555343628,23.28333480895996,32.040555534362795,23.08166480895996Q31.594455534362794,22.88000480895996,31.337755534362792,22.58666480895996Q31.081155534362793,22.293334808959962,30.983355534362794,21.89611480895996Q30.885555534362794,21.49888480895996,30.885555534362794,20.92444480895996Q30.885555534362794,20.17888480895996,31.117755534362793,19.67166480895996Q31.349955534362792,19.16444480895996,31.783855534362793,18.85277880895996Q32.217755534362794,18.54111180895996,32.83495553436279,18.412777808959962Q33.45225553436279,18.28444480895996,34.20995553436279,18.28444480895996Q35.00445553436279,18.28444480895996,35.52995553436279,18.376111808959962Q36.055555534362796,18.467777808959962,36.409955534362794,18.59000080895996L36.409955534362794,20.53333480895996Q36.275555534362795,20.48444480895996,36.02495553436279,20.43555480895996Q35.774455534362794,20.38666480895996,35.48115553436279,20.34388480895996Q35.18775553436279,20.301114808959962,34.8822555343628,20.27055480895996Q34.57665553436279,20.24000480895996,34.31995553436279,20.24000480895996Q33.73335553436279,20.24000480895996,33.482755534362795,20.38055480895996Q33.23225553436279,20.52111480895996,33.23225553436279,20.82666480895996Q33.23225553436279,20.97333480895996,33.27495553436279,21.071114808959962Q33.31775553436279,21.168884808959962,33.45225553436279,21.24833480895996Q33.58665553436279,21.327774808959962,33.83115553436279,21.40111480895996Q34.07555553436279,21.474444808959962,34.46665553436279,21.572224808959962Q35.26115553436279,21.780004808959962,35.731655534362794,22.024444808959963Q36.20225553436279,22.26889480895996,36.44665553436279,22.58666480895996Q36.69115553436279,22.904444808959962,36.764455534362796,23.33222480895996Q36.83775553436279,23.760004808959962,36.83775553436279,24.33444480895996Q36.83775553436279,24.97000480895996,36.66665553436279,25.46500480895996Q36.49555553436279,25.96000480895996,36.098355534362796,26.302224808959963Q35.7011555343628,26.64444480895996,35.041155534362794,26.82777480895996Q34.38115553436279,27.01111480895996,33.391155534362795,27.01111480895996Z" fill="#FFFFFF" fill-opacity="1"/></g></g></svg>