<svg xmlns="http://www.w3.org/2000/svg" xmlns:xlink="http://www.w3.org/1999/xlink" fill="none" version="1.1" width="140" height="140" viewBox="0 0 140 140"><defs><mask id="master_svg0_57640_195961" style="mask-type:alpha" maskUnits="userSpaceOnUse"><g><rect x="0" y="0" width="140" height="140" rx="0" fill="#FFFFFF" fill-opacity="1"/></g></mask><clipPath id="master_svg1_57640_195946"><rect x="-30" y="-30" width="200" height="200" rx="0"/></clipPath></defs><g mask="url(#master_svg0_57640_195961)"><g clip-path="url(#master_svg1_57640_195946)"><g><path d="M127.394390625,70.000049609375L127.321390625,72.81114960937501L127.116390625,75.622349609375L126.779390625,78.418849609375L126.296390625,81.200649609375L125.681390625,83.953249609375L124.919390625,86.661849609375L124.041390625,89.341249609375L123.031390625,91.961949609375L121.889390625,94.538849609375L120.615390625,97.057149609375L119.239390625,99.502249609375L117.731390625,101.874149609375L116.105390625,104.172849609375L114.378390625,106.398349609375L112.533290625,108.535949609375L110.585990625,110.571049609375L108.550790625,112.518349609375L106.413190625,114.348849609375L104.202390625,116.075849609375L101.888990625,117.701849609375L99.517190625,119.209849609375L97.072090625,120.599849609375L94.553790625,121.859849609375L91.976890625,123.001849609375L89.341490625,124.011849609375L86.662090625,124.889849609375L83.953490625,125.651849609375L81.200890625,126.266849609375L78.419090625,126.749849609375L75.637190625,127.100849609375L72.84069062500001,127.305849609375L70.014990625,127.378849609375L67.20379062500001,127.305849609375L64.392690625,127.100849609375L61.596190625,126.763849609375L58.814390625,126.280849609375L56.076490625,125.665849609375L53.367790625,124.904849609375L50.688490625,124.026849609375L48.052990625,123.015849609375L45.476190625,121.873849609375L42.972490625,120.599849609375L40.512790625,119.223849609375L38.140890625,117.715849609375L35.842190625,116.090849609375L33.616690625000004,114.362849609375L31.479090625,112.518349609375L29.443990625,110.571049609375L27.496690625,108.535949609375L25.666490625,106.398349609375L23.938790625,104.172849609375L22.313640624999998,101.874149609375L20.805590625,99.502249609375L19.414670625,97.042549609375L18.155520625,94.538849609375L17.013500625,91.961949609375L16.003250625,89.341249609375L15.124770625,86.661849609375L14.363420625,83.953249609375L13.748490625,81.200649609375L13.265326625,78.418849609375L12.928578625,75.622349609375L12.723597025,72.81114960937501L12.650390625,70.000049609375L12.708959325,67.188949609375L12.928578625,64.377749609375L13.265326625,61.581349609375L13.748490625,58.799449609375L14.363420625,56.046949609375L15.110130625,53.338249609375L15.988610625,50.658949609375L17.013500625,48.038149609375L18.155520625,45.461249609375L19.414670625,42.942949609375L20.805590625,40.497849609374995L22.313640624999998,38.125949609375L23.938790625,35.812649609375L25.666490625,33.601849609375L27.511290625,31.464149609375L29.443990625,29.429049609375L31.479090625,27.481749609375L33.616690625000004,25.651549609375L35.842190625,23.923949609375L38.140890625,22.298739609374998L40.527390624999995,20.790689609375L42.972490625,19.399759609375L45.490790625,18.140609609374998L48.067690625,16.998589609375L50.703090625,15.988349609375L53.367790625,15.109869609375L56.091090625,14.363159609375L58.828990625,13.733589609375L61.610890625,13.265065609375L64.392690625,12.899033609375L67.20379062500001,12.694056009375L70.014990625,12.620849609375L72.84069062500001,12.694056009375L75.637190625,12.899033609375L78.433690625,13.250423609375L81.215490625,13.718949609375L83.968090625,14.348519609375L86.676790625,15.095229609375L89.356090625,15.973699609375L91.991490625,16.983949609375L94.553790625,18.125979609375L97.072090625,19.399759609375L99.531790625,20.776039609374997L101.903690625,22.284099609374998L104.202390625,23.909249609375L106.427890625,25.636949609375L108.565490625,27.481749609375L110.600590625,29.429049609375L112.533290625,31.464149609375L114.378390625,33.601849609375L116.105390625,35.812649609375L117.731390625,38.125949609375L119.239390625,40.497849609374995L120.630390625,42.957549609375L121.889390625,45.475849609375L123.031390625,48.038149609375L124.041390625,50.673549609375L124.919390625,53.352949609375L125.681390625,56.061549609375L126.296390625,58.814149609375L126.779390625,61.595949609375L127.116390625,64.377749609375L127.321390625,67.188949609375L127.394390625,70.000049609375Z" fill="#F3F3F3" fill-opacity="1" style="mix-blend-mode:passthrough"/></g><g><path d="M11.7421875,27.569541875L11.7861096,27.071731875L11.8739585,26.603211875L12.0350135,26.163971875L12.2399905,25.754011875L12.4888945,25.373341875L12.7963575,25.021951875L13.1477475,24.729123875L13.5284175,24.465582875L13.9383775,24.260605875L14.3776175,24.099550875L14.846137500000001,24.011701775L15.3293075,23.982421875L125.5051875,23.982421875L125.9881875,24.011701775L126.4561875,24.099550875L126.8961875,24.260605875L127.3061875,24.465582875L127.6861875,24.729123875L128.0381875,25.021951875L128.5941875,25.754011875L128.79918750000002,26.163971875L128.96018750000002,26.603211875L129.04818749999998,27.071731875L129.0921875,27.569541875L129.0921875,47.877021875L11.7421875,47.877021875L11.7421875,27.569541875Z" fill="#FFFFFF" fill-opacity="1" style="mix-blend-mode:passthrough"/></g><g><path d="M11.7421875,27.569541875L11.7861096,27.071731875L11.8739585,26.603211875L12.0350135,26.163971875L12.2399905,25.754011875L12.4888945,25.373341875L12.7963575,25.021951875L13.1477475,24.729123875L13.5284175,24.465582875L13.9383775,24.260605875L14.3776175,24.099550875L14.846137500000001,24.011701775L15.3293075,23.982421875L125.5051875,23.982421875L125.9881875,24.011701775L126.4561875,24.099550875L126.8961875,24.260605875L127.3061875,24.465582875L127.6861875,24.729123875L128.0381875,25.021951875L128.5941875,25.754011875L128.79918750000002,26.163971875L128.96018750000002,26.603211875L129.04818749999998,27.071731875L129.0921875,27.569541875L129.0921875,47.877021875L11.7421875,47.877021875L11.7421875,27.569541875ZM128.1841875,27.569541875L128.1841875,46.983921875L12.6499445,46.983921875L12.6499445,27.569541875L12.6938715,27.071731875L12.8109975,26.617851875L13.0159775,26.207891875L13.2795275,25.827221875L13.6016275,25.505111875L13.982307500000001,25.241571874999998L14.3922575,25.036591875L14.846137500000001,24.919463875L15.3293075,24.875536875L125.5051875,24.875536875L125.9881875,24.919463875L126.4421875,25.036591875L126.8521875,25.241571874999998L127.2321875,25.505111875L127.5551875,25.827221875L127.8181875,26.207891875L128.0231875,26.617851875L128.1401875,27.071731875L128.1841875,27.569541875Z" fill-rule="evenodd" fill="#000000" fill-opacity="1" style="mix-blend-mode:passthrough"/></g><g><path d="M11.7421875,113.92380234375L11.7861096,114.42160234375L11.8739585,114.87550234375L12.0350135,115.31470234375L12.2399905,115.73930234375L12.4888945,116.12000234375L12.7963575,116.45670234375L13.1477475,116.76420234375L13.5284175,117.01310234375L13.9383775,117.23270234375L14.3776175,117.37910234375L14.846137500000001,117.48160234375L15.3293075,117.51090234375L125.5051875,117.51090234375L125.9881875,117.48160234375L126.4561875,117.37910234375L126.8961875,117.23270234375L127.3061875,117.01310234375L127.6861875,116.76420234375L128.0381875,116.45670234375L128.3451875,116.12000234375L128.5941875,115.73930234375L128.79918750000002,115.31470234375L128.96018750000002,114.87550234375L129.04818749999998,114.42160234375L129.0921875,113.92380234375L129.0921875,46.83740234375L11.7421875,46.83740234375L11.7421875,113.92380234375Z" fill="#F2F3FF" fill-opacity="1" style="mix-blend-mode:passthrough"/></g><g><path d="M11.7421875,113.92380234375L11.7861096,114.42160234375L11.8739585,114.87550234375L12.0350135,115.31470234375L12.2399905,115.73930234375L12.4888945,116.12000234375L12.7963575,116.45670234375L13.1477475,116.76420234375L13.5284175,117.01310234375L13.9383775,117.23270234375L14.3776175,117.37910234375L14.846137500000001,117.48160234375L15.3293075,117.51090234375L125.5051875,117.51090234375L125.9881875,117.48160234375L126.4561875,117.37910234375L126.8961875,117.23270234375L127.3061875,117.01310234375L127.6861875,116.76420234375L128.0381875,116.45670234375L128.3451875,116.12000234375L128.5941875,115.73930234375L128.79918750000002,115.31470234375L128.96018750000002,114.87550234375L129.04818749999998,114.42160234375L129.0921875,113.92380234375L129.0921875,46.83740234375L11.7421875,46.83740234375L11.7421875,113.92380234375ZM128.1841875,113.92380234375L128.1841875,47.74516434375L12.6499445,47.74516434375L12.6499445,113.92380234375L12.6938715,114.42160234375L12.8109975,114.86080234375L13.0159775,115.28540234375L13.2795275,115.65150234375L13.6016275,115.97360234375L13.982307500000001,116.25180234375L14.3922575,116.44210234375L14.846137500000001,116.55920234375L15.3293075,116.61780234375L125.5051875,116.61780234375L125.9881875,116.55920234375L126.4421875,116.44210234375L126.8521875,116.25180234375L127.2321875,115.97360234375L127.5551875,115.65150234375L127.8181875,115.28540234375L128.0231875,114.86080234375L128.1401875,114.42160234375L128.1841875,113.92380234375Z" fill-rule="evenodd" fill="#000000" fill-opacity="1" style="mix-blend-mode:passthrough"/></g><g><path d="M27.452559375,35.871043203125L27.393989375,36.500613203125L27.276859375,37.086273203125L27.071879375,37.642633203125L26.793699375,38.169723203125L26.471589375,38.652883203125L26.076279375,39.092123203125L25.637039375,39.472793203125L25.153879375,39.794903203125L24.626789375,40.058443203125L24.055779375,40.248783203125L23.470129375,40.365913203125004L22.840549375000002,40.409833203125004L22.210979375,40.365913203125004L21.625329375,40.234143203125L21.068949375,40.043803203125L20.541869375,39.765623203125L20.058709375,39.443513203125L19.619469375,39.048203203125L19.224155375,38.608963203125L18.902045375,38.125793203125L18.638503375,37.598713203125L18.448164375,37.042343203125L18.331035875,36.442043203125L18.287109375,35.812473203125L18.331035875,35.197543203125L18.462806375,34.597253203125L18.653141375,34.040873203125L18.916687375,33.513793203125L19.253435375,33.030633203125L19.634109375,32.591393203125L20.073349375,32.196075203125L20.556509375,31.873969203125L21.083599375,31.610423203125L21.654609375,31.420088203125L22.240259375,31.302959703125L22.869839374999998,31.259033203125L23.499409375,31.302959703125L24.085059375,31.420088203125L24.656069375,31.625065203125L25.183159375,31.888611203125L25.666319375,32.225359203125L26.105559375,32.620673203125L26.500869375,33.059913203125L26.822979375,33.543073203125L27.086519375,34.084803203125L27.291499375,34.641173203125L27.408629375,35.241463203125L27.452559375,35.871043203125ZM26.544799375,35.871043203125L26.530159375,35.373233203125L26.427669375,34.904713203125L26.281249375,34.436193203125L26.061629375,34.011593203125L25.798089375,33.601643203125L25.461339375,33.235603203125L25.095309375,32.913503203125L24.699999375,32.649953203125L24.275399375,32.430333203125L23.821519375,32.269283203125L23.352999375,32.181437203125L22.869839374999998,32.152152203125L22.386669375,32.181437203125L21.918149375,32.269283203125L21.464269375,32.430333203125L21.025029375,32.649953203125L20.629719375,32.913503203125L20.263679375,33.235603203125L19.926939375,33.616283203125L19.663389375,34.040873203125L19.458409375,34.465473203125L19.297359375,34.933993203125L19.209513375,35.387883203125L19.180228375,35.871043203125L19.209513375,36.354203203125L19.297359375,36.808083203125L19.458409375,37.276603203125L19.663389375,37.701203203125L19.926939375,38.125793203125L20.263679375,38.506473203125L20.629719375,38.828583203125L21.025029375,39.092123203125L21.464269375,39.311743203125L21.918149375,39.458153203125L22.386669375,39.560643203125L22.869839374999998,39.589923203125L23.352999375,39.560643203125L23.821519375,39.458153203125L24.275399375,39.311743203125L24.699999375,39.092123203125L25.095309375,38.828583203125L25.461339375,38.506473203125L25.798089375,38.140443203125L26.061629375,37.730483203125L26.281249375,37.305883203125L26.427669375,36.837363203125L26.530159375,36.368843203125L26.544799375,35.871043203125Z" fill-rule="evenodd" fill="#000000" fill-opacity="1" style="mix-blend-mode:passthrough"/></g><g><path d="M53.601971875000004,35.871043203125L53.558051875000004,36.500613203125L53.426281875,37.086273203125L53.221301875,37.642633203125L52.957761875,38.169723203125L52.621011875,38.652883203125L52.240341875,39.092123203125L51.801101875,39.472793203125L51.317941875,39.794903203125L50.776211875,40.058443203125L50.219841875,40.248783203125L49.619541875,40.365913203125004L49.004611875,40.409833203125004L48.375031875,40.365913203125004L47.774741875000004,40.234143203125L47.218381875,40.043803203125L46.691291875,39.765623203125L46.208121875,39.443513203125L45.768891875,39.048203203125L45.388217875,38.608963203125L45.066107875,38.125793203125L44.802561875,37.598713203125L44.612226875,37.042343203125L44.480456275,36.442043203125L44.451171875,35.812473203125L44.495093975,35.197543203125L44.612226875,34.597253203125L44.802561875,34.040873203125L45.080745875,33.513793203125L45.402855875,33.030633203125L45.798171875,32.591393203125L46.237411875,32.196075203125L46.720571875,31.873969203125L47.247651875,31.610423203125L47.804031875,31.420088203125L48.389681875,31.302959703125L49.019251875,31.259033203125L49.648831875,31.302959703125L50.249121875,31.420088203125L50.805491875,31.625065203125L51.347211875,31.888611203125L51.830381875,32.225359203125L52.269621875,32.620673203125L52.650291875,33.059913203125L52.987041875,33.543073203125L53.250581875,34.084803203125L53.440921875,34.641173203125L53.558051875000004,35.241463203125L53.601971875000004,35.871043203125ZM52.708861875,35.871043203125L52.679581875,35.373233203125L52.591721875,34.904713203125L52.430671875,34.436193203125L52.225691875,34.011593203125L51.947511875000004,33.601643203125L51.625401875,33.235603203125L51.259371875,32.913503203125L50.864051875,32.649953203125L50.439461875,32.430333203125L49.985581875,32.269283203125L49.517051875,32.181437203125L49.019251875,32.152152203125L48.536091875,32.181437203125L48.067571875,32.269283203125L47.613681875,32.430333203125L47.189091875,32.649953203125L46.793781875,32.913503203125L46.427741875,33.235603203125L46.091001875,33.616283203125L45.812811875,34.040873203125L45.607841875,34.465473203125L45.461421875,34.933993203125L45.373570875,35.387883203125L45.344286875,35.871043203125L45.373570875,36.354203203125L45.461421875,36.808083203125L45.607841875,37.276603203125L45.812811875,37.701203203125L46.091001875,38.125793203125L46.427741875,38.506473203125L46.793781875,38.828583203125L47.189091875,39.092123203125L47.613681875,39.311743203125L48.067571875,39.458153203125L48.536091875,39.560643203125L49.019251875,39.589923203125L49.517051875,39.560643203125L49.985581875,39.458153203125L50.439461875,39.311743203125L50.864051875,39.092123203125L51.259371875,38.828583203125L51.625401875,38.506473203125L51.947511875000004,38.140443203125L52.225691875,37.730483203125L52.430671875,37.305883203125L52.591721875,36.837363203125L52.679581875,36.368843203125L52.708861875,35.871043203125Z" fill-rule="evenodd" fill="#000000" fill-opacity="1" style="mix-blend-mode:passthrough"/></g><g><path d="M40.527753125000004,35.871043203125L40.483833125000004,36.500613203125L40.352063125,37.086273203125L40.147083125,37.642633203125L39.883543125,38.169723203125L39.546793125,38.652883203125L39.166113125,39.092123203125L38.726873125,39.472793203125L38.229073125,39.794903203125L37.701983125,40.058443203125L37.145623125,40.248783203125L36.545323125,40.365913203125004L35.915753125,40.409833203125004L35.300813125,40.365913203125004L34.700523125000004,40.234143203125L34.144153125,40.043803203125L33.617073125,39.765623203125L33.133903125,39.443513203125L32.694673125,39.048203203125L32.313995125,38.608963203125L31.991884125,38.125793203125L31.728343125,37.598713203125L31.523366125,37.042343203125L31.406233025,36.442043203125L31.376953125,35.812473203125L31.420875225,35.197543203125L31.538004125,34.597253203125L31.728343125,34.040873203125L32.006527125,33.513793203125L32.328637125,33.030633203125L32.709303125,32.591393203125L33.148543125,32.196075203125L33.631713125,31.873969203125L34.173433125,31.610423203125L34.729803125000004,31.420088203125L35.315463125,31.302959703125L35.945033125,31.259033203125L36.574613125,31.302959703125L37.174903125,31.420088203125L37.731273125,31.625065203125L38.272993125,31.888611203125L38.756163125,32.225359203125L39.195403125,32.620673203125L39.576073125,33.059913203125L39.912823125,33.543073203125L40.176363125,34.084803203125L40.366703125,34.641173203125L40.483833125000004,35.241463203125L40.527753125000004,35.871043203125ZM39.634643125,35.871043203125L39.605353125,35.373233203125L39.517503125,34.904713203125L39.356453125,34.436193203125L39.151473125,34.011593203125L38.873293125000004,33.601643203125L38.551183125,33.235603203125L38.185153125,32.913503203125L37.789833125,32.649953203125L37.350593125,32.430333203125L36.896713125,32.269283203125L36.428193125,32.181437203125L35.945033125,32.152152203125L35.461873125,32.181437203125L34.993353125,32.269283203125L34.539463125,32.430333203125L34.114873125,32.649953203125L33.719563125,32.913503203125L33.353523125,33.235603203125L33.016773125,33.616283203125L32.738593125,34.040873203125L32.533613125,34.465473203125L32.387203125,34.933993203125L32.299352125,35.387883203125L32.270068125,35.871043203125L32.299352125,36.354203203125L32.387203125,36.808083203125L32.533613125,37.276603203125L32.738593125,37.701203203125L33.016773125,38.125793203125L33.353523125,38.506473203125L33.719563125,38.828583203125L34.114873125,39.092123203125L34.539463125,39.311743203125L34.993353125,39.458153203125L35.461873125,39.560643203125L35.945033125,39.589923203125L36.428193125,39.560643203125L36.896713125,39.458153203125L37.350593125,39.311743203125L37.789833125,39.092123203125L38.185153125,38.828583203125L38.551183125,38.506473203125L38.873293125000004,38.140443203125L39.151473125,37.730483203125L39.356453125,37.305883203125L39.517503125,36.837363203125L39.605353125,36.368843203125L39.634643125,35.871043203125Z" fill-rule="evenodd" fill="#000000" fill-opacity="1" style="mix-blend-mode:passthrough"/></g><g><path d="M102.532815625,122.06433867187499L86.676265625,106.207738671875L86.354157625,105.827138671875L86.090616625,105.431838671875L85.900272625,105.021838671875L85.753859825,104.567938671875L85.666015625,104.128738671875L85.666015625,103.206338671875L85.753859825,102.767038671875L85.900272625,102.313238671875L86.090616625,101.903248671875L86.354157625,101.507938671875L86.676265625,101.127258671875L94.509355625,93.308808671875L94.86074562499999,93.001340671875L95.241425625,92.737799671875L95.666015625,92.532826671875L96.105215625,92.386413671875L96.559115625,92.298560771875L97.042315625,92.254638671875L97.51081562499999,92.298560771875L97.964715625,92.386413671875L98.418615625,92.532826671875L98.828515625,92.737799671875L99.223815625,93.001340671875L99.575215625,93.308808671875L115.431715625,109.16533867187499L115.739215625,109.516738671875L116.002815625,109.912038671875L116.20771562499999,110.32203867187499L116.35411562499999,110.775838671875L116.442015625,111.229738671875L116.485915625,111.698238671875L116.442015625,112.181438671875L116.35411562499999,112.635338671875L116.20771562499999,113.074538671875L116.002815625,113.499138671875L115.739215625,113.879838671875L115.431715625,114.231238671875L107.613315625,122.06433867187499L107.232615625,122.386438671875L106.837315625,122.64993867187499L106.427315625,122.840338671875L105.973515625,122.986738671875L105.534215625,123.074538671875L104.61181562499999,123.074538671875L104.17261562499999,122.986738671875L103.718715625,122.840338671875L103.308815625,122.64993867187499L102.913415625,122.386438671875L102.532815625,122.06433867187499Z" fill="#FFFFFF" fill-opacity="1" style="mix-blend-mode:passthrough"/></g><g><path d="M102.532815625,122.06433867187499L86.676265625,106.207738671875L86.354157625,105.827138671875L86.090616625,105.431838671875L85.900272625,105.021838671875L85.753859825,104.567938671875L85.666015625,104.128738671875L85.666015625,103.206338671875L85.753859825,102.767038671875L85.900272625,102.313238671875L86.090616625,101.903248671875L86.354157625,101.507938671875L86.676265625,101.127258671875L94.509355625,93.308808671875L94.86074562499999,93.001340671875L95.241425625,92.737799671875L95.666015625,92.532826671875L96.105215625,92.386413671875L96.559115625,92.298560771875L97.042315625,92.254638671875L97.51081562499999,92.298560771875L97.964715625,92.386413671875L98.418615625,92.532826671875L98.828515625,92.737799671875L99.223815625,93.001340671875L99.575215625,93.308808671875L115.431715625,109.16533867187499L115.739215625,109.516738671875L116.002815625,109.912038671875L116.20771562499999,110.32203867187499L116.35411562499999,110.775838671875L116.442015625,111.229738671875L116.485915625,111.698238671875L116.442015625,112.181438671875L116.35411562499999,112.635338671875L116.20771562499999,113.074538671875L116.002815625,113.499138671875L115.739215625,113.879838671875L115.431715625,114.231238671875L107.613315625,122.06433867187499L107.232615625,122.386438671875L106.837315625,122.64993867187499L106.427315625,122.840338671875L105.973515625,122.986738671875L105.534215625,123.074538671875L104.61181562499999,123.074538671875L104.17261562499999,122.986738671875L103.718715625,122.840338671875L103.308815625,122.64993867187499L102.913415625,122.386438671875L102.532815625,122.06433867187499ZM103.177015625,121.420038671875L103.440515625,121.654338671875L104.040815625,122.00573867187501L104.714315625,122.196038671875L105.080315625,122.21073867187499L105.76851562499999,122.122838671875L106.427315625,121.85933867187501L106.705515625,121.654338671875L115.036415625,113.338138671875L115.226815625,113.045238671875L115.504915625,112.401038671875L115.592815625,111.698238671875L115.56351562500001,111.34683867187499L115.504915625,110.99543867187501L115.226815625,110.351238671875L114.802215625,109.794938671875L98.945615625,93.938388671875L98.667515625,93.704128671875L98.067215625,93.367368671875L97.393715625,93.177037671875L97.042315625,93.147753671875L96.676315625,93.177037671875L96.00271562500001,93.367368671875L95.402475625,93.704128671875L95.138925625,93.938388671875L87.086225625,102.035018671875L86.881245625,102.327838671875L86.617699625,102.972038671875L86.529855625,103.674838671875L86.544492625,104.026238671875L86.734825625,104.699738671875L87.086225625,105.314638671875L87.320475625,105.578238671875L103.177015625,121.420038671875Z" fill-rule="evenodd" fill="#000000" fill-opacity="1" style="mix-blend-mode:passthrough"/></g><g><path d="M70.46781250000001,115.7246875L72.3712125,115.6807875L74.2306125,115.5489875L76.04611249999999,115.3293875L77.8470125,115.0365875L79.6186125,114.6704875L81.3756125,114.2166875L83.08861250000001,113.6748875L84.7723125,113.0746875L86.41221250000001,112.4157875L88.00811250000001,111.6690875L89.5893125,110.8491875L91.11201249999999,109.9706875L92.5908125,109.0336875L94.0256125,108.0233875L95.4166125,106.9545875L96.7636125,105.8271875L98.0520125,104.6412875L99.2819125,103.4113875L100.4678125,102.1229875L101.5952125,100.7759875L102.6640125,99.3849875L103.6743125,97.9501875L104.6113125,96.47138749999999L105.4898125,94.9486875L106.3097125,93.36748750000001L107.0564125,91.77158750000001L107.7152125,90.1316875L108.3155125,88.44798750000001L108.8573125,86.7349875L109.3111125,84.9779875L109.6772125,83.2063875L109.9700125,81.40548749999999L110.1896125,79.5899875L110.3214125,77.7305875L110.3653125,75.82718750000001L110.3214125,73.9237875L110.1896125,72.06438750000001L109.9700125,70.2488875L109.6772125,68.44798750000001L109.3111125,66.6763875L108.8573125,64.9193875L108.3155125,63.206387500000005L107.7152125,61.5226875L107.0564125,59.882887499999995L106.3097125,58.2868875L105.4898125,56.705687499999996L104.6113125,55.182987499999996L103.6743125,53.7041875L102.6640125,52.2693875L101.5952125,50.8784875L100.4678125,49.5314875L99.2819125,48.2429875L98.0520125,47.0131875L96.7636125,45.8272075L95.4166125,44.6998175L94.0256125,43.6310075L92.5908125,42.620757499999996L91.11201249999999,41.6837175L89.5893125,40.8052375L88.00811250000001,39.9853275L86.41221250000001,39.238617500000004L84.7723125,38.5797575L83.08861250000001,37.9794675L81.3756125,37.4377475L79.6186125,36.9838575L77.8470125,36.6178295L76.04611249999999,36.3250045L74.2306125,36.1053845L72.3712125,35.973614L70.46781250000001,35.9296875L68.5644125,35.973614L66.70501250000001,36.1053845L64.8895125,36.3250045L63.0886125,36.6178295L61.317012500000004,36.9838575L59.5600125,37.4377475L57.847012500000005,37.9794675L56.1633125,38.5797575L54.5234125,39.238617500000004L52.9275125,39.9853275L51.346312499999996,40.8052375L49.823612499999996,41.6837175L48.3448125,42.620757499999996L46.9100125,43.6310075L45.5191125,44.6998175L44.1721125,45.8272075L42.8836125,47.0131875L41.6538125,48.2429875L40.4678225,49.5314875L39.3404425,50.8784875L38.2716225,52.2693875L37.261382499999996,53.7041875L36.3243325,55.182987499999996L35.4458625,56.705687499999996L34.6259425,58.2868875L33.879242500000004,59.882887499999995L33.2057425,61.5226875L32.6054525,63.206387500000005L32.0783625,64.9193875L31.6244825,66.6763875L31.2584505,68.44798750000001L30.9656245,70.2488875L30.7460055,72.06438750000001L30.6142346,73.9237875L30.5703125,75.82718750000001L30.6142346,77.7305875L30.7460055,79.5899875L30.9656245,81.40548749999999L31.2584505,83.2063875L31.6244825,84.9779875L32.0783625,86.7349875L32.6054525,88.44798750000001L33.2057425,90.1316875L33.879242500000004,91.77158750000001L34.6259425,93.36748750000001L35.4458625,94.9486875L36.3243325,96.47138749999999L37.261382499999996,97.9501875L38.2716225,99.3849875L39.3404425,100.7759875L40.4678225,102.1229875L41.6538125,103.4113875L42.8836125,104.6412875L44.1721125,105.8271875L45.5191125,106.9545875L46.9100125,108.0233875L48.3448125,109.0336875L49.823612499999996,109.9706875L51.346312499999996,110.8491875L52.9275125,111.6690875L54.5234125,112.4157875L56.1633125,113.0746875L57.847012500000005,113.6748875L59.5600125,114.2166875L61.317012500000004,114.6704875L63.0886125,115.0365875L64.8895125,115.3293875L66.70501250000001,115.5489875L68.5644125,115.6807875L70.46781250000001,115.7246875ZM70.46781250000001,104.0702875L71.8148125,104.0262875L73.13251249999999,103.9384875L74.4210125,103.7920875L75.6948125,103.5870875L76.9393125,103.3234875L78.4912125,102.9135875L79.9993125,102.4157875L81.4634125,101.8447875L82.8836125,101.2005875L84.2745125,100.4684875L85.60691249999999,99.66318749999999L86.8953125,98.7993875L88.1252125,97.86228750000001L89.31111250000001,96.85208750000001L90.4385125,95.7978875L91.49271250000001,94.67048750000001L92.50291250000001,93.4845875L93.4400125,92.2546875L94.30381249999999,90.96628749999999L95.1091125,89.6338875L95.8412125,88.2429875L96.4854125,86.8227875L97.0564125,85.3586875L97.5542125,83.8505875L97.9641125,82.2986875L98.2277125,81.0541875L98.4327125,79.7803875L98.5791125,78.49188749999999L98.6669125,77.1741875L98.7108125,75.82718750000001L98.6669125,74.4801875L98.5791125,73.1624875L98.4327125,71.8740875L98.2277125,70.60028750000001L97.9641125,69.35578749999999L97.5542125,67.8037875L97.0564125,66.2956875L96.4854125,64.8315875L95.8412125,63.411387500000004L95.1091125,62.0204875L94.30381249999999,60.6880875L93.4400125,59.3996875L92.50291250000001,58.1697875L91.49271250000001,56.9838875L90.4385125,55.8564875L89.31111250000001,54.8022875L88.1252125,53.7920875L86.8953125,52.8549875L85.60691249999999,51.991187499999995L84.2745125,51.1858875L82.8836125,50.4538875L81.4634125,49.8095875L79.9993125,49.2385875L78.4912125,48.740787499999996L76.9393125,48.3308875L75.6948125,48.0672875L74.4210125,47.8622875L73.13251249999999,47.7158875L71.8148125,47.6280875L70.46781250000001,47.5841875L69.1208125,47.6280875L67.8031125,47.7158875L66.5147125,47.8622875L65.24091250000001,48.0672875L63.9964125,48.3308875L62.4444125,48.740787499999996L60.9363125,49.2385875L59.4722125,49.8095875L58.052012500000004,50.4538875L56.6611125,51.1858875L55.3287125,51.991187499999995L54.0403125,52.8549875L52.8104125,53.7920875L51.6245125,54.8022875L50.4971125,55.8564875L49.4429125,56.9838875L48.4327125,58.1697875L47.4956125,59.3996875L46.631812499999995,60.6880875L45.8265125,62.0204875L45.0945125,63.411387500000004L44.4502125,64.8315875L43.8792125,66.2956875L43.381412499999996,67.8037875L42.9715125,69.35578749999999L42.7079125,70.60028750000001L42.5029125,71.8740875L42.3565125,73.1624875L42.2540125,74.4801875L42.2248125,75.82718750000001L42.2540125,77.1741875L42.3565125,78.49188749999999L42.5029125,79.7803875L42.7079125,81.0541875L42.9715125,82.2986875L43.381412499999996,83.8505875L43.8792125,85.3586875L44.4502125,86.8227875L45.0945125,88.2429875L45.8265125,89.6338875L46.631812499999995,90.96628749999999L47.4956125,92.2546875L48.4327125,93.4845875L49.4429125,94.67048750000001L50.4971125,95.7978875L51.6245125,96.85208750000001L52.8104125,97.86228750000001L54.0403125,98.7993875L55.3287125,99.66318749999999L56.6611125,100.4684875L58.052012500000004,101.2005875L59.4722125,101.8447875L60.9363125,102.4157875L62.4444125,102.9135875L63.9964125,103.3234875L65.24091250000001,103.5870875L66.5147125,103.7920875L67.8031125,103.9384875L69.1208125,104.0262875L70.46781250000001,104.0702875Z" fill-rule="evenodd" fill="#FFFFFF" fill-opacity="1" style="mix-blend-mode:passthrough"/></g><g><path d="M70.46781250000001,115.7246875L72.3712125,115.6807875L74.2306125,115.5489875L76.04611249999999,115.3293875L77.8470125,115.0365875L79.6186125,114.6704875L81.3756125,114.2166875L83.08861250000001,113.6748875L84.7723125,113.0746875L86.41221250000001,112.4157875L88.00811250000001,111.6690875L89.5893125,110.8491875L91.11201249999999,109.9706875L92.5908125,109.0336875L94.0256125,108.0233875L95.4166125,106.9545875L96.7636125,105.8271875L98.0520125,104.6412875L99.2819125,103.4113875L100.4678125,102.1229875L101.5952125,100.7759875L102.6640125,99.3849875L103.6743125,97.9501875L104.6113125,96.47138749999999L105.4898125,94.9486875L106.3097125,93.36748750000001L107.0564125,91.77158750000001L107.7152125,90.1316875L108.3155125,88.44798750000001L108.8573125,86.7349875L109.3111125,84.9779875L109.6772125,83.2063875L109.9700125,81.40548749999999L110.1896125,79.5899875L110.3214125,77.7305875L110.3653125,75.82718750000001L110.3214125,73.9237875L110.1896125,72.06438750000001L109.9700125,70.2488875L109.6772125,68.44798750000001L109.3111125,66.6763875L108.8573125,64.9193875L108.3155125,63.206387500000005L107.7152125,61.5226875L107.0564125,59.882887499999995L106.3097125,58.2868875L105.4898125,56.705687499999996L104.6113125,55.182987499999996L103.6743125,53.7041875L102.6640125,52.2693875L101.5952125,50.8784875L100.4678125,49.5314875L99.2819125,48.2429875L98.0520125,47.0131875L96.7636125,45.8272075L95.4166125,44.6998175L94.0256125,43.6310075L92.5908125,42.620757499999996L91.11201249999999,41.6837175L89.5893125,40.8052375L88.00811250000001,39.9853275L86.41221250000001,39.238617500000004L84.7723125,38.5797575L83.08861250000001,37.9794675L81.3756125,37.4377475L79.6186125,36.9838575L77.8470125,36.6178295L76.04611249999999,36.3250045L74.2306125,36.1053845L72.3712125,35.973614L70.46781250000001,35.9296875L68.5644125,35.973614L66.70501250000001,36.1053845L64.8895125,36.3250045L63.0886125,36.6178295L61.317012500000004,36.9838575L59.5600125,37.4377475L57.847012500000005,37.9794675L56.1633125,38.5797575L54.5234125,39.238617500000004L52.9275125,39.9853275L51.346312499999996,40.8052375L49.823612499999996,41.6837175L48.3448125,42.620757499999996L46.9100125,43.6310075L45.5191125,44.6998175L44.1721125,45.8272075L42.8836125,47.0131875L41.6538125,48.2429875L40.4678225,49.5314875L39.3404425,50.8784875L38.2716225,52.2693875L37.261382499999996,53.7041875L36.3243325,55.182987499999996L35.4458625,56.705687499999996L34.6259425,58.2868875L33.879242500000004,59.882887499999995L33.2057425,61.5226875L32.6054525,63.206387500000005L32.0783625,64.9193875L31.6244825,66.6763875L31.2584505,68.44798750000001L30.9656245,70.2488875L30.7460055,72.06438750000001L30.6142346,73.9237875L30.5703125,75.82718750000001L30.6142346,77.7305875L30.7460055,79.5899875L30.9656245,81.40548749999999L31.2584505,83.2063875L31.6244825,84.9779875L32.0783625,86.7349875L32.6054525,88.44798750000001L33.2057425,90.1316875L33.879242500000004,91.77158750000001L34.6259425,93.36748750000001L35.4458625,94.9486875L36.3243325,96.47138749999999L37.261382499999996,97.9501875L38.2716225,99.3849875L39.3404425,100.7759875L40.4678225,102.1229875L41.6538125,103.4113875L42.8836125,104.6412875L44.1721125,105.8271875L45.5191125,106.9545875L46.9100125,108.0233875L48.3448125,109.0336875L49.823612499999996,109.9706875L51.346312499999996,110.8491875L52.9275125,111.6690875L54.5234125,112.4157875L56.1633125,113.0746875L57.847012500000005,113.6748875L59.5600125,114.2166875L61.317012500000004,114.6704875L63.0886125,115.0365875L64.8895125,115.3293875L66.70501250000001,115.5489875L68.5644125,115.6807875L70.46781250000001,115.7246875ZM70.46781250000001,114.8315875L72.1955125,114.7876875L73.8939125,114.6704875L75.5776125,114.4948875L77.2321125,114.2459875L78.8573125,113.9237875L80.46781250000001,113.5284875L82.06371250000001,113.0746875L83.6157125,112.5475875L85.1384125,111.9618875L86.6318125,111.3176875L88.0959125,110.6148875L89.5308125,109.8535875L90.9217125,109.0336875L92.26871249999999,108.1551875L93.6010125,107.2180875L94.8748125,106.2371875L96.1047125,105.2122875L97.3053125,104.1287875L98.4473125,102.9867875L99.5454125,101.8154875L100.5996125,100.5855875L101.5952125,99.31178750000001L102.5469125,98.0087875L103.4400125,96.6617875L104.2745125,95.25618750000001L105.0652125,93.8359875L105.7826125,92.3718875L106.4415125,90.8784875L107.0564125,89.3410875L107.5981125,87.75988749999999L108.0666125,86.17858749999999L108.4766125,84.5533875L108.8133125,82.8988875L109.0769125,81.2151875L109.2819125,79.50218749999999L109.4136125,77.77448749999999L109.4576125,76.0614875L109.4283125,74.37768750000001L109.3404125,72.7232875L109.1794125,71.0687875L108.9305125,69.4142875L108.6230125,67.7890875L108.2570125,66.1931875L107.8177125,64.6265875L107.3199125,63.074687499999996L106.7489125,61.551987499999996L106.1340125,60.0584875L105.4458125,58.594387499999996L104.6991125,57.1595875L103.8939125,55.7539875L103.0300125,54.3923875L102.1223125,53.0599875L101.1559125,51.7861875L100.1311125,50.5270875L99.0622125,49.3264875L97.9495125,48.1697875L96.7782125,47.042387500000004L95.5630125,45.9882875L94.30381249999999,44.963367500000004L92.98611249999999,43.9970375L91.63911250000001,43.0746375L90.2482125,42.2254375L88.8280125,41.4201675L87.3492125,40.6734675L85.8412125,39.9853275L84.30381249999999,39.3703875L82.7226125,38.8140275L81.11201249999999,38.3162175L79.45761250000001,37.8916275L77.77381249999999,37.5255875L76.0608125,37.2474075L74.3770125,37.0277875L72.69331249999999,36.8960135L71.0242125,36.8374495L69.36971249999999,36.8520915L67.7006125,36.9252975L66.0608125,37.0863575L64.43561249999999,37.3059675L62.8251125,37.5841575L61.243812500000004,37.9355475L59.6625125,38.3601375L58.1106125,38.8433075L56.5879125,39.3850275L55.0945125,39.9853275L53.6303125,40.6588275L52.1808125,41.3908875L50.7753125,42.1668775L49.4136125,43.0160775L48.066612500000005,43.9091875L46.7636125,44.8608775L45.5044125,45.8711275L44.2892125,46.925287499999996L43.1179125,48.0379875L41.9759125,49.1946875L40.8924125,50.409887499999996L39.852892499999996,51.6690875L38.8719225,52.972187500000004L37.9348825,54.3191875L37.0564025,55.7100875L36.2364925,57.1595875L35.4605025,58.6236875L34.7577125,60.1463875L34.1281425,61.698387499999995L33.5424925,63.3088875L33.0154025,64.9486875L32.5761625,66.6324875L32.2101325,68.2868875L31.9173125,69.9560875L31.6976925,71.6104875L31.5512765,73.26498749999999L31.4780695,74.9193875L31.4780695,76.5738875L31.5366335,78.21368749999999L31.6684125,79.8388875L31.873382499999998,81.4494875L32.1369325,83.0599875L32.4736825,84.6412875L32.8836325,86.2078875L33.3375125,87.75988749999999L33.864602500000004,89.2825875L34.4502525,90.7905875L35.1091125,92.2546875L35.8118925,93.7041875L36.5732425,95.1243875L37.4077925,96.5152875L38.2862725,97.86228750000001L39.2233125,99.1800875L40.2189225,100.4538875L41.273112499999996,101.6836875L42.3712125,102.8842875L43.527812499999996,104.0262875L44.7284125,105.1390875L45.9876125,106.1931875L47.2907125,107.1887875L48.6523125,108.1551875L50.043212499999996,109.0628875L51.4781125,109.8974875L52.9715125,110.6880875L54.5234125,111.4054875L56.1193125,112.0936875L57.847012500000005,112.7232875L59.5893125,113.2795875L61.3609125,113.7480875L63.1618125,114.1434875L64.9773125,114.4362875L66.7928125,114.6558875L68.6230125,114.7876875L70.46781250000001,114.8315875ZM70.46781250000001,104.9633875L68.9598125,104.9194875L67.48101249999999,104.8169875L66.01691249999999,104.6265875L64.59661249999999,104.3776875L63.1911125,104.0555875L61.8002125,103.6602875L60.4385125,103.1917875L59.1208125,102.6792875L57.832412500000004,102.0936875L56.5732125,101.4494875L55.3434125,100.7466875L54.1574125,99.9852875L53.0154125,99.16538750000001L51.9027125,98.3015875L50.8485125,97.3791875L49.823612499999996,96.4128875L48.8573125,95.38798750000001L47.934912499999996,94.3337875L47.071012499999995,93.22108750000001L46.2511125,92.06438750000001L45.4898125,90.8784875L44.7870125,89.64858749999999L44.1428125,88.3747875L43.5571125,87.0716875L43.0300125,85.7246875L42.5762125,84.3630875L42.1955125,82.9574875L41.8734125,81.53728749999999L41.609812500000004,80.0731875L41.4341125,78.5650875L41.3316125,77.0570875L41.3024125,75.5782875L41.346312499999996,74.1141875L41.463412500000004,72.6646875L41.6538125,71.24448749999999L41.9173125,69.8242875L42.2540125,68.4186875L42.6494125,67.0570875L43.1032125,65.7246875L43.6303125,64.4069875L44.2160125,63.118587500000004L44.8602125,61.8593875L45.5630125,60.6441875L46.3097125,59.4728875L47.1296125,58.3161875L48.008112499999996,57.218087499999996L48.9305125,56.1492875L49.896812499999996,55.1390875L50.9217125,54.172687499999995L51.9905125,53.2502875L53.1032125,52.3718875L54.2745125,51.5665875L55.4751125,50.8052875L56.7196125,50.1024875L58.008112499999996,49.4435875L59.3258125,48.8579875L60.6728125,48.345487500000004L62.0637125,47.8915875L63.4985125,47.4962875L64.9773125,47.1741875L66.47071249999999,46.9399875L67.9495125,46.7642875L69.4136125,46.676387500000004L70.8631125,46.6617875L72.2980125,46.7202875L73.7328125,46.8374875L75.1530125,47.042387500000004L76.55861250000001,47.3059875L77.9349125,47.6280875L79.2819125,48.0233875L80.6289125,48.491887500000004L81.93191250000001,49.0189875L83.2057125,49.6046875L84.45021249999999,50.2488875L85.6801125,50.9516875L86.8661125,51.7129875L87.9934125,52.5328875L89.1062125,53.411387500000004L90.1603125,54.3337875L91.1852125,55.3147875L92.1516125,56.3396875L93.07401250000001,57.4230875L93.9378125,58.5358875L94.7577125,59.721787500000005L95.5337125,60.9369875L96.2365125,62.1961875L96.8807125,63.499187500000005L97.4663125,64.8461875L97.9788125,66.2371875L98.4473125,67.6719875L98.8280125,69.1360875L99.1354125,70.5855875L99.3551125,72.0350875L99.5161125,73.4699875L99.5893125,74.9047875L99.6040125,76.3542875L99.5454125,77.7890875L99.4136125,79.20938749999999L99.2087125,80.60028750000001L98.9451125,81.9911875L98.6084125,83.36748750000001L98.2131125,84.72908749999999L97.7445125,86.0467875L97.2174125,87.3498875L96.6318125,88.6236875L95.9876125,89.8827875L95.2848125,91.09808749999999L94.5088125,92.2693875L93.6889125,93.41138749999999L92.8104125,94.52408750000001L91.8734125,95.5928875L90.8924125,96.60318749999999L89.8529125,97.56948750000001L88.7694125,98.5065875L87.61281249999999,99.3849875L86.4268125,100.2049875L85.1969125,100.9662875L83.9085125,101.6690875L82.5762125,102.3132875L81.1852125,102.9135875L79.89681250000001,103.3967875L78.59371250000001,103.8066875L77.2614125,104.1580875L75.9290125,104.4508875L74.5674125,104.6704875L73.22041250000001,104.8315875L71.8441125,104.9340875L70.46781250000001,104.9633875ZM70.46781250000001,104.0702875L71.8148125,104.0262875L73.13251249999999,103.9384875L74.4210125,103.7920875L75.6948125,103.5870875L76.9393125,103.3234875L78.4912125,102.9135875L79.9993125,102.4157875L81.4634125,101.8447875L82.8836125,101.2005875L84.2745125,100.4684875L85.60691249999999,99.66318749999999L86.8953125,98.7993875L88.1252125,97.86228750000001L89.31111250000001,96.85208750000001L90.4385125,95.7978875L91.49271250000001,94.67048750000001L92.50291250000001,93.4845875L93.4400125,92.2546875L94.30381249999999,90.96628749999999L95.1091125,89.6338875L95.8412125,88.2429875L96.4854125,86.8227875L97.0564125,85.3586875L97.5542125,83.8505875L97.9641125,82.2986875L98.2277125,81.0541875L98.4327125,79.7803875L98.5791125,78.49188749999999L98.6669125,77.1741875L98.7108125,75.82718750000001L98.6669125,74.4801875L98.5791125,73.1624875L98.4327125,71.8740875L98.2277125,70.60028750000001L97.9641125,69.35578749999999L97.5542125,67.8037875L97.0564125,66.2956875L96.4854125,64.8315875L95.8412125,63.411387500000004L95.1091125,62.0204875L94.30381249999999,60.6880875L93.4400125,59.3996875L92.50291250000001,58.1697875L91.49271250000001,56.9838875L90.4385125,55.8564875L89.31111250000001,54.8022875L88.1252125,53.7920875L86.8953125,52.8549875L85.60691249999999,51.991187499999995L84.2745125,51.1858875L82.8836125,50.4538875L81.4634125,49.8095875L79.9993125,49.2385875L78.4912125,48.740787499999996L76.9393125,48.3308875L75.6948125,48.0672875L74.4210125,47.8622875L73.13251249999999,47.7158875L71.8148125,47.6280875L70.46781250000001,47.5841875L69.1208125,47.6280875L67.8031125,47.7158875L66.5147125,47.8622875L65.24091250000001,48.0672875L63.9964125,48.3308875L62.4444125,48.740787499999996L60.9363125,49.2385875L59.4722125,49.8095875L58.052012500000004,50.4538875L56.6611125,51.1858875L55.3287125,51.991187499999995L54.0403125,52.8549875L52.8104125,53.7920875L51.6245125,54.8022875L50.4971125,55.8564875L49.4429125,56.9838875L48.4327125,58.1697875L47.4956125,59.3996875L46.631812499999995,60.6880875L45.8265125,62.0204875L45.0945125,63.411387500000004L44.4502125,64.8315875L43.8792125,66.2956875L43.381412499999996,67.8037875L42.9715125,69.35578749999999L42.7079125,70.60028750000001L42.5029125,71.8740875L42.3565125,73.1624875L42.2540125,74.4801875L42.2248125,75.82718750000001L42.2540125,77.1741875L42.3565125,78.49188749999999L42.5029125,79.7803875L42.7079125,81.0541875L42.9715125,82.2986875L43.381412499999996,83.8505875L43.8792125,85.3586875L44.4502125,86.8227875L45.0945125,88.2429875L45.8265125,89.6338875L46.631812499999995,90.96628749999999L47.4956125,92.2546875L48.4327125,93.4845875L49.4429125,94.67048750000001L50.4971125,95.7978875L51.6245125,96.85208750000001L52.8104125,97.86228750000001L54.0403125,98.7993875L55.3287125,99.66318749999999L56.6611125,100.4684875L58.052012500000004,101.2005875L59.4722125,101.8447875L60.9363125,102.4157875L62.4444125,102.9135875L63.9964125,103.3234875L65.24091250000001,103.5870875L66.5147125,103.7920875L67.8031125,103.9384875L69.1208125,104.0262875L70.46781250000001,104.0702875Z" fill-rule="evenodd" fill="#000000" fill-opacity="1" style="mix-blend-mode:passthrough"/></g><g><path d="M71.3025375,62.767284296875L62.4006275,65.153854296875L64.4650375,72.869754296875L55.9291875,75.168454296875L53.0155665,64.289984296875L52.9277219,63.806824296875L52.8984375,63.338294296875L52.9277219,62.869774296875L53.0155665,62.415894296875L53.3669605,61.566704296875L53.6305015,61.186024296875L53.9233275,60.834644296875L54.2747175,60.527164296875L54.6553875,60.263624296875L55.0799875,60.058644296875L55.5485075,59.897594296875L74.59683749999999,54.787783296875L75.0653375,54.699938696875L75.5338375,54.670654296875L76.0024375,54.699938696875L76.4562375,54.787783296875L76.8955375,54.934195296875004L77.3201375,55.153815296875L77.71543750000001,55.417365296875L78.06683749999999,55.724824296875L78.37423749999999,56.076224296875L78.6378375,56.456894296875L78.8428375,56.881494296875L78.9892375,57.335374296875L82.4592375,70.263654296875L82.5616375,70.805354296875L82.5763375,71.361754296875L82.5177375,71.903454296875L82.3713375,72.415854296875L82.1371375,72.913654296875L81.8296375,73.382254296875L75.4313375,81.669154296875L76.8076375,86.866854296875L68.2718375,89.150854296875L65.8706375,80.175754296875L73.3669375,70.483254296875L71.3025375,62.767284296875ZM79.3259375,96.22265429687499L70.7901375,98.506654296875L68.8867375,91.420254296875L77.42263750000001,89.136254296875L79.3259375,96.22265429687499Z" fill="#006DE2" fill-opacity="1"/></g><g><path d="M73.3669375,70.483254296875L71.3025375,62.767284296875L62.4006275,65.153854296875L64.4650375,72.869754296875L55.9291875,75.168454296875L53.0155665,64.289984296875L52.9277219,63.806824296875L52.8984375,63.338294296875L52.9277219,62.869774296875L53.0155665,62.415894296875L53.1766165,61.976664296875L53.6305015,61.186024296875L54.2747175,60.527164296875L54.6553875,60.263624296875L55.0799875,60.058644296875L55.5485075,59.897594296875L74.59683749999999,54.787783296875L75.0653375,54.699938696875L75.5338375,54.670654296875L76.0024375,54.699938696875L76.4562375,54.787783296875L76.8955375,54.934195296875004L77.3201375,55.153815296875L77.71543750000001,55.417365296875L78.06683749999999,55.724824296875L78.37423749999999,56.076224296875L78.6378375,56.456894296875L78.8428375,56.881494296875L78.9892375,57.335374296875L82.4592375,70.263654296875L82.5616375,70.805354296875L82.5763375,71.361754296875L82.5177375,71.903454296875L82.3713375,72.415854296875L82.1371375,72.913654296875L81.8296375,73.382254296875L75.4313375,81.669154296875L76.8076375,86.866854296875L68.2718375,89.150854296875L65.8706375,80.175754296875L73.3669375,70.483254296875ZM66.8515375,80.380754296875L74.3479375,70.688254296875L71.9321375,61.669184296875L61.3025275,64.509604296875L63.3669375,72.240154296875L56.5587575,74.055754296875L53.8794055,64.055724296875L53.8208365,63.704334296875004L53.8208365,63.001554296875L53.9965375,62.328044296875L54.1575875,62.020584296875L54.3479175,61.713114296875L54.8457275,61.229954296875L55.446017499999996,60.878564296875L55.7827775,60.761434296875L75.18243749999999,55.578416296875L75.5338375,55.563778296875L76.2220375,55.651622296875L76.8662375,55.915164296875L77.1737375,56.120144296875L77.6568375,56.617944296875L78.0082375,57.218244296875L78.1253375,57.554994296875L81.5953375,70.483254296875L81.6832375,70.907854296875L81.69783749999999,71.303154296875L81.63923750000001,71.713154296875L81.5368375,72.108454296875L81.3611375,72.489054296875L81.1268375,72.82585429687501L74.4357375,81.464254296875L75.7095375,86.22265429687499L68.9160375,88.05275429687501L66.8515375,80.380754296875ZM79.3259375,96.22265429687499L70.7754375,98.506654296875L68.8720375,91.420254296875L77.42263750000001,89.136254296875L79.3259375,96.22265429687499ZM78.22783749999999,95.59305429687501L71.4196375,97.408554296875L69.9848375,92.064554296875L76.7930375,90.234354296875L78.22783749999999,95.59305429687501Z" fill-rule="evenodd" fill="#000000" fill-opacity="1" style="mix-blend-mode:passthrough"/></g></g></g></svg>