<svg xmlns="http://www.w3.org/2000/svg" xmlns:xlink="http://www.w3.org/1999/xlink" fill="none" version="1.1" width="140" height="140" viewBox="0 0 140 140"><defs><mask id="master_svg0_57640_189197" style="mask-type:alpha" maskUnits="userSpaceOnUse"><g><rect x="0" y="0" width="140" height="140" rx="0" fill="#FFFFFF" fill-opacity="1"/></g></mask><clipPath id="master_svg1_57640_189198"><rect x="-30" y="-30" width="200" height="200" rx="0"/></clipPath></defs><g mask="url(#master_svg0_57640_189197)"><g clip-path="url(#master_svg1_57640_189198)"><g><path d="M127.36509375,70.000049609375L127.29209375,72.81114960937501L127.08709375,75.622349609375L126.75009375,78.418849609375L126.26709375,81.200649609375L125.65209375,83.953249609375L124.89009375,86.661849609375L124.01209375,89.341249609375L123.00209375,91.961949609375L121.86009375,94.538849609375L120.60109375,97.057149609375L119.21009375,99.502249609375L117.70209375,101.874149609375L116.07609375,104.187449609375L114.34909375,106.398349609375L112.50399375,108.535949609375L110.55669375,110.571049609375L108.52149375,112.518349609375L106.38389375,114.348849609375L104.17309375,116.075849609375L101.85979375,117.701849609375L99.48789375,119.209849609375L97.02809375,120.600849609375L94.52449375,121.859849609375L91.94759375,123.001849609375L89.32679375,124.026849609375L86.64749375,124.904849609375L83.93879375,125.651849609375L81.18629375,126.280849609375L78.41909375,126.749849609375L75.62259375,127.100849609375L72.81139375000001,127.305849609375L69.98569375,127.378849609375L67.17449375000001,127.305849609375L64.36339375,127.100849609375L61.56689375,126.763849609375L58.78509375,126.280849609375L56.04719375,125.665849609375L53.33849375,124.904849609375L50.65919375,124.026849609375L48.03839375,123.001849609375L45.46149375,121.859849609375L42.94319375,120.600849609375L40.498093749999995,119.209849609375L38.12619375,117.701849609375L35.81289375,116.075849609375L33.60209375,114.348849609375L31.46439375,112.503749609375L29.42929375,110.571049609375L27.48199375,108.521249609375L25.63719375,106.398349609375L23.90949375,104.172849609375L22.284343749999998,101.874149609375L20.776283749999997,99.502249609375L19.38536375,97.042549609375L18.12622375,94.538849609375L16.98419375,91.961949609375L15.97394375,89.326549609375L15.09547375,86.647249609375L14.34876375,83.938549609375L13.73383375,81.186049609375L13.25066775,78.404149609375L12.89927775,75.622349609375L12.69430015,72.81114960937501L12.62109375,70.000049609375L12.67965805,67.188949609375L12.89927775,64.377749609375L13.25066775,61.581349609375L13.71919375,58.799449609375L14.34876375,56.046949609375L15.09547375,53.338249609375L15.97394375,50.658949609375L16.98419375,48.038149609375L18.12622375,45.461249609375L19.38536375,42.942949609375L20.776283749999997,40.497849609374995L22.284343749999998,38.125949609375L23.90949375,35.812649609375L25.63719375,33.601849609375L27.48199375,31.464149609375L29.41469375,29.429049609375L31.46439375,27.481749609375L33.587393750000004,25.651549609375L35.81289375,23.923949609375L38.11159375,22.298739609374998L40.498093749999995,20.790689609375L42.94319375,19.399759609375L45.46149375,18.140609609374998L48.03839375,16.998589609375L50.65919375,15.988349609375L53.33849375,15.109869609375L56.04719375,14.363159609375L58.79969375,13.733589609375L61.58159375,13.265065609375L64.36339375,12.899033609375L67.17449375000001,12.694056009375L69.98569375,12.620849609375L72.81139375000001,12.694056009375L75.62259375,12.899033609375L78.40439375,13.250423609375L81.18629375,13.718949609375L83.93879375,14.348519609375L86.64749375,15.095229609375L89.32679375,15.973699609375L91.94759375,16.998589609375L94.52449375,18.140609609374998L97.04279375,19.399759609375L99.48789375,20.790689609375L101.87439375,22.298739609374998L104.17309375,23.923949609375L106.38389375,25.651549609375L108.52149375,27.496449609375L110.55669375,29.429049609375L112.50399375,31.464149609375L114.33409375,33.601849609375L116.07609375,35.827249609375L117.68709375,38.125949609375L119.19509375,40.497849609374995L120.58609375,42.957549609375L121.86009375,45.475849609375L123.00209375,48.038149609375L124.01209375,50.658949609375L124.89009375,53.338249609375L125.65209375,56.046949609375L126.26709375,58.799449609375L126.75009375,61.581349609375L127.08709375,64.377749609375L127.29209375,67.188949609375L127.36509375,70.000049609375Z" fill="#F3F3F3" fill-opacity="1" style="mix-blend-mode:passthrough"/></g><g><path d="M58.553940624999996,102.3713125L58.512540625,103.4341125L58.346940625,104.4693125L58.098540625,105.4907125L57.739640625,106.4845125L57.284140625,107.4507125L56.745840625,108.3479125L56.110940625,109.1898125L55.406940625000004,109.9766125L54.620240625,110.68051249999999L53.764440625,111.3155125L52.853440625,111.8538125L51.901040625,112.3093125L50.907240625,112.6543125L49.885840625,112.9166125L48.836840625,113.0684125L47.774040625,113.12361250000001L46.711250625,113.0684125L45.676050625,112.9166125L44.640850625,112.6543125L43.647050625,112.3093125L42.694660625,111.8538125L41.783680625,111.3155125L40.927910625,110.68051249999999L40.154960625,109.9766125L39.437220625,109.1898125L38.802300625,108.3479125L38.263990625,107.4507125L37.808499625,106.4845125L37.449628625,105.4907125L37.201181625,104.4693125L37.049350625,103.4341125L36.994140625,102.3713125L37.049350625,101.3223125L37.201181625,100.2733125L37.449628625,99.2519025L37.808499625,98.2581125L38.263990625,97.3057225L38.802300625,96.3947525L39.437220625,95.5527825L40.154960625,94.7660225L40.927910625,94.0620925L41.783680625,93.4271625L42.694660625,92.9026525L43.647050625,92.4471675L44.640850625,92.0883005L45.676050625,91.8398535L46.711250625,91.6880183L47.774040625,91.6328125L48.836840625,91.6880183L49.885840625,91.8398535L50.907240625,92.0883005L51.901040625,92.4471675L52.853440625,92.9026525L53.764440625,93.4271625L54.620240625,94.0620925L55.406940625000004,94.7660225L56.110940625,95.5527825L56.745840625,96.3947525L57.284140625,97.3057225L57.739640625,98.2581125L58.098540625,99.2519025L58.346940625,100.2733125L58.512540625,101.3223125L58.553940624999996,102.3713125Z" fill="#006DE2" fill-opacity="1"/></g><g><path d="M58.55406875,102.3713185546875L58.52646875,103.1995185546875L58.44366875,104.0000185546875L58.29186875,104.7730185546875L58.09866875,105.5459185546875L57.83636875,106.2913185546875L57.518868749999996,107.0090185546875L57.16006875,107.7130185546875L56.75976875,108.3755185546875L56.29046875,109.0104185546875L55.79356875,109.6177185546875L55.25526875,110.1837185546875L54.66176875,110.7082185546875L54.02686875,111.1913185546875L53.36426875,111.6329185546875L52.66036875,112.0194185546875L51.91496875,112.36451855468749L51.155868749999996,112.6543185546875L50.38286875,112.8752185546875L49.596168750000004,113.0408185546875L48.809368750000004,113.1512185546875L48.02266875,113.1926185546875L47.23586875,113.1788185546875L46.46293875,113.1236185546875L45.67617875,112.99941855468751L44.91702875,112.8200185546875L44.17168875,112.5853185546875L43.44013875,112.2955185546875L42.722398749999996,111.9504185546875L42.04606875,111.5501185546875L41.38353875,111.1084185546875L40.74860875,110.5977185546875L40.15508875,110.04561855468751L39.58917875,109.4521185546875L39.09227875,108.8172185546875L38.63679875,108.1685185546875L38.23651875,107.4783185546875L37.89144875,106.7606185546875L37.60159075,106.0290185546875L37.36694275,105.2837185546875L37.18750975,104.5245185546875L37.06328595,103.7516185546875L36.99427235,102.9648185546875L36.98046875,102.1781185546875L37.02187525,101.39133855468751L37.13229975,100.6045885546875L37.28412975,99.8316385546875L37.51877375,99.0586885546875L37.79482775,98.2857285546875L38.13989875,97.5403885546875L38.52637875,96.83644855468751L38.96805875,96.1739185546875L39.43734875,95.5389885546875L39.97565875,94.9454785546875L40.52776875,94.4071685546875L41.13508875,93.8964685546875L41.77000875,93.4409785546875L42.43253875,93.0268985546875L43.13647875,92.6680285546875L43.85421875,92.3505605546875L44.59956875,92.0883145546875L45.37251875,91.8812735546875L46.14546875,91.7432465546875L46.946028749999996,91.6466256546875L47.77416875,91.6190185546875L48.72656875,91.6604250546875L49.65136875,91.7846525546875L50.56236875,91.9778945546875L51.45956875,92.2677475546875L52.31526875,92.6128155546875L53.15726875,93.0406985546875L53.943968749999996,93.5513985546875L54.68936875,94.1173185546875L55.393268750000004,94.7660385546875L56.04206875,95.4561685546875L56.60796875,96.2015185546875L57.10486875,97.0020785546875L57.54646875,97.8302385546875L57.90536875,98.6860085546875L58.18146875,99.5831885546875L58.38846875,100.4941585546875L58.51266875,101.4189485546875L58.55406875,102.3713185546875ZM57.712168750000004,102.3713185546875L57.68456875,101.61218855468749L57.601768750000005,100.8668385546875L57.46366875,100.1352985546875L57.02196875,98.7412285546875L56.73216875,98.0786885546875L56.02816875,96.83644855468751L55.60036875,96.2567385546875L54.63416875,95.1939285546875L53.529968749999995,94.2829385546875L52.922568749999996,93.8964685546875L51.638968750000004,93.2339385546875L50.94886875,92.9716785546875L50.24486875,92.7646385546875L49.51336875,92.6128155546875L48.75416875,92.5161955546875L47.98126875,92.4747885546875L47.23586875,92.4885875546875L46.50433875,92.5576015546875L45.77279875,92.6818285546875L44.37872875,93.0821085546875L43.71618875,93.3581685546875L42.46014875,94.0344985546875L41.31451875,94.8902685546875L40.79001875,95.3871585546875L39.85142875,96.4775785546875L39.43734875,97.0710885546875L38.74721875,98.3547385546875L38.48496875,99.0448785546875L38.26411875,99.76261855468749L38.08468875,100.5079685546875L37.97426575,101.2671185546875L37.91905175,102.0124185546875L37.91905175,102.7440185546875L37.97426575,103.4755185546875L38.08468875,104.2071185546875L38.44355875,105.6012185546875L38.70580875,106.2637185546875L39.36833875,107.5335185546875L40.19649875,108.7068185546875L40.67959875,109.2313185546875L41.74240875,110.19751855468749L42.33591875,110.6253185546875L42.97084875,111.0118185546875L43.61957875,111.34311855468749L44.30970875,111.6329185546875L45.04125875,111.8814185546875L45.786598749999996,112.0608185546875L46.51813875,112.1850185546875L47.26346875,112.2541185546875L47.98126875,112.2679185546875L49.43056875,112.14361855468749L50.134468749999996,111.9918185546875L51.50096875,111.5501185546875L52.78456875,110.9290185546875L53.39186875,110.5425185546875L54.52376875,109.6454185546875L55.03446875,109.1485185546875L55.95916875,108.00281855468751L56.34566875,107.3817185546875L56.70456875,106.7192185546875L57.008168749999996,106.0290185546875L57.229068749999996,105.4355185546875L57.53266875,104.2347185546875L57.69836875,102.9924185546875L57.712168750000004,102.3713185546875Z" fill-rule="evenodd" fill="#000000" fill-opacity="1" style="mix-blend-mode:passthrough"/></g><g><path d="M105.75889062499999,102.3713064453125L105.70369062500001,103.4341064453125L105.551890625,104.4693064453125L105.303490625,105.4907064453125L104.944590625,106.4845064453125L104.489090625,107.4507064453125L103.93699062499999,108.3479064453125L103.31589062500001,109.1898064453125L102.598090625,109.9766064453125L101.811390625,110.68060644531249L100.969390625,111.31550644531251L100.058390625,111.8538064453125L99.105990625,112.3093064453125L98.112190625,112.6543064453125L97.07699062500001,112.9166064453125L96.027990625,113.0684064453125L94.978990625,113.1236064453125L93.916200625,113.0684064453125L92.867200625,112.9166064453125L91.845790625,112.6543064453125L90.851990625,112.3093064453125L89.885800625,111.8538064453125L88.974830625,111.31550644531251L87.732580625,110.3355064453125L86.987230625,109.5901064453125L86.310900625,108.7758064453125L85.731190625,107.9062064453125L85.234290625,106.9676064453125L84.834012625,106.0014064453125L84.530351625,104.9938064453125L84.323310625,103.9586064453125L84.212890625,102.8958064453125L84.212890625,101.8468064453125L84.323310625,100.7978064453125L84.530351625,99.7626064453125L84.834012625,98.7550064453125L85.234290625,97.7750164453125L85.731190625,96.8502364453125L86.310900625,95.9668564453125L86.987230625,95.1524964453125L87.732580625,94.4071464453125L88.546940625,93.7446164453125L89.43032062500001,93.1511064453125L90.368900625,92.6542064453125L91.348900625,92.2539294453125L92.35649062499999,91.9502674453125L93.391700625,91.7432271453125L94.454490625,91.6466064453125L95.503490625,91.6466064453125L96.566290625,91.7432271453125L97.601490625,91.9502674453125L98.609090625,92.2539294453125L99.589090625,92.6542064453125L100.527690625,93.1511064453125L101.397290625,93.7446164453125L102.211590625,94.4071464453125L102.970790625,95.1524964453125L103.93699062499999,96.3947464453125L104.489090625,97.3057164453125L104.944590625,98.2581164453125L105.303490625,99.2518964453125L105.551890625,100.2733064453125L105.70369062500001,101.3223064453125L105.75889062499999,102.3713064453125Z" fill="#006DE2" fill-opacity="1"/></g><g><path d="M105.759146875,102.3713185546875L105.73154687499999,103.1995185546875L105.648746875,104.0000185546875L105.49694687499999,104.7730185546875L105.289946875,105.5459185546875L105.04144687499999,106.2913185546875L104.723946875,107.0090185546875L104.365146875,107.7130185546875L103.951046875,108.3755185546875L103.495546875,109.0104185546875L102.99864687499999,109.6177185546875L102.446546875,110.1837185546875L101.866846875,110.7082185546875L101.231946875,111.1913185546875L100.56934687500001,111.6329185546875L99.865446875,112.0194185546875L99.120046875,112.36451855468749L98.34714687499999,112.6543185546875L97.574146875,112.8752185546875L96.801246875,113.0408185546875L96.014446875,113.1512185546875L95.227746875,113.1926185546875L94.440946875,113.1788185546875L93.654206875,113.1236185546875L92.881256875,112.99941855468751L92.122106875,112.8200185546875L91.376756875,112.5853185546875L90.645216875,112.2955185546875L89.927476875,111.9504185546875L89.237336875,111.5501185546875L88.588616875,111.1084185546875L87.953686875,110.6115185546875L87.346376875,110.04561855468751L86.794266875,109.4521185546875L86.297356875,108.8172185546875L85.841876875,108.1685185546875L85.441586875,107.4783185546875L85.096522875,106.7606185546875L84.806668875,106.0290185546875L84.572020875,105.2837185546875L84.392587875,104.5245185546875L84.268359775,103.7516185546875L84.199346175,102.9648185546875L84.185546875,102.1919185546875L84.226953375,101.39133855468751L84.323573875,100.6045885546875L84.489207875,99.8316385546875L84.710048875,99.0586885546875L84.999910875,98.2857285546875L85.344976875,97.5403885546875L85.731456875,96.83644855468751L86.159336875,96.1739185546875L86.642426875,95.5389885546875L87.166926875,94.9454785546875L87.732846875,94.4071685546875L88.340156875,93.8964685546875L88.975086875,93.4409785546875L89.637616875,93.0268985546875L90.327756875,92.6680285546875L91.059296875,92.3505605546875L91.804646875,92.0883145546875L92.563796875,91.8812735546875L93.350556875,91.7432465546875L94.151106875,91.6466256546875L94.965446875,91.6190185546875L95.917846875,91.6604250546875L96.856446875,91.7846525546875L97.767446875,91.9778945546875L98.664646875,92.2677475546875L99.520346875,92.6128155546875L100.348546875,93.0545085546875L101.149046875,93.5513985546875L101.894446875,94.1173185546875L102.598346875,94.7660385546875L103.23324687499999,95.4561685546875L103.813046875,96.2015185546875L104.30994687500001,97.0020785546875L104.737746875,97.8302385546875L105.096646875,98.6860085546875L105.386546875,99.5831885546875L105.593546875,100.4941585546875L105.717746875,101.4189485546875L105.759146875,102.3713185546875ZM104.917246875,102.3713185546875L104.87584687500001,101.61218855468749L104.793046875,100.8668385546875L104.65494687500001,100.1352985546875L104.213246875,98.7274185546875L103.578346875,97.4161585546875L103.191846875,96.7950385546875L102.750246875,96.2153185546875L101.770246875,95.1387085546875L100.624546875,94.2139285546875L99.989646875,93.8136585546875L99.327146875,93.4685885546875L98.636946875,93.1649285546875L97.850246875,92.8888685546875L97.077246875,92.6818285546875L96.304346875,92.5438025546875L95.531346875,92.4747885546875L94.744646875,92.4609895546875L93.971676875,92.5023955546875L93.212526875,92.6128155546875L92.467176875,92.7784485546875L91.735636875,92.9992885546875L91.031686875,93.2753485546875L90.341556875,93.5928085546875L89.679026875,93.9792885546875L89.044106875,94.4071685546875L88.450586875,94.8902685546875L87.884676875,95.4147685546875L87.360166875,95.9944785546875L86.877076875,96.6156085546875L86.449196875,97.2643285546875L86.062716875,97.9682685546875L85.717646875,98.7274185546875L85.469196875,99.4313585546875L85.289766875,100.1490985546875L85.068923875,101.5845785546875L85.055115875,103.0200185546875L85.248356875,104.4417185546875L85.648626875,105.8220185546875L86.255956875,107.1333185546875L86.628626875,107.7544185546875L87.042706875,108.3617185546875L88.022696875,109.47971855468751L89.168326875,110.43211855468749L89.775646875,110.83241855468751L90.396766875,111.1913185546875L91.721826875,111.7572185546875L93.11590687500001,112.1298185546875L94.537546875,112.2955185546875L95.986846875,112.2541185546875L96.704646875,112.1574185546875L97.408546875,111.9918185546875L98.816446875,111.52251855468751L100.141446875,110.8462185546875L100.748846875,110.4459185546875L101.328546875,110.0042185546875L102.363746875,108.9966185546875L103.247146875,107.8648185546875L103.951046875,106.6226185546875L104.47554687499999,105.26991855468751L104.793046875,103.8620185546875L104.903446875,102.3713185546875L104.917246875,102.3713185546875Z" fill-rule="evenodd" fill="#000000" fill-opacity="1" style="mix-blend-mode:passthrough"/></g><g><path d="M35.62890625,39.182373046875L39.81112625,100.56307304687499L39.86633625,101.004773046875L40.14239625,101.805273046875L40.33562625,102.177973046875L40.87393625,102.812873046875L41.536466250000004,103.295973046875L41.92294625,103.475473046875L42.73730625,103.696273046875L43.17898625,103.723873046875L108.74190625,103.723873046875L109.51480625,103.682473046875L110.26020625,103.558273046875L110.97790625,103.351173046875L111.66810625,103.06137304687499L112.31680625,102.716273046875L112.91030625,102.288373046875L113.46240625,101.805273046875L113.95930625,101.266973046875L114.40100625,100.659673046875L114.78750625,100.010973046875L115.07730625,99.32077304687499L115.31200625,98.58927304687501L130.03950625,39.182373046875L35.62890625,39.182373046875Z" fill="#F2F3FF" fill-opacity="1" style="mix-blend-mode:passthrough"/></g><g><path d="M39.81112625,100.56307304687499L35.62890625,39.182373046875L130.03950625,39.182373046875L115.31200625,98.58927304687501L115.07730625,99.32077304687499L114.78750625,100.010973046875L114.40100625,100.659673046875L113.95930625,101.266973046875L113.46240625,101.805273046875L112.91030625,102.288373046875L112.31680625,102.716273046875L111.66810625,103.06137304687499L110.97790625,103.351173046875L110.26020625,103.558273046875L109.51480625,103.682473046875L108.74190625,103.723873046875L43.17898625,103.723873046875L42.73730625,103.696273046875L41.92294625,103.475473046875L41.536466250000004,103.295973046875L40.87393625,102.812873046875L40.33562625,102.177973046875L40.14239625,101.805273046875L39.86633625,101.004773046875L39.81112625,100.56307304687499ZM36.53988225,40.024340046875L40.65309625,100.507873046875L40.72210625,100.949573046875L40.86013625,101.349773046875L41.05337625,101.70867304687499L41.30181625,102.03997304687499L41.60548625,102.329773046875L41.95054625,102.550673046875L42.33702625,102.73007304687499L42.73730625,102.84047304687499L43.17898625,102.868073046875L108.74190625,102.868073046875L109.41820625,102.84047304687499L110.06690625,102.73007304687499L110.70190625,102.536873046875L111.29540625,102.288373046875L111.86130625,101.984773046875L112.38580625,101.612073046875L112.86890625,101.197973046875L113.31060625,100.714873046875L113.69710625,100.19037304687501L114.01450625,99.638273046875L114.29060625,99.030973046875L114.48380625,98.382273046875L128.94910625,40.024340046875L36.53988225,40.024340046875Z" fill-rule="evenodd" fill="#000000" fill-opacity="1" style="mix-blend-mode:passthrough"/></g><g><path d="M18.09765625,39.182373046875L22.27987625,100.56307304687499L22.33508625,101.004773046875L22.61114625,101.805273046875L22.80437625,102.177973046875L23.34268625,102.812873046875L24.00521625,103.295973046875L24.39169625,103.475473046875L25.20605625,103.696273046875L25.64773625,103.723873046875L91.21065625,103.723873046875L91.98355625,103.682473046875L92.72895625,103.558273046875L93.44665625,103.351173046875L94.12305625,103.06137304687499L94.77175625,102.716273046875L95.37905625,102.288373046875L95.93115625,101.805273046875L96.42805625,101.266973046875L96.86975625,100.659673046875L97.24245625,100.024773046875L97.54605625,99.334673046875L97.78075625,98.58927304687501L112.50825625,39.182373046875L18.09765625,39.182373046875Z" fill="#FFFFFF" fill-opacity="1" style="mix-blend-mode:passthrough"/></g><g><path d="M22.27987625,100.56307304687499L18.09765625,39.182373046875L112.50825625,39.182373046875L97.76695625,98.58927304687501L97.54605625,99.32077304687499L97.24245625,100.010973046875L96.86975625,100.659673046875L96.42805625,101.266973046875L95.93115625,101.805273046875L95.37905625,102.288373046875L94.77175625,102.702473046875L94.12305625,103.06137304687499L93.44665625,103.351173046875L92.72895625,103.558273046875L91.98355625,103.682473046875L91.21065625,103.723873046875L25.64773625,103.723873046875L25.20605625,103.696273046875L24.39169625,103.475473046875L24.00521625,103.295973046875L23.34268625,102.812873046875L22.80437625,102.177973046875L22.61114625,101.805273046875L22.33508625,101.004773046875L22.27987625,100.56307304687499ZM19.00863225,40.024340046875L23.12184625,100.507873046875L23.19085625,100.949573046875L23.32888625,101.349773046875L23.52212625,101.70867304687499L23.78437625,102.03997304687499L24.07423625,102.329773046875L24.419296250000002,102.550673046875L24.80577625,102.73007304687499L25.20605625,102.84047304687499L25.64773625,102.868073046875L91.21065625,102.868073046875L91.88695625,102.84047304687499L92.53565625,102.716273046875L93.17065625,102.536873046875L93.76415625,102.288373046875L94.33005625,101.984773046875L94.85455625,101.612073046875L95.33765625,101.184173046875L95.77935625,100.714873046875L96.16585625,100.19037304687501L96.48325625,99.638273046875L96.74555625,99.030973046875L96.95255625,98.382273046875L111.41785625,40.024340046875L19.00863225,40.024340046875Z" fill-rule="evenodd" fill="#000000" fill-opacity="1" style="mix-blend-mode:passthrough"/></g><g><path d="M46.421,102.3713064453125L46.3658,103.4341064453125L46.214,104.4693064453125L45.9517,105.4907064453125L45.606700000000004,106.4845064453125L45.1512,107.4507064453125L44.5991,108.3479064453125L43.978,109.1898064453125L43.2602,109.9766064453125L42.4735,110.68060644531249L41.6315,111.31550644531251L40.7205,111.8538064453125L39.768100000000004,112.3093064453125L38.7743,112.6543064453125L37.7391,112.9166064453125L36.6901,113.0684064453125L35.6411,113.1236064453125L34.57831,113.0684064453125L33.52931,112.9166064453125L32.50791,112.6543064453125L31.51411,112.3093064453125L30.54792,111.8538064453125L29.63694,111.31550644531251L28.39469,110.3355064453125L27.64935,109.5901064453125L26.97301,108.7758064453125L26.3933,107.9062064453125L25.8826,106.9676064453125L25.482323,106.0014064453125L25.178661,104.9938064453125L24.9716207,103.9586064453125L24.875,102.8958064453125L24.875,101.8468064453125L24.9716207,100.7978064453125L25.178661,99.7626064453125L25.482323,98.7550064453125L25.8826,97.7750164453125L26.3933,96.8502364453125L26.97301,95.9668564453125L27.64935,95.1524964453125L28.39469,94.4071464453125L29.20906,93.7446164453125L30.09243,93.1511064453125L31.031010000000002,92.6542064453125L31.9972,92.2539294453125L33.0186,91.9502674453125L34.05381,91.7432271453125L35.1028,91.6466064453125L36.1656,91.6466064453125L37.214600000000004,91.7432271453125L38.2636,91.9502674453125L39.2712,92.2539294453125L40.2512,92.6542064453125L41.189800000000005,93.1511064453125L42.0594,93.7446164453125L42.8737,94.4071464453125L43.6329,95.1524964453125L44.5991,96.3947464453125L45.1512,97.3057164453125L45.606700000000004,98.2581164453125L45.9517,99.2518964453125L46.214,100.2733064453125L46.3658,101.3223064453125L46.421,102.3713064453125Z" fill="#FFFFFF" fill-opacity="1" style="mix-blend-mode:passthrough"/></g><g><path d="M46.42125625,102.3713185546875L46.39365625,103.1995185546875L46.29705625,104.0000185546875L46.15905625,104.7730185546875L45.95205625,105.5459185546875L45.68975625,106.2913185546875L45.386056249999996,107.0090185546875L45.02725625,107.7130185546875L44.61315625,108.3755185546875L44.15765625,109.0104185546875L43.66075625,109.6177185546875L43.108656249999996,110.1837185546875L42.515156250000004,110.7082185546875L41.89405625,111.1913185546875L41.23145625,111.6329185546875L40.52755625,112.0194185546875L39.78215625,112.36451855468749L39.00925625,112.6543185546875L38.23625625,112.8752185546875L37.463356250000004,113.0408185546875L36.676556250000004,113.1512185546875L35.88985625,113.1926185546875L35.10305625,113.1788185546875L34.31632625,113.1236185546875L33.54336625,112.99941855468751L32.78421625,112.8200185546875L32.03887625,112.5853185546875L31.30732625,112.2955185546875L30.58958625,111.9504185546875L29.89945625,111.5501185546875L29.25072625,111.1084185546875L28.61579625,110.6115185546875L28.00847625,110.04561855468751L27.45636625,109.4521185546875L26.94566625,108.8172185546875L26.50398625,108.1685185546875L26.103706250000002,107.4783185546875L25.75863625,106.7606185546875L25.46877825,106.0290185546875L25.23413025,105.2837185546875L25.05469725,104.5245185546875L24.93047345,103.7516185546875L24.86145985,102.9648185546875L24.84765625,102.1919185546875L24.88906275,101.39133855468751L24.98568325,100.6045885546875L25.15131325,99.8316385546875L25.37215825,99.0586885546875L25.66201525,98.2857285546875L26.00708625,97.5403885546875L26.39355625,96.83644855468751L26.82144625,96.1739185546875L27.304536249999998,95.5389885546875L27.82904625,94.9454785546875L28.39495625,94.4071685546875L29.00227625,93.8964685546875L29.63719625,93.4409785546875L30.29972625,93.0268985546875L30.98986625,92.6680285546875L31.72140625,92.3505605546875L32.46675625,92.0883145546875L33.22590625,91.8812735546875L34.01265625,91.7432465546875L34.813216249999996,91.6466256546875L35.62755625,91.6190185546875L36.57995625,91.6604250546875L37.51855625,91.7846525546875L38.42955625,91.9778945546875L39.32665625,92.2677475546875L40.18245625,92.6128155546875L41.01065625,93.0545085546875L41.79735625,93.5513985546875L42.54275625,94.1173185546875L43.24665625,94.7660385546875L43.89535625,95.4561685546875L44.47515625,96.2015185546875L44.97205625,97.0020785546875L45.39985625,97.8302385546875L45.758756250000005,98.6860085546875L46.04865625,99.5831885546875L46.25565625,100.4941585546875L46.37985625,101.4189485546875L46.42125625,102.3713185546875ZM45.579356250000004,102.3713185546875L45.53795625,101.61218855468749L45.45515625,100.8668385546875L45.31705625,100.1352985546875L44.875356249999996,98.7274185546875L44.24045625,97.4161585546875L43.853956249999996,96.7950385546875L43.41235625,96.2153185546875L42.43235625,95.1387085546875L41.272856250000004,94.2139285546875L40.65175625,93.8136585546875L39.98925625,93.4685885546875L39.29905625,93.1649285546875L38.512356249999996,92.8888685546875L37.73935625,92.6818285546875L36.96645625,92.5438025546875L36.17965625,92.4747885546875L35.40675625,92.4609895546875L34.63378625,92.5023955546875L33.87463625,92.6128155546875L33.12928625,92.7784485546875L32.39773625,92.9992885546875L31.680006249999998,93.2753485546875L31.003666250000002,93.5928085546875L30.341136249999998,93.9792885546875L29.70620625,94.4071685546875L29.11269625,94.8902685546875L28.54678625,95.4147685546875L28.02227625,95.9944785546875L27.53918625,96.6156085546875L27.11129625,97.2643285546875L26.72482625,97.9682685546875L26.37975625,98.7274185546875L25.93806625,100.1490985546875L25.73102925,101.5845785546875L25.71722525,103.0200185546875L25.91046625,104.4417185546875L26.31074625,105.8220185546875L26.91806625,107.1333185546875L27.70481625,108.3617185546875L28.68480625,109.47971855468751L29.830436249999998,110.43211855468749L31.05887625,111.1913185546875L32.38393625,111.7572185546875L33.77801625,112.1298185546875L35.199656250000004,112.2955185546875L36.64895625,112.2541185546875L38.07065625,111.9918185546875L39.47855625,111.52251855468751L40.80355625,110.8462185546875L41.99065625,110.0042185546875L43.025856250000004,108.9966185546875L43.90925625,107.8648185546875L44.61315625,106.6226185546875L45.13765625,105.26991855468751L45.45515625,103.8620185546875L45.56555625,102.3713185546875L45.579356250000004,102.3713185546875Z" fill-rule="evenodd" fill="#000000" fill-opacity="1" style="mix-blend-mode:passthrough"/></g><g><path d="M39.67224625,102.371336328125L39.63083625,102.964846328125L39.43759625,103.737796328125L39.10633625,104.441736328125L38.62323625,105.076656328125L38.04352625,105.614966328125L37.36718625,106.015246328125L36.62184625,106.277496328125L35.83509625,106.401726328125L35.04833625,106.360316328125L34.27538625,106.167076328125L33.55764625,105.835806328125L32.92271625,105.352716328125L32.38441325,104.772996328125L31.97033125,104.096666328125L31.70807625,103.351316328125L31.59765625,102.578376328125L31.63906275,101.777816328125L31.81850025,101.018666328125L32.16356825,100.300926328125L32.63285625,99.665996328125L33.22637625,99.141493328125L33.90271625,98.727411328125L34.648056249999996,98.465164328125L35.43480625,98.354736328125L36.23536625,98.382343428125L36.994516250000004,98.575585328125L37.71225625,98.920652328125L38.34718625,99.389936328125L38.88548625,99.969656328125L39.28576625,100.645996328125L39.43759625,101.018666328125L39.60323625,101.584576328125L39.67224625,102.371336328125Z" fill="#006DE2" fill-opacity="1"/></g><g><path d="M39.670421250000004,102.3713423828125L39.62902125,102.9234423828125L39.53240125,103.4341523828125L39.366761249999996,103.9310423828125L39.13212125,104.4003423828125L38.84226125,104.8420223828125L38.49719125,105.2285023828125L38.11072125,105.5873723828125L37.66903125,105.8772223828125L37.18593125,106.1256823828125L36.66143125,106.2913023828125L36.15073125,106.4017323828125L35.626231250000004,106.4293323828125L35.10172125,106.4017323828125L34.59103125,106.2913023828125L34.094131250000004,106.1256823828125L33.62483125,105.9048323828125L33.18315125,105.6011723828125L32.76906125,105.2561023828125L32.41019425,104.8420223828125L32.12033625,104.4003423828125L31.88569225,103.9310423828125L31.72005825,103.4341523828125L31.60963835,102.9234423828125L31.58203125,102.39894238281249L31.60963835,101.8744323828125L31.72005825,101.3499323828125L31.88569225,100.8392323828125L32.13414025,100.3561323828125L32.42399825,99.9144523828125L32.76906125,99.5141723828125L33.16934125,99.1691053828125L33.59723125,98.8792513828125L34.06652125,98.6446033828125L34.56342125,98.4789693828125L35.08792125,98.3823488828125L35.626231250000004,98.3409423828125L36.17834125,98.3823488828125L36.70284125,98.4789693828125L37.19974125,98.6584033828125L37.66903125,98.8930513828125L38.09691125,99.1829043828125L38.48339125,99.5141723828125L38.828461250000004,99.9144523828125L39.11831125,100.3285323828125L39.35296125,100.7978223828125L39.51859125,101.2947323828125L39.62902125,101.8192323828125L39.670421250000004,102.3713423828125ZM38.828461250000004,102.3713423828125L38.78705125,101.8744323828125L38.67663125,101.3913423828125L38.49719125,100.9496623828125L38.24875125,100.5355823828125L37.94508125,100.1629023828125L37.58621125,99.8454423828125L37.18593125,99.5831823828125L36.74425125,99.3761423828125L36.26115125,99.2381193828125L35.75045125,99.1691053828125L35.26736125,99.1967123828125L34.79807125,99.2795253828125L34.34257125,99.4451623828125L33.92849125,99.6660023828125L33.54202125,99.9558623828125L33.19695125,100.3009323828125L32.90709125,100.6874023828125L32.68625125,101.1428923828125L32.52061825,101.6259923828125L32.45160525,102.1090823828125L32.43780125,102.5783823828125L32.50681525,103.0614723828125L32.64484125,103.5169623828125L32.85188125,103.9586523828125L33.12794125,104.3451223828125L33.45920125,104.7039923828125L33.85948125,105.0214623828125L34.30117125,105.26991238281249L34.75665125,105.4355423828125L35.22595125,105.5321523828125L35.70904125,105.5597623828125L36.17834125,105.5183523828125L36.64763125,105.3941323828125L37.08931125,105.2146923828125L37.50339125,104.9524523828125L37.88987125,104.6349823828125L38.17973125,104.3175223828125L38.41438125,103.9724523828125L38.73184125,103.1995023828125L38.80085125,102.7992223828125L38.828461250000004,102.3713423828125Z" fill-rule="evenodd" fill="#000000" fill-opacity="1" style="mix-blend-mode:passthrough"/></g><g><path d="M93.62803124999999,102.3713064453125L93.57283125000001,103.4341064453125L93.42103125,104.4693064453125L93.15883124999999,105.4907064453125L92.79993125,106.4845064453125L92.35823125,107.4507064453125L91.81993125,108.3479064453125L91.18503125000001,109.1898064453125L90.48103125,109.9766064453125L89.69433125,110.68060644531249L88.83853125,111.31550644531251L87.92753125,111.8538064453125L86.97513125,112.3093064453125L85.98133125,112.6543064453125L84.94613125000001,112.9166064453125L83.91093125,113.0684064453125L82.84813125,113.1236064453125L81.78534125,113.0684064453125L80.73634125,112.9166064453125L79.71493125,112.6543064453125L78.72114125,112.3093064453125L77.76875125,111.8538064453125L76.85778125,111.31550644531251L75.60172125,110.3355064453125L74.85638125,109.5901064453125L74.18004125,108.7758064453125L73.60033125,107.9062064453125L73.08963125,106.9676064453125L72.68935425,106.0014064453125L72.38569225,104.9938064453125L72.17865195,103.9586064453125L72.08203125,102.8958064453125L72.08203125,101.8468064453125L72.17865195,100.7978064453125L72.38569225,99.7626064453125L72.68935425,98.7550064453125L73.08963125,97.7750164453125L73.60033125,96.8502364453125L74.18004125,95.9668564453125L74.85638125,95.1524964453125L75.60172125,94.4071464453125L76.41609125,93.7446164453125L77.29946125000001,93.1511064453125L78.23805125,92.6542064453125L79.21804125,92.2539294453125L80.22563124999999,91.9502674453125L81.26084125,91.7432271453125L82.32363125,91.6466064453125L83.37263125,91.6466064453125L84.43543125,91.7432271453125L85.47063125,91.9502674453125L86.47823125,92.2539294453125L87.45823125,92.6542064453125L88.39683125,93.1511064453125L89.28023125,93.7446164453125L90.09453125,94.4071464453125L90.83993125,95.1524964453125L91.51623125,95.9668564453125L92.09593125,96.8502364453125L92.59283125,97.7750164453125L93.15883124999999,99.2518964453125L93.42103125,100.2733064453125L93.57283125000001,101.3223064453125L93.62803124999999,102.3713064453125Z" fill="#FFFFFF" fill-opacity="1" style="mix-blend-mode:passthrough"/></g><g><path d="M93.6265625,102.3713185546875L93.58506249999999,103.1995185546875L93.5022625,104.0000185546875L93.3642625,104.7730185546875L93.1572625,105.5459185546875L92.89496249999999,106.2913185546875L92.5912625,107.0090185546875L92.2324625,107.7130185546875L91.8183625,108.3755185546875L91.3628625,109.0104185546875L90.8659625,109.6177185546875L90.3138625,110.1837185546875L89.7203625,110.7082185546875L89.0992625,111.1913185546875L88.4366625,111.6329185546875L87.7327625,112.0194185546875L86.9873625,112.36451855468749L86.2144625,112.6543185546875L85.4414625,112.8752185546875L84.66856250000001,113.0408185546875L83.88176250000001,113.1512185546875L83.0812625,113.1926185546875L82.2944625,113.1788185546875L81.5215325,113.1236185546875L80.7485725,112.99941855468751L79.9756225,112.8200185546875L79.2302725,112.5853185546875L78.4987325,112.2955185546875L77.7947925,111.9504185546875L77.1046625,111.5501185546875L76.4421325,111.1084185546875L75.8210125,110.5977185546875L75.2136825,110.04561855468751L74.6615825,109.4521185546875L74.1508725,108.8172185546875L73.7091925,108.1685185546875L73.3089125,107.4783185546875L72.9638465,106.7606185546875L72.6739845,106.0290185546875L72.4393445,105.2837185546875L72.2461035,104.5245185546875L72.1218754,103.7516185546875L72.0528618,102.9648185546875L72.0390625,102.1781185546875L72.0942767,101.39133855468751L72.1908895,100.6045885546875L72.3565235,99.8316385546875L72.5773715,99.0586885546875L72.8672255,98.2857285546875L73.1984925,97.5403885546875L73.5987725,96.83644855468751L74.0266525,96.1739185546875L74.5097525,95.5389885546875L75.0342525,94.9454785546875L75.6001625,94.4071685546875L76.1936725,93.8964685546875L76.8286025,93.4409785546875L77.5049325,93.0268985546875L78.1950725,92.6680285546875L78.9128125,92.3505605546875L79.6719625,92.0883145546875L80.4311125,91.8812735546875L81.2178725,91.7432465546875L82.0184225,91.6466256546875L82.8327625,91.6190185546875L83.7851625,91.6604250546875L84.7099625,91.7846525546875L85.6347625,91.9778945546875L86.5181625,92.2677475546875L87.3876625,92.6128155546875L88.2158625,93.0406985546875L89.0025625,93.5513985546875L89.7479625,94.1173185546875L90.4518625,94.7660385546875L91.1006625,95.4561685546875L91.6665625,96.2015185546875L92.1772625,97.0020785546875L92.6050625,97.8302385546875L92.96396250000001,98.6860085546875L93.2538625,99.5831885546875L93.4470625,100.4941585546875L93.5712625,101.4189485546875L93.6265625,102.3713185546875ZM92.7707625,102.3713185546875L92.7431625,101.61218855468749L92.6603625,100.8668385546875L92.5222625,100.1352985546875L92.0943625,98.7412285546875L91.8045625,98.0786885546875L91.08676249999999,96.83644855468751L90.6589625,96.2567385546875L89.7065625,95.2077285546875L88.6023625,94.2967485546875L87.9949625,93.8964685546875L86.6975625,93.2339385546875L86.0212625,92.9854885546875L85.3172625,92.7784485546875L84.5719625,92.6266185546875L83.8127625,92.5161955546875L83.0536625,92.4747885546875L82.3082625,92.4885875546875L81.5629325,92.5576015546875L80.8451925,92.6818285546875L79.4511225,93.0821085546875L78.7885925,93.3581685546875L77.5325425,94.0482985546875L76.3869225,94.9040685546875L75.8624125,95.3871585546875L74.9238325,96.4775785546875L74.5235525,97.0710885546875L73.8334125,98.3685485546875L73.5573625,99.0448785546875L73.3365225,99.76261855468749L73.1570825,100.5079685546875L73.0466625,101.2671185546875L72.9914535,102.0124185546875L72.9914535,102.7578185546875L73.0466625,103.4755185546875L73.1570825,104.2071185546875L73.5297525,105.5874185546875L73.7782025,106.2637185546875L74.4407425,107.5335185546875L75.2689025,108.6930185546875L75.7519925,109.2313185546875L76.8148025,110.19751855468749L77.4221225,110.6253185546875L78.0432425,110.9980185546875L78.6919725,111.34311855468749L79.3821125,111.6329185546875L80.1136525,111.8676185546875L80.8590025,112.0608185546875L81.5905425,112.1850185546875L82.3220625,112.2541185546875L83.0536625,112.2679185546875L84.5029625,112.1298185546875L85.2068625,111.9918185546875L86.5733625,111.5501185546875L87.8569625,110.9290185546875L88.4642625,110.5425185546875L89.5823625,109.6454185546875L90.0930625,109.1347185546875L91.0177625,108.00281855468751L91.4180625,107.3817185546875L91.76316249999999,106.7192185546875L92.0805625,106.0290185546875L92.2876625,105.4355185546875L92.6050625,104.2347185546875L92.7569625,102.9924185546875L92.7707625,102.3713185546875Z" fill-rule="evenodd" fill="#000000" fill-opacity="1" style="mix-blend-mode:passthrough"/></g><g><path d="M86.87537125,102.371336328125L86.80636125,103.158086328125L86.57171124999999,103.917236328125L86.19903125,104.621176328125L85.82637125,105.076656328125L85.24665125,105.614966328125L84.57031125,106.015246328125L83.82497125,106.277496328125L83.03822125,106.401726328125L82.23766125,106.360316328125L81.47851125,106.167076328125L80.76077125,105.835806328125L80.12584125,105.352716328125L79.58753825,104.772996328125L79.18725525,104.096666328125L78.92500925,103.351316328125L78.80078125,102.578376328125L78.84218775,101.777816328125L79.03542925,101.018666328125L79.36668925,100.300926328125L79.84978125,99.665996328125L80.42950125,99.141493328125L81.10584125,98.727411328125L81.85118125,98.465164328125L82.63793125,98.354736328125L83.43849125,98.382343428125L84.19764125,98.575585328125L84.91538125,98.920652328125L85.55031125,99.389936328125L86.19903125,100.135286328125L86.57171124999999,100.825426328125L86.80636125,101.584576328125L86.87537125,102.371336328125Z" fill="#006DE2" fill-opacity="1"/></g><g><path d="M86.8774525,102.3713423828125L86.8360425,102.9234423828125L86.7394225,103.4341523828125L86.5737925,103.9310423828125L86.3391425,104.4003423828125L86.0492925,104.8420223828125L85.7042225,105.2285023828125L85.3177425,105.5873723828125L84.8760625,105.8772223828125L84.3929625,106.1256823828125L83.86846249999999,106.2913023828125L83.3577625,106.4017323828125L82.8332525,106.4293323828125L82.3087525,106.4017323828125L81.7980525,106.3051123828125L81.3011525,106.1394823828125L80.8318625,105.9048323828125L80.3901725,105.6149723828125L79.9760925,105.2561023828125L79.6172255,104.8420223828125L79.3273635,104.4003423828125L79.0927155,103.9310423828125L78.9270895,103.4341523828125L78.8166612,102.9234423828125L78.7890625,102.39894238281249L78.8166612,101.8744323828125L78.9132815,101.3637423828125L79.0927155,100.8392323828125L79.3273635,100.3561323828125L79.6310245,99.9144523828125L79.9760925,99.5141723828125L80.3763725,99.1691053828125L80.8042525,98.8792513828125L81.2735525,98.6584033828125L81.7704425,98.4789693828125L82.2811525,98.3823488828125L82.8332525,98.3409423828125L83.3853625,98.3823488828125L83.9098725,98.4789693828125L84.4067625,98.6584033828125L84.8760625,98.8930513828125L85.3039425,99.1829043828125L85.6904225,99.5141723828125L86.0354925,99.9144523828125L86.3253425,100.3285323828125L86.55999249999999,100.7978223828125L86.7256225,101.2947323828125L86.8360425,101.8192323828125L86.8774525,102.3713423828125ZM86.0354925,102.3713423828125L85.9940725,101.8744323828125L85.8836525,101.3913423828125L85.7042225,100.9496623828125L85.4557725,100.5355823828125L85.1521125,100.1629023828125L84.7932425,99.8454423828125L84.3929625,99.5831823828125L83.9512725,99.3761423828125L83.4681825,99.2381193828125L82.9574725,99.1829043828125L82.4743825,99.1967123828125L82.0050925,99.2933333828125L81.5496025,99.4451623828125L81.1355225,99.6660023828125L80.7490425,99.9558623828125L80.4039725,100.3009323828125L80.1279225,100.7012023828125L79.8932825,101.1428923828125L79.7276455,101.6259923828125L79.6586325,102.1090823828125L79.6586325,102.5921823828125L79.7276455,103.0614723828125L79.8656725,103.5169623828125L80.0727125,103.9586523828125L80.3349625,104.3589223828125L80.6662325,104.7039923828125L81.0665125,105.0214623828125L81.5081925,105.26991238281249L81.9636925,105.4355423828125L82.4329725,105.5321523828125L82.9160725,105.5597623828125L83.3853625,105.5183523828125L83.8546525,105.3941323828125L84.2963425,105.2146923828125L84.71042249999999,104.9524523828125L85.0969025,104.6349823828125L85.3729525,104.3175223828125L85.6076025,103.9724523828125L85.8008425,103.5997723828125L85.9250625,103.1995023828125L86.0078825,102.7992223828125L86.0354925,102.3713423828125Z" fill-rule="evenodd" fill="#000000" fill-opacity="1" style="mix-blend-mode:passthrough"/></g><g><path d="M30.728215625,39.6103017578125L30.700615624999998,38.6165017578125L30.603915625,37.6503017578125L30.452115624999998,36.6979017578125L30.231315625,35.7593017578125L29.941415624999998,34.834501757812504L29.610215625000002,33.937361757812496L29.209915625,33.0677917578125L28.754415625,32.2120217578125L28.243715625,31.3976617578125L27.691615625,30.6109017578125L27.070515625,29.8655617578125L26.407915625,29.1478217578125L25.690215625,28.471481757812498L24.931055625,27.8503617578125L24.144295624999998,27.2982517578125L23.329935624999997,26.7875517578125L22.474165625,26.3320617578125L21.604595625,25.9317817578125L20.707415625,25.6005217578125L19.782635625,25.3244617578125L18.844055625,25.1036217578125L17.891665625,24.9379917578125L16.925475625,24.8413707578125L15.103515625,24.8137637578125L15.103515625,23.9718017578125L16.980685625,23.9994046578125L18.002085625,24.1098287578125L19.009685625,24.2754587578125L20.003475625,24.5101067578125L20.983475625,24.7999647578125L21.935865624999998,25.1588317578125L22.860645625,25.5729117578125L23.757825625000002,26.0560117578125L24.627385625000002,26.5943217578125L25.455515625,27.1878317578125L26.242315625,27.8365617578125L27.001415625,28.5405017578125L27.705415625,29.299651757812498L28.367915625000002,30.1002117578125L28.961415625,30.9283717578125L29.485915625,31.7979417578125L29.969015625,32.6951117578125L30.383115625000002,33.6199017578125L30.742015625,34.5723017578125L31.045615625,35.5523017578125L31.280315625,36.5323017578125L31.445915625,37.5399017578125L31.542515625,38.5613017578125L31.570115625,39.6103017578125L30.728215625,39.6103017578125Z" fill-rule="evenodd" fill="#000000" fill-opacity="1" style="mix-blend-mode:passthrough"/></g><g><path d="M45.09553125,39.6103017578125L45.06793125,38.6165017578125L44.97133125,37.6503017578125L44.80563125,36.6979017578125L44.59863125,35.7593017578125L44.30873125,34.834501757812504L43.97753125,33.937361757812496L43.57723125,33.0677917578125L43.121731249999996,32.2120217578125L42.611031249999996,31.3976617578125L42.05893125,30.6109017578125L41.43783125,29.8655617578125L40.77523125,29.1478217578125L40.04373125,28.471481757812498L39.29837125,27.8503617578125L38.51161125,27.2982517578125L37.69725125,26.7875517578125L36.84148125,26.3320617578125L35.97191125,25.9317817578125L35.07474125,25.6005217578125L34.14995125,25.3244617578125L33.21137125,25.1036217578125L32.25898125,24.9379917578125L31.29279125,24.8413707578125L29.45703125,24.8137637578125L29.45703125,23.9718017578125L31.33420125,23.9994046578125L32.35560125,24.0960257578125L33.36320125,24.2754587578125L34.357001249999996,24.4963037578125L35.33699125,24.7999647578125L36.28938125,25.1588317578125L37.214161250000004,25.5729117578125L38.11134125,26.0560117578125L38.98091125,26.5943217578125L39.809031250000004,27.1878317578125L40.60963125,27.8365617578125L41.368731249999996,28.5405017578125L42.072731250000004,29.299651757812498L42.72143125,30.1002117578125L43.31493125,30.9283717578125L43.85323125,31.7979417578125L44.33633125,32.6951117578125L44.75043125,33.6199017578125L45.10933125,34.5723017578125L45.41293125,35.5385017578125L45.64763125,36.5323017578125L45.81323125,37.5399017578125L45.909831249999996,38.5613017578125L45.93743125,39.6103017578125L45.09553125,39.6103017578125Z" fill-rule="evenodd" fill="#000000" fill-opacity="1" style="mix-blend-mode:passthrough"/></g><g><path d="M61.67400225,51.2872314453125L61.67400225,88.2509314453125L60.83203125,88.2509314453125L60.83203125,51.2872314453125L61.67400225,51.2872314453125Z" fill-rule="evenodd" fill="#000000" fill-opacity="1" style="mix-blend-mode:passthrough"/></g><g><path d="M40.0997795,51.24609375L42.791312500000004,88.22359374999999L41.9493425,88.29259375000001L39.2578125,51.31510735L40.0997795,51.24609375Z" fill-rule="evenodd" fill="#000000" fill-opacity="1" style="mix-blend-mode:passthrough"/></g><g><path d="M85.95172062500001,51.342733859375L80.554861625,88.320205859375L79.712890625,88.19600585937499L85.109760625,51.218505859375L85.95172062500001,51.342733859375Z" fill-rule="evenodd" fill="#000000" fill-opacity="1" style="mix-blend-mode:passthrough"/></g><g><path d="M118.30618125,51.3841650234375L108.86513625,88.3616240234375L108.05078125,88.15462402343749L117.49184125,51.1771240234375L118.30618125,51.3841650234375Z" fill-rule="evenodd" fill="#000000" fill-opacity="1" style="mix-blend-mode:passthrough"/></g><g><path d="M13.404633125,22.7020263671875L43.825803125,22.7020263671875L44.157103125,22.7296334671875L44.474503125,22.8262503671875L44.764403125,22.9918843671875L45.026703125,23.1989253671875L45.233703125,23.4611753671875L45.385503125,23.7510363671875L45.482103125,24.0546863671875L45.523603125,24.3997563671875L45.413103125,24.9794763671875L45.123303125,25.4763763671875L44.681603125,25.8490463671875L44.143303125,26.0560863671875L43.825803125,26.0836963671875L13.404633125,26.0836963671875L13.100973125,26.0560863671875L12.548866125,25.8490463671875L12.107177125,25.4763763671875L11.817323825,24.9794763671875L11.720703125,24.3997563671875L11.817323825,23.8062463671875L12.107177125,23.2955413671875L12.548866125,22.9366743671875L12.811113125,22.8124463671875L13.404633125,22.7020263671875Z" fill="#006DE2" fill-opacity="1"/></g><g><path d="M43.8244,26.4977938671875L13.01675,26.4701838671875L12.67168,26.3873738671875L12.32661,26.2355438671875L12.022953,26.0285038671875L11.760698,25.7662538671875L11.539858,25.4625938671875L11.374224,25.1175238671875L11.2776029,24.7586538671875L11.25,24.3859738671875L11.2776029,24.0271038671875L11.374224,23.6682338671875L11.539858,23.3231638671875L11.760698,23.0195058671875L12.022953,22.7572558671875L12.32661,22.5502148671875L12.67168,22.3983838671875L13.01675,22.3155709671875L43.8244,22.2879638671875L44.2109,22.3293703671875L44.556,22.4259908671875L44.8734,22.5916248671875L45.1495,22.7986658671875L45.3979,23.0471128671875L45.605,23.3507738671875L45.7568,23.6682338671875L45.8396,24.0133038671875L45.881,24.3859738671875L45.8396,24.7724538671875L45.7568,25.1175238671875L45.605,25.4349838671875L45.3979,25.7248438671875L45.1495,25.9732938671875L44.8734,26.1941338671875L44.556,26.3459638671875L44.2109,26.4563838671875L43.8244,26.4977938671875ZM13.40323,23.1161268671875L12.94773,23.1851408671875L12.56126,23.3921838671875L12.395620000000001,23.557813867187498L12.16098,23.9580938671875L12.078163,24.3859738671875L12.16098,24.8276638671875L12.395620000000001,25.2279438671875L12.56126,25.3797738671875L12.94773,25.6006138671875L13.40323,25.6696338671875L43.8244,25.6696338671875L44.1557,25.6144238671875L44.4593,25.4763938671875L44.7078,25.2831538671875L44.901,25.0209038671875L45.0252,24.731043867187502L45.0667,24.3859738671875L45.0252,24.054713867187502L44.901,23.7648538671875L44.7078,23.5026038671875L44.4593,23.3093638671875L44.1557,23.1713368671875L43.8244,23.1161268671875L13.40323,23.1161268671875Z" fill="#000000" fill-opacity="1" style="mix-blend-mode:passthrough"/></g></g></g></svg>