<svg xmlns="http://www.w3.org/2000/svg" xmlns:xlink="http://www.w3.org/1999/xlink" fill="none" version="1.1" width="140" height="140" viewBox="0 0 140 140"><defs><mask id="master_svg0_57640_198392" style="mask-type:alpha" maskUnits="userSpaceOnUse"><g><rect x="0" y="0" width="140" height="140" rx="0" fill="#FFFFFF" fill-opacity="1"/></g></mask><clipPath id="master_svg1_57640_198380"><rect x="-30" y="-30" width="200" height="200" rx="0"/></clipPath></defs><g mask="url(#master_svg0_57640_198392)"><g clip-path="url(#master_svg1_57640_198380)"><g><path d="M127.3796875,70.01469492187499L127.3066875,72.825894921875L127.1016875,75.636994921875L126.9406875,77.027894921875L126.5306875,79.824394921875L125.9886875,82.576994921875L125.3006875,85.314894921875L124.4806875,88.008894921875L123.5436875,90.658894921875L122.4596875,93.250494921875L121.2446875,95.797994921875L119.9266875,98.287094921875L118.4776875,100.702894921875L116.9106875,103.045494921875L115.2276875,105.300194921875L113.4406875,107.481794921875L111.5522875,109.560794921875L109.5610875,111.552094921875L107.4819875,113.440794921875L105.3004875,115.226794921875L103.0456875,116.910794921875L100.7030875,118.477794921875L98.2872875,119.911794921875L95.7982875,121.244794921875L93.2653875,122.444794921875L90.6591875,123.528794921875L88.0090875,124.480794921875L85.3150875,125.285794921875L82.5771875,125.973794921875L79.8245875,126.529794921875L77.0427875,126.939794921875L74.23168749999999,127.217794921875L71.42048750000001,127.364794921875L68.6093875,127.364794921875L65.7982875,127.217794921875L62.9871875,126.939794921875L60.2052875,126.529794921875L57.4527875,125.988794921875L54.7147875,125.299794921875L52.0207875,124.480794921875L49.3707875,123.542794921875L46.7645875,122.459794921875L44.2169875,121.258794921875L41.7426875,119.926794921875L39.326787499999995,118.477794921875L36.984187500000004,116.910794921875L34.729487500000005,115.241794921875L32.5478875,113.455794921875L30.4541875,111.566694921875L28.4629875,109.575494921875L26.5742875,107.481794921875L24.7879875,105.314894921875L23.1188875,103.045494921875L21.552307499999998,100.702894921875L20.1028175,98.287094921875L18.7704675,95.812694921875L17.5698775,93.265094921875L16.5010675,90.658894921875L15.5493775,88.008894921875L14.7294675,85.314894921875L14.0559675,82.576994921875L13.4996005,79.824394921875L13.0896415,77.027894921875L12.8114585,74.231394921875L12.6796875,71.420294921875L12.6796875,68.609194921875L12.8114585,65.797994921875L13.0896415,62.986894921875L13.4996005,60.205094921875L14.0559675,57.437894921875L14.7294675,54.714594921875L15.5493775,52.020594921875L16.4864175,49.370494921875L17.5698775,46.764394921875L18.7704675,44.216794921875L20.1028175,41.742394921875004L21.552307499999998,39.326594921875L23.1188875,36.983994921874995L24.7879875,34.714594921875005L26.5742875,32.547694921875L28.4629875,30.453994921875L30.4541875,28.462694921875L32.5478875,26.573994921875L34.729487500000005,24.787794921874998L36.984187500000004,23.118694921875L39.326787499999995,21.552054921874998L41.7426875,20.102574921875L44.2169875,18.770214921875L46.7645875,17.569624921875L49.3707875,16.486174921875L52.0207875,15.549134921875L54.7147875,14.729214921875L57.4380875,14.041074921875L60.2052875,13.499349921875L62.9871875,13.089390921875L65.7982875,12.811207921875L68.6093875,12.664794921875L71.42048750000001,12.664794921875L74.23168749999999,12.811207921875L77.0281875,13.089390921875L79.8245875,13.499349921875L82.5771875,14.041074921875L85.3150875,14.729214921875L88.0090875,15.549134921875L90.6591875,16.486174921875L93.2506875,17.569624921875L95.7982875,18.770214921875L98.2872875,20.102574921875L99.5024875,20.819994921875L101.8743875,22.313404921874998L104.1876875,23.938594921875L106.3985875,25.666294921875L108.5361875,27.511094921875L110.5712875,29.458394921875L112.5185875,31.493494921875L114.3486875,33.631094921875004L116.0766875,35.841994921875L117.7016875,38.140594921875L119.2096875,40.527194921875L120.6006875,42.972294921875005L121.8596875,45.490594921875L123.0016875,48.067394921875L124.0266875,50.688194921875L124.9046875,53.367594921875L125.6516875,56.076194921875L126.2666875,58.828794921875L126.7496875,61.595994921875L127.0866875,64.392494921875L127.3066875,67.20359492187501L127.3796875,70.01469492187499Z" fill="#F3F3F3" fill-opacity="1" style="mix-blend-mode:passthrough"/></g><g><path d="M46.251523875,16.325140234375L48.945526875,2.884437234375L48.067046875,2.708740234375L45.373046875,16.149440234375L46.251523875,16.325140234375Z" fill-rule="evenodd" fill="#000000" fill-opacity="1" style="mix-blend-mode:passthrough"/></g><g><path d="M22.66564375,6.6325621875L32.89984375,21.3324171875L33.631943750000005,20.8200171875L23.39764375,6.1201171875L22.66564375,6.6325621875ZM9.83984375,28.2870171875L25.754943750000002,32.7965171875L26.00384375,31.9327171875L10.08874275,27.4232171875L9.83984375,28.2870171875Z" fill-rule="evenodd" fill="#000000" fill-opacity="1" style="mix-blend-mode:passthrough"/></g><g><path d="M17.83203125,47.10101015625L78.18343125,33.04541015625L91.56553125,89.76571015625001L91.71193125,90.54171015624999L91.78513125,91.31771015625L91.79983125,92.09371015625L91.74123125,92.86971015625L91.62413125,93.64571015625L91.41913125,94.39241015625001L91.17023125,95.12451015625L90.84813125,95.84191015625001L90.46743125,96.53001015625L90.01353125,97.18891015625L89.51573125,97.78921015625L88.97403125,98.34551015625L88.38843125,98.84341015625L87.75883125,99.29721015625L87.08533125,99.69251015625L86.38253125,100.02931015625L85.65053125,100.30751015625L84.88913125,100.52711015625L41.990131250000005,110.51241015625L41.258131250000005,110.65891015625L39.82323125,110.74671015625L39.120431249999996,110.71741015625L37.74423125,110.48321015625L36.44113125,110.02931015625L35.60653125,109.63401015625L34.83053125,109.15081015625L34.09853125,108.57981015625L33.58603125,108.11131015625L32.69293125,107.07181015625L31.94623125,105.87121015625L31.65343125,105.22691015625L31.19953125,103.82141015625L17.83203125,47.10101015625Z" fill="#006DE2" fill-opacity="1"/></g><g><path d="M17.83203125,47.10101015625L78.18343125,33.04541015625L91.56553125,89.76571015625001L91.71193125,90.54171015624999L91.78513125,91.31771015625L91.79983125,92.09371015625L91.74123125,92.86971015625L91.62413125,93.64571015625L91.41913125,94.39241015625001L91.17023125,95.12451015625L90.84813125,95.84191015625001L90.46743125,96.53001015625L90.01353125,97.18891015625L89.51573125,97.78921015625L88.97403125,98.34551015625L88.38843125,98.84341015625L87.75883125,99.29721015625L87.08533125,99.69251015625L86.38253125,100.02931015625L85.65053125,100.30751015625L84.88913125,100.52711015625L41.990131250000005,110.51241015625L41.258131250000005,110.65891015625L39.82323125,110.74671015625L39.120431249999996,110.71741015625L37.74423125,110.48321015625L36.44113125,110.02931015625L35.60653125,109.63401015625L34.83053125,109.15081015625L34.09853125,108.57981015625L33.58603125,108.11131015625L32.69293125,107.07181015625L31.94623125,105.87121015625L31.65343125,105.22691015625L31.19953125,103.82141015625L17.83203125,47.10101015625ZM18.90084125,47.77451015625L77.52453125,34.11422015625L90.68703125,89.97071015625L90.81883125,90.67351015625L90.89203125,91.36171015625L90.90673125,92.06441015625L90.84813125,92.76721015625L90.74563125,93.45541015625L90.56993125,94.12891015625L90.33573125,94.80241015625L90.04283125,95.43191015625L89.70613125,96.06151015625L89.29613125,96.64721015625L88.85693125,97.18891015625L88.35913125,97.68671015625L87.83203125,98.14061015625L87.26103125,98.55051015625L86.66073125,98.90191015625L86.03113125,99.20941015625L85.37233125,99.45831015625L84.68413125,99.64861015625L41.78513125,109.64861015625L40.90673125,109.79501015625L40.04283125,109.85361015625L39.20833125,109.82431015625L38.359131250000004,109.69251015625L37.56853125,109.48761015625L36.77783125,109.20941015625L36.04583125,108.84331015625L35.343031249999996,108.40411015625L34.68413125,107.90631015625L34.08383125,107.33531015625L33.54213125,106.70571015625L33.05893125,106.00291015625L32.66363125,105.27091015625L32.32693125,104.48021015625L32.07803125,103.61641015625L18.90084125,47.77451015625Z" fill-rule="evenodd" fill="#000000" fill-opacity="1" style="mix-blend-mode:passthrough"/></g><g><path d="M36.984375,25.19775390625L123.792575,25.19775390625L123.792575,110.35145390625L123.748675,111.14215390625L123.646175,111.91805390625L123.485075,112.66485390625L123.250875,113.41155390625L122.957975,114.12895390625L122.591975,114.81705390625L122.182075,115.47595390625L121.698875,116.10555390625L121.171775,116.67655390625L120.586175,117.21825390625L119.956575,117.68675390625L119.297675,118.11135390625L118.609575,118.47735390625L117.892175,118.77025390625L117.160075,119.00445390625L116.398775,119.16555390625L115.622775,119.26805390625L114.832075,119.31195390625L45.959485,119.31195390625L45.212785,119.28265390625L43.792575,119.04845390625L43.119075,118.85805390625L41.830645,118.30175390625L40.659335,117.58425390625L39.941915,116.99865390625L39.297695,116.35445390625L38.712045,115.63695390625L38.331375,115.06595390625L37.701797,113.83615390625L37.247916000000004,112.50375390625L37.116146,111.81565390625L36.984375,110.35145390625L36.984375,25.19775390625Z" fill="#FFFFFF" fill-opacity="1" style="mix-blend-mode:passthrough"/></g><g><path d="M36.984375,25.19775390625L123.792575,25.19775390625L123.792575,110.35145390625L123.748675,111.14215390625L123.646175,111.91805390625L123.485075,112.66485390625L123.250875,113.41155390625L122.957975,114.12895390625L122.591975,114.81705390625L122.182075,115.47595390625L121.698875,116.10555390625L121.171775,116.67655390625L120.586175,117.21825390625L119.956575,117.68675390625L119.297675,118.11135390625L118.609575,118.47735390625L117.892175,118.77025390625L117.160075,119.00445390625L116.398775,119.16555390625L115.622775,119.26805390625L114.832075,119.31195390625L45.959485,119.31195390625L45.212785,119.28265390625L43.792575,119.04845390625L43.119075,118.85805390625L41.830645,118.30175390625L40.659335,117.58425390625L39.941915,116.99865390625L39.297695,116.35445390625L38.712045,115.63695390625L38.331375,115.06595390625L37.701797,113.83615390625L37.247916000000004,112.50375390625L37.116146,111.81565390625L36.984375,110.35145390625L36.984375,25.19775390625ZM37.892137,26.09087290625L122.899475,26.09087290625L122.899475,110.35145390625L122.870175,111.05425390625L122.767675,111.75705390625L122.621275,112.44515390625L122.416275,113.10405390625L122.138075,113.74825390625L121.815975,114.37785390625L121.449975,114.96345390625L121.010775,115.51985390625L120.542175,116.04695390625L120.015075,116.53015390625L119.444075,116.95475390625L118.858475,117.33535390625L118.228875,117.65745390625L117.584675,117.92105390625L116.925775,118.14065390625L116.237675,118.28705390625L115.534875,118.37495390625L114.832075,118.41885390625L45.959485,118.41885390625L45.242065,118.37495390625L44.539285,118.28705390625L43.851135,118.14065390625L43.192285,117.92105390625L42.548065,117.65745390625L41.918495,117.33535390625L41.332835,116.95475390625L40.776465,116.53015390625L40.249385000000004,116.04695390625L39.766215,115.51985390625L39.341625,114.96345390625L38.960945,114.37785390625L38.638835,113.74825390625L38.375295,113.10405390625L38.155675,112.44515390625L38.009265,111.75705390625L37.921417,111.05425390625L37.892137,110.35145390625L37.892137,26.09087290625Z" fill-rule="evenodd" fill="#000000" fill-opacity="1" style="mix-blend-mode:passthrough"/></g><g><path d="M106.8965125,50.292782203125L55.0517435,52.532898203125L55.0078125,51.639778203125L106.8672125,49.399658203125L106.8965125,50.292782203125Z" fill-rule="evenodd" fill="#000000" fill-opacity="1" style="mix-blend-mode:passthrough"/></g><g><path d="M99.01951249999999,78.535755859375L55.0517435,76.281005859375L55.0078125,77.188758859375L98.9609125,79.428885859375L99.01951249999999,78.535755859375Z" fill-rule="evenodd" fill="#000000" fill-opacity="1" style="mix-blend-mode:passthrough"/></g><g><path d="M104.963571875,96.89599609375L14.451171875,96.89599609375L14.451171875,110.35129609375L14.568300875,111.81549609375L14.905052874999999,113.17709609375L15.153951875,113.83599609375L15.783531875,115.06579609375L16.178841875,115.63679609375001L16.749851875,116.35429609375001L17.394071875,116.99849609374999L18.111491875,117.58409609374999L19.282791875,118.30159609374999L20.571231875,118.85789609375L21.947511875,119.19469609375L23.411641875,119.31179609375L113.645871875,119.31179609375L113.645871875,118.40399609375L112.913871875,118.36009609375L111.537571875,118.09659609375001L110.878671875,117.87699609375L110.044171875,117.52559609375L109.238871875,117.08629609375001L108.506771875,116.57389609375L107.818671875,116.00289609375L107.189071875,115.35869609375L106.632671875,114.64119609375L106.149571875,113.89449609375L105.739571875,113.08929609375L105.402871875,112.22539609374999L105.080771875,110.87839609375L104.963571875,109.44359609375L104.963571875,96.89599609375Z" fill-rule="evenodd" fill="#F2F3FF" fill-opacity="1" style="mix-blend-mode:passthrough"/></g><g><path d="M104.963571875,96.89599609375L14.451171875,96.89599609375L14.451171875,110.35129609375L14.568300875,111.81549609375L14.905052874999999,113.17709609375L15.153951875,113.83599609375L15.783531875,115.06579609375L16.178841875,115.63679609375001L16.749851875,116.35429609375001L17.394071875,116.99849609374999L18.111491875,117.58409609374999L19.282791875,118.30159609374999L20.571231875,118.85789609375L21.947511875,119.19469609375L23.411641875,119.31179609375L113.645871875,119.31179609375L113.645871875,118.40399609375L112.913871875,118.36009609375L111.537571875,118.09659609375001L110.878671875,117.87699609375L110.044171875,117.52559609375L109.238871875,117.08629609375001L108.506771875,116.57389609375L107.818671875,116.00289609375L107.189071875,115.35869609375L106.632671875,114.64119609375L106.149571875,113.89449609375L105.739571875,113.08929609375L105.402871875,112.22539609374999L105.080771875,110.87839609375L104.963571875,109.44359609375L104.963571875,96.89599609375ZM15.344290875,110.35129609375L15.344290875,97.80375809375L104.070471875,97.80375809375L104.070471875,109.44359609375L104.114471875,110.40989609375L104.246171875,111.34699609375L104.480471875,112.25469609375L104.787871875,113.13319609375L105.168571875,113.96769609374999L105.637171875,114.77299609375L106.164171875,115.53439609375L106.779171875,116.22249609375L107.452671875,116.88139609375L108.184671875,117.45239609375L108.975371875,117.96479609375L109.824571875,118.41869609375L23.411641875,118.41869609375L22.694211875,118.37479609375L21.991431875,118.28689609375L21.317931875,118.14049609375L20.644431875000002,117.92089609375L20.000221875,117.65729609375L19.370641875,117.33519609375L18.784991875,116.95459609375L18.228621875,116.52999609375L17.701531875,116.04679609375L17.218371875,115.51969609375L16.793781875,114.96329609375L16.413101875,114.37769609375L16.090991875,113.74809609375001L15.827451875,113.10389609375L15.607831875,112.44499609375L15.461421875,111.75689609375L15.373570875,111.05409609375L15.344290875,110.35129609375Z" fill-rule="evenodd" fill="#000000" fill-opacity="1" style="mix-blend-mode:passthrough"/></g></g></g></svg>