<svg xmlns="http://www.w3.org/2000/svg" xmlns:xlink="http://www.w3.org/1999/xlink" fill="none" version="1.1" width="140" height="140" viewBox="0 0 140 140"><defs><mask id="master_svg0_58097_199981" style="mask-type:alpha" maskUnits="userSpaceOnUse"><g><rect x="0" y="0" width="140" height="140" rx="0" fill="#FFFFFF" fill-opacity="1"/></g></mask><clipPath id="master_svg1_58097_199982"><rect x="-30" y="-30" width="200" height="200" rx="0"/></clipPath></defs><g mask="url(#master_svg0_58097_199981)"><g clip-path="url(#master_svg1_58097_199982)"><g><path d="M127.3796875,70.01469492187499L127.3066875,72.825894921875L127.1016875,75.636994921875L126.9406875,77.027894921875L126.5306875,79.824394921875L125.9886875,82.576994921875L125.3006875,85.314894921875L124.4806875,88.008894921875L123.5436875,90.658894921875L122.4596875,93.250494921875L121.2446875,95.797994921875L119.9266875,98.287094921875L118.4776875,100.702894921875L116.9106875,103.045494921875L115.2276875,105.300194921875L113.4406875,107.481794921875L111.5522875,109.560794921875L109.5610875,111.552094921875L107.4819875,113.440794921875L105.3004875,115.226794921875L103.0456875,116.910794921875L100.7030875,118.477794921875L98.2872875,119.911794921875L95.7982875,121.244794921875L93.2653875,122.444794921875L90.6591875,123.528794921875L88.0090875,124.480794921875L85.3150875,125.285794921875L82.5771875,125.973794921875L79.8245875,126.529794921875L77.0427875,126.939794921875L74.23168749999999,127.217794921875L71.42048750000001,127.364794921875L68.6093875,127.364794921875L65.7982875,127.217794921875L62.9871875,126.939794921875L60.2052875,126.529794921875L57.4527875,125.988794921875L54.7147875,125.299794921875L52.0207875,124.480794921875L49.3707875,123.542794921875L46.7645875,122.459794921875L44.2169875,121.258794921875L41.7426875,119.926794921875L39.326787499999995,118.477794921875L36.984187500000004,116.910794921875L34.729487500000005,115.241794921875L32.5478875,113.455794921875L30.4541875,111.566694921875L28.4629875,109.575494921875L26.5742875,107.481794921875L24.7879875,105.314894921875L23.1188875,103.045494921875L21.552307499999998,100.702894921875L20.1028175,98.287094921875L18.7704675,95.812694921875L17.5698775,93.265094921875L16.5010675,90.658894921875L15.5493775,88.008894921875L14.7294675,85.314894921875L14.0559675,82.576994921875L13.4996005,79.824394921875L13.0896415,77.027894921875L12.8114585,74.231394921875L12.6796875,71.420294921875L12.6796875,68.609194921875L12.8114585,65.797994921875L13.0896415,62.986894921875L13.4996005,60.205094921875L14.0559675,57.437894921875L14.7294675,54.714594921875L15.5493775,52.020594921875L16.4864175,49.370494921875L17.5698775,46.764394921875L18.7704675,44.216794921875L20.1028175,41.742394921875004L21.552307499999998,39.326594921875L23.1188875,36.983994921874995L24.7879875,34.714594921875005L26.5742875,32.547694921875L28.4629875,30.453994921875L30.4541875,28.462694921875L32.5478875,26.573994921875L34.729487500000005,24.787794921874998L36.984187500000004,23.118694921875L39.326787499999995,21.552054921874998L41.7426875,20.102574921875L44.2169875,18.770214921875L46.7645875,17.569624921875L49.3707875,16.486174921875L52.0207875,15.549134921875L54.7147875,14.729214921875L57.4380875,14.041074921875L60.2052875,13.499349921875L62.9871875,13.089390921875L65.7982875,12.811207921875L68.6093875,12.664794921875L71.42048750000001,12.664794921875L74.23168749999999,12.811207921875L77.0281875,13.089390921875L79.8245875,13.499349921875L82.5771875,14.041074921875L85.3150875,14.729214921875L88.0090875,15.549134921875L90.6591875,16.486174921875L93.2506875,17.569624921875L95.7982875,18.770214921875L98.2872875,20.102574921875L99.5024875,20.819994921875L101.8743875,22.313404921874998L104.1876875,23.938594921875L106.3985875,25.666294921875L108.5361875,27.511094921875L110.5712875,29.458394921875L112.5185875,31.493494921875L114.3486875,33.631094921875004L116.0766875,35.841994921875L117.7016875,38.140594921875L119.2096875,40.527194921875L120.6006875,42.972294921875005L121.8596875,45.490594921875L123.0016875,48.067394921875L124.0266875,50.688194921875L124.9046875,53.367594921875L125.6516875,56.076194921875L126.2666875,58.828794921875L126.7496875,61.595994921875L127.0866875,64.392494921875L127.3066875,67.20359492187501L127.3796875,70.01469492187499Z" fill="#F3F3F3" fill-opacity="1" style="mix-blend-mode:passthrough"/></g><g><g><path d="M109.28323202514649,71.96413202514648L109.28323202514649,109.28323202514649L30.716732025146484,109.28323202514649L30.716732025146484,30.716732025146484L109.28323202514649,30.716732025146484L109.28323202514649,71.96413202514648Z" fill="#006DE2" fill-opacity="1"/><path d="M109.28323202514649,109.28323202514649L109.28323202514649,30.716732025146484L30.716732025146484,30.716732025146484L30.716732025146484,109.28323202514649L109.28323202514649,109.28323202514649ZM108.28323202514649,108.28323202514649L108.28323202514649,31.716732025146484L31.716732025146484,31.716732025146484L31.716732025146484,108.28323202514649L108.28323202514649,108.28323202514649Z" fill-rule="evenodd" fill="#000000" fill-opacity="1"/></g><g><path d="M35.9221076965332,44.37549540893555L35.9221076965332,56.74082540893555L56.7414076965332,35.92182540893555L44.375777696533206,35.92182540893555L35.9221076965332,44.37549540893555ZM35.9221076965332,82.65912540893555L82.6580076965332,35.92182540893555L70.29470769653321,35.92182540893555L35.9221076965332,70.29472540893555L35.9221076965332,82.65912540893555ZM54.07120769653321,103.98002540893555L66.3648076965332,103.98002540893555L103.9789076965332,65.84962540893555L103.9789076965332,54.07262540893555L54.07120769653321,103.98002540893555ZM79.6032076965332,103.98002540893555L92.3557076965332,103.98002540893555L103.9789076965332,92.35512540893555L103.9789076965332,77.68492540893556L79.6032076965332,103.98002540893555ZM35.9221076965332,103.98002540893555L40.5178676965332,103.98002540893555L103.9789076965332,40.51898540893555L103.9789076965332,35.92182540893555L96.2113076965332,35.92182540893555L35.9221076965332,96.21272540893554L35.9221076965332,103.98002540893555Z" fill="#FFFFFF" fill-opacity="1"/></g><g><rect x="97.76575469970703" y="97.76575469970703" width="23.03502655029297" height="23.03502655029297" rx="4" fill="#F2F3FF" fill-opacity="1"/><rect x="98.26575469970703" y="98.26575469970703" width="22.03502655029297" height="22.03502655029297" rx="3.5" fill-opacity="0" stroke-opacity="1" stroke="#000000" fill="none" stroke-width="1"/></g><g><rect x="97.76575469970703" y="19.19921875" width="23.03502655029297" height="23.03502655029297" rx="4" fill="#FFFFFF" fill-opacity="1"/><rect x="98.26575469970703" y="19.69921875" width="22.03502655029297" height="22.03502655029297" rx="3.5" fill-opacity="0" stroke-opacity="1" stroke="#000000" fill="none" stroke-width="1"/></g><g><rect x="19.19921875" y="19.19921875" width="23.03502655029297" height="23.03502655029297" rx="4" fill="#F2F3FF" fill-opacity="1"/><rect x="19.69921875" y="19.69921875" width="22.03502655029297" height="22.03502655029297" rx="3.5" fill-opacity="0" stroke-opacity="1" stroke="#000000" fill="none" stroke-width="1"/></g><g><rect x="19.19921875" y="97.76575469970703" width="23.03502655029297" height="23.03502655029297" rx="4" fill="#FFFFFF" fill-opacity="1"/><rect x="19.69921875" y="98.26575469970703" width="22.03502655029297" height="22.03502655029297" rx="3.5" fill-opacity="0" stroke-opacity="1" stroke="#000000" fill="none" stroke-width="1"/></g></g></g></g></svg>