<svg xmlns="http://www.w3.org/2000/svg" xmlns:xlink="http://www.w3.org/1999/xlink" fill="none" version="1.1" width="140" height="140" viewBox="0 0 140 140"><defs><mask id="master_svg0_58097_200300" style="mask-type:alpha" maskUnits="userSpaceOnUse"><g><rect x="0" y="0" width="140" height="140" rx="0" fill="#FFFFFF" fill-opacity="1"/></g></mask><clipPath id="master_svg1_58097_200278"><rect x="-30" y="-30" width="200" height="200" rx="0"/></clipPath></defs><g mask="url(#master_svg0_58097_200300)"><g clip-path="url(#master_svg1_58097_200278)"><g><path d="M127.3796875,70.01469492187499L127.3066875,72.825894921875L127.1016875,75.636994921875L126.9406875,77.027894921875L126.5306875,79.824394921875L125.9886875,82.576994921875L125.3006875,85.314894921875L124.4806875,88.008894921875L123.5436875,90.658894921875L122.4596875,93.250494921875L121.2446875,95.797994921875L119.9266875,98.287094921875L118.4776875,100.702894921875L116.9106875,103.045494921875L115.2276875,105.300194921875L113.4406875,107.481794921875L111.5522875,109.560794921875L109.5610875,111.552094921875L107.4819875,113.440794921875L105.3004875,115.226794921875L103.0456875,116.910794921875L100.7030875,118.477794921875L98.2872875,119.911794921875L95.7982875,121.244794921875L93.2653875,122.444794921875L90.6591875,123.528794921875L88.0090875,124.480794921875L85.3150875,125.285794921875L82.5771875,125.973794921875L79.8245875,126.529794921875L77.0427875,126.939794921875L74.23168749999999,127.217794921875L71.42048750000001,127.364794921875L68.6093875,127.364794921875L65.7982875,127.217794921875L62.9871875,126.939794921875L60.2052875,126.529794921875L57.4527875,125.988794921875L54.7147875,125.299794921875L52.0207875,124.480794921875L49.3707875,123.542794921875L46.7645875,122.459794921875L44.2169875,121.258794921875L41.7426875,119.926794921875L39.326787499999995,118.477794921875L36.984187500000004,116.910794921875L34.729487500000005,115.241794921875L32.5478875,113.455794921875L30.4541875,111.566694921875L28.4629875,109.575494921875L26.5742875,107.481794921875L24.7879875,105.314894921875L23.1188875,103.045494921875L21.552307499999998,100.702894921875L20.1028175,98.287094921875L18.7704675,95.812694921875L17.5698775,93.265094921875L16.5010675,90.658894921875L15.5493775,88.008894921875L14.7294675,85.314894921875L14.0559675,82.576994921875L13.4996005,79.824394921875L13.0896415,77.027894921875L12.8114585,74.231394921875L12.6796875,71.420294921875L12.6796875,68.609194921875L12.8114585,65.797994921875L13.0896415,62.986894921875L13.4996005,60.205094921875L14.0559675,57.437894921875L14.7294675,54.714594921875L15.5493775,52.020594921875L16.4864175,49.370494921875L17.5698775,46.764394921875L18.7704675,44.216794921875L20.1028175,41.742394921875004L21.552307499999998,39.326594921875L23.1188875,36.983994921874995L24.7879875,34.714594921875005L26.5742875,32.547694921875L28.4629875,30.453994921875L30.4541875,28.462694921875L32.5478875,26.573994921875L34.729487500000005,24.787794921874998L36.984187500000004,23.118694921875L39.326787499999995,21.552054921874998L41.7426875,20.102574921875L44.2169875,18.770214921875L46.7645875,17.569624921875L49.3707875,16.486174921875L52.0207875,15.549134921875L54.7147875,14.729214921875L57.4380875,14.041074921875L60.2052875,13.499349921875L62.9871875,13.089390921875L65.7982875,12.811207921875L68.6093875,12.664794921875L71.42048750000001,12.664794921875L74.23168749999999,12.811207921875L77.0281875,13.089390921875L79.8245875,13.499349921875L82.5771875,14.041074921875L85.3150875,14.729214921875L88.0090875,15.549134921875L90.6591875,16.486174921875L93.2506875,17.569624921875L95.7982875,18.770214921875L98.2872875,20.102574921875L99.5024875,20.819994921875L101.8743875,22.313404921874998L104.1876875,23.938594921875L106.3985875,25.666294921875L108.5361875,27.511094921875L110.5712875,29.458394921875L112.5185875,31.493494921875L114.3486875,33.631094921875004L116.0766875,35.841994921875L117.7016875,38.140594921875L119.2096875,40.527194921875L120.6006875,42.972294921875005L121.8596875,45.490594921875L123.0016875,48.067394921875L124.0266875,50.688194921875L124.9046875,53.367594921875L125.6516875,56.076194921875L126.2666875,58.828794921875L126.7496875,61.595994921875L127.0866875,64.392494921875L127.3066875,67.20359492187501L127.3796875,70.01469492187499Z" fill="#F3F3F3" fill-opacity="1" style="mix-blend-mode:passthrough"/></g><g><g><path d="M24.447265625,81.38795390625L69.999365625,81.38795390625L69.999365625,24.44775390625L28.447265625,24.44775390625C26.238125625,24.44775390625,24.447265625,26.23861390625,24.447265625,28.44775390625L24.447265625,81.38795390625Z" fill="#FFFFFF" fill-opacity="1"/><path d="M25.265285625,25.26577390625Q23.947265625,26.58379390625,23.947265625,28.44775390625L23.947265625,81.88795390625L70.499365625,81.88795390625L70.499365625,23.94775390625L28.447265625,23.94775390625Q26.583305625,23.94775390625,25.265285625,25.26577390625ZM24.947265625,80.88795390625L24.947265625,28.44775390625Q24.947265625,26.99800390625,25.972395625,25.97288390625Q26.997515625,24.94775390625,28.447265625,24.94775390625L69.499365625,24.94775390625L69.499365625,80.88795390625L24.947265625,80.88795390625Z" fill-rule="evenodd" fill="#000000" fill-opacity="1"/></g><g transform="matrix(-1,-5.2146120310681e-8,5.2146120310681e-8,-1,231.1054627243943,231.10466605980648)"><path d="M115.552734375,172.49253001708985L161.104834375,172.49253001708985L161.104834375,115.55233001708984L119.552734375,115.55233001708984C117.343594375,115.55233001708984,115.552734375,117.34319001708984,115.552734375,119.55233001708984L115.552734375,172.49253001708985Z" fill="#FFFFFF" fill-opacity="1"/><path d="M116.370754375,116.37035001708985Q115.052734375,117.68837001708984,115.052734375,119.55233001708984L115.052734375,172.99253001708985L161.604834375,172.99253001708985L161.604834375,115.05233001708984L119.552734375,115.05233001708984Q117.688774375,115.05233001708984,116.370754375,116.37035001708985ZM116.052734375,171.99253001708985L116.052734375,119.55233001708984Q116.052734375,118.10258001708985,117.077864375,117.07746001708985Q118.102984375,116.05233001708984,119.552734375,116.05233001708984L160.604834375,116.05233001708984L160.604834375,171.99253001708985L116.052734375,171.99253001708985Z" fill-rule="evenodd" fill="#000000" fill-opacity="1"/></g><g><path d="M24.447265625,111.55210430297852C24.447265625,113.76120430297851,26.238125625,115.5521043029785,28.447265625,115.5521043029785L69.999365625,115.5521043029785L69.999365625,81.38800430297852L24.447265625,81.38800430297852L24.447265625,111.55210430297852Z" fill="#006DE2" fill-opacity="1"/><path d="M23.947265625,80.88800430297852L23.947265625,111.55210430297852Q23.947265625,113.41610430297851,25.265285625,114.73410430297852Q26.583305625,116.0521043029785,28.447265625,116.0521043029785L70.499365625,116.0521043029785L70.499365625,80.88800430297852L23.947265625,80.88800430297852ZM25.972395625,114.02700430297853Q24.947265625,113.00180430297851,24.947265625,111.55210430297852L24.947265625,81.88800430297852L69.499365625,81.88800430297852L69.499365625,115.0521043029785L28.447265625,115.0521043029785Q26.997515625,115.0521043029785,25.972395625,114.02700430297853Z" fill-rule="evenodd" fill="#000000" fill-opacity="1"/></g><g transform="matrix(-1,-5.2146120310681e-8,5.2146120310681e-8,-1,231.10546569360724,117.22417289574398)"><path d="M115.552734375,88.7761834350586C115.552734375,90.98528343505859,117.343594375,92.77618343505858,119.552734375,92.77618343505858L161.104834375,92.77618343505858L161.104834375,58.612083435058594L115.552734375,58.612083435058594L115.552734375,88.7761834350586Z" fill="#F2F3FF" fill-opacity="1"/><path d="M115.052734375,58.112083435058594L115.052734375,88.7761834350586Q115.052734375,90.64018343505859,116.370754375,91.9581834350586Q117.688774375,93.27618343505858,119.552734375,93.27618343505858L161.604834375,93.27618343505858L161.604834375,58.112083435058594L115.052734375,58.112083435058594ZM117.077864375,91.2510834350586Q116.052734375,90.22588343505859,116.052734375,88.7761834350586L116.052734375,59.112083435058594L160.604834375,59.112083435058594L160.604834375,92.27618343505858L119.552734375,92.27618343505858Q118.102984375,92.27618343505858,117.077864375,91.2510834350586Z" fill-rule="evenodd" fill="#000000" fill-opacity="1"/></g></g></g></g></svg>