<svg xmlns="http://www.w3.org/2000/svg" xmlns:xlink="http://www.w3.org/1999/xlink" fill="none" version="1.1" width="140" height="140" viewBox="0 0 140 140"><defs><mask id="master_svg0_57640_198585" style="mask-type:alpha" maskUnits="userSpaceOnUse"><g><rect x="0" y="0" width="140" height="140" rx="0" fill="#FFFFFF" fill-opacity="1"/></g></mask><clipPath id="master_svg1_57640_198559"><rect x="-30" y="-30" width="200" height="200" rx="0"/></clipPath></defs><g mask="url(#master_svg0_57640_198585)"><g clip-path="url(#master_svg1_57640_198559)"><g><path d="M127.394390625,70.000049609375L127.321390625,72.81114960937501L127.116390625,75.622349609375L126.779390625,78.418849609375L126.296390625,81.200649609375L125.681390625,83.953249609375L124.919390625,86.661849609375L124.041390625,89.341249609375L123.031390625,91.961949609375L121.889390625,94.538849609375L120.615390625,97.057149609375L119.239390625,99.502249609375L117.731390625,101.874149609375L116.105390625,104.172849609375L114.378390625,106.398349609375L112.533290625,108.535949609375L110.585990625,110.571049609375L108.550790625,112.518349609375L106.413190625,114.348849609375L104.202390625,116.075849609375L101.888990625,117.701849609375L99.517190625,119.209849609375L97.072090625,120.599849609375L94.553790625,121.859849609375L91.976890625,123.001849609375L89.341490625,124.011849609375L86.662090625,124.889849609375L83.953490625,125.651849609375L81.200890625,126.266849609375L78.419090625,126.749849609375L75.637190625,127.100849609375L72.84069062500001,127.305849609375L70.014990625,127.378849609375L67.20379062500001,127.305849609375L64.392690625,127.100849609375L61.596190625,126.763849609375L58.814390625,126.280849609375L56.076490625,125.665849609375L53.367790625,124.904849609375L50.688490625,124.026849609375L48.052990625,123.015849609375L45.476190625,121.873849609375L42.972490625,120.599849609375L40.512790625,119.223849609375L38.140890625,117.715849609375L35.842190625,116.090849609375L33.616690625000004,114.362849609375L31.479090625,112.518349609375L29.443990625,110.571049609375L27.496690625,108.535949609375L25.666490625,106.398349609375L23.938790625,104.172849609375L22.313640624999998,101.874149609375L20.805590625,99.502249609375L19.414670625,97.042549609375L18.155520625,94.538849609375L17.013500625,91.961949609375L16.003250625,89.341249609375L15.124770625,86.661849609375L14.363420625,83.953249609375L13.748490625,81.200649609375L13.265326625,78.418849609375L12.928578625,75.622349609375L12.723597025,72.81114960937501L12.650390625,70.000049609375L12.708959325,67.188949609375L12.928578625,64.377749609375L13.265326625,61.581349609375L13.748490625,58.799449609375L14.363420625,56.046949609375L15.110130625,53.338249609375L15.988610625,50.658949609375L17.013500625,48.038149609375L18.155520625,45.461249609375L19.414670625,42.942949609375L20.805590625,40.497849609374995L22.313640624999998,38.125949609375L23.938790625,35.812649609375L25.666490625,33.601849609375L27.511290625,31.464149609375L29.443990625,29.429049609375L31.479090625,27.481749609375L33.616690625000004,25.651549609375L35.842190625,23.923949609375L38.140890625,22.298739609374998L40.527390624999995,20.790689609375L42.972490625,19.399759609375L45.490790625,18.140609609374998L48.067690625,16.998589609375L50.703090625,15.988349609375L53.367790625,15.109869609375L56.091090625,14.363159609375L58.828990625,13.733589609375L61.610890625,13.265065609375L64.392690625,12.899033609375L67.20379062500001,12.694056009375L70.014990625,12.620849609375L72.84069062500001,12.694056009375L75.637190625,12.899033609375L78.433690625,13.250423609375L81.215490625,13.718949609375L83.968090625,14.348519609375L86.676790625,15.095229609375L89.356090625,15.973699609375L91.991490625,16.983949609375L94.553790625,18.125979609375L97.072090625,19.399759609375L99.531790625,20.776039609374997L101.903690625,22.284099609374998L104.202390625,23.909249609375L106.427890625,25.636949609375L108.565490625,27.481749609375L110.600590625,29.429049609375L112.533290625,31.464149609375L114.378390625,33.601849609375L116.105390625,35.812649609375L117.731390625,38.125949609375L119.239390625,40.497849609374995L120.630390625,42.957549609375L121.889390625,45.475849609375L123.031390625,48.038149609375L124.041390625,50.673549609375L124.919390625,53.352949609375L125.681390625,56.061549609375L126.296390625,58.814149609375L126.779390625,61.595949609375L127.116390625,64.377749609375L127.321390625,67.188949609375L127.394390625,70.000049609375Z" fill="#F3F3F3" fill-opacity="1" style="mix-blend-mode:passthrough"/></g><g><g><g><path d="M36.1279296875,112.7974451171875L103.3908296875,112.7974451171875L91.7109296875,99.6512451171875L47.8078296875,99.6512451171875L36.1279296875,112.7974451171875Z" fill="#FFFFFF" fill-opacity="1"/><path d="M47.434129687500004,99.3191521171875L35.7541466875,112.4653451171875Q35.6931656875,112.5340451171875,35.6605476875,112.6198451171875Q35.6279296875,112.7056451171875,35.6279296875,112.7974451171875Q35.6279296875,112.8467451171875,35.6375366875,112.8950451171875Q35.6471446875,112.9433451171875,35.6659896875,112.9888451171875Q35.6848356875,113.0343451171875,35.7121946875,113.0752451171875Q35.7395546875,113.1161451171875,35.7743766875,113.1510451171875Q35.8091986875,113.1858451171875,35.8501446875,113.2131451171875Q35.8910906875,113.2405451171875,35.9365876875,113.2594451171875Q35.9820846875,113.2782451171875,36.0303845875,113.2878451171875Q36.0786839875,113.2974451171875,36.1279296875,113.2974451171875L103.3908296875,113.2974451171875Q103.4827296875,113.2974451171875,103.5685296875,113.2648451171875Q103.6543296875,113.2322451171875,103.7229296875,113.1712451171875Q103.7973296875,113.1051451171875,103.8407296875,113.01574511718749Q103.8841296875,112.9262451171875,103.8900296875,112.8269451171875Q103.8958296875,112.7276451171875,103.8633296875,112.6336451171875Q103.8307296875,112.5397451171875,103.7646296875,112.4653451171875L92.0847296875,99.3191521171875Q92.0135296875,99.2390531171875,91.91582968750001,99.1951491171875Q91.8180296875,99.1512451171875,91.7109296875,99.1512451171875L47.8078296875,99.1512451171875Q47.7007296875,99.1512451171875,47.6030296875,99.1951491171875Q47.5052296875,99.2390541171875,47.434129687500004,99.3191521171875ZM37.2409996875,112.2974451171875L102.2778296875,112.2974451171875L91.4863296875,100.1512451171875L48.0325296875,100.1512451171875L37.2409996875,112.2974451171875Z" fill-rule="evenodd" fill="#000000" fill-opacity="1"/></g><g><rect x="36.1279296875" y="112.79746055603027" width="67.26293182373047" height="3.380110025405884" rx="0" fill="#006DE2" fill-opacity="1"/><path d="M35.6279296875,116.17757055603028L35.6279296875,112.79746055603027Q35.6279296875,112.74821485603027,35.6375366875,112.69991545603027Q35.6471446875,112.65161555603028,35.6659896875,112.60611855603027Q35.6848356875,112.56062155603027,35.7121946875,112.51967555603028Q35.7395546875,112.47872955603027,35.7743766875,112.44390755603027Q35.8091986875,112.40908555603028,35.8501446875,112.38172555603028Q35.8910906875,112.35436655603027,35.9365876875,112.33552055603027Q35.9820846875,112.31667555603028,36.0303845875,112.30706755603028Q36.0786839875,112.29746055603027,36.1279296875,112.29746055603027L103.3908296875,112.29746055603027Q103.4401296875,112.29746055603027,103.4884296875,112.30706755603028Q103.5367296875,112.31667555603028,103.5822296875,112.33552055603027Q103.6277296875,112.35436655603027,103.6686296875,112.38172555603028Q103.7095296875,112.40908555603028,103.7444296875,112.44390755603027Q103.7792296875,112.47872955603027,103.8066296875,112.51967555603028Q103.8339296875,112.56062155603027,103.8528296875,112.60611855603027Q103.8716296875,112.65161555603028,103.8812296875,112.69991545603027Q103.8908296875,112.74821485603027,103.8908296875,112.79746055603027L103.8908296875,116.17757055603028Q103.8908296875,116.22682055603028,103.8812296875,116.27511055603027Q103.8716296875,116.32341055603027,103.8528296875,116.36891055603027Q103.8339296875,116.41441055603028,103.8066296875,116.45535055603027Q103.7792296875,116.49630055603028,103.7444296875,116.53112055603027Q103.7095296875,116.56594055603027,103.6686296875,116.59330055603027Q103.6277296875,116.62066055603027,103.5822296875,116.63951055603027Q103.5367296875,116.65835055603027,103.4884296875,116.66796055603027Q103.4401296875,116.67757055603028,103.3908296875,116.67757055603028L36.1279296875,116.67757055603028Q36.0786839875,116.67757055603028,36.0303845875,116.66796055603027Q35.9820846875,116.65835055603027,35.9365876875,116.63951055603027Q35.8910906875,116.62066055603027,35.8501446875,116.59330055603027Q35.8091986875,116.56594055603027,35.7743766875,116.53112055603027Q35.7395546875,116.49630055603028,35.7121946875,116.45535055603027Q35.6848356875,116.41441055603028,35.6659896875,116.36891055603027Q35.6471446875,116.32341055603027,35.6375366875,116.27511055603027Q35.6279296875,116.22682055603028,35.6279296875,116.17757055603028ZM36.6279296875,113.29746055603027L36.6279296875,115.67757055603028L102.8908296875,115.67757055603028L102.8908296875,113.29746055603027L36.6279296875,113.29746055603027Z" fill="#000000" fill-opacity="1"/></g></g><g><path d="M63.91015625,46.3822021484375L63.91015625,107.4529021484375L76.08985625,107.4529021484375L76.08985625,46.3822021484375C76.08985625,43.6207821484375,73.85126625,41.3822021484375,71.08984625,41.3822021484375L68.91015625,41.3822021484375C66.14873625,41.3822021484375,63.91015625,43.6207821484375,63.91015625,46.3822021484375Z" fill="#F2F3FF" fill-opacity="1"/><path d="M63.91015625,46.3822021484375L63.91015625,107.4529021484375L75.08985625,107.4529021484375L76.08985625,107.4529021484375L76.08985625,46.3822021484375C76.08985625,43.6207821484375,73.85126625,41.3822021484375,71.08984625,41.3822021484375L68.91015625,41.3822021484375C66.14873625,41.3822021484375,63.91015625,43.6207821484375,63.91015625,46.3822021484375ZM75.08985625,106.4529021484375L64.91015625,106.4529021484375L64.91015625,46.3822021484375Q64.91015625,44.7253521484375,66.08172625,43.5537721484375Q67.25330625,42.3822021484375,68.91015625,42.3822021484375L71.08983625,42.3822021484375Q72.74669625,42.3822021484375,73.91825625,43.5537721484375Q75.08985625,44.7253521484375,75.08985625,46.3822021484375L75.08985625,106.4529021484375Z" fill-rule="evenodd" fill="#000000" fill-opacity="1"/></g><g><path d="" fill="#FFFFFF" fill-opacity="1"/><path d="M109.6837296875,44.47284493243408Q109.7635296875,44.45148293243408,109.8321296875,44.40562193243408Q109.90082968749999,44.35975993243408,109.9510296875,44.294266932434084Q110.0013296875,44.22877393243408,110.0278296875,44.15060093243408Q110.0543296875,44.072427532434084,110.0543296875,43.98987293243408Q110.0543296875,43.94062723243408,110.0447296875,43.892327832434084Q110.0351296875,43.84402793243408,110.01632968749999,43.79853093243408Q109.9974296875,43.75303393243408,109.97012968749999,43.71208793243408Q109.94272968749999,43.67114193243408,109.9079296875,43.636319932434084Q109.8731296875,43.60149793243408,109.8321296875,43.574137932434084Q109.79122968749999,43.54677893243408,109.7457296875,43.527932932434084Q109.7002296875,43.509087932434085,109.6519296875,43.499479932434085Q109.6036296875,43.48987293243408,109.5543296875,43.48987293243408Q109.4885296875,43.48987293243408,109.4249296875,43.506920932434085Q103.7051296875,45.04007293243408,93.9270296875,45.940452932434084Q83.8321296875,46.87000293243408,72.0659175595,46.87002293243408L72.0654296875,46.87002293243408Q72.0161839875,46.87002293243408,71.9678845875,46.879632932434085Q71.9195846875,46.88924293243408,71.8740876875,46.908082932434084Q71.8285906875,46.926932932434084,71.7876446875,46.95429293243408Q71.7466986875,46.98165293243408,71.7118766875,47.016472932434084Q71.6770546875,47.05129293243408,71.6496946875,47.09224293243408Q71.6223356875,47.13318293243408,71.6034896875,47.178682932434086Q71.5846446875,47.22418293243408,71.5750366875,47.27248293243408Q71.5654296875,47.320782932434085,71.5654296875,47.37002293243408Q71.5654296875,47.41927293243408,71.5750366875,47.46757293243408Q71.5846446875,47.51587293243408,71.6034896875,47.56136293243408Q71.6223356875,47.60686293243408,71.6496946875,47.64781293243408Q71.6770546875,47.688752932434085,71.7118766875,47.72357293243408Q71.7466986875,47.75840293243408,71.7876446875,47.78576293243408Q71.8285906875,47.813122932434084,71.8740876875,47.83196293243408Q71.9195846875,47.85081293243408,71.9678845875,47.86041293243408Q72.0161839875,47.87002293243408,72.0654296875,47.87002293243408Q83.8778296875,47.87002293243408,94.0187296875,46.936242932434084Q103.8812296875,46.02808293243408,109.6832296875,44.47299093243408L109.6837296875,44.47284393243408L109.6837296875,44.47284493243408Z" fill-rule="evenodd" fill="#000000" fill-opacity="1"/></g><g><g><path d="M9.201171875,49.3939421875L130.31717187499999,49.3939421875L109.286171875,31.1357421875L30.232571875,31.1357421875L9.201171875,49.3939421875Z" fill="#FFFFFF" fill-opacity="1"/><path d="M29.904771875,30.7581731875L8.873388875,49.0163421875Q8.791345875,49.0875421875,8.746258875,49.1864421875Q8.701171875,49.2852421875,8.701171875,49.3939421875Q8.701171875,49.4431421875,8.710778875,49.4914421875Q8.720386874999999,49.539742187499996,8.739231875,49.5852421875Q8.758077875,49.630742187500005,8.785436875,49.6716421875Q8.812796875,49.712642187499995,8.847618875,49.7474421875Q8.882440875,49.7822421875,8.923386875,49.8096421875Q8.964332875,49.8369421875,9.009829875,49.8558421875Q9.055326875,49.8746421875,9.103626775,49.8842421875Q9.151926175,49.8939421875,9.201171875,49.8939421875L130.31717187499999,49.8939421875Q130.426171875,49.8939421875,130.525171875,49.8488421875Q130.623171875,49.8037421875,130.695171875,49.721642187499995Q130.727171875,49.6844421875,130.751171875,49.6417421875Q130.776171875,49.5989421875,130.791171875,49.5522421875Q130.807171875,49.5055421875,130.813171875,49.4566421875Q130.819171875,49.407842187499995,130.816171875,49.358642187499996Q130.812171875,49.3095421875,130.799171875,49.2620421875Q130.78617187499998,49.2145421875,130.764171875,49.170542187500004Q130.742171875,49.126442187500004,130.712171875,49.0875421875Q130.682171875,49.0486421875,130.64517187500002,49.0163421875L109.614171875,30.7581731875Q109.545171875,30.6989551875,109.461171875,30.6673491875Q109.376171875,30.6357421875,109.286171875,30.6357421875L30.232571875,30.6357421875Q30.142171875,30.6357421875,30.057571875,30.6673491875Q29.972971875,30.6989551875,29.904771875,30.7581731875ZM10.539811875,48.8939421875L128.97917187500002,48.8939421875L109.099171875,31.6357421875L30.419271875,31.6357421875L10.539811875,48.8939421875Z" fill-rule="evenodd" fill="#000000" fill-opacity="1"/></g><g><rect x="9.201171875" y="49.39389419555664" width="121.11615753173828" height="9.00156021118164" rx="0" fill="#006DE2" fill-opacity="1"/><path d="M8.701171875,58.39545419555664L8.701171875,49.39389419555664Q8.701171875,49.34464849555664,8.710778875,49.29634909555664Q8.720386874999999,49.24804919555664,8.739231875,49.20255219555664Q8.758077875,49.15705519555664,8.785436875,49.11610919555664Q8.812796875,49.07516319555664,8.847618875,49.04034119555664Q8.882440875,49.00551919555664,8.923386875,48.97815919555664Q8.964332875,48.95080019555664,9.009829875,48.93195419555664Q9.055326875,48.91310919555664,9.103626775,48.90350119555664Q9.151926175,48.89389419555664,9.201171875,48.89389419555664L130.31717187499999,48.89389419555664Q130.36617187500002,48.89389419555664,130.415171875,48.90350119555664Q130.463171875,48.91310919555664,130.50817187500002,48.93195419555664Q130.554171875,48.95080019555664,130.595171875,48.97815919555664Q130.636171875,49.00551919555664,130.671171875,49.04034119555664Q130.706171875,49.07516319555664,130.73317187499998,49.11610919555664Q130.760171875,49.15705519555664,130.779171875,49.20255219555664Q130.79817187499998,49.24804919555664,130.808171875,49.29634909555664Q130.81717187499999,49.34464849555664,130.81717187499999,49.39389419555664L130.81717187499999,58.39545419555664Q130.81717187499999,58.44470419555664,130.808171875,58.49299419555664Q130.79817187499998,58.54129419555664,130.779171875,58.58679419555664Q130.760171875,58.63229419555664,130.73317187499998,58.67323419555664Q130.706171875,58.71418419555664,130.671171875,58.74900419555664Q130.636171875,58.78382419555664,130.595171875,58.81118419555664Q130.554171875,58.838544195556636,130.50817187500002,58.85739419555664Q130.463171875,58.87623419555664,130.415171875,58.88584419555664Q130.36617187500002,58.89545419555664,130.31717187499999,58.89545419555664L9.201171875,58.89545419555664Q9.151926175,58.89545419555664,9.103626775,58.88584419555664Q9.055326875,58.87623419555664,9.009829875,58.85739419555664Q8.964332875,58.838544195556636,8.923386875,58.81118419555664Q8.882440875,58.78382419555664,8.847618875,58.74900419555664Q8.812796875,58.71418419555664,8.785436875,58.67323419555664Q8.758077875,58.63229419555664,8.739231875,58.58679419555664Q8.720386874999999,58.54129419555664,8.710778875,58.49299419555664Q8.701171875,58.44470419555664,8.701171875,58.39545419555664ZM9.701171875,49.89389419555664L9.701171875,57.89545419555664L129.81717187499999,57.89545419555664L129.81717187499999,49.89389419555664L9.701171875,49.89389419555664Z" fill="#000000" fill-opacity="1"/></g></g></g><g><path d="" fill="#FFFFFF" fill-opacity="1"/><path d="M50.349609375,37.6800537109375L89.17090937500001,37.6800537109375Q89.22010937499999,37.6800537109375,89.268409375,37.6896607109375Q89.316709375,37.6992687109375,89.36220937499999,37.7181137109375Q89.407709375,37.7369597109375,89.44870937499999,37.7643187109375Q89.489609375,37.7916787109375,89.524409375,37.8265007109375Q89.559309375,37.8613227109375,89.586609375,37.9022687109375Q89.614009375,37.9432147109375,89.632809375,37.9887117109375Q89.651709375,38.0342087109375,89.661309375,38.0825086109375Q89.67090937500001,38.1308080109375,89.67090937500001,38.1800537109375Q89.67090937500001,38.2292994109375,89.661309375,38.2775988109375Q89.651709375,38.3258987109375,89.632809375,38.3713957109375Q89.614009375,38.4168927109375,89.586609375,38.4578387109375Q89.559309375,38.4987847109375,89.524409375,38.5336067109375Q89.489609375,38.5684287109375,89.44870937499999,38.5957887109375Q89.407709375,38.6231477109375,89.36220937499999,38.6419937109375Q89.316709375,38.6608387109375,89.268409375,38.6704467109375Q89.22010937499999,38.6800537109375,89.17090937500001,38.6800537109375L50.349609375,38.6800537109375Q50.300363675,38.6800537109375,50.252064275,38.6704467109375Q50.203764375,38.6608387109375,50.158267375,38.6419937109375Q50.112770375,38.6231477109375,50.071824375,38.5957887109375Q50.030878375,38.5684287109375,49.996056375,38.5336067109375Q49.961234375,38.4987847109375,49.933874375,38.4578387109375Q49.906515375,38.4168927109375,49.887669375,38.3713957109375Q49.868824375,38.3258987109375,49.859216375,38.2775988109375Q49.849609375,38.2292994109375,49.849609375,38.1800537109375Q49.849609375,38.1308080109375,49.859216375,38.0825086109375Q49.868824375,38.0342087109375,49.887669375,37.9887117109375Q49.906515375,37.9432147109375,49.933874375,37.9022687109375Q49.961234375,37.8613227109375,49.996056375,37.8265007109375Q50.030878375,37.7916787109375,50.071824375,37.7643187109375Q50.112770375,37.7369597109375,50.158267375,37.7181137109375Q50.203764375,37.6992687109375,50.252064275,37.6896607109375Q50.300363675,37.6800537109375,50.349609375,37.6800537109375Z" fill-rule="evenodd" fill="#000000" fill-opacity="1"/></g></g></g></svg>