<svg xmlns="http://www.w3.org/2000/svg" xmlns:xlink="http://www.w3.org/1999/xlink" fill="none" version="1.1" width="140" height="140" viewBox="0 0 140 140"><defs><mask id="master_svg0_57640_189178" style="mask-type:alpha" maskUnits="userSpaceOnUse"><g><rect x="0" y="0" width="140" height="140" rx="0" fill="#FFFFFF" fill-opacity="1"/></g></mask><clipPath id="master_svg1_57640_189167"><rect x="-30" y="-30" width="200" height="200" rx="0"/></clipPath></defs><g mask="url(#master_svg0_57640_189178)"><g clip-path="url(#master_svg1_57640_189167)"><g><path d="M127.394390625,70.000098046875L127.321390625,72.811198046875L127.116390625,75.622298046875L126.779390625,78.418798046875L126.296390625,81.200598046875L125.681390625,83.953198046875L124.919390625,86.661898046875L124.041390625,89.341198046875L123.016390625,91.961998046875L121.874390625,94.538898046875L120.615390625,97.057198046875L119.224390625,99.502298046875L117.716390625,101.874098046875L116.091390625,104.187498046875L114.363390625,106.398298046875L112.518590625,108.535898046875L110.585990625,110.571098046875L108.550790625,112.518398046875L106.413190625,114.348498046875L104.187690625,116.076498046875L101.888990625,117.701498046875L99.502490625,119.209498046875L97.057390625,120.600498046875L94.539090625,121.859498046875L91.962290625,123.001498046875L90.659190625,123.528498046875L88.009090625,124.480498046875L85.315090625,125.285498046875L82.577190625,125.973498046875L79.824590625,126.530498046875L77.028090625,126.940498046875L74.231690625,127.218498046875L71.420490625,127.364498046875L68.609390625,127.364498046875L65.79829062499999,127.218498046875L62.987090625,126.940498046875L60.205290625,126.530498046875L57.438090625,125.988498046875L54.700190625,125.300498046875L52.020790625,124.480498046875L49.370690625,123.528498046875L46.764590625,122.445498046875L44.216990625,121.244498046875L41.727990625000004,119.912498046875L39.312190625,118.462498046875L36.969590624999995,116.896498046875L34.714790625,115.227498046875L32.533290625,113.440498046875L30.454190625,111.551998046875L28.462990625,109.560798046875L26.574290625,107.481798046875L24.787990625,105.300198046875L23.104290625,103.030798046875L21.537650624999998,100.688198046875L20.088170625,98.286998046875L18.770450625,95.797998046875L17.555220625,93.250398046875L16.486410625,90.658898046875L15.534730625,88.008898046875L14.714810625,85.314798046875L14.041310625,82.576898046875L13.484945625,79.809698046875L13.074991625,77.013198046875L12.796803625,74.216798046875L12.665032825,71.405598046875L12.650390625,68.594498046875L12.796803625,65.78339804687499L13.074991625,62.972198046875L13.484945625,60.190398046875L14.026670625,57.423198046875L14.714810625,54.685298046875L15.534730625,51.991298046875L16.471770625,49.341198046875L17.555220625,46.749698046875L18.155520625,45.461298046875L19.414670625,42.942998046875005L20.805590625,40.497898046875L22.313640624999998,38.125998046875L23.938790625,35.827298046875L24.787990625,34.699898046875L26.574290625,32.518398046875L28.462990625,30.439298046875L30.454190625,28.448098046875L32.533290625,26.559398046875L34.714790625,24.773098046875L36.969590624999995,23.089398046875L39.312190625,21.522758046874998L41.727990625000004,20.073268046875L44.216990625,18.755558046875L46.764590625,17.554968046875L49.370690625,16.471508046875L52.020790625,15.534468046875L54.714790625,14.714558046875L57.438090625,14.026418046875L60.205290625,13.484691046875L61.596190625,13.265072046875L64.392690625,12.899039046875L67.20379062500001,12.694062346875L68.609390625,12.635498046875L71.420490625,12.635498046875L74.231690625,12.781911046875L77.042790625,13.060094046875L79.824590625,13.470049046875L82.591790625,14.011778046875L85.315090625,14.699918046875L88.009090625,15.519828046875L90.659190625,16.456868046875L93.265290625,17.554968046875L95.812890625,18.755558046875L98.287290625,20.087908046875L100.703090625,21.537398046874998L103.045690625,23.103998046875L105.315090625,24.773098046875L107.496690625,26.559398046875L109.575690625,28.448098046875L111.566890625,30.439298046875L113.455390625,32.532998046875L115.242390625,34.699898046875L116.925390625,36.954698046874995L118.492390625,39.311898046875L119.927390625,41.713098046875004L121.259390625,44.202098046875L122.460390625,46.749698046875L123.543390625,49.355798046875L124.495390625,52.005898046875L125.300390625,54.699898046875L125.988390625,57.423198046875L126.530390625,60.190398046875L126.955390625,62.986898046875L127.218390625,65.78339804687499L127.306390625,67.18889804687501L127.394390625,70.000098046875Z" fill="#F3F3F3" fill-opacity="1" style="mix-blend-mode:passthrough"/></g><g><path d="M15.009765625,108.123032421875L15.041273525,108.658732421875L15.151563625,109.162932421875L15.309116625,109.635532421875L15.529691625,110.076732421875L16.144155625,110.848732421875L16.506525625000002,111.179632421875L16.916165625,111.447432421875L17.357315625,111.683832421875L17.829975625,111.841332421875L18.334155625,111.951632421875L18.869835625,111.983132421875L92.179665625,111.983132421875L92.179665625,34.813232421875L15.009765625,34.813232421875L15.009765625,108.123032421875Z" fill="#FFFFFF" fill-opacity="1" style="mix-blend-mode:passthrough"/></g><g><path d="M15.009765625,108.123032421875L15.041273525,108.658732421875L15.151563625,109.162932421875L15.309116625,109.635532421875L15.529691625,110.076732421875L16.144155625,110.848732421875L16.506525625000002,111.179632421875L16.916165625,111.447432421875L17.357315625,111.683832421875L17.829975625,111.841332421875L18.334155625,111.951632421875L18.869835625,111.983132421875L92.179665625,111.983132421875L92.179665625,34.813232421875L15.009765625,34.813232421875L15.009765625,108.123032421875ZM18.869835625,111.022032421875L91.218565625,111.022032421875L91.218565625,35.774307421875L15.970845625,35.774307421875L15.970845625,108.123032421875L16.018105625,108.658732421875L16.159905625,109.147132421875L16.364725625,109.588332421875L16.648325625,109.997932421875L16.994945625,110.344532421875L17.404585625,110.628132421875L17.845735625,110.833032421875L18.334155625,110.974832421875L18.869835625,111.022032421875Z" fill-rule="evenodd" fill="#000000" fill-opacity="1" style="mix-blend-mode:passthrough"/></g><g><path d="M65.6488875,98.9690235L41.0546875,98.9690235L41.0546875,97.9921875L65.6488875,97.9921875L65.6488875,98.9690235Z" fill-rule="evenodd" fill="#000000" fill-opacity="1" style="mix-blend-mode:passthrough"/></g><g><path d="M2.343621875,72.594513671875L2.186067475,73.193213671875L2.123046875,73.807713671875L2.170313575,74.406413671875L2.296354875,75.005113671875L2.516931875,75.57231367187501L2.832036875,76.108013671875L3.241676875,76.580613671875L3.698586875,76.990313671875L4.218516875000001,77.305413671875L4.769956875,77.541713671875L5.368656875,77.683513671875L5.983116875,77.730813671875L15.483646875,77.730813671875L15.483646875,35.301513671875L2.343621875,72.594513671875Z" fill="#006DE2" fill-opacity="1"/></g><g><path d="M1.9024756250000001,72.43713242187499L15.042490625,35.128340421875L15.121290625,34.986537421875L15.404890625,34.813232421875L15.735690625,34.876253021875L15.940490625,35.112583421875L15.972090625,35.285894421875L15.972090625,77.746632421875L15.940490625,77.91993242187499L15.830190625,78.07753242187499L15.672690625,78.187832421875L15.483590625,78.21933242187501L5.983120625,78.21933242187501L5.463190625,78.187832421875L4.470610625,77.951532421875L3.556790625,77.478832421875L3.147150625,77.163732421875L2.438160625,76.39173242187499L1.965498625,75.509432421875L1.697657325,74.532532421875L1.650390625,73.996932421875L1.666144525,73.476932421875L1.744921525,72.957032421875L1.9024756250000001,72.43713242187499ZM2.800530625,72.752232421875L2.658730625,73.287932421875L2.611468625,73.80783242187499L2.642980625,74.343532421875L2.7532606250000002,74.86343242187499L2.958090625,75.351832421875L3.225930625,75.824532421875L3.588300625,76.249932421875L3.982190625,76.596532421875L4.439090625,76.880132421875L4.927510625,77.08493242187501L5.4474406250000005,77.21103242187499L5.983120625,77.258232421875L15.010990625,77.258232421875L15.010990625,38.121862421875L2.800530625,72.752232421875Z" fill-rule="evenodd" fill="#000000" fill-opacity="1" style="mix-blend-mode:passthrough"/></g><g><path d="M91.220703125,34.813232421875L124.984503125,34.813232421875L124.984503125,108.123032421875L124.95300312500001,108.658732421875L124.842703125,109.162932421875L124.685103125,109.635532421875L124.448803125,110.076732421875L124.18100312499999,110.486332421875L123.487703125,111.179632421875L123.078103125,111.463232421875L122.621203125,111.683832421875L122.148503125,111.857132421875L121.660103125,111.951632421875L121.124403125,111.983132421875L91.220703125,111.983132421875L91.220703125,34.813232421875Z" fill="#F2F3FF" fill-opacity="1" style="mix-blend-mode:passthrough"/></g><g><path d="M91.220703125,34.813232421875L124.984503125,34.813232421875L124.984503125,108.123032421875L124.95300312500001,108.658732421875L124.842703125,109.162932421875L124.685103125,109.635532421875L124.448803125,110.076732421875L124.18100312499999,110.486332421875L123.487703125,111.179632421875L123.078103125,111.463232421875L122.621203125,111.683832421875L122.148503125,111.857132421875L121.660103125,111.951632421875L121.124403125,111.983132421875L91.220703125,111.983132421875L91.220703125,34.813232421875ZM92.181788125,35.774307421875L124.023403125,35.774307421875L124.023403125,108.123032421875L123.976203125,108.658732421875L123.850103125,109.147132421875L123.629503125,109.588332421875L123.345903125,109.997932421875L122.999303125,110.344532421875L122.589703125,110.628132421875L122.148503125,110.848732421875L121.660103125,110.974832421875L121.124403125,111.022032421875L92.181788125,111.022032421875L92.181788125,35.774307421875Z" fill-rule="evenodd" fill="#000000" fill-opacity="1" style="mix-blend-mode:passthrough"/></g><g><path d="M138.581403125,73.067332421875L138.754703125,73.666032421875L138.817703125,74.280532421875L138.770503125,74.879232421875L138.644403125,75.47793242187501L138.423903125,76.045132421875L138.108803125,76.580732421875L137.699103125,77.069232421875L137.242203125,77.463032421875L136.722303125,77.793932421875L136.170803125,78.030232421875L135.572103125,78.172032421875L134.957703125,78.21933242187501L109.386703125,78.21933242187501L108.83520312499999,78.187832421875L108.331103125,78.07753242187499L107.826903125,77.888432421875L107.370003125,77.652132421875L106.944603125,77.35283242187501L106.566503125,77.00613242187501L106.235603125,76.596532421875L105.967803125,76.155332421875L105.747203125,75.651232421875L91.220703125,34.813232421875L124.984503125,34.813232421875L138.581403125,73.067332421875Z" fill="#FFFFFF" fill-opacity="1" style="mix-blend-mode:passthrough"/></g><g><path d="M124.984503125,34.813232421875L91.220703125,34.813232421875L105.747203125,75.651232421875L105.967803125,76.155332421875L106.235603125,76.596532421875L106.566503125,77.00613242187501L106.944603125,77.368532421875L107.370003125,77.652132421875L107.826903125,77.90423242187501L108.315303125,78.07753242187499L108.83520312499999,78.187832421875L109.386703125,78.21933242187501L134.957703125,78.21933242187501L135.572103125,78.172032421875L136.170803125,78.030232421875L136.722303125,77.793932421875L137.242203125,77.463032421875L137.699103125,77.069232421875L138.108803125,76.580732421875L138.423903125,76.045132421875L138.644403125,75.47793242187501L138.770503125,74.894932421875L138.817703125,74.280532421875L138.754703125,73.681832421875L138.581403125,73.067332421875L124.984503125,34.813232421875ZM137.321003125,76.029332421875L137.573103125,75.63543242187501L137.746403125,75.210032421875L137.840903125,74.753132421875L137.856703125,74.296232421875L137.80940312500002,73.855132421875L137.683303125,73.398132421875L124.307003125,35.774307421875L92.591423125,35.774307421875L106.645203125,75.33613242187499L107.023403125,76.045132421875L107.559003125,76.61233242187501L108.220803125,77.021932421875L108.58310312500001,77.147932421875L109.386703125,77.258232421875L134.957703125,77.258232421875L135.430303125,77.226732421875L135.871503125,77.132232421875L136.296903125,76.958932421875L136.675003125,76.70683242187499L137.021603125,76.407432421875L137.321003125,76.029332421875Z" fill-rule="evenodd" fill="#000000" fill-opacity="1" style="mix-blend-mode:passthrough"/></g></g></g></svg>