<svg xmlns="http://www.w3.org/2000/svg" xmlns:xlink="http://www.w3.org/1999/xlink" fill="none" version="1.1" width="140" height="140" viewBox="0 0 140 140"><defs><mask id="master_svg0_57640_189943" style="mask-type:alpha" maskUnits="userSpaceOnUse"><g><rect x="0" y="0" width="140" height="140" rx="0" fill="#FFFFFF" fill-opacity="1"/></g></mask><clipPath id="master_svg1_57640_189935"><rect x="-30" y="-30" width="200" height="200" rx="0"/></clipPath></defs><g mask="url(#master_svg0_57640_189943)"><g clip-path="url(#master_svg1_57640_189935)"><g><path d="M127.394390625,70.000098046875L127.321390625,72.811198046875L127.116390625,75.622298046875L126.779390625,78.418798046875L126.296390625,81.200598046875L125.681390625,83.953198046875L124.919390625,86.661898046875L124.041390625,89.341198046875L123.016390625,91.961998046875L121.874390625,94.538898046875L120.615390625,97.057198046875L119.224390625,99.502298046875L117.716390625,101.874098046875L116.091390625,104.187498046875L114.363390625,106.398298046875L112.518590625,108.535898046875L110.585990625,110.571098046875L108.550790625,112.518398046875L106.413190625,114.348498046875L104.187690625,116.076498046875L101.888990625,117.701498046875L99.502490625,119.209498046875L97.057390625,120.600498046875L94.539090625,121.859498046875L91.962290625,123.001498046875L90.659190625,123.528498046875L88.009090625,124.480498046875L85.315090625,125.285498046875L82.577190625,125.973498046875L79.824590625,126.530498046875L77.028090625,126.940498046875L74.231690625,127.218498046875L71.420490625,127.364498046875L68.609390625,127.364498046875L65.79829062499999,127.218498046875L62.987090625,126.940498046875L60.205290625,126.530498046875L57.438090625,125.988498046875L54.700190625,125.300498046875L52.020790625,124.480498046875L49.370690625,123.528498046875L46.764590625,122.445498046875L44.216990625,121.244498046875L41.727990625000004,119.912498046875L39.312190625,118.462498046875L36.969590624999995,116.896498046875L34.714790625,115.227498046875L32.533290625,113.440498046875L30.454190625,111.551998046875L28.462990625,109.560798046875L26.574290625,107.481798046875L24.787990625,105.300198046875L23.104290625,103.030798046875L21.537650624999998,100.688198046875L20.088170625,98.286998046875L18.770450625,95.797998046875L17.555220625,93.250398046875L16.486410625,90.658898046875L15.534730625,88.008898046875L14.714810625,85.314798046875L14.041310625,82.576898046875L13.484945625,79.809698046875L13.074991625,77.013198046875L12.796803625,74.216798046875L12.665032825,71.405598046875L12.650390625,68.594498046875L12.796803625,65.78339804687499L13.074991625,62.972198046875L13.484945625,60.190398046875L14.026670625,57.423198046875L14.714810625,54.685298046875L15.534730625,51.991298046875L16.471770625,49.341198046875L17.555220625,46.749698046875L18.155520625,45.461298046875L19.414670625,42.942998046875005L20.805590625,40.497898046875L22.313640624999998,38.125998046875L23.938790625,35.827298046875L24.787990625,34.699898046875L26.574290625,32.518398046875L28.462990625,30.439298046875L30.454190625,28.448098046875L32.533290625,26.559398046875L34.714790625,24.773098046875L36.969590624999995,23.089398046875L39.312190625,21.522758046874998L41.727990625000004,20.073268046875L44.216990625,18.755558046875L46.764590625,17.554968046875L49.370690625,16.471508046875L52.020790625,15.534468046875L54.714790625,14.714558046875L57.438090625,14.026418046875L60.205290625,13.484691046875L61.596190625,13.265072046875L64.392690625,12.899039046875L67.20379062500001,12.694062346875L68.609390625,12.635498046875L71.420490625,12.635498046875L74.231690625,12.781911046875L77.042790625,13.060094046875L79.824590625,13.470049046875L82.591790625,14.011778046875L85.315090625,14.699918046875L88.009090625,15.519828046875L90.659190625,16.456868046875L93.265290625,17.554968046875L95.812890625,18.755558046875L98.287290625,20.087908046875L100.703090625,21.537398046874998L103.045690625,23.103998046875L105.315090625,24.773098046875L107.496690625,26.559398046875L109.575690625,28.448098046875L111.566890625,30.439298046875L113.455390625,32.532998046875L115.242390625,34.699898046875L116.925390625,36.954698046874995L118.492390625,39.311898046875L119.927390625,41.713098046875004L121.259390625,44.202098046875L122.460390625,46.749698046875L123.543390625,49.355798046875L124.495390625,52.005898046875L125.300390625,54.699898046875L125.988390625,57.423198046875L126.530390625,60.190398046875L126.955390625,62.986898046875L127.218390625,65.78339804687499L127.306390625,67.18889804687501L127.394390625,70.000098046875Z" fill="#F3F3F3" fill-opacity="1" style="mix-blend-mode:passthrough"/></g><g><rect x="34.9375" y="18.4947509765625" width="70.12451171875" height="99.513427734375" rx="6" fill="#F2F3FF" fill-opacity="1"/><rect x="35.4375" y="18.9947509765625" width="69.12451171875" height="98.513427734375" rx="5.5" fill-opacity="0" stroke-opacity="1" stroke="#000000" fill="none" stroke-width="1"/></g><g><path d="M95.966825,34.292782203125L44.122056,36.532898203125L44.078125,35.639778203125L95.937525,33.399658203125L95.966825,34.292782203125Z" fill-rule="evenodd" fill="#000000" fill-opacity="1" style="mix-blend-mode:passthrough"/></g><g><path d="M88.08982499999999,62.535755859375L44.122056,60.281005859375L44.078125,61.188758859375L88.031225,63.428885859375L88.08982499999999,62.535755859375Z" fill-rule="evenodd" fill="#000000" fill-opacity="1" style="mix-blend-mode:passthrough"/></g><g><rect x="17.67578125" y="49.3060302734375" width="104.64707946777344" height="68.70207977294922" rx="5" fill="#FFFFFF" fill-opacity="1"/><rect x="18.17578125" y="49.8060302734375" width="103.64707946777344" height="67.70207977294922" rx="4.5" fill-opacity="0" stroke-opacity="1" stroke="#000000" fill="none" stroke-width="1"/></g><g><path d="M42.43359375 109.73209285736084C42.43359375 105.16136318712915 46.13890224962915 101.4560546875 50.70963191986084 101.4560546875L89.2938585281372 101.4560546875C93.86458819836889 101.4560546875 97.56989669799805 105.16136318712915 97.56989669799805 109.73209285736084L97.56989669799805 118.00813102722168C97.56989669799805 118.00813102722168 97.56989669799805 118.00813102722168 97.56989669799805 118.00813102722168L42.43359375 118.00813102722168C42.43359375 118.00813102722168 42.43359375 118.00813102722168 42.43359375 118.00813102722168Z" fill="#006DE2" fill-opacity="1"/><path d="M42.93359375 109.73209285736084C42.93359375 105.43750556204455 46.41504462454455 101.9560546875 50.70963191986084 101.9560546875L89.2938585281372 101.9560546875C93.5884458234535 101.9560546875 97.06989669799805 105.43750556204455 97.06989669799805 109.73209285736084L97.06989669799805 117.50813102722168C97.06989669799805 117.50813102722168 97.06989669799805 117.50813102722168 97.06989669799805 117.50813102722168L42.93359375 117.50813102722168C42.93359375 117.50813102722168 42.93359375 117.50813102722168 42.93359375 117.50813102722168Z" fill-opacity="0" stroke-opacity="1" stroke="#000000" fill="none" stroke-width="1"/></g><g><path d="M34.71616375,73.2739184375L34.71616375,73.2739184375C32.47177375,73.2705984375,30.65234375,71.4511684375,30.65234375,69.2067884375C30.65234375,66.9623984375,32.47177375,65.1429683075,34.71616375,65.1429683075L34.71616375,65.1429683075L42.039643749999996,65.1396484375L42.039643749999996,65.1396484375C44.28404375,65.1429683075,46.10344375,66.9623984375,46.10344375,69.2067884375C46.10344375,71.4511684375,44.28404375,73.2705984375,42.039643749999996,73.2705984375L42.039643749999996,73.2705984375L34.71616375,73.2739184375Z" fill-rule="evenodd" fill="#006DE2" fill-opacity="1"/></g></g></g></svg>