<svg xmlns="http://www.w3.org/2000/svg" xmlns:xlink="http://www.w3.org/1999/xlink" fill="none" version="1.1" width="140" height="140" viewBox="0 0 140 140"><defs><mask id="master_svg0_58026_244195" style="mask-type:alpha" maskUnits="userSpaceOnUse"><g><rect x="0" y="0" width="140" height="140" rx="0" fill="#FFFFFF" fill-opacity="1"/></g></mask><clipPath id="master_svg1_58026_244189"><rect x="-30" y="-30" width="200" height="200" rx="0"/></clipPath></defs><g mask="url(#master_svg0_58026_244195)"><g clip-path="url(#master_svg1_58026_244189)"><g><path d="M127.3796875,70.01469492187499L127.3066875,72.825894921875L127.1016875,75.636994921875L126.9406875,77.027894921875L126.5306875,79.824394921875L125.9886875,82.576994921875L125.3006875,85.314894921875L124.4806875,88.008894921875L123.5436875,90.658894921875L122.4596875,93.250494921875L121.2446875,95.797994921875L119.9266875,98.287094921875L118.4776875,100.702894921875L116.9106875,103.045494921875L115.2276875,105.300194921875L113.4406875,107.481794921875L111.5522875,109.560794921875L109.5610875,111.552094921875L107.4819875,113.440794921875L105.3004875,115.226794921875L103.0456875,116.910794921875L100.7030875,118.477794921875L98.2872875,119.911794921875L95.7982875,121.244794921875L93.2653875,122.444794921875L90.6591875,123.528794921875L88.0090875,124.480794921875L85.3150875,125.285794921875L82.5771875,125.973794921875L79.8245875,126.529794921875L77.0427875,126.939794921875L74.23168749999999,127.217794921875L71.42048750000001,127.364794921875L68.6093875,127.364794921875L65.7982875,127.217794921875L62.9871875,126.939794921875L60.2052875,126.529794921875L57.4527875,125.988794921875L54.7147875,125.299794921875L52.0207875,124.480794921875L49.3707875,123.542794921875L46.7645875,122.459794921875L44.2169875,121.258794921875L41.7426875,119.926794921875L39.326787499999995,118.477794921875L36.984187500000004,116.910794921875L34.729487500000005,115.241794921875L32.5478875,113.455794921875L30.4541875,111.566694921875L28.4629875,109.575494921875L26.5742875,107.481794921875L24.7879875,105.314894921875L23.1188875,103.045494921875L21.552307499999998,100.702894921875L20.1028175,98.287094921875L18.7704675,95.812694921875L17.5698775,93.265094921875L16.5010675,90.658894921875L15.5493775,88.008894921875L14.7294675,85.314894921875L14.0559675,82.576994921875L13.4996005,79.824394921875L13.0896415,77.027894921875L12.8114585,74.231394921875L12.6796875,71.420294921875L12.6796875,68.609194921875L12.8114585,65.797994921875L13.0896415,62.986894921875L13.4996005,60.205094921875L14.0559675,57.437894921875L14.7294675,54.714594921875L15.5493775,52.020594921875L16.4864175,49.370494921875L17.5698775,46.764394921875L18.7704675,44.216794921875L20.1028175,41.742394921875004L21.552307499999998,39.326594921875L23.1188875,36.983994921874995L24.7879875,34.714594921875005L26.5742875,32.547694921875L28.4629875,30.453994921875L30.4541875,28.462694921875L32.5478875,26.573994921875L34.729487500000005,24.787794921874998L36.984187500000004,23.118694921875L39.326787499999995,21.552054921874998L41.7426875,20.102574921875L44.2169875,18.770214921875L46.7645875,17.569624921875L49.3707875,16.486174921875L52.0207875,15.549134921875L54.7147875,14.729214921875L57.4380875,14.041074921875L60.2052875,13.499349921875L62.9871875,13.089390921875L65.7982875,12.811207921875L68.6093875,12.664794921875L71.42048750000001,12.664794921875L74.23168749999999,12.811207921875L77.0281875,13.089390921875L79.8245875,13.499349921875L82.5771875,14.041074921875L85.3150875,14.729214921875L88.0090875,15.549134921875L90.6591875,16.486174921875L93.2506875,17.569624921875L95.7982875,18.770214921875L98.2872875,20.102574921875L99.5024875,20.819994921875L101.8743875,22.313404921874998L104.1876875,23.938594921875L106.3985875,25.666294921875L108.5361875,27.511094921875L110.5712875,29.458394921875L112.5185875,31.493494921875L114.3486875,33.631094921875004L116.0766875,35.841994921875L117.7016875,38.140594921875L119.2096875,40.527194921875L120.6006875,42.972294921875005L121.8596875,45.490594921875L123.0016875,48.067394921875L124.0266875,50.688194921875L124.9046875,53.367594921875L125.6516875,56.076194921875L126.2666875,58.828794921875L126.7496875,61.595994921875L127.0866875,64.392494921875L127.3066875,67.20359492187501L127.3796875,70.01469492187499Z" fill="#F3F3F3" fill-opacity="1" style="mix-blend-mode:passthrough"/></g><g><g transform="matrix(0.9710032343864441,-0.23906639218330383,0.23906639218330383,0.9710032343864441,-6.8637742041350975,3.9671518720233507)"><path d="M12.921875,40.521960913085934C12.921875,34.863410913085936,17.114575000000002,30.278060913085938,22.288545,30.278060913085938L88.066575,30.278060913085938C93.240475,30.278060913085938,97.433175,34.863410913085936,97.433175,40.521960913085934L97.433175,112.46006091308594C97.433175,118.11756091308594,93.239575,122.70396091308594,88.066575,122.70396091308594L22.288545,122.70396091308594C17.115475,122.70396091308594,12.921875,118.11756091308594,12.921875,112.46006091308594L12.921875,40.521960913085934Z" fill="#F2F3FF" fill-opacity="1"/><path d="M12.421875,40.521960913085934L12.421875,112.46006091308594Q12.421875,116.89736091308593,15.296305,120.04096091308594Q18.188435,123.20386091308593,22.288545,123.20396091308594L88.066575,123.20396091308594Q92.166675,123.20396091308594,95.058775,120.04096091308594Q97.933175,116.89736091308593,97.933175,112.46006091308594L97.933175,40.521960913085934Q97.933175,36.08389091308594,95.059075,32.94065091308594Q92.167375,29.778060913085938,88.066575,29.778060913085938L22.288545,29.778060913085938Q18.187745,29.778060913085938,15.295975,32.94065091308594Q12.421875,36.08391091308594,12.421875,40.521960913085934ZM16.034305,119.36616091308593Q13.421876,116.50906091308593,13.421875,112.46006091308594L13.421875,40.521960913085934Q13.421875,36.47217091308594,16.033974999999998,33.61545091308594Q18.628395,30.778060913085938,22.288545,30.778060913085938L88.066575,30.778060913085938Q91.726675,30.778060913085938,94.321075,33.61545091308594Q96.933275,36.472160913085936,96.933175,40.521960913085934L96.933175,112.46006091308594Q96.933175,116.50906091308593,94.320775,119.36616091308593Q91.725975,122.20396091308594,88.066575,122.20396091308594L22.288545,122.20396091308594Q18.629075,122.20396091308594,16.034305,119.36616091308593Z" fill-rule="evenodd" fill="#000000" fill-opacity="1"/></g><g><path d="M27.744140625,31.7340595703125C27.744140625,25.714209570312498,32.204560625,20.8360595703125,37.708920625,20.8360595703125L107.687140625,20.8360595703125C113.191540625,20.8360595703125,117.651940625,25.714209570312498,117.651940625,31.7340595703125L117.651940625,108.2657595703125C117.651940625,114.2845595703125,113.190540625,119.1637595703125,107.687140625,119.1637595703125L37.708920625,119.1637595703125C32.205520625,119.1637595703125,27.744140625,114.2845595703125,27.744140625,108.2657595703125L27.744140625,31.7340595703125Z" fill="#FFFFFF" fill-opacity="1"/><path d="M27.744140625,31.7340595703125C27.744140625,25.714209570312498,32.204560625,20.8360595703125,37.708920625,20.8360595703125L107.687140625,20.8360595703125C113.191540625,20.8360595703125,117.651940625,25.714209570312498,117.651940625,31.7340595703125L117.651940625,108.2657595703125C117.651940625,114.2845595703125,113.190540625,119.1637595703125,107.687140625,119.1637595703125L37.708920625,119.1637595703125C32.205520625,119.1637595703125,27.744140625,114.2845595703125,27.744140625,108.2657595703125L27.744140625,31.7340595703125ZM28.744140625,31.7340595703125L28.744140625,108.2657595703125Q28.744140625,112.3916595703125,31.400760625,115.2970595703125Q34.022030625,118.1637595703125,37.708920625,118.1637595703125L107.687140625,118.1637595703125Q111.374040625,118.1637595703125,113.995340625,115.2970595703125Q116.651940625,112.3916595703125,116.651940625,108.2657595703125L116.651940625,31.7340595703125Q116.651940625,27.6074195703125,113.995640625,24.7024195703125Q111.374740625,21.8360595703125,107.687140625,21.8360595703125L37.708920625,21.8360595703125Q34.021300625,21.8360595703125,31.400400625,24.7024195703125Q28.744140625,27.6074295703125,28.744140625,31.7340595703125Z" fill-rule="evenodd" fill="#000000" fill-opacity="1"/></g><g><path d="M59.322584375,60.71707015380859C59.322584375,67.89467015380859,65.14113437500001,73.7132701538086,72.31873437499999,73.7132701538086C79.496234375,73.7132701538086,85.314834375,67.89467015380859,85.314834375,60.71707015380859C85.314834375,53.539540153808595,79.496234375,47.720970153808594,72.31873437499999,47.720970153808594C65.14113437500001,47.720970153808594,59.322584375,53.539540153808595,59.322584375,60.71707015380859ZM53.752104375,89.3315701538086C52.646614375,90.50927015380859,53.576914375,92.2791701538086,55.192154375,92.2791701538086L90.202734375,92.2791701538086C91.818034375,92.2791701538086,92.748334375,90.50927015380859,91.642834375,89.3315701538086C86.770234375,84.14087015380859,79.927734375,81.13487015380859,72.697434375,81.13957015380859C65.467134375,81.13487015380859,58.624684375,84.14087015380859,53.752104375,89.3315701538086Z" fill="#006DE2" fill-opacity="1"/></g></g></g></g></svg>