<svg xmlns="http://www.w3.org/2000/svg" xmlns:xlink="http://www.w3.org/1999/xlink" fill="none" version="1.1" width="108" height="80" viewBox="0 0 108 80"><defs><clipPath id="master_svg0_48879_094294"><rect x="0" y="0" width="108" height="80" rx="0"/></clipPath></defs><g clip-path="url(#master_svg0_48879_094294)"><g><g><path d="M55.724385546875,14.369476562500001Q51.564785546875,18.8015665625,51.564785546875,25.0640265625Q51.564785546875,31.4299265625,55.684785546875,35.9254265625Q59.865685546875,40.487426562500005,65.78838554687499,40.487426562500005Q71.730085546875,40.487426562500005,75.91248554687499,35.9187265625Q80.034185546875,31.4163265625,80.034185546875,25.019526562499998Q80.034185546875,18.7262865625,75.863085546875,14.3213665625Q71.683385546875,9.9072265625,65.78838554687499,9.9072265625Q59.912285546875,9.9072265625,55.724385546875,14.369476562500001ZM40.902855546875,56.3522265625Q38.877685546875,60.0318265625,38.877685546875,63.5799265625Q38.877685546875,70.09332656250001,47.435285546875,70.09332656250001L84.096985546875,70.09332656250001Q92.654585546875,70.09332656250001,92.654585546875,63.5799265625Q92.654585546875,60.0318265625,90.629285546875,56.3522265625Q88.647285546875,52.7511265625,85.16738554687501,49.8500265625Q77.165885546875,43.1794265625,65.765985546875,43.1794265625Q54.366185546875,43.1794265625,46.364685546875,49.8500265625Q42.884855546875,52.7511265625,40.902855546875,56.3522265625Z" fill-rule="evenodd" fill="#E4E6E8" fill-opacity="1"/></g><g><path d="M41.439558984375,47.719608593749996Q38.505158984375,50.58270859375,36.626658984375,53.99570859375Q33.996658984375,58.77430859375,33.996658984375,63.57690859375Q33.996658984375,66.30310859375,34.934358984374995,68.43350859374999C35.260658984375,69.17500859375,34.753958984375004,70.09330859375001,33.943858984375,70.09330859375001L23.156758984375,70.09330859375001Q19.657558984375,70.09330859375001,17.761978984375,68.83720859375Q15.345458984375,67.23600859375,15.345458984375,64.05890859375Q15.345458984375,60.87900859375,17.152068984375,57.59650859375Q18.908858984375,54.40450859375,21.987798984375,51.83770859375Q29.047058984375,45.95260859375,39.091758984375005,45.95260859375Q39.983758984375,45.95260859375,40.852158984374995,45.99900859375C41.721358984375,46.04540859375,42.062558984375,47.11180859375,41.439558984375,47.719608593749996M47.108258984375,20.68291859375Q46.683758984375004,22.78085859375,46.683758984375004,25.061058593749998Q46.683758984375004,31.57610859375,50.041458984375,36.61880859375C50.246758984375,36.927208593749995,50.280758984375,37.31450859375,50.099258984375,37.63750859375Q49.316258984375,39.030208593750004,48.186658984375,40.26420859375Q44.440258984375,44.356608593749996,39.111258984375,44.356608593749996Q33.798858984375,44.356608593749996,30.053758984375,40.27020859375Q26.374458984375,36.25550859375,26.374458984375,30.576908593749998Q26.374458984375,24.98556859375,30.091158984375,21.02533859375Q33.841958984375,17.02880859375,39.111258984375,17.02880859375Q43.466258984375,17.02880859375,46.774658984375,19.71369859375C47.059458984375,19.94477859375,47.180958984374996,20.32347859375,47.108258984375,20.68291859375" fill-rule="evenodd" fill="#E4E6E8" fill-opacity="1"/></g></g></g></svg>