<svg xmlns="http://www.w3.org/2000/svg" xmlns:xlink="http://www.w3.org/1999/xlink" fill="none" version="1.1" width="108" height="80" viewBox="0 0 108 80"><defs><clipPath id="master_svg0_48879_093452"><rect x="0" y="0" width="108" height="80" rx="0"/></clipPath></defs><g clip-path="url(#master_svg0_48879_093452)"><g><g><path d="M28.814640998840332,54.46575397720337L28.814640998840332,23.58185397720337C28.814640998840332,16.828253977203367,34.28954099884033,11.35335397720337,41.04314099884033,11.35335397720337L63.20244099884033,11.35335397720337C69.95604099884034,11.35335397720337,75.43094099884033,16.828253977203367,75.43094099884033,23.58185397720337L75.43094099884033,37.79905397720337Q71.48644099884032,36.13085397720337,66.85094099884033,36.13085397720337Q57.74264099884033,36.13085397720337,51.30214099884033,42.571553977203365Q44.86164099884033,49.01215397720337,44.86164099884033,58.12065397720337Q44.86164099884033,62.75235397720337,46.52694099884033,66.69425397720337L41.04314099884033,66.69425397720337C34.28954099884033,66.69425397720337,28.814640998840332,61.21935397720337,28.814640998840332,54.46575397720337Z" fill-rule="evenodd" fill="#E4E6E8" fill-opacity="1"/></g><g><path d="M26.1396484375,23.581859985351564L26.1396484375,54.46575998535156Q26.13964734418,60.63895998535156,30.5047884375,65.00405998535156Q34.8699284375,69.36925998535156,41.0431484375,69.36925998535156L50.5610484375,69.36925998535156L48.9910484375,65.65325998535155Q47.5366484375,62.21045998535156,47.5366484375,58.120659985351566Q47.5366484375,50.12015998535156,53.1936484375,44.46295998535156Q58.8506484375,38.805759985351564,66.8509484375,38.805759985351564Q70.9440484375,38.805759985351564,74.3889484375,40.262759985351565L78.10594843749999,41.83475998535156L78.10594843749999,23.581859985351564Q78.10594843749999,17.408649985351563,73.7407484375,13.043499985351563Q69.37564843749999,8.678361443111562,63.2024484375,8.678361443111562L41.0431484375,8.678359985351562Q34.8699384375,8.678360349790562,30.5047884375,13.043499985351563Q26.1396484375,17.408639985351563,26.1396484375,23.581859985351564ZM34.2877984375,61.221059985351566Q31.489628437500002,58.42295998535156,31.489628437500002,54.46575998535156L31.4896384375,23.581859985351564Q31.4896384375,19.624659985351563,34.2877984375,16.826509985351564Q37.0859484375,14.028349985351563,41.0431484375,14.028349985351563L63.2024484375,14.028349985351563Q67.15964843750001,14.028349985351563,69.9577484375,16.826509985351564Q72.7559484375,19.624659985351563,72.7559484375,23.581859985351564L72.7559484375,34.121959985351566Q69.9334484375,33.455859985351566,66.8509484375,33.455859985351566Q56.6345484375,33.455859985351566,49.4105484375,40.68005998535156Q42.1866484375,47.904259985351565,42.1866484375,58.120659985351566Q42.1866484375,61.19965998535156,42.8511484375,64.01925998535157L41.0431484375,64.01925998535157Q37.0859484375,64.01925998535157,34.2877984375,61.221059985351566Z" fill-rule="evenodd" fill="#E4E6E8" fill-opacity="1"/></g><g><path d="M79.18424759826661,58.12077067871094Q79.18424759826661,58.42347067871094,79.1693475982666,58.72587067871093Q79.1545475982666,59.02827067871094,79.1248475982666,59.32957067871094Q79.0951475982666,59.630870678710934,79.0507475982666,59.93027067871094Q79.0063475982666,60.229770678710935,78.9472475982666,60.526670678710936Q78.8882475982666,60.82367067871094,78.8146475982666,61.11727067871094Q78.7410475982666,61.41097067871094,78.6532475982666,61.700670678710935Q78.5653475982666,61.990470678710935,78.46334759826661,62.27547067871094Q78.3613475982666,62.56057067871094,78.2455475982666,62.84027067871094Q78.1296475982666,63.11997067871094,78.0002475982666,63.39357067871094Q77.8707475982666,63.667270678710935,77.7280475982666,63.93427067871094Q77.5853475982666,64.20127067871094,77.4297475982666,64.46097067871094Q77.2740475982666,64.72067067871095,77.1058475982666,64.97237067871094Q76.93764759826661,65.22407067871094,76.7573475982666,65.46727067871095Q76.5769475982666,65.71047067871093,76.3849475982666,65.94447067871094Q76.19284759826661,66.17847067871094,75.9895475982666,66.40287067871094Q75.7862475982666,66.62717067871094,75.5721475982666,66.84127067871094Q75.3581475982666,67.05527067871094,75.1338475982666,67.25857067871094Q74.90944759826661,67.46197067871094,74.6754475982666,67.65397067871093Q74.4414475982666,67.84607067871093,74.1982475982666,68.02637067871093Q73.9551475982666,68.20677067871094,73.7034475982666,68.37497067871094Q73.4516475982666,68.54317067871094,73.1920475982666,68.69877067871093Q72.9323475982666,68.85447067871094,72.6653475982666,68.99717067871094Q72.3983475982666,69.13987067871093,72.1246475982666,69.26927067871094Q71.8510475982666,69.39877067871095,71.5713475982666,69.51457067871094Q71.2916475982666,69.63047067871094,71.0065475982666,69.73247067871094Q70.7215475982666,69.83447067871094,70.4318475982666,69.92237067871093Q70.1421475982666,70.01027067871094,69.8484475982666,70.08377067871093Q69.5547475982666,70.15737067871093,69.25784759826661,70.21637067871094Q68.9609475982666,70.27547067871095,68.6614475982666,70.31987067871094Q68.3620475982666,70.36437067871094,68.0607475982666,70.39397067871093Q67.7594475982666,70.42367067871093,67.4570475982666,70.43857067871093Q67.1546475982666,70.45337067871094,66.8519475982666,70.45337067871094Q66.5492475982666,70.45337067871094,66.2468475982666,70.43857067871093Q65.9444475982666,70.42367067871093,65.64314759826661,70.39397067871093Q65.3418475982666,70.36437067871094,65.0424475982666,70.31987067871094Q64.7429475982666,70.27547067871095,64.4460275982666,70.21637067871094Q64.1491075982666,70.15737067871093,63.855437598266604,70.08377067871093Q63.5617775982666,70.01027067871094,63.2720675982666,69.92237067871093Q62.9823575982666,69.83447067871094,62.6973175982666,69.73247067871094Q62.4122775982666,69.63047067871094,62.1325775982666,69.51457067871094Q61.8528775982666,69.39877067871095,61.5792075982666,69.26927067871094Q61.3055275982666,69.13987067871093,61.0385375982666,68.99717067871094Q60.7715475982666,68.85447067871094,60.5118775982666,68.69877067871093Q60.2522075982666,68.54317067871094,60.0004875982666,68.37497067871094Q59.7487675982666,68.20677067871094,59.5056075982666,68.02637067871093Q59.2624375982666,67.84607067871093,59.0284175982666,67.65397067871093Q58.7943975982666,67.46197067871094,58.5700775982666,67.25867067871094Q58.345767598266605,67.05527067871094,58.1316975982666,66.84127067871094Q57.9176275982666,66.62717067871094,57.714317598266604,66.40287067871094Q57.5110075982666,66.17847067871094,57.318947598266604,65.94447067871094Q57.1268975982666,65.71047067871093,56.946547598266605,65.46727067871095Q56.766207598266604,65.22407067871094,56.5980175982666,64.97237067871094Q56.4298175982666,64.72067067871095,56.274177598266604,64.46097067871094Q56.1185375982666,64.20127067871094,55.975827598266605,63.93427067871094Q55.833117598266604,63.667270678710935,55.7036775982666,63.39357067871094Q55.5742375982666,63.11997067871094,55.458387598266604,62.84027067871094Q55.3425335982666,62.56057067871094,55.240543598266605,62.27547067871094Q55.1385525982666,61.990470678710935,55.050671598266604,61.700670678710935Q54.9627905982666,61.41097067871094,54.8892305982666,61.11727067871094Q54.8156705982666,60.82367067871094,54.7566095982666,60.526670678710936Q54.6975475982666,60.229770678710935,54.6531255982666,59.93027067871094Q54.6087047982666,59.630870678710934,54.5790309982666,59.32957067871094Q54.5493571982666,59.02827067871094,54.5345023982666,58.72587067871093Q54.5196475982666,58.42347067871094,54.5196475982666,58.12077067871094Q54.5196475982666,57.817970678710935,54.5345023982666,57.51557067871094Q54.5493571982666,57.21317067871094,54.5790309982666,56.91187067871094Q54.6087047982666,56.61067067871094,54.6531255982666,56.31117067871094Q54.6975475982666,56.011670678710935,54.7566095982666,55.71474067871094Q54.8156705982666,55.417810678710936,54.8892305982666,55.12414067871094Q54.9627905982666,54.830460678710935,55.050671598266604,54.54074067871094Q55.1385525982666,54.25103067871094,55.240543598266605,53.965980678710935Q55.3425335982666,53.680930678710936,55.458387598266604,53.401220678710935Q55.5742375982666,53.12152067871094,55.7036775982666,52.84784067871094Q55.833117598266604,52.574150678710936,55.975827598266605,52.30715067871094Q56.1185375982666,52.04015067871094,56.274177598266604,51.78047067871094Q56.4298175982666,51.52080067871094,56.5980175982666,51.26907067871094Q56.766207598266604,51.01734067871094,56.946547598266605,50.77417067871094Q57.1268975982666,50.53100067871094,57.318947598266604,50.296970678710935Q57.5110075982666,50.06294067871094,57.714317598266604,49.83862067871094Q57.9176275982666,49.61430067871094,58.1316975982666,49.40022067871094Q58.345767598266605,49.186140678710935,58.5700775982666,48.98283067871094Q58.7943975982666,48.77952067871094,59.0284175982666,48.58745067871094Q59.2624375982666,48.39539067871094,59.5056075982666,48.215040678710935Q59.7487675982666,48.03470067871094,60.0004875982666,47.866500678710935Q60.2522075982666,47.698300678710936,60.5118775982666,47.542650678710935Q60.7715475982666,47.387010678710936,61.0385375982666,47.24429067871094Q61.3055275982666,47.10158067871094,61.5792075982666,46.972140678710936Q61.8528775982666,46.84269067871094,62.1325775982666,46.726837678710936Q62.4122775982666,46.61098067871094,62.6973175982666,46.50898767871094Q62.9823575982666,46.40699467871094,63.2720675982666,46.319110678710935Q63.5617775982666,46.23122667871094,63.855437598266604,46.15766467871094Q64.1491075982666,46.084102678710934,64.4460275982666,46.02503967871094Q64.7429475982666,45.96597567871094,65.0424475982666,45.92155267871094Q65.3418475982666,45.87713047871094,65.64314759826661,45.84745577871094Q65.9444475982666,45.81778107871094,66.2468475982666,45.80292587871094Q66.5492475982666,45.78807067871094,66.8519475982666,45.78807067871094Q67.1546475982666,45.78807067871094,67.4570475982666,45.80292587871094Q67.7594475982666,45.81778107871094,68.0607475982666,45.84745577871094Q68.3620475982666,45.87713047871094,68.6614475982666,45.92155267871094Q68.9609475982666,45.96597567871094,69.25784759826661,46.02503967871094Q69.5547475982666,46.084102678710934,69.8484475982666,46.15766467871094Q70.1421475982666,46.23122667871094,70.4318475982666,46.319110678710935Q70.7215475982666,46.40699467871094,71.0065475982666,46.50898767871094Q71.2916475982666,46.61098067871094,71.5713475982666,46.726837678710936Q71.8510475982666,46.84269067871094,72.1246475982666,46.972140678710936Q72.3983475982666,47.10158067871094,72.6653475982666,47.24429067871094Q72.9323475982666,47.387010678710936,73.1920475982666,47.542650678710935Q73.4516475982666,47.698300678710936,73.7034475982666,47.866500678710935Q73.9551475982666,48.03470067871094,74.1982475982666,48.215040678710935Q74.4414475982666,48.39539067871094,74.6754475982666,48.58745067871094Q74.90944759826661,48.77952067871094,75.1338475982666,48.98283067871094Q75.3581475982666,49.186140678710935,75.5721475982666,49.40022067871094Q75.7862475982666,49.61430067871094,75.9895475982666,49.83862067871094Q76.19284759826661,50.06294067871094,76.3849475982666,50.296970678710935Q76.5769475982666,50.53100067871094,76.7573475982666,50.77417067871094Q76.93764759826661,51.01734067871094,77.1058475982666,51.26907067871094Q77.2740475982666,51.52080067871094,77.4297475982666,51.78047067871094Q77.5853475982666,52.04015067871094,77.7280475982666,52.30715067871094Q77.8707475982666,52.574150678710936,78.0002475982666,52.84784067871094Q78.1296475982666,53.12152067871094,78.2455475982666,53.401220678710935Q78.3613475982666,53.680930678710936,78.46334759826661,53.965980678710935Q78.5653475982666,54.25103067871094,78.6532475982666,54.54074067871094Q78.7410475982666,54.830460678710935,78.8146475982666,55.12414067871094Q78.8882475982666,55.417810678710936,78.9472475982666,55.71474067871094Q79.0063475982666,56.011670678710935,79.0507475982666,56.31117067871094Q79.0951475982666,56.61067067871094,79.1248475982666,56.91187067871094Q79.1545475982666,57.21317067871094,79.1693475982666,57.51557067871094Q79.18424759826661,57.817970678710935,79.18424759826661,58.12077067871094Z" fill="#E4E6E8" fill-opacity="1"/></g><g><path d="M77.46375408325196,68.73267907104491Q81.85925408325195,64.33707907104493,81.85925408325195,58.12077907104492Q81.85925408325195,51.90437907104492,77.46375408325196,47.508749071044925Q73.06815408325195,43.113079435483925,66.85195408325195,43.11307907104492Q60.635694083251956,43.11307870660592,56.240164083251955,47.508749071044925Q51.84465408325195,51.90437907104492,51.84465408325195,58.12077907104492Q51.84465371881295,64.33707907104493,56.240164083251955,68.73267907104491Q60.63570408325195,73.12837907104492,66.85195408325195,73.12837907104492Q73.06815408325195,73.12837907104492,77.46375408325196,68.73267907104491ZM73.68065408325195,51.291699071044924Q76.50925408325196,54.12037907104492,76.50925408325196,58.12077907104492Q76.50925408325196,62.12107907104492,73.68065408325195,64.94977907104493Q70.85215408325195,67.77837907104492,66.85195408325195,67.77837907104492Q62.851754083251954,67.77837907104492,60.023224083251954,64.94977907104493Q57.19464408325195,62.12107907104492,57.19464408325195,58.12077907104492Q57.19464408325195,54.12037907104492,60.023224083251954,51.291699071044924Q62.851754083251954,48.46306907104492,66.85195408325195,48.46306907104492Q70.85215408325195,48.46306907104492,73.68065408325195,51.291699071044924Z" fill-rule="evenodd" fill="#E4E6E8" fill-opacity="1"/></g><g><path d="M67.50830502319336,51.43336486816406C66.03095502319336,51.43336486816406,64.83331502319336,52.63099486816406,64.83331502319336,54.108354868164064L64.83331502319336,57.00225486816406L63.00264502319336,58.38818486816406C62.33401202319336,58.894374868164064,61.94155502319336,59.683734868164066,61.94155502319336,60.52146486816406C61.94155502319336,61.99886486816406,63.139185023193356,63.196464868164064,64.61654502319335,63.196464868164064C65.19945502319337,63.196464868164064,65.76641502319336,63.00606486816406,66.23116502319336,62.65416486816406L69.12292502319336,60.46496486816406C69.79084502319336,59.959314868164064,70.18330502319336,59.16995486816406,70.18330502319336,58.33222486816406L70.18330502319336,54.108354868164064C70.18330502319336,52.63099486816406,68.98566502319336,51.43336486816406,67.50830502319336,51.43336486816406Z" fill-rule="evenodd" fill="#F6F8FA" fill-opacity="1"/></g><g><path d="M43.04941970275879,19.227789878845215L61.19512970275879,19.227789878845215C62.672529702758794,19.227789878845215,63.87012970275879,20.425419878845215,63.87012970275879,21.902779878845216C63.87012970275879,23.380139878845213,62.672529702758794,24.577779878845213,61.19512970275879,24.577779878845213L43.04941970275879,24.577779878845213C41.572059702758786,24.577779878845213,40.37442970275879,23.380139878845213,40.37442970275879,21.902779878845216C40.37442970275879,20.425419878845215,41.572059702758786,19.227789878845215,43.04941970275879,19.227789878845215Z" fill-rule="evenodd" fill="#F6F8FA" fill-opacity="1"/></g></g></g></svg>