<svg xmlns="http://www.w3.org/2000/svg" xmlns:xlink="http://www.w3.org/1999/xlink" fill="none" version="1.1" width="108" height="80" viewBox="0 0 108 80"><defs><clipPath id="master_svg0_52319_101682"><rect x="0" y="0" width="108" height="80" rx="0"/></clipPath></defs><g clip-path="url(#master_svg0_52319_101682)"><g><g><path d="M39.7994046875,25.0640265625Q39.7994046875,18.8015665625,43.9590046875,14.369476562500001Q48.1469046875,9.9072265625,54.0230046875,9.9072265625Q59.9180046875,9.9072265625,64.0977046875,14.3213665625Q68.2688046875,18.7262865625,68.2688046875,25.019526562499998Q68.2688046875,31.4163265625,64.14710468749999,35.9187265625Q59.9647046875,40.487426562500005,54.0230046875,40.487426562500005Q48.1003046875,40.487426562500005,43.9194046875,35.9254265625Q39.7994046875,31.4299265625,39.7994046875,25.0640265625ZM27.1123046875,63.5799265625Q27.1123046875,60.0318265625,29.1374746875,56.3522265625Q31.119474687500002,52.7511265625,34.5993046875,49.8500265625Q42.6008046875,43.1794265625,54.0006046875,43.1794265625Q65.4005046875,43.1794265625,73.40200468750001,49.8500265625Q76.8819046875,52.7511265625,78.8639046875,56.3522265625Q80.8892046875,60.0318265625,80.8892046875,63.5799265625Q80.8892046875,70.09332656250001,72.3316046875,70.09332656250001L35.6699046875,70.09332656250001Q27.1123046875,70.09332656250001,27.1123046875,63.5799265625ZM56.6619046875,56.5765265625Q56.6730046875,56.6958265625,56.6290046875,56.8071265625L54.4654046875,62.2720265625Q54.4377046875,62.3418265625,54.390704687500005,62.4005265625Q54.3437046875,62.4592265625,54.281504687500004,62.5014265625Q54.2194046875,62.5437265625,54.1475046875,62.5658265625Q54.0757046875,62.5879265625,54.0005046875,62.5879265625Q53.9253046875,62.5879265625,53.8535046875,62.5658265625Q53.7816046875,62.5437265625,53.7195046875,62.5014265625Q53.6573046875,62.4592265625,53.610304687500005,62.4005265625Q53.5633046875,62.3418265625,53.5356046875,62.2720265625L51.372004687499995,56.8071265625Q51.3280046875,56.6958265625,51.3391046875,56.5765265625L52.3064046875,46.2268265625Q52.3107046875,46.1807265625,52.3234046875,46.1361265625Q52.3361046875,46.0916265625,52.3568046875,46.0502265625Q52.377404687500004,46.0087265625,52.405404687499995,45.9718265625Q52.4333046875,45.9348265625,52.467504687499996,45.9037265625Q52.5018046875,45.8725265625,52.541104687499995,45.8481265625Q52.580504687499996,45.8237265625,52.623704687499995,45.8070265625Q52.6669046875,45.7903265625,52.7124046875,45.7818265625Q52.7579046875,45.7733265625,52.804204687500004,45.7733265625L55.1968046875,45.7733265625Q55.2431046875,45.7733265625,55.2886046875,45.7818265625Q55.3341046875,45.7903265625,55.3773046875,45.8070265625Q55.4205046875,45.8237265625,55.4599046875,45.8481265625Q55.4992046875,45.8725265625,55.5335046875,45.9037265625Q55.5677046875,45.9348265625,55.5956046875,45.9718265625Q55.6236046875,46.0087265625,55.6442046875,46.0502265625Q55.6649046875,46.0916265625,55.6776046875,46.1361265625Q55.6903046875,46.1807265625,55.694604687500004,46.2268265625L56.6619046875,56.5765265625Z" fill-rule="evenodd" fill="#E4E6E8" fill-opacity="1"/></g></g></g></svg>