<svg xmlns="http://www.w3.org/2000/svg" xmlns:xlink="http://www.w3.org/1999/xlink" fill="none" version="1.1" width="108" height="80" viewBox="0 0 108 80"><defs><clipPath id="master_svg0_52319_100750"><rect x="0" y="0" width="108" height="80" rx="0"/></clipPath></defs><g clip-path="url(#master_svg0_52319_100750)"><g><g><path d="M22.7128105,29.185116696166993Q21.8531755,31.167416696166992,23.0387265,32.97371669616699Q24.2242825,34.78011669616699,26.384932499999998,34.78011669616699L30.335182500000002,34.78011669616699Q31.298292500000002,34.78011669616699,32.1559825,34.34191669616699L32.514362500000004,34.158916696167Q38.9367625,30.87811669616699,46.567862500000004,33.851916696166995Q50.0921625,35.22531669616699,53.5446625,35.22531669616699Q56.9970625,35.22531669616699,60.5213625,33.851916696166995Q68.1524625,30.87811669616699,74.5748625,34.158816696166994L74.9332625,34.34191669616699Q75.7909625,34.780016696166996,76.7540625,34.780016696166996L80.7041625,34.780016696166996Q82.8648625,34.780016696166996,84.0503625,32.97371669616699Q85.2359625,31.167316696166992,84.3763625,29.185016696166993L77.8260625,14.080416696166992Q76.7809625,11.670316696166992,74.1539625,11.670316696166992L32.935162500000004,11.670316696166992Q30.3082225,11.670316696166992,29.2630625,14.080416696166992L22.7128105,29.185116696166993Z" fill-rule="evenodd" fill="#E4E6E8" fill-opacity="1"/></g><g><path d="M30.335325665130615,40.383671563110354L27.928685665130615,40.383671563110354L27.928685665130615,64.73011156311036Q27.928685665130615,66.38801156311035,29.101005665130614,67.56031156311035Q30.273325665130614,68.73261156311035,31.931235665130615,68.73261156311035L64.53548566513061,68.73261156311035Q62.126485665130616,65.19721156311036,62.126485665130616,60.66381156311035Q62.126485665130616,54.631611563110354,66.39188566513062,50.366211563110355Q70.65718566513061,46.10086156311035,76.68938566513062,46.10086156311035Q77.96488566513062,46.10086156311035,79.1612856651306,46.29155156311035L79.1612856651306,40.38364156311035L76.75418566513062,40.38364156311035C75.2348856651306,40.38363156311035,73.73728566513061,40.02328156311035,72.38428566513062,39.33215156311035L72.02588566513062,39.14908156311035C69.08618566513061,37.64740956311035,65.63188566513062,37.874485563110355,62.55608566513062,39.07309756311035Q58.050485665130616,40.82894156311035,53.54478566513062,40.82894156311035Q49.039085665130614,40.82894156311035,44.533385665130616,39.07309756311035C41.457585665130615,37.87447956311035,38.00328566513062,37.64742156311035,35.063575665130614,39.14911156311035L34.705235665130616,39.332161563110354C33.35224566513062,40.02330156311035,31.854615665130616,40.383671563110354,30.335325665130615,40.383671563110354Z" fill-rule="evenodd" fill="#E4E6E8" fill-opacity="1"/></g><g><path d="M74.9742157019043,71.61930864562989L70.35398570190429,66.99910864562989Q67.7298394609043,64.37490864562989,67.7298402249043,60.66381864562988Q67.7298394609043,56.952718645629886,70.35398570190429,54.328568645629886Q72.97813570190429,51.70441857015988,76.6892457019043,51.70441627987988Q80.4003257019043,51.70441627987988,83.0245257019043,54.328568645629886Q85.6486257019043,56.952718645629886,85.6486257019043,60.66381864562988Q85.6486257019043,64.37490864562989,83.0245257019043,66.99910864562989L78.4042257019043,71.61930864562989Q77.69387570190429,72.32970864562988,76.6892457019043,72.32970864562988Q75.6846057019043,72.32970864562988,74.9742157019043,71.61930864562989ZM79.62922570190429,63.60420864562988C81.2531257019043,61.98030864562988,81.2531257019043,59.34737864562988,79.62922570190429,57.72345864562988C78.0053257019043,56.099538645629885,75.37242570190429,56.099538645629885,73.7485157019043,57.72345864562988C72.1245957019043,59.34737864562988,72.1245957019043,61.98030864562988,73.7485157019043,63.60420864562988C75.37242570190429,65.22810864562989,78.0053257019043,65.22810864562989,79.62922570190429,63.60420864562988Z" fill-rule="evenodd" fill="#E4E6E8" fill-opacity="1"/></g></g></g></svg>