<svg xmlns="http://www.w3.org/2000/svg" xmlns:xlink="http://www.w3.org/1999/xlink" fill="none" version="1.1" width="108" height="80" viewBox="0 0 108 80"><defs><clipPath id="master_svg0_48987_079365"><rect x="0" y="0" width="108" height="80" rx="0"/></clipPath></defs><g clip-path="url(#master_svg0_48987_079365)"><g><g><path d="M29.521296392211916,21.21730531616211L78.47603639221191,21.21730531616211C79.71923639221191,21.21730531616211,80.49703639221191,19.87246531616211,79.87703639221192,18.79489531616211L77.37953639221192,14.45363531616211Q75.33833639221191,10.90560531616211,71.16553639221192,10.90560531616211L36.83174639221191,10.90560531616211Q32.65901639221191,10.90560531616211,30.617806392211914,14.45363531616211L28.120252392211913,18.79489531616211C27.500320392211915,19.87246531616211,28.278126392211913,21.21730531616211,29.521296392211916,21.21730531616211Z" fill="#E4E6E8" fill-opacity="1"/></g><g><path d="M25.3896484375,30.17011463256836L25.3896484375,58.88010463256836Q25.3896484375,63.11100463256836,28.3813484375,66.10270463256836Q31.3730584375,69.09440463256836,35.6039484375,69.09440463256836L72.3966484375,69.09440463256836Q76.6275484375,69.09440463256836,79.6192484375,66.10270463256836Q82.6109484375,63.11100463256836,82.6109484375,58.88010463256836L82.6109484375,30.17011463256836C82.6109484375,28.38473463256836,81.1636484375,26.93740463256836,79.37824843749999,26.93740463256836L28.6223584375,26.93740463256836C26.8369784375,26.93740463256836,25.3896484375,28.38473463256836,25.3896484375,30.17011463256836Z" fill-rule="evenodd" fill="#E4E6E8" fill-opacity="1"/></g><g><path d="M62.57229408813477,55.99224853515625L71.97928408813476,55.99224853515625C73.55878408813477,55.99224853515625,74.83928408813476,57.27271853515625,74.83928408813476,58.85225853515625C74.83928408813476,60.43179853515625,73.55878408813477,61.71226853515625,71.97928408813476,61.71226853515625L62.57229408813477,61.71226853515625C60.99275408813477,61.71226853515625,59.712284088134766,60.43179853515625,59.712284088134766,58.85225853515625C59.712284088134766,57.27271853515625,60.99275408813477,55.99224853515625,62.57229408813477,55.99224853515625Z" fill-rule="evenodd" fill="#F6F8FA" fill-opacity="1"/></g><g><path d="M62.57229408813477,46.40835189819336L71.97928408813476,46.40835189819336C73.55878408813477,46.40835189819336,74.83928408813476,47.68882189819336,74.83928408813476,49.26836189819336C74.83928408813476,50.847901898193356,73.55878408813477,52.12837189819336,71.97928408813476,52.12837189819336L62.57229408813477,52.12837189819336C60.99275408813477,52.12837189819336,59.712284088134766,50.847901898193356,59.712284088134766,49.26836189819336C59.712284088134766,47.68882189819336,60.99275408813477,46.40835189819336,62.57229408813477,46.40835189819336Z" fill-rule="evenodd" fill="#F6F8FA" fill-opacity="1"/></g></g></g></svg>