<svg xmlns="http://www.w3.org/2000/svg" xmlns:xlink="http://www.w3.org/1999/xlink" fill="none" version="1.1" width="81" height="60" viewBox="0 0 81 60"><defs><clipPath id="master_svg0_56712_186198"><rect x="0" y="0" width="81" height="60" rx="0"/></clipPath><clipPath id="master_svg1_56712_186217"><rect x="10.5" y="0" width="60" height="60" rx="0"/></clipPath></defs><g clip-path="url(#master_svg0_56712_186198)"><g clip-path="url(#master_svg1_56712_186217)"><g><path d="M18.79638671875,20.35398671875L62.20358671875,20.35398671875L62.20358671875,10.70789671875C62.20358671875,9.37605671875,61.12398671875,8.29638671875,59.79208671875,8.29638671875L21.20789671875,8.29638671875C19.87605671875,8.29638671875,18.79638671875,9.37605671875,18.79638671875,10.70789671875L18.79638671875,20.35398671875ZM18.79638671875,49.29208671875C18.79638671875,50.62398671875,19.87605671875,51.70358671875,21.20789671875,51.70358671875L30.85398671875,51.70358671875L30.85398671875,25.17698671875L18.79638671875,25.17698671875L18.79638671875,49.29208671875ZM35.67698671875,51.70358671875L59.79208671875,51.70358671875C61.12398671875,51.70358671875,62.20358671875,50.62398671875,62.20358671875,49.29208671875L62.20358671875,25.17698671875L35.67698671875,25.17698671875L35.67698671875,51.70358671875Z" fill="#E4E6E8" fill-opacity="1"/></g></g></g></svg>