<svg xmlns="http://www.w3.org/2000/svg" xmlns:xlink="http://www.w3.org/1999/xlink" fill="none" version="1.1" width="108" height="80" viewBox="0 0 108 80"><defs><clipPath id="master_svg0_43449_058970"><rect x="0" y="0" width="108" height="80" rx="0"/></clipPath></defs><g clip-path="url(#master_svg0_43449_058970)"><g><g><g><path d="M75.69883671875,20.357928125C79.51133671875,22.559028124999998,81.85983671875,26.626928125,81.85983671875,31.029128125L81.85983671875,48.970628125C81.85983671875,53.372928125,79.51133671875,57.440728125,75.69883671875,59.641928125L60.16103671875,68.612628125C56.34853671875,70.813728125,51.65143671875,70.813728125,47.83893671875,68.612628125L32.30116671875,59.641928125C28.48870671875,57.440728125,26.140137453202,53.372928125,26.140137085976,48.970628125L26.14013671875,31.029128125C26.140136351524,26.626928125,28.48870671875,22.559028124999998,32.30116671875,20.357928125L47.83893671875,11.387168125C51.65143671875,9.186047125,56.34853671875,9.186047125,60.16103671875,11.387168125L75.69883671875,20.357928125Z" fill="#E4E6E8" fill-opacity="1"/></g><g><path d="M82.54328007812501,23.520515625Q80.53128007812501,20.035715625,77.046480078125,18.023715625L61.508680078125,9.052975625Q58.023880078125,7.041015625,53.999880078125,7.041015625Q49.975980078125005,7.0410157168065,46.491180078125,9.052975625L30.953330078125,18.023715625Q27.468510078125,20.035715625,25.456540078125002,23.520515625Q23.444579710899,27.005315625,23.444580078125,31.029315625L23.444580078125,48.970815625Q23.444580445351,52.994715625,25.456540078125002,56.479615625Q27.468510078125,59.964415625,30.953330078125,61.976315625L46.491180078125,70.94711562500001Q49.975980078125005,72.959115625,53.999880078125,72.959115625Q58.023880078125,72.959115625,61.508680078125,70.94711562500001L77.046480078125,61.976315625Q80.53128007812501,59.964415625,82.54328007812501,56.479615625Q84.555180078125,52.994715625,84.555180078125,48.970815625L84.555180078125,31.029315625Q84.555180078125,27.005315625,82.54328007812501,23.520515625ZM58.813180078125,13.721635625000001L74.35098007812499,22.692415625000002Q76.584880078125,23.982115625,77.874580078125,26.216015625Q79.164280078125,28.449815625,79.164280078125,31.029315625L79.164280078125,48.970815625Q79.164280078125,51.550215625,77.874580078125,53.784115625Q76.584880078125,56.018015625,74.35098007812499,57.307715625L58.813180078125,66.27841562500001Q56.579380078125,67.568215625,53.999880078125,67.568215625Q51.420480078124996,67.568215625,49.186580078125004,66.27841562500001L33.648780078125,57.307715625Q31.414920078125,56.018015625,30.125200078125,53.784115625Q28.835480078125002,51.550215625,28.835480078125002,48.970815625L28.835480078125002,31.029315625Q28.835480078125002,28.449815625,30.125200078125,26.216015625Q31.414920078125,23.982115625,33.648780078125,22.692415625000002L49.186580078125004,13.721635625000001Q51.420480078124996,12.431915625,53.999880078125,12.431915625Q56.579380078125,12.431915625,58.813180078125,13.721635625000001Z" fill-rule="evenodd" fill="#E4E6E8" fill-opacity="1"/></g><g><g><g transform="matrix(0.866025447845459,0.5,-0.5,0.866025447845459,20.774339192922753,-17.15401511036589)"><path d="M45.09244602127075,30.188441276550293L57.35119602127075,30.188441276550293L57.35119602127075,35.579341276550295L45.09244602127075,35.579341276550295C43.60378602127075,35.579341276550295,42.39699602127075,34.3725512765503,42.39699602127075,32.883891276550294C42.39699602127075,31.395231276550295,43.60378602127075,30.188441276550293,45.09244602127075,30.188441276550293Z" fill-rule="evenodd" fill="#F6F8FA" fill-opacity="1"/></g><g transform="matrix(0,1.0000001192092896,-1.0000001192092896,0,94.00121275253639,-19.389957510898057)"><path d="M59.391029528808595,37.30562877655029L71.6497795288086,37.30562877655029C73.1383795288086,37.30562877655029,74.34517952880859,38.51241877655029,74.34517952880859,40.001078776550294C74.34517952880859,41.4897387765503,73.1383795288086,42.696528776550295,71.6497795288086,42.696528776550295L59.391029528808595,42.696528776550295C57.90236952880859,42.696528776550295,56.695579528808594,41.4897387765503,56.695579528808594,40.001078776550294C56.695579528808594,38.51241877655029,57.90236952880859,37.30562877655029,59.391029528808595,37.30562877655029Z" fill-rule="evenodd" fill="#F6F8FA" fill-opacity="1"/></g><g transform="matrix(-0.8660255670547485,0.5,-0.5,-0.8660255670547485,144.87515163169064,30.893648849007036)"><path d="M70.99405687255859,34.85641002655029L83.2528068725586,34.85641002655029C84.7414068725586,34.85641002655029,85.94820687255859,36.06320002655029,85.94820687255859,37.551860026550294C85.94820687255859,39.0405200265503,84.7414068725586,40.247310026550295,83.2528068725586,40.247310026550295L70.99405687255859,40.247310026550295C69.50539687255859,40.247310026550295,68.2986068725586,39.0405200265503,68.2986068725586,37.551860026550294C68.2986068725586,36.06320002655029,69.50539687255859,34.85641002655029,70.99405687255859,34.85641002655029Z" fill-rule="evenodd" fill="#F6F8FA" fill-opacity="1"/></g></g></g></g></g></g></svg>