<svg xmlns="http://www.w3.org/2000/svg" xmlns:xlink="http://www.w3.org/1999/xlink" fill="none" version="1.1" width="34" height="34" viewBox="0 0 34 34"><defs><clipPath id="master_svg0_56929_204451"><rect x="0" y="0" width="34" height="34" rx="0"/></clipPath></defs><g clip-path="url(#master_svg0_56929_204451)"><g><g><g><path d="M12.479860517578125,25.94784985923767L12.479860517578125,14.770669859237671C12.479860517578125,14.42919985923767,12.567660517578126,14.09345985923767,12.734830517578125,13.795709859237672L16.953330517578124,6.2819828592376705C17.291130517578125,5.6803598592376705,18.018730517578128,5.417010859237671,18.663330517578125,5.663048359237671C20.832730517578128,6.491091859237671,21.909830517578126,8.930019859237671,21.060430517578126,11.091189859237671L20.565430517578125,12.35086985923767C20.328430517578127,12.953949859237671,20.773030517578125,13.606379859237672,21.421030517578124,13.606379859237672L26.995930517578124,13.606379859237672C28.296430517578123,13.606379859237672,29.248030517578126,14.832559859237671,28.925130517578125,16.09234985923767L27.911630517578125,20.04674985923767L24.098930517578125,20.04674985923767C23.486930517578124,20.04674985923767,22.921430517578123,20.36384985923767,22.615430517578126,20.87864985923767L20.178530517578125,24.97834985923767C19.872530517578127,25.493149859237672,19.872530517578127,26.127349859237672,20.178530517578125,26.64214985923767L21.233930517578123,28.41764985923767L17.430130517578124,28.41764985923767C16.663230517578125,28.41764985923767,15.898930517578124,28.32904985923767,15.152330517578125,28.15364985923767L14.015810517578124,27.88654985923767C13.115940517578125,27.67514985923767,12.479860517578125,26.87224985923767,12.479860517578125,25.94784985923767ZM5.000030517578125,15.37729985923767L5.000030517578125,25.51974985923767C5.000030517578125,27.12014985923767,6.297470517578125,28.41764985923767,7.8979405175781245,28.41764985923767C9.498400517578126,28.41764985923767,10.795840517578124,27.12014985923767,10.795840517578124,25.51974985923767L10.795840517578124,15.37729985923767C10.795840517578124,13.77682985923767,9.498400517578126,12.47939985923767,7.8979405175781245,12.47939985923767C6.297470517578125,12.47939985923767,5.000030517578125,13.77682985923767,5.000030517578125,15.37729985923767Z" fill-rule="evenodd" fill="#F1A63A" fill-opacity="1"/></g><g><path d="M22.03296664123535,26.40002903076172C21.816234141235352,26.03541903076172,21.816234141235352,25.58619903076172,22.03296664123535,25.22158903076172L23.75903664123535,22.31778803076172C23.975766641235353,21.953179030761717,24.376306641235352,21.72856903076172,24.809766641235353,21.72856903076172L28.261906641235353,21.72856903076172C28.695366641235353,21.72856903076172,29.095906641235352,21.953179030761717,29.31262664123535,22.31778803076172L31.03869664123535,25.22158903076172C31.255436641235352,25.58619903076172,31.255436641235352,26.03541903076172,31.03870664123535,26.40002903076172L29.31262664123535,29.30382903076172C29.095906641235352,29.668439030761718,28.695366641235353,29.893049030761716,28.261906641235353,29.893049030761716L24.809766641235353,29.893049030761716C24.376306641235352,29.893049030761716,23.975766641235353,29.668439030761718,23.75903664123535,29.30382903076172L22.03296664123535,26.40002903076172ZM26.53577664123535,27.512379030761718Q26.621816641235352,27.512379030761718,26.70743664123535,27.50418903076172Q26.793056641235353,27.49599903076172,26.877436641235352,27.47968903076172Q26.96181664123535,27.463389030761718,27.04414664123535,27.43912903076172Q27.126486641235353,27.414869030761718,27.20596664123535,27.382889030761717Q27.285456641235353,27.35091903076172,27.36132664123535,27.31151903076172Q27.437206641235353,27.272129030761718,27.50874664123535,27.225699030761717Q27.58027664123535,27.17927903076172,27.64678664123535,27.12625903076172Q27.713296641235353,27.07324903076172,27.774126641235352,27.014159030761718Q27.83496664123535,26.95506903076172,27.889546641235352,26.890469030761718Q27.94412664123535,26.82587903076172,27.991926641235352,26.75639903076172Q28.03972664123535,26.68690903076172,28.08028664123535,26.61321903076172Q28.12083664123535,26.539519030761717,28.15376664123535,26.46230903076172Q28.18668664123535,26.38510903076172,28.21166664123535,26.30513903076172Q28.23663664123535,26.22517903076172,28.25342664123535,26.14321903076172Q28.27020664123535,26.06125903076172,28.27863664123535,25.97808903076172Q28.287076641235352,25.89492903076172,28.287076641235352,25.811359030761718Q28.287076641235352,25.72779903076172,28.27863664123535,25.64463903076172Q28.27020664123535,25.561469030761717,28.25342664123535,25.47950903076172Q28.23663664123535,25.39754903076172,28.21166664123535,25.31758903076172Q28.18668664123535,25.237619030761717,28.15376664123535,25.16040903076172Q28.12083664123535,25.08320903076172,28.08028664123535,25.00950903076172Q28.03972664123535,24.93581903076172,27.991926641235352,24.86632903076172Q27.94412664123535,24.79684903076172,27.889546641235352,24.732249030761718Q27.83496664123535,24.66765903076172,27.774126641235352,24.608569030761718Q27.713296641235353,24.54947903076172,27.64678664123535,24.49645903076172Q27.58027664123535,24.44344903076172,27.50874664123535,24.39701903076172Q27.437206641235353,24.350599030761718,27.36133664123535,24.31120903076172Q27.285456641235353,24.27180903076172,27.20596664123535,24.23982903076172Q27.126486641235353,24.207859030761718,27.04414664123535,24.18359903076172Q26.96181664123535,24.159339030761718,26.877436641235352,24.14303903076172Q26.793056641235353,24.12672903076172,26.70743664123535,24.118539030761717Q26.621816641235352,24.110349030761718,26.53577664123535,24.110349030761718Q26.44973664123535,24.110349030761718,26.364116641235352,24.118539030761717Q26.27849664123535,24.12672903076172,26.19411664123535,24.14303903076172Q26.10973664123535,24.159339030761718,26.027396641235352,24.18359903076172Q25.94506664123535,24.207859030761718,25.865586641235353,24.23982903076172Q25.786096641235353,24.27180903076172,25.710216641235352,24.31120903076172Q25.634346641235354,24.350599030761718,25.56280664123535,24.39701903076172Q25.491276641235352,24.44344903076172,25.42476664123535,24.49645903076172Q25.35825664123535,24.54947903076172,25.29742664123535,24.608569030761718Q25.236586641235352,24.66765903076172,25.18200664123535,24.732249030761718Q25.127426641235353,24.79684903076172,25.07962664123535,24.86632903076172Q25.03182664123535,24.935809030761718,24.991266641235352,25.00950903076172Q24.950716641235353,25.08320903076172,24.917786641235352,25.16040903076172Q24.88486664123535,25.237619030761717,24.859886641235352,25.31758903076172Q24.834916641235353,25.39754903076172,24.818126641235352,25.47950903076172Q24.80134664123535,25.561469030761717,24.79291664123535,25.64463903076172Q24.78447664123535,25.72779903076172,24.78447664123535,25.811359030761718Q24.78447664123535,25.89492903076172,24.79291664123535,25.97808903076172Q24.80134664123535,26.06125903076172,24.818126641235352,26.14321903076172Q24.834916641235353,26.22517903076172,24.859886641235352,26.30513903076172Q24.88486664123535,26.38510903076172,24.917786641235352,26.46230903076172Q24.950716641235353,26.539519030761717,24.991266641235352,26.61321903076172Q25.03182664123535,26.68690903076172,25.07962664123535,26.75639903076172Q25.127426641235353,26.82587903076172,25.18200664123535,26.890469030761718Q25.236586641235352,26.95506903076172,25.29742664123535,27.014159030761718Q25.35825664123535,27.07324903076172,25.42476664123535,27.12625903076172Q25.491266641235352,27.17927903076172,25.56280664123535,27.225699030761717Q25.634346641235354,27.272129030761718,25.710216641235352,27.31151903076172Q25.786096641235353,27.35091903076172,25.865586641235353,27.382889030761717Q25.94506664123535,27.414869030761718,26.027396641235352,27.43912903076172Q26.10973664123535,27.463389030761718,26.19411664123535,27.47968903076172Q26.27849664123535,27.49599903076172,26.364116641235352,27.50418903076172Q26.44973664123535,27.512379030761718,26.53577664123535,27.512379030761718Z" fill-rule="evenodd" fill="#F1A63A" fill-opacity="1"/></g></g></g></g></svg>