<svg xmlns="http://www.w3.org/2000/svg" xmlns:xlink="http://www.w3.org/1999/xlink" fill="none" version="1.1" width="44" height="44" viewBox="0 0 44 44"><g><rect x="0" y="0" width="44" height="44" rx="10" fill="#F1A63A" fill-opacity="1"/><g></g><g><g><path d="M25.969307578125,16.9992275C25.969307578125,19.2678275,24.156927578125,21.0259375,21.996037578125,21.0259375C19.842887578125,21.0259375,18.030517578125,19.2678275,18.030517578125,17.0134075C18.030517578125,14.8086375,19.858377578125,13.0859375,21.996037578125,13.0859375C24.141457578125,13.0859375,25.969307578125,14.7802775,25.969307578125,16.9992275Z" fill-rule="evenodd" fill="#FFFFFF" fill-opacity="1"/></g><g><path d="M15.836655859375,31.216709218749997C13.444212859375,31.216709218749997,11.610868859375,28.97439921875,12.954838859375,26.99511921875C14.918785859375,24.10279921875,18.264325859375,22.24169921875,21.999635859374997,22.24169921875C25.734955859375,22.24169921875,29.080755859375,24.10279921875,31.044655859375,26.99511921875C32.388655859375,28.97439921875,30.555255859375,31.216709218749997,28.162855859375,31.216709218749997L15.836655859375,31.216709218749997ZM21.584435859375,28.75778921875L21.584435859375,26.29930921875C21.584435859375,26.22420921875,21.603745859375,26.15035921875,21.640515859375,26.08486921875L22.568355859375,24.43218921875C22.642655859374997,24.29985921875,22.802755859375,24.241929218750002,22.944555859375,24.29604921875C23.421655859375,24.47817921875,23.658555859375,25.01462921875,23.471755859375,25.48998921875L23.362855859375,25.76706921875C23.310755859375,25.89971921875,23.408555859375,26.04321921875,23.551055859374998,26.04321921875L24.777355859375,26.04321921875C25.063355859375,26.04321921875,25.272655859375,26.31292921875,25.201655859375002,26.59001921875L24.675655859375,28.64245921875C24.576255859375,29.03000921875,24.227055859375,29.30102921875,23.826955859374998,29.30102921875L22.673255859375,29.30102921875C22.504555859375,29.30102921875,22.336465859375,29.28154921875,22.172265859375003,29.242959218750002L21.922275859375,29.184219218750002C21.724335859375,29.13770921875,21.584435859375,28.96111921875,21.584435859375,28.75778921875ZM19.939205859375,26.43273921875L19.939205859375,28.66361921875C19.939205859375,29.01564921875,20.224585859375,29.30101921875,20.576615859375,29.30101921875C20.928645859375003,29.30101921875,21.214025859375,29.01564921875,21.214025859375,28.66361921875L21.214025859375,26.43273921875C21.214025859375,26.080709218750002,20.928645859375003,25.79533921875,20.576615859375,25.79533921875C20.224585859375,25.79533921875,19.939205859375,26.080709218750002,19.939205859375,26.43273921875Z" fill-rule="evenodd" fill="#FFFFFF" fill-opacity="1"/></g></g></g></svg>