<svg xmlns="http://www.w3.org/2000/svg" xmlns:xlink="http://www.w3.org/1999/xlink" fill="none" version="1.1" width="40" height="40" viewBox="0 0 40 40"><defs><clipPath id="master_svg0_45103_064421"><rect x="0" y="0" width="40" height="40" rx="0"/></clipPath></defs><g clip-path="url(#master_svg0_45103_064421)"><g></g><g><g><path d="M13.978703359375,20.569682461853027Q13.123323359375,19.084482461853028,13.123323359375,17.246902461853026Q13.123323359375,15.806182461853027,13.649133359375,14.582070671853028Q12.551103359375,14.852109461853027,11.693373359375,15.695082461853028Q10.426143359375,16.94051246185303,10.426143359375,18.704442461853027Q10.426143359375,20.468382461853025,11.693373359375,21.713812461853028Q11.894893359375,21.911862461853026,12.109673359375,22.078292461853028Q11.429743359375,22.319502461853027,10.786683359375001,22.691772461853027Q8.974983359374999,23.740582461853027,7.946393359375,25.542362461853028Q7.516896359375,26.294762461853026,7.989664359375,27.016062461853025Q8.431422359375,27.690062461853028,9.254713359375,27.690062461853028L10.453343359375,27.690062461853028Q9.492403359375,26.01086246185303,10.487243359375,24.268142461853028Q11.788363359375001,21.988952461853028,13.978703359375,20.569682461853027ZM29.536143359375,27.690062461853028L30.745743359375,27.690062461853028Q31.569043359375,27.690062461853028,32.010843359375,27.016062461853025Q32.483543359375,26.294762461853026,32.054043359375,25.542362461853028Q31.025543359375,23.740582461853027,29.213843359375,22.691772461853027Q28.570843359375,22.31955246185303,27.891043359375,22.07835246185303Q28.105843359375,21.91190246185303,28.307343359375,21.713812461853028Q29.574643359375,20.468382461853025,29.574643359375,18.704442461853027Q29.574643359375,16.94051246185303,28.307343359375,15.695082461853028Q27.444843359375,14.847395461853027,26.339343359375,14.579068161003027Q26.866443359375,15.804412461853028,26.866443359375,17.246892461853026Q26.866443359375,19.084562461853025,26.010943359375,20.56982246185303Q28.201143359375,21.989072461853027,29.502243359375,24.268142461853028Q30.497043359375,26.01086246185303,29.536143359375,27.690062461853028Z" fill-rule="evenodd" fill="#F25643" fill-opacity="1"/></g><g><path d="M16.4581075,13.75106859375Q14.9857875,15.19805859375,14.9857875,17.24746859375Q14.9857875,19.29687859375,16.4581075,20.743858593749998Q16.6922375,20.97396859375,16.9417775,21.16731859375Q16.1518075,21.44756859375,15.4046775,21.88008859375Q13.2997775,23.098658593750002,12.1047245,25.192058593749998Q11.6057185,26.06615859375,12.1549985,26.904158593749997Q12.6682495,27.687258593750002,13.6247775,27.687258593750002L26.3647875,27.687258593750002Q27.3213875,27.687258593750002,27.834587499999998,26.904158593749997Q28.3838875,26.06615859375,27.8848875,25.192058593749998Q26.6897875,23.098658593750002,24.5848875,21.88008859375Q23.8378875,21.44762859375,23.0480875,21.16739859375Q23.2975875,20.97400859375,23.5317875,20.743858593749998Q25.0040875,19.29686859375,25.0040875,17.24746859375Q25.0040875,15.19805859375,23.5317875,13.75106859375Q22.0655875,12.31005859375,19.994957499999998,12.31005859375Q17.9243475,12.31005859375,16.4581075,13.75106859375Z" fill-rule="evenodd" fill="#F25643" fill-opacity="1"/></g></g></g></svg>