<svg xmlns="http://www.w3.org/2000/svg" xmlns:xlink="http://www.w3.org/1999/xlink" fill="none" version="1.1" width="34" height="34" viewBox="0 0 34 34"><defs><clipPath id="master_svg0_56872_155498"><rect x="0" y="0" width="34" height="34" rx="0"/></clipPath></defs><g clip-path="url(#master_svg0_56872_155498)"><g></g><g><path d="M12.11121,23.104297802734376C10.657820000000001,23.104297802734376,9.42662,24.055597802734376,9.00631,25.369497802734376Q7.5639199999999995,25.354497802734375,6.5395900000000005,24.330097802734375Q5.5,23.290597802734375,5.5,21.820397802734377L5.5,9.178377802734374Q5.5,7.708177802734375,6.5395900000000005,6.6685878027343755Q7.57918,5.628997802734375,9.04938,5.628997802734375L19.7593,5.628997802734375C20.3866,5.628997802734375,20.8951,6.137546802734375,20.8951,6.764857802734375L20.8951,7.895567802734375L20.8951,19.894497802734374C20.8951,20.443297802734374,21.34,20.888297802734375,21.8889,20.888297802734375C22.4378,20.888297802734375,22.8827,20.443297802734374,22.8827,19.894497802734374L22.8827,8.888257802734374L23.0423,8.888257802734374Q23.7279,8.888257802734374,24.3111,9.248727802734376Q24.8944,9.609187802734375,25.201,10.222447802734376L26.2562,12.332837802734375Q25.3919,12.342477802734376,24.778,12.956437802734374Q24.1542,13.580197802734375,24.1542,14.462317802734376L24.1542,17.622797802734375Q24.1542,18.504897802734376,24.778,19.128697802734376Q25.4017,19.752397802734375,26.2839,19.752397802734375L28.5,19.752397802734375L28.5,21.820397802734377Q28.5,23.290597802734375,27.4604,24.330097802734375Q26.4361,25.354397802734375,24.9938,25.369497802734376C24.5735,24.055597802734376,23.3423,23.104297802734376,21.8889,23.104297802734376C20.435499999999998,23.104297802734376,19.2042,24.055697802734375,18.784,25.369697802734375L15.21617,25.369697802734375C14.79593,24.055697802734375,13.56468,23.104297802734376,12.11121,23.104297802734376ZM12.17284,8.752457802734375L9.90123,8.752457802734375C9.352360000000001,8.752457802734375,8.90741,9.197407802734375,8.90741,9.746277802734376C8.90741,10.295157802734375,9.352360000000001,10.740107802734375,9.90123,10.740107802734375L12.17284,10.740107802734375C12.721720000000001,10.740107802734375,13.16667,10.295157802734375,13.16667,9.746277802734376C13.16667,9.197407802734375,12.721720000000001,8.752457802734375,12.17284,8.752457802734375ZM26.2839,14.320337802734375L27.25,14.320337802734375L28.2452,16.310797802734378Q28.5,16.820397802734377,28.5,17.390197802734377L28.5,17.764797802734375L26.2839,17.764797802734375Q26.1419,17.764797802734375,26.1419,17.622797802734375L26.1419,14.462317802734376Q26.1419,14.320337802734375,26.2839,14.320337802734375ZM16.716,14.431467802734375L9.90123,14.431467802734375C9.352360000000001,14.431467802734375,8.90741,14.876417802734375,8.90741,15.425297802734375C8.90741,15.974197802734375,9.352360000000001,16.419097802734377,9.90123,16.419097802734377L16.716,16.419097802734377C17.2649,16.419097802734377,17.709899999999998,15.974197802734375,17.709899999999998,15.425297802734375C17.709899999999998,14.876417802734375,17.2649,14.431467802734375,16.716,14.431467802734375ZM16.716,17.838897802734373L9.90123,17.838897802734373C9.352360000000001,17.838897802734373,8.90741,18.283797802734377,8.90741,18.832697802734373C8.90741,19.381597802734376,9.352360000000001,19.826497802734373,9.90123,19.826497802734373L16.716,19.826497802734373C17.2649,19.826497802734373,17.709899999999998,19.381597802734376,17.709899999999998,18.832697802734373C17.709899999999998,18.283797802734377,17.2649,17.838897802734373,16.716,17.838897802734373ZM20.4902,27.762497802734377Q19.910800000000002,27.182997802734373,19.910800000000002,26.363597802734375Q19.910800000000002,25.544197802734374,20.4902,24.964797802734374Q21.0696,24.385297802734375,21.889,24.385297802734375Q22.7085,24.385297802734375,23.2879,24.964797802734374Q23.8673,25.544197802734374,23.8673,26.363597802734375Q23.8673,27.182997802734373,23.2879,27.762497802734377Q22.7085,28.341897802734376,21.889,28.341897802734376Q21.0696,28.341897802734376,20.4902,27.762497802734377ZM10.74489,27.792197802734375Q10.16605,27.213297802734374,10.16605,26.394697802734374Q10.16605,25.576097802734374,10.74489,24.997297802734376Q11.32374,24.418397802734376,12.14235,24.418397802734376Q12.96096,24.418397802734376,13.5398,24.997297802734376Q14.11864,25.576097802734374,14.11864,26.394697802734374Q14.11864,27.213297802734374,13.5398,27.792197802734375Q12.96096,28.370997802734376,12.14235,28.370997802734376Q11.32374,28.370997802734376,10.74489,27.792197802734375Z" fill-rule="evenodd" fill="#006DE2" fill-opacity="1"/></g></g></svg>