<svg xmlns="http://www.w3.org/2000/svg" xmlns:xlink="http://www.w3.org/1999/xlink" fill="none" version="1.1" width="44" height="44" viewBox="0 0 44 44"><defs><clipPath id="master_svg0_53972_107405"><rect x="0" y="0" width="44" height="44" rx="10"/></clipPath></defs><g clip-path="url(#master_svg0_53972_107405)"><rect x="0" y="0" width="44" height="44" rx="10" fill="#EA6757" fill-opacity="1"/><g></g><g><path d="M20.69049,15.574348593749999Q19.86987,14.92043159375,19.33959,14.68841159375Q18.40343,14.27880859375,17.56099,14.27880859375Q15.468350000000001,14.27880859375,13.98714,15.847288593750001Q12.500000443751,17.422058593750002,12.5,19.652078593749998Q12.5,20.33220859375,12.5930991,20.78065859375Q12.760033,21.58475859375,13.278835,22.50159859375Q14.7966,25.18380859375,19.29044,28.88330859375Q20.53582,29.72170859375,21.99987,29.72170859375Q23.488799999999998,29.72170859375,24.7581,28.85560859375Q25.77,28.19080859375,26.4354,27.63740859375Q27.1207,27.067408593750002,28.1642,26.01530859375Q29.222,24.948908593749998,29.8961,23.902548593749998L24.953699999999998,19.05428859375L23.189999999999998,20.954258593749998Q22.43205,21.789748593749998,21.29799,21.84199859375Q20.16909,21.89400859375,19.33206,21.13295859375Q18.482599999999998,20.36805859375,18.4195,19.21179859375Q18.35635,18.05455859375,19.11695,17.22101859375L19.12343,17.21391859375L20.69049,15.574348593749999ZM30.7567,22.42058859375Q31.5,20.92020859375,31.5,19.652068593750002Q31.5,17.422058593750002,30.0129,15.847288593750001Q28.5317,14.27880859375,26.439,14.278809054463Q25.292299999999997,14.278808824107,24.2162,14.78257059375Q23.157600000000002,15.27813659375,22.45692,16.12362859375L22.43804,16.14640859375L20.29367,18.38999859375Q20.02231,18.69189859375,20.04546,19.11614859375Q20.06963,19.55895859375,20.404989999999998,19.86094859375Q20.750120000000003,20.17474859375,21.22579,20.15283859375Q21.699669999999998,20.13100859375,22.017400000000002,19.78085859375L23.7975,17.86347859375Q24.2361,17.37805859375,24.907,17.35330859375Q25.575,17.33035859375,26.0432,17.79686859375L30.7567,22.42058859375ZM24.9756,19.03067859375Q24.9799,19.026218593750002,24.9854,19.02016859375L24.9756,19.03067859375Z" fill-rule="evenodd" fill="#FFFFFF" fill-opacity="1"/></g></g></svg>