<svg xmlns="http://www.w3.org/2000/svg" xmlns:xlink="http://www.w3.org/1999/xlink" fill="none" version="1.1" width="34" height="34" viewBox="0 0 34 34"><defs><clipPath id="master_svg0_56872_155564"><rect x="0" y="0" width="34" height="34" rx="0"/></clipPath></defs><g clip-path="url(#master_svg0_56872_155564)"><g><g><g><g><path d="M5,25.52935009765625L5,15.38202009765625C5,13.78078009765625,6.2980599999999995,12.48272009765625,7.8993,12.48272009765625C9.50054,12.48272009765625,10.7986,13.78078009765625,10.7986,15.38202009765625L10.7986,25.52935009765625C10.7986,27.13055009765625,9.50054,28.42865009765625,7.8993,28.42865009765625C6.2980599999999995,28.42865009765625,5,27.13055009765625,5,25.52935009765625ZM12.48343,14.77510009765625L12.48343,25.95765009765625C12.48343,26.88255009765625,13.11981,27.68575009765625,14.02012,27.89735009765625L15.1572,28.16455009765625C15.9041,28.34005009765625,16.668799999999997,28.42865009765625,17.4361,28.42865009765625L22.6837,28.42865009765625C24.5035,28.42865009765625,26.0921,27.19585009765625,26.5439,25.43305009765625L28.9366,16.09735009765625C29.2596,14.83702009765625,28.3076,13.61025009765625,27.0065,13.61025009765625L21.4289,13.61025009765625C20.7806,13.61025009765625,20.3358,12.95750009765625,20.5729,12.354130097656249L21.0682,11.09385009765625C21.9179,8.93163009765625,20.8403,6.49153409765625,18.669800000000002,5.66309279765625C18.024900000000002,5.41693709765625,17.297,5.68041309765625,16.9591,6.28232509765625L12.73853,13.79967009765625C12.57127,14.09756009765625,12.48343,14.43346009765625,12.48343,14.77510009765625Z" fill="#F1A63A" fill-opacity="1"/></g></g></g></g></g></svg>