<svg xmlns="http://www.w3.org/2000/svg" xmlns:xlink="http://www.w3.org/1999/xlink" fill="none" version="1.1" width="44" height="44" viewBox="0 0 44 44"><defs><clipPath id="master_svg0_53972_106965"><rect x="0" y="0" width="44" height="44" rx="10"/></clipPath></defs><g clip-path="url(#master_svg0_53972_106965)"><rect x="0" y="0" width="44" height="44" rx="10" fill="#006DE2" fill-opacity="1"/><g></g><g><g><path d="M32.68219970397949,22.000007333374022Q32.68219970397949,22.262207333374022,32.66929970397949,22.524107333374026Q32.65639970397949,22.786007333374023,32.63069970397949,23.047007333374026Q32.60499970397949,23.30800733337402,32.56649970397949,23.56740733337402Q32.52809970397949,23.826807333374024,32.47689970397949,24.08390733337402Q32.42569970397949,24.341107333374023,32.36199970397949,24.595507333374023Q32.298299703979495,24.849907333374023,32.22219970397949,25.10080733337402Q32.14609970397949,25.351807333374023,32.057699703979495,25.598707333374023Q31.96939970397949,25.845607333374023,31.868999703979494,26.087807333374023Q31.768699703979493,26.330107333374023,31.65659970397949,26.56720733337402Q31.544399703979494,26.804207333374023,31.420799703979494,27.03550733337402Q31.29719970397949,27.266707333374022,31.162399703979492,27.491707333374023Q31.027599703979494,27.716607333374025,30.881899703979492,27.934607333374025Q30.73619970397949,28.152707333374025,30.579999703979492,28.363307333374024Q30.42379970397949,28.573907333374024,30.25739970397949,28.776607333374024Q30.09109970397949,28.979307333374024,29.914999703979493,29.173607333374022Q29.73889970397949,29.367907333374024,29.55339970397949,29.553307333374022Q29.367999703979493,29.738807333374023,29.17369970397949,29.914907333374025Q28.979399703979492,30.091007333374023,28.776699703979492,30.257307333374023Q28.573999703979492,30.423707333374022,28.363399703979493,30.579907333374024Q28.152699703979494,30.736107333374022,27.934699703979494,30.881807333374024Q27.716699703979494,31.02750733337402,27.491699703979492,31.162307333374024Q27.266799703979494,31.297107333374022,27.03549970397949,31.420707333374022Q26.804299703979492,31.544307333374025,26.56719970397949,31.656507333374023Q26.330199703979492,31.768607333374025,26.08789970397949,31.868907333374022Q25.84559970397949,31.969307333374022,25.59869970397949,32.05760733337402Q25.35179970397949,32.14600733337402,25.100899703979493,32.222107333374026Q24.849899703979492,32.29820733337402,24.59559970397949,32.36190733337402Q24.34119970397949,32.425607333374025,24.083999703979494,32.476807333374026Q23.826799703979493,32.52800733337402,23.56739970397949,32.56640733337402Q23.30799970397949,32.60490733337402,23.04709970397949,32.63060733337402Q22.78609970397949,32.65630733337402,22.52419970397949,32.66920733337402Q22.262299703979494,32.68210733337402,21.99999970397949,32.68210733337402Q21.73779970397949,32.68210733337402,21.475899703979493,32.66920733337402Q21.213969703979494,32.65630733337402,20.952999703979494,32.63060733337402Q20.692029703979493,32.60490733337402,20.432629703979494,32.56640733337402Q20.17323970397949,32.52800733337402,19.916049703979493,32.476807333374026Q19.65884970397949,32.425607333374025,19.40447970397949,32.36190733337402Q19.150109703979492,32.29820733337402,18.899169703979492,32.222107333374026Q18.648229703979492,32.14600733337402,18.401329703979492,32.05760733337402Q18.154419703979492,31.969307333374022,17.91214970397949,31.868907333374022Q17.669879703979493,31.768607333374025,17.432829703979493,31.656507333374023Q17.195779703979493,31.544307333374025,16.96450970397949,31.420707333374022Q16.733239703979493,31.297107333374022,16.508319703979492,31.162307333374024Q16.28338970397949,31.02750733337402,16.065359703979492,30.881807333374024Q15.847319703979492,30.736107333374022,15.636689703979492,30.579907333374024Q15.426069703979493,30.423707333374022,15.223359703979492,30.257307333374023Q15.020649703979492,30.091007333374023,14.826349703979492,29.914907333374025Q14.632049703979492,29.738807333374023,14.446619703979492,29.553307333374022Q14.261199703979493,29.367907333374024,14.085089703979492,29.173607333374022Q13.908989703979492,28.979307333374024,13.742629703979492,28.776607333374024Q13.576269703979492,28.573907333374024,13.420059703979492,28.363307333374024Q13.263849703979492,28.152707333374025,13.118159703979492,27.934607333374025Q12.972469703979492,27.716607333374025,12.837659703979492,27.491707333374023Q12.702849703979492,27.266707333374022,12.579229703979493,27.03550733337402Q12.455619703979492,26.804207333374023,12.343499703979493,26.56720733337402Q12.231379703979492,26.330107333374023,12.131028703979492,26.087807333374023Q12.030676703979491,25.845607333374023,11.942333703979493,25.598707333374023Q11.853990703979493,25.351807333374023,11.777868703979491,25.10080733337402Q11.701746703979492,24.849907333374023,11.638029703979493,24.595507333374023Q11.574312703979492,24.341107333374023,11.523153703979492,24.08390733337402Q11.471994703979492,23.826807333374024,11.433517703979492,23.56740733337402Q11.395040203979493,23.30800733337402,11.369337103979491,23.047007333374026Q11.343633903979493,22.786007333374023,11.330766803979492,22.524107333374026Q11.317899703979492,22.262207333374022,11.317899703979492,22.000007333374022Q11.317899703979492,21.737707333374026,11.330766803979492,21.47580733337402Q11.343633903979493,21.213927333374023,11.369337103979491,20.952957333374023Q11.395040203979493,20.691987333374023,11.433517703979492,20.432597333374023Q11.471994703979492,20.173207333374023,11.523153703979492,19.916017333374022Q11.574312703979492,19.658827333374024,11.638029703979493,19.404447333374023Q11.701746703979492,19.15007733337402,11.777868703979491,18.89913733337402Q11.853990703979493,18.648207333374025,11.942333703979493,18.401297333374025Q12.030676703979491,18.154397333374025,12.131028703979492,17.912127333374023Q12.231379703979492,17.669857333374026,12.343499703979493,17.432807333374022Q12.455619703979492,17.195757333374022,12.579229703979493,16.964487333374024Q12.702849703979492,16.73321733337402,12.837659703979492,16.508297333374024Q12.972469703979492,16.283377333374023,13.118159703979492,16.065337333374025Q13.263849703979492,15.847307333374022,13.420059703979492,15.636677333374024Q13.576269703979492,15.426057333374024,13.742629703979492,15.223347333374024Q13.908989703979492,15.020637333374022,14.085089703979492,14.826337333374024Q14.261199703979493,14.632037333374024,14.446619703979492,14.446617333374023Q14.632049703979492,14.261187333374023,14.826349703979492,14.085087333374023Q15.020649703979492,13.908987333374023,15.223359703979492,13.742627333374024Q15.426069703979493,13.576267333374023,15.636689703979492,13.420057333374023Q15.847319703979492,13.263847333374024,16.065359703979492,13.118157333374024Q16.28338970397949,12.972477333374023,16.508319703979492,12.837657333374024Q16.733239703979493,12.702847333374024,16.96450970397949,12.579237333374024Q17.195779703979493,12.455617333374024,17.432829703979493,12.343497333374023Q17.669879703979493,12.231383333374023,17.91214970397949,12.131032333374023Q18.154419703979492,12.030681333374023,18.401329703979492,11.942338333374023Q18.648229703979492,11.853995333374023,18.899169703979492,11.777874333374024Q19.150109703979492,11.701752333374024,19.40447970397949,11.638035333374024Q19.65884970397949,11.574319333374023,19.916049703979493,11.523160333374024Q20.17323970397949,11.472002333374023,20.432629703979494,11.433524333374024Q20.692029703979493,11.395047533374024,20.952999703979494,11.369344433374023Q21.213969703979494,11.343641433374023,21.475899703979493,11.330774333374023Q21.73779970397949,11.317907333374023,21.99999970397949,11.317907333374023Q22.262299703979494,11.317907333374023,22.52419970397949,11.330774333374023Q22.78609970397949,11.343641433374023,23.04709970397949,11.369344433374023Q23.30799970397949,11.395047533374024,23.56739970397949,11.433524333374024Q23.826799703979493,11.472002333374023,24.083999703979494,11.523160333374024Q24.34119970397949,11.574319333374023,24.59559970397949,11.638035333374024Q24.849899703979492,11.701752333374024,25.100899703979493,11.777874333374024Q25.35179970397949,11.853995333374023,25.59869970397949,11.942338333374023Q25.84559970397949,12.030681333374023,26.08789970397949,12.131032333374023Q26.330199703979492,12.231383333374023,26.56719970397949,12.343497333374023Q26.804299703979492,12.455617333374024,27.03549970397949,12.579237333374024Q27.266799703979494,12.702847333374024,27.491699703979492,12.837657333374024Q27.716699703979494,12.972477333374023,27.934699703979494,13.118157333374024Q28.152699703979494,13.263847333374024,28.363399703979493,13.420057333374023Q28.573999703979492,13.576267333374023,28.776699703979492,13.742627333374024Q28.979399703979492,13.908987333374023,29.17369970397949,14.085087333374023Q29.367999703979493,14.261187333374023,29.55339970397949,14.446617333374023Q29.73889970397949,14.632037333374024,29.914999703979493,14.826337333374024Q30.09109970397949,15.020637333374022,30.25739970397949,15.223347333374024Q30.42379970397949,15.426057333374024,30.579999703979492,15.636677333374024Q30.73619970397949,15.847307333374022,30.881899703979492,16.065337333374025Q31.027599703979494,16.283377333374023,31.162399703979492,16.508297333374024Q31.29719970397949,16.73321733337402,31.420799703979494,16.964487333374024Q31.544399703979494,17.195757333374022,31.65659970397949,17.432807333374022Q31.768699703979493,17.669857333374026,31.868999703979494,17.912127333374023Q31.96939970397949,18.154397333374025,32.057699703979495,18.401297333374025Q32.14609970397949,18.648207333374025,32.22219970397949,18.89913733337402Q32.298299703979495,19.15007733337402,32.36199970397949,19.404447333374023Q32.42569970397949,19.658827333374024,32.47689970397949,19.916017333374022Q32.52809970397949,20.173207333374023,32.56649970397949,20.432597333374023Q32.60499970397949,20.691987333374023,32.63069970397949,20.952957333374023Q32.65639970397949,21.213927333374023,32.66929970397949,21.47580733337402Q32.68219970397949,21.737707333374026,32.68219970397949,22.000007333374022ZM23.436099703979494,17.452547333374024Q23.436099703979494,17.381997333374024,23.429099703979492,17.311787333374024Q23.422199703979494,17.24156733337402,23.408499703979494,17.172367333374023Q23.39469970397949,17.103167333374024,23.374199703979492,17.035657333374022Q23.353699703979494,16.968137333374024,23.326699703979493,16.902957333374022Q23.299699703979492,16.837777333374024,23.26649970397949,16.77554733337402Q23.233199703979494,16.713327333374025,23.193999703979493,16.65466733337402Q23.154799703979492,16.595997333374022,23.110099703979493,16.541457333374023Q23.06529970397949,16.486927333374023,23.01539970397949,16.437037333374022Q22.965499703979493,16.387147333374024,22.910999703979492,16.342387333374024Q22.856499703979495,16.297627333374024,22.797799703979493,16.258427333374023Q22.73909970397949,16.219227333374022,22.676899703979494,16.185977333374023Q22.61469970397949,16.152717333374024,22.549499703979492,16.125717333374023Q22.48429970397949,16.098717333374022,22.416799703979493,16.078237333374023Q22.34929970397949,16.057757333374024,22.28009970397949,16.043987333374023Q22.210899703979493,16.03022733337402,22.140699703979493,16.023307333374024Q22.070499703979493,16.016397333374023,21.999899703979494,16.016397333374023Q21.92939970397949,16.016397333374023,21.859099703979492,16.023307333374024Q21.788899703979492,16.03022733337402,21.719699703979494,16.043987333374023Q21.65049970397949,16.057757333374024,21.582999703979493,16.078237333374023Q21.515499703979494,16.098717333374022,21.450299703979493,16.125717333374023Q21.385099703979492,16.152717333374024,21.322899703979495,16.185977333374023Q21.26067970397949,16.219227333374022,21.20201970397949,16.258427333374023Q21.143359703979492,16.297627333374024,21.088819703979492,16.342387333374024Q21.034279703979493,16.387147333374024,20.98438970397949,16.437037333374022Q20.93449970397949,16.486927333374023,20.889739703979494,16.541457333374023Q20.84497970397949,16.595997333374022,20.805789703979492,16.65466733337402Q20.76658970397949,16.713327333374025,20.733329703979493,16.77554733337402Q20.700069703979494,16.837777333374024,20.673069703979493,16.902957333374022Q20.646069703979492,16.968137333374024,20.625589703979493,17.035657333374022Q20.605109703979494,17.103167333374024,20.591339703979493,17.172367333374023Q20.57757970397949,17.24156733337402,20.570659703979494,17.311787333374024Q20.563749703979493,17.381997333374024,20.563749703979493,17.452547333374024L20.563749703979493,20.564247333374023L17.45229970397949,20.564247333374023Q17.381749703979494,20.564247333374023,17.31152970397949,20.571157333374025Q17.241319703979492,20.578077333374026,17.17211970397949,20.591837333374023Q17.10291970397949,20.605607333374024,17.035399703979493,20.626087333374024Q16.96788970397949,20.646567333374023,16.902709703979493,20.673567333374024Q16.837519703979492,20.700567333374025,16.775299703979492,20.733827333374023Q16.713079703979492,20.767087333374022,16.654409703979493,20.806277333374023Q16.595749703979493,20.845477333374024,16.54120970397949,20.890237333374024Q16.486669703979494,20.93499733337402,16.436779703979493,20.984887333374026Q16.38688970397949,21.034777333374024,16.34212970397949,21.089317333374023Q16.29737970397949,21.143847333374023,16.258179703979494,21.202517333374026Q16.218979703979493,21.26117733337402,16.185719703979494,21.32340733337402Q16.152459703979492,21.385607333374026,16.12545970397949,21.450807333374023Q16.098459703979493,21.516007333374024,16.077979703979494,21.583507333374023Q16.05749970397949,21.651007333374025,16.04373970397949,21.720207333374024Q16.029969703979493,21.789407333374022,16.02305970397949,21.859607333374022Q16.01613970397949,21.929807333374022,16.01613970397949,22.00040733337402Q16.01613970397949,22.070907333374024,16.02305970397949,22.141207333374023Q16.029969703979493,22.211407333374023,16.04373970397949,22.28060733337402Q16.05749970397949,22.349807333374024,16.077979703979494,22.417307333374023Q16.098459703979493,22.48480733337402,16.12545970397949,22.550007333374026Q16.152459703979492,22.615207333374023,16.185719703979494,22.677407333374024Q16.218979703979493,22.739607333374025,16.258179703979494,22.798307333374023Q16.29737970397949,22.856907333374025,16.34212970397949,22.911507333374026Q16.38688970397949,22.966007333374023,16.436779703979493,23.015907333374024Q16.486669703979494,23.065807333374025,16.54120970397949,23.110607333374023Q16.595749703979493,23.155307333374026,16.654409703979493,23.194507333374023Q16.713079703979492,23.233707333374024,16.775299703979492,23.267007333374025Q16.837519703979492,23.300207333374026,16.902709703979493,23.327207333374023Q16.96788970397949,23.354207333374024,17.035399703979493,23.374707333374026Q17.10291970397949,23.395207333374024,17.17211970397949,23.409007333374024Q17.241319703979492,23.42270733337402,17.31152970397949,23.429607333374022Q17.381749703979494,23.436607333374024,17.45229970397949,23.436607333374024L20.563749703979493,23.436607333374024L20.563749703979493,26.548107333374023Q20.563749703979493,26.618607333374023,20.570659703979494,26.688807333374022Q20.57757970397949,26.759107333374025,20.591339703979493,26.828307333374024Q20.605109703979494,26.897507333374023,20.625589703979493,26.965007333374025Q20.646069703979492,27.032507333374024,20.673069703979493,27.097707333374025Q20.700069703979494,27.162907333374022,20.733329703979493,27.225107333374023Q20.76658970397949,27.287307333374024,20.805789703979492,27.346007333374022Q20.84497970397949,27.404607333374024,20.889739703979494,27.459207333374025Q20.93449970397949,27.513707333374022,20.98438970397949,27.563607333374023Q21.034279703979493,27.613507333374024,21.088819703979492,27.658207333374023Q21.143359703979492,27.703007333374025,21.20201970397949,27.742207333374022Q21.26067970397949,27.781407333374023,21.322899703979495,27.814707333374024Q21.385099703979492,27.847907333374025,21.450299703979493,27.874907333374022Q21.515499703979494,27.901907333374023,21.582999703979493,27.922407333374025Q21.65049970397949,27.942907333374023,21.719699703979494,27.956607333374023Q21.788899703979492,27.970407333374023,21.859099703979492,27.977307333374025Q21.92939970397949,27.984207333374023,21.999899703979494,27.984207333374023Q22.070499703979493,27.984207333374023,22.140699703979493,27.977307333374025Q22.210899703979493,27.970407333374023,22.28009970397949,27.956607333374023Q22.34929970397949,27.942907333374023,22.416799703979493,27.922407333374025Q22.48429970397949,27.901907333374023,22.549499703979492,27.874907333374022Q22.61469970397949,27.847907333374025,22.676899703979494,27.814707333374024Q22.73909970397949,27.781407333374023,22.797799703979493,27.742207333374022Q22.856499703979495,27.703007333374025,22.910999703979492,27.658207333374023Q22.965499703979493,27.613507333374024,23.01539970397949,27.563607333374023Q23.06529970397949,27.513707333374022,23.110099703979493,27.459207333374025Q23.154799703979492,27.404607333374024,23.193999703979493,27.346007333374022Q23.233199703979494,27.287307333374024,23.26649970397949,27.225107333374023Q23.299699703979492,27.162907333374022,23.326699703979493,27.097707333374025Q23.353699703979494,27.032507333374024,23.374199703979492,26.965007333374025Q23.39469970397949,26.897507333374023,23.408499703979494,26.828307333374024Q23.422199703979494,26.759107333374025,23.429099703979492,26.688807333374022Q23.436099703979494,26.618607333374023,23.436099703979494,26.548107333374023L23.436099703979494,23.436607333374024L26.547799703979493,23.436607333374024Q26.61839970397949,23.436607333374024,26.68859970397949,23.429607333374022Q26.75879970397949,23.42270733337402,26.827999703979494,23.409007333374024Q26.897199703979492,23.395207333374024,26.96469970397949,23.374707333374026Q27.032199703979494,23.354207333374024,27.09739970397949,23.327207333374023Q27.16259970397949,23.300207333374026,27.224799703979492,23.267007333374025Q27.287099703979493,23.233707333374024,27.34569970397949,23.194507333374023Q27.404399703979493,23.155307333374026,27.45889970397949,23.110607333374023Q27.51349970397949,23.065807333374025,27.563299703979492,23.015907333374024Q27.613199703979493,22.966007333374023,27.657999703979492,22.911507333374026Q27.70279970397949,22.856907333374025,27.74189970397949,22.798307333374023Q27.781099703979493,22.739607333374025,27.814399703979493,22.677407333374024Q27.847699703979494,22.615207333374023,27.87469970397949,22.550007333374026Q27.901699703979492,22.48480733337402,27.92209970397949,22.417307333374023Q27.942599703979493,22.349807333374024,27.956399703979493,22.28060733337402Q27.970199703979493,22.211407333374023,27.97709970397949,22.141207333374023Q27.983999703979492,22.070907333374024,27.983999703979492,22.00040733337402Q27.983999703979492,21.929807333374022,27.97709970397949,21.859607333374022Q27.970199703979493,21.789407333374022,27.956399703979493,21.720207333374024Q27.942599703979493,21.651007333374025,27.92209970397949,21.583507333374023Q27.901699703979492,21.516007333374024,27.87469970397949,21.450807333374023Q27.847699703979494,21.385607333374026,27.814399703979493,21.32340733337402Q27.781099703979493,21.26117733337402,27.74199970397949,21.202517333374026Q27.70279970397949,21.143847333374023,27.657999703979492,21.089317333374023Q27.613199703979493,21.034777333374024,27.563299703979492,20.984887333374026Q27.51349970397949,20.93499733337402,27.45889970397949,20.890237333374024Q27.404399703979493,20.845477333374024,27.34569970397949,20.806277333374023Q27.287099703979493,20.767087333374022,27.224799703979492,20.733827333374023Q27.16259970397949,20.700567333374025,27.09739970397949,20.673567333374024Q27.032199703979494,20.646567333374023,26.96469970397949,20.626087333374024Q26.897199703979492,20.605607333374024,26.827999703979494,20.591837333374023Q26.75879970397949,20.578077333374026,26.68859970397949,20.571157333374025Q26.61839970397949,20.564247333374023,26.547799703979493,20.564247333374023L23.436099703979494,20.564247333374023L23.436099703979494,17.452547333374024Z" fill-rule="evenodd" fill="#FFFFFF" fill-opacity="1"/></g></g></g></svg>