<svg xmlns="http://www.w3.org/2000/svg" xmlns:xlink="http://www.w3.org/1999/xlink" fill="none" version="1.1" width="34" height="34" viewBox="0 0 34 34"><defs><clipPath id="master_svg0_56872_155524"><rect x="0" y="0" width="34" height="34" rx="0"/></clipPath></defs><g clip-path="url(#master_svg0_56872_155524)"><g></g><g><g><path d="M4.97294323046875,12.37891060546875Q4.63341423046875,13.16185060546875,5.10166923046875,13.87531060546875Q5.5699262304687505,14.58876060546875,6.4233212304687495,14.58876060546875L7.9835412304687505,14.58876060546875Q8.36394123046875,14.58876060546875,8.702701230468751,14.41571060546875L8.84424123046875,14.34341060546875Q11.380911230468751,13.047620605468751,14.39496123046875,14.22217060546875Q15.78696123046875,14.76463060546875,17.15056123046875,14.76463060546875Q18.51416123046875,14.76463060546875,19.90616123046875,14.22217060546875Q22.92016123046875,13.047620605468751,25.45686123046875,14.34340060546875L25.59836123046875,14.41571060546875Q25.93716123046875,14.58875060546875,26.31756123046875,14.58875060546875L27.87776123046875,14.58875060546875Q28.73116123046875,14.58875060546875,29.19936123046875,13.87530060546875Q29.66766123046875,13.16184060546875,29.32816123046875,12.37890060546875L26.74096123046875,6.41303560546875Q26.32816123046875,5.46112060546875,25.29056123046875,5.46112060546875L9.010471230468749,5.46112060546875Q7.97290123046875,5.46112060546875,7.56009123046875,6.41303560546875L4.97294323046875,12.37891060546875Z" fill-rule="evenodd" fill="#42C2B7" fill-opacity="1"/></g><g><path d="M7.983599206039429,16.80177921734619L7.033052206039429,16.80177921734619L7.033052206039429,26.41789621734619Q7.033052206039429,27.07269621734619,7.4960822060394285,27.535696217346192Q7.959111206039429,27.99879621734619,8.61393220603943,27.99879621734619L21.49165220603943,27.99879621734619Q20.54015220603943,26.60239621734619,20.54015220603943,24.81181621734619Q20.54015220603943,22.429286217346192,22.22485220603943,20.744586217346193Q23.90955220603943,19.059896217346193,26.29205220603943,19.059896217346193Q26.795752206039428,19.059896217346193,27.268352206039427,19.13520621734619L27.268352206039427,16.80176821734619L26.31765220603943,16.801767217346192C25.71755220603943,16.80176521734619,25.12605220603943,16.659435217346193,24.591652206039427,16.38646121734619L24.45005220603943,16.31415621734619C23.28895220603943,15.721041217346192,21.92465220603943,15.81072901734619,20.70985220603943,16.28414321734619Q18.930252206039427,16.97764621734619,17.150652206039428,16.97764621734619Q15.371002206039428,16.97764621734619,13.59139220603943,16.28414321734619C12.376552206039428,15.810726617346191,11.012212206039429,15.721046217346192,9.851112206039428,16.314167217346192L9.709582206039428,16.386465217346192C9.175192206039428,16.659445217346192,8.583672206039429,16.80177921734619,7.983599206039429,16.80177921734619Z" fill-rule="evenodd" fill="#42C2B7" fill-opacity="1"/></g><g><path d="M25.61427772583008,29.138889926452638L23.789427725830077,27.314039926452637Q22.75297215403008,26.27757992645264,22.752972455530077,24.811809926452636Q22.75297215403008,23.346039926452637,23.789427725830077,22.309579926452635Q24.82588772583008,21.273123846332638,26.291657725830078,21.27312294174264Q27.757427725830077,21.27312294174264,28.79388772583008,22.309579926452635Q29.83034772583008,23.346039926452637,29.83034772583008,24.811809926452636Q29.83034772583008,26.27757992645264,28.79388772583008,27.314039926452637L26.969037725830077,29.138889926452638Q26.688457725830077,29.419469926452635,26.291657725830078,29.419469926452635Q25.89485772583008,29.419469926452635,25.61427772583008,29.138889926452638ZM27.452867725830078,25.973159926452638C28.09426772583008,25.331769926452637,28.09426772583008,24.291859926452638,27.452867725830078,23.650459926452637C26.811467725830077,23.009059926452636,25.77155772583008,23.009059926452636,25.130157725830077,23.650459926452637C24.48876772583008,24.291859926452638,24.48876772583008,25.331769926452637,25.130157725830077,25.973159926452638C25.77155772583008,26.614559926452635,26.811467725830077,26.614559926452635,27.452867725830078,25.973159926452638Z" fill-rule="evenodd" fill="#42C2B7" fill-opacity="1"/></g></g></g></svg>