<svg xmlns="http://www.w3.org/2000/svg" xmlns:xlink="http://www.w3.org/1999/xlink" fill="none" version="1.1" width="34" height="34" viewBox="0 0 34 34"><defs><clipPath id="master_svg0_56872_155434"><rect x="0" y="0" width="34" height="34" rx="0"/></clipPath></defs><g clip-path="url(#master_svg0_56872_155434)"><g></g><g><g><path d="M7.084795999019622,9.57584L26.915202999019623,9.57584C27.299702999019622,9.57584,27.540302999019623,9.159839999999999,27.348602999019622,8.826509999999999L26.241602999019623,6.90241Q25.434802999019624,5.5,23.785502999019624,5.5L10.214502999019622,5.5Q8.565162999019623,5.5,7.758342999019623,6.90241L6.651399999019623,8.826509999999999C6.4596319990196225,9.159839999999999,6.700236999019623,9.57584,7.084795999019622,9.57584" fill="#006DE2" fill-opacity="1"/></g><g><path d="M5.69122314453125,12.836809158325195L5.69122314453125,24.462609158325193Q5.69122314453125,26.135009158325197,6.87374314453125,27.317509158325194Q8.05625314453125,28.500009158325195,9.72858314453125,28.500009158325195L24.27142314453125,28.500009158325195Q25.94382314453125,28.500009158325195,27.12632314453125,27.317509158325194Q28.30882314453125,26.135009158325197,28.30882314453125,24.462609158325193L28.30882314453125,12.836809158325195C28.30882314453125,12.284524158325196,27.86112314453125,11.836809158325195,27.30882314453125,11.836809158325195L6.69122314453125,11.836809158325195C6.13893814453125,11.836809158325195,5.69122314453125,12.284524158325196,5.69122314453125,12.836809158325195ZM20.38772314453125,19.532999158325197L24.10592314453125,19.532999158325197C24.73032314453125,19.532999158325197,25.23642314453125,20.039129158325196,25.23642314453125,20.663459158325196C25.23642314453125,21.287799158325193,24.73032314453125,21.793929158325195,24.10592314453125,21.793929158325195L20.38772314453125,21.793929158325195C19.763423144531252,21.793929158325195,19.257223144531253,21.287799158325193,19.257223144531253,20.663459158325196C19.257223144531253,20.039129158325196,19.763423144531252,19.532999158325197,20.38772314453125,19.532999158325197ZM24.10592314453125,23.321409158325196L20.38772314453125,23.321409158325196C19.763423144531252,23.321409158325196,19.257223144531253,23.827509158325196,19.257223144531253,24.451909158325194C19.257223144531253,25.076209158325195,19.763423144531252,25.582309158325195,20.38772314453125,25.582309158325195L24.10592314453125,25.582309158325195C24.73032314453125,25.582309158325195,25.23642314453125,25.076209158325195,25.23642314453125,24.451909158325194C25.23642314453125,23.827509158325196,24.73032314453125,23.321409158325196,24.10592314453125,23.321409158325196Z" fill-rule="evenodd" fill="#006DE2" fill-opacity="1"/></g></g></g></svg>