<svg xmlns="http://www.w3.org/2000/svg" xmlns:xlink="http://www.w3.org/1999/xlink" fill="none" version="1.1" width="24" height="24" viewBox="0 0 24 24"><defs><clipPath id="master_svg0_54215_119532/42933_048885"><rect x="0" y="0" width="24" height="24" rx="0"/></clipPath></defs><g clip-path="url(#master_svg0_54215_119532/42933_048885)"><g></g><g><g><path d="M3.284953625,5.21284875L1.8219756249999999,17.50186875Q1.816015625,17.55196875,1.816015625,17.60236875Q1.816015625,17.68606875,1.8323486249999998,17.76816875Q1.848680625,17.850268749999998,1.880717625,17.927668750000002Q1.912755625,18.00496875,1.9592666250000002,18.074568749999997Q2.005777625,18.14416875,2.064974625,18.20336875Q2.124172625,18.26256875,2.193780625,18.30906875Q2.263389625,18.35556875,2.340734625,18.38766875Q2.418079625,18.41966875,2.500188625,18.43596875Q2.5822979249999998,18.452368749999998,2.666015625,18.452368749999998L21.334015625,18.452368749999998Q21.384415625,18.452368749999998,21.434415625,18.446368749999998Q21.517615625,18.43646875,21.597215625,18.41056875Q21.676815625,18.38466875,21.749815625,18.34366875Q21.822815625,18.30276875,21.886415625,18.24826875Q21.950115625,18.19386875,22.001815625,18.12816875Q22.053615625,18.062368749999997,22.091615625,17.98776875Q22.129515625,17.91306875,22.152215625,17.83246875Q22.174915625,17.75196875,22.181415625,17.668468750000002Q22.187915625,17.58496875,22.178015625,17.50186875L20.715015625,5.21284875Q20.542115625,3.76041875,19.448415625,2.78919175Q18.354715625,1.81796875,16.892015625,1.81796875L7.107955625,1.81796875Q5.645265625,1.81796875,4.551565625,2.78919175Q3.4578626249999997,3.76041875,3.284953625,5.21284875ZM3.623208625,16.752368750000002L20.376815625,16.752368750000002L19.027015625,5.413808749999999Q18.930415625,4.60270875,18.319615625,4.06033875Q17.708915625,3.51796875,16.892015625,3.51796875L7.107955625,3.51796875Q6.291135625,3.51796875,5.680365625,4.06033875Q5.069595625,4.60270875,4.973035625,5.413808749999999L3.623208625,16.752368750000002Z" fill-rule="evenodd" fill="#121212" fill-opacity="1"/></g><g><path d="M9.359785625,13.86875057182959L4.666015625,13.86875057182959C3.561446625,13.86875057182959,2.666015625,14.76418071282959,2.666015625,15.86875471282959L2.666015625,18.33593471282959C2.666015625,19.99279471282959,4.009165625,21.33593471282959,5.666015625,21.33593471282959L18.334015625,21.33593471282959C19.990815625,21.33593471282959,21.334015625,19.99279471282959,21.334015625,18.33593471282959L21.334015625,15.86875471282959C21.334015625,14.76418071282959,20.438515625,13.86875057182959,19.334015625,13.86875057182959L14.640015625,13.86875057182959Q14.568115625,14.07228171282959,14.465815625,14.26238171282959Q14.363515625,14.45248171282959,14.233315625,14.624656712829589Q14.103115625,14.79683271282959,13.948015625,14.94701471282959Q13.792915625,15.09719471282959,13.616715625,15.22183471282959Q13.440415625,15.34647471282959,13.247115625,15.442634712829589Q13.053915625,15.53878471282959,12.848115625,15.60417471282959Q12.642415625,15.66956471282959,12.429095625,15.70265471282959Q12.215775625,15.73574471282959,11.999905625,15.73574471282959Q11.784035625,15.73574471282959,11.570705625,15.70265471282959Q11.357385625,15.66956471282959,11.151655625,15.60417471282959Q10.945925625,15.53878471282959,10.752655625,15.442634712829589Q10.559375625000001,15.34647471282959,10.383125625,15.22183471282959Q10.206865624999999,15.09719471282959,10.051805625,14.94701471282959Q9.896735625,14.79683271282959,9.766515625,14.624656712829589Q9.636305625,14.45248171282959,9.534015625,14.26238171282959Q9.431725625,14.07228171282959,9.359785625,13.86875057182959Z" fill-rule="evenodd" fill="#FFFFFF" fill-opacity="1"/><path d="M9.359785625,14.71875071282959L4.666015625,14.71875071282959Q4.189665625,14.71875071282959,3.852845625,15.05557471282959Q3.516015625,15.39240471282959,3.516015625,15.86875471282959L3.516015625,18.33593471282959Q3.516015625,19.22649471282959,4.145735625,19.85621471282959Q4.775455625,20.48593471282959,5.666015625,20.48593471282959L18.334015625,20.48593471282959Q19.224515625,20.48593471282959,19.854215625,19.85621471282959Q20.484015625,19.22649471282959,20.484015625,18.33593471282959L20.484015625,15.86875471282959Q20.484015625,15.39240471282959,20.147115625,15.05557471282959Q19.810315625,14.71875071282959,19.334015625,14.71875071282959L14.640015625,14.71875071282959L14.640015625,13.86875057182959L15.441415625,14.15202471282959Q15.054715625,15.24594471282959,14.107415625,15.915844712829589Q13.160115625,16.58574471282959,11.999905625,16.58574471282959Q10.839665625,16.58574471282959,9.892355625,15.915844712829589Q8.945045624999999,15.24594471282959,8.558375625,14.15202471282959L9.359785625,13.86875057182959L9.359785625,14.71875071282959ZM9.359785625,13.01875071282959Q9.425315625,13.01875071282959,9.490065625,13.02879371282959Q9.554815625,13.03883771282959,9.617265625,13.05868771282959Q9.679715625,13.07853771282959,9.738385625,13.10772471282959Q9.797055624999999,13.13691171282959,9.850555625,13.17474671282959Q9.904055625,13.21258071282959,9.951125625,13.25816871282959Q9.998205625,13.303756712829589,10.037725625,13.35602071282959Q10.077255625,13.40828471282959,10.108305625,13.46598971282959Q10.139355625,13.52369471282959,10.161195625000001,13.585476712829589Q10.367775625,14.16992371282959,10.873895625,14.52783371282959Q11.380015625,14.88574471282959,11.999905625,14.88574471282959Q12.619785625,14.88574471282959,13.125915625,14.52783371282959Q13.632015625,14.16992571282959,13.838615625,13.585476712829589Q13.860415625,13.52369471282959,13.891515625,13.46598971282959Q13.922515625,13.40828471282959,13.962115625,13.35602071282959Q14.001615625,13.303756712829589,14.048715625,13.25816971282959Q14.095715625,13.21258171282959,14.149215625,13.17474671282959Q14.202715625,13.13691171282959,14.261415625,13.10772471282959Q14.320115625,13.07853771282959,14.382515625,13.05868771282959Q14.445015625,13.03883771282959,14.509715625,13.02879471282959Q14.574515625,13.01875071282959,14.640015625,13.01875071282959L19.334015625,13.01875071282959Q20.514515625,13.01875071282959,21.349215625,13.853496412829589Q22.184015625,14.688243712829589,22.184015625,15.86875471282959L22.184015625,18.33593471282959Q22.184015625,19.93066471282959,21.056315625,21.05830471282959Q19.928715625,22.185934712829592,18.334015625,22.185934712829592L5.666015625,22.185934712829592Q4.071295625,22.185934712829592,2.943654625,21.05830471282959Q1.816015625,19.93066471282959,1.816015625,18.33593471282959L1.816015625,15.86875471282959Q1.816015625,14.68824171282959,2.650761325,13.85349621282959Q3.485506625,13.01875071282959,4.666015625,13.01875071282959L9.359785625,13.01875071282959Z" fill="#121212" fill-opacity="1"/></g><g transform="matrix(1,-1.1365660412820944e-8,1.1365660412820944e-8,1,-7.271969337807604e-8,1.07296528106815e-7)"><path d="M12.315452998199463,6.5880983593749995L12.888252998199462,7.673763359375C12.922212998199463,7.737843359375,12.983882998199462,7.782613359375,13.055322998199463,7.795033359375L14.264582998199462,8.005733359375C14.394492998199464,8.028313359375,14.501262998199463,8.120903359375,14.542022998199464,8.246333359375C14.582782998199463,8.371763359375,14.550832998199464,8.509453359375,14.459012998199462,8.604103359375L13.605532998199463,9.484483359375C13.554942998199463,9.536483359375,13.531422998199464,9.609063359375,13.541892998199462,9.680863359375L13.715642998199463,10.896703359375C13.734142998199463,11.027263359374999,13.678992998199462,11.157363359375001,13.572322998199464,11.234853359375C13.465642998199463,11.312343359375,13.324892998199463,11.324533359375,13.206482998199462,11.266543359375L12.104152998199464,10.725783359375C12.039062998199462,10.693643359374999,11.962712998199462,10.693643359374999,11.897622998199463,10.725783359375L10.794972998199462,11.266863359375C10.676562998199463,11.324853359375,10.535812998199463,11.312653359375,10.429135998199463,11.235173359375C10.322458998199464,11.157683359375,10.267317998199463,11.027583359375,10.285815998199462,10.897023359375L10.458292998199463,9.680863359375C10.468762998199463,9.609063359375,10.445242998199463,9.536483359375,10.394648998199463,9.484483359375L9.540851998199463,8.602833359375C9.449031828199463,8.508173359375,9.417085898199463,8.370493359375,9.457842398199462,8.245063359375C9.498598998199462,8.119633359375,9.605372998199464,8.027043359375,9.735286998199463,8.004463359375L10.944542998199463,7.793753359375C11.015972998199462,7.781333359375,11.077652998199463,7.736573359375,11.111612998199464,7.672493359375L11.686002998199463,6.5880983593749995C11.747562998199463,6.471299359375,11.868722998199463,6.398193359375,12.000732998199464,6.398193359375C12.132732998199463,6.3981933463323,12.253892998199463,6.471299359375,12.315452998199463,6.5880983593749995Z" fill="#121212" fill-opacity="1"/></g></g></g></svg>