<svg xmlns="http://www.w3.org/2000/svg" xmlns:xlink="http://www.w3.org/1999/xlink" fill="none" version="1.1" width="34" height="34" viewBox="0 0 34 34"><defs><clipPath id="master_svg0_56872_155607"><rect x="0" y="0" width="34" height="34" rx="0"/></clipPath><clipPath id="master_svg1_56872_155629"><rect x="3" y="2.999969482421875" width="28" height="28" rx="0"/></clipPath></defs><g clip-path="url(#master_svg0_56872_155607)"><g></g><g clip-path="url(#master_svg1_56872_155629)"><g><g><path d="M7.4476196875,26.197253491210937C7.4476196875,28.095153491210937,8.5834496875,29.145053491210938,10.4878296875,29.145053491210938L15.9826796875,29.145053491210938L15.9826796875,18.917253491210936L7.4476196875,18.917253491210936L7.4476196875,26.197253491210937ZM18.018479687499998,29.145053491210938L23.5116796875,29.145053491210938C25.4160796875,29.145053491210938,26.5535796875,28.095153491210937,26.5535796875,26.197253491210937L26.5535796875,18.917253491210936L18.018479687499998,18.917253491210936L18.018479687499998,29.145053491210938ZM5.7841796875,15.786353491210937C5.7841796875,17.016853491210938,6.4994706875,17.609253491210936,7.7259896875,17.609253491210936L15.9826796875,17.609253491210936L15.9826796875,11.237293491210938L14.3270196875,11.237293491210938C12.4820096875,11.237293491210938,11.386309687499999,10.150593491210937,11.386309687499999,8.817003491210937C11.386309687499999,7.599643491210937,12.2439396875,6.8537634912109375,13.4906196875,6.8537634912109375C14.8938596875,6.8537634912109375,15.9826796875,7.967813491210937,15.9826796875,9.682183491210939L15.9826796875,11.237293491210938L18.018479687499998,11.237293491210938L18.018479687499998,9.682183491210939C18.018479687499998,7.967813491210937,19.1072796875,6.8537634912109375,20.5088796875,6.8537634912109375C21.7555796875,6.8537634912109375,22.6148796875,7.599643491210937,22.6148796875,8.817003491210937C22.6148796875,10.150593491210937,21.5174796875,11.237293491210938,19.6725796875,11.237293491210938L18.018479687499998,11.237293491210938L18.018479687499998,17.609253491210936L26.2735796875,17.609253491210936C27.5090796875,17.609253491210936,28.2153796875,17.016853491210938,28.2153796875,15.786353491210937L28.2153796875,13.214013491210938C28.2153796875,11.869263491210937,27.4604796875,11.237293491210938,26.1180796875,11.237293491210938L23.5011796875,11.237293491210938C24.2210796875,10.603523491210938,24.6537796875,9.709543491210937,24.6537796875,8.645333491210938C24.6537796875,6.425313491210938,22.9016796875,4.8554534912109375,20.6717796875,4.8554534912109375C18.9652796875,4.8554534912109375,17.5600796875,5.823387491210937,16.999779687500002,7.508953491210938C16.4425796875,5.823387491210937,15.0358296875,4.8554534912109375,13.3277696875,4.8554534912109375C11.0978596875,4.8554534912109375,9.3457096875,6.425313491210938,9.3457096875,8.645333491210938C9.3457096875,9.709543491210937,9.7784896875,10.603523491210938,10.498459687499999,11.237293491210938L7.8814696875,11.237293491210938C6.5881836875,11.237293491210938,5.7841796875,11.869263491210937,5.7841796875,13.214013491210938L5.7841796875,15.786353491210937Z" fill="#EA6757" fill-opacity="1"/></g></g></g></g></svg>