<svg xmlns="http://www.w3.org/2000/svg" xmlns:xlink="http://www.w3.org/1999/xlink" fill="none" version="1.1" width="40" height="40" viewBox="0 0 40 40"><defs><clipPath id="master_svg0_45103_064257"><rect x="0" y="0" width="40" height="40" rx="0"/></clipPath></defs><g clip-path="url(#master_svg0_45103_064257)"><g></g><g><g><path d="M22.69990703125,11.58112Q24.903107031250002,12.41152,26.26390703125,14.34383Q27.65670703125,16.32152,27.65670703125,18.74803L27.65670703125,22.9008Q28.04400703125,23.1665,28.26980703125,23.6044Q28.58530703125,24.216,28.44440703125,24.889699999999998Q28.30350703125,25.563299999999998,27.76940703125,25.9972Q27.235307031250002,26.4312,26.54710703125,26.4312L13.45299703125,26.4312Q12.76480703125,26.4312,12.23069603125,25.9972Q11.69658203125,25.563299999999998,11.55570123125,24.889699999999998Q11.41482123125,24.216,11.73025703125,23.6044Q11.95598803125,23.1667,12.34306803125,22.901L12.34306803125,18.74803Q12.34306803125,16.321460000000002,13.73588703125,14.34373Q15.09674703125,12.41139,17.300077031249998,11.58104Q17.382657031249998,11.54992,17.48743703125,11.449877Q18.48235703125,10.5,19.858077031249998,10.5L20.14183703125,10.5Q21.51760703125,10.5,22.51250703125,11.449949Q22.61730703125,11.55,22.69990703125,11.58112ZM18.56249703125,27.4084Q19.24756703125,27.6909,19.999947031250002,27.6909Q20.752327031249997,27.6909,21.43739703125,27.4084C21.546807031249998,27.3633,21.663907031249998,27.3401,21.78220703125,27.3401C22.28180703125,27.3401,22.686807031249998,27.7451,22.686807031249998,28.2447C22.686807031249998,28.6111,22.46570703125,28.9413,22.127007031250002,29.0809Q21.11066703125,29.5,19.999947031250002,29.5Q18.88922703125,29.5,17.87286703125,29.0809C17.53413703125,28.9413,17.313117031250002,28.6111,17.313117031250002,28.2447C17.313117031250002,27.7451,17.71810703125,27.3401,18.21768703125,27.3401C18.33597703125,27.3401,18.45312703125,27.3633,18.56249703125,27.4084Z" fill-rule="evenodd" fill="#087CCE" fill-opacity="1"/></g></g></g></svg>