<svg xmlns="http://www.w3.org/2000/svg" xmlns:xlink="http://www.w3.org/1999/xlink" fill="none" version="1.1" width="24" height="24" viewBox="0 0 24 24"><defs><clipPath id="master_svg0_54215_119543/42933_048885"><rect x="0" y="0" width="24" height="24" rx="0"/></clipPath></defs><g clip-path="url(#master_svg0_54215_119543/42933_048885)"><g><g><path d="M4.5,19.21094375L19.5,19.21094375Q20.2767,19.21094375,20.8258,18.66174375Q21.375,18.11254375,21.375,17.33594375L21.375,15.55074375Q21.375,14.35994375,20.5329,13.51784375Q19.6909,12.67578375,18.5,12.67578375L15.009,12.67578375Q15.0054,12.43963375,15.0054,12.07812375Q15.0054,12.01858375,15.4254,11.71000375Q16.333399999999997,11.04296375,16.7485,10.37543375Q17.4433,9.25810375,17.4433,7.50647375Q17.4433,4.59416375,15.728,3.10978575Q14.3327,1.90234375,12.16,1.90234375Q9.96629,1.90234375,8.49457,3.09064975Q6.63605,4.59127375,6.63605,7.50647375Q6.63605,9.324803750000001,7.38176,10.51309375Q7.82002,11.21146375,8.755749999999999,11.90887375Q9.00165,12.09214375,9.086829999999999,12.17216375Q9.08615,12.47883375,9.07988,12.67578375L5.5,12.67578375Q4.309137,12.67578375,3.4670681,13.51784375Q2.625,14.35994375,2.625,15.55074375L2.625,17.33594375Q2.625,18.11254375,3.174174,18.66174375Q3.723348,19.21094375,4.5,19.21094375ZM8.31255,14.42574375L5.5,14.42574375Q5.03401,14.42574375,4.7044999999999995,14.75524375Q4.375,15.08474375,4.375,15.55074375L4.375,17.33594375Q4.375,17.46094375,4.5,17.46094375L19.5,17.46094375Q19.625,17.46094375,19.625,17.33594375L19.625,15.55074375Q19.625,15.08474375,19.2955,14.75524375Q18.966,14.42574375,18.5,14.42574375L14.5208,14.42574375Q13.5481,14.42574375,13.32881,13.52084375Q13.25537,13.21774375,13.25537,12.07812375Q13.25537,11.41951375,13.6891,10.90674375Q13.8962,10.66193375,14.3893,10.29968375Q15.0254,9.832363749999999,15.2624,9.451303750000001Q15.6933,8.75834375,15.6933,7.50647375Q15.6933,5.39404375,14.5828,4.43308375Q13.6806,3.65234375,12.16,3.65234375Q10.58459,3.65234375,9.59394,4.45222375Q8.386050000000001,5.42751375,8.386050000000001,7.50647375Q8.386050000000001,8.82118375,8.86406,9.58288375Q9.1283,10.00395375,9.80153,10.50571375Q10.23574,10.82933375,10.416540000000001,11.03081375Q10.83691,11.49925375,10.83691,12.07812375L10.83691,12.09484375Q10.836929999999999,13.07744375,10.75487,13.41484375Q10.50903,14.42574375,9.50366,14.42574375L8.31255,14.42574375Z" fill-rule="evenodd" fill="#000000" fill-opacity="1"/></g><g><path d="M6.26220703125,22.09765625L17.73750703125,22.09765625Q17.823707031250002,22.09765625,17.90820703125,22.08084325Q17.992807031250003,22.06403025,18.072407031250002,22.03105025Q18.15200703125,21.99807125,18.22370703125,21.95019225Q18.295307031249997,21.90231325,18.356307031249997,21.84137425Q18.41720703125,21.78043625,18.46510703125,21.70878025Q18.513007031249998,21.63712425,18.54590703125,21.55750425Q18.57890703125,21.47788425,18.59570703125,21.39336025Q18.61250703125,21.30883625,18.61250703125,21.22265625Q18.61250703125,21.13647625,18.59570703125,21.05195225Q18.57890703125,20.96742825,18.54590703125,20.88780825Q18.513007031249998,20.80818825,18.46510703125,20.73653225Q18.41720703125,20.66487625,18.356307031249997,20.60393825Q18.295307031249997,20.54299925,18.22370703125,20.49512025Q18.15200703125,20.44724125,18.072407031250002,20.41426225Q17.992807031250003,20.38128225,17.90820703125,20.36446925Q17.823707031250002,20.34765625,17.73750703125,20.34765625L6.26220703125,20.34765625Q6.17602703125,20.34765625,6.09150303125,20.36446925Q6.00697903125,20.38128225,5.92735903125,20.41426225Q5.84773903125,20.44724125,5.77608303125,20.49512025Q5.70442703125,20.54299925,5.64348903125,20.60393825Q5.58255003125,20.66487625,5.53467103125,20.73653225Q5.48679203125,20.80818825,5.45381303125,20.88780825Q5.42083303125,20.96742825,5.40402003125,21.05195225Q5.38720703125,21.13647625,5.38720703125,21.22265625Q5.38720703125,21.30883625,5.40402003125,21.39336025Q5.42083303125,21.47788425,5.45381303125,21.55750425Q5.48679203125,21.63712425,5.53467103125,21.70878025Q5.58255003125,21.78043625,5.64348903125,21.84137425Q5.70442703125,21.90231325,5.77608303125,21.95019225Q5.84773903125,21.99807125,5.92735903125,22.03105025Q6.00697903125,22.06403025,6.09150303125,22.08084325Q6.17602703125,22.09765625,6.26220703125,22.09765625Z" fill-rule="evenodd" fill="#121212" fill-opacity="1"/></g></g></g></svg>