<svg xmlns="http://www.w3.org/2000/svg" xmlns:xlink="http://www.w3.org/1999/xlink" fill="none" version="1.1" width="44" height="44" viewBox="0 0 44 44"><defs><clipPath id="master_svg0_53972_106928"><rect x="8" y="8" width="28.000001907348633" height="28" rx="0"/></clipPath></defs><g><rect x="0" y="0" width="44" height="44" rx="10" fill="#42C2B7" fill-opacity="1"/><g></g><g clip-path="url(#master_svg0_53972_106928)"><g><g><path d="M22.54152142288208,13.95190125Q21.23544142288208,15.34355125,21.23544142288208,17.30994125Q21.23544142288208,19.308801250000002,22.52909142288208,20.72036125Q23.84186142288208,22.15279125,25.70156142288208,22.15279125Q27.56725142288208,22.15279125,28.880451422882082,20.71824125Q30.17465142288208,19.30451125,30.17465142288208,17.29597125Q30.17465142288208,15.31991125,28.86495142288208,13.93679125Q27.552551422882082,12.55078125,25.70156142288208,12.55078125Q23.85648142288208,12.55078125,22.54152142288208,13.95190125ZM17.88764342288208,27.13428125Q17.25175142288208,28.28968125,17.25175142288208,29.40368125Q17.25175142288208,31.44888125,19.93879142288208,31.44888125L31.45035142288208,31.44888125Q34.13735142288208,31.44888125,34.13735142288208,29.40368125Q34.13735142288208,28.289581249999998,33.501451422882084,27.13428125Q32.87915142288208,26.00348125,31.78645142288208,25.092581250000002Q29.27405142288208,22.99808125,25.69453142288208,22.99808125Q22.11504142288208,22.99808125,19.60263142288208,25.092581250000002Q18.50998142288208,26.00348125,17.88764342288208,27.13428125Z" fill-rule="evenodd" fill="#FFFFFF" fill-opacity="1"/></g><g><path d="M18.58179460449219,23.94866405128479Q17.295144604492187,25.032424051284792,16.544924604492188,26.395524051284788Q15.719104604492188,27.89592405128479,15.719104604492188,29.40392405128479Q15.719104604492188,30.61372405128479,16.307184604492186,31.44982405128479L12.315294604492188,31.44982405128479Q11.216574604492187,31.44982405128479,10.621369604492187,31.05542405128479Q9.862594604492188,30.55272405128479,9.862594604492188,29.555124051284793Q9.862594604492188,28.556624051284793,10.429858604492187,27.52592405128479Q10.981484604492188,26.523724051284788,11.948254604492188,25.71772405128479Q14.164814604492188,23.869824051284787,17.31881460449219,23.869824051284787Q17.97030460449219,23.869824051284787,18.58179460449219,23.94866405128479ZM19.875594604492186,15.75366905128479Q19.702794604492187,16.49481405128479,19.702794604492187,17.31018405128479Q19.702794604492187,19.45637405128479,20.863194604492186,21.09368405128479Q20.595594604492188,21.62379405128479,20.17449460449219,22.08369405128479Q18.998204604492187,23.36870405128479,17.324914604492186,23.36870405128479Q15.656854604492189,23.36870405128479,14.480924604492188,22.08558405128479Q13.325644604492187,20.82500405128479,13.325644604492187,19.04193405128479Q13.325644604492187,17.28630405128479,14.492674604492187,16.04281405128479Q15.670394604492188,14.78792405128479,17.324914604492186,14.78792405128479Q18.78850460449219,14.78792405128479,19.875594604492186,15.75366905128479Z" fill-rule="evenodd" fill="#FFFFFF" fill-opacity="1"/></g></g></g></g></svg>