<svg xmlns="http://www.w3.org/2000/svg" xmlns:xlink="http://www.w3.org/1999/xlink" fill="none" version="1.1" width="44" height="44" viewBox="0 0 44 44"><defs><clipPath id="master_svg0_53972_107510"><rect x="0" y="0" width="44" height="44" rx="10"/></clipPath></defs><g clip-path="url(#master_svg0_53972_107510)"><rect x="0" y="0" width="44" height="44" rx="10" fill="#006DE2" fill-opacity="1"/><g></g><g><g><path d="M24.5611,14.523990371093749L25.4456,14.27616037109375C25.8868,14.15428037109375,26.3173,14.50164037109375,26.259700000000002,14.93635037109375L25.7354,18.93608037109375C25.6161,19.85222037109375,24.799799999999998,20.53882037109375,23.8322,20.53882037109375L20.1644,20.53882037109375C19.19682,20.53882037109375,18.38056,19.85222037109375,18.26121,18.93608037109375L17.739060000000002,14.93635037109375C17.68365,14.50164037109375,18.11202,14.15428037109375,18.55319,14.27616037109375L19.44191,14.523990371093749C19.665689999999998,14.58696037109375,19.90652,14.52805037109375,20.07276,14.36961037109375L21.5497,12.96188137109375C21.79905,12.72421347109375,22.203989999999997,12.72421347109375,22.45334,12.96188137109375L23.930300000000003,14.36961037109375C24.0944,14.52805037109375,24.3373,14.58696037109375,24.5611,14.523990371093749ZM15.83676,31.21643037109375C13.444323,31.21643037109375,11.610979,28.97403037109375,12.954949,26.994830371093748C14.9189,24.10253037109375,18.26444,22.24138037109375,21.99975,22.24138037109375C25.7351,22.24138037109375,29.0808,24.10253037109375,31.0448,26.994830371093748C32.3888,28.97413037109375,30.5554,31.21643037109375,28.163,31.21643037109375L15.83676,31.21643037109375ZM24.3899,25.83633037109375L22.33617,28.65973037109375C22.184269999999998,28.86933037109375,21.81759,28.86933037109375,21.665689999999998,28.65973037109375L19.61168,25.83633037109375C19.27486,25.37343037109375,19.97496,24.872530371093752,20.48349,25.21283037109375L21.75488,26.06233037109375C21.89688,26.157630371093752,22.104979999999998,26.157630371093752,22.24698,26.06233037109375L23.5181,25.21283037109375C24.026699999999998,24.872530371093752,24.7268,25.37343037109375,24.3899,25.83633037109375Z" fill-rule="evenodd" fill="#FFFFFF" fill-opacity="1"/></g></g></g></svg>