<svg xmlns="http://www.w3.org/2000/svg" xmlns:xlink="http://www.w3.org/1999/xlink" fill="none" version="1.1" width="34" height="34" viewBox="0 0 34 34"><defs><clipPath id="master_svg0_56872_155536"><rect x="0" y="0" width="34" height="34" rx="0"/></clipPath></defs><g clip-path="url(#master_svg0_56872_155536)"><g></g><g><g><path d="M14.93558,5.8144683837890625C11.64579,5.8144683837890625,8.97889,8.435488383789062,8.97889,11.668668383789061C8.97889,14.901858383789062,11.64579,17.52286838378906,14.93558,17.52286838378906C18.2254,17.52286838378906,20.8923,14.901858383789062,20.8923,11.668668383789061C20.8923,8.435488383789062,18.2254,5.8144683837890625,14.93558,5.8144683837890625ZM28.8144,22.396768383789063C29.0619,22.812968383789062,29.0619,23.32586838378906,28.8144,23.742168383789064L26.8438,27.05736838378906C26.5963,27.47366838378906,26.1391,27.730068383789064,25.6442,27.730068383789064L21.7029,27.730068383789064C21.208,27.730068383789064,20.750700000000002,27.47366838378906,20.5033,27.05736838378906L18.5327,23.742168383789064C18.2852,23.32586838378906,18.2852,22.812968383789062,18.5327,22.396768383789063L20.5033,19.081468383789062C20.750700000000002,18.665268383789062,21.208,18.408768383789063,21.7029,18.408768383789063L25.6442,18.408768383789063C26.1391,18.408768383789063,26.5963,18.665268383789062,26.8438,19.081468383789062L28.8144,22.396768383789063ZM16.041600000000003,19.34866838378906C15.6783,19.31486838378906,15.3094,19.297568383789063,14.93575,19.297568383789063C10.27286,19.297568383789063,6.33723,21.99776838378906,5.0947731,25.693368383789064C4.650798,27.013968383789063,5.833588,28.18546838378906,7.24873,28.18546838378906L18.234299999999998,28.18546838378906C18.558799999999998,28.18546838378906,18.7517,27.72506838378906,18.586399999999998,27.445768383789062Q18.5837,27.441268383789062,18.581,27.436668383789062L17.5181,25.627268383789062L17.4542,25.518568383789063L16.7584,24.334068383789063Q16.018700000000003,23.074968383789063,16.7584,21.815768383789063L16.989800000000002,21.42186838378906C17.4987,20.555468383789062,17.042099999999998,19.44176838378906,16.041600000000003,19.34866838378906ZM25.673,23.06946838378906C25.673,24.141968383789063,24.7778,25.01146838378906,23.6735,25.01146838378906C22.5693,25.01146838378906,21.6741,24.141968383789063,21.6741,23.06946838378906C21.6741,21.996868383789064,22.5693,21.12736838378906,23.6735,21.12736838378906C24.7778,21.12736838378906,25.673,21.996868383789064,25.673,23.06946838378906Z" fill-rule="evenodd" fill="#087CCE" fill-opacity="1"/></g></g></g></svg>