<svg xmlns="http://www.w3.org/2000/svg" xmlns:xlink="http://www.w3.org/1999/xlink" fill="none" version="1.1" width="44" height="44" viewBox="0 0 44 44"><g><rect x="0" y="0" width="44" height="44" rx="10" fill="#087CCE" fill-opacity="1"/><g></g><g><path d="M12.72898828125,19.75883L10.57836828125,19.75883L10.57836828125,26.495730000000002L8.01315828125,26.495730000000002L8.01315828125,19.75883L5.87548828125,19.75883L5.87548828125,17.504556L12.72898828125,17.504556L12.72898828125,19.75883ZM13.83021828125,17.504556L17.32818828125,17.504556Q18.39058828125,17.504556,19.103088281250002,17.679456Q19.81568828125,17.854356,20.249688281250002,18.236546Q20.68368828125,18.61874,20.86508828125,19.22765Q21.04648828125,19.83656,21.04648828125,20.70458Q21.04648828125,21.65034,20.84568828125,22.29164Q20.644888281249997,22.932940000000002,20.197888281250002,23.32161Q19.75088828125,23.71028,19.04478828125,23.878700000000002Q18.33878828125,24.04712,17.32818828125,24.04712L16.408388281249998,24.04712L16.408388281249998,26.495730000000002L13.83021828125,26.495730000000002L13.83021828125,17.504556ZM16.952488281249998,22.000140000000002Q17.75578828125,22.000140000000002,18.08608828125,21.741030000000002Q18.41648828125,21.48192,18.41648828125,20.76936Q18.41648828125,20.01794,18.07968828125,19.75235Q17.74278828125,19.48676,16.952488281249998,19.48676L16.408388281249998,19.48676L16.408388281249998,22.000140000000002L16.952488281249998,22.000140000000002ZM26.39708828125,26.62529Q25.39958828125,26.62529,24.60928828125,26.42447Q23.81898828125,26.223660000000002,23.27478828125,25.70544Q22.73068828125,25.18721,22.44568828125,24.2868Q22.16068828125,23.38639,22.16068828125,22.000140000000002Q22.16068828125,20.61389,22.44568828125,19.71996Q22.73068828125,18.82602,23.27478828125,18.301324Q23.81898828125,17.776623,24.60928828125,17.575812Q25.39958828125,17.375,26.39708828125,17.375Q27.40768828125,17.375,28.19148828125,17.575812Q28.97528828125,17.776623,29.51938828125,18.301324Q30.06358828125,18.82602,30.34858828125,19.71996Q30.63358828125,20.61389,30.63358828125,22.000140000000002Q30.63358828125,23.38639,30.34858828125,24.2868Q30.06358828125,25.18721,29.51938828125,25.70544Q28.97528828125,26.223660000000002,28.19148828125,26.42447Q27.40768828125,26.62529,26.39708828125,26.62529ZM26.39708828125,24.50057Q26.86348828125,24.50057,27.15498828125,24.383969999999998Q27.44648828125,24.26737,27.62138828125,23.97587Q27.79628828125,23.68437,27.86108828125,23.20501Q27.92588828125,22.72566,27.92588828125,22.000140000000002Q27.92588828125,21.26167,27.86108828125,20.77584Q27.79628828125,20.29001,27.62138828125,19.99851Q27.44648828125,19.707,27.15498828125,19.58393Q26.86348828125,19.46085,26.39708828125,19.46085Q25.93068828125,19.46085,25.63918828125,19.58393Q25.34768828125,19.707,25.17928828125,19.99851Q25.01088828125,20.29001,24.94608828125,20.77584Q24.88128828125,21.26167,24.88128828125,22.000140000000002Q24.88128828125,22.72566,24.94608828125,23.20501Q25.01088828125,23.68437,25.17928828125,23.97587Q25.34768828125,24.26737,25.63918828125,24.383969999999998Q25.93068828125,24.50057,26.39708828125,24.50057ZM34.53318828125,26.62529Q33.78178828125,26.62529,33.10158828125,26.534599999999998Q32.42148828125,26.443910000000002,31.94208828125,26.32731L31.94208828125,24.1119Q32.16238828125,24.17668,32.460388281250005,24.24146Q32.75828828125,24.30624,33.08868828125,24.35158Q33.41908828125,24.39692,33.75588828125,24.42284Q34.09278828125,24.44875,34.39068828125,24.44875Q34.79238828125,24.44875,35.03198828125,24.40988Q35.27168828125,24.37101,35.401288281250004,24.2868Q35.53078828125,24.20259,35.569688281249995,24.06008Q35.60858828125,23.91757,35.60858828125,23.71028Q35.60858828125,23.56777,35.56318828125,23.45117Q35.517888281249995,23.33457,35.381788281249996,23.2374Q35.24578828125,23.14023,34.99318828125,23.04307Q34.740488281249995,22.9459,34.31298828125,22.84226Q33.57448828125,22.67383,33.10158828125,22.46007Q32.628788281249996,22.246299999999998,32.35668828125,21.93536Q32.08458828125,21.62443,31.98098828125,21.20337Q31.87728828125,20.78232,31.87728828125,20.17341Q31.87728828125,19.383119999999998,32.123488281250005,18.84546Q32.36968828125,18.307802,32.82958828125,17.977435Q33.28948828125,17.647067,33.94378828125,17.511034Q34.59798828125,17.375,35.401288281250004,17.375Q36.24338828125,17.375,36.80048828125,17.4721672Q37.35758828125,17.569334,37.73328828125,17.69889L37.73328828125,19.75883Q37.59078828125,19.707,37.32518828125,19.65518Q37.05958828125,19.60336,36.74858828125,19.55802Q36.437688281250004,19.51267,36.113788281249995,19.48028Q35.78988828125,19.44789,35.517888281249995,19.44789Q34.89598828125,19.44789,34.63038828125,19.59688Q34.36478828125,19.74587,34.36478828125,20.06976Q34.36478828125,20.22523,34.41018828125,20.328870000000002Q34.45548828125,20.43252,34.59798828125,20.51673Q34.740488281249995,20.60094,34.99958828125,20.67867Q35.25878828125,20.75641,35.673288281249995,20.86005Q36.51538828125,21.0803,37.01418828125,21.33941Q37.51298828125,21.59852,37.77208828125,21.93536Q38.03128828125,22.27221,38.10898828125,22.72566Q38.18668828125,23.1791,38.18668828125,23.78801Q38.18668828125,24.4617,38.00528828125,24.9864Q37.823988281249996,25.5111,37.40288828125,25.87386Q36.981788281250005,26.236620000000002,36.28218828125,26.43095Q35.58258828125,26.62529,34.53318828125,26.62529Z" fill="#FFFFFF" fill-opacity="1"/></g></g></svg>