<svg xmlns="http://www.w3.org/2000/svg" xmlns:xlink="http://www.w3.org/1999/xlink" fill="none" version="1.1" width="36" height="36" viewBox="0 0 36 36"><g><g><g><g><ellipse cx="23.744140148162842" cy="22.274596691131592" rx="5.157958507537842" ry="5.157958507537842" fill-opacity="0" stroke-opacity="1" stroke="#121212" fill="none" stroke-width="1.75"/></g><g><rect x="20.74658203125" y="21.39959716796875" width="5.995175838470459" height="1.75" rx="0.875" fill="#121212" fill-opacity="1"/></g><g transform="matrix(0,1,-1,0,43.896148681640625,-5.342132568359375)"><rect x="24.619140625" y="19.277008056640625" width="5.995175838470459" height="1.75" rx="0.875" fill="#121212" fill-opacity="1"/></g></g><g><path d="M12.025290390624999,9.202300330078124Q10.615230390625,10.704743330078125,10.615230390625,12.829013330078125Q10.615230390625,14.989833330078124,12.012470390625001,16.514443330078123Q13.426980390625001,18.057883330078127,15.428720390625,18.057883330078127Q17.437000390625002,18.057883330078127,18.852000390625,16.512153330078124Q20.249900390625,14.985143330078124,20.249900390625,12.813603330078125Q20.249900390625,10.678963330078124,18.836200390625002,9.186001330078126Q17.421900390624998,7.692413330078125,15.428720390625,7.692413330078125Q13.442330390625,7.692413330078125,12.025290390624999,9.202300330078124ZM13.302620390625,15.332063330078125Q12.365230390625001,14.309223330078126,12.365230390625001,12.829013330078125Q12.365230390625001,11.397323330078125,13.301330390625,10.399883330078126Q14.199930390625,9.442413330078125,15.428720390625,9.442413330078125Q16.668950390625,9.442413330078125,17.565500390624997,10.389243330078125Q18.499900390625,11.376043330078126,18.499900390625,12.813603330078125Q18.499900390625,14.305093330078126,17.561200390625,15.330493330078125Q16.666480390625,16.307883330078127,15.428720390625,16.307883330078127Q14.196930390624999,16.307883330078127,13.302620390625,15.332063330078125ZM9.895690390624999,22.839213330078124Q12.148200390625,20.961313330078127,15.420980390625,20.961313330078127Q15.507160390625,20.961313330078127,15.591680390625,20.944513330078124Q15.676210390625,20.927713330078127,15.755830390625,20.894713330078126Q15.835450390625,20.861713330078125,15.907100390625,20.813913330078122Q15.978760390625,20.766013330078124,16.039700390625,20.705113330078127Q16.100640390625,20.644113330078127,16.148510390625,20.572513330078124Q16.196390390624998,20.500813330078124,16.229370390625,20.421213330078125Q16.262350390625002,20.341613330078125,16.279160390625,20.257013330078124Q16.295980390624997,20.172513330078125,16.295980390624997,20.086313330078127Q16.295980390624997,20.000213330078125,16.279170390624998,19.915613330078124Q16.262350390625002,19.831113330078125,16.229370390625,19.751513330078126Q16.196390390624998,19.671913330078127,16.148510390625,19.600213330078127Q16.100640390625,19.528613330078123,16.039700390625,19.467613330078123Q15.978760390625,19.406713330078126,15.907100390625,19.358813330078124Q15.835450390625,19.310913330078122,15.755830390625,19.277913330078125Q15.676210390625,19.245013330078123,15.591680390625,19.228113330078124Q15.507160390625,19.211313330078127,15.420980390625,19.211313330078127Q11.514420390625,19.211313330078127,8.775090390625,21.495013330078123Q7.586400390625,22.486013330078123,6.910296390625,23.714513330078127Q6.222900390625,24.963413330078126,6.222900390625,26.163313330078125Q6.222900390625,27.289513330078126,7.069376090625,27.850413330078126Q7.759267390625,28.307513330078127,9.074820390625,28.307513330078127L16.857910390625,28.307513330078127Q16.938190390625,28.307513330078127,17.017130390625,28.292913330078125Q17.091940390625,28.279113330078125,17.163200390625,28.252513330078123Q17.234600390624998,28.226013330078125,17.300200390625,28.187513330078126Q17.365900390625,28.149113330078126,17.423900390625,28.099913330078124Q17.481900390625,28.050613330078125,17.530600390625,27.992113330078126Q17.579200390624997,27.933713330078124,17.617100390624998,27.867613330078125Q17.654900390625002,27.801613330078126,17.680800390625002,27.730113330078126Q17.706600390625,27.658513330078126,17.719800390625,27.583613330078126Q17.732900390624998,27.508613330078123,17.732900390624998,27.432513330078127Q17.732900390624998,27.258513330078124,17.666300390625,27.097713330078125Q17.599700390625,26.936913330078124,17.476600390625002,26.813813330078126Q17.353600390624997,26.690813330078125,17.192800390625003,26.624113330078124Q17.031960390625002,26.557513330078127,16.857910390625,26.557513330078127L9.074820390625,26.557513330078127Q8.286450390625,26.557513330078127,8.036019390625,26.391613330078126Q7.972900390625,26.349813330078124,7.972900390625,26.163313330078125Q7.972900390625,25.413213330078126,8.443430390625,24.558313330078125Q8.960440390625,23.618913330078126,9.895690390624999,22.839213330078124Z" fill-rule="evenodd" fill="#121212" fill-opacity="1"/></g></g></g></svg>