<svg xmlns="http://www.w3.org/2000/svg" xmlns:xlink="http://www.w3.org/1999/xlink" fill="none" version="1.1" width="24" height="24" viewBox="0 0 24 24"><defs><clipPath id="master_svg0_56712_194944"><rect x="5.5" y="5.5" width="13" height="13" rx="0"/></clipPath></defs><g><g clip-path="url(#master_svg0_56712_194944)"><g><path d="M15.31882,11.164831249999999L9.12837,17.35083125C8.940850000000001,17.538231250000003,8.6866,17.643531250000002,8.42151,17.643531250000002L6.90625,17.643531250000002C6.353965,17.643531250000002,5.90625,17.195831249999998,5.90625,16.643531250000002L5.90625,15.12989125C5.90625,14.86455125,6.011705,14.61009125,6.199395,14.42253125L12.38996,8.23638125C12.58521,8.04127125,12.90164,8.04129125,13.09686,8.23644125L15.31888,10.45752125C15.51426,10.652821249999999,15.51423,10.96956125,15.31882,11.164831249999999M16.01265,10.00314125L13.67184,7.66281125C13.47649,7.46750125,13.47653,7.15078925,13.67194,6.95553525L14.12062,6.50718725C14.4375,6.19031255,14.95181,6.19031255,15.2693,6.50718725L17.04985,8.28534125C17.367449999999998,8.60262125,17.367449999999998,9.117341249999999,17.04985,9.43462125L16.51115,9.98855125C16.50375,9.99618125,16.49615,10.00364125,16.48835,10.010921249999999C16.353650000000002,10.13706125,16.14315,10.133621250000001,16.01265,10.00314125M12.40645,16.012831249999998L17.28145,16.012831249999998C17.721249999999998,16.02488125,18.07145,16.384831249999998,18.07145,16.824831250000003C18.07145,17.26473125,17.721249999999998,17.62473125,17.28145,17.63683125L12.40645,17.63683125C11.949290000000001,17.64933125,11.5719,17.28213125,11.5719,16.824831250000003C11.5719,16.36753125,11.949290000000001,16.00030125,12.40645,16.012831249999998Z" fill="#BABAC4" fill-opacity="1"/></g></g></g></svg>