<svg xmlns="http://www.w3.org/2000/svg" xmlns:xlink="http://www.w3.org/1999/xlink" fill="none" version="1.1" width="28" height="28" viewBox="0 0 28 28"><g><g><ellipse cx="21" cy="22" rx="4" ry="4" fill="#D5F3E8" fill-opacity="1"/></g><g><g><g><path d="M16.482428125,25.79496650390625L19.062828125,24.30526650390625L18.187828125,22.78966650390625L15.607428125,24.27946650390625Q14.882328125,24.69816650390625,14.045028125,24.69816650390625Q13.207648125,24.69816650390625,12.482498125,24.27946650390625L5.923848125,20.49286650390625Q5.198678125,20.07426650390625,4.780008125,19.34906650390625Q4.361328125,18.62386650390625,4.361328125,17.78656650390625L4.361328125,10.21352650390625Q4.361328125,9.376176503906251,4.780008125,8.65101650390625Q5.198678125,7.92584650390625,5.923848125,7.50718650390625L12.482498125,3.72060650390625Q13.207648125,3.30194650390625,14.044928125,3.30194650390625Q14.882328125,3.30194650390625,15.607428125,3.72060650390625L22.166128125,7.50717650390625Q22.891228125,7.92584650390625,23.309928125,8.651006503906249Q23.728628125,9.376176503906251,23.728628125,10.21352650390625L23.728628125,17.19546650390625L25.478628125,17.19546650390625L25.478628125,10.21352650390625Q25.478628125,8.90725650390625,24.825528125,7.77600650390625Q24.172328125,6.64474650390625,23.041128125,5.99162650390625L16.482428125,2.20505650390625Q15.351228125,1.55194850390625,14.044928125,1.55194850390625Q12.738748125,1.55194850390625,11.607508125,2.20505650390625L5.048858125,5.99163650390625Q3.917599125,6.64475650390625,3.264463125,7.77600650390625Q2.611328125,8.90725650390625,2.611328125,10.21352650390625L2.611328125,17.78656650390625Q2.611328125,19.09276650390625,3.264463125,20.22406650390625Q3.917600125,21.35536650390625,5.048858125,22.00846650390625L11.607508125,25.79496650390625Q12.738748125,26.44816650390625,14.044928125,26.44816650390625Q15.351228125,26.44816650390625,16.482428125,25.79496650390625Z" fill-rule="evenodd" fill="#121212" fill-opacity="1"/></g><g><ellipse cx="22.110363006591797" cy="20.870574951171875" rx="4.322109222412109" ry="4.322235107421875" fill-opacity="0" stroke-opacity="1" stroke="#121212" fill="none" stroke-width="1.75"/></g><g><path d="M21.46545859082031,19.46441650390625Q21.46545859082031,19.37823650390625,21.48227159082031,19.29371250390625Q21.499083590820312,19.20918850390625,21.53206359082031,19.12956850390625Q21.565043590820313,19.04994850390625,21.61292259082031,18.97829250390625Q21.660801590820313,18.90663650390625,21.721739590820313,18.84569850390625Q21.782678590820314,18.78475950390625,21.85433459082031,18.73688050390625Q21.925990590820312,18.68900150390625,22.00561059082031,18.65602250390625Q22.085230590820313,18.62304250390625,22.16975459082031,18.60622950390625Q22.254278590820313,18.58941650390625,22.340460590820314,18.58941650390625Q22.426640590820313,18.58941650390625,22.511160590820314,18.60622950390625Q22.59569059082031,18.62304250390625,22.675310590820313,18.65602250390625Q22.75493059082031,18.68900150390625,22.826580590820313,18.73688050390625Q22.89824059082031,18.78475950390625,22.959180590820313,18.84569850390625Q23.020110590820313,18.90663650390625,23.067990590820312,18.97829250390625Q23.11587059082031,19.04994850390625,23.148850590820313,19.12956850390625Q23.18183059082031,19.20918850390625,23.19864059082031,19.29371250390625Q23.215460590820314,19.37823650390625,23.215460590820314,19.46441650390625L23.215460590820314,20.944756503906248Q23.215460590820314,21.04613650390625,23.192280590820314,21.14483650390625Q23.169100590820314,21.24352650390625,23.123960590820314,21.33430650390625Q23.078830590820314,21.42508650390625,23.01413059082031,21.50313650390625Q22.949430590820313,21.58119650390625,22.868610590820314,21.642386503906252L21.85543659082031,22.40941650390625L21.855128590820314,22.40965650390625Q21.74111259082031,22.49596650390625,21.605548590820312,22.54149650390625Q21.469984590820314,22.58702650390625,21.326980590820312,22.58702650390625Q21.240800590820314,22.58702650390625,21.156276590820312,22.57020650390625Q21.071752590820314,22.55339650390625,20.99213259082031,22.52041650390625Q20.912512590820313,22.48743650390625,20.840856590820312,22.43955650390625Q20.76920059082031,22.39167650390625,20.70826259082031,22.33074650390625Q20.647323590820314,22.26980650390625,20.599444590820312,22.19814650390625Q20.551565590820314,22.12648650390625,20.518586590820313,22.04686650390625Q20.485606590820314,21.96724650390625,20.46879359082031,21.882726503906248Q20.451980590820312,21.79820650390625,20.451980590820312,21.71202650390625Q20.451980590820312,21.61064650390625,20.475161590820314,21.511946503906252Q20.498343590820312,21.41325650390625,20.543477590820313,21.322476503906252Q20.588611590820314,21.23169650390625,20.65330759082031,21.15364650390625Q20.718003590820313,21.07558650390625,20.79883259082031,21.01439650390625L20.799141590820312,21.01416650390625L21.46545859082031,20.50971650390625L21.46545859082031,19.46441650390625Z" fill-rule="evenodd" fill="#121212" fill-opacity="1"/></g><g transform="matrix(0,1,-1,0,28.044998168945312,-0.0449981689453125)"><path d="M14.044998168945312,13.125L25.343898168945312,13.125Q25.430098168945314,13.125,25.514598168945312,13.141812999999999Q25.59909816894531,13.158626,25.67869816894531,13.191606Q25.758398168945313,13.224585,25.829998168945313,13.272464Q25.901698168945313,13.320343,25.962598168945313,13.381282Q26.023598168945313,13.44222,26.071398168945315,13.513876Q26.119298168945313,13.585532,26.152298168945315,13.665152Q26.185298168945312,13.744772,26.202098168945312,13.829296Q26.218898168945312,13.91382,26.218898168945312,14Q26.218898168945312,14.08618,26.202098168945312,14.170704Q26.185298168945312,14.255228,26.152298168945315,14.334848Q26.119298168945313,14.414468,26.071398168945315,14.486124Q26.023598168945313,14.55778,25.962598168945313,14.618718Q25.901698168945313,14.679657,25.829998168945313,14.727536Q25.758398168945313,14.775415,25.67869816894531,14.808394Q25.59909816894531,14.841374,25.514598168945312,14.858187000000001Q25.430098168945314,14.875,25.343898168945312,14.875L14.044998168945312,14.875Q13.958818168945312,14.875,13.874294168945312,14.858187000000001Q13.789770168945312,14.841374,13.710150168945313,14.808394Q13.630530168945313,14.775415,13.558874168945312,14.727536Q13.487218168945313,14.679657,13.426280168945313,14.618718Q13.365341168945312,14.55778,13.317462168945312,14.486124Q13.269583168945312,14.414468,13.236604168945313,14.334848Q13.203624168945312,14.255228,13.186811168945312,14.170704Q13.169998168945312,14.08618,13.169998168945312,14Q13.169998168945312,13.91382,13.186811168945312,13.829296Q13.203624168945312,13.744772,13.236604168945313,13.665152Q13.269583168945312,13.585532,13.317462168945312,13.513876Q13.365341168945312,13.44222,13.426280168945313,13.381282Q13.487218168945313,13.320343,13.558874168945312,13.272464Q13.630530168945313,13.224585,13.710150168945313,13.191606Q13.789770168945312,13.158626,13.874294168945312,13.141812999999999Q13.958818168945312,13.125,14.044998168945312,13.125Z" fill-rule="evenodd" fill="#121212" fill-opacity="1"/></g><g transform="matrix(-0.866025447845459,0.4999999701976776,-0.4999999701976776,-0.866025447845459,48.64421413029959,3.6683380486088026)"><path d="M23.830642700195312,7.47625732421875L35.129542700195316,7.47625732421875Q35.215742700195314,7.47625732421875,35.30024270019531,7.49307032421875Q35.38474270019531,7.50988332421875,35.46434270019531,7.54286332421875Q35.54404270019531,7.57584232421875,35.61564270019531,7.62372132421875Q35.687342700195316,7.67160032421875,35.74824270019531,7.73253932421875Q35.80924270019531,7.79347732421875,35.857042700195315,7.86513332421875Q35.90494270019531,7.93678932421875,35.937942700195315,8.01640932421875Q35.97094270019531,8.09602932421875,35.98774270019531,8.18055332421875Q36.004542700195316,8.26507732421875,36.004542700195316,8.35125732421875Q36.004542700195316,8.43743732421875,35.98774270019531,8.52196132421875Q35.97094270019531,8.60648532421875,35.937942700195315,8.68610532421875Q35.90494270019531,8.76572532421875,35.857042700195315,8.83738132421875Q35.80924270019531,8.90903732421875,35.74824270019531,8.96997532421875Q35.687342700195316,9.03091432421875,35.61564270019531,9.07879332421875Q35.54404270019531,9.12667232421875,35.46434270019531,9.15965132421875Q35.38474270019531,9.19263132421875,35.30024270019531,9.209444324218751Q35.215742700195314,9.22625732421875,35.129542700195316,9.22625732421875L23.830642700195312,9.22625732421875Q23.744462700195314,9.22625732421875,23.659938700195312,9.209444324218751Q23.575414700195314,9.19263132421875,23.49579470019531,9.15965132421875Q23.416174700195313,9.12667232421875,23.344518700195312,9.07879332421875Q23.27286270019531,9.03091432421875,23.21192470019531,8.96997532421875Q23.150985700195314,8.90903732421875,23.103106700195312,8.83738132421875Q23.055227700195314,8.76572532421875,23.022248700195313,8.68610532421875Q22.989268700195314,8.60648532421875,22.97245570019531,8.52196132421875Q22.955642700195312,8.43743732421875,22.955642700195312,8.35125732421875Q22.955642700195312,8.26507732421875,22.97245570019531,8.18055332421875Q22.989268700195314,8.09602932421875,23.022248700195313,8.01640932421875Q23.055227700195314,7.93678932421875,23.103106700195312,7.86513332421875Q23.150985700195314,7.79347732421875,23.21192470019531,7.73253932421875Q23.27286270019531,7.67160032421875,23.344518700195312,7.62372132421875Q23.416174700195313,7.57584232421875,23.49579470019531,7.54286332421875Q23.575414700195314,7.50988332421875,23.659938700195312,7.49307032421875Q23.744462700195314,7.47625732421875,23.830642700195312,7.47625732421875Z" fill-rule="evenodd" fill="#121212" fill-opacity="1"/></g><g transform="matrix(0.866025447845459,0.4999999701976776,-0.4999999701976776,0.866025447845459,4.744275897110128,-1.0116666956696463)"><path d="M4.2599334716796875,7.47210693359375L15.558833471679687,7.47210693359375Q15.645033471679687,7.47210693359375,15.729533471679687,7.48891993359375Q15.814033471679688,7.50573293359375,15.893633471679687,7.53871293359375Q15.973333471679688,7.57169193359375,16.044933471679688,7.61957093359375Q16.116633471679688,7.66744993359375,16.177533471679688,7.72838893359375Q16.238533471679688,7.78932693359375,16.28633347167969,7.86098293359375Q16.33423347167969,7.93263893359375,16.36723347167969,8.01225893359375Q16.400233471679687,8.09187893359375,16.417033471679687,8.17640293359375Q16.433833471679687,8.26092693359375,16.433833471679687,8.34710693359375Q16.433833471679687,8.43328693359375,16.417033471679687,8.51781093359375Q16.400233471679687,8.60233493359375,16.36723347167969,8.68195493359375Q16.33423347167969,8.76157493359375,16.28633347167969,8.83323093359375Q16.238533471679688,8.90488693359375,16.177533471679688,8.96582493359375Q16.116633471679688,9.02676393359375,16.044933471679688,9.07464293359375Q15.973333471679688,9.12252193359375,15.893633471679687,9.15550093359375Q15.814033471679688,9.18848093359375,15.729533471679687,9.205293933593751Q15.645033471679687,9.22210693359375,15.558833471679687,9.22210693359375L4.2599334716796875,9.22210693359375Q4.173753471679688,9.22210693359375,4.089229471679688,9.205293933593751Q4.004705471679688,9.18848093359375,3.9250854716796875,9.15550093359375Q3.8454654716796877,9.12252193359375,3.7738094716796873,9.07464293359375Q3.7021534716796873,9.02676393359375,3.6412154716796876,8.96582493359375Q3.5802764716796878,8.90488693359375,3.5323974716796878,8.83323093359375Q3.4845184716796878,8.76157493359375,3.4515394716796877,8.68195493359375Q3.4185594716796874,8.60233493359375,3.4017464716796875,8.51781093359375Q3.3849334716796875,8.43328693359375,3.3849334716796875,8.34710693359375Q3.3849334716796875,8.26092693359375,3.4017464716796875,8.17640293359375Q3.4185594716796874,8.09187893359375,3.4515394716796877,8.01225893359375Q3.4845184716796878,7.93263893359375,3.5323974716796878,7.86098293359375Q3.5802764716796878,7.78932693359375,3.6412154716796876,7.72838893359375Q3.7021534716796873,7.66744993359375,3.7738094716796873,7.61957093359375Q3.8454654716796877,7.57169193359375,3.9250854716796875,7.53871293359375Q4.004705471679688,7.50573293359375,4.089229471679688,7.48891993359375Q4.173753471679688,7.47210693359375,4.2599334716796875,7.47210693359375Z" fill-rule="evenodd" fill="#121212" fill-opacity="1"/></g></g></g></g></svg>