<svg xmlns="http://www.w3.org/2000/svg" xmlns:xlink="http://www.w3.org/1999/xlink" fill="none" version="1.1" width="28" height="28" viewBox="0 0 28 28"><g><g><ellipse cx="21.54632329940796" cy="21.546339511871338" rx="4.120389461517334" ry="4.120314121246338" fill="#B4ECCF" fill-opacity="1"/></g><g><g><path d="M2.879150390625,10.098920390625L25.120850390625,10.098920390625L24.607450390625,8.348920390625L23.634950390625,5.034560390625C23.260150390625,3.756857390625,22.087850390625,2.879150390625,20.756350390625,2.879150390625L7.243670390625,2.879150390625C5.912110390625,2.879150390625,4.739890390625,3.756857390625,4.365020390625,5.034560390625L3.392594390625,8.348920390625L2.879150390625,10.098920390625ZM22.783650390625,8.348920390625L5.216360390625,8.348920390625L6.044230390625,5.527240390625Q6.161380390625,5.127960390625001,6.4944703906250005,4.878550390625Q6.827560390625,4.629150390625,7.243670390625,4.629150390625L20.756350390625,4.629150390625Q21.172450390625,4.629150390625,21.505550390625,4.878550390625Q21.838650390625,5.127960390625001,21.955750390625,5.527240390625L22.783650390625,8.348920390625Z" fill-rule="evenodd" fill="#121212" fill-opacity="1"/></g><g><path d="M3.754150390625 11.049793243408203C3.754150390625 9.945223743746617 4.6495808909634135 9.049793243408203 5.754150390625 9.049793243408203L22.245849609375 9.049793243408203C23.350419109036586 9.049793243408203 24.245849609375 9.945223743746617 24.245849609375 11.049793243408203L24.245849609375 21.245847702026367C24.245849609375 22.902701951518747 22.90270385886738 24.245847702026367 21.245849609375 24.245847702026367L6.754150390625 24.245847702026367C5.09729614113262 24.245847702026367 3.754150390625 22.902701951518747 3.754150390625 21.245847702026367Z" fill-opacity="0" stroke-opacity="1" stroke="#121212" fill="none" stroke-width="1.75"/></g><g><path d="M16.222169335479737,15.824853243408203L14.000009335479737,14.593173243408202L11.777829335479737,15.824853243408203C11.111316335479737,16.1942832434082,10.293049335479736,15.712273243408204,10.293049335479736,14.950223243408203L10.293049335479736,9.174793243408203C10.293049335479736,8.622508243408204,10.740764335479737,8.174793243408203,11.293049335479736,8.174793243408203L16.706949335479734,8.174793243408203C17.259229335479738,8.174793243408203,17.706949335479734,8.622508243408204,17.706949335479734,9.174793243408203L17.706949335479734,14.950213243408204C17.706949335479734,15.712263243408202,16.888679335479736,16.1942832434082,16.222169335479737,15.824853243408203ZM13.151639335479736,13.062563243408203L12.043049335479736,13.677023243408204L12.043049335479736,9.924793243408203L15.956949335479736,9.924793243408203L15.956949335479736,13.677013243408204L14.848379335479736,13.062563243408203Q14.751419335479737,13.008823243408203,14.648449335479736,12.967743243408204Q14.545479335479737,12.926663243408203,14.438149335479736,12.898913243408202Q14.330819335479736,12.871153243408203,14.220849335479736,12.857163243408202Q14.110869335479737,12.843173243408202,14.000009335479737,12.843173243408202Q13.889149335479736,12.843173243408202,13.779179335479736,12.857163243408202Q13.669199335479735,12.871153243408203,13.561869335479736,12.898913243408202Q13.454539335479737,12.926663243408203,13.351569335479736,12.967743243408204Q13.248599335479737,13.008823243408203,13.151639335479736,13.062563243408203Z" fill-rule="evenodd" fill="#121212" fill-opacity="1"/></g></g></g></svg>