<svg xmlns="http://www.w3.org/2000/svg" xmlns:xlink="http://www.w3.org/1999/xlink" fill="none" version="1.1" width="28" height="28" viewBox="0 0 28 28"><defs><clipPath id="master_svg0_52127_111291"><rect x="0" y="0" width="28" height="28" rx="0"/></clipPath></defs><g clip-path="url(#master_svg0_52127_111291)"><g><ellipse cx="21.54632329940796" cy="21.546339511871338" rx="4.120389461517334" ry="4.120314121246338" fill="#B4ECCF" fill-opacity="1"/></g><g><path d="M3.29471262890625,21.69092587890625C3.19242992890625,23.96822587890625,5.01110462890625,25.87042587890625,7.29068462890625,25.87042587890625L20.70929462890625,25.87042587890625C22.98889462890625,25.87042587890625,24.80759462890625,23.96822587890625,24.70529462890625,21.69092587890625L23.98969462890625,5.75954587890625C23.89379462890625,3.6223558789062498,22.13309462890625,1.93902587890625,19.99379462890625,1.93902587890625L8.006234628906249,1.93902587890625C5.86688462890625,1.93902587890625,4.10624862890625,3.6223558789062498,4.01025862890625,5.75954587890625L3.29471262890625,21.69092587890625ZM5.04295462890625,21.76942587890625Q4.99979462890625,22.73022587890625,5.6643946289062495,23.42532587890625Q6.32898462890625,24.12042587890625,7.29068462890625,24.12042587890625L20.70929462890625,24.12042587890625Q21.67099462890625,24.12042587890625,22.33559462890625,23.42532587890625Q23.00019462890625,22.73022587890625,22.95709462890625,21.76942587890625L22.24149462890625,5.83807587890625Q22.20099462890625,4.93644587890625,21.54869462890625,4.31273587890625Q20.89629462890625,3.68902587890625,19.99379462890625,3.68902587890625L8.006234628906249,3.68902587890625Q7.103694628906251,3.68902587890625,6.45134462890625,4.31273587890625Q5.79899462890625,4.93644587890625,5.75849462890625,5.838065878906249L5.04295462890625,21.76942587890625Z" fill-rule="evenodd" fill="#121212" fill-opacity="1"/></g><g><g><path d="M14,9.875Q14.086179999999999,9.875,14.1707,9.858187000000001Q14.255230000000001,9.841374,14.33485,9.808394Q14.41447,9.775415,14.48612,9.727536Q14.557780000000001,9.679657,14.61872,9.618718Q14.67966,9.55778,14.727540000000001,9.486124Q14.77541,9.414468,14.80839,9.334848Q14.841370000000001,9.255228,14.85819,9.170704Q14.875,9.08618,14.875,9Q14.875,8.825952,14.80839,8.665152Q14.74179,8.504352,14.61872,8.381281Q14.614709999999999,8.377277,14.61066,8.373325Q14.488109999999999,8.25391,14.329609999999999,8.189455Q14.171109999999999,8.125,14,8.125L13.99902,8.125001Q11.56615,8.125346,9.845748,9.845748Q8.125,11.56649,8.125,14Q8.125,16.43316,9.845264,18.15377L9.845748,18.154249999999998Q9.968818,18.27732,10.12962,18.34393Q10.29042,18.41053,10.46447,18.41053Q10.63851,18.41053,10.79931,18.34393Q10.96011,18.27732,11.08318,18.154249999999998Q11.20626,18.03118,11.27286,17.87038Q11.33947,17.709580000000003,11.33947,17.53553Q11.33947,17.36149,11.27286,17.20069Q11.20626,17.03989,11.08318,16.91682Q9.875,15.70863,9.875,14Q9.875,12.29137,11.08318,11.08318Q12.29137,9.875,14,9.875ZM19.875,14Q19.875,11.5665,18.154249999999998,9.845748Q18.03118,9.722677000000001,17.87038,9.656072Q17.709580000000003,9.589466,17.53553,9.589466Q17.36149,9.589466,17.20069,9.656071Q17.03989,9.722677000000001,16.91682,9.845748Q16.79374,9.968818,16.72714,10.12962Q16.66053,10.29042,16.66053,10.46447Q16.66053,10.63851,16.72714,10.79931Q16.79375,10.96011,16.91682,11.08318Q18.125,12.29137,18.125,14Q18.125,15.70863,16.91682,16.91682Q15.70863,18.125,14,18.125Q13.913820000000001,18.125,13.8293,18.14181Q13.744769999999999,18.15862,13.66515,18.1916Q13.58553,18.22458,13.51388,18.272460000000002Q13.442219999999999,18.32034,13.38128,18.38128Q13.32034,18.44222,13.272459999999999,18.51388Q13.22459,18.58553,13.19161,18.66515Q13.158629999999999,18.744770000000003,13.14181,18.8293Q13.125,18.91382,13.125,19Q13.125,19.086199999999998,13.14181,19.1707Q13.158629999999999,19.255200000000002,13.19161,19.3348Q13.22459,19.4145,13.272459999999999,19.4861Q13.32034,19.5578,13.38128,19.6187Q13.442219999999999,19.6797,13.51388,19.7275Q13.58553,19.775399999999998,13.66515,19.8084Q13.744769999999999,19.8414,13.8293,19.8582Q13.913820000000001,19.875,14,19.875Q16.433500000000002,19.875,18.154249999999998,18.154249999999998Q19.875,16.433500000000002,19.875,14Z" fill-rule="evenodd" fill="#121212" fill-opacity="1"/></g><g><path d="M14.276699,18.169902L17.276699999999998,19.169902Q17.34163,19.191547,17.40241,19.223025Q17.46319,19.254503,17.51833,19.29505Q17.57348,19.335596,17.62165,19.384224Q17.66982,19.432852,17.70984,19.488379Q17.749859999999998,19.543905,17.78076,19.604979Q17.81166,19.666054,17.83269,19.73119Q17.85371,19.796326,17.86436,19.86394Q17.875,19.931554,17.875,20Q17.875,20.08618,17.85819,20.1707Q17.84137,20.25523,17.80839,20.33485Q17.77541,20.41447,17.72754,20.48612Q17.67966,20.55778,17.61872,20.61872Q17.55778,20.67966,17.48612,20.72754Q17.41447,20.77541,17.33485,20.80839Q17.25523,20.84137,17.1707,20.85819Q17.08618,20.875,17,20.875Q16.85801,20.875,16.723300000000002,20.8301L13.723301,19.830098Q13.658367,19.808453,13.597589,19.776975Q13.53681,19.745497,13.481666,19.70495Q13.426522,19.664404,13.378353,19.615776Q13.330184,19.567148,13.290163,19.511622Q13.250142,19.456095,13.219242,19.395021Q13.188341,19.333946,13.167314,19.26881Q13.146286,19.203674,13.135643,19.13606Q13.125,19.0684463,13.125,19Q13.125,18.91382,13.141812999999999,18.829296Q13.158626,18.744772,13.191606,18.665152Q13.224585,18.585532,13.272464,18.513876Q13.320343,18.44222,13.381282,18.381282Q13.44222,18.320343,13.513876,18.272464Q13.585532,18.224585,13.665152,18.191606Q13.744772,18.158626,13.829296,18.141813Q13.91382,18.125,14,18.125Q14.141993,18.125,14.276699,18.169902Z" fill-rule="evenodd" fill="#121212" fill-opacity="1"/></g><g><path d="M11.276699,7.169902L14.2767,8.169902Q14.34163,8.191547,14.40241,8.223025Q14.46319,8.254503,14.51833,8.29505Q14.57348,8.335596,14.621649999999999,8.384224Q14.66982,8.432852,14.70984,8.488379Q14.74986,8.543905,14.78076,8.604979Q14.81166,8.666054,14.83269,8.73119Q14.85371,8.796326,14.86436,8.86394Q14.875,8.931554,14.875,9Q14.875,9.08618,14.85819,9.1707Q14.84137,9.255230000000001,14.80839,9.33485Q14.77541,9.41447,14.72754,9.48612Q14.67966,9.55778,14.61872,9.61872Q14.557780000000001,9.67966,14.48612,9.72754Q14.41447,9.77541,14.33485,9.80839Q14.255230000000001,9.84137,14.1707,9.85819Q14.08618,9.875,14,9.875Q13.85801,9.875,13.7233,9.8301L10.723301,8.830098Q10.658367,8.808453,10.597589,8.776975Q10.53681,8.745497,10.481666,8.70495Q10.426522,8.664404,10.378353,8.615776Q10.330184,8.567148,10.290163,8.511622Q10.250142,8.456095,10.219242,8.395021Q10.188341,8.333946,10.167314,8.26881Q10.146286,8.203674,10.135643,8.13606Q10.125,8.0684463,10.125,8Q10.125,7.91382,10.141812999999999,7.829296Q10.158626,7.744772,10.191606,7.665152Q10.224585,7.585532,10.272464,7.513876Q10.320343,7.44222,10.381282,7.381282Q10.44222,7.320343,10.513876,7.272464Q10.585532,7.224585,10.665152,7.191606Q10.744772,7.158626,10.829296,7.141813Q10.91382,7.125,11,7.125Q11.141993,7.125,11.276699,7.169902Z" fill-rule="evenodd" fill="#121212" fill-opacity="1"/></g></g></g></svg>