<svg xmlns="http://www.w3.org/2000/svg" xmlns:xlink="http://www.w3.org/1999/xlink" fill="none" version="1.1" width="24" height="24" viewBox="0 0 24 24"><defs><clipPath id="master_svg0_52127_115681/42933_048885"><rect x="0" y="0" width="24" height="24" rx="0"/></clipPath></defs><g clip-path="url(#master_svg0_52127_115681/42933_048885)"><g></g><g><g><path d="M3.284953625,5.21284875L1.8219756249999999,17.50186875Q1.816015625,17.55196875,1.816015625,17.60236875Q1.816015625,17.68606875,1.8323486249999998,17.76816875Q1.848680625,17.850268749999998,1.880717625,17.927668750000002Q1.912755625,18.00496875,1.9592666250000002,18.074568749999997Q2.005777625,18.14416875,2.064974625,18.20336875Q2.124172625,18.26256875,2.193780625,18.30906875Q2.263389625,18.35556875,2.340734625,18.38766875Q2.418079625,18.41966875,2.500188625,18.43596875Q2.5822979249999998,18.452368749999998,2.666015625,18.452368749999998L21.334015625,18.452368749999998Q21.384415625,18.452368749999998,21.434415625,18.446368749999998Q21.517615625,18.43646875,21.597215625,18.41056875Q21.676815625,18.38466875,21.749815625,18.34366875Q21.822815625,18.30276875,21.886415625,18.24826875Q21.950115625,18.19386875,22.001815625,18.12816875Q22.053615625,18.062368749999997,22.091615625,17.98776875Q22.129515625,17.91306875,22.152215625,17.83246875Q22.174915625,17.75196875,22.181415625,17.668468750000002Q22.187915625,17.58496875,22.178015625,17.50186875L20.715015625,5.21284875Q20.542115625,3.76041875,19.448415625,2.78919175Q18.354715625,1.81796875,16.892015625,1.81796875L7.107955625,1.81796875Q5.645265625,1.81796875,4.551565625,2.78919175Q3.4578626249999997,3.76041875,3.284953625,5.21284875ZM3.623208625,16.752368750000002L20.376815625,16.752368750000002L19.027015625,5.413808749999999Q18.930415625,4.60270875,18.319615625,4.06033875Q17.708915625,3.51796875,16.892015625,3.51796875L7.107955625,3.51796875Q6.291135625,3.51796875,5.680365625,4.06033875Q5.069595625,4.60270875,4.973035625,5.413808749999999L3.623208625,16.752368750000002Z" fill-rule="evenodd" fill="#121212" fill-opacity="1"/></g><g><path d="M9.360225625,13.86875057220459L4.666015625,13.86875057220459C3.561446625,13.86875057220459,2.666015625,14.76418157220459,2.666015625,15.86875057220459L2.666015625,18.335940572204592C2.666015625,19.99279057220459,4.009165625,21.335940572204592,5.666015625,21.335940572204592L18.334015625,21.335940572204592C19.990815625,21.335940572204592,21.334015625,19.99279057220459,21.334015625,18.335940572204592L21.334015625,15.86875057220459C21.334015625,14.76418157220459,20.438515625,13.86875057220459,19.334015625,13.86875057220459L14.639815625,13.86875057220459Q14.567815625,14.07219357220459,14.465415625,14.262203572204589Q14.363115625,14.45221257220459,14.232915625,14.62429957220459Q14.102715625,14.79638757220459,13.947615625,14.94649057220459Q13.792615625,15.09659057220459,13.616315625,15.221160572204589Q13.440115625,15.34573057220459,13.246915625,15.44183057220459Q13.053615625,15.53792057220459,12.848015625,15.60328057220459Q12.642315625,15.66863057220459,12.429055625,15.70170057220459Q12.215805625,15.73477057220459,11.999995625,15.73477057220459Q11.784185625,15.73477057220459,11.570925625,15.70170057220459Q11.357665625,15.66863057220459,11.151995625,15.60328057220459Q10.946325625,15.53792057220459,10.753095625,15.44183057220459Q10.559865625,15.34573057220459,10.383635625,15.221160572204589Q10.207415625,15.09659057220459,10.052355625,14.94649057220459Q9.897305625000001,14.79638757220459,9.767075625,14.62429957220459Q9.636855624999999,14.45221257220459,9.534535625,14.262203572204589Q9.432215625000001,14.07219357220459,9.360225625,13.86875057220459Z" fill-rule="evenodd" fill="#FFFFFF" fill-opacity="1"/><path d="M9.360225625,14.71875057220459L4.666015625,14.71875057220459Q4.189665625,14.71875057220459,3.852845625,15.05558057220459Q3.516015625,15.39240057220459,3.516015625,15.86875057220459L3.516015625,18.335940572204592Q3.516015625,19.22650057220459,4.145735625,19.85622057220459Q4.775455625,20.48594057220459,5.666015625,20.48594057220459L18.334015625,20.48594057220459Q19.224515625,20.48594057220459,19.854215625,19.85622057220459Q20.484015625,19.22650057220459,20.484015625,18.335940572204592L20.484015625,15.86875057220459Q20.484015625,15.39241057220459,20.147115625,15.05558057220459Q19.810315625,14.71875057220459,19.334015625,14.71875057220459L14.639815625,14.71875057220459L14.639815625,13.86875057220459L15.441115625,14.152320572204589Q15.054115625,15.24574057220459,14.107015625,15.91525057220459Q13.159915625,16.58477057220459,11.999995625,16.58477057220459Q10.840125625,16.58477057220459,9.892995625000001,15.91525057220459Q8.945865625,15.24574057220459,8.558915625000001,14.152320572204589L9.360225625,13.86875057220459L9.360225625,14.71875057220459ZM9.360225625,13.01875057220459Q9.425725625,13.01875057220459,9.490465624999999,13.02878857220459Q9.555195625,13.03882557220459,9.617625624999999,13.05866357220459Q9.680065625000001,13.07850257220459,9.738715625000001,13.10767257220459Q9.797375625,13.13684257220459,9.850865625,13.174655572204589Q9.904355625,13.21246957220459,9.951425624999999,13.25803257220459Q9.998495625,13.303595572204589,10.038025625,13.35583257220459Q10.077555624999999,13.40807057220459,10.108615624999999,13.46574757220459Q10.139665625,13.52342457220459,10.161525625,13.58518057220459Q10.368255625,14.16936457220459,10.874285625,14.52706557220459Q11.380305625,14.884770572204589,11.999995625,14.884770572204589Q12.619675625,14.884770572204589,13.125715625,14.52706557220459Q13.631715625,14.16936457220459,13.838415625,13.58518057220459Q13.860315625,13.52342457220459,13.891415625,13.46574757220459Q13.922415625,13.40807057220459,13.961915625,13.35583257220459Q14.001515625,13.303595572204589,14.048515625,13.25803257220459Q14.095615625,13.21246957220459,14.149115625,13.174655572204589Q14.202615625,13.13684257220459,14.261315625,13.10767257220459Q14.319915625,13.07850257220459,14.382315625,13.05866457220459Q14.444815625,13.03882557220459,14.509515625,13.02878857220459Q14.574215625,13.01875057220459,14.639815625,13.01875057220459L19.334015625,13.01875057220459Q20.514515625,13.01875057220459,21.349215625,13.85349637220459Q22.184015625,14.68824357220459,22.184015625,15.86875057220459L22.184015625,18.335940572204592Q22.184015625,19.93066057220459,21.056315625,21.05830057220459Q19.928715625,22.18594057220459,18.334015625,22.18594057220459L5.666015625,22.18594057220459Q4.071295625,22.18594057220459,2.943654625,21.05830057220459Q1.816015625,19.93066057220459,1.816015625,18.335940572204592L1.816015625,15.86875057220459Q1.816015625,14.68824157220459,2.650761325,13.85349627220459Q3.485506625,13.01875057220459,4.666015625,13.01875057220459L9.360225625,13.01875057220459L9.360225625,13.01875057220459Z" fill="#121212" fill-opacity="1"/></g><g transform="matrix(1,-1.1365660412820944e-8,1.1365660412820944e-8,1,-7.272246804745919e-8,1.07296528106815e-7)"><path d="M12.315452998199463,6.5883424999999995L12.888252998199462,7.6740075C12.922212998199463,7.7380875,12.983882998199462,7.7828575,13.055322998199463,7.7952775L14.264582998199462,8.0059775C14.394492998199464,8.0285575,14.501262998199463,8.1211475,14.542022998199464,8.2465775C14.582782998199463,8.3720075,14.550832998199464,8.5096975,14.459012998199462,8.6043475L13.605532998199463,9.4847275C13.554942998199463,9.5367275,13.531422998199464,9.6093075,13.541892998199462,9.6811075L13.715642998199463,10.8969475C13.734142998199463,11.027507499999999,13.678992998199462,11.157607500000001,13.572322998199464,11.2350975C13.465642998199463,11.3125875,13.324892998199463,11.3247775,13.206482998199462,11.2667875L12.104152998199464,10.7260275C12.039062998199462,10.693887499999999,11.962712998199462,10.693887499999999,11.897622998199463,10.7260275L10.794972998199462,11.2671075C10.676562998199463,11.3250975,10.535812998199463,11.3128975,10.429135998199463,11.2354175C10.322458998199464,11.1579275,10.267317998199463,11.0278275,10.285815998199462,10.8972675L10.458292998199463,9.6811075C10.468762998199463,9.6093075,10.445242998199463,9.5367275,10.394648998199463,9.4847275L9.540851998199463,8.6030775C9.449031828199463,8.5084175,9.417085898199463,8.3707375,9.457842398199462,8.2453075C9.498598998199462,8.1198775,9.605372998199464,8.0272875,9.735286998199463,8.0047075L10.944542998199463,7.7939975C11.015972998199462,7.7815775,11.077652998199463,7.7368175,11.111612998199464,7.6727375L11.686002998199463,6.5883424999999995C11.747562998199463,6.4715435,11.868722998199463,6.3984375,12.000732998199464,6.3984375C12.132732998199463,6.3984374869573,12.253892998199463,6.4715435,12.315452998199463,6.5883424999999995Z" fill="#121212" fill-opacity="1"/></g></g></g></svg>