<svg xmlns="http://www.w3.org/2000/svg" xmlns:xlink="http://www.w3.org/1999/xlink" fill="none" version="1.1" width="24" height="24" viewBox="0 0 24 24"><g><g></g><g><g><g><path d="M3.19866943359375,5.57366943359375L3.19866943359375,9.169169433593751Q3.19866943359375,9.25534943359375,3.21548243359375,9.339879433593751Q3.23229543359375,9.42439943359375,3.26527543359375,9.50401943359375Q3.2982544335937503,9.58363943359375,3.3461334335937503,9.655289433593751Q3.3940124335937503,9.726949433593749,3.45495143359375,9.787889433593751Q3.51588943359375,9.84882943359375,3.5875454335937498,9.896709433593749Q3.65920143359375,9.94458943359375,3.73882143359375,9.97756943359375Q3.81844143359375,10.01054943359375,3.90296543359375,10.02735943359375Q3.98748943359375,10.044169433593751,4.07366943359375,10.044169433593751Q4.15984943359375,10.044169433593751,4.24437343359375,10.02735943359375Q4.32889743359375,10.010539433593749,4.40851743359375,9.97756943359375Q4.48813743359375,9.94458943359375,4.55979343359375,9.896709433593749Q4.63144943359375,9.84882943359375,4.69238743359375,9.787889433593751Q4.75332643359375,9.726949433593749,4.80120543359375,9.655289433593751Q4.84908443359375,9.58363943359375,4.88206343359375,9.50401943359375Q4.91504343359375,9.42439943359375,4.93185643359375,9.339879433593751Q4.94866943359375,9.25534943359375,4.94866943359375,9.169169433593751L4.94866943359375,5.57366943359375Q4.94866943359375,5.3147894335937504,5.13172943359375,5.13172943359375Q5.3147894335937504,4.94866943359375,5.57366943359375,4.94866943359375L9.16914943359375,4.94866943359375Q9.25532943359375,4.94866943359375,9.33985943359375,4.93185643359375Q9.42437943359375,4.91504343359375,9.50399943359375,4.88206343359375Q9.58361943359375,4.84908443359375,9.655279433593751,4.80120543359375Q9.72692943359375,4.75332643359375,9.78786943359375,4.69238743359375Q9.84880943359375,4.63144943359375,9.89668943359375,4.55979343359375Q9.944569433593749,4.48813743359375,9.977549433593751,4.40851743359375Q10.01052943359375,4.32889743359375,10.027339433593749,4.24437343359375Q10.04414943359375,4.15984943359375,10.04414943359375,4.07366943359375Q10.04414943359375,3.98748943359375,10.027339433593749,3.90296543359375Q10.01052943359375,3.81844143359375,9.977549433593751,3.73882143359375Q9.944569433593749,3.65920143359375,9.89668943359375,3.5875454335937498Q9.84880943359375,3.51588943359375,9.78786943359375,3.45495143359375Q9.72692943359375,3.3940124335937503,9.655279433593751,3.3461334335937503Q9.58361943359375,3.2982544335937503,9.50399943359375,3.26527543359375Q9.42437943359375,3.23229543359375,9.33985943359375,3.21548243359375Q9.25532943359375,3.19866943359375,9.16914943359375,3.19866943359375L5.57366943359375,3.19866943359375Q4.58991243359375,3.19866943359375,3.89429043359375,3.89429043359375Q3.19866943359375,4.58991243359375,3.19866943359375,5.57366943359375Z" fill-rule="evenodd" fill="#121212" fill-opacity="1"/></g><g transform="matrix(0,1,-1,0,23.99995517730713,-15.852616310119629)"><path d="M19.05128574371338,5.57366943359375L19.05128574371338,9.169169433593751Q19.05128574371338,9.25534943359375,19.068098743713378,9.339879433593751Q19.08491174371338,9.42439943359375,19.11789174371338,9.50401943359375Q19.15087074371338,9.58363943359375,19.19874974371338,9.655289433593751Q19.24662874371338,9.726949433593749,19.307567743713378,9.787889433593751Q19.368505743713378,9.84882943359375,19.44016174371338,9.896709433593749Q19.51181774371338,9.94458943359375,19.591437743713378,9.97756943359375Q19.67105774371338,10.01054943359375,19.75558174371338,10.02735943359375Q19.84010574371338,10.044169433593751,19.92628574371338,10.044169433593751Q20.012465743713378,10.044169433593751,20.09698974371338,10.02735943359375Q20.181513743713378,10.010539433593749,20.26113374371338,9.97756943359375Q20.34075374371338,9.94458943359375,20.41240974371338,9.896709433593749Q20.48406574371338,9.84882943359375,20.54500374371338,9.787889433593751Q20.605942743713378,9.726949433593749,20.65382174371338,9.655289433593751Q20.701700743713378,9.58363943359375,20.73467974371338,9.50401943359375Q20.767659743713377,9.42439943359375,20.78447274371338,9.339879433593751Q20.80128574371338,9.25534943359375,20.80128574371338,9.169169433593751L20.80128574371338,5.57366943359375Q20.80128574371338,5.3147894335937504,20.98434574371338,5.13172943359375Q21.167405743713378,4.94866943359375,21.42628574371338,4.94866943359375L25.02176574371338,4.94866943359375Q25.10794574371338,4.94866943359375,25.19247574371338,4.93185643359375Q25.27699574371338,4.91504343359375,25.356615743713377,4.88206343359375Q25.43623574371338,4.84908443359375,25.50789574371338,4.80120543359375Q25.57954574371338,4.75332643359375,25.640485743713377,4.69238743359375Q25.70142574371338,4.63144943359375,25.74930574371338,4.55979343359375Q25.797185743713378,4.48813743359375,25.83016574371338,4.40851743359375Q25.86314574371338,4.32889743359375,25.879955743713378,4.24437343359375Q25.89676574371338,4.15984943359375,25.89676574371338,4.07366943359375Q25.89676574371338,3.98748943359375,25.879955743713378,3.90296543359375Q25.86314574371338,3.81844143359375,25.83016574371338,3.73882143359375Q25.797185743713378,3.65920143359375,25.74930574371338,3.5875454335937498Q25.70142574371338,3.51588943359375,25.640485743713377,3.45495143359375Q25.57954574371338,3.3940124335937503,25.50789574371338,3.3461334335937503Q25.43623574371338,3.2982544335937503,25.356615743713377,3.26527543359375Q25.27699574371338,3.23229543359375,25.19247574371338,3.21548243359375Q25.10794574371338,3.19866943359375,25.02176574371338,3.19866943359375L21.42628574371338,3.19866943359375Q20.44252874371338,3.19866943359375,19.746906743713378,3.89429043359375Q19.05128574371338,4.58991243359375,19.05128574371338,5.57366943359375Z" fill-rule="evenodd" fill="#121212" fill-opacity="1"/></g><g transform="matrix(-1,0,0,-1,39.85257148742676,39.8524169921875)"><path d="M19.05128574371338,21.42620849609375L19.05128574371338,25.02170849609375Q19.05128574371338,25.10788849609375,19.068098743713378,25.19241849609375Q19.08491174371338,25.27693849609375,19.11789174371338,25.35655849609375Q19.15087074371338,25.43617849609375,19.19874974371338,25.50782849609375Q19.24662874371338,25.57948849609375,19.307567743713378,25.64042849609375Q19.368505743713378,25.70136849609375,19.44016174371338,25.74924849609375Q19.51181774371338,25.797128496093748,19.591437743713378,25.83010849609375Q19.67105774371338,25.863088496093752,19.75558174371338,25.87989849609375Q19.84010574371338,25.89670849609375,19.92628574371338,25.89670849609375Q20.012465743713378,25.89670849609375,20.09698974371338,25.87989849609375Q20.181513743713378,25.86307849609375,20.26113374371338,25.83010849609375Q20.34075374371338,25.797128496093748,20.41240974371338,25.74924849609375Q20.48406574371338,25.70136849609375,20.54500374371338,25.64042849609375Q20.605942743713378,25.57948849609375,20.65382174371338,25.50782849609375Q20.701700743713378,25.43617849609375,20.73467974371338,25.35655849609375Q20.767659743713377,25.27693849609375,20.78447274371338,25.19241849609375Q20.80128574371338,25.10788849609375,20.80128574371338,25.02170849609375L20.80128574371338,21.42620849609375Q20.80128574371338,21.16732849609375,20.98434574371338,20.98426849609375Q21.167405743713378,20.80120849609375,21.42628574371338,20.80120849609375L25.02176574371338,20.80120849609375Q25.10794574371338,20.80120849609375,25.19247574371338,20.78439549609375Q25.27699574371338,20.76758249609375,25.356615743713377,20.73460249609375Q25.43623574371338,20.70162349609375,25.50789574371338,20.65374449609375Q25.57954574371338,20.60586549609375,25.640485743713377,20.54492649609375Q25.70142574371338,20.48398849609375,25.74930574371338,20.41233249609375Q25.797185743713378,20.34067649609375,25.83016574371338,20.26105649609375Q25.86314574371338,20.18143649609375,25.879955743713378,20.09691249609375Q25.89676574371338,20.01238849609375,25.89676574371338,19.92620849609375Q25.89676574371338,19.84002849609375,25.879955743713378,19.75550449609375Q25.86314574371338,19.67098049609375,25.83016574371338,19.59136049609375Q25.797185743713378,19.51174049609375,25.74930574371338,19.44008449609375Q25.70142574371338,19.36842849609375,25.640485743713377,19.30749049609375Q25.57954574371338,19.24655149609375,25.50789574371338,19.19867249609375Q25.43623574371338,19.15079349609375,25.356615743713377,19.11781449609375Q25.27699574371338,19.08483449609375,25.19247574371338,19.06802149609375Q25.10794574371338,19.05120849609375,25.02176574371338,19.05120849609375L21.42628574371338,19.05120849609375Q20.44252874371338,19.05120849609375,19.746906743713378,19.74682949609375Q19.05128574371338,20.44245149609375,19.05128574371338,21.42620849609375Z" fill-rule="evenodd" fill="#121212" fill-opacity="1"/></g><g transform="matrix(0,-1,1,0,-15.8525390625,23.9998779296875)"><path d="M3.19866943359375,21.42620849609375L3.19866943359375,25.02170849609375Q3.19866943359375,25.10788849609375,3.21548243359375,25.19241849609375Q3.23229543359375,25.27693849609375,3.26527543359375,25.35655849609375Q3.2982544335937503,25.43617849609375,3.3461334335937503,25.50782849609375Q3.3940124335937503,25.57948849609375,3.45495143359375,25.64042849609375Q3.51588943359375,25.70136849609375,3.5875454335937498,25.74924849609375Q3.65920143359375,25.797128496093748,3.73882143359375,25.83010849609375Q3.81844143359375,25.863088496093752,3.90296543359375,25.87989849609375Q3.98748943359375,25.89670849609375,4.07366943359375,25.89670849609375Q4.15984943359375,25.89670849609375,4.24437343359375,25.87989849609375Q4.32889743359375,25.86307849609375,4.40851743359375,25.83010849609375Q4.48813743359375,25.797128496093748,4.55979343359375,25.74924849609375Q4.63144943359375,25.70136849609375,4.69238743359375,25.64042849609375Q4.75332643359375,25.57948849609375,4.80120543359375,25.50782849609375Q4.84908443359375,25.43617849609375,4.88206343359375,25.35655849609375Q4.91504343359375,25.27693849609375,4.93185643359375,25.19241849609375Q4.94866943359375,25.10788849609375,4.94866943359375,25.02170849609375L4.94866943359375,21.42620849609375Q4.94866943359375,21.16732849609375,5.13172943359375,20.98426849609375Q5.3147894335937504,20.80120849609375,5.57366943359375,20.80120849609375L9.16914943359375,20.80120849609375Q9.25532943359375,20.80120849609375,9.33985943359375,20.78439549609375Q9.42437943359375,20.76758249609375,9.50399943359375,20.73460249609375Q9.58361943359375,20.70162349609375,9.655279433593751,20.65374449609375Q9.72692943359375,20.60586549609375,9.78786943359375,20.54492649609375Q9.84880943359375,20.48398849609375,9.89668943359375,20.41233249609375Q9.944569433593749,20.34067649609375,9.977549433593751,20.26105649609375Q10.01052943359375,20.18143649609375,10.027339433593749,20.09691249609375Q10.04414943359375,20.01238849609375,10.04414943359375,19.92620849609375Q10.04414943359375,19.84002849609375,10.027339433593749,19.75550449609375Q10.01052943359375,19.67098049609375,9.977549433593751,19.59136049609375Q9.944569433593749,19.51174049609375,9.89668943359375,19.44008449609375Q9.84880943359375,19.36842849609375,9.78786943359375,19.30749049609375Q9.72692943359375,19.24655149609375,9.655279433593751,19.19867249609375Q9.58361943359375,19.15079349609375,9.50399943359375,19.11781449609375Q9.42437943359375,19.08483449609375,9.33985943359375,19.06802149609375Q9.25532943359375,19.05120849609375,9.16914943359375,19.05120849609375L5.57366943359375,19.05120849609375Q4.58991243359375,19.05120849609375,3.89429043359375,19.74682949609375Q3.19866943359375,20.44245149609375,3.19866943359375,21.42620849609375Z" fill-rule="evenodd" fill="#121212" fill-opacity="1"/></g></g><g><path d="M4.07373046875,11.250006198883057L19.926330468750002,11.250006198883057Q20.00023046875,11.250006198883057,20.07263046875,11.264417198883056Q20.14513046875,11.278828198883057,20.21333046875,11.307096198883057Q20.28163046875,11.335365198883057,20.34303046875,11.376404198883057Q20.40443046875,11.417443198883056,20.45663046875,11.469676198883057Q20.50893046875,11.521909198883057,20.54993046875,11.583328198883057Q20.59103046875,11.644748198883057,20.61923046875,11.712993198883057Q20.64753046875,11.781239198883057,20.66193046875,11.853688198883056Q20.67633046875,11.926137698883057,20.67633046875,12.000006198883057Q20.67633046875,12.073874698883056,20.66193046875,12.146324198883057Q20.64753046875,12.218773198883056,20.61923046875,12.287019198883057Q20.59103046875,12.355264198883056,20.54993046875,12.416684198883056Q20.50893046875,12.478103198883057,20.45663046875,12.530336198883056Q20.40443046875,12.582569198883057,20.34303046875,12.623608198883057Q20.28163046875,12.664647198883056,20.21333046875,12.692916198883056Q20.14513046875,12.721184198883057,20.07263046875,12.735595198883058Q20.00023046875,12.750006198883057,19.926330468750002,12.750006198883057L4.07373046875,12.750006198883057Q3.99986196875,12.750006198883057,3.92741246875,12.735595198883058Q3.85496346875,12.721184198883057,3.78671746875,12.692916198883056Q3.71847246875,12.664647198883056,3.65705246875,12.623608198883057Q3.59563346875,12.582569198883057,3.54340046875,12.530336198883056Q3.49116746875,12.478103198883057,3.45012846875,12.416684198883056Q3.40908946875,12.355264198883056,3.38082046875,12.287019198883057Q3.35255246875,12.218773198883056,3.33814146875,12.146324198883057Q3.32373046875,12.073874698883056,3.32373046875,12.000006198883057Q3.32373046875,11.926137698883057,3.33814146875,11.853688198883056Q3.35255246875,11.781239198883057,3.38082046875,11.712993198883057Q3.40908946875,11.644748198883057,3.45012846875,11.583328198883057Q3.49116746875,11.521909198883057,3.54340046875,11.469676198883057Q3.59563346875,11.417443198883056,3.65705246875,11.376404198883057Q3.71847246875,11.335365198883057,3.78671746875,11.307096198883057Q3.85496346875,11.278828198883057,3.92741246875,11.264417198883056Q3.99986196875,11.250006198883057,4.07373046875,11.250006198883057Z" fill-rule="evenodd" fill="#121212" fill-opacity="1"/></g></g></g></svg>