<svg xmlns="http://www.w3.org/2000/svg" xmlns:xlink="http://www.w3.org/1999/xlink" fill="none" version="1.1" width="24" height="24" viewBox="0 0 24 24"><g><g><path d="M10.75,10C10.75,9.58579,10.41421,9.25,10,9.25C9.58579,9.25,9.25,9.58579,9.25,10C9.25,10,10.75,10,10.75,10C10.75,10,10.75,10,10.75,10ZM9.25,16C9.25,16.4142,9.58579,16.75,10,16.75C10.41421,16.75,10.75,16.4142,10.75,16C10.75,16,9.25,16,9.25,16C9.25,16,9.25,16,9.25,16ZM14.75,10C14.75,9.58579,14.4142,9.25,14,9.25C13.5858,9.25,13.25,9.58579,13.25,10C13.25,10,14.75,10,14.75,10C14.75,10,14.75,10,14.75,10ZM13.25,16C13.25,16.4142,13.5858,16.75,14,16.75C14.4142,16.75,14.75,16.4142,14.75,16C14.75,16,13.25,16,13.25,16C13.25,16,13.25,16,13.25,16ZM18.75,6C18.75,5.585789999999999,18.4142,5.25,18,5.25C17.5858,5.25,17.25,5.585789999999999,17.25,6C17.25,6,18.75,6,18.75,6C18.75,6,18.75,6,18.75,6ZM6.75,6C6.75,5.585789999999999,6.414210000000001,5.25,6,5.25C5.585789999999999,5.25,5.25,5.585789999999999,5.25,6C5.25,6,6.75,6,6.75,6C6.75,6,6.75,6,6.75,6ZM4,5.25C3.585786,5.25,3.25,5.585789999999999,3.25,6C3.25,6.41421,3.585786,6.75,4,6.75C4,6.75,4,5.25,4,5.25C4,5.25,4,5.25,4,5.25ZM20,6.75C20.4142,6.75,20.75,6.41421,20.75,6C20.75,5.585789999999999,20.4142,5.25,20,5.25C20,5.25,20,6.75,20,6.75C20,6.75,20,6.75,20,6.75ZM14.25,6C14.25,6.41421,14.5858,6.75,15,6.75C15.4142,6.75,15.75,6.41421,15.75,6C15.75,6,14.25,6,14.25,6C14.25,6,14.25,6,14.25,6ZM8.25,6C8.25,6.41421,8.58579,6.75,9,6.75C9.41421,6.75,9.75,6.41421,9.75,6C9.75,6,8.25,6,8.25,6C8.25,6,8.25,6,8.25,6ZM9.25,10C9.25,10,9.25,16,9.25,16C9.25,16,10.75,16,10.75,16C10.75,16,10.75,10,10.75,10C10.75,10,9.25,10,9.25,10C9.25,10,9.25,10,9.25,10ZM13.25,10C13.25,10,13.25,16,13.25,16C13.25,16,14.75,16,14.75,16C14.75,16,14.75,10,14.75,10C14.75,10,13.25,10,13.25,10C13.25,10,13.25,10,13.25,10ZM17.25,6C17.25,6,17.25,18,17.25,18C17.25,18,18.75,18,18.75,18C18.75,18,18.75,6,18.75,6C18.75,6,17.25,6,17.25,6C17.25,6,17.25,6,17.25,6ZM16,19.25C16,19.25,8,19.25,8,19.25C8,19.25,8,20.75,8,20.75C8,20.75,16,20.75,16,20.75C16,20.75,16,19.25,16,19.25C16,19.25,16,19.25,16,19.25ZM6.75,18C6.75,18,6.75,6,6.75,6C6.75,6,5.25,6,5.25,6C5.25,6,5.25,18,5.25,18C5.25,18,6.75,18,6.75,18C6.75,18,6.75,18,6.75,18ZM8,19.25C7.30964,19.25,6.75,18.6904,6.75,18C6.75,18,5.25,18,5.25,18C5.25,19.5188,6.48122,20.75,8,20.75C8,20.75,8,19.25,8,19.25C8,19.25,8,19.25,8,19.25ZM17.25,18C17.25,18.6904,16.6904,19.25,16,19.25C16,19.25,16,20.75,16,20.75C17.5188,20.75,18.75,19.5188,18.75,18C18.75,18,17.25,18,17.25,18C17.25,18,17.25,18,17.25,18ZM4,6.75C4,6.75,20,6.75,20,6.75C20,6.75,20,5.25,20,5.25C20,5.25,4,5.25,4,5.25C4,5.25,4,6.75,4,6.75C4,6.75,4,6.75,4,6.75ZM15.75,6C15.75,6,15.75,5,15.75,5C15.75,5,14.25,5,14.25,5C14.25,5,14.25,6,14.25,6C14.25,6,15.75,6,15.75,6C15.75,6,15.75,6,15.75,6ZM13,2.25C13,2.25,11,2.25,11,2.25C11,2.25,11,3.75,11,3.75C11,3.75,13,3.75,13,3.75C13,3.75,13,2.25,13,2.25C13,2.25,13,2.25,13,2.25ZM8.25,5C8.25,5,8.25,6,8.25,6C8.25,6,9.75,6,9.75,6C9.75,6,9.75,5,9.75,5C9.75,5,8.25,5,8.25,5C8.25,5,8.25,5,8.25,5ZM11,2.25C9.48122,2.25,8.25,3.48122,8.25,5C8.25,5,9.75,5,9.75,5C9.75,4.30964,10.30964,3.75,11,3.75C11,3.75,11,2.25,11,2.25C11,2.25,11,2.25,11,2.25ZM15.75,5C15.75,3.48122,14.5188,2.25,13,2.25C13,2.25,13,3.75,13,3.75C13.6904,3.75,14.25,4.30964,14.25,5C14.25,5,15.75,5,15.75,5C15.75,5,15.75,5,15.75,5Z" fill="#BABAC4" fill-opacity="1"/></g></g></svg>