<svg xmlns="http://www.w3.org/2000/svg" xmlns:xlink="http://www.w3.org/1999/xlink" fill="none" version="1.1" width="20" height="20" viewBox="0 0 20 20"><defs><clipPath id="master_svg0_48402_076078"><rect x="0" y="0" width="20" height="20" rx="0"/></clipPath><clipPath id="master_svg1_48402_076115"><rect x="-2" y="-2" width="24" height="24.000001907348633" rx="0"/></clipPath></defs><g clip-path="url(#master_svg0_48402_076078)"><g clip-path="url(#master_svg1_48402_076115)"><g></g><g><g><path d="M16.001514672851563,3.261303953125Q14.526614672851563,1.786376953125,12.440714672851563,1.786376953125L6.482634672851563,1.786376953125Q4.396764672851562,1.786376953125,2.9218416728515626,3.261303953125Q1.4469146728515625,4.736226953125,1.4469146728515625,6.822096953125L1.4469146728515625,12.733376953125Q1.4469146728515625,14.819276953125,2.9218416728515626,16.294176953125Q4.396764672851562,17.769076953125,6.482634672851563,17.769076953125L15.312314672851562,17.769076953125L17.667214672851564,18.201376953125Q17.73991467285156,18.214676953125,17.81371467285156,18.213576953125Q17.887614672851562,18.212476953124998,17.959814672851564,18.196976953125002Q18.032014672851563,18.181476953125,18.09991467285156,18.152276953125Q18.167714672851563,18.122976953125,18.228514672851563,18.080976953125003Q18.289314672851564,18.039076953125,18.34071467285156,17.986076953125Q18.392214672851562,17.933076953125,18.43231467285156,17.871076953124998Q18.472414672851563,17.808976953125,18.499714672851564,17.740376953125Q18.52691467285156,17.671676953125,18.54031467285156,17.599076953125Q18.58181467285156,17.372676953125,18.489214672851563,17.161976953125L17.476514672851565,14.856976953125L17.476514672851565,6.822096953125Q17.476514672851565,4.736226953125,16.001514672851563,3.261303953125ZM6.482634672851563,3.286376953125L12.440714672851563,3.286376953125Q13.905314672851562,3.286376953125,14.940914672851562,4.321966953125Q15.976514672851563,5.357546953125,15.976514672851563,6.822096953125L15.976514672851563,15.014476953125Q15.976514672851563,15.171976953125,16.039814672851563,15.316176953125L16.547114672851563,16.470676953125L15.515914672851563,16.281476953125Q15.448814672851562,16.269076953125,15.380614672851562,16.269076953125L6.482634672851563,16.269076953125Q5.018084672851563,16.269076953125,3.9825046728515625,15.233476953125Q2.9469146728515625,14.197976953125,2.9469146728515625,12.733376953125L2.9469146728515625,6.822096953125Q2.9469146728515625,5.357546953125,3.9825046728515625,4.321966953125Q5.018084672851563,3.286376953125,6.482634672851563,3.286376953125Z" fill-rule="evenodd" fill="#006DE2" fill-opacity="1"/></g><g><g transform="matrix(0,1,1,0,-2.4466710090637207,2.4466710090637207)"><path d="M6.910445690155029,8.60711669921875Q6.83657719015503,8.60711669921875,6.764127690155029,8.621527699218749Q6.69167869015503,8.63593869921875,6.623432690155029,8.66420669921875Q6.555187690155029,8.69247569921875,6.493767690155029,8.73351469921875Q6.432348690155029,8.77455369921875,6.380115690155029,8.82678669921875Q6.327882690155029,8.87901969921875,6.286843690155029,8.94043869921875Q6.24580469015503,9.00185869921875,6.217535690155029,9.07010369921875Q6.189267690155029,9.13834969921875,6.174856690155029,9.21079869921875Q6.160445690155029,9.28324819921875,6.160445690155029,9.35711669921875Q6.160445690155029,9.43098519921875,6.174856690155029,9.50343469921875Q6.189267690155029,9.57588369921875,6.217535690155029,9.64412969921875Q6.24580469015503,9.71237469921875,6.286843690155029,9.77379469921875Q6.327882690155029,9.83521369921875,6.380115690155029,9.88744669921875Q6.432348690155029,9.93967969921875,6.493767690155029,9.98071869921875Q6.555187690155029,10.02175769921875,6.623432690155029,10.05002669921875Q6.69167869015503,10.07829469921875,6.764127690155029,10.092705699218751Q6.83657719015503,10.10711669921875,6.910445690155029,10.10711669921875L8.19615569015503,10.10711669921875Q8.270025690155029,10.10711669921875,8.342475690155029,10.092705699218751Q8.41492569015503,10.07829469921875,8.48317569015503,10.05002669921875Q8.551415690155029,10.02175769921875,8.612835690155029,9.98071869921875Q8.674255690155029,9.93967969921875,8.72648569015503,9.88744669921875Q8.77872569015503,9.83521369921875,8.819765690155029,9.77379469921875Q8.86080569015503,9.71237469921875,8.889065690155029,9.64412969921875Q8.91733569015503,9.57588369921875,8.93174569015503,9.50343469921875Q8.94615569015503,9.43098519921875,8.94615569015503,9.35711669921875Q8.94615569015503,9.28324819921875,8.93174569015503,9.21079869921875Q8.91733569015503,9.13834969921875,8.889065690155029,9.07010369921875Q8.86080569015503,9.00185869921875,8.819765690155029,8.94043869921875Q8.77872569015503,8.87901969921875,8.72648569015503,8.82678669921875Q8.674255690155029,8.77455369921875,8.612835690155029,8.73351469921875Q8.551415690155029,8.69247569921875,8.48317569015503,8.66420669921875Q8.41492569015503,8.63593869921875,8.342475690155029,8.621527699218749Q8.270025690155029,8.60711669921875,8.19615569015503,8.60711669921875L6.910445690155029,8.60711669921875Z" fill-rule="evenodd" fill="#006DE2" fill-opacity="1"/></g><g transform="matrix(0,1,1,0,2.6556239128112793,-2.6556239128112793)"><path d="M12.01274061203003,8.60711669921875Q11.93887211203003,8.60711669921875,11.866422612030028,8.621527699218749Q11.79397361203003,8.63593869921875,11.72572761203003,8.66420669921875Q11.65748261203003,8.69247569921875,11.59606261203003,8.73351469921875Q11.53464361203003,8.77455369921875,11.48241061203003,8.82678669921875Q11.430177612030029,8.87901969921875,11.38913861203003,8.94043869921875Q11.34809961203003,9.00185869921875,11.31983061203003,9.07010369921875Q11.29156261203003,9.13834969921875,11.277151612030028,9.21079869921875Q11.26274061203003,9.28324819921875,11.26274061203003,9.35711669921875Q11.26274061203003,9.43098519921875,11.277151612030028,9.50343469921875Q11.29156261203003,9.57588369921875,11.31983061203003,9.64412969921875Q11.34809961203003,9.71237469921875,11.38913861203003,9.77379469921875Q11.430177612030029,9.83521369921875,11.48241061203003,9.88744669921875Q11.53464361203003,9.93967969921875,11.59606261203003,9.98071869921875Q11.65748261203003,10.02175769921875,11.72572761203003,10.05002669921875Q11.79397361203003,10.07829469921875,11.866422612030028,10.092705699218751Q11.93887211203003,10.10711669921875,12.01274061203003,10.10711669921875L13.29845061203003,10.10711669921875Q13.372320612030029,10.10711669921875,13.444770612030029,10.092705699218751Q13.51722061203003,10.07829469921875,13.58547061203003,10.05002669921875Q13.653710612030029,10.02175769921875,13.715130612030029,9.98071869921875Q13.776550612030029,9.93967969921875,13.82878061203003,9.88744669921875Q13.88102061203003,9.83521369921875,13.922060612030029,9.77379469921875Q13.96310061203003,9.71237469921875,13.991360612030029,9.64412969921875Q14.01963061203003,9.57588369921875,14.03404061203003,9.50343469921875Q14.04845061203003,9.43098519921875,14.04845061203003,9.35711669921875Q14.04845061203003,9.28324819921875,14.03404061203003,9.21079869921875Q14.01963061203003,9.13834969921875,13.991360612030029,9.07010369921875Q13.96310061203003,9.00185869921875,13.922060612030029,8.94043869921875Q13.88102061203003,8.87901969921875,13.82878061203003,8.82678669921875Q13.776550612030029,8.77455369921875,13.715130612030029,8.73351469921875Q13.653710612030029,8.69247569921875,13.58547061203003,8.66420669921875Q13.51722061203003,8.63593869921875,13.444770612030029,8.621527699218749Q13.372320612030029,8.60711669921875,13.29845061203003,8.60711669921875L12.01274061203003,8.60711669921875Z" fill-rule="evenodd" fill="#006DE2" fill-opacity="1"/></g></g></g></g></g></svg>