<svg xmlns="http://www.w3.org/2000/svg" xmlns:xlink="http://www.w3.org/1999/xlink" fill="none" version="1.1" width="24" height="24" viewBox="0 0 24 24"><g><g><ellipse cx="12" cy="12" rx="10" ry="10" fill="#006DE2" fill-opacity="1"/></g><g><g><path d="M11,13L11,16Q11,16.098489999999998,11.019210000000001,16.19509Q11.03843,16.29169,11.07612,16.38268Q11.11381,16.47368,11.16853,16.55557Q11.22325,16.63746,11.29289,16.70711Q11.36254,16.77675,11.44443,16.83147Q11.52632,16.88619,11.61732,16.92388Q11.70831,16.961570000000002,11.80491,16.98078Q11.90151,17,12,17Q12.09849,17,12.19509,16.98078Q12.29169,16.961570000000002,12.38268,16.92388Q12.47368,16.88619,12.55557,16.83147Q12.63746,16.77675,12.70711,16.70711Q12.77675,16.63746,12.83147,16.55557Q12.88619,16.47368,12.92388,16.38268Q12.96157,16.29169,12.98078,16.19509Q13,16.098489999999998,13,16L13,13L16,13Q16.098489999999998,13,16.19509,12.98078Q16.29169,12.96157,16.38268,12.92388Q16.47368,12.88619,16.55557,12.83147Q16.63746,12.77675,16.70711,12.70711Q16.77675,12.63746,16.83147,12.55557Q16.88619,12.47368,16.92388,12.38268Q16.961570000000002,12.29169,16.98078,12.19509Q17,12.09849,17,12Q17,11.90151,16.98078,11.80491Q16.961570000000002,11.70831,16.92388,11.61732Q16.88619,11.52632,16.83147,11.44443Q16.77675,11.36254,16.70711,11.29289Q16.63746,11.22325,16.55557,11.16853Q16.47368,11.11381,16.38268,11.07612Q16.29169,11.03843,16.19509,11.019210000000001Q16.098489999999998,11,16,11L13,11L13,8Q13,7.901509,12.98078,7.80491Q12.96157,7.708311,12.92388,7.617316Q12.88619,7.526322,12.83147,7.44443Q12.77675,7.362537,12.70711,7.292893Q12.63746,7.223249,12.55557,7.16853Q12.47368,7.113811,12.38268,7.0761205Q12.29169,7.0384294,12.19509,7.0192147Q12.09849,7,12,7Q11.90151,7,11.80491,7.0192147Q11.70831,7.0384294,11.61732,7.0761205Q11.52632,7.113811,11.44443,7.16853Q11.36254,7.223249,11.29289,7.292893Q11.22325,7.362537,11.16853,7.44443Q11.11381,7.526322,11.07612,7.617316Q11.03843,7.708311,11.019210000000001,7.80491Q11,7.901509,11,8L11,11L8,11Q7.901509,11,7.80491,11.019210000000001Q7.708311,11.03843,7.617316,11.07612Q7.526322,11.11381,7.44443,11.16853Q7.362537,11.22325,7.292893,11.29289Q7.223249,11.36254,7.16853,11.44443Q7.113811,11.52632,7.0761205,11.61732Q7.0384294,11.70831,7.0192147,11.80491Q7,11.90151,7,12Q7,12.09849,7.0192147,12.19509Q7.0384294,12.29169,7.0761205,12.38268Q7.113811,12.47368,7.16853,12.55557Q7.223249,12.63746,7.292893,12.70711Q7.362537,12.77675,7.44443,12.83147Q7.526322,12.88619,7.617316,12.92388Q7.708311,12.96157,7.80491,12.98078Q7.901509,13,8,13L11,13Z" fill-rule="evenodd" fill="#FFFFFF" fill-opacity="1"/></g></g></g></svg>