<svg xmlns="http://www.w3.org/2000/svg" xmlns:xlink="http://www.w3.org/1999/xlink" fill="none" version="1.1" width="24" height="24" viewBox="0 0 24 24"><defs><clipPath id="master_svg0_57347_224508"><rect x="0" y="0" width="24" height="24" rx="0"/></clipPath></defs><g clip-path="url(#master_svg0_57347_224508)"><g><g><path d="M1.9560546875,6.53076171875L1.9560546875,17.469261718749998Q1.9560546875,19.48856171875,3.3837846875,20.91626171875Q4.811644687499999,22.34416171875,6.8310546875,22.34426171875L17.168954687499998,22.34426171875Q19.1882546875,22.34426171875,20.6162546875,20.91626171875Q22.0440546875,19.48836171875,22.0439546875,17.469261718749998L22.0439546875,6.53076171875Q22.0439546875,4.51147171875,20.6162546875,3.08349171875Q19.1883546875,1.65564167475,17.168954687499998,1.65576171875L6.8310546875,1.65576171875Q4.8117646875,1.65576171875,3.3839046875000003,3.0836117187500003Q1.9560546875,4.51147171875,1.9560546875,6.53076171875ZM4.621094687499999,19.67866171875Q3.7058046874999997,18.76346171875,3.7060546875,17.469261718749998L3.7060546875,6.53076171875Q3.7060546875,5.236341718749999,4.621344687500001,4.321051718750001Q5.536634687499999,3.40576171875,6.8310546875,3.40576171875L17.168954687499998,3.40576171875Q18.4633546875,3.40576171875,19.3779546875,4.32104171875Q20.2932546875,5.236341718749999,20.2939546875,6.53076171875L20.2939546875,17.469261718749998Q20.2939546875,18.76366171875,19.3779546875,19.67866171875Q18.4626546875,20.59396171875,17.168954687499998,20.59426171875L6.8310546875,20.59426171875Q5.536634687499999,20.59426171875,4.621094687499999,19.67866171875Z" fill-rule="evenodd" fill="#121212" fill-opacity="1"/></g><g><g><path d="M15.1791525,12.875L8.8195985,12.875L8.8195985,12.875C8.3367435,12.87429,7.9453125,12.48285,7.9453125,12C7.9453125,11.517145,8.3367435,11.125714234,8.8195985,11.125714234L8.8195985,11.125714234L15.1791525,11.125L15.1791525,11.125C15.6620025,11.125714234,16.0534325,11.517145,16.0534325,12C16.0534325,12.48285,15.6620025,12.87429,15.1791525,12.875L15.1791525,12.875Z" fill-rule="evenodd" fill="#121212" fill-opacity="1"/></g><g transform="matrix(0,1,-1,0,20.82080078125,-4.92919921875)"><path d="M20.10884,9.69580078125L13.749286,9.69580078125L13.749286,9.69580078125C13.266431,9.69509078125,12.875,9.30365078125,12.875,8.82080078125C12.875,8.33794578125,13.266431,7.94651501525,13.749286,7.94651501525L13.749286,7.94651501525L20.10884,7.94580078125L20.10884,7.94580078125C20.59169,7.94651501525,20.98312,8.33794578125,20.98312,8.82080078125C20.98312,9.30365078125,20.59169,9.69509078125,20.10884,9.69580078125L20.10884,9.69580078125Z" fill-rule="evenodd" fill="#121212" fill-opacity="1"/></g></g></g></g></svg>