<svg xmlns="http://www.w3.org/2000/svg" xmlns:xlink="http://www.w3.org/1999/xlink" fill="none" version="1.1" width="24" height="24" viewBox="0 0 24 24"><defs><clipPath id="master_svg0_57347_224486"><rect x="0" y="0" width="24" height="24" rx="0"/></clipPath><clipPath id="master_svg1_57347_224488"><rect x="-0.6044921875" y="-0.6044921875" width="25.2091064453125" height="25.2091064453125" rx="0"/></clipPath></defs><g clip-path="url(#master_svg0_57347_224486)"><g clip-path="url(#master_svg1_57347_224488)"><g><path d="M4.4560546875,8.398620859375L4.4560546875,5.546630859375Q4.456054789679,3.941550859375,5.5910146874999995,2.806590859375Q6.7259746875,1.671630961554,8.3310546875,1.671630859375L15.6684546875,1.671630859375Q17.273554687500003,1.671630757196,18.4084546875,2.806590859375Q19.543454687500002,3.941560859375,19.543454687500002,5.546640859375L19.543454687500002,8.398620859375L19.543454687500002,8.398620859375C19.5427546875,8.881470859375,19.1512546875,9.272900859375,18.668454687500002,9.272900859375C18.1855546875,9.272900859375,17.7941546875,8.881470859375,17.7941546875,8.398610859375001L17.7941546875,8.398610859375001L17.793454687500002,5.546630859375Q17.793454687500002,4.666430859375,17.1710546875,4.044030859375Q16.548654687499997,3.421630859375,15.6684546875,3.421630859375L8.3310546875,3.421630859375Q7.4508546875,3.421630859375,6.8284546875,4.044030859375Q6.2060546875,4.666430859375,6.2060546875,5.546630859375L6.2060546875,8.398620859375L6.2060546875,8.398620859375C6.2053446875,8.881470859375,5.8139046875,9.272900859375,5.3310546875,9.272900859375C4.8481996875,9.272900859375,4.4567689215,8.881470859375,4.4560546875,8.398620859375L4.4560546875,8.398620859375Z" fill-rule="evenodd" fill="#121212" fill-opacity="1"/></g><g><path d="M1.671875,18.453481640625L1.671875,11.398681640625Q1.671875,9.793601640624999,2.806835,8.658641640625Q3.941795,7.523681844984,5.546875,7.523681947163L18.453675,7.523681640625Q20.058775,7.523681640625,21.193775,8.658641640625Q22.328675,9.793601640624999,22.328675,11.398681640625L22.328675,18.453481640625Q22.328675,20.058581640625,21.193775,21.193581640625Q20.058775,22.328481640625,18.453675,22.328481640625L5.546875,22.328481640625Q3.941795,22.328481640625,2.806835,21.193581640625Q1.671874795641,20.058581640625,1.671875,18.453481640625ZM3.421875,18.453481640625Q3.421875,19.333681640625002,4.044275,19.956081640625Q4.666675,20.578481640625,5.546875,20.578481640625L18.453675,20.578481640625Q19.333875,20.578481640625,19.956275,19.956081640625Q20.578675,19.333681640625002,20.578675,18.453481640625L20.578675,11.398681640625Q20.578675,10.518481640625,19.956275,9.896081640624999Q19.333875,9.273681640625,18.453675,9.273681640625L5.546875,9.273681640625Q4.666675,9.273681640625,4.044275,9.896081640624999Q3.421875,10.518481640625,3.421875,11.398681640625L3.421875,18.453481640625Z" fill-rule="evenodd" fill="#121212" fill-opacity="1"/></g><g><path d="M6.0693359375,21.453473125000002L6.0693359375,19.251953125Q6.0693359375,18.061093125,6.9114039375,17.219021125Q7.7534759375,16.376953022821,8.9443359375,16.376953125L15.0558059375,16.376953125Q16.246635937500002,16.376953022821,17.088735937499997,17.219021125Q17.9308359375,18.061093125,17.9308359375,19.251953125L17.9308359375,21.453473125000002C17.9308359375,21.936723125,17.5390359375,22.328473125000002,17.0558359375,22.328473125000002L6.9443359375,22.328473125000002C6.4610869375,22.328473125000002,6.0693359375,21.936723125,6.0693359375,21.453473125000002ZM16.1808359375,20.578473125000002L7.8193359375,20.578473125000002L7.8193359375,19.251953125Q7.8193359375,18.785963125,8.1488359375,18.456453125Q8.4783459375,18.126953125,8.9443359375,18.126953125L15.0558059375,18.126953125Q15.5218059375,18.126953125,15.8513059375,18.456453125Q16.1808359375,18.785963125,16.1808359375,19.251953125L16.1808359375,20.578473125000002Z" fill-rule="evenodd" fill="#121212" fill-opacity="1"/></g><g><path d="M5.915301625,13.349853515625L5.915301625,13.349853515625C5.432446625,13.349143515625,5.041015625,12.957703515625,5.041015625,12.474853515625C5.041015625,11.991998515625,5.432446625,11.600567749625,5.915301625,11.600567749625L5.915301625,11.600567749625L7.490865625,11.599853515625L7.490865625,11.599853515625C7.973725625,11.600567749625,8.365155625,11.991998515625,8.365155625,12.474853515625C8.365155625,12.957703515625,7.973725625,13.349143515625,7.490865625,13.349143515625L7.490865625,13.349143515625L5.915301625,13.349853515625Z" fill-rule="evenodd" fill="#121212" fill-opacity="1"/></g></g></g></svg>