<svg xmlns="http://www.w3.org/2000/svg" xmlns:xlink="http://www.w3.org/1999/xlink" fill="none" version="1.1" width="24" height="24" viewBox="0 0 24 24"><defs><clipPath id="master_svg0_57347_224499"><rect x="0" y="0" width="24" height="24" rx="0"/></clipPath></defs><g clip-path="url(#master_svg0_57347_224499)"><g><g><path d="M2.95703125,17.969405859375L2.95703125,6.031005859375Q2.95703125,4.011715859375,4.38488125,2.5838558593750003Q5.81274125,1.156005859375,7.83203125,1.156005859375L16.169631250000002,1.156005859375Q18.18893125,1.156005859375,19.61683125,2.5838558593750003Q21.04463125,4.011715859375,21.04463125,6.031005859375L21.04463125,16.794105859375Q20.90203125,16.502305859375,20.71743125,16.235205859375Q20.53273125,15.968105859375,20.31023125,15.731505859375Q20.08773125,15.495005859375,19.83243125,15.294305859375Q19.57713125,15.093705859375,19.29463125,14.933505859375L19.29463125,6.031005859375Q19.29463125,4.736585859374999,18.37943125,3.821295859375Q17.46413125,2.906005859375,16.169631250000002,2.906005859375L7.83203125,2.906005859375Q6.537611249999999,2.906005859375,5.622321250000001,3.821295859375Q4.70703125,4.736585859374999,4.70703125,6.031005859375L4.70703125,17.969405859375Q4.70703125,19.263805859375,5.622321250000001,20.179105859375Q6.537611249999999,21.094405859375,7.83203125,21.094405859375L13.56843125,21.094405859375Q13.77893125,21.409505859375,14.04113125,21.683105859375Q14.30333125,21.956805859375,14.60923125,22.180605859375Q14.91503125,22.404505859375,15.25513125,22.571705859375Q15.59523125,22.738905859375,15.95923125,22.844405859375L7.83203125,22.844405859375Q5.81274125,22.844405859375,4.38488125,21.416505859375Q2.95703125,19.988605859375,2.95703125,17.969405859375Z" fill-rule="evenodd" fill="#121212" fill-opacity="1"/></g><g><path d="M20.837850312500002,22.368079609375002Q22.360020312499998,20.845839609375,22.360020312499998,18.693089609375Q22.360020312499998,16.540329609375,20.837850312500002,15.018089609375Q19.3156503125,13.495849609375,17.162930312500002,13.495849609375Q15.0102103125,13.495849507196,13.4880103125,15.018089609375Q11.9658203125,16.540329609375,11.9658203125,18.693089609375Q11.965820108141,20.845839609375,13.4880103125,22.368079609375002Q15.0102103125,23.890349609375,17.162930312500002,23.890349609375Q19.3156503125,23.890349609375,20.837850312500002,22.368079609375002ZM19.6003903125,16.255509609375Q20.6100403125,17.265189609375,20.6100403125,18.693089609375Q20.6100403125,20.120979609375,19.6003903125,21.130659609375Q18.5907603125,22.140319609375,17.162930312500002,22.140319609375Q15.7351003125,22.140319609375,14.725460312500001,21.130659609375Q13.7158203125,20.120979609375,13.7158203125,18.693089609375Q13.7158203125,17.265189609375,14.725460312500001,16.255509609375Q15.7351003125,15.245849609375,17.162930312500002,15.245849609375Q18.5907603125,15.245849609375,19.6003903125,16.255509609375Z" fill-rule="evenodd" fill="#121212" fill-opacity="1"/></g><g><path d="M17.3926428125,16.412353515625C16.9097928125,16.412353515625,16.5183628125,16.803784515625,16.5183628125,17.286639515625L16.5183628125,17.286639515625L16.5176428125,18.331943515625L15.8510208125,18.836613515625L15.8510208125,18.836613515625C15.6331518125,19.002453515625,15.5048828125,19.260443515625,15.5048828125,19.534243515625C15.5048828125,20.017103515625,15.8963138125,20.408533515625,16.3791688125,20.408533515625C16.569682812499998,20.408533515625,16.7549928125,20.346303515625,16.9068828125,20.231303515625L16.9068828125,20.231303515625L17.9207928125,19.464613515625C18.1392728125,19.299203515625,18.2676428125,19.041003515625,18.2676428125,18.766983515625L18.2676428125,17.286639515625L18.2676428125,17.286639515625C18.2669328125,16.803784515625,17.8755028125,16.412353515625,17.3926428125,16.412353515625Z" fill-rule="evenodd" fill="#121212" fill-opacity="1"/></g><g><path d="M15.1801290625,6.875L8.8205750625,6.875L8.8205750625,6.875C8.3377200625,6.87429,7.9462890625,6.48285,7.9462890625,6C7.9462890625,5.517145,8.3377200625,5.125714234,8.8205750625,5.125714234L8.8205750625,5.125714234L15.1801290625,5.125L15.1801290625,5.125C15.6629790625,5.125714234,16.0544090625,5.517145,16.0544090625,6C16.0544090625,6.48285,15.6629790625,6.87429,15.1801290625,6.875L15.1801290625,6.875Z" fill-rule="evenodd" fill="#121212" fill-opacity="1"/></g></g></g></svg>