<svg xmlns="http://www.w3.org/2000/svg" xmlns:xlink="http://www.w3.org/1999/xlink" fill="none" version="1.1" width="24" height="24" viewBox="0 0 24 24"><defs><clipPath id="master_svg0_57347_224553"><rect x="0" y="0" width="24" height="24" rx="0"/></clipPath></defs><g clip-path="url(#master_svg0_57347_224553)"><g><g><path d="M3.6131334375,3.4894497656250003Q4.7233334375,1.510009969984,6.9928534375,1.510009969984L17.006373437500002,1.510009765625Q19.2759734375,1.510009663446,20.3861734375,3.4894497656250003L22.2321734375,6.780829765625C22.3054734375,6.911569765625,22.3439734375,7.058959765625,22.3439734375,7.208859765625L22.3439734375,17.614809765625Q22.3439734375,19.634109765625,20.9161734375,21.061909765625Q19.4882734375,22.489809765625,17.4689734375,22.489809765625L6.5302734375,22.489809765625Q4.5109834375,22.489809765625,3.0831234375000003,21.061909765625Q1.6552734375,19.634109765625,1.6552734375,17.614809765625L1.6552734375,7.208859765625C1.6552734375,7.058959765625,1.6937839375000001,6.911569765625,1.7671124375,6.780829765625L3.6131334375,3.4894497656250003ZM5.1394534375,4.345509765625L4.0242634375,6.333859765625L19.9749734375,6.333859765625L18.8597734375,4.345509765625Q18.2509734375,3.260009765625,17.006373437500002,3.260009765625L6.9928534375,3.260009765625Q5.7482734375,3.260009765625,5.1394534375,4.345509765625ZM3.4052734375,17.614809765625L3.4052734375,8.083859765625L20.5939734375,8.083859765625L20.5939734375,17.614809765625Q20.5939734375,18.909209765625,19.6786734375,19.824509765625Q18.7633734375,20.739809765625,17.4689734375,20.739809765625L6.5302734375,20.739809765625Q5.235853437499999,20.739809765625,4.320563437500001,19.824509765625Q3.4052734375,18.909209765625,3.4052734375,17.614809765625Z" fill-rule="evenodd" fill="#FFFFFF" fill-opacity="1"/></g><g><path d="M17.4088915625,18.54736328125L14.5783875625,18.54736328125L14.5783875625,18.54736328125C14.0955325625,18.54665328125,13.7041015625,18.15521328125,13.7041015625,17.67236328125C13.7041015625,17.18950828125,14.0955325625,16.79807751525,14.5783875625,16.79807751525L14.5783875625,16.79807751525L17.4088915625,16.79736328125L17.4088915625,16.79736328125C17.891741562500002,16.79807751525,18.2831715625,17.18950828125,18.2831715625,17.67236328125C18.2831715625,18.15521328125,17.891741562500002,18.54665328125,17.4088915625,18.54736328125L17.4088915625,18.54736328125Z" fill-rule="evenodd" fill="#FFFFFF" fill-opacity="1"/></g><g><path d="M17.4088915625,15.663818359375L14.5783875625,15.663818359375L14.5783875625,15.663818359375C14.0955325625,15.663108359375,13.7041015625,15.271668359375,13.7041015625,14.788818359375C13.7041015625,14.305963359375,14.0955325625,13.914532593375,14.5783875625,13.914532593375L14.5783875625,13.914532593375L17.4088915625,13.913818359375L17.4088915625,13.913818359375C17.891741562500002,13.914532593375,18.2831715625,14.305963359375,18.2831715625,14.788818359375C18.2831715625,15.271668359375,17.891741562500002,15.663108359375,17.4088915625,15.663818359375L17.4088915625,15.663818359375Z" fill-rule="evenodd" fill="#FFFFFF" fill-opacity="1"/></g></g></g></svg>