<svg xmlns="http://www.w3.org/2000/svg" xmlns:xlink="http://www.w3.org/1999/xlink" fill="none" version="1.1" width="24" height="24" viewBox="0 0 24 24"><defs><clipPath id="master_svg0_57347_224575"><rect x="0" y="0" width="24" height="24" rx="0"/></clipPath></defs><g clip-path="url(#master_svg0_57347_224575)"><g><g><path d="M10.9720675,2.680908203125L13.0277375,2.680908203125Q14.0375375,2.680908203125,14.0375375,3.690708203125Q14.0375375,5.284108203125,15.4174375,6.080768203125Q16.7974375,6.877428203125,18.1773375,6.080698203125Q19.0519375,5.575748203125,19.5569375,6.450338203125L20.5846375,8.230438203125Q20.7937375,8.592678203125,20.6855375,8.996688203125Q20.5772375,9.400738203125,20.2149375,9.609928203125Q18.8350375,10.406588203125,18.8350375,11.999908203125Q18.8350375,13.593208203125,20.2149375,14.389908203125Q21.0893375,14.894808203125,20.5845375,15.769208203125L19.5566375,17.549408203125Q19.3042375,17.986708203125,18.9593375,18.079108203125Q18.6145375,18.171508203125,18.1772375,17.919108203125Q16.797337499999998,17.122408203125,15.4174375,17.919108203125Q14.0375375,18.715808203125,14.0375375,20.309208203125Q14.0375375,21.319008203125,13.0277375,21.319008203125L10.9720975,21.319008203125Q10.5538475,21.319008203125,10.2581175,21.023308203125Q9.9623475,20.727508203125,9.9623475,20.309108203125Q9.9623475,18.715808203125,8.582527500000001,17.919208203125Q7.2026975,17.122508203125,5.8228675,17.919208203125Q4.9484775,18.424008203125,4.4436475,17.549608203125L3.4157575,15.769308203125Q3.2066375000000003,15.407008203125,3.3148875,15.003008203125Q3.4231375,14.599008203125,3.7853575,14.389908203125Q5.1652474999999995,13.593208203125,5.1652075,11.999908203125Q5.1651775,10.406538203125,3.7852275,9.609828203125Q3.3479574999999997,9.357378203125,3.2555575,9.012508203125Q3.1631475,8.667648203125001,3.4156075,8.230378203125L4.4434075,6.450168203125Q4.6525375,6.087958203125,5.0565275,5.979708203125Q5.4605375,5.871458203125,5.8227775,6.080598203125Q7.2026375,6.877258203125,8.582497499999999,6.080598203125Q9.9623475,5.283938203125,9.9623475,3.690618203125Q9.9623475,2.680908203125,10.9720675,2.680908203125ZM14.9792375,1.739236203125Q14.1708375,0.930908407484,13.0277375,0.930908203125L10.9720675,0.930908203125Q9.8289575,0.930908203125,9.020647499999999,1.7392092031250002Q8.2123475,2.547508203125,8.2123475,3.690618203125Q8.2123475,4.273578203125,7.7074975,4.565058203125Q7.2026375,4.856538203125,6.6977775,4.565058203125Q5.7077875,3.993488203125,4.6036075,4.289338203125Q3.4994275,4.585188203125,2.9278675,5.575168203125L1.9000615,7.355378203125Q1.3284825,8.345378203125,1.6243535,9.449588203125Q1.9202255,10.553798203125,2.9102275,11.125408203125Q3.4151975,11.416908203125,3.4152175,11.999908203125Q3.4152275000000003,12.582908203125,2.9103575,12.874408203125Q1.9203805,13.445908203125,1.6245185,14.550108203125Q1.3286555,15.654308203125,1.9002185,16.644308203125L2.9281075000000003,18.424608203125Q3.4996475,19.414508203125,4.6037875,19.710408203125Q5.7079275,20.006308203125,6.6978675,19.434708203125Q7.2026975,19.143308203125,7.7075175,19.434708203125Q8.2123475,19.726208203125,8.2123475,20.309108203125Q8.2123475,21.452308203125,9.020647499999999,22.260708203125Q9.8289475,23.069008203125,10.9720975,23.069008203125L13.0277375,23.069008203125Q14.1708375,23.069008203125,14.9792375,22.260708203125Q15.7875375,21.452308203125,15.7875375,20.309208203125Q15.7875375,19.726108203125,16.2924375,19.434608203125Q16.797337499999998,19.143108203125,17.3022375,19.434608203125Q18.2922375,20.006208203125,19.3964375,19.710308203125Q20.5006375,19.414408203125,21.0722375,18.424408203125L22.1000375,16.644208203125Q22.6716375,15.654208203125,22.3757375,14.550108203125Q22.0798375,13.445908203125,21.0899375,12.874308203125Q20.5850375,12.582908203125,20.5850375,11.999908203125Q20.5850375,11.416908203125,21.0899375,11.125508203125Q22.0799375,10.553858203125,22.3758375,9.449658203125Q22.6717375,8.345458203125,22.1001375,7.355438203125L21.0724375,5.575338203125Q20.5008375,4.585318203125,19.3966375,4.289438203125Q18.2924375,3.993558203125,17.3023375,4.565148203125Q16.797337499999998,4.856708203125001,16.2924375,4.565208203125Q15.7875375,4.273718203125,15.7875375,3.690708203125Q15.7875375,2.547568203125,14.9792375,1.739236203125Z" fill-rule="evenodd" fill="#FFFFFF" fill-opacity="1"/></g><g><path d="M11.99976,16.062274140625C14.24329,16.062274140625,16.06203,14.243534140625,16.06203,12.000004140625C16.06203,9.756484140625,14.24329,7.937744140625,11.99976,7.937744140625C9.75624,7.937744140625,7.9375,9.756484140625,7.9375,12.000004140625C7.9375,14.243534140625,9.75624,16.062274140625,11.99976,16.062274140625ZM11.99976,9.687744140625C13.27679,9.687744140625,14.31203,10.722984140625,14.31203,12.000004140625C14.31203,13.277034140625,13.27679,14.312274140625,11.99976,14.312274140625C10.72274,14.312274140625,9.6875,13.277034140625,9.6875,12.000004140625C9.6875,10.722984140625,10.72274,9.687744140625,11.99976,9.687744140625Z" fill-rule="evenodd" fill="#FFFFFF" fill-opacity="1"/></g></g></g></svg>