<svg xmlns="http://www.w3.org/2000/svg" xmlns:xlink="http://www.w3.org/1999/xlink" fill="none" version="1.1" width="24" height="24" viewBox="0 0 24 24"><defs><clipPath id="master_svg0_57347_224531"><rect x="0" y="0" width="24" height="24" rx="0"/></clipPath></defs><g clip-path="url(#master_svg0_57347_224531)"><g><g><g><path d="M15.1791525,3.0999999046325684L8.8195985,3.0999999046325684L8.8195985,3.0999999046325684C8.3367435,3.0992899046325686,7.9453125,2.7078499046325684,7.9453125,2.2249999046325684C7.9453125,1.7421449046325683,8.3367435,1.3507141386325683,8.8195985,1.3507141386325683L8.8195985,1.3507141386325683L15.1791525,1.3499999046325684L15.1791525,1.3499999046325684C15.6620025,1.3507141386325683,16.0534325,1.7421449046325683,16.0534325,2.2249999046325684C16.0534325,2.7078499046325684,15.6620025,3.0992899046325686,15.1791525,3.0999999046325684L15.1791525,3.0999999046325684Z" fill-rule="evenodd" fill="#FFFFFF" fill-opacity="1"/></g></g><g><g><path d="M15.1791525,22.6611328125L8.8195985,22.6611328125L8.8195985,22.6611328125C8.3367435,22.6604228125,7.9453125,22.2689828125,7.9453125,21.7861328125C7.9453125,21.3032778125,8.3367435,20.9118470465,8.8195985,20.9118470465L8.8195985,20.9118470465L15.1791525,20.9111328125L15.1791525,20.9111328125C15.6620025,20.9118470465,16.0534325,21.3032778125,16.0534325,21.7861328125C16.0534325,22.2689828125,15.6620025,22.6604228125,15.1791525,22.6611328125L15.1791525,22.6611328125Z" fill-rule="evenodd" fill="#FFFFFF" fill-opacity="1"/></g></g><g><g><path d="M3.955078125,9.536376953125L3.955078125,14.474856953125Q3.955078125,16.494176953125,5.382808125,17.921876953125Q6.810668124999999,19.349776953125,8.830078125,19.349876953124998L15.167978125,19.349876953124998Q17.187278125,19.349876953124998,18.615278125,17.921876953125Q20.043078125,16.493976953125,20.042978125,14.474856953125L20.042978125,9.536376953125Q20.042978125,7.517086953125,18.615278125,6.089106953125Q17.187378125000002,4.661256909125,15.167978125,4.661376953125L8.830078125,4.661376953125Q6.810788125,4.661376953125,5.382808125,6.089106953125Q3.9549582,7.516966953124999,3.955078125,9.536376953125ZM6.620118124999999,16.684276953125Q5.704828125,15.769076953125,5.705078125,14.474856953125L5.705078125,9.536376953125Q5.705078125,8.241956953125,6.620118124999999,7.326656953125Q7.535408125,6.411366953125,8.830078125,6.411376953125L15.167978125,6.411376953125Q16.462378125,6.411376953125,17.376978125,7.326656953125Q18.292278125,8.241946953125,18.292978124999998,9.536376953125L18.292978124999998,14.474856953125Q18.292978124999998,15.769276953125,17.376978125,16.684276953125Q16.461678125,17.599576953125002,15.167978125,17.599876953124998L8.830078125,17.599876953124998Q7.535658124999999,17.599876953124998,6.620118124999999,16.684276953125Z" fill-rule="evenodd" fill="#FFFFFF" fill-opacity="1"/></g><g transform="matrix(0,1,-1,0,31.142333984375,-15.250244140625)"><g><path d="M30.4301290625,9.696044921875L24.0705750625,9.696044921875L24.0705750625,9.696044921875C23.5877200625,9.695334921875,23.1962890625,9.303894921875,23.1962890625,8.821044921875C23.1962890625,8.338189921875,23.5877200625,7.946759155875,24.0705750625,7.946759155875L24.0705750625,7.946759155875L30.4301290625,7.946044921875L30.4301290625,7.946044921875C30.9129790625,7.946759155875,31.3044090625,8.338189921875,31.3044090625,8.821044921875C31.3044090625,9.303894921875,30.9129790625,9.695334921875,30.4301290625,9.696044921875L30.4301290625,9.696044921875Z" fill-rule="evenodd" fill="#FFFFFF" fill-opacity="1"/></g></g><g transform="matrix(0,1,-1,0,10.498779296875,5.393310546875)"><g><path d="M9.786574375,9.696044921875L3.427020375,9.696044921875L3.427020375,9.696044921875C2.944165375,9.695334921875,2.552734375,9.303894921875,2.552734375,8.821044921875C2.552734375,8.338189921875,2.944165375,7.946759155875,3.427020375,7.946759155875L3.427020375,7.946759155875L9.786574375,7.946044921875L9.786574375,7.946044921875C10.269424375,7.946759155875,10.660854375,8.338189921875,10.660854375,8.821044921875C10.660854375,9.303894921875,10.269424375,9.695334921875,9.786574375,9.696044921875L9.786574375,9.696044921875Z" fill-rule="evenodd" fill="#FFFFFF" fill-opacity="1"/></g></g></g></g></g></svg>