<svg xmlns="http://www.w3.org/2000/svg" xmlns:xlink="http://www.w3.org/1999/xlink" fill="none" version="1.1" width="20" height="17.482421875" viewBox="0 0 20 17.482421875"><g><g><path d="M5.755,6.822L3.291,6.822L2.708,9L0.783,9L3.016,1.3L6.041,1.3L8.274,9L6.338,9L5.755,6.822ZM5.403,5.502L4.534,2.279L4.512,2.279L3.643,5.502L5.403,5.502ZM10.991,1.3L10.991,7.515L14.104,7.515L14.104,9L9.176,9L9.176,1.3L10.991,1.3ZM16.733,1.3L16.733,7.515L19.846,7.515L19.846,9L14.918,9L14.918,1.3L16.733,1.3Z" fill="#121212" fill-opacity="1"/></g><g><g><path d="M3.1699971389770507,11.0909996C2.882997138977051,11.616,2.5819971389770506,12.064,2.2599971389770506,12.435C1.8679971389770507,12.876,1.4479971389770507,13.219,0.9999971389770508,13.471L1.3639971389770507,14.052C1.9659971389770508,13.632,2.4279971389770507,13.233,2.763997138977051,12.855C3.0929971389770508,12.491,3.421997138977051,12.015,3.743997138977051,11.441L3.1699971389770507,11.0909996ZM3.372997138977051,14.325C3.2259971389770508,14.913,3.022997138977051,15.389,2.763997138977051,15.76C2.441997138977051,16.173000000000002,1.9589971389770509,16.551000000000002,1.3289971389770507,16.887L1.7559971389770508,17.44C2.4699971389770505,17.034,3.0089971389770507,16.572,3.372997138977051,16.067999999999998C3.652997138977051,15.634,3.8769971389770506,15.053,4.044997138977051,14.325L5.626997138977051,14.325C5.59199713897705,15.326,5.5149971389770505,15.984,5.40299713897705,16.292C5.290997138977051,16.586,5.052997138977051,16.733,4.70299713897705,16.733C4.338997138977051,16.733,3.946997138977051,16.719,3.5339971389770506,16.705L3.715997138977051,17.363L5.0389971389770505,17.363C5.395997138977051,17.342,5.654997138977051,17.223,5.815997138977051,17.012999999999998C5.976997138977051,16.796,6.088997138977051,16.411,6.158997138977051,15.865C6.228997138977051,15.305,6.270997138977051,14.584,6.298997138977051,13.688L2.063997138977051,13.688L2.063997138977051,14.325L3.372997138977051,14.325ZM5.297997138977051,11L4.716997138977051,11.329C5.143997138977051,12.428,5.899997138977051,13.324,6.9779971389770505,14.024000000000001L7.425997138977051,13.499C6.3899971389770505,12.883,5.682997138977051,12.05,5.297997138977051,11Z" fill="#121212" fill-opacity="1"/></g><g><path d="M16.956002487182616,12.036L17.509002487182617,12.232C17.747002487182616,11.945,17.936002487182616,11.616,18.08300248718262,11.238L17.502002487182615,11.0910001C17.34800248718262,11.469,17.166002487182617,11.784,16.956002487182616,12.036ZM13.645002487182618,11.294C13.855002487182617,11.595,14.037002487182617,11.91,14.177002487182618,12.232L14.737002487182618,12.092C14.583002487182616,11.714,14.415002487182617,11.385,14.219002487182618,11.105L13.645002487182618,11.294ZM12.854002487182617,13.996L13.211002487182617,14.57C14.331002487182618,14.122,15.101002487182617,13.583,15.528002487182617,12.967L15.528002487182617,14.171L16.200002487182616,14.171L16.200002487182616,13.478C16.949002487182618,13.73,17.684002487182617,14.065999999999999,18.405002487182617,14.486L18.762002487182617,13.933C17.992002487182617,13.583,17.138002487182618,13.289,16.200002487182616,13.036999999999999L16.200002487182616,12.967L18.83900248718262,12.967L18.83900248718262,12.344L16.200002487182616,12.344L16.200002487182616,11L15.528002487182617,11L15.528002487182617,12.344L12.889001487182616,12.344L12.889001487182616,12.967L14.919002487182617,12.967C14.520002487182618,13.345,13.834002487182618,13.688,12.854002487182617,13.996ZM12.742002487182617,16.852L13.001002487182618,17.468C14.107002487182617,17.201999999999998,14.884002487182617,16.852,15.332002487182617,16.404C15.514002487182617,16.215,15.668002487182617,15.998000000000001,15.808002487182616,15.753C16.452002487182618,16.565,17.404002487182616,17.139,18.664002487182618,17.482L19.000002487182616,16.894C17.908002487182618,16.642,17.047002487182617,16.208,16.417002487182618,15.599L18.895002487182616,15.599L18.895002487182616,14.975999999999999L16.102002487182617,14.975999999999999C16.151002487182616,14.786999999999999,16.193002487182618,14.591000000000001,16.221002487182616,14.381L15.549002487182618,14.381C15.521002487182617,14.591000000000001,15.472002487182618,14.786999999999999,15.416002487182617,14.975999999999999L12.833002087182617,14.975999999999999L12.833002087182617,15.599L15.122002487182616,15.599C15.031002487182617,15.739,14.919002487182617,15.872,14.786002487182618,15.991C14.366002487182618,16.362000000000002,13.680002487182618,16.649,12.742002487182617,16.852Z" fill="#121212" fill-opacity="1"/></g></g></g></svg>