<svg xmlns="http://www.w3.org/2000/svg" xmlns:xlink="http://www.w3.org/1999/xlink" fill="none" version="1.1" width="141.2607421875" height="46.000003814697266" viewBox="0 0 141.2607421875 46.000003814697266"><defs><clipPath id="master_svg0_56807_172542"><rect x="0" y="0" width="141.2607421875" height="46.000003814697266" rx="0"/></clipPath><linearGradient x1="0" y1="0.5" x2="1" y2="0.5" id="master_svg1_56807_168693"><stop offset="0%" stop-color="#753C22" stop-opacity="1"/><stop offset="100%" stop-color="#401F16" stop-opacity="1"/></linearGradient><linearGradient x1="0.5" y1="0" x2="0.5" y2="1" id="master_svg2_56807_168732"><stop offset="0%" stop-color="#FBD29E" stop-opacity="1"/><stop offset="100%" stop-color="#FC8E5B" stop-opacity="1"/></linearGradient></defs><g clip-path="url(#master_svg0_56807_172542)"><g><g><path d="M1.216796875,46L118.260796875,46C130.962796875,46,141.260796875,35.7026,141.260796875,23C141.260796875,10.2974,130.962796875,0,118.260796875,0L17.196996875,0L1.216796875,46Z" fill="url(#master_svg1_56807_168693)" fill-opacity="1"/></g><g><path d="M0.315417,23.9951C0.155395,24.627,0.632983,25.2406,1.28481,25.2406L8.01758,25.2406L1.19189,46L20.3815,20.0219C20.8691,19.3618,20.3978,18.4277,19.5772,18.4277L12.1333,18.4277L18.8516,0L6.39209,0L0.315417,23.9951Z" fill="url(#master_svg2_56807_168732)" fill-opacity="1"/></g></g></g></svg>