<svg xmlns="http://www.w3.org/2000/svg" xmlns:xlink="http://www.w3.org/1999/xlink" fill="none" version="1.1" width="73" height="22" viewBox="0 0 73 22"><defs><clipPath id="master_svg0_56807_170308"><rect x="0" y="5" width="12" height="12" rx="0"/></clipPath></defs><g><g><g clip-path="url(#master_svg0_56807_170308)"><g><path d="M6.00000310546875,16.5C4.4624231054687495,16.4999,3.08072210546875,15.56116,2.51417110546875,14.13177C1.9476201054687499,12.70238,2.31102940546875,11.07197,3.4310031054687498,10.0185C4.10200310546875,9.387,5.75000310546875,8.25,5.50000310546875,5.75C8.50000310546875,7.75,10.00000310546875,9.75,7.00000310546875,12.75C7.50000310546875,12.75,8.25000310546875,12.75,9.50000310546875,11.515C9.635003105468751,11.9015,9.75000310546875,12.317,9.75000310546875,12.75C9.75000310546875,14.82107,8.071063105468749,16.5,6.00000310546875,16.5Z" fill="#F25643" fill-opacity="1"/></g></g><g><path d="M24.655,7L22.09,7L22.09,7.66Q22.09,8.41,22.03,8.965L23.89,9.625L23.89,11.62L21.67,10.84Q21.235,12.31,20.335,13.81L18.009999999999998,13.81Q19.36,12.1,19.9,10.21L19.165,9.955L19.165,7.96L20.215,8.335Q20.23,8.11,20.23,7.66L20.23,7L18.955,7L18.955,5.125L20.23,5.125L20.23,3.85L22.09,3.85L22.09,5.125L26.515,5.125L26.515,11.905L27.490000000000002,11.905L27.490000000000002,13.81L24.655,13.81L24.655,7ZM14.74,14.44L16.884999999999998,14.44L15.685,17.5L13.54,17.5L14.74,14.44ZM13.69,8.725L15.25,8.44L15.25,7L13.84,7L13.84,5.14L15.25,5.14L15.25,3.91L17.17,3.91L17.17,5.14L18.4,5.14L18.4,7L17.17,7L17.17,8.095L18.55,7.84L18.55,9.76L17.17,10L17.17,13.81L14.095,13.81L14.095,11.935L15.25,11.935L15.25,10.345L13.69,10.615L13.69,8.725ZM18.07,14.44L20.065,14.44L19.525,17.5L17.53,17.5L18.07,14.44ZM22.93,14.44L23.47,17.5L21.475,17.5L20.935,14.44L22.93,14.44ZM26.259999999999998,14.44L27.46,17.5L25.314999999999998,17.5L24.115000000000002,14.44L26.259999999999998,14.44ZM34.015,7.405L37.045,7.405L36.985,3.925L38.86,3.925L38.86,7.405L41.83,7.405L41.83,17.5L39.91,17.5L39.91,15.565L35.92,15.565L35.92,17.5L34.015,17.5L34.015,7.405ZM28.465,8.95Q29.365,6.49,29.59,4L31.66,4L31.615,4.375Q31.6,4.495,31.585,4.6825Q31.57,4.87,31.525,5.125L33.535,5.125L33.535,6.985L31.21,6.985Q31.135,7.33,30.955,7.99L33.355000000000004,7.99L33.355000000000004,9.82L31.915,9.82L31.915,11.14L33.535,11.14L33.535,13L31.915,13L31.915,15.205L33.415,14.845L33.415,16.825L30.01,17.65L30.01,13L28.75,13L28.75,11.14L30.01,11.14L30.01,9.82L29.2,9.82L29.2,8.95L28.465,8.95ZM35.605000000000004,4.075L36.25,6.955L34.585,6.955L33.94,4.075L35.605000000000004,4.075ZM39.91,13.69L39.91,12.475L35.92,12.475L35.92,13.69L39.91,13.69ZM39.91,10.6L39.91,9.28L35.92,9.28L35.92,10.6L39.91,10.6ZM40.225,4.075L41.89,4.075L41.260000000000005,6.955L39.58,6.955L40.225,4.075ZM45.85,7.405L43.765,7.405L43.765,5.545L45.76,5.545L45.76,3.925L47.74,3.925L47.74,5.545L49.06,5.545L49.06,7.405L47.62,7.405L47.62,8.98L48.76,9.97L48.76,12.235L47.62,11.245L47.62,17.5L45.85,17.5L45.85,7.405ZM43.495000000000005,16.72Q43.825,15.085,43.915,13.3Q44.004999999999995,11.515,44.004999999999995,8.95L44.004999999999995,8.02L45.52,8.02L45.535,10.975Q45.535,12.64,45.445,14.0275Q45.355,15.415,45.115,16.72L43.495000000000005,16.72ZM48.61,17.515Q50.32,15.085,50.41,12.46L49.105,12.46L49.105,10.81L52.48,10.81L52.48,9.76L54.4,9.76L54.4,10.81L57.475,10.81L57.475,12.46L52.33,12.46Q52.33,12.715,52.3,13.195L56.98,13.195L56.98,17.5L54.055,17.5L54.055,15.82L55.12,15.82L55.12,14.845L52.06,14.845L52.06,14.8Q51.745,16.21,51.04,17.5L48.61,17.515ZM49.405,7.705L50.59,7.705L50.215,6.28L49.405,6.28L49.405,4.63L52.48,4.63L52.48,3.85L54.4,3.85L54.4,4.63L57.325,4.63L57.325,6.28L56.515,6.28L56.14,7.705L57.325,7.705L57.325,10.3L55.495,10.3L55.495,9.355L51.235,9.355L51.235,10.3L49.405,10.3L49.405,7.705ZM52.375,7.705L54.355,7.705L54.73,6.28L52,6.28L52.375,7.705ZM61.57,4.69L61.21,3.7L63.25,3.7L63.61,4.69L67.39,4.69L67.75,3.7L69.78999999999999,3.7L69.43,4.69L71.485,4.69L71.485,12.43L66.49000000000001,12.43L66.49000000000001,13.735L72.505,13.735L72.505,15.655L66.49000000000001,15.655L66.49000000000001,17.5L64.50999999999999,17.5L64.50999999999999,15.655L58.495,15.655L58.495,13.735L64.50999999999999,13.735L64.50999999999999,12.43L59.515,12.43L59.515,4.69L61.57,4.69ZM64.53999999999999,10.57L64.53999999999999,9.43L61.45,9.43L61.45,10.57L64.53999999999999,10.57ZM64.53999999999999,7.66L64.53999999999999,6.55L61.45,6.55L61.45,7.66L64.53999999999999,7.66ZM69.55,10.57L69.55,9.43L66.46000000000001,9.43L66.46000000000001,10.57L69.55,10.57ZM69.55,7.66L69.55,6.55L66.46000000000001,6.55L66.46000000000001,7.66L69.55,7.66Z" fill="#121212" fill-opacity="1"/></g></g></g></svg>