<svg xmlns="http://www.w3.org/2000/svg" xmlns:xlink="http://www.w3.org/1999/xlink" fill="none" version="1.1" width="24" height="24" viewBox="0 0 24 24"><defs><clipPath id="master_svg0_48453_099169"><rect x="0" y="0" width="24" height="24" rx="0"/></clipPath></defs><g clip-path="url(#master_svg0_48453_099169)"><g><g><g><g><path d="M2.125,6L2.125,9.642859999999999Q2.125,9.729040000000001,2.141813,9.813559999999999Q2.158626,9.89808,2.191606,9.977699999999999Q2.2245850000000003,10.05732,2.2724640000000003,10.12898Q2.3203430000000003,10.20064,2.381282,10.26158Q2.44222,10.322510000000001,2.5138759999999998,10.37039Q2.585532,10.41827,2.665152,10.45125Q2.744772,10.48423,2.829296,10.50104Q2.91382,10.517859999999999,3,10.517859999999999Q3.08618,10.517859999999999,3.170704,10.50104Q3.255228,10.48423,3.334848,10.45125Q3.414468,10.41827,3.4861240000000002,10.37039Q3.55778,10.322510000000001,3.618718,10.26158Q3.6796569999999997,10.20064,3.7275359999999997,10.12898Q3.7754149999999997,10.05732,3.808394,9.977699999999999Q3.841374,9.89808,3.858187,9.813559999999999Q3.875,9.729040000000001,3.875,9.642859999999999L3.875,6Q3.875,5.7411200000000004,4.05806,5.55806Q4.2411200000000004,5.375,4.5,5.375L8.142859999999999,5.375Q8.229040000000001,5.375,8.313559999999999,5.358187Q8.39808,5.341374,8.477699999999999,5.308394Q8.55732,5.275415,8.62898,5.227536Q8.70064,5.179657,8.76158,5.118718Q8.822510000000001,5.05778,8.87039,4.986124Q8.91827,4.914468,8.95125,4.834848Q8.98423,4.755228,9.00104,4.670704Q9.017859999999999,4.58618,9.017859999999999,4.5Q9.017859999999999,4.41382,9.00104,4.329296Q8.98423,4.244772,8.95125,4.165152Q8.91827,4.085532,8.87039,4.013876Q8.822510000000001,3.94222,8.76158,3.881282Q8.70064,3.8203430000000003,8.62898,3.7724640000000003Q8.55732,3.7245850000000003,8.477699999999999,3.691606Q8.39808,3.658626,8.313559999999999,3.641813Q8.229040000000001,3.625,8.142859999999999,3.625L4.5,3.625Q3.5162430000000002,3.625,2.820621,4.320621Q2.125,5.016243,2.125,6Z" fill-rule="evenodd" fill="#BABAC4" fill-opacity="1"/></g><g transform="matrix(0,1,-1,0,25.5,-16.5)"><path d="M20.125,6L20.125,9.642859999999999Q20.125,9.729040000000001,20.141813,9.813559999999999Q20.158626,9.89808,20.191606,9.977699999999999Q20.224585,10.05732,20.272464,10.12898Q20.320343,10.20064,20.381282,10.26158Q20.44222,10.322510000000001,20.513876,10.37039Q20.585532,10.41827,20.665152,10.45125Q20.744772,10.48423,20.829296,10.50104Q20.91382,10.517859999999999,21,10.517859999999999Q21.08618,10.517859999999999,21.170704,10.50104Q21.255228,10.48423,21.334848,10.45125Q21.414468,10.41827,21.486124,10.37039Q21.55778,10.322510000000001,21.618718,10.26158Q21.679657,10.20064,21.727536,10.12898Q21.775415,10.05732,21.808394,9.977699999999999Q21.841374,9.89808,21.858187,9.813559999999999Q21.875,9.729040000000001,21.875,9.642859999999999L21.875,6Q21.875,5.7411200000000004,22.05806,5.55806Q22.24112,5.375,22.5,5.375L26.14286,5.375Q26.22904,5.375,26.31356,5.358187Q26.39808,5.341374,26.4777,5.308394Q26.55732,5.275415,26.62898,5.227536Q26.70064,5.179657,26.761580000000002,5.118718Q26.82251,5.05778,26.87039,4.986124Q26.91827,4.914468,26.95125,4.834848Q26.98423,4.755228,27.00104,4.670704Q27.01786,4.58618,27.01786,4.5Q27.01786,4.41382,27.00104,4.329296Q26.98423,4.244772,26.95125,4.165152Q26.91827,4.085532,26.87039,4.013876Q26.82251,3.94222,26.761580000000002,3.881282Q26.70064,3.8203430000000003,26.62898,3.7724640000000003Q26.55732,3.7245850000000003,26.4777,3.691606Q26.39808,3.658626,26.31356,3.641813Q26.22904,3.625,26.14286,3.625L22.5,3.625Q21.516243,3.625,20.820621,4.320621Q20.125,5.016243,20.125,6Z" fill-rule="evenodd" fill="#BABAC4" fill-opacity="1"/></g><g transform="matrix(0,-1,1,0,-16,22)"><path d="M2.125,20.5L2.125,24.14286Q2.125,24.22904,2.141813,24.31356Q2.158626,24.39808,2.191606,24.4777Q2.2245850000000003,24.55732,2.2724640000000003,24.62898Q2.3203430000000003,24.70064,2.381282,24.761580000000002Q2.44222,24.82251,2.5138759999999998,24.87039Q2.585532,24.91827,2.665152,24.95125Q2.744772,24.98423,2.829296,25.00104Q2.91382,25.01786,3,25.01786Q3.08618,25.01786,3.170704,25.00104Q3.255228,24.98423,3.334848,24.95125Q3.414468,24.91827,3.4861240000000002,24.87039Q3.55778,24.82251,3.618718,24.761580000000002Q3.6796569999999997,24.70064,3.7275359999999997,24.62898Q3.7754149999999997,24.55732,3.808394,24.4777Q3.841374,24.39808,3.858187,24.31356Q3.875,24.22904,3.875,24.14286L3.875,20.5Q3.875,20.24112,4.05806,20.05806Q4.2411200000000004,19.875,4.5,19.875L8.142859999999999,19.875Q8.229040000000001,19.875,8.313559999999999,19.858187Q8.39808,19.841374,8.477699999999999,19.808394Q8.55732,19.775415,8.62898,19.727536Q8.70064,19.679657,8.76158,19.618718Q8.822510000000001,19.55778,8.87039,19.486124Q8.91827,19.414468,8.95125,19.334848Q8.98423,19.255228,9.00104,19.170704Q9.017859999999999,19.08618,9.017859999999999,19Q9.017859999999999,18.91382,9.00104,18.829296Q8.98423,18.744772,8.95125,18.665152Q8.91827,18.585532,8.87039,18.513876Q8.822510000000001,18.44222,8.76158,18.381282Q8.70064,18.320343,8.62898,18.272464Q8.55732,18.224585,8.477699999999999,18.191606Q8.39808,18.158626,8.313559999999999,18.141813Q8.229040000000001,18.125,8.142859999999999,18.125L4.5,18.125Q3.5162430000000002,18.125,2.820621,18.820621Q2.125,19.516243,2.125,20.5Z" fill-rule="evenodd" fill="#BABAC4" fill-opacity="1"/></g></g><g><g transform="matrix(0,1,-1,0,15.6689453125,1.9228515625)"><path d="M6.873046875,8.0708984375L12.780276875,8.0708984375Q12.851676874999999,8.0708984375,12.921716875000001,8.0848294375Q12.991746875,8.0987594375,13.057716875,8.1260854375Q13.123686875,8.1534114375,13.183056875,8.1930834375Q13.242436875,8.2327544375,13.292926875,8.2832464375Q13.343416874999999,8.3337384375,13.383086875,8.3931104375Q13.422756875000001,8.4524824375,13.450086875,8.5184534375Q13.477406875,8.5844234375,13.491346875,8.6544584375Q13.505276875,8.7244921375,13.505276875,8.7958984375Q13.505276875,8.8673047375,13.491346875,8.9373384375Q13.477406875,9.0073734375,13.450086875,9.0733434375Q13.422756875000001,9.1393144375,13.383086875,9.1986864375Q13.343416874999999,9.2580584375,13.292926875,9.3085504375Q13.242436875,9.3590424375,13.183056875,9.3987134375Q13.123686875,9.4383854375,13.057716875,9.4657114375Q12.991746875,9.4930374375,12.921716875000001,9.5069674375Q12.851676874999999,9.5208984375,12.780276875,9.5208984375L6.873046875,9.5208984375Q6.801640575,9.5208984375,6.731606875,9.5069674375Q6.661571875,9.4930374375,6.595601875,9.4657114375Q6.529630875,9.4383854375,6.470258875,9.3987134375Q6.410886875,9.3590424375,6.360394875,9.3085504375Q6.309902875,9.2580584375,6.270231875,9.1986864375Q6.230559875,9.1393144375,6.2032338750000005,9.0733434375Q6.175907875,9.0073734375,6.161977875,8.9373384375Q6.148046875,8.8673047375,6.148046875,8.7958984375Q6.148046875,8.7244921375,6.161977875,8.6544584375Q6.175907875,8.5844234375,6.2032338750000005,8.5184534375Q6.230559875,8.4524824375,6.270231875,8.3931104375Q6.309902875,8.3337384375,6.360394875,8.2832464375Q6.410886875,8.2327544375,6.470258875,8.1930834375Q6.529630875,8.1534114375,6.595601875,8.1260854375Q6.661571875,8.0987594375,6.731606875,8.0848294375Q6.801640575,8.0708984375,6.873046875,8.0708984375Z" fill-rule="evenodd" fill="#BABAC4" fill-opacity="1"/></g><g transform="matrix(0,0.9999995231628418,-0.9999995231628418,0,19.086909868288785,-1.4951122803613544)"><path d="M10.291015625,8.0708984375L16.198235625,8.0708984375Q16.269645625,8.0708984375,16.339675624999998,8.0848294375Q16.409715625,8.0987594375,16.475685625,8.1260854375Q16.541655625,8.1534114375,16.601025625,8.1930834375Q16.660395625,8.2327544375,16.710895625,8.2832464375Q16.761385625,8.3337384375,16.801055625,8.3931104375Q16.840725625,8.4524824375,16.868055625,8.5184534375Q16.895375625,8.5844234375,16.909305625000002,8.6544584375Q16.923235625,8.7244921375,16.923235625,8.7958984375Q16.923235625,8.8673047375,16.909305625000002,8.9373384375Q16.895375625,9.0073734375,16.868055625,9.0733434375Q16.840725625,9.1393144375,16.801055625,9.1986864375Q16.761385625,9.2580584375,16.710895625,9.3085504375Q16.660395625,9.3590424375,16.601025625,9.3987134375Q16.541655625,9.4383854375,16.475685625,9.4657114375Q16.409715625,9.4930374375,16.339675624999998,9.5069674375Q16.269645625,9.5208984375,16.198235625,9.5208984375L10.291015625,9.5208984375Q10.219609325,9.5208984375,10.149575625,9.5069674375Q10.079540625,9.4930374375,10.013570625,9.4657114375Q9.947599625,9.4383854375,9.888227625,9.3987134375Q9.828855625,9.3590424375,9.778363625,9.3085504375Q9.727871625,9.2580584375,9.688200625,9.1986864375Q9.648528625,9.1393144375,9.621202625,9.0733434375Q9.593876625,9.0073734375,9.579946625,8.9373384375Q9.566015625,8.8673047375,9.566015625,8.7958984375Q9.566015625,8.7244921375,9.579946625,8.6544584375Q9.593876625,8.5844234375,9.621202625,8.5184534375Q9.648528625,8.4524824375,9.688200625,8.3931104375Q9.727871625,8.3337384375,9.778363625,8.2832464375Q9.828855625,8.2327544375,9.888227625,8.1930834375Q9.947599625,8.1534114375,10.013570625,8.1260854375Q10.079540625,8.0987594375,10.149575625,8.0848294375Q10.219609325,8.0708984375,10.291015625,8.0708984375Z" fill-rule="evenodd" fill="#BABAC4" fill-opacity="1"/></g><g transform="matrix(0,0.9999630451202393,-0.9999630451202393,0,25.922526511130854,-8.330421763006598)"><path d="M17.126953125,8.0708984375L20.332203125,8.0708984375Q20.403613125,8.0708984375,20.473643125,8.0848294375Q20.543683125,8.0987594375,20.609653125,8.1260854375Q20.675623125,8.1534114375,20.734993125,8.1930834375Q20.794363125,8.2327544375,20.844863125,8.2832464375Q20.895353125,8.3337384375,20.935023125,8.3931104375Q20.974693125,8.4524824375,21.002023125,8.5184534375Q21.029343125,8.5844234375,21.043273125,8.6544584375Q21.057203125,8.7244921375,21.057203125,8.7958984375Q21.057203125,8.8673047375,21.043273125,8.9373384375Q21.029343125,9.0073734375,21.002023125,9.0733434375Q20.974693125,9.1393144375,20.935023125,9.1986864375Q20.895353125,9.2580584375,20.844863125,9.3085504375Q20.794363125,9.3590424375,20.734993125,9.3987134375Q20.675623125,9.4383854375,20.609653125,9.4657114375Q20.543683125,9.4930374375,20.473643125,9.5069674375Q20.403613125,9.5208984375,20.332203125,9.5208984375L17.126953125,9.5208984375Q17.055546825,9.5208984375,16.985513125,9.5069674375Q16.915478125,9.4930374375,16.849508125,9.4657114375Q16.783537125,9.4383854375,16.724165125,9.3987134375Q16.664793125,9.3590424375,16.614301125,9.3085504375Q16.563809125,9.2580584375,16.524138125,9.1986864375Q16.484466125,9.1393144375,16.457140125,9.0733434375Q16.429814125,9.0073734375,16.415884125,8.9373384375Q16.401953125,8.8673047375,16.401953125,8.7958984375Q16.401953125,8.7244921375,16.415884125,8.6544584375Q16.429814125,8.5844234375,16.457140125,8.5184534375Q16.484466125,8.4524824375,16.524138125,8.3931104375Q16.563809125,8.3337384375,16.614301125,8.2832464375Q16.664793125,8.2327544375,16.724165125,8.1930834375Q16.783537125,8.1534114375,16.849508125,8.1260854375Q16.915478125,8.0987594375,16.985513125,8.0848294375Q17.055546825,8.0708984375,17.126953125,8.0708984375Z" fill-rule="evenodd" fill="#BABAC4" fill-opacity="1"/></g><g transform="matrix(0,1,-1,0,22.5048828125,-4.9130859375)"><path d="M13.708984375,8.0708984375L19.616214375,8.0708984375Q19.687614375,8.0708984375,19.757654375,8.0848294375Q19.827684375,8.0987594375,19.893654375,8.1260854375Q19.959624375,8.1534114375,20.018994375,8.1930834375Q20.078374375,8.2327544375,20.128864375,8.2832464375Q20.179354375,8.3337384375,20.219024375,8.3931104375Q20.258694375,8.4524824375,20.286024375,8.5184534375Q20.313344375,8.5844234375,20.327284374999998,8.6544584375Q20.341214375,8.7244921375,20.341214375,8.7958984375Q20.341214375,8.8673047375,20.327284374999998,8.9373384375Q20.313344375,9.0073734375,20.286024375,9.0733434375Q20.258694375,9.1393144375,20.219024375,9.1986864375Q20.179354375,9.2580584375,20.128864375,9.3085504375Q20.078374375,9.3590424375,20.018994375,9.3987134375Q19.959624375,9.4383854375,19.893654375,9.4657114375Q19.827684375,9.4930374375,19.757654375,9.5069674375Q19.687614375,9.5208984375,19.616214375,9.5208984375L13.708984375,9.5208984375Q13.637578075,9.5208984375,13.567544375,9.5069674375Q13.497509375,9.4930374375,13.431539375,9.4657114375Q13.365568375,9.4383854375,13.306196375,9.3987134375Q13.246824375,9.3590424375,13.196332375,9.3085504375Q13.145840375,9.2580584375,13.106169375,9.1986864375Q13.066497375,9.1393144375,13.039171375,9.0733434375Q13.011845375,9.0073734375,12.997915375,8.9373384375Q12.983984375,8.8673047375,12.983984375,8.7958984375Q12.983984375,8.7244921375,12.997915375,8.6544584375Q13.011845375,8.5844234375,13.039171375,8.5184534375Q13.066497375,8.4524824375,13.106169375,8.3931104375Q13.145840375,8.3337384375,13.196332375,8.2832464375Q13.246824375,8.2327544375,13.306196375,8.1930834375Q13.365568375,8.1534114375,13.431539375,8.1260854375Q13.497509375,8.0987594375,13.567544375,8.0848294375Q13.637578075,8.0708984375,13.708984375,8.0708984375Z" fill-rule="evenodd" fill="#BABAC4" fill-opacity="1"/></g></g></g><g><g transform="matrix(0,1,-1,0,33.78710985183716,-4.072266101837158)"><path d="M18.929687976837158,13.982421875L23.072267976837157,13.982421875Q23.15844797683716,13.982421875,23.242967976837157,13.999234874999999Q23.327497976837158,14.016047875,23.407117976837156,14.049027875Q23.48673797683716,14.082006875,23.55838797683716,14.129885875Q23.630047976837158,14.177764875,23.690987976837157,14.238703875Q23.75192797683716,14.299641875,23.79979797683716,14.371297875Q23.847677976837158,14.442953875,23.880657976837156,14.522573875Q23.91363797683716,14.602193875,23.930457976837157,14.686717875Q23.947267976837157,14.771241875,23.947267976837157,14.857421875Q23.947267976837157,14.943601875,23.930457976837157,15.028125875Q23.91363797683716,15.112649875,23.880657976837156,15.192269875Q23.847677976837158,15.271889875,23.79979797683716,15.343545875Q23.75192797683716,15.415201875,23.690987976837157,15.476139875Q23.630047976837158,15.537078875,23.55838797683716,15.584957875Q23.48673797683716,15.632836875,23.407117976837156,15.665815875Q23.327497976837158,15.698795875,23.242967976837157,15.715608875000001Q23.15844797683716,15.732421875,23.072267976837157,15.732421875L18.929687976837158,15.732421875Q18.84350797683716,15.732421875,18.758983976837158,15.715608875000001Q18.67445997683716,15.698795875,18.594839976837157,15.665815875Q18.51521997683716,15.632836875,18.443563976837158,15.584957875Q18.371907976837157,15.537078875,18.310969976837157,15.476139875Q18.25003097683716,15.415201875,18.202151976837158,15.343545875Q18.15427297683716,15.271889875,18.12129397683716,15.192269875Q18.08831397683716,15.112649875,18.071500976837157,15.028125875Q18.054687976837158,14.943601875,18.054687976837158,14.857421875Q18.054687976837158,14.771241875,18.071500976837157,14.686717875Q18.08831397683716,14.602193875,18.12129397683716,14.522573875Q18.15427297683716,14.442953875,18.202151976837158,14.371297875Q18.25003097683716,14.299641875,18.310969976837157,14.238703875Q18.371907976837157,14.177764875,18.443563976837158,14.129885875Q18.51521997683716,14.082006875,18.594839976837157,14.049027875Q18.67445997683716,14.016047875,18.758983976837158,13.999234874999999Q18.84350797683716,13.982421875,18.929687976837158,13.982421875Z" fill-rule="evenodd" fill="#BABAC4" fill-opacity="1"/></g><g transform="matrix(-1,5.400848479553133e-8,-5.400848479553133e-8,-1,42.000001867968344,33.857420740821794)"><path d="M21.000000476837158,16.0537109375L25.142580476837157,16.0537109375Q25.22876047683716,16.0537109375,25.313280476837157,16.0705239375Q25.397810476837158,16.0873369375,25.477430476837156,16.1203169375Q25.55705047683716,16.1532959375,25.62870047683716,16.2011749375Q25.700360476837158,16.2490539375,25.761300476837157,16.3099929375Q25.82224047683716,16.3709309375,25.87011047683716,16.4425869375Q25.917990476837158,16.5142429375,25.950970476837156,16.5938629375Q25.98395047683716,16.6734829375,26.000770476837157,16.7580069375Q26.017580476837157,16.8425309375,26.017580476837157,16.9287109375Q26.017580476837157,17.0148909375,26.000770476837157,17.0994149375Q25.98395047683716,17.1839389375,25.950970476837156,17.2635589375Q25.917990476837158,17.3431789375,25.87011047683716,17.4148349375Q25.82224047683716,17.4864909375,25.761300476837157,17.5474289375Q25.700360476837158,17.6083679375,25.62870047683716,17.6562469375Q25.55705047683716,17.7041259375,25.477430476837156,17.7371049375Q25.397810476837158,17.7700849375,25.313280476837157,17.7868979375Q25.22876047683716,17.8037109375,25.142580476837157,17.8037109375L21.000000476837158,17.8037109375Q20.91382047683716,17.8037109375,20.829296476837158,17.7868979375Q20.74477247683716,17.7700849375,20.665152476837157,17.7371049375Q20.58553247683716,17.7041259375,20.513876476837158,17.6562469375Q20.442220476837157,17.6083679375,20.381282476837157,17.5474289375Q20.32034347683716,17.4864909375,20.272464476837158,17.4148349375Q20.22458547683716,17.3431789375,20.19160647683716,17.2635589375Q20.15862647683716,17.1839389375,20.141813476837157,17.0994149375Q20.125000476837158,17.0148909375,20.125000476837158,16.9287109375Q20.125000476837158,16.8425309375,20.141813476837157,16.7580069375Q20.15862647683716,16.6734829375,20.19160647683716,16.5938629375Q20.22458547683716,16.5142429375,20.272464476837158,16.4425869375Q20.32034347683716,16.3709309375,20.381282476837157,16.3099929375Q20.442220476837157,16.2490539375,20.513876476837158,16.2011749375Q20.58553247683716,16.1532959375,20.665152476837157,16.1203169375Q20.74477247683716,16.0873369375,20.829296476837158,16.0705239375Q20.91382047683716,16.0537109375,21.000000476837158,16.0537109375Z" fill-rule="evenodd" fill="#BABAC4" fill-opacity="1"/></g></g></g></g></svg>