<svg xmlns="http://www.w3.org/2000/svg" xmlns:xlink="http://www.w3.org/1999/xlink" fill="none" version="1.1" width="24" height="24" viewBox="0 0 24 24"><defs><clipPath id="master_svg0_54469_102736"><rect x="0" y="0" width="24" height="24" rx="0"/></clipPath></defs><g clip-path="url(#master_svg0_54469_102736)"><g><path d="M11.97577859375,21.974387548828126C11.19096859375,21.974387548828126,10.40736859375,21.769187548828125,9.71256859375,21.357587548828125L4.93536859375,18.536387548828124C3.57097259375,17.729987548828127,2.73217249375,16.245587548828127,2.74777259875,14.660387548828124L2.80177269375,9.112797548828125C2.81737259375,7.527597548828125,3.68497259375,6.058797548828125,5.064968593750001,5.279997548828125L9.89616859375,2.553600548828125C11.27616859375,1.774800548828125,12.98255859375,1.791600548828125,14.34695859375,2.596800548828125L19.12415859375,5.417997548828125C20.48855859375,6.224397548828125,21.32735859375,7.708797548828125,21.31175859375,9.293997548828125L21.25775859375,14.841587548828125C21.24215859375,16.426787548828123,20.37455859375,17.895587548828125,18.99455859375,18.674387548828125L14.16335859375,21.400787548828124C13.48655859375,21.784787548828124,12.73056859375,21.974387548828126,11.97577859375,21.974387548828126ZM11.97577859375,20.274387548828123Q12.70372859375,20.274387548828123,13.32785859375,19.920287548828124L18.15905859375,17.193887548828123Q18.79745859375,16.833587548828127,19.17405859375,16.195987548828125Q19.55065859375,15.558187548828124,19.55785859375,14.825087548828124L19.61185859375,9.277267548828124Q19.61905859375,8.544377548828125,19.25515859375,7.899737548828125Q18.89105859375,7.254957548828125,18.25975859375,6.881807548828125L13.48295859375,4.060857548828125Q12.85175859375,3.688337548828125,12.11085859375,3.6811175488281247Q11.36996859375,3.673897548828125,10.73167859375,4.0341175488281245L5.90049859375,6.760507548828125Q5.262088593750001,7.120787548828125,4.885538593750001,7.758437548828125Q4.50890859375,8.396207548828125,4.50168859375,9.129347548828125L4.44768859375,14.677087548828124Q4.44047859375,15.409987548828125,4.80442859375,16.054687548828127Q5.16846859375,16.699487548828124,5.79982859375,17.072587548828125L10.57902859375,19.894987548828126Q11.21950859375,20.274387548828123,11.97577859375,20.274387548828123Z" fill-rule="evenodd" fill="#121212" fill-opacity="1"/></g><g><path d="M12.030296875,15.854539062499999C9.893096875,15.854539062499999,8.154296875,14.115739062500001,8.154296875,11.9785390625C8.154296875,9.8413390625,9.893096875,8.1025390625,12.030296875,8.1025390625C14.167496875000001,8.1025390625,15.906296874999999,9.8413390625,15.906296874999999,11.9785390625C15.906296874999999,14.115739062500001,14.167496875000001,15.854539062499999,12.030296875,15.854539062499999ZM12.030296875,14.1545390625Q12.929036875000001,14.1545390625,13.567666875,13.5159090625Q14.206296875,12.877279062500001,14.206296875,11.9785390625Q14.206296875,11.0797990625,13.567666875,10.4411690625Q12.929036875000001,9.8025390625,12.030296875,9.8025390625Q11.131556875,9.8025390625,10.492926875,10.4411690625Q9.854296875,11.0797990625,9.854296875,11.9785390625Q9.854296875,12.877279062500001,10.492926875,13.5159090625Q11.131556875,14.1545390625,12.030296875,14.1545390625Z" fill-rule="evenodd" fill="#121212" fill-opacity="1"/></g></g></svg>